<svg id="a5591e5d-724a-4754-b07e-a66a8c48840a" data-name="Layer 4" xmlns="http://www.w3.org/2000/svg" viewBox="0 0 700 412"><title>safari-pinned-tab</title><path d="M350,385.5S247.2,287.8,247.2,188.9C247.2,93.8,350,0,350,0S452.8,93.8,452.8,190.2,350,385.5,350,385.5Z" style="opacity:0.75"/><path d="M349.4,384.5s46.2-134,136.1-175.1C572,169.9,700,224.5,700,224.5S657.4,356.9,569.7,396.9,349.4,384.5,349.4,384.5Z" style="opacity:0.75"/><path d="M350.6,384.5s-46.2-134-136.1-175.1C128,169.9,0,224.5,0,224.5S42.6,356.9,130.3,396.9,350.6,384.5,350.6,384.5Z" style="opacity:0.75"/><path d="M349.6,384.4S381.5,246.3,327,163.7c-52.4-79.3-189.8-101-189.8-101s-34.1,134.9,19,215.4S349.6,384.4,349.6,384.4Z" style="opacity:0.75"/><path d="M350.3,384.4s-32-138.1,22.5-220.7c52.4-79.3,189.8-101,189.8-101s34.1,134.9-19,215.4S350.3,384.4,350.3,384.4Z" style="opacity:0.75"/></svg>