<svg width="399" height="221" viewBox="0 0 399 221" fill="none" xmlns="http://www.w3.org/2000/svg">
    <g clip-path="url(#clip0_1_4656)">
        <path d="M399 216.108H0V221H399V216.108Z" fill="#133DBD"/>
        <path d="M149.275 151.306H81.7866V157.688H149.275V151.306Z" fill="#65D78D"/>
        <path d="M171.063 113.762C170.48 113.761 169.917 113.553 169.475 113.174C169.033 112.796 168.74 112.272 168.649 111.697L162.263 71.2806C162.208 70.9314 162.229 70.5744 162.325 70.234C162.421 69.8937 162.59 69.5783 162.819 69.3095C163.049 69.0407 163.335 68.8248 163.656 68.6769C163.977 68.529 164.327 68.4525 164.681 68.4526H197.834L192.084 41.6319C192.005 41.2619 192.013 40.8786 192.106 40.5121C192.2 40.1455 192.378 39.8058 192.626 39.5195C192.873 39.2332 193.184 39.0082 193.533 38.8622C193.882 38.7161 194.261 38.653 194.639 38.6778L223.787 40.5929L218.363 15.2076C218.296 14.8934 218.292 14.5691 218.35 14.2532C218.408 13.9373 218.528 13.6359 218.703 13.3664C218.878 13.0968 219.104 12.8643 219.369 12.6821C219.634 12.4999 219.932 12.3717 220.246 12.3046C220.561 12.2376 220.885 12.233 221.201 12.2913C221.517 12.3496 221.819 12.4695 222.088 12.6443C222.358 12.819 222.591 13.0451 222.773 13.3097C222.955 13.5743 223.084 13.8722 223.151 14.1864L229.251 42.7353C229.33 43.1052 229.322 43.4884 229.228 43.8547C229.134 44.2211 228.956 44.5607 228.709 44.8468C228.461 45.1329 228.151 45.3577 227.801 45.5035C227.452 45.6493 227.074 45.7121 226.696 45.6871L197.55 43.772L203.256 70.3856C203.332 70.7423 203.328 71.1115 203.243 71.4663C203.158 71.821 202.995 72.1523 202.766 72.436C202.536 72.7196 202.246 72.9484 201.917 73.1056C201.587 73.2628 201.227 73.3444 200.862 73.3445H167.546L173.484 110.933C173.534 111.251 173.521 111.575 173.446 111.887C173.371 112.199 173.235 112.494 173.046 112.754C172.857 113.014 172.619 113.234 172.345 113.401C172.07 113.569 171.766 113.681 171.448 113.731C171.321 113.752 171.192 113.762 171.063 113.762Z" fill="#133DBD"/>
        <path d="M88.0977 100.679H115.73C128.713 100.679 141.164 105.834 150.344 115.009C159.524 124.184 164.681 136.628 164.681 149.604H62.522V126.241C62.522 119.461 65.2165 112.96 70.0129 108.166C74.8093 103.372 81.3146 100.679 88.0977 100.679Z" fill="white"/>
        <path d="M167.128 152.05H60.0742V126.241C60.0827 118.815 63.038 111.696 68.2917 106.446C73.5454 101.195 80.6685 98.2416 88.0982 98.2334H115.73C129.357 98.2488 142.422 103.666 152.057 113.297C161.693 122.927 167.113 135.984 167.128 149.604V152.05ZM64.9688 147.158H162.169C161.528 135.276 156.358 124.091 147.721 115.902C139.084 107.712 127.636 103.14 115.73 103.125H88.0982C81.9662 103.132 76.0872 105.57 71.7511 109.903C67.415 114.237 64.9759 120.112 64.9688 126.241V147.158Z" fill="#133DBD"/>
        <path d="M150.102 181.829H77.1016V147.158H150.102V181.829ZM81.9961 176.938H145.207V152.05H81.9961V176.938Z" fill="#133DBD"/>
        <path d="M164.682 179.384H64.6505C54.0715 179.384 45.4956 187.955 45.4956 198.528V198.528C45.4956 209.101 54.0715 217.672 64.6505 217.672H164.682C175.26 217.672 183.836 209.101 183.836 198.528C183.836 187.955 175.26 179.384 164.682 179.384Z" fill="white"/>
        <path d="M164.681 220.118H64.6499C58.9234 220.114 53.433 217.837 49.3853 213.789C45.3377 209.74 43.064 204.251 43.064 198.528C43.064 192.805 45.3377 187.315 49.3853 183.267C53.433 179.219 58.9234 176.942 64.6499 176.938H164.681C167.519 176.935 170.33 177.492 172.953 178.576C175.575 179.66 177.959 181.25 179.966 183.256C181.974 185.261 183.567 187.641 184.653 190.262C185.74 192.882 186.299 195.691 186.299 198.528C186.299 201.364 185.74 204.173 184.653 206.794C183.567 209.414 181.974 211.795 179.966 213.8C177.959 215.805 175.575 217.395 172.953 218.479C170.33 219.563 167.519 220.12 164.681 220.118ZM64.6499 181.83C60.2212 181.833 55.9753 183.594 52.8451 186.725C49.7149 189.857 47.9566 194.102 47.9566 198.528C47.9566 202.954 49.7149 207.199 52.8451 210.33C55.9753 213.462 60.2212 215.222 64.6499 215.226H164.681C166.876 215.228 169.05 214.798 171.079 213.959C173.108 213.121 174.951 211.891 176.504 210.34C178.057 208.79 179.289 206.948 180.13 204.921C180.97 202.895 181.403 200.722 181.403 198.528C181.403 196.334 180.97 194.161 180.13 192.134C179.289 190.108 178.057 188.266 176.504 186.715C174.951 185.165 173.108 183.935 171.079 183.097C169.05 182.258 166.876 181.828 164.681 181.83H64.6499Z" fill="#133DBD"/>
        <path d="M160.664 127.996L156.873 124.899L243.876 18.5001L232.259 6.88865L131.109 106.173L127.679 102.681L232.29 0L250.47 18.1686L160.664 127.996Z" fill="#133DBD"/>
        <path d="M66.7787 211.291C73.8313 211.291 79.5486 205.577 79.5486 198.528C79.5486 191.479 73.8313 185.765 66.7787 185.765C59.7261 185.765 54.0088 191.479 54.0088 198.528C54.0088 205.577 59.7261 211.291 66.7787 211.291Z" fill="white"/>
        <path d="M66.7792 213.737C63.7695 213.737 60.8274 212.845 58.325 211.174C55.8225 209.503 53.8721 207.128 52.7204 204.349C51.5686 201.569 51.2673 198.512 51.8544 195.561C52.4416 192.611 53.8909 189.901 56.019 187.774C58.1472 185.647 60.8586 184.199 63.8105 183.612C66.7623 183.025 69.822 183.326 72.6026 184.477C75.3831 185.628 77.7597 187.578 79.4318 190.079C81.1039 192.58 81.9964 195.52 81.9964 198.528C81.9919 202.561 80.3872 206.426 77.5344 209.278C74.6816 212.129 70.8137 213.733 66.7792 213.737ZM66.7792 188.211C64.7376 188.211 62.7418 188.817 61.0442 189.95C59.3467 191.084 58.0236 192.695 57.2423 194.58C56.461 196.465 56.2566 198.54 56.6549 200.541C57.0532 202.542 58.0364 204.381 59.48 205.824C60.9236 207.266 62.763 208.249 64.7654 208.647C66.7677 209.045 68.8433 208.841 70.7295 208.06C72.6157 207.279 74.2279 205.957 75.3621 204.26C76.4964 202.564 77.1018 200.569 77.1018 198.528C77.0985 195.793 76.0099 193.171 74.0747 191.237C72.1396 189.303 69.5159 188.215 66.7792 188.211Z" fill="#133DBD"/>
        <path d="M98.7035 211.291C105.756 211.291 111.473 205.577 111.473 198.528C111.473 191.479 105.756 185.765 98.7035 185.765C91.6509 185.765 85.9336 191.479 85.9336 198.528C85.9336 205.577 91.6509 211.291 98.7035 211.291Z" fill="white"/>
        <path d="M98.703 213.737C95.6933 213.737 92.7512 212.845 90.2488 211.174C87.7463 209.503 85.7959 207.128 84.6442 204.349C83.4924 201.569 83.1911 198.511 83.7782 195.561C84.3654 192.611 85.8147 189.901 87.9429 187.774C90.071 185.647 92.7825 184.199 95.7343 183.612C98.6862 183.025 101.746 183.326 104.526 184.477C107.307 185.628 109.684 187.578 111.356 190.079C113.028 192.58 113.92 195.52 113.92 198.528C113.916 202.561 112.311 206.426 109.458 209.278C106.605 212.129 102.737 213.733 98.703 213.737ZM98.703 188.211C96.6614 188.211 94.6656 188.817 92.968 189.95C91.2705 191.084 89.9474 192.695 89.1661 194.58C88.3848 196.465 88.1804 198.54 88.5787 200.541C88.977 202.542 89.9601 204.381 91.4038 205.824C92.8474 207.266 94.6868 208.249 96.6892 208.647C98.6915 209.045 100.767 208.841 102.653 208.06C104.54 207.279 106.152 205.957 107.286 204.26C108.42 202.564 109.026 200.569 109.026 198.528C109.022 195.793 107.934 193.171 105.999 191.237C104.063 189.303 101.44 188.215 98.703 188.211Z" fill="#133DBD"/>
        <path d="M130.628 211.291C137.681 211.291 143.398 205.577 143.398 198.528C143.398 191.479 137.681 185.765 130.628 185.765C123.576 185.765 117.858 191.479 117.858 198.528C117.858 205.577 123.576 211.291 130.628 211.291Z" fill="white"/>
        <path d="M130.628 213.737C127.619 213.737 124.677 212.845 122.174 211.174C119.672 209.503 117.721 207.128 116.569 204.349C115.418 201.569 115.116 198.512 115.704 195.561C116.291 192.611 117.74 189.901 119.868 187.774C121.996 185.647 124.708 184.199 127.66 183.612C130.611 183.025 133.671 183.326 136.452 184.477C139.232 185.628 141.609 187.578 143.281 190.079C144.953 192.58 145.845 195.52 145.845 198.528C145.841 202.561 144.236 206.426 141.384 209.278C138.531 212.129 134.663 213.733 130.628 213.737ZM130.628 188.211C128.587 188.211 126.591 188.817 124.893 189.95C123.196 191.084 121.873 192.695 121.091 194.58C120.31 196.465 120.106 198.54 120.504 200.541C120.902 202.542 121.885 204.381 123.329 205.824C124.773 207.266 126.612 208.249 128.614 208.647C130.617 209.045 132.692 208.841 134.579 208.06C136.465 207.279 138.077 205.957 139.211 204.26C140.346 202.564 140.951 200.569 140.951 198.528C140.948 195.793 139.859 193.171 137.924 191.237C135.989 189.303 133.365 188.215 130.628 188.211Z" fill="#133DBD"/>
        <path d="M162.553 211.291C169.606 211.291 175.323 205.577 175.323 198.528C175.323 191.479 169.606 185.765 162.553 185.765C155.5 185.765 149.783 191.479 149.783 198.528C149.783 205.577 155.5 211.291 162.553 211.291Z" fill="white"/>
        <path d="M162.553 213.737C159.543 213.737 156.601 212.845 154.098 211.174C151.596 209.503 149.646 207.128 148.494 204.349C147.342 201.569 147.041 198.512 147.628 195.561C148.215 192.611 149.664 189.901 151.792 187.774C153.921 185.647 156.632 184.199 159.584 183.612C162.536 183.025 165.595 183.326 168.376 184.477C171.157 185.628 173.533 187.578 175.205 190.079C176.877 192.58 177.77 195.52 177.77 198.528C177.765 202.561 176.161 206.426 173.308 209.278C170.455 212.129 166.587 213.733 162.553 213.737ZM162.553 188.211C160.511 188.211 158.515 188.817 156.818 189.95C155.12 191.084 153.797 192.695 153.016 194.58C152.234 196.465 152.03 198.54 152.428 200.541C152.827 202.542 153.81 204.381 155.253 205.824C156.697 207.266 158.536 208.249 160.539 208.647C162.541 209.045 164.617 208.841 166.503 208.06C168.389 207.279 170.001 205.957 171.136 204.26C172.27 202.564 172.875 200.569 172.875 198.528C172.872 195.793 171.783 193.171 169.848 191.237C167.913 189.303 165.289 188.215 162.553 188.211Z" fill="#133DBD"/>
        <path d="M161.215 131.339H129.496L128.182 100.784L133.075 100.575L134.186 126.447H161.215V131.339Z" fill="#133DBD"/>
        <path d="M221.255 12.3012L220.259 17.0918L245.059 22.2431L246.055 17.4525L221.255 12.3012Z" fill="#133DBD"/>
        <path d="M248.005 19.8472H243.11V86.6395H248.005V19.8472Z" fill="#133DBD"/>
        <path d="M266.267 115.02H224.482V83.515H266.267L266.267 115.02ZM229.377 110.129H261.373V88.4069H229.377L229.377 110.129Z" fill="#133DBD"/>
        <path d="M272.111 121.592H219.004V110.129H272.111V121.592ZM223.899 116.7H267.216V115.021H223.899V116.7Z" fill="#133DBD"/>
        <path d="M277.464 169.379C277.464 169.379 281.943 157.121 292.056 157.121C302.168 157.121 307.286 168.41 307.286 168.41C307.286 168.41 294.655 154.205 277.464 169.379Z" fill="#65D78D"/>
        <path d="M308.337 208.799H276.412C276.091 208.799 275.773 208.736 275.476 208.613C275.179 208.49 274.909 208.31 274.682 208.083C274.454 207.855 274.274 207.586 274.151 207.289C274.028 206.992 273.965 206.674 273.965 206.353V171.255C273.965 168.839 274.441 166.446 275.366 164.214C276.291 161.982 277.647 159.953 279.357 158.245C281.067 156.536 283.096 155.181 285.33 154.256C287.563 153.332 289.957 152.856 292.375 152.856C294.792 152.856 297.186 153.332 299.42 154.256C301.654 155.181 303.683 156.536 305.393 158.245C307.102 159.953 308.458 161.982 309.383 164.214C310.309 166.446 310.785 168.839 310.785 171.255V206.353C310.785 206.674 310.721 206.992 310.598 207.289C310.476 207.586 310.295 207.855 310.068 208.083C309.841 208.31 309.571 208.49 309.274 208.613C308.977 208.736 308.659 208.799 308.337 208.799ZM278.859 203.907H305.89V171.255C305.89 167.673 304.466 164.237 301.932 161.704C299.397 159.171 295.959 157.748 292.375 157.748C288.79 157.748 285.353 159.171 282.818 161.704C280.283 164.237 278.859 167.673 278.859 171.255V203.907Z" fill="#133DBD"/>
        <path d="M350.904 206.353H233.846V216.989H350.904V206.353Z" fill="white"/>
        <path d="M350.903 220.435H233.846C233.525 220.435 233.207 220.372 232.91 220.249C232.613 220.126 232.343 219.946 232.116 219.719C231.888 219.491 231.708 219.222 231.585 218.925C231.462 218.628 231.399 218.31 231.399 217.989V207.353C231.399 207.032 231.462 206.714 231.585 206.417C231.708 206.12 231.888 205.851 232.116 205.623C232.343 205.396 232.613 205.216 232.91 205.093C233.207 204.97 233.525 204.907 233.846 204.907H350.903C351.225 204.907 351.543 204.97 351.84 205.093C352.137 205.216 352.407 205.396 352.634 205.623C352.861 205.851 353.041 206.12 353.164 206.417C353.287 206.714 353.351 207.032 353.351 207.353V217.989C353.351 218.31 353.287 218.628 353.164 218.925C353.041 219.222 352.861 219.491 352.634 219.719C352.407 219.946 352.137 220.126 351.84 220.249C351.543 220.372 351.225 220.435 350.903 220.435ZM236.293 215.543H348.456V209.799H236.293L236.293 215.543Z" fill="#133DBD"/>
        <path d="M346.967 209.799H237.784V138.972H249.434V143.865H283.832L283.661 134.079H314.423L314.708 114.507H346.967V209.799ZM242.678 204.907H342.072V119.398H319.533L319.249 138.971H288.644L288.814 148.757H244.54V143.864H242.678V204.907Z" fill="#133DBD"/>
    </g>
    <defs>
        <clipPath id="clip0_1_4656">
            <rect width="399" height="221" fill="white"/>
        </clipPath>
    </defs>
</svg>
