<svg width="500" height="200" viewBox="0 0 500 200" fill="none" xmlns="http://www.w3.org/2000/svg">
    <ellipse cx="198.905" cy="97.0238" rx="102.381" ry="97.0238" fill="#E4EAF5"/>
    <ellipse cx="307.833" cy="111.31" rx="77.9762" ry="73.2143" fill="#E4EAF5"/>
    <ellipse cx="385.81" cy="136.31" rx="51.1905" ry="48.2143" fill="#E4EAF5"/>
    <ellipse cx="113.19" cy="135.119" rx="51.1905" ry="48.2143" fill="#E4EAF5"/>
    <path d="M250.69 200C341.77 200 415.604 188.391 415.604 174.07C415.604 159.749 341.77 148.14 250.69 148.14C159.611 148.14 85.7766 159.749 85.7766 174.07C85.7766 188.391 159.611 200 250.69 200Z" fill="#A8BEEA"/>
    <path d="M293.537 104H215.463L206 134H303L293.537 104Z" fill="white"/>
    <path d="M300.867 126.451V131.473H299.31V135.119H304.519V122.805H300.741L301.404 126.451H300.867Z" fill="#133DBD"/>
    <path d="M209.024 131.473V126.451H208.488L209.151 122.805H205.372V135.119H210.589V131.473H209.024Z" fill="#133DBD"/>
    <path d="M214.233 139.36V199.36C222.632 199.658 231.269 199.859 240.1 199.948V197.946C240.104 194.11 241.633 190.431 244.35 187.718C247.068 185.005 250.752 183.479 254.595 183.475H255.296C259.139 183.479 262.823 185.005 265.541 187.718C268.258 190.431 269.787 194.11 269.791 197.946V199.829C278.644 199.665 287.289 199.397 295.658 199.025V139.36H214.233ZM244.617 178.423H221.872V160.164C221.872 157.152 223.07 154.264 225.203 152.135C227.336 150.006 230.228 148.81 233.244 148.81C236.26 148.81 239.153 150.006 241.286 152.135C243.418 154.264 244.617 157.152 244.617 160.164V178.423ZM263.538 178.423V160.164C263.538 157.152 264.736 154.264 266.869 152.135C269.002 150.006 271.894 148.81 274.911 148.81C277.927 148.81 280.819 150.006 282.952 152.135C285.085 154.264 286.283 157.152 286.283 160.164V178.423H263.538Z" fill="white"/>
    <path d="M255.296 187.121H254.595C251.72 187.123 248.962 188.263 246.928 190.293C244.893 192.323 243.749 195.075 243.745 197.946V200C246.055 200 248.365 200 250.69 200C255.902 200 261.054 199.963 266.147 199.888V197.946C266.143 195.075 264.998 192.323 262.964 190.293C260.929 188.263 258.172 187.123 255.296 187.121Z" fill="#A8BEEA"/>
    <path d="M234.824 158.147C232.395 158.147 230.42 156.763 230.42 155.067C230.466 154.513 230.666 153.984 230.998 153.538C231.33 153.092 231.78 152.748 232.298 152.545C230.432 152.773 228.714 153.673 227.466 155.075C226.217 156.478 225.524 158.287 225.516 160.164V174.807H241.002V160.164C240.993 158.39 240.366 156.675 239.229 155.313C239.012 156.89 237.142 158.147 234.824 158.147Z" fill="white"/>
    <path d="M278.011 158.147C275.581 158.147 273.606 156.763 273.606 155.067C273.652 154.501 273.859 153.961 274.202 153.509C274.545 153.056 275.011 152.712 275.544 152.515C275.328 152.515 275.127 152.448 274.911 152.448C272.863 152.452 270.9 153.266 269.453 154.713C268.006 156.159 267.192 158.119 267.19 160.164V174.807H282.639V160.164C282.63 158.945 282.329 157.745 281.759 156.667C281.272 157.16 280.687 157.547 280.041 157.802C279.396 158.056 278.704 158.174 278.011 158.147Z" fill="white"/>
    <path d="M295.658 135.119H214.233V139.368H295.658V135.119Z" fill="#65D78D"/>
    <path d="M296.612 135.119V198.981L299.31 198.854V135.119H296.612Z" fill="#133DBD"/>
    <path d="M213.279 135.119H210.582V199.256L213.279 199.36V135.119Z" fill="#133DBD"/>
    <path d="M296.612 131.473V134.159V135.119H299.31V131.473H296.612Z" fill="#133DBD"/>
    <path d="M213.279 134.159V131.473H210.589V135.119H213.279V134.159Z" fill="#133DBD"/>
    <path d="M213.279 139.36V199.33H214.233V139.36H213.279Z" fill="#133DBD"/>
    <path d="M295.658 139.36V199.025L296.612 198.981V139.36H295.658Z" fill="#133DBD"/>
    <path d="M296.619 131.473H213.279V134.159H296.619V131.473Z" fill="#133DBD"/>
    <path d="M214.233 135.119H213.279V139.368H214.233V135.119Z" fill="#133DBD"/>
    <path d="M296.612 135.119H295.658V139.368H296.612V135.119Z" fill="#133DBD"/>
    <path d="M213.279 134.159V135.119H214.233H295.658H296.612V134.159H213.279Z" fill="#133DBD"/>
    <path d="M255.296 183.475H254.595C250.752 183.479 247.068 185.005 244.35 187.718C241.633 190.431 240.104 194.11 240.1 197.946V199.948H243.745V197.917C243.749 195.045 244.893 192.293 246.928 190.263C248.962 188.234 251.719 187.093 254.595 187.091H255.296C258.172 187.093 260.929 188.234 262.964 190.263C264.998 192.293 266.143 195.045 266.147 197.917V199.859L269.791 199.799V197.917C269.779 194.085 268.247 190.414 265.53 187.707C262.814 185.001 259.134 183.479 255.296 183.475Z" fill="#133DBD"/>
    <path d="M213.302 120.387H212.586V116.741H213.965L214.561 113.452H214.323V109.807H215.224L215.664 107.381H273.085V103.743H212.624L209.151 122.805H212.862L213.302 120.387Z" fill="#133DBD"/>
    <path d="M294.227 107.381L294.667 109.807H296.612V113.452H295.33L295.926 116.741H296.612V120.387H296.59L297.037 122.805H300.741L297.268 103.743H287.155V107.381H294.227Z" fill="#133DBD"/>
    <path d="M209.024 126.451H273.085V122.805H212.862H209.151L208.488 126.451H209.024Z" fill="#133DBD"/>
    <path d="M287.155 122.805V126.451H300.867H301.404L300.741 122.805H297.037H287.155Z" fill="#133DBD"/>
    <path d="M283.503 102.18H276.736V103.735H283.503V102.18Z" fill="white"/>
    <path d="M283.503 107.381H276.736V122.805H283.503V107.381Z" fill="white"/>
    <path d="M283.503 103.743H276.736V107.388H283.503V103.743Z" fill="white"/>
    <path d="M274.911 100.357H285.329V103.743H287.155V98.5417H273.085V103.743H274.911V100.357Z" fill="#133DBD"/>
    <path d="M274.911 107.381H273.085V109.807H274.046V113.452H273.085V116.741H274.046V120.387H273.085V122.805H274.911V107.381Z" fill="#133DBD"/>
    <path d="M287.155 122.805V120.387H285.508V116.741H287.155V113.452H285.508V109.807H287.155V107.381H285.329V122.805H287.155Z" fill="#133DBD"/>
    <path d="M274.911 103.743H273.085V107.388H274.911V103.743Z" fill="#133DBD"/>
    <path d="M287.155 103.743H285.329V107.388H287.155V103.743Z" fill="#133DBD"/>
    <path d="M287.155 122.805H285.329V124.628H274.911V122.805H273.085V126.451H287.155V122.805Z" fill="#133DBD"/>
    <path d="M276.736 102.18H283.503V103.743H285.329V100.357H274.911V103.743H276.736V102.18Z" fill="#133DBD"/>
    <path d="M276.736 107.381H274.911V122.805H276.736V107.381Z" fill="#133DBD"/>
    <path d="M285.329 107.381H283.503V122.805H285.329V107.381Z" fill="#133DBD"/>
    <path d="M285.329 103.743H283.503V107.388H285.329V103.743Z" fill="#133DBD"/>
    <path d="M276.736 103.743H274.911V107.388H276.736V103.743Z" fill="#133DBD"/>
    <path d="M276.736 122.805H274.911V124.628H285.329V122.805H283.503H276.736Z" fill="#133DBD"/>
    <path d="M273.085 109.807H215.224L214.561 113.452H273.085V109.807Z" fill="#133DBD"/>
    <path d="M214.323 109.807V113.452H214.561L215.225 109.807H214.323Z" fill="#133DBD"/>
    <path d="M274.039 109.807H273.085V113.452H274.039V109.807Z" fill="#133DBD"/>
    <path d="M273.085 116.741H213.965L213.302 120.387H273.085V116.741Z" fill="#133DBD"/>
    <path d="M212.586 116.741V120.387H213.302L213.965 116.741H212.586Z" fill="#133DBD"/>
    <path d="M274.039 116.741H273.085V120.387H274.039V116.741Z" fill="#133DBD"/>
    <path d="M287.155 113.452H295.33L294.667 109.807H287.155V113.452Z" fill="#133DBD"/>
    <path d="M296.612 113.452V109.807H294.667L295.33 113.452H296.612Z" fill="#133DBD"/>
    <path d="M287.155 109.807H285.508V113.452H287.155V109.807Z" fill="#133DBD"/>
    <path d="M287.155 120.387H296.59L295.926 116.741H287.155V120.387Z" fill="#133DBD"/>
    <path d="M296.612 120.387V116.741H295.926L296.59 120.387H296.612Z" fill="#133DBD"/>
    <path d="M287.155 116.741H285.508V120.387H287.155V116.741Z" fill="#133DBD"/>
    <path d="M230.42 155.067C230.42 156.763 232.395 158.147 234.824 158.147C237.142 158.147 239.012 156.89 239.199 155.313C238.482 154.421 237.574 153.702 236.543 153.206C235.511 152.71 234.382 152.451 233.237 152.448C232.92 152.461 232.604 152.494 232.29 152.545C231.774 152.749 231.326 153.094 230.995 153.54C230.664 153.985 230.465 154.514 230.42 155.067Z" fill="#65D78D"/>
    <path d="M273.606 155.067C273.606 156.763 275.581 158.147 278.011 158.147C278.701 158.17 279.389 158.05 280.03 157.794C280.672 157.537 281.253 157.151 281.737 156.659C281.141 155.496 280.257 154.504 279.169 153.777C278.082 153.051 276.826 152.614 275.522 152.507C274.992 152.708 274.53 153.056 274.191 153.509C273.852 153.962 273.649 154.503 273.606 155.067Z" fill="#65D78D"/>
    <path d="M274.911 148.81C271.896 148.814 269.005 150.011 266.873 152.139C264.742 154.268 263.542 157.154 263.538 160.164V178.423H286.283V160.164C286.281 157.153 285.082 154.266 282.95 152.137C280.818 150.008 277.926 148.812 274.911 148.81ZM282.639 174.807H267.19V160.164C267.192 158.119 268.006 156.159 269.453 154.713C270.9 153.266 272.863 152.452 274.911 152.448C275.127 152.448 275.328 152.5 275.544 152.515C276.317 152.159 277.159 151.978 278.011 151.987C280.448 151.987 282.423 153.363 282.423 155.067C282.405 155.663 282.169 156.232 281.759 156.667C282.329 157.745 282.63 158.945 282.639 160.164V174.807Z" fill="#133DBD"/>
    <path d="M281.759 156.667C282.169 156.232 282.405 155.663 282.423 155.067C282.423 153.363 280.448 151.987 278.011 151.987C277.16 151.978 276.317 152.159 275.544 152.515C276.848 152.621 278.104 153.058 279.192 153.785C280.279 154.511 281.163 155.503 281.759 156.667Z" fill="#133DBD"/>
    <path d="M233.244 148.81C230.229 148.812 227.337 150.008 225.205 152.137C223.073 154.266 221.874 157.153 221.872 160.164V178.423H244.617V160.164C244.613 157.154 243.413 154.268 241.281 152.139C239.149 150.011 236.259 148.814 233.244 148.81ZM241.002 174.807H225.516V160.164C225.524 158.287 226.217 156.478 227.466 155.075C228.714 153.673 230.432 152.773 232.298 152.545C233.087 152.171 233.951 151.98 234.824 151.987C237.261 151.987 239.236 153.363 239.236 155.067C239.236 155.149 239.236 155.223 239.236 155.313C240.374 156.675 241.001 158.39 241.01 160.164L241.002 174.807Z" fill="#133DBD"/>
    <path d="M239.199 155.313C239.199 155.223 239.199 155.149 239.199 155.067C239.199 153.363 237.224 151.987 234.787 151.987C233.913 151.98 233.05 152.171 232.261 152.545C232.574 152.494 232.89 152.461 233.207 152.448C234.357 152.447 235.492 152.704 236.529 153.2C237.566 153.695 238.479 154.417 239.199 155.313Z" fill="#133DBD"/>
    <path d="M292.997 96.9569C292.513 96.9569 292.049 96.7648 291.706 96.423C291.364 96.0811 291.172 95.6174 291.172 95.134V59.2262C291.172 58.7428 291.364 58.2791 291.706 57.9372C292.049 57.5954 292.513 57.4033 292.997 57.4033C293.482 57.4033 293.946 57.5954 294.289 57.9372C294.631 58.2791 294.823 58.7428 294.823 59.2262V95.134C294.823 95.6174 294.631 96.0811 294.289 96.423C293.946 96.7648 293.482 96.9569 292.997 96.9569Z" fill="#133DBD"/>
    <path d="M302.693 108.006C302.209 108.006 301.744 107.814 301.402 107.472C301.06 107.13 300.867 106.667 300.867 106.183V77.1652C300.867 76.6817 301.06 76.2181 301.402 75.8762C301.744 75.5343 302.209 75.3423 302.693 75.3423C303.177 75.3423 303.642 75.5343 303.984 75.8762C304.326 76.2181 304.519 76.6817 304.519 77.1652V106.183C304.519 106.667 304.326 107.13 303.984 107.472C303.642 107.814 303.177 108.006 302.693 108.006Z" fill="#133DBD"/>
    <path d="M303.468 71.4063C303.229 71.4063 302.992 71.3591 302.771 71.2674C302.549 71.1757 302.349 71.0413 302.18 70.8719C302.011 70.7025 301.877 70.5015 301.786 70.2804C301.695 70.0593 301.649 69.8224 301.65 69.5834V53.0134C301.634 52.7647 301.669 52.5154 301.753 52.2809C301.838 52.0464 301.969 51.8316 302.14 51.6498C302.311 51.4681 302.517 51.3232 302.746 51.2242C302.975 51.1252 303.222 51.0741 303.472 51.0741C303.721 51.0741 303.968 51.1252 304.197 51.2242C304.426 51.3232 304.633 51.4681 304.803 51.6498C304.974 51.8316 305.106 52.0464 305.19 52.2809C305.275 52.5154 305.31 52.7647 305.294 53.0134V69.5834C305.295 69.823 305.248 70.0605 305.157 70.2821C305.066 70.5037 304.931 70.7051 304.761 70.8745C304.592 71.044 304.39 71.1783 304.168 71.2695C303.946 71.3608 303.708 71.4073 303.468 71.4063Z" fill="#133DBD"/>
    <path d="M313.29 119.74C312.807 119.74 312.344 119.549 312.002 119.208C311.66 118.868 311.466 118.406 311.464 117.924V64.7545C311.464 64.271 311.657 63.8074 311.999 63.4655C312.342 63.1236 312.806 62.9316 313.29 62.9316C313.775 62.9316 314.239 63.1236 314.581 63.4655C314.924 63.8074 315.116 64.271 315.116 64.7545V117.924C315.114 118.406 314.921 118.868 314.579 119.208C314.237 119.549 313.773 119.74 313.29 119.74Z" fill="#133DBD"/>
    <path d="M218.176 100.409C217.693 100.407 217.23 100.214 216.889 99.8727C216.549 99.531 216.357 99.0685 216.357 98.5863V69.5685C216.341 69.3198 216.377 69.0705 216.461 68.8359C216.545 68.6014 216.677 68.3866 216.848 68.2049C217.018 68.0232 217.225 67.8783 217.454 67.7793C217.683 67.6802 217.93 67.6292 218.179 67.6292C218.429 67.6292 218.676 67.6802 218.905 67.7793C219.134 67.8783 219.34 68.0232 219.511 68.2049C219.682 68.3866 219.813 68.6014 219.898 68.8359C219.982 69.0705 220.017 69.3198 220.001 69.5685V98.5863C220.001 98.8257 219.954 99.0628 219.862 99.2839C219.771 99.5051 219.636 99.706 219.467 99.8753C219.297 100.045 219.096 100.179 218.874 100.27C218.653 100.362 218.415 100.409 218.176 100.409Z" fill="#133DBD"/>
    <path d="M205.738 110.766C205.498 110.766 205.261 110.719 205.04 110.628C204.819 110.536 204.618 110.401 204.449 110.232C204.28 110.063 204.146 109.862 204.056 109.641C203.965 109.419 203.918 109.183 203.919 108.943V77.1801C203.903 76.9314 203.939 76.6821 204.023 76.4476C204.107 76.2131 204.239 75.9983 204.41 75.8165C204.58 75.6348 204.787 75.4899 205.016 75.3909C205.245 75.2919 205.492 75.2408 205.741 75.2408C205.991 75.2408 206.238 75.2919 206.467 75.3909C206.696 75.4899 206.902 75.6348 207.073 75.8165C207.244 75.9983 207.375 76.2131 207.46 76.4476C207.544 76.6821 207.579 76.9314 207.563 77.1801V108.943C207.564 109.183 207.518 109.421 207.426 109.642C207.335 109.864 207.201 110.065 207.031 110.235C206.861 110.404 206.659 110.538 206.438 110.63C206.216 110.721 205.978 110.767 205.738 110.766Z" fill="#133DBD"/>
    <path d="M196.042 123.884C195.56 123.884 195.097 123.693 194.756 123.352C194.415 123.012 194.224 122.55 194.224 122.068V90.9896C194.208 90.7409 194.243 90.4916 194.327 90.2571C194.412 90.0226 194.543 89.8078 194.714 89.626C194.885 89.4443 195.091 89.2994 195.32 89.2004C195.549 89.1014 195.796 89.0503 196.046 89.0503C196.295 89.0503 196.542 89.1014 196.771 89.2004C197 89.2994 197.207 89.4443 197.377 89.626C197.548 89.8078 197.68 90.0226 197.764 90.2571C197.849 90.4916 197.884 90.7409 197.868 90.9896V122.068C197.868 122.308 197.821 122.544 197.729 122.765C197.637 122.986 197.502 123.186 197.333 123.355C197.163 123.524 196.962 123.657 196.74 123.748C196.519 123.839 196.281 123.885 196.042 123.884Z" fill="#133DBD"/>
    <path d="M205.738 69.3304C205.255 69.3304 204.793 69.1391 204.452 68.7986C204.111 68.4582 203.919 67.9964 203.919 67.5149V53.0134C203.903 52.7647 203.939 52.5154 204.023 52.2809C204.107 52.0464 204.239 51.8316 204.41 51.6498C204.58 51.4681 204.787 51.3232 205.016 51.2242C205.245 51.1252 205.492 51.0741 205.741 51.0741C205.991 51.0741 206.238 51.1252 206.467 51.2242C206.696 51.3232 206.902 51.4681 207.073 51.6498C207.244 51.8316 207.375 52.0464 207.46 52.2809C207.544 52.5154 207.579 52.7647 207.563 53.0134V67.5149C207.563 67.7539 207.516 67.9906 207.424 68.2114C207.332 68.4321 207.198 68.6326 207.028 68.8013C206.859 68.97 206.657 69.1035 206.436 69.1943C206.214 69.2851 205.977 69.3314 205.738 69.3304Z" fill="#133DBD"/>
</svg>
