<svg width="500" height="200" viewBox="0 0 500 200" fill="none" xmlns="http://www.w3.org/2000/svg">
    <g clip-path="url(#clip0_1_4735)">
        <path d="M449.17 195.91H50.8301C49.7255 195.91 48.8301 196.805 48.8301 197.91V198.36C48.8301 199.465 49.7255 200.36 50.8301 200.36H449.17C450.275 200.36 451.17 199.465 451.17 198.36V197.91C451.17 196.805 450.275 195.91 449.17 195.91Z" fill="#133DBD"/>
        <rect x="206" y="88" width="96" height="74" fill="white"/>
        <rect x="190" y="163" width="126" height="35" rx="17.5" fill="white"/>
        <rect x="199" y="78" width="109" height="9" fill="white"/>
        <path d="M208 56H299L304 76H203L208 56Z" fill="white"/>
        <path d="M305.795 79.9032V85.6137H304.027V89.759H309.941V75.7578H305.652L306.405 79.9032H305.795Z" fill="#133DBD"/>
        <path d="M201.535 85.6137V79.9032H200.926L201.679 75.7578H197.39V89.759H203.312V85.6137H201.535Z" fill="#133DBD"/>
        <path d="M300.973 82.7544H206.365V85.6139H300.973V82.7544Z" fill="white"/>
        <path d="M299.883 89.7593H207.449V94.5899H299.883V89.7593Z" fill="#65D78D"/>
        <path d="M299.03 163.16H207.4C198.011 163.16 190.4 170.771 190.4 180.16V180.95C190.4 190.339 198.011 197.95 207.4 197.95H299.03C308.419 197.95 316.03 190.339 316.03 180.95V180.16C316.03 170.771 308.419 163.16 299.03 163.16Z" fill="white"/>
        <path d="M298.63 200.17H207.79C202.586 200.17 197.596 198.103 193.916 194.423C190.237 190.744 188.17 185.753 188.17 180.55C188.17 175.346 190.237 170.356 193.916 166.676C197.596 162.997 202.586 160.93 207.79 160.93H298.63C303.833 160.93 308.824 162.997 312.503 166.676C316.183 170.356 318.25 175.346 318.25 180.55C318.25 185.753 316.183 190.744 312.503 194.423C308.824 198.103 303.833 200.17 298.63 200.17ZM207.79 165.38C205.798 165.38 203.825 165.772 201.985 166.535C200.144 167.297 198.472 168.414 197.063 169.823C195.654 171.232 194.537 172.904 193.775 174.745C193.012 176.585 192.62 178.558 192.62 180.55C192.62 182.542 193.012 184.515 193.775 186.355C194.537 188.196 195.654 189.868 197.063 191.277C198.472 192.685 200.144 193.803 201.985 194.565C203.825 195.328 205.798 195.72 207.79 195.72H298.63C302.653 195.72 306.512 194.122 309.357 191.277C312.202 188.432 313.8 184.573 313.8 180.55C313.8 176.527 312.202 172.668 309.357 169.823C306.512 166.978 302.653 165.38 298.63 165.38H207.79Z" fill="#133DBD"/>
        <path d="M209.72 192.15C216.126 192.15 221.32 186.956 221.32 180.55C221.32 174.143 216.126 168.95 209.72 168.95C203.313 168.95 198.12 174.143 198.12 180.55C198.12 186.956 203.313 192.15 209.72 192.15Z" fill="white"/>
        <path d="M210.5 194.17C207.83 194.17 205.22 193.378 203 191.895C200.78 190.411 199.049 188.303 198.028 185.836C197.006 183.369 196.739 180.655 197.259 178.036C197.78 175.417 199.066 173.012 200.954 171.124C202.842 169.236 205.248 167.95 207.866 167.429C210.485 166.908 213.199 167.176 215.666 168.198C218.133 169.219 220.241 170.95 221.725 173.17C223.208 175.39 224 178 224 180.67C223.995 184.249 222.571 187.68 220.04 190.21C217.51 192.741 214.079 194.165 210.5 194.17ZM210.5 171.517C208.687 171.515 206.914 172.051 205.406 173.057C203.897 174.063 202.722 175.494 202.027 177.169C201.332 178.843 201.15 180.687 201.503 182.465C201.856 184.243 202.729 185.877 204.011 187.159C205.293 188.441 206.927 189.314 208.705 189.667C210.483 190.02 212.327 189.838 214.001 189.143C215.676 188.448 217.107 187.273 218.113 185.764C219.119 184.256 219.655 182.483 219.653 180.67C219.653 178.241 218.689 175.912 216.973 174.194C215.257 172.476 212.928 171.51 210.5 171.507V171.517Z" fill="#133DBD"/>
        <path d="M238.72 192.15C245.126 192.15 250.32 186.956 250.32 180.55C250.32 174.143 245.126 168.95 238.72 168.95C232.313 168.95 227.12 174.143 227.12 180.55C227.12 186.956 232.313 192.15 238.72 192.15Z" fill="white"/>
        <path d="M238.5 194.17C235.83 194.17 233.22 193.378 231 191.895C228.78 190.411 227.049 188.303 226.028 185.836C225.006 183.369 224.739 180.655 225.259 178.036C225.78 175.417 227.066 173.012 228.954 171.124C230.842 169.236 233.248 167.95 235.866 167.429C238.485 166.908 241.199 167.176 243.666 168.198C246.133 169.219 248.241 170.95 249.725 173.17C251.208 175.39 252 178 252 180.67C251.995 184.249 250.571 187.68 248.04 190.21C245.51 192.741 242.079 194.165 238.5 194.17ZM238.5 171.517C236.687 171.515 234.914 172.051 233.406 173.057C231.897 174.063 230.722 175.494 230.027 177.169C229.332 178.843 229.15 180.687 229.503 182.465C229.856 184.243 230.729 185.877 232.011 187.159C233.293 188.441 234.927 189.314 236.705 189.667C238.483 190.02 240.327 189.838 242.001 189.143C243.676 188.448 245.107 187.273 246.113 185.764C247.119 184.256 247.655 182.483 247.653 180.67C247.653 178.241 246.689 175.912 244.973 174.194C243.257 172.476 240.928 171.51 238.5 171.507V171.517Z" fill="#133DBD"/>
        <path d="M267.71 192.15C274.116 192.15 279.31 186.956 279.31 180.55C279.31 174.143 274.116 168.95 267.71 168.95C261.303 168.95 256.11 174.143 256.11 180.55C256.11 186.956 261.303 192.15 267.71 192.15Z" fill="white"/>
        <path d="M267.5 194.17C264.83 194.17 262.22 193.378 260 191.895C257.78 190.411 256.049 188.303 255.028 185.836C254.006 183.369 253.739 180.655 254.259 178.036C254.78 175.417 256.066 173.012 257.954 171.124C259.842 169.236 262.248 167.95 264.866 167.429C267.485 166.908 270.199 167.176 272.666 168.198C275.133 169.219 277.241 170.95 278.725 173.17C280.208 175.39 281 178 281 180.67C280.995 184.249 279.571 187.68 277.04 190.21C274.51 192.741 271.079 194.165 267.5 194.17ZM267.5 171.517C265.687 171.515 263.914 172.051 262.406 173.057C260.897 174.063 259.722 175.494 259.027 177.169C258.332 178.843 258.15 180.687 258.503 182.465C258.856 184.243 259.729 185.877 261.011 187.159C262.293 188.441 263.927 189.314 265.705 189.667C267.483 190.02 269.327 189.838 271.001 189.143C272.676 188.448 274.107 187.273 275.113 185.764C276.119 184.256 276.655 182.483 276.653 180.67C276.653 178.241 275.689 175.912 273.973 174.194C272.257 172.476 269.928 171.51 267.5 171.507V171.517Z" fill="#133DBD"/>
        <path d="M296.7 192.15C303.106 192.15 308.3 186.956 308.3 180.55C308.3 174.143 303.106 168.95 296.7 168.95C290.293 168.95 285.1 174.143 285.1 180.55C285.1 186.956 290.293 192.15 296.7 192.15Z" fill="white"/>
        <path d="M295.5 194.17C292.83 194.17 290.22 193.378 288 191.895C285.78 190.411 284.049 188.303 283.028 185.836C282.006 183.369 281.739 180.655 282.259 178.036C282.78 175.417 284.066 173.012 285.954 171.124C287.842 169.236 290.248 167.95 292.866 167.429C295.485 166.908 298.199 167.176 300.666 168.198C303.133 169.219 305.241 170.95 306.725 173.17C308.208 175.39 309 178 309 180.67C308.995 184.249 307.571 187.68 305.04 190.21C302.51 192.741 299.079 194.165 295.5 194.17ZM295.5 171.517C293.687 171.515 291.914 172.051 290.406 173.057C288.897 174.063 287.721 175.494 287.027 177.169C286.332 178.843 286.15 180.687 286.503 182.465C286.856 184.243 287.729 185.877 289.011 187.159C290.293 188.441 291.927 189.314 293.705 189.667C295.483 190.02 297.327 189.838 299.001 189.143C300.676 188.448 302.107 187.273 303.113 185.764C304.119 184.256 304.655 182.483 304.653 180.67C304.653 178.241 303.689 175.912 301.973 174.194C300.257 172.476 297.928 171.51 295.5 171.507V171.517Z" fill="#133DBD"/>
        <path d="M300.965 89.7593V162.371L304.027 162.227V89.7593H300.965Z" fill="#133DBD"/>
        <path d="M207.304 89.7593H203.304V162.684L207.304 162.803V89.7593Z" fill="#133DBD"/>
        <path d="M300.965 85.6138V88.6678V89.7592H304.027V85.6138H300.965Z" fill="#133DBD"/>
        <path d="M206.366 88.6678V85.6138H203.312V89.7592H206.366V88.6678Z" fill="#133DBD"/>
        <path d="M299.883 94.5813V162.422L300.966 162.371V94.5813H299.883Z" fill="#133DBD"/>
        <path d="M300.973 85.6138H206.365V88.6678H300.973V85.6138Z" fill="#133DBD"/>
        <path d="M207.448 89.7593H206.365V94.5899H207.448V89.7593Z" fill="#133DBD"/>
        <path d="M300.966 89.7593H299.883V94.5899H300.966V89.7593Z" fill="#133DBD"/>
        <path d="M206.365 88.6677V89.7591H207.448H299.882H300.964V88.6677H206.365Z" fill="#133DBD"/>
        <path d="M206.392 73.0084H205.58V68.863H207.145L207.822 65.1237H207.551V60.9784H208.575L209.074 58.2204H274.258V54.0835H205.622L201.68 75.7579H205.893L206.392 73.0084Z" fill="#133DBD"/>
        <path d="M298.258 58.2204L298.757 60.9784H300.965V65.1237H299.51L300.187 68.863H300.965V73.0084H300.94L301.447 75.7579H305.652L301.71 54.0835H290.229V58.2204H298.258Z" fill="#133DBD"/>
        <path d="M201.535 79.9032H274.257V75.7578H205.892H201.679L200.926 79.9032H201.535Z" fill="#133DBD"/>
        <path d="M290.229 75.7578V79.9032H305.796H306.405L305.652 75.7578H301.447H290.229Z" fill="#133DBD"/>
        <path d="M286.084 52.3069H278.402V54.075H286.084V52.3069Z" fill="white"/>
        <path d="M286.084 58.2202H278.402V75.7577H286.084V58.2202Z" fill="white"/>
        <path d="M286.084 54.0835H278.402V58.2289H286.084V54.0835Z" fill="white"/>
        <path d="M276.33 50.2342H288.157V54.0834H290.229V48.1699H274.257V54.0834H276.33V50.2342Z" fill="#133DBD"/>
        <path d="M276.33 58.2202H274.257V60.9782H275.348V65.1235H274.257V68.8628H275.348V73.0082H274.257V75.7577H276.33V58.2202Z" fill="#133DBD"/>
        <path d="M290.229 75.7577V73.0082H288.359V68.8628H290.229V65.1235H288.359V60.9782H290.229V58.2202H288.156V75.7577H290.229Z" fill="#133DBD"/>
        <path d="M276.33 54.0835H274.257V58.2289H276.33V54.0835Z" fill="#133DBD"/>
        <path d="M290.229 54.0835H288.156V58.2289H290.229V54.0835Z" fill="#133DBD"/>
        <path d="M290.229 75.7578H288.157V77.8305H276.33V75.7578H274.257V79.9032H290.229V75.7578Z" fill="#133DBD"/>
        <path d="M278.403 52.3071H286.084V54.0837H288.157V50.2344H276.33V54.0837H278.403V52.3071Z" fill="#133DBD"/>
        <path d="M278.403 58.2202H276.33V75.7577H278.403V58.2202Z" fill="#133DBD"/>
        <path d="M288.157 58.2202H286.084V75.7577H288.157V58.2202Z" fill="#133DBD"/>
        <path d="M288.157 54.0835H286.084V58.2289H288.157V54.0835Z" fill="#133DBD"/>
        <path d="M278.403 54.0835H276.33V58.2289H278.403V54.0835Z" fill="#133DBD"/>
        <path d="M278.403 75.7578H276.33V77.8305H288.157V75.7578H286.084H278.403Z" fill="#133DBD"/>
        <path d="M274.257 60.9783H208.574L207.821 65.1237H274.257V60.9783Z" fill="#133DBD"/>
        <path d="M207.551 60.9783V65.1237H207.822L208.574 60.9783H207.551Z" fill="#133DBD"/>
        <path d="M275.34 60.9783H274.257V65.1237H275.34V60.9783Z" fill="#133DBD"/>
        <path d="M274.256 68.8628H207.144L206.391 73.0082H274.256V68.8628Z" fill="#133DBD"/>
        <path d="M205.579 68.8628V73.0082H206.391L207.144 68.8628H205.579Z" fill="#133DBD"/>
        <path d="M275.34 68.8628H274.257V73.0082H275.34V68.8628Z" fill="#133DBD"/>
        <path d="M290.229 65.1237H299.51L298.757 60.9783H290.229V65.1237Z" fill="#133DBD"/>
        <path d="M300.965 65.1237V60.9783H298.757L299.51 65.1237H300.965Z" fill="#133DBD"/>
        <path d="M290.229 60.9783H288.359V65.1237H290.229V60.9783Z" fill="#133DBD"/>
        <path d="M290.229 73.0082H300.94L300.187 68.8628H290.229V73.0082Z" fill="#133DBD"/>
        <path d="M300.965 73.0082V68.8628H300.187L300.939 73.0082H300.965Z" fill="#133DBD"/>
        <path d="M290.229 68.8628H288.359V73.0082H290.229V68.8628Z" fill="#133DBD"/>
        <path d="M218.39 116.17C218.39 109.543 223.762 104.17 230.39 104.17H231.39C238.017 104.17 243.39 109.543 243.39 116.17V128.17H218.39V116.17Z" stroke="#133DBD" stroke-width="4" stroke-linejoin="round"/>
        <path d="M288.17 152.17L219.17 152.17L219.17 141.17L288.17 141.17L288.17 152.17Z" stroke="#133DBD" stroke-width="4" stroke-linejoin="round"/>
        <path d="M236.17 152.17L219.17 152.17L219.17 141.17L236.17 141.17L236.17 152.17Z" stroke="#133DBD" stroke-width="4" stroke-linejoin="round"/>
        <path d="M253.17 152.17L236.17 152.17L236.17 141.17L253.17 141.17L253.17 152.17Z" stroke="#133DBD" stroke-width="4" stroke-linejoin="round"/>
        <path d="M271.17 152.17L253.17 152.17L253.17 141.17L271.17 141.17L271.17 152.17Z" stroke="#133DBD" stroke-width="4" stroke-linejoin="round"/>
        <path d="M288.17 152.17L271.17 152.17L271.17 141.17L288.17 141.17L288.17 152.17Z" stroke="#133DBD" stroke-width="4" stroke-linejoin="round"/>
        <path d="M263.39 116.17C263.39 109.543 268.762 104.17 275.39 104.17H276.39C283.017 104.17 288.39 109.543 288.39 116.17V128.17H263.39V116.17Z" stroke="#133DBD" stroke-width="4" stroke-linejoin="round"/>
        <circle cx="274.39" cy="122.17" r="6" fill="#133DBD"/>
        <circle cx="282.585" cy="39.585" r="13.585" fill="white"/>
        <path d="M286.942 31.4418C286.45 31.2193 284.759 29.8135 284.213 29.705C287.978 32.2505 288.862 37.0594 286.898 41.3093C284.933 45.5591 280.803 47.7899 276.41 46.6067C276.841 46.8998 278.505 48.3761 278.996 48.5986C280.129 49.1175 281.353 49.4094 282.599 49.4577C283.845 49.506 285.089 49.3097 286.258 48.8801C287.428 48.4504 288.501 47.7958 289.417 46.9536C290.332 46.1114 291.072 45.0981 291.594 43.9715C292.115 42.845 292.409 41.6273 292.457 40.388C292.506 39.1486 292.309 37.9119 291.877 36.7484C291.445 35.5849 290.786 34.5174 289.94 33.6069C289.093 32.6964 288.074 31.9607 286.942 31.4418Z" fill="#65D78D"/>
        <circle cx="282.585" cy="39.585" r="11.335" stroke="#133DBD" stroke-width="4.5"/>
        <circle cx="232.39" cy="122.17" r="6" fill="#133DBD"/>
        <path d="M140.21 95.7628C134.462 100.065 133.291 108.213 137.593 113.96C141.896 119.708 150.043 120.88 155.791 116.577C161.539 112.275 162.71 104.127 158.408 98.3796" stroke="#133DBD" stroke-width="4.5"/>
        <path d="M205 114.17L184 146.67L155.5 114.17" stroke="#133DBD" stroke-width="4.5" stroke-linejoin="round"/>
        <path d="M387.905 115.006C391.955 120.933 390.434 129.023 384.506 133.073C378.578 137.124 370.489 135.603 366.438 129.675C362.387 123.747 363.909 115.658 369.837 111.607" stroke="#133DBD" stroke-width="4.5"/>
        <path d="M301.999 114.17L329.499 141.17L366.999 128.17" stroke="#133DBD" stroke-width="4.5" stroke-linejoin="round"/>
    </g>
    <defs>
        <clipPath id="clip0_1_4735">
            <rect width="500" height="200" fill="white"/>
        </clipPath>
    </defs>
</svg>
