<svg width="500" height="200" viewBox="0 0 500 200" fill="none" xmlns="http://www.w3.org/2000/svg">
    <path d="M451.17 194.91H48.83V199.36H451.17V194.91Z" fill="#133DBD"/>
    <path d="M200 103.36C199.471 103.36 198.959 103.172 198.556 102.829C198.153 102.487 197.885 102.012 197.8 101.49L192.01 64.77C191.956 64.4526 191.972 64.1271 192.057 63.8166C192.143 63.5061 192.295 63.2181 192.504 62.973C192.713 62.7279 192.973 62.5316 193.266 62.3981C193.559 62.2645 193.878 62.1969 194.2 62.2H224.31L219.08 37.83C219.01 37.4938 219.019 37.1461 219.105 36.8138C219.192 36.4815 219.353 36.1735 219.577 35.9135C219.802 35.6535 220.083 35.4485 220.399 35.3144C220.715 35.1803 221.057 35.1206 221.4 35.14L247.88 36.88L243 13.82C242.877 13.2432 242.988 12.641 243.308 12.1459C243.629 11.6508 244.133 11.3033 244.71 11.18C245.287 11.0567 245.889 11.1676 246.384 11.4883C246.879 11.8089 247.227 12.3132 247.35 12.89L252.89 38.83C252.96 39.1663 252.952 39.5139 252.867 39.8466C252.782 40.1793 252.622 40.4882 252.4 40.75C252.169 41.0029 251.886 41.202 251.569 41.3333C251.253 41.4646 250.912 41.5249 250.57 41.51L224.1 39.77L229.27 64C229.34 64.324 229.337 64.6595 229.26 64.9821C229.184 65.3046 229.036 65.6059 228.828 65.8639C228.62 66.1219 228.357 66.33 228.058 66.4729C227.759 66.6159 227.431 66.6901 227.1 66.69H196.84L202.23 100.84C202.277 101.128 202.267 101.423 202.2 101.707C202.133 101.992 202.01 102.26 201.839 102.497C201.668 102.734 201.452 102.935 201.204 103.088C200.955 103.241 200.678 103.344 200.39 103.39C200.259 103.392 200.129 103.382 200 103.36Z" fill="#133DBD"/>
    <path d="M111.92 91.48H174.25C179.554 91.48 184.641 93.5871 188.392 97.3378C192.143 101.089 194.25 106.176 194.25 111.48V135.94H101.47V101.94C101.469 100.567 101.738 99.2069 102.263 97.9379C102.787 96.6689 103.557 95.5157 104.527 94.5442C105.498 93.5728 106.65 92.8022 107.919 92.2764C109.187 91.7506 110.547 91.48 111.92 91.48Z" fill="white"/>
    <path d="M196.46 138.15H99.25V114.7C99.2579 107.953 101.942 101.484 106.713 96.7129C111.484 91.9418 117.953 89.2579 124.7 89.25H149.79C162.165 89.2659 174.028 94.1894 182.777 102.94C191.526 111.691 196.447 123.555 196.46 135.93V138.15ZM103.69 133.71H192C191.417 122.915 186.721 112.754 178.878 105.315C171.035 97.8751 160.64 93.7224 149.83 93.71H124.7C119.13 93.71 113.789 95.9225 109.851 99.8608C105.912 103.799 103.7 109.14 103.7 114.71L103.69 133.71Z" fill="#133DBD"/>
    <path d="M181 165.21H114.71V133.71H181V165.21ZM119.16 160.76H176.56V138.15H119.16V160.76Z" fill="#133DBD"/>
    <path d="M194.64 162.99H103.01C93.6212 162.99 86.01 170.601 86.01 179.99V180.78C86.01 190.169 93.6212 197.78 103.01 197.78H194.64C204.029 197.78 211.64 190.169 211.64 180.78V179.99C211.64 170.601 204.029 162.99 194.64 162.99Z" fill="white"/>
    <path d="M194.24 200H103.4C98.1965 200 93.2061 197.933 89.5266 194.253C85.8471 190.574 83.78 185.584 83.78 180.38C83.78 175.176 85.8471 170.186 89.5266 166.507C93.2061 162.827 98.1965 160.76 103.4 160.76H194.24C199.444 160.76 204.434 162.827 208.113 166.507C211.793 170.186 213.86 175.176 213.86 180.38C213.86 185.584 211.793 190.574 208.113 194.253C204.434 197.933 199.444 200 194.24 200ZM103.4 165.21C101.408 165.21 99.4352 165.602 97.5947 166.365C95.7542 167.127 94.0819 168.245 92.6732 169.653C91.2646 171.062 90.1471 172.734 89.3848 174.575C88.6224 176.415 88.23 178.388 88.23 180.38C88.23 182.372 88.6224 184.345 89.3848 186.185C90.1471 188.026 91.2646 189.698 92.6732 191.107C94.0819 192.515 95.7542 193.633 97.5947 194.395C99.4352 195.158 101.408 195.55 103.4 195.55H194.24C198.263 195.55 202.122 193.952 204.967 191.107C207.812 188.262 209.41 184.403 209.41 180.38C209.41 176.357 207.812 172.498 204.967 169.653C202.122 166.808 198.263 165.21 194.24 165.21H103.4Z" fill="#133DBD"/>
    <path d="M190.59 116.3L187.15 113.48L266.16 16.81L255.61 6.26L163.75 96.47L160.64 93.3L255.64 0L272.14 16.51L190.59 116.3Z" fill="#133DBD"/>
    <path d="M267.68 124.62C263.8 124.62 260.006 123.469 256.78 121.313C253.553 119.158 251.039 116.093 249.554 112.508C248.069 108.923 247.68 104.978 248.437 101.172C249.194 97.3664 251.063 93.8705 253.807 91.1266C256.551 88.3827 260.046 86.514 263.852 85.757C267.658 85 271.603 85.3885 275.188 86.8735C278.773 88.3585 281.838 90.8732 283.994 94.0997C286.149 97.3262 287.3 101.12 287.3 105C287.295 110.202 285.226 115.189 281.548 118.868C277.869 122.546 272.882 124.615 267.68 124.62ZM267.68 89.83C264.677 89.83 261.742 90.7206 259.245 92.389C256.749 94.0574 254.803 96.4288 253.655 99.2032C252.506 101.978 252.206 105.03 252.792 107.975C253.379 110.92 254.826 113.625 256.95 115.747C259.074 117.87 261.779 119.315 264.725 119.9C267.67 120.484 270.723 120.182 273.496 119.032C276.27 117.881 278.64 115.934 280.307 113.436C281.973 110.939 282.862 108.003 282.86 105C282.852 100.977 281.25 97.1219 278.405 94.2784C275.559 91.4349 271.703 89.8353 267.68 89.83Z" fill="#133DBD"/>
    <path d="M275.61 90C274.71 89.59 271.61 87 270.61 86.8C277.51 91.49 279.13 100.35 275.53 108.18C271.93 116.01 264.36 120.12 256.31 117.94C257.1 118.48 260.15 121.2 261.05 121.61C263.126 122.566 265.369 123.104 267.653 123.193C269.936 123.282 272.215 122.92 274.358 122.129C276.502 121.337 278.469 120.131 280.146 118.579C281.824 117.028 283.179 115.161 284.135 113.085C285.091 111.01 285.629 108.766 285.718 106.483C285.807 104.199 285.445 101.921 284.654 99.777C283.862 97.6333 282.656 95.6666 281.104 93.9891C279.553 92.3115 277.686 90.9561 275.61 90Z" fill="#65D78D"/>
    <path d="M267.68 124.62C263.8 124.62 260.006 123.469 256.78 121.313C253.553 119.158 251.039 116.093 249.554 112.508C248.069 108.923 247.68 104.978 248.437 101.172C249.194 97.3664 251.063 93.8705 253.807 91.1266C256.551 88.3827 260.046 86.514 263.852 85.757C267.658 85 271.603 85.3885 275.188 86.8735C278.773 88.3585 281.838 90.8732 283.994 94.0997C286.149 97.3262 287.3 101.12 287.3 105C287.295 110.202 285.226 115.189 281.548 118.868C277.869 122.546 272.882 124.615 267.68 124.62ZM267.68 89.83C264.677 89.83 261.742 90.7206 259.245 92.389C256.749 94.0574 254.803 96.4288 253.655 99.2032C252.506 101.978 252.206 105.03 252.792 107.975C253.379 110.92 254.826 113.625 256.95 115.747C259.074 117.87 261.779 119.315 264.725 119.9C267.67 120.484 270.723 120.182 273.496 119.032C276.27 117.881 278.64 115.934 280.307 113.436C281.973 110.939 282.862 108.003 282.86 105C282.852 100.977 281.25 97.1219 278.405 94.2784C275.559 91.4349 271.703 89.8353 267.68 89.83Z" fill="#133DBD"/>
    <path d="M105.33 191.98C111.736 191.98 116.93 186.787 116.93 180.38C116.93 173.974 111.736 168.78 105.33 168.78C98.9235 168.78 93.73 173.974 93.73 180.38C93.73 186.787 98.9235 191.98 105.33 191.98Z" fill="white"/>
    <path d="M105.34 194.2C102.607 194.2 99.9347 193.39 97.662 191.871C95.3894 190.352 93.618 188.194 92.572 185.669C91.526 183.143 91.2523 180.365 91.7856 177.684C92.3188 175.003 93.6351 172.541 95.5678 170.608C97.5006 168.675 99.9631 167.359 102.644 166.826C105.325 166.292 108.103 166.566 110.629 167.612C113.154 168.658 115.312 170.429 116.831 172.702C118.349 174.975 119.16 177.647 119.16 180.38C119.155 184.044 117.697 187.556 115.106 190.146C112.516 192.737 109.004 194.195 105.34 194.2ZM105.34 171.01C103.484 171.008 101.669 171.557 100.125 172.587C98.581 173.617 97.3771 175.081 96.666 176.796C95.9548 178.51 95.7682 180.397 96.1298 182.218C96.4914 184.038 97.385 185.71 98.6974 187.023C100.01 188.335 101.682 189.229 103.503 189.59C105.323 189.952 107.21 189.765 108.924 189.054C110.639 188.343 112.103 187.139 113.133 185.595C114.163 184.051 114.712 182.236 114.71 180.38C114.71 177.894 113.723 175.51 111.966 173.751C110.209 171.992 107.826 171.003 105.34 171V171.01Z" fill="#133DBD"/>
    <path d="M134.33 191.98C140.736 191.98 145.93 186.787 145.93 180.38C145.93 173.974 140.736 168.78 134.33 168.78C127.923 168.78 122.73 173.974 122.73 180.38C122.73 186.787 127.923 191.98 134.33 191.98Z" fill="white"/>
    <path d="M134.33 194.2C131.597 194.2 128.925 193.39 126.652 191.871C124.379 190.352 122.608 188.194 121.562 185.669C120.516 183.143 120.242 180.365 120.776 177.684C121.309 175.003 122.625 172.541 124.558 170.608C126.491 168.675 128.953 167.359 131.634 166.826C134.315 166.292 137.093 166.566 139.619 167.612C142.144 168.658 144.302 170.429 145.821 172.702C147.339 174.975 148.15 177.647 148.15 180.38C148.145 184.044 146.687 187.556 144.096 190.146C141.506 192.737 137.994 194.195 134.33 194.2ZM134.33 171.01C132.474 171.008 130.659 171.557 129.115 172.587C127.571 173.617 126.367 175.081 125.656 176.796C124.945 178.51 124.758 180.397 125.12 182.218C125.481 184.038 126.375 185.71 127.687 187.023C129 188.335 130.672 189.229 132.493 189.59C134.313 189.952 136.2 189.765 137.914 189.054C139.629 188.343 141.093 187.139 142.123 185.595C143.153 184.051 143.702 182.236 143.7 180.38C143.7 177.894 142.713 175.51 140.956 173.751C139.199 171.992 136.816 171.003 134.33 171V171.01Z" fill="#133DBD"/>
    <path d="M163.32 191.98C169.726 191.98 174.92 186.787 174.92 180.38C174.92 173.974 169.726 168.78 163.32 168.78C156.913 168.78 151.72 173.974 151.72 180.38C151.72 186.787 156.913 191.98 163.32 191.98Z" fill="white"/>
    <path d="M163.32 194.2C160.587 194.2 157.915 193.39 155.642 191.871C153.369 190.352 151.598 188.194 150.552 185.669C149.506 183.143 149.232 180.365 149.766 177.684C150.299 175.003 151.615 172.541 153.548 170.608C155.481 168.675 157.943 167.359 160.624 166.826C163.305 166.292 166.083 166.566 168.609 167.612C171.134 168.658 173.292 170.429 174.811 172.702C176.329 174.975 177.14 177.647 177.14 180.38C177.135 184.044 175.677 187.556 173.086 190.146C170.496 192.737 166.984 194.195 163.32 194.2ZM163.32 171.01C161.464 171.008 159.649 171.557 158.105 172.587C156.561 173.617 155.357 175.081 154.646 176.796C153.935 178.51 153.748 180.397 154.11 182.218C154.471 184.038 155.365 185.71 156.677 187.023C157.99 188.335 159.662 189.229 161.483 189.59C163.303 189.952 165.19 189.765 166.904 189.054C168.619 188.343 170.083 187.139 171.113 185.595C172.143 184.051 172.692 182.236 172.69 180.38C172.69 177.894 171.703 175.51 169.946 173.751C168.189 171.992 165.806 171.003 163.32 171V171.01Z" fill="#133DBD"/>
    <path d="M192.31 191.98C198.716 191.98 203.91 186.787 203.91 180.38C203.91 173.974 198.716 168.78 192.31 168.78C185.903 168.78 180.71 173.974 180.71 180.38C180.71 186.787 185.903 191.98 192.31 191.98Z" fill="white"/>
    <path d="M192.31 194.2C189.577 194.2 186.905 193.39 184.632 191.871C182.359 190.352 180.588 188.194 179.542 185.669C178.496 183.143 178.222 180.365 178.756 177.684C179.289 175.003 180.605 172.541 182.538 170.608C184.471 168.675 186.933 167.359 189.614 166.826C192.295 166.292 195.073 166.566 197.599 167.612C200.124 168.658 202.282 170.429 203.801 172.702C205.319 174.975 206.13 177.647 206.13 180.38C206.125 184.044 204.667 187.556 202.076 190.146C199.486 192.737 195.974 194.195 192.31 194.2ZM192.31 171.01C190.454 171.008 188.639 171.557 187.095 172.587C185.551 173.617 184.347 175.081 183.636 176.796C182.925 178.51 182.738 180.397 183.1 182.218C183.461 184.038 184.355 185.71 185.667 187.023C186.98 188.335 188.652 189.229 190.472 189.59C192.293 189.952 194.18 189.765 195.894 189.054C197.609 188.343 199.073 187.139 200.103 185.595C201.133 184.051 201.682 182.236 201.68 180.38C201.68 177.894 200.693 175.51 198.936 173.751C197.179 171.992 194.796 171.003 192.31 171V171.01Z" fill="#133DBD"/>
    <path d="M191.09 119.33H162.29L161.1 91.57L165.54 91.38L166.55 114.89H191.09V119.33Z" fill="#133DBD"/>
    <path d="M245.63 11.1833L244.725 15.5402L267.243 20.22L268.149 15.8631L245.63 11.1833Z" fill="#133DBD"/>
    <path d="M269.91 18.03H265.46V87.61H269.91V18.03Z" fill="#133DBD"/>
    <path d="M244.49 97.57C244.252 97.5691 244.015 97.5286 243.79 97.45L232.19 93.59C231.63 93.4031 231.168 93.0014 230.904 92.4735C230.641 91.9456 230.598 91.3346 230.785 90.775C230.972 90.2154 231.374 89.753 231.901 89.4895C232.429 89.226 233.04 89.1831 233.6 89.37L245.19 93.24C245.693 93.4045 246.12 93.7431 246.396 94.195C246.671 94.6468 246.776 95.1821 246.691 95.7043C246.607 96.2266 246.339 96.7016 245.935 97.0437C245.532 97.3857 245.019 97.5724 244.49 97.57Z" fill="#133DBD"/>
    <path d="M242.56 113C242.322 112.999 242.085 112.958 241.86 112.88L230.26 109.02C229.7 108.833 229.238 108.431 228.975 107.903C228.711 107.376 228.668 106.765 228.855 106.205C229.042 105.645 229.444 105.183 229.972 104.919C230.499 104.656 231.11 104.613 231.67 104.8L243.26 108.67C243.763 108.834 244.19 109.173 244.466 109.625C244.741 110.077 244.846 110.612 244.762 111.134C244.677 111.657 244.409 112.132 244.005 112.474C243.602 112.816 243.089 113.002 242.56 113Z" fill="#133DBD"/>
    <path d="M244.49 105.3C244.252 105.299 244.015 105.259 243.79 105.18L229.25 100.34C228.69 100.153 228.228 99.7514 227.965 99.2235C227.701 98.6956 227.658 98.0846 227.845 97.525C228.032 96.9654 228.434 96.503 228.962 96.2395C229.489 95.976 230.1 95.9331 230.66 96.12L245.19 101C245.693 101.164 246.12 101.503 246.396 101.955C246.671 102.407 246.776 102.942 246.691 103.464C246.607 103.987 246.339 104.462 245.935 104.804C245.532 105.146 245.019 105.332 244.49 105.33V105.3Z" fill="#133DBD"/>
    <path d="M223.67 98.36C223.432 98.3591 223.195 98.3186 222.97 98.24L220.6 97.45C220.322 97.3596 220.064 97.2149 219.843 97.0243C219.621 96.8336 219.439 96.6009 219.308 96.3395C219.177 96.0781 219.099 95.7933 219.079 95.5016C219.058 95.2099 219.096 94.917 219.19 94.64C219.379 94.0831 219.78 93.6231 220.306 93.3592C220.832 93.0954 221.44 93.049 222 93.23L224.37 94.02C224.868 94.1903 225.29 94.5311 225.56 94.9822C225.831 95.4333 225.934 95.9657 225.85 96.4852C225.766 97.0047 225.502 97.4779 225.103 97.821C224.704 98.164 224.196 98.355 223.67 98.36Z" fill="#133DBD"/>
    <path d="M401.04 78.29H308.27V188.46H401.04V78.29Z" fill="white"/>
    <path d="M346.68 141.11H362.63C364.359 141.11 366.018 141.797 367.24 143.02C368.463 144.242 369.15 145.901 369.15 147.63V187.49H340.15V147.63C340.15 145.901 340.837 144.242 342.06 143.02C343.282 141.797 344.941 141.11 346.67 141.11H346.68Z" fill="white"/>
    <path d="M369.15 189.72H340.15C339.858 189.72 339.568 189.662 339.298 189.55C339.028 189.438 338.783 189.273 338.577 189.066C338.37 188.859 338.207 188.613 338.096 188.343C337.985 188.072 337.929 187.782 337.93 187.49V155.6C337.93 151.166 339.692 146.913 342.827 143.777C345.963 140.642 350.216 138.88 354.65 138.88C359.084 138.88 363.337 140.642 366.473 143.777C369.608 146.913 371.37 151.166 371.37 155.6V187.49C371.37 188.08 371.136 188.645 370.72 189.063C370.304 189.481 369.74 189.717 369.15 189.72ZM342.38 185.27H366.93V155.6C366.839 152.405 365.506 149.372 363.213 147.144C360.921 144.917 357.851 143.67 354.655 143.67C351.459 143.67 348.389 144.917 346.096 147.144C343.804 149.372 342.471 152.405 342.38 155.6V185.27Z" fill="#133DBD"/>
    <path d="M407.81 85.35H301.51C301.218 85.3513 300.928 85.2949 300.657 85.1839C300.387 85.0729 300.141 84.9096 299.934 84.7033C299.727 84.4971 299.562 84.2519 299.45 83.9819C299.338 83.7119 299.28 83.4224 299.28 83.13V73.46C299.28 73.1676 299.338 72.8781 299.45 72.6081C299.562 72.3381 299.727 72.093 299.934 71.8867C300.141 71.6804 300.387 71.5171 300.657 71.4061C300.928 71.2951 301.218 71.2387 301.51 71.24H407.81C408.394 71.2453 408.953 71.4818 409.363 71.8979C409.774 72.3139 410.003 72.8756 410 73.46V83.13C410.003 83.7144 409.774 84.2761 409.363 84.6921C408.953 85.1082 408.394 85.3447 407.81 85.35ZM303.73 80.9H405.59V75.68H303.73V80.9Z" fill="#133DBD"/>
    <path d="M407.81 187.49H301.51V197.15H407.81V187.49Z" fill="white"/>
    <path d="M407.81 199.38H301.51C300.92 199.38 300.355 199.146 299.937 198.73C299.519 198.314 299.283 197.75 299.28 197.16V187.49C299.283 186.9 299.519 186.336 299.937 185.92C300.355 185.504 300.92 185.27 301.51 185.27H407.81C408.399 185.27 408.963 185.504 409.38 185.92C409.796 186.337 410.03 186.901 410.03 187.49V197.16C410.03 197.749 409.796 198.313 409.38 198.73C408.963 199.146 408.399 199.38 407.81 199.38ZM303.73 194.93H405.59V189.72H303.73V194.93Z" fill="#133DBD"/>
    <path d="M401.04 84.09H308.27V89.89H401.04V84.09Z" fill="#65D78D"/>
    <path d="M404.23 189.72H305.08V80.9H404.23V189.72ZM309.53 185.27H399.79V85.35H309.53V185.27Z" fill="#133DBD"/>
    <path d="M406.61 75.68H302.71L307.38 50H401.93L406.61 75.68ZM308 71.24H401.24L398.18 54.42H311.09L308 71.24Z" fill="#133DBD"/>
    <path d="M388.48 46.4H376.88V73.46H388.48V46.4Z" fill="white"/>
    <path d="M390.7 75.6801H374.7V44.1801H390.7V75.6801ZM379.11 71.2401H386.26V48.6301H379.11V71.2401Z" fill="#133DBD"/>
    <path d="M345 126.9C344.445 126.9 343.91 126.693 343.5 126.32L321.63 106.2C321.218 105.797 320.979 105.249 320.964 104.673C320.948 104.097 321.158 103.538 321.547 103.113C321.937 102.688 322.476 102.432 323.052 102.398C323.627 102.363 324.193 102.554 324.63 102.93L346.5 123C346.846 123.299 347.092 123.697 347.203 124.14C347.314 124.584 347.286 125.051 347.121 125.478C346.957 125.904 346.666 126.27 346.286 126.524C345.906 126.779 345.457 126.91 345 126.9Z" fill="#133DBD"/>
    <path d="M324 127.78C323.569 127.778 323.147 127.651 322.787 127.415C322.426 127.178 322.142 126.842 321.969 126.448C321.795 126.053 321.74 125.616 321.809 125.191C321.879 124.765 322.07 124.369 322.36 124.05L342.47 102.19C342.664 101.964 342.901 101.78 343.168 101.648C343.435 101.516 343.725 101.439 344.022 101.421C344.319 101.403 344.617 101.446 344.897 101.545C345.178 101.645 345.435 101.8 345.654 102.001C345.874 102.202 346.05 102.446 346.174 102.716C346.297 102.987 346.365 103.28 346.373 103.577C346.381 103.875 346.329 104.171 346.22 104.448C346.111 104.725 345.948 104.977 345.74 105.19L325.63 127.05C325.425 127.28 325.174 127.464 324.893 127.59C324.612 127.715 324.308 127.78 324 127.78Z" fill="#133DBD"/>
    <path d="M385.58 126.9C385.025 126.904 384.488 126.697 384.08 126.32L362.21 106.2C361.984 106.006 361.8 105.769 361.668 105.502C361.536 105.235 361.459 104.945 361.441 104.648C361.423 104.351 361.466 104.053 361.565 103.773C361.665 103.492 361.82 103.235 362.021 103.016C362.222 102.796 362.466 102.62 362.736 102.496C363.007 102.373 363.3 102.305 363.597 102.297C363.895 102.289 364.191 102.341 364.468 102.45C364.745 102.559 364.997 102.722 365.21 102.93L387.09 123C387.422 123.303 387.654 123.699 387.756 124.136C387.858 124.573 387.825 125.031 387.661 125.449C387.498 125.867 387.211 126.226 386.84 126.477C386.468 126.729 386.029 126.863 385.58 126.86V126.9Z" fill="#133DBD"/>
    <path d="M364.59 127.78C364.16 127.776 363.74 127.648 363.381 127.411C363.022 127.173 362.739 126.837 362.567 126.443C362.394 126.049 362.34 125.613 362.41 125.188C362.479 124.764 362.67 124.368 362.96 124.05L383.07 102.19C383.473 101.778 384.021 101.539 384.597 101.524C385.173 101.508 385.732 101.717 386.157 102.107C386.582 102.497 386.838 103.036 386.872 103.612C386.907 104.187 386.716 104.753 386.34 105.19L366.23 127.05C366.023 127.279 365.769 127.462 365.487 127.588C365.205 127.714 364.899 127.779 364.59 127.78Z" fill="#133DBD"/>
    <path d="M375.92 56.74H308.13V61.19H375.92V56.74Z" fill="#133DBD"/>
    <path d="M375.92 64.47H307.51V68.92H375.92V64.47Z" fill="#133DBD"/>
    <path d="M401.04 56.74H388.68V61.19H401.04V56.74Z" fill="#133DBD"/>
    <path d="M402.35 64.47H388.68V68.92H402.35V64.47Z" fill="#133DBD"/>
    <path d="M178.03 135.25H116.74V141.05H178.03V135.25Z" fill="#65D78D"/>
    <path d="M181 165.21H114.71V133.71H181V165.21ZM119.16 160.76H176.56V138.15H119.16V160.76Z" fill="#133DBD"/>
    <path d="M341.09 152.38C341.09 152.38 345.15 141.24 354.34 141.24C363.53 141.24 368.17 151.49 368.17 151.49C368.17 151.49 356.7 138.59 341.09 152.38Z" fill="#65D78D"/>
    <path d="M346.68 141.11H362.63C364.359 141.11 366.018 141.797 367.24 143.02C368.463 144.242 369.15 145.901 369.15 147.63V187.49H340.15V147.63C340.15 145.901 340.837 144.242 342.06 143.02C343.282 141.797 344.941 141.11 346.67 141.11H346.68Z" fill="#65D78D"/>
    <path d="M369.15 189.72H340.15C339.858 189.72 339.568 189.662 339.298 189.55C339.028 189.438 338.783 189.273 338.577 189.066C338.37 188.859 338.207 188.613 338.096 188.343C337.985 188.072 337.929 187.782 337.93 187.49V155.6C337.93 151.166 339.692 146.913 342.827 143.777C345.963 140.642 350.216 138.88 354.65 138.88C359.084 138.88 363.337 140.642 366.473 143.777C369.608 146.913 371.37 151.166 371.37 155.6V187.49C371.37 188.08 371.136 188.645 370.72 189.063C370.304 189.481 369.74 189.717 369.15 189.72ZM342.38 185.27H366.93V155.6C366.839 152.405 365.506 149.372 363.213 147.144C360.921 144.917 357.851 143.67 354.655 143.67C351.459 143.67 348.389 144.917 346.096 147.144C343.804 149.372 342.471 152.405 342.38 155.6V185.27Z" fill="#133DBD"/>
</svg>
