<svg width="58" height="32" viewBox="0 0 58 32" fill="none" xmlns="http://www.w3.org/2000/svg">
    <g clip-path="url(#clip0_1_2339)">
        <path d="M49.2043 29.0555V16.0163H43.8995V14.0467H37.9684V16.0163H31.8676V12.3372H28.1027V16.0163H25.5514V10.6927H26.1648V9.37317H6.7401V10.6927H7.35345V16.0163H1.34399V24.3169V31.2525H49.2043C48.9433 30.492 49.8241 29.7575 49.2043 29.0555Z" fill="#EBF0F6"/>
        <path d="M29.4273 6.44165C28.6965 6.92266 28.3115 12.3372 28.3115 12.3372L39.7236 17.9013L38.4578 7.24766L29.4273 6.44165Z" fill="white"/>
        <path d="M14.8376 30.4725L38.484 30.05L39.5214 28.9125L39.7237 17.8948L29.584 9.02865L27.3851 7.36462L15.2813 16.4388L14.8376 30.4725Z" fill="white"/>
        <path d="M0.815674 31.142H4.31955" stroke="#133DBD" stroke-width="2.5" stroke-miterlimit="10" stroke-linecap="round"/>
        <path d="M51.0315 31.142H57.1845" stroke="#133DBD" stroke-width="2.5" stroke-miterlimit="10" stroke-linecap="round"/>
        <path d="M31.0456 18.5837H23.2744V31.1484H31.0456V18.5837Z" fill="#65D78D"/>
        <path d="M39.5215 28.9125C39.5215 29.3545 39.241 30.05 38.4775 30.05H32.1353V17.7648H22.6677V30.0435H16.4233C15.8752 30.0435 15.2815 29.5885 15.2815 28.906V16.4388L26.413 8.02767L27.3786 7.36466L30.5628 9.7697L31.4567 7.98217L29.4275 6.44165L27.4243 4.97913L25.2711 6.45465L13.324 15.4703V28.906C13.324 30.609 14.7138 31.9935 16.4233 31.9935H24.6251V19.7149H30.1778V31.9935H38.4775C40.3567 31.9935 41.479 30.427 41.479 28.906V23.3159H39.5215V28.9125Z" fill="#133DBD"/>
        <path d="M9.95044 31.142H47.397" stroke="#133DBD" stroke-width="2.5" stroke-miterlimit="10" stroke-linecap="round"/>
        <path d="M43.6452 21.7883C49.6849 21.7883 54.581 16.9109 54.581 10.8942C54.581 4.87749 49.6849 0 43.6452 0C37.6056 0 32.7095 4.87749 32.7095 10.8942C32.7095 16.9109 37.6056 21.7883 43.6452 21.7883Z" fill="#65D78D"/>
        <path d="M37.8967 10.3351V9.02207H39.417C39.7302 7.83905 40.3305 6.89004 41.2114 6.17503C42.0922 5.46001 43.1689 5.10901 44.4282 5.10901C45.9941 5.10901 47.3383 5.73952 48.454 6.99404L47.0577 8.80107C46.2943 7.87805 45.4004 7.41004 44.3629 7.41004C43.195 7.41004 42.3859 7.94305 41.9356 9.01557H45.5831V10.3286H41.6551C41.642 10.4326 41.642 10.5886 41.642 10.7966C41.642 11.0046 41.6486 11.1541 41.6551 11.2516H45.5831V12.5646H42.0139C42.2619 13.0521 42.6077 13.4291 43.0384 13.6891C43.469 13.9491 43.9519 14.0791 44.4738 14.0791C45.5048 14.0791 46.353 13.6696 47.012 12.8441L48.454 14.4367C47.8929 15.0932 47.2404 15.5807 46.5031 15.9057C45.7658 16.2307 45.035 16.3867 44.3042 16.3867C43.1232 16.3867 42.0988 16.0422 41.2179 15.3467C40.3436 14.6577 39.7433 13.7281 39.417 12.5646H37.8967V11.2516H39.2148C39.2017 11.1606 39.2017 11.0046 39.2017 10.7966C39.2017 10.5886 39.2082 10.4326 39.2148 10.3286H37.8967V10.3351Z" fill="#133DBD"/>
    </g>
    <defs>
        <clipPath id="clip0_1_2339">
            <rect width="58" height="32" fill="white"/>
        </clipPath>
    </defs>
</svg>
