<svg width="84" height="103" viewBox="0 0 84 103" fill="none" xmlns="http://www.w3.org/2000/svg">
    <path d="M30 37.8999H1.09998V101.8H30V37.8999Z" fill="white"/>
    <path d="M26.3999 15.6001H4.69995V37.9001H26.3999V15.6001Z" fill="white"/>
    <path d="M45.5 101.8V19.2L81.3 40.7999L76.2 86.3999L82.2 101.8H45.5Z" fill="white"/>
    <rect x="57" y="88" width="7" height="13" fill="#C4D3E4"/>
    <path d="M30 36.9H27.4V15.6C27.4 15 27 14.6 26.4 14.6H16.5V1C16.5 0.5 16.1 0 15.5 0C14.9 0 14.5 0.4 14.5 1V14.6H4.6C4 14.6 3.6 15 3.6 15.6V36.9H1C0.4 36.9 0 37.3 0 37.9V101.8C0 102.4 0.4 102.8 1 102.8H29.9C30.5 102.8 30.9 102.4 30.9 101.8V37.9C31 37.4 30.5 36.9 30 36.9ZM5.7 16.6H25.4V36.9H5.7V16.6ZM29 100.8H2.1V38.9H29V100.8Z" fill="#0022CD"/>
    <path d="M9.30005 58.5001C9.90005 58.5001 10.3 58.1001 10.3 57.5001V46.1001C10.3 45.5001 9.90005 45.1001 9.30005 45.1001C8.70005 45.1001 8.30005 45.5001 8.30005 46.1001V57.5001C8.30005 58.0001 8.70005 58.5001 9.30005 58.5001Z" fill="#0022CD"/>
    <path d="M15.5 58.5001C16.1 58.5001 16.5 58.1001 16.5 57.5001V46.1001C16.5 45.5001 16.1 45.1001 15.5 45.1001C14.9 45.1001 14.5 45.5001 14.5 46.1001V57.5001C14.5 58.0001 15 58.5001 15.5 58.5001Z" fill="#0022CD"/>
    <path d="M21.8 58.5001C22.4 58.5001 22.8 58.1001 22.8 57.5001V46.1001C22.8 45.5001 22.4 45.1001 21.8 45.1001C21.2 45.1001 20.8 45.5001 20.8 46.1001V57.5001C20.8 58.0001 21.3 58.5001 21.8 58.5001Z" fill="#0022CD"/>
    <path d="M9.30005 75.7999C9.90005 75.7999 10.3 75.3999 10.3 74.7999V63.3999C10.3 62.7999 9.90005 62.3999 9.30005 62.3999C8.70005 62.3999 8.30005 62.7999 8.30005 63.3999V74.7999C8.30005 75.2999 8.70005 75.7999 9.30005 75.7999Z" fill="#0022CD"/>
    <path d="M15.5 75.7999C16.1 75.7999 16.5 75.3999 16.5 74.7999V63.3999C16.5 62.7999 16.1 62.3999 15.5 62.3999C14.9 62.3999 14.5 62.7999 14.5 63.3999V74.7999C14.5 75.2999 15 75.7999 15.5 75.7999Z" fill="#0022CD"/>
    <path d="M21.8 75.7999C22.4 75.7999 22.8 75.3999 22.8 74.7999V63.3999C22.8 62.7999 22.4 62.3999 21.8 62.3999C21.2 62.3999 20.8 62.7999 20.8 63.3999V74.7999C20.8 75.2999 21.3 75.7999 21.8 75.7999Z" fill="#0022CD"/>
    <path d="M9.30005 93.0001C9.90005 93.0001 10.3 92.6001 10.3 92.0001V80.6001C10.3 80.0001 9.90005 79.6001 9.30005 79.6001C8.70005 79.6001 8.30005 80.0001 8.30005 80.6001V92.0001C8.30005 92.6001 8.70005 93.0001 9.30005 93.0001Z" fill="#0022CD"/>
    <path d="M15.5 93.0001C16.1 93.0001 16.5 92.6001 16.5 92.0001V80.6001C16.5 80.0001 16.1 79.6001 15.5 79.6001C14.9 79.6001 14.5 80.0001 14.5 80.6001V92.0001C14.5 92.6001 15 93.0001 15.5 93.0001Z" fill="#0022CD"/>
    <path d="M21.8 93.0001C22.4 93.0001 22.8 92.6001 22.8 92.0001V80.6001C22.8 80.0001 22.4 79.6001 21.8 79.6001C21.2 79.6001 20.8 80.0001 20.8 80.6001V92.0001C20.8 92.6001 21.3 93.0001 21.8 93.0001Z" fill="#0022CD"/>
    <path d="M45 19L81 40.5L75.5 86.5L82 102.5H45V19Z" fill="white"/>
    <path d="M83.1 101.4L77.2 86.3L82.3 40.9C82.3 40.5 82.2 40.1 81.8 39.9L46 18.4C45.7 18.2 45.3 18.2 45 18.4C44.7 18.6 44.5 18.9 44.5 19.3V101.9C44.5 102.5 44.9 102.9 45.5 102.9H82.2C82.5 102.9 82.8 102.7 83 102.5C83.2 102.1 83.2 101.7 83.1 101.4ZM58.2 100.1V89.2H63.2V100H58.2V100.1ZM65.2 100.8V88.2C65.2 87.6 64.8 87.2 64.2 87.2H57.2C56.6 87.2 56.2 87.6 56.2 88.2V100.8H46.5V21L80.2 41.3L75.2 86.3C75.2 86.5 75.2 86.6 75.3 86.8L80.8 100.8H65.2Z" fill="#0022CD"/>
    <path d="M54.5 44.2C53.9 44.2 53.5 44.6 53.5 45.2V51C53.5 51.6 53.9 52 54.5 52C55.1 52 55.5 51.6 55.5 51V45.2C55.5 44.6 55.1 44.2 54.5 44.2Z" fill="#0022CD"/>
    <path d="M60.8 44.2C60.2 44.2 59.8 44.6 59.8 45.2V51C59.8 51.6 60.2 52 60.8 52C61.4 52 61.8 51.6 61.8 51V45.2C61.8 44.6 61.4 44.2 60.8 44.2Z" fill="#0022CD"/>
    <path d="M67.1 44.2C66.5 44.2 66.1 44.6 66.1 45.2V51C66.1 51.6 66.5 52 67.1 52C67.7 52 68.1 51.6 68.1 51V45.2C68.1 44.6 67.6 44.2 67.1 44.2Z" fill="#0022CD"/>
    <path d="M54.5 57C53.9 57 53.5 57.4 53.5 58V63.8C53.5 64.4 53.9 64.8 54.5 64.8C55.1 64.8 55.5 64.4 55.5 63.8V58C55.5 57.5 55.1 57 54.5 57Z" fill="#0022CD"/>
    <path d="M60.8 57C60.2 57 59.8 57.4 59.8 58V63.8C59.8 64.4 60.2 64.8 60.8 64.8C61.4 64.8 61.8 64.4 61.8 63.8V58C61.8 57.5 61.4 57 60.8 57Z" fill="#0022CD"/>
    <path d="M67.1 57C66.5 57 66.1 57.4 66.1 58V63.8C66.1 64.4 66.5 64.8 67.1 64.8C67.7 64.8 68.1 64.4 68.1 63.8V58C68.1 57.5 67.6 57 67.1 57Z" fill="#0022CD"/>
    <path d="M54.5 69.8999C53.9 69.8999 53.5 70.2999 53.5 70.8999V76.6999C53.5 77.2999 53.9 77.6999 54.5 77.6999C55.1 77.6999 55.5 77.2999 55.5 76.6999V70.8999C55.5 70.3999 55.1 69.8999 54.5 69.8999Z" fill="#0022CD"/>
    <path d="M60.8 69.8999C60.2 69.8999 59.8 70.2999 59.8 70.8999V76.6999C59.8 77.2999 60.2 77.6999 60.8 77.6999C61.4 77.6999 61.8 77.2999 61.8 76.6999V70.8999C61.8 70.3999 61.4 69.8999 60.8 69.8999Z" fill="#0022CD"/>
    <path d="M67.1 69.8999C66.5 69.8999 66.1 70.2999 66.1 70.8999V76.6999C66.1 77.2999 66.5 77.6999 67.1 77.6999C67.7 77.6999 68.1 77.2999 68.1 76.6999V70.8999C68.1 70.3999 67.6 69.8999 67.1 69.8999Z" fill="#0022CD"/>
</svg>
