<svg width="73" height="57" viewBox="0 0 73 57" fill="none" xmlns="http://www.w3.org/2000/svg">
    <path d="M67.7 7H4.90002V56H67.7V7Z" fill="white"/>
    <path d="M23.9 50.8V56H15.7V50.8" fill="#C4D3E4"/>
    <path d="M56.9 50.8V56H48.7V50.8" fill="#C4D3E4"/>
    <path d="M56.9 50.8H15.7V43.4C15.7 42.9 15.9 42.3 16.3 41.9L19.8 38.4H52.8L56.3 41.9C56.7 42.3 56.9 42.8 56.9 43.4V50.8Z" fill="#6288B9"/>
    <path d="M71.6 1H1V7H71.6V1Z" fill="#C4D3E4"/>
    <path d="M26 43.7H21.9C21.3 43.7 20.9 44.1 20.9 44.7C20.9 45.3 21.3 45.7 21.9 45.7H26C26.6 45.7 27 45.3 27 44.7C27 44.1 26.5 43.7 26 43.7Z" fill="#0022CD"/>
    <path d="M50.7 43.7H46.6C46 43.7 45.6 44.1 45.6 44.7C45.6 45.3 46 45.7 46.6 45.7H50.7C51.3 45.7 51.7 45.3 51.7 44.7C51.7 44.1 51.3 43.7 50.7 43.7Z" fill="#0022CD"/>
    <path d="M24.5 26H48.5L52 38H20L24.5 26Z" fill="#EBF0F6"/>
    <path d="M71.6 0H1C0.4 0 0 0.4 0 1V7C0 7.6 0.4 8 1 8H3.9V56C3.9 56.6 4.3 57 4.9 57H67.7C68.3 57 68.7 56.6 68.7 56V8H71.6C72.2 8 72.6 7.6 72.6 7V1C72.6 0.4 72.2 0 71.6 0ZM22.9 55H16.7V51.8H22.9V55ZM47.7 55H24.9V51.8H47.6V55H47.7ZM55.9 55H49.7V51.8H55.9V55ZM55.9 49.8H16.7V43.4C16.7 43.1 16.8 42.8 17 42.6L20.2 39.4H52.4L55.6 42.6C55.8 42.8 55.9 43.1 55.9 43.4V49.8ZM21.2 37.5L24.4 27.9C24.5 27.5 24.9 27.2 25.4 27.2H47.2C47.7 27.2 48.1 27.5 48.2 27.9L51.4 37.5H21.2ZM66.7 55H57.9V50.8V43.4C57.9 42.6 57.6 41.8 57 41.2L53.6 37.8L50 27.1C49.6 25.8 48.4 25 47.1 25H25.4C24.1 25 22.9 25.8 22.5 27.1L18.9 37.8L15.5 41.2C14.9 41.8 14.6 42.5 14.6 43.4V50.8V55H5.9V8H66.7V55ZM70.6 6H67.7H4.9H2V2H70.6V6Z" fill="#0022CD"/>
    <path d="M9.59998 12H62.6C63.2 12 63.6 11.6 63.6 11C63.6 10.4 63.2 10 62.6 10H9.59998C8.99998 10 8.59998 10.4 8.59998 11C8.59998 11.6 8.99998 12 9.59998 12Z" fill="#0022CD"/>
    <path d="M9.59998 16H62.6C63.2 16 63.6 15.6 63.6 15C63.6 14.4 63.2 14 62.6 14H9.59998C8.99998 14 8.59998 14.4 8.59998 15C8.59998 15.6 8.99998 16 9.59998 16Z" fill="#0022CD"/>
    <path d="M9.59998 20H62.6C63.2 20 63.6 19.6 63.6 19C63.6 18.4 63.2 18 62.6 18H9.59998C8.99998 18 8.59998 18.4 8.59998 19C8.59998 19.6 8.99998 20 9.59998 20Z" fill="#0022CD"/>
</svg>
