<svg width="72" height="76" viewBox="0 0 72 76" fill="none" xmlns="http://www.w3.org/2000/svg">
    <path d="M68.3001 20.02H3.56006L1.00006 42.01H70.8601L68.3001 20.02Z" fill="#C4D3E4"/>
    <path d="M68.1001 42.1799H4.75006V70.6399H68.1001V42.1799Z" fill="white"/>
    <path d="M68.1001 43.1001H5.32007V44.9501H68.1001V43.1001Z" fill="#6288B9"/>
    <path d="M62.1901 31.47H67.1701L61.7901 20.7L59.6101 16.33L51.9401 0.959961L44.2701 16.33L42.0801 20.7L36.7001 31.47H41.6801L41.3201 41.25L39.4701 45.87V70.63H64.4001V45.87L62.5501 41.25L62.1901 31.47Z" fill="white"/>
    <path d="M33.01 54.1799H23.78V69.8699H33.01V54.1799Z" fill="white"/>
    <path d="M57.02 54.1799H46.86V66.1799H57.02V54.1799Z" fill="white"/>
    <path d="M57.02 54.1799H46.86V58.7999H57.02V54.1799Z" fill="white"/>
    <path d="M19.17 54.1799H10.86V62.4899H19.17V54.1799Z" fill="white"/>
    <path d="M36.7 31.4699H41.68L42.08 20.7L36.7 31.4699Z" fill="white"/>
    <path d="M41.68 32.4699H36.7C36.35 32.4699 36.03 32.2899 35.85 31.9999C35.67 31.7099 35.65 31.3399 35.81 31.0299L41.19 20.2599C41.4 19.8399 41.88 19.6199 42.33 19.7399C42.79 19.8599 43.1 20.2799 43.08 20.7499L42.68 31.5199C42.66 32.0499 42.22 32.4699 41.68 32.4699ZM38.32 30.4699H40.72L40.91 25.2799L38.32 30.4699Z" fill="#0022CD"/>
    <path d="M67.17 31.4699L61.79 20.7L62.19 31.4699H67.17Z" fill="white"/>
    <path d="M67.17 32.4698H62.19C61.65 32.4698 61.21 32.0398 61.19 31.5098L60.79 20.7398C60.77 20.2698 61.09 19.8498 61.54 19.7298C61.99 19.6098 62.47 19.8298 62.68 20.2498L68.06 31.0198C68.22 31.3298 68.2 31.6998 68.02 31.9898C67.84 32.2898 67.52 32.4698 67.17 32.4698ZM63.16 30.4698H65.56L62.97 25.2798L63.16 30.4698Z" fill="#0022CD"/>
    <path d="M62.55 41.25L62.19 31.47L61.79 20.7L59.61 16.33L51.94 0.959961L44.27 16.33L42.08 20.7L41.68 31.47L41.32 41.25" fill="white"/>
    <path d="M37.6301 13.5601H33.0101V20.0201H37.6301V13.5601Z" fill="white"/>
    <path d="M55.1701 20.9399H48.7101V36.6299H55.1701V20.9399Z" fill="white"/>
    <path d="M55.1701 20.9399H48.7101V26.9799H55.1701V20.9399Z" fill="white"/>
    <path d="M12.97 28.74H15.75L15.97 22.73L12.97 28.74Z" fill="white"/>
    <path d="M29.97 28.74L26.97 22.73L27.19 28.74H29.97Z" fill="white"/>
    <path d="M27.19 28.74L26.97 22.73L25.75 20.28L21.47 11.71L17.19 20.28L15.97 22.73L15.75 28.74L15.55 34.19H27.4L27.19 28.74Z" fill="white"/>
    <path d="M23.78 24.6299H19.16V30.1699H23.78V24.6299Z" fill="white"/>
    <path d="M69.9401 70.63H2.90009V74.48H69.9401V70.63Z" fill="white"/>
    <path d="M19.16 53.1799H10.85C10.3 53.1799 9.85004 53.6299 9.85004 54.1799V62.4899C9.85004 63.0399 10.3 63.4899 10.85 63.4899H19.16C19.71 63.4899 20.16 63.0399 20.16 62.4899V54.1799C20.16 53.6199 19.72 53.1799 19.16 53.1799ZM18.16 61.4899H11.85V55.1799H18.16V61.4899Z" fill="#0022CD"/>
    <path d="M23.78 23.6299H19.16C18.61 23.6299 18.16 24.0799 18.16 24.6299V30.1699C18.16 30.7199 18.61 31.1699 19.16 31.1699H23.78C24.33 31.1699 24.78 30.7199 24.78 30.1699V24.6299C24.78 24.0799 24.33 23.6299 23.78 23.6299ZM22.78 29.1699H20.16V25.6299H22.78V29.1699Z" fill="#0022CD"/>
    <path d="M48.7101 37.6399H55.1701C55.7201 37.6399 56.1701 37.1899 56.1701 36.6399V26.9799V20.9399C56.1701 20.3899 55.7201 19.9399 55.1701 19.9399H48.7101C48.1601 19.9399 47.7101 20.3899 47.7101 20.9399V26.9799V36.6399C47.7101 37.1899 48.1501 37.6399 48.7101 37.6399ZM49.7101 21.9399H54.1701V25.9799H49.7101V21.9399ZM49.7101 27.9799H54.1701V35.6399H49.7101V27.9799Z" fill="#0022CD"/>
    <path d="M70.8601 43.01C71.1501 43.01 71.4201 42.89 71.6101 42.68C71.8001 42.47 71.8901 42.18 71.8601 41.9L69.3001 19.9C69.2401 19.4 68.8101 19.02 68.3101 19.02H62.0801L52.8301 0.51C52.4901 -0.17 51.3801 -0.17 51.0401 0.51L41.8001 19.02H38.6201V13.56C38.6201 13.01 38.1701 12.56 37.6201 12.56H33.0001C32.4501 12.56 32.0001 13.01 32.0001 13.56V19.02H26.2301L22.3601 11.26C22.0201 10.58 20.9101 10.58 20.5701 11.26L16.7001 19.02H3.56006C3.05006 19.02 2.63006 19.4 2.57006 19.9L0.0100592 41.9C-0.0199408 42.18 0.0700592 42.47 0.260059 42.68C0.450059 42.89 0.720059 43.01 1.01006 43.01H3.76006V69.63H2.90006C2.35006 69.63 1.90006 70.08 1.90006 70.63V74.48C1.90006 75.03 2.35006 75.48 2.90006 75.48H21.9401H34.8601H69.9401C70.4901 75.48 70.9401 75.03 70.9401 74.48V70.63C70.9401 70.08 70.4901 69.63 69.9401 69.63H69.0901V43.01H70.8601ZM29.9701 29.74C30.3201 29.74 30.6401 29.56 30.8201 29.27C30.9801 29.01 31.0001 28.7 30.9001 28.41H37.1101L36.2601 30.1H28.2301L28.2201 29.74H29.9701ZM29.0801 24.71H38.9601L38.1201 26.4H29.9301L29.0801 24.71ZM35.9301 32.1C36.1201 32.33 36.4001 32.48 36.7001 32.48H40.6401L40.5901 33.8H28.3801L28.3201 32.11H35.9301V32.1ZM40.4701 46.87H63.4001V69.64H40.4701V46.87ZM69.7401 41.01H63.5501L63.4901 39.48H69.5601L69.7401 41.01ZM69.0201 35.79C69.0601 35.79 69.0901 35.77 69.1301 35.77L69.3301 37.49H63.4201L63.3601 35.8H69.0201V35.79ZM68.9001 33.79H63.2801L63.2301 32.47H67.1701C67.4701 32.47 67.7501 32.33 67.9401 32.09H68.7001L68.9001 33.79ZM68.4701 30.1H67.6001L66.7501 28.41H68.2701L68.4701 30.1ZM68.0401 26.4H65.7601L64.9201 24.71H67.8501L68.0401 26.4ZM67.4101 21.02L67.6101 22.71H63.9101L63.0701 21.02H67.4101ZM65.5501 30.47H63.1501L62.9601 25.28L65.5501 30.47ZM42.2301 41.68C42.2301 41.68 42.2301 41.67 42.2401 41.67L42.2601 41.62C42.3001 41.51 42.3301 41.4 42.3301 41.29L43.0801 20.96L51.9401 3.2L60.8001 20.96L61.1901 31.51L61.5501 41.29C61.5501 41.4 61.5801 41.52 61.6201 41.62L62.9201 44.86H40.9501L42.2301 41.68ZM40.7201 30.47H38.3201L40.9101 25.28L40.7201 30.47ZM34.0101 14.56H36.6301V19.02H34.0101V14.56ZM33.0101 21.02H37.6301H40.8101L39.9701 22.71H28.0801L27.8601 22.28L27.2301 21.02H33.0101ZM16.9601 22.98L21.4701 13.95L25.9801 22.98L26.3601 33.19H16.5901L16.9601 22.98ZM4.45006 21.02H15.7101L15.0801 22.28L14.8601 22.71H4.25006L4.45006 21.02ZM4.02006 24.71H13.8601L13.0201 26.4H3.82006L4.02006 24.71ZM3.59006 28.4H12.0401C11.9401 28.68 11.9601 29 12.1201 29.26C12.3001 29.55 12.6201 29.73 12.9701 29.73H14.7101L14.7001 30.1H3.39006L3.59006 28.4ZM3.16006 32.1H14.6301L14.5701 33.79H2.96006L3.16006 32.1ZM2.73006 35.77C2.77006 35.77 2.80006 35.79 2.84006 35.79H40.5201L40.4601 37.48H2.53006L2.73006 35.77ZM2.30006 39.48H40.3801L40.3201 41.01H2.12006L2.30006 39.48ZM5.75006 43.18H39.4801L38.5601 45.48L38.5501 45.5C38.5101 45.61 38.4901 45.72 38.4901 45.83C38.4901 45.84 38.4801 45.85 38.4801 45.87V69.64H34.0201V54.18C34.0201 53.63 33.5701 53.18 33.0201 53.18H23.7901C23.2401 53.18 22.7901 53.63 22.7901 54.18V69.64H5.75006V43.18ZM24.7801 68.87V55.18H32.0101V68.87H24.7801ZM3.90006 71.63H4.75006H22.2001L21.3101 73.48H3.90006V71.63ZM23.5201 73.49L24.4101 71.64H32.3801L33.2701 73.49H23.5201ZM68.9401 73.49H35.4901L34.6001 71.64H39.4701H64.4001H68.0901H68.9401V73.49ZM65.4001 69.63V45.87C65.4001 45.86 65.3901 45.85 65.3901 45.83C65.3901 45.72 65.3701 45.6 65.3301 45.5L65.3201 45.48L64.4001 43.18H67.0901V69.64H65.4001V69.63Z" fill="#0022CD"/>
    <path d="M57.01 53.1799H46.86C46.31 53.1799 45.86 53.6299 45.86 54.1799V58.7999V66.1899C45.86 66.7399 46.31 67.1899 46.86 67.1899H57.02C57.57 67.1899 58.02 66.7399 58.02 66.1899V58.7999V54.1799C58.01 53.6199 57.57 53.1799 57.01 53.1799ZM56.01 65.1799H47.85V59.7899H56.01V65.1799ZM56.01 57.7899H47.85V55.1699H56.01V57.7899Z" fill="#0022CD"/>
</svg>
