<svg width="45" height="59" viewBox="0 0 45 59" fill="none" xmlns="http://www.w3.org/2000/svg">
    <path d="M11.3 17.45L13.7 13.85L15.5 11.05H5.50002L0.900024 25.05H6.40002L11.3 17.45Z" fill="#6288B9"/>
    <path d="M30.3 13.85L32.6 17.45L37.6 25.05H43L38.5 11.05H28.5L30.3 13.85Z" fill="#6288B9"/>
    <path d="M7.50002 26.45H5.50002L6.40002 25.05H0.900024V54.05H7.50002V26.45Z" fill="white"/>
    <path d="M37.6 25.05L38.5 26.45H36.5V54.05H43V25.05H37.6Z" fill="white"/>
    <path d="M44 24.8501C44 24.7501 44 24.7501 44 24.8501V24.6501L39.5 10.7501C39.4 10.3501 39 10.0501 38.5 10.0501H29L22.8 0.550098C22.4 -0.0499023 21.5 -0.0499023 21.1 0.550098L14.9 10.0501H5.5C5.1 10.0501 4.7 10.3501 4.5 10.7501L0 24.6501V24.7501V24.8501C0 24.9501 0 24.9501 0 25.0501V54.0501C0 54.6501 0.4 55.0501 1 55.0501H6.6V56.0501C6.6 56.6501 7 57.0501 7.6 57.0501H36.6C37.2 57.0501 37.6 56.6501 37.6 56.0501V55.0501H43.2C43.8 55.0501 44.2 54.6501 44.2 54.0501V25.0501C44 24.9501 44 24.8501 44 24.8501ZM40 19.0501H34.9L32.9 16.0501H39.1L40 19.0501ZM38.1 24.0501L36.2 21.0501H40.7L41.7 24.0501H38.1ZM37.8 12.0501L38.4 14.0501H31.6L31.1 13.2501L30.3 12.0501H37.8ZM3.3 21.0501H7.8L5.9 24.0501H2.3L3.3 21.0501ZM4.9 16.0501H11.1L9.1 19.1501C8.9 19.0501 8.8 19.0501 8.7 19.0501H3.9L4.9 16.0501ZM13.6 12.0501L12.3 14.0501C12.2 14.0501 12.1 13.9501 12 13.9501H5.5L6.1 11.9501H13.6V12.0501ZM1.9 53.0501V26.0501H4.5C4.5 26.1501 4.4 26.2501 4.4 26.4501C4.4 26.4501 4.4 26.4501 4.4 26.5501C4.4 26.6501 4.4 26.8501 4.5 26.9501C4.7 27.2501 5 27.4501 5.4 27.4501H6.4V53.0501H1.9ZM35.5 55.0501H8.5V54.0501V26.4501C8.5 25.8501 8.1 25.4501 7.5 25.4501H7.3L12.1 18.0501L16.3 11.6501L22 2.9501L36.7 25.5501H36.5C35.9 25.5501 35.5 25.9501 35.5 26.5501V54.0501V55.0501ZM37.5 53.0501V27.4501H38.5C38.9 27.4501 39.2 27.2501 39.4 26.9501C39.5 26.8501 39.5 26.6501 39.5 26.5501C39.5 26.5501 39.5 26.5501 39.5 26.4501C39.5 26.3501 39.5 26.1501 39.4 26.0501H42V53.0501H37.5Z" fill="#0022CD"/>
    <path d="M38.5 26.45L32.6 17.45L30.3 13.85L22 1.05005L13.7 13.85L11.3 17.45L5.5 26.45H7.5V56.05H36.5V26.45H38.5Z" fill="white"/>
    <path d="M38.5 26.45L32.6 17.45L30.3 13.85L22 1.05005L13.7 13.85L11.3 17.45L5.5 26.45H7.5V56.05H36.5V26.45H38.5Z" fill="white"/>
    <path d="M36.5 57.05H7.49995C6.89995 57.05 6.49995 56.65 6.49995 56.05V27.45H5.49995C5.09995 27.45 4.79995 27.25 4.59995 26.95C4.39995 26.65 4.39995 26.25 4.59995 25.95L21.1 0.45C21.5 -0.15 22.4 -0.15 22.8 0.45L39.3 25.85C39.5 26.15 39.5 26.55 39.3 26.85C39.1 27.15 38.8 27.35 38.4 27.35H37.4V56.05C37.5 56.55 37 57.05 36.5 57.05ZM8.49995 55.05H35.5V26.45C35.5 25.85 35.9 25.45 36.5 25.45H36.7L22 2.85L7.29995 25.45H7.49995C8.09995 25.45 8.49995 25.85 8.49995 26.45V55.05Z" fill="#0022CD"/>
    <path d="M27.8999 31.05H15.8999V51.05H27.8999V31.05Z" fill="#C4D3E4"/>
    <path d="M27.8999 52.05H15.8999C15.2999 52.05 14.8999 51.65 14.8999 51.05V31.05C14.8999 30.45 15.2999 30.05 15.8999 30.05H27.8999C28.4999 30.05 28.8999 30.45 28.8999 31.05V51.05C28.8999 51.55 28.4999 52.05 27.8999 52.05ZM16.8999 50.05H26.8999V32.05H16.8999V50.05Z" fill="#0022CD"/>
    <path d="M22 24.05C24.2091 24.05 26 22.2592 26 20.05C26 17.8409 24.2091 16.05 22 16.05C19.7909 16.05 18 17.8409 18 20.05C18 22.2592 19.7909 24.05 22 24.05Z" fill="#EBF0F6"/>
    <path d="M22 25.05C19.2 25.05 17 22.85 17 20.05C17 17.25 19.2 15.05 22 15.05C24.8 15.05 27 17.25 27 20.05C27 22.85 24.8 25.05 22 25.05ZM22 17.05C20.3 17.05 19 18.35 19 20.05C19 21.75 20.3 23.05 22 23.05C23.7 23.05 25 21.75 25 20.05C25 18.35 23.7 17.05 22 17.05Z" fill="#0022CD"/>
    <path d="M28.7 51.05H15.2V54.05H28.7V51.05Z" fill="white"/>
    <path d="M28.7 55.05H15.2C14.6 55.05 14.2 54.65 14.2 54.05V51.05C14.2 50.45 14.6 50.05 15.2 50.05H28.7C29.3 50.05 29.7 50.45 29.7 51.05V54.05C29.7 54.55 29.2 55.05 28.7 55.05ZM16.2 53.05H27.7V52.05H16.2V53.05Z" fill="#0022CD"/>
    <path d="M30.9999 54.05H12.7999V57.05H30.9999V54.05Z" fill="white"/>
    <path d="M30.9999 58.05H12.7999C12.1999 58.05 11.7999 57.65 11.7999 57.05V54.05C11.7999 53.45 12.1999 53.05 12.7999 53.05H30.9999C31.5999 53.05 31.9999 53.45 31.9999 54.05V57.05C31.9999 57.55 31.5999 58.05 30.9999 58.05ZM13.7999 56.05H29.9999V55.05H13.7999V56.05Z" fill="#0022CD"/>
</svg>
