<svg width="34" height="44" viewBox="0 0 34 44" fill="none" xmlns="http://www.w3.org/2000/svg">
    <path d="M16.53 32.06C25.107 32.06 32.06 25.107 32.06 16.53C32.06 7.95302 25.107 1 16.53 1C7.95302 1 1 7.95302 1 16.53C1 25.107 7.95302 32.06 16.53 32.06Z" fill="#CCFF69"/>
    <path d="M33.06 16.53C33.06 7.41 25.64 0 16.53 0C7.42 0 0 7.42 0 16.53C0 25.28 6.83 32.44 15.44 33.01V42.98C15.44 43.53 15.89 43.98 16.44 43.98C16.99 43.98 17.44 43.53 17.44 42.98V33.02C26.12 32.54 33.06 25.34 33.06 16.53ZM17.47 31.01L20.94 25.46C21.23 24.99 21.09 24.37 20.62 24.08C20.15 23.79 19.53 23.93 19.24 24.4L17.42 27.31V12.46C17.42 11.91 16.97 11.46 16.42 11.46C15.87 11.46 15.42 11.91 15.42 12.46V18.94L12.11 15.81C11.71 15.43 11.08 15.45 10.7 15.85C10.32 16.25 10.34 16.88 10.74 17.26L15.42 21.7V30.52V30.53C15.32 30.68 15.29 30.85 15.28 31.02C7.84 30.39 1.98001 24.15 1.98001 16.55C1.98001 8.54 8.50001 2.02 16.51 2.02C24.52 2.02 31.04 8.54 31.04 16.55C31.06 24.22 25.04 30.52 17.47 31.01Z" fill="#0022CD"/>
</svg>
