<svg width="16" height="15" viewBox="0 0 16 15" fill="none" xmlns="http://www.w3.org/2000/svg">
    <path d="M8 1C5.1 1 2.6 2.8 1.6 5.3C1.2 6.1 1 7 1 8C1 10.2 2 12.2 3.6 13.4C3.9 13.6 4.1 13.8 4.4 14H11.6C13.6 12.8 15 10.6 15 8C15 4.1 11.9 1 8 1Z" fill="white"/>
    <path fill-rule="evenodd" clip-rule="evenodd" d="M0.686961 4.89032C1.84545 2.03925 4.69671 0 8 0C12.4523 0 16 3.54772 16 8C16 10.973 14.3965 13.4883 12.1145 14.8575L11.877 15H4.09722L3.8453 14.8321C3.65892 14.7078 3.50524 14.5848 3.38419 14.488L3.3753 14.4809C3.24769 14.3788 3.15433 14.3047 3.0453 14.232L3.02221 14.2167L3 14.2C1.13537 12.8015 0 10.4984 0 8C0 6.87816 0.222373 5.83497 0.686961 4.89032ZM8 2C5.51806 2 3.38004 3.54248 2.52848 5.67139L2.51303 5.71001L2.49443 5.74721C2.17169 6.39269 2 7.13672 2 8C2 9.89223 2.85611 11.5817 4.18025 12.5851C4.35517 12.7035 4.50033 12.8196 4.61581 12.912L4.6247 12.9191C4.66097 12.9481 4.69447 12.9749 4.72636 13H11.3115C12.9075 11.9435 14 10.1279 14 8C14 4.65228 11.3477 2 8 2Z" fill="#133DBD"/>
</svg>
