<svg width="23" height="15" viewBox="0 0 23 15" fill="none" xmlns="http://www.w3.org/2000/svg">
    <path d="M14 1C11.1 1 8.61999 2.76 7.54999 5.27C7.05999 5.11 6.54 5 6 5C3.24 5 1 7.24 1 10C1 11.64 1.8 13.09 3.03 14H8.97998C9.20998 13.83 9.42 13.65 9.62 13.45C9.87 13.65 10.14 13.84 10.42 14H17.6C19.64 12.78 21.01 10.55 21.01 8C21 4.14 17.87 1 14 1Z" fill="#65D78D"/>
    <path d="M14 0C11.07 0 8.43 1.59 7.03 4.11C6.68 4.04 6.34 4 6 4C2.69 4 0 6.69 0 10C0 11.9 0.889993 13.65 2.42999 14.8L2.69998 15H9.31L9.57999 14.8C9.61999 14.77 9.65 14.74 9.69 14.72C9.76 14.77 9.83 14.81 9.91 14.86L10.15 15H17.89L18.13 14.86C20.57 13.4 22.02 10.83 22.02 8C22 3.59 18.41 0 14 0ZM3.38 13C2.5 12.24 2 11.16 2 10C2 7.79 3.79 6 6 6C6.08 6 6.17 5.99999 6.25 6.00999C6.24 6.05999 6.23 6.11 6.22 6.17C6.17 6.38 6.12998 6.59 6.09998 6.81C6.08998 6.9 6.07 6.99 6.06 7.09C6.03 7.39 6 7.69999 6 8.00999C6 8.27999 6.01999 8.55 6.04999 8.82C6.05999 8.9 6.06999 8.98 6.07999 9.06C6.10999 9.26 6.13999 9.45 6.17999 9.64C6.19999 9.72 6.20998 9.8 6.22998 9.88C6.28998 10.11 6.34999 10.34 6.42999 10.56C6.43999 10.59 6.44999 10.62 6.45999 10.65C6.54999 10.9 6.64998 11.14 6.75998 11.38C6.78998 11.45 6.82999 11.52 6.85999 11.58C6.94999 11.75 7.03998 11.92 7.13998 12.09C7.17998 12.16 7.22999 12.24 7.26999 12.31C7.38999 12.49 7.50998 12.67 7.63998 12.84C7.66998 12.88 7.69998 12.92 7.72998 12.96C7.73998 12.97 7.74 12.98 7.75 12.99H3.38V13ZM17.31 13H10.7C10.54 12.9 10.39 12.79 10.24 12.67C8.81999 11.52 8 9.82 8 8C8 7.19 8.16 6.4 8.47 5.66C9.41 3.44 11.58 2 14 2C17.31 2 20 4.69 20 8C20 10.04 19 11.89 17.31 13Z" fill="#133DBD"/>
</svg>
