<svg width="65" height="89" viewBox="0 0 65 89" fill="none" xmlns="http://www.w3.org/2000/svg">
    <g clip-path="url(#clip0_1_5565)">
        <path d="M64 24.6L50.1 24.4L49.9 19.6L41 12.5L64 12.6V24.6Z" fill="#C4D3E4"/>
        <path d="M64 56.6001H1V87.6001H64V56.6001Z" fill="white"/>
        <path d="M50 24.6L25.5 6L1 24.6V56.6H64V24.6H50Z" fill="white"/>
        <path d="M44 67.6001H32V87.6001H44V67.6001Z" fill="#315ED1"/>
        <path d="M60 80.6001H50C49.4 80.6001 49 80.2001 49 79.6001V67.6001C49 67.0001 49.4 66.6001 50 66.6001H60C60.6 66.6001 61 67.0001 61 67.6001V79.6001C61 80.1001 60.6 80.6001 60 80.6001ZM51 78.6001H59V68.6001H51V78.6001Z" fill="#133DBD"/>
        <path d="M60 46.6001H50C49.4 46.6001 49 46.2001 49 45.6001V33.6001C49 33.0001 49.4 32.6001 50 32.6001H60C60.6 32.6001 61 33.0001 61 33.6001V45.6001C61 46.1001 60.6 46.6001 60 46.6001ZM51 44.6001H59V34.6001H51V44.6001Z" fill="#133DBD"/>
        <path d="M41 51.6001H35C34.4 51.6001 34 51.2001 34 50.6001V28.6001C34 28.0001 34.4 27.6001 35 27.6001H41C41.6 27.6001 42 28.0001 42 28.6001V50.6001C42 51.1001 41.6 51.6001 41 51.6001ZM36 49.6001H40V29.6001H36V49.6001Z" fill="#133DBD"/>
        <path d="M29 40.6001H7V50.6001H29V40.6001Z" fill="#C4D3E4"/>
        <path d="M50 19.6L25.5 1L1 19.6V24.6L25.5 6L50 24.6V19.6Z" fill="#315ED1"/>
        <path d="M64 11.6001L41 11.5001L26.1 0.200098C25.7 -0.0999023 25.2 -0.0999023 24.9 0.200098L0.4 18.8001C0.1 19.0001 0 19.3001 0 19.6001V24.6001V56.6001V87.6001C0 88.2001 0.4 88.6001 1 88.6001H64C64.6 88.6001 65 88.2001 65 87.6001V56.6001V24.6001V12.6001C65 12.0001 64.6 11.6001 64 11.6001ZM2 25.1001L25.5 7.3001L49.4 25.4001C49.5 25.5001 49.6 25.5001 49.7 25.6001C49.8 25.6001 49.9 25.7001 50 25.7001H63V55.7001H2V25.1001ZM48.7 17.4001H63V19.4001H50.9C50.8 19.2001 50.7 19.0001 50.6 18.8001L49.6 18.0001L48.7 17.4001ZM63 21.4001V23.6001L51 23.4001V22.2001V21.4001H63ZM63 13.6001V15.4001H46.2L43.8 13.5001L63 13.6001ZM2 20.1001L25.5 2.3001L48.3 19.6001L48.9 20.1001L49 22.2001V22.6001L26.1 5.2001C25.7 4.9001 25.2 4.9001 24.9 5.2001L2 22.6001V20.1001ZM25 86.6001H7V68.6001H25V86.6001ZM43 86.6001H33V68.6001H43V86.6001ZM63 86.6001H45V67.6001C45 67.0001 44.6 66.6001 44 66.6001H32C31.4 66.6001 31 67.0001 31 67.6001V86.6001H27V67.6001C27 67.0001 26.6 66.6001 26 66.6001H6C5.4 66.6001 5 67.0001 5 67.6001V86.6001H2V57.6001H63V86.6001Z" fill="#133DBD"/>
        <path d="M8 50.7002C8 51.2002 8.5 51.6002 9 51.6002H27C27.5 51.6002 27.9 51.2002 28 50.7002H8Z" fill="#133DBD"/>
        <path d="M29 39.6001H28V28.6001C28 28.0001 27.6 27.6001 27 27.6001H9C8.4 27.6001 8 28.0001 8 28.6001V39.6001H7C6.4 39.6001 6 40.0001 6 40.6001V50.6001C6 51.2001 6.4 51.6001 7 51.6001H29C29.6 51.6001 30 51.2001 30 50.6001V40.6001C30 40.0001 29.6 39.6001 29 39.6001ZM10 29.6001H26V39.6001H10V29.6001ZM28 49.6001H8V41.6001H28V49.6001Z" fill="#133DBD"/>
    </g>
    <defs>
        <clipPath id="clip0_1_5565">
            <rect width="65" height="88.6" fill="white"/>
        </clipPath>
    </defs>
</svg>
