<svg width="40" height="51" viewBox="0 0 40 51" fill="none" xmlns="http://www.w3.org/2000/svg">
    <path d="M38.4 21.6C38.4 19.1 36.8 17 34.6 16.3C34.4 15.9 34.3 15.4 34.1 15C34.3 14.4 34.4 13.8 34.4 13.1C34.4 10 31.9 7.4 28.7 7.4C28.1 7.4 27.5 7.5 26.9 7.7C26.4 7.5 25.9 7.3 25.4 7.1C25.4 6.9 25.4 6.8 25.4 6.6C25.5 3.5 23 1 19.9 1C16.8 1 14.2 3.5 14.2 6.7C14.2 6.9 14.2 7.2 14.2 7.4C13.9 7.5 13.7 7.7 13.4 7.8C12.8 7.6 12.2 7.5 11.6 7.5C8.5 7.5 6 10 6 13.1C6 13.8 6.1 14.4 6.3 15C6.1 15.3 6 15.6 5.9 16C3.1 16.3 1 18.7 1 21.6C1 24.5 3.1 26.8 5.9 27.2C6 27.5 6.1 27.7 6.3 28C6.1 28.6 6 29.2 6 29.8C6 32.9 8.5 35.5 11.7 35.5C12.2 35.5 12.7 35.4 13.2 35.3C15.3 36.4 17.7 37 20.3 37C22.9 37 25.3 36.4 27.4 35.3C27.9 35.4 28.4 35.5 28.9 35.5C32 35.5 34.6 33 34.6 29.8C34.6 29.2 34.5 28.6 34.3 28.1C34.5 27.7 34.6 27.3 34.8 26.9C36.9 26.1 38.4 24 38.4 21.6Z" fill="white"/>
    <path d="M39.4 21.6C39.4 18.9 37.8 16.5 35.4 15.5C35.3 15.3 35.2 15.1 35.2 14.9C35.4 14.3 35.4 13.7 35.4 13.1C35.4 9.4 32.4 6.4 28.7 6.4C28.1 6.4 27.6 6.5 27 6.6C26.8 6.5 26.7 6.4 26.5 6.4C26.4 2.9 23.5 0 19.9 0C16.2 0 13.3 3 13.2 6.6C12.7 6.5 12.2 6.4 11.6 6.4C8 6.5 5 9.4 5 13.1C5 13.7 5.1 14.3 5.3 14.9C5.3 14.9 5.3 15 5.2 15C2.2 15.7 0 18.4 0 21.5C0 24.6 2.2 27.3 5.2 28C5.1 28.6 5 29.2 5 29.8C5 33.5 8 36.5 11.7 36.5C12.1 36.5 12.6 36.5 13.1 36.4C15.1 37.4 17.2 37.9 19.3 38V49.6C19.3 50.2 19.7 50.6 20.3 50.6C20.9 50.6 21.3 50.2 21.3 49.6V37.9C23.5 37.8 25.5 37.2 27.5 36.3C27.9 36.4 28.4 36.4 28.8 36.4C32.5 36.4 35.5 33.4 35.5 29.7C35.5 29.2 35.4 28.6 35.3 28.1C35.4 27.9 35.4 27.8 35.5 27.6C37.8 26.6 39.4 24.2 39.4 21.6ZM34.3 26C34 26.1 33.8 26.3 33.7 26.6C33.6 27 33.4 27.3 33.3 27.7C33.2 27.9 33.2 28.2 33.3 28.4C33.4 28.9 33.5 29.3 33.5 29.8C33.5 32.8 30.7 35.1 27.6 34.3C27.4 34.2 27.1 34.3 26.9 34.4C25.1 35.3 23.2 35.8 21.3 36V33.2C21.3 32.6 20.9 32.2 20.3 32.2C19.7 32.2 19.3 32.6 19.3 33.2V36C17.4 35.9 15.4 35.4 13.7 34.4C13.6 34.3 13.4 34.3 13.2 34.3C13.1 34.3 13 34.3 12.9 34.3C12.5 34.4 12.1 34.5 11.7 34.5C9.1 34.5 7 32.4 7 29.8C7 29.3 7.1 28.8 7.2 28.4C7.3 28.2 7.3 27.9 7.2 27.7C7.1 27.4 7 27.2 6.9 26.9C6.8 26.6 6.5 26.3 6.1 26.3C3.8 26 2.1 24 2.1 21.7C2.1 19.4 3.8 17.4 6.1 17.1C6.5 17.1 6.8 16.8 6.9 16.5C7 16 7.1 15.7 7.2 15.4C7.3 15.2 7.3 14.9 7.2 14.6C7 14.1 6.9 13.6 6.9 13.1C6.9 10.5 9 8.4 11.6 8.4C12.1 8.4 12.6 8.5 13.1 8.6C13.3 8.7 13.6 8.7 13.9 8.6L14.1 8.5C14.3 8.4 14.5 8.3 14.7 8.2C15.1 8 15.4 7.6 15.3 7.2C15.3 7 15.3 6.8 15.3 6.6C15.3 4 17.4 1.9 20 1.9C22.6 1.9 24.7 4 24.7 6.6C24.7 6.7 24.7 6.9 24.7 7C24.7 7.4 24.9 7.9 25.4 8C25.9 8.2 26.3 8.4 26.8 8.6C27 8.7 27.3 8.7 27.6 8.7C28.1 8.5 28.6 8.5 29.1 8.5C31.7 8.5 33.8 10.6 33.8 13.2C33.8 13.7 33.7 14.2 33.5 14.7C33.4 14.9 33.4 15.2 33.5 15.5C33.7 15.9 33.8 16.3 34 16.7C34.1 17 34.3 17.2 34.6 17.3C36.5 18 37.7 19.7 37.7 21.7C37.7 23.7 36.2 25.3 34.3 26Z" fill="#133DBD"/>
</svg>
