<svg width="17" height="31" viewBox="0 0 17 31" fill="none" xmlns="http://www.w3.org/2000/svg">
    <path d="M8.02001 8.02C9.95853 8.02 11.53 6.44852 11.53 4.51C11.53 2.57148 9.95853 1 8.02001 1C6.08149 1 4.51001 2.57148 4.51001 4.51C4.51001 6.44852 6.08149 8.02 8.02001 8.02Z" fill="white"/>
    <path d="M8.02 8.31006C4.14 8.31006 1 11.4601 1 15.3401C1 19.2201 4.14 22.3601 8.02 22.3601C11.9 22.3601 15.04 19.2201 15.04 15.3401C15.04 11.4601 11.9 8.31006 8.02 8.31006Z" fill="white"/>
    <path d="M16.04 15.34C16.04 11.96 13.94 9.07 10.98 7.89C11.92 7.06 12.53 5.86 12.53 4.51C12.53 2.02 10.51 0 8.02 0C5.53 0 3.51 2.02 3.51 4.51C3.51 5.86 4.12 7.06 5.06 7.89C2.1 9.07 0 11.96 0 15.34C0 19.42 3.07 22.8 7.02 23.29V30.84H9.02V23.29C12.97 22.79 16.04 19.42 16.04 15.34ZM8.02 2C9.4 2 10.53 3.13 10.53 4.51C10.53 5.89 9.41 7.02 8.02 7.02C6.63 7.02 5.51 5.9 5.51 4.51C5.51 3.12 6.64 2 8.02 2ZM8.02 21.36C4.7 21.36 2 18.66 2 15.34C2 12.02 4.7 9.32 8.02 9.32C11.34 9.32 14.04 12.02 14.04 15.34C14.04 18.66 11.34 21.36 8.02 21.36Z" fill="#133DBD"/>
</svg>
