<svg width="32" height="43" viewBox="0 0 32 43" fill="none" xmlns="http://www.w3.org/2000/svg">
    <path d="M15.53 31.06C24.107 31.06 31.06 24.107 31.06 15.53C31.06 6.95302 24.107 0 15.53 0C6.95302 0 0 6.95302 0 15.53C0 24.107 6.95302 31.06 15.53 31.06Z" fill="#65D78D"/>
    <path d="M20.22 22.94C19.75 22.65 19.13 22.79 18.84 23.26L16.43 27.11V11.46C16.43 10.91 15.98 10.46 15.43 10.46C14.88 10.46 14.43 10.91 14.43 11.46V17.94L11.12 14.81C10.72 14.43 10.09 14.45 9.71 14.85C9.33 15.25 9.35001 15.88 9.75001 16.26L14.43 20.7V41.9799C14.43 42.5299 14.88 42.9799 15.43 42.9799C15.98 42.9799 16.43 42.5299 16.43 41.9799V30.72C16.54 30.64 16.64 30.55 16.71 30.43L20.53 24.32C20.83 23.85 20.69 23.23 20.22 22.94Z" fill="#133DBD"/>
</svg>
