<svg width="41" height="55" viewBox="0 0 41 55" fill="none" xmlns="http://www.w3.org/2000/svg">
    <path d="M40.28 19.14C40.28 12.44 34.85 7 28.14 7C26.83 7 25.57 7.21001 24.39 7.60001C22.59 3.15001 18.24 0 13.14 0C6.43998 0 1 5.43001 1 12.14C1 15.48 2.35 18.5 4.53 20.69C1.77 22.91 0 26.32 0 30.14C0 36.84 5.42998 42.28 12.14 42.28C14.36 42.28 16.44 41.67 18.24 40.63C19.47 41.05 20.78 41.28 22.14 41.28C28.68 41.28 34 36.1 34.25 29.62C37.85 27.51 40.28 23.61 40.28 19.14Z" fill="#65D78D"/>
    <path d="M22.83 34.7001C22.36 34.4101 21.74 34.5501 21.45 35.0201L19.04 38.8701V15.0701C19.04 14.5201 18.59 14.0701 18.04 14.0701C17.49 14.0701 17.04 14.5201 17.04 15.0701V29.5501L13.73 26.4201C13.33 26.0401 12.7 26.0601 12.32 26.4601C11.94 26.8601 11.96 27.4901 12.36 27.8701L17.04 32.3101V53.5901C17.04 54.1401 17.49 54.5901 18.04 54.5901C18.59 54.5901 19.04 54.1401 19.04 53.5901V42.4801C19.15 42.4001 19.25 42.3101 19.32 42.1901L23.14 36.0801C23.44 35.6101 23.3 34.9901 22.83 34.7001Z" fill="#133DBD"/>
</svg>
