<svg width="53" height="53" viewBox="0 0 53 53" fill="none" xmlns="http://www.w3.org/2000/svg">
    <path d="M39.01 1.77C38.04 1.77 37.09 1.87 36.17 2.07C34.08 0.76 31.61 0 28.96 0C24.56 0 20.66 2.09 18.17 5.33C18.02 5.33 17.88 5.32 17.73 5.32C7.94 5.32 0 13.26 0 23.05C0 32.84 7.94 40.78 17.73 40.78C25.71 40.78 32.46 35.51 34.68 28.26C36.04 28.72 37.49 28.97 39 28.97C46.51 28.97 52.59 22.89 52.59 15.38C52.59 7.87 46.51 1.77 39.01 1.77Z" fill="#65D78D"/>
    <path d="M41.53 14.69C41.16 14.28 40.53 14.24 40.12 14.61L39.33 15.31L39.99 12.01C40.1 11.47 39.75 10.94 39.21 10.83C38.67 10.72 38.14 11.07 38.03 11.61L36.85 17.51L29.37 24.15V13.54C29.37 12.99 28.92 12.54 28.37 12.54C27.82 12.54 27.37 12.99 27.37 13.54V30.54L19.77 23.45L22.56 20.81C22.96 20.43 22.98 19.8 22.6 19.4C22.22 19 21.59 18.98 21.19 19.36L18.31 22.09L16.65 20.54C16.24 20.16 15.61 20.19 15.24 20.59C14.86 20.99 14.89 21.63 15.29 22L17.45 24.02L11.98 23.24C11.43 23.16 10.93 23.54 10.85 24.09C10.77 24.64 11.15 25.14 11.7 25.22L19.97 26.4C19.98 26.4 19.99 26.4 20.01 26.4L27.39 33.28V52C27.39 52.55 27.84 53 28.39 53C28.94 53 29.39 52.55 29.39 52V26.83L34 22.73C34.04 22.73 34.07 22.73 34.11 22.72L40 21.33C40.54 21.2 40.87 20.66 40.74 20.13C40.61 19.59 40.07 19.26 39.54 19.39L37.13 19.96L41.47 16.11C41.86 15.74 41.9 15.11 41.53 14.69Z" fill="#133DBD"/>
</svg>
