<svg width="30" height="58" viewBox="0 0 30 58" fill="none" xmlns="http://www.w3.org/2000/svg">
    <path d="M14.908 29.9C15.408 32.2 13.908 34.6 13.908 34.6C13.908 34.6 11.508 33.1 11.008 30.8C10.508 28.5 12.008 26.1 12.008 26.1C12.008 26.1 14.408 27.5 14.908 29.9Z" fill="white"/>
    <path d="M23.1081 31.2C23.1081 29 22.5081 26.9 21.2081 25.1C22.4081 23.3 23.1081 21.2 23.1081 19C23.1081 16.6 22.3081 14.3 20.9081 12.3C21.2081 11.3 21.4081 10.3 21.4081 9.3C21.4081 4.2 17.2081 0 12.0081 0C6.80806 0 2.70806 4.2 2.70806 9.4C2.70806 10.4 2.90806 11.4 3.20806 12.4C1.80806 14.3 1.00806 16.7 1.00806 19.1C1.00806 21.3 1.60806 23.4 2.90806 25.2C1.70806 27 1.00806 29.1 1.00806 31.3C1.00806 37.1 5.40806 41.8 11.1081 42.3V57C11.1081 57.5 11.5081 57.9 12.1081 57.9C12.7081 57.9 13.1081 57.5 13.1081 57V42.3C18.7081 41.8 23.1081 37 23.1081 31.2ZM12.0081 40.3C7.00806 40.3 2.90806 36.2 2.90806 31.2C2.90806 29.2 3.60806 27.3 4.80806 25.7C5.10806 25.3 5.10806 24.8 4.80806 24.5C3.60806 22.9 2.90806 21 2.90806 19C2.90806 16.9 3.70806 14.8 5.00806 13.2C5.20806 12.9 5.30806 12.5 5.20806 12.2C4.80806 11.3 4.70806 10.4 4.70806 9.4C4.70806 5.3 8.00806 2 12.0081 2C16.0081 2 19.4081 5.3 19.4081 9.4C19.4081 10.3 19.2081 11.3 18.9081 12.2C18.8081 12.5 18.8081 12.9 19.1081 13.2C20.5081 14.8 21.2081 16.9 21.2081 19C21.2081 21 20.5081 22.9 19.3081 24.5C19.0081 24.9 19.0081 25.4 19.3081 25.7C20.5081 27.3 21.2081 29.2 21.2081 31.2C21.1081 36.2 17.0081 40.3 12.0081 40.3Z" fill="#133DBD"/>
    <path d="M29.108 37.2C27.708 34.8 24.708 34 24.608 34C24.108 33.9 23.508 34.2 23.408 34.7C23.408 34.8 22.508 37.8 24.008 40.2C25.408 42.6 28.408 43.4 28.508 43.4C28.608 43.4 28.708 43.4 28.708 43.4C29.108 43.4 29.508 43.1 29.708 42.7C29.708 42.6 30.508 39.6 29.108 37.2ZM27.908 41.1C27.208 40.8 26.208 40.2 25.608 39.2C25.008 38.2 25.008 37.1 25.108 36.3C25.808 36.6 26.808 37.2 27.408 38.2C28.008 39.2 28.008 40.2 27.908 41.1Z" fill="#133DBD"/>
    <path d="M6.30808 43C6.20808 43 3.10808 43.4 1.40808 45.6C-0.391919 47.8 0.00808075 50.9 0.108081 51C0.208081 51.5 0.608081 51.9 1.10808 51.9H1.20808C1.30808 51.9 4.40808 51.5 6.10808 49.3C7.80808 47.1 7.40808 44 7.40808 43.9C7.30808 43.4 6.80808 43 6.30808 43ZM4.50808 48.1C3.80808 49 2.80808 49.4 2.00808 49.7C2.00808 48.9 2.20808 47.8 2.90808 46.9C3.60808 46 4.60808 45.6 5.40808 45.3C5.40808 46.1 5.20808 47.2 4.50808 48.1Z" fill="#133DBD"/>
    <path d="M12.608 25.2C12.108 24.9 11.508 25 11.208 25.5C11.108 25.6 9.40804 28.2 10.008 30.9C10.608 33.6 13.208 35.3 13.308 35.4C13.508 35.5 13.608 35.6 13.808 35.6C14.108 35.6 14.408 35.4 14.608 35.2C14.708 35.1 16.408 32.5 15.808 29.8C15.308 27 12.708 25.3 12.608 25.2ZM13.608 33C13.008 32.4 12.308 31.6 12.008 30.5C11.808 29.4 12.108 28.3 12.408 27.6C13.008 28.2 13.708 29 14.008 30.1C14.308 31.2 13.908 32.3 13.608 33Z" fill="#133DBD"/>
</svg>
