<svg width="45" height="52" viewBox="0 0 45 52" fill="none" xmlns="http://www.w3.org/2000/svg">
    <path d="M34.41 8.04999C33.58 8.04999 32.79 8.17 32.03 8.37C30.51 4.06999 26.42 0.98999 21.6 0.98999C16.87 0.98999 12.85 3.95 11.26 8.12C10.88 8.06999 10.5 8.03999 10.11 8.03999C5.08002 8.03999 1 12.12 1 17.15C1 22.18 5.08002 26.26 10.11 26.26C13.2 26.26 15.92 24.72 17.57 22.37C18.82 22.86 20.18 23.14 21.6 23.14C23.42 23.14 25.14 22.69 26.66 21.91C28.26 24.51 31.13 26.26 34.41 26.26C39.44 26.26 43.52 22.18 43.52 17.15C43.52 12.13 39.44 8.04999 34.41 8.04999Z" fill="white"/>
    <path d="M34.41 7.04999C33.83 7.04999 33.24 7.09999 32.64 7.20999C30.72 2.85999 26.39 0 21.6 0C16.89 0 12.57 2.80999 10.62 7.06999C10.44 7.05999 10.27 7.04999 10.11 7.04999C4.53002 7.04999 0 11.59 0 17.16C0 22.73 4.54002 27.27 10.11 27.27C11.8 27.27 13.44 26.83 14.89 26.04L20.5 30.45V51.7H22.5V30.08L27.61 24.62C29.45 26.31 31.84 27.28 34.42 27.28C40 27.28 44.53 22.74 44.53 17.17C44.53 11.6 39.99 7.04999 34.41 7.04999ZM16.62 24.87C17.08 24.48 17.52 24.05 17.92 23.58C18.77 23.85 19.63 24.02 20.5 24.1V27.92L16.62 24.87ZM22.5 24.11C23.74 24.02 24.97 23.73 26.14 23.26L22.5 27.15V24.11ZM34.41 25.28C31.58 25.28 29 23.83 27.51 21.41L27.02 20.62L26.2 21.04C23.64 22.36 20.65 22.52 17.93 21.46L17.2 21.17L16.75 21.81C15.23 23.98 12.75 25.27 10.11 25.27C5.64002 25.27 2 21.63 2 17.16C2 12.69 5.64002 9.04999 10.11 9.04999C10.42 9.04999 10.74 9.06999 11.13 9.12L11.91 9.21999L12.19 8.48999C13.67 4.60999 17.45 2 21.6 2C25.85 2 29.66 4.69999 31.09 8.70999L31.4 9.57999L32.29 9.34C33 9.15 33.72 9.04999 34.41 9.04999C38.88 9.04999 42.52 12.69 42.52 17.16C42.52 21.63 38.88 25.28 34.41 25.28Z" fill="#133DBD"/>
</svg>
