<svg width="32" height="54" viewBox="0 0 32 54" fill="none" xmlns="http://www.w3.org/2000/svg">
    <path d="M30.6385 42.0275L24.1585 29.0475H29.4385L21.5485 15.8775H29.4385L15.8085 0.987549L2.1785 15.8775H10.0685L2.1785 29.0475H7.44852L0.978516 42.0275H30.6385Z" fill="#65D78D"/>
    <path d="M31.5285 41.5875L25.7785 30.0475H29.4385C29.7985 30.0475 30.1285 29.8575 30.3085 29.5375C30.4885 29.2175 30.4785 28.8375 30.2985 28.5275L23.3185 16.8675H29.4485C29.8485 16.8675 30.2085 16.6375 30.3685 16.2675C30.5285 15.9075 30.4585 15.4775 30.1885 15.1875L16.5485 0.3075C16.1685 -0.1025 15.4485 -0.1025 15.0785 0.3075L1.4485 15.1975C1.1785 15.4875 1.10847 15.9075 1.26847 16.2775C1.42847 16.6375 1.78849 16.8775 2.18849 16.8775H8.31849L1.33848 28.5375C1.14848 28.8475 1.1485 29.2275 1.3285 29.5475C1.5085 29.8675 1.8385 30.0575 2.1985 30.0575H5.8585L0.1085 41.5975C-0.0514995 41.9075 -0.0315215 42.2775 0.148479 42.5675C0.328479 42.8575 0.648485 43.0375 0.998485 43.0375H14.8285V53.1775H16.8285V43.0275H30.6585C31.0085 43.0275 31.3285 42.8475 31.5085 42.5575C31.6685 42.2675 31.6785 41.8975 31.5285 41.5875ZM15.8085 2.4675L27.1685 14.8775H21.5485H10.0685H4.4485L15.8085 2.4675ZM10.6385 16.8775H20.9785L27.6685 28.0475H24.1585H7.4485H3.93849L10.6385 16.8775ZM2.59849 41.0275L8.06849 30.0475H23.5385L29.0085 41.0275H2.59849Z" fill="#133DBD"/>
</svg>
