<svg width="47" height="102" viewBox="0 0 47 102" fill="none" xmlns="http://www.w3.org/2000/svg">
    <g clip-path="url(#clip0_1_5891)">
        <path d="M36 46H10L7 101H40L36 46Z" fill="white"/>
        <path d="M46 40L36 46H10L1 40V1H46V40Z" fill="white"/>
        <path d="M35.5 93H31.5V101H35.5V93Z" fill="#315ED1"/>
        <path d="M9.5 15H5.5V35H9.5V15Z" fill="#EBF0F6"/>
        <path d="M27.5 15H19.5V35H27.5V15Z" fill="#EBF0F6"/>
        <path d="M41.5 15H37.5V35H41.5V15Z" fill="#EBF0F6"/>
        <path d="M46 0H1C0.4 0 0 0.4 0 1V40C0 40.3 0.2 40.6 0.4 40.8L9 46.5L6 100.9C6 101.2 6.1 101.4 6.3 101.6C6.5 101.8 6.7 102 7 102H31.5H35.5H40C40.3 102 40.5 101.9 40.7 101.7C40.9 101.5 41 101.2 41 100.9L37 46.5L46.5 40.8C46.8 40.6 47 40.3 47 39.9V1C47 0.4 46.6 0 46 0ZM34.5 100H32.5V94H34.5V100ZM38.9 100H36.5V93C36.5 92.4 36.1 92 35.5 92H31.5C30.9 92 30.5 92.4 30.5 93V100H8.1L11 47H35.1L38.9 100ZM45 39.4L35.7 45H10.3L2 39.5V12H45V39.4ZM45 10H2V2H45V10Z" fill="#133DBD"/>
        <path d="M5.5 36H9.5C10.1 36 10.5 35.6 10.5 35V15C10.5 14.4 10.1 14 9.5 14H5.5C4.9 14 4.5 14.4 4.5 15V35C4.5 35.6 4.9 36 5.5 36ZM6.5 16H8.5V34H6.5V16Z" fill="#133DBD"/>
        <path d="M19.5 36H27.5C28.1 36 28.5 35.6 28.5 35V15C28.5 14.4 28.1 14 27.5 14H19.5C18.9 14 18.5 14.4 18.5 15V35C18.5 35.6 18.9 36 19.5 36ZM20.5 16H26.5V34H20.5V16Z" fill="#133DBD"/>
        <path d="M37.5 36H41.5C42.1 36 42.5 35.6 42.5 35V15C42.5 14.4 42.1 14 41.5 14H37.5C36.9 14 36.5 14.4 36.5 15V35C36.5 35.6 36.9 36 37.5 36ZM38.5 16H40.5V34H38.5V16Z" fill="#133DBD"/>
        <path d="M16.9 46H10L7 101H10" fill="#C4D3E4"/>
        <path d="M10 102H7C6.7 102 6.5 101.9 6.3 101.7C6.1 101.5 6 101.2 6 100.9L9 45.9C9 45.4 9.5 45 10 45H16.9C17.5 45 17.9 45.4 17.9 46C17.9 46.6 17.5 47 16.9 47H11L8.1 100H10C10.6 100 11 100.4 11 101C11 101.6 10.5 102 10 102Z" fill="#133DBD"/>
    </g>
    <defs>
        <clipPath id="clip0_1_5891">
            <rect width="47" height="102" fill="white"/>
        </clipPath>
    </defs>
</svg>
