<svg width="70" height="41" viewBox="0 0 70 41" fill="none" xmlns="http://www.w3.org/2000/svg">
    <path fill-rule="evenodd" clip-rule="evenodd" d="M4.66333 39.8922H19.9785V27.9754H4.66333V39.8922ZM60.6643 18.8133H58.6442V22.9847H55.5178V9.81384H51.6491V14.3589H46.6032V22.9847H43.4778V28.6636H37.5959V39.6072H66.5916V18.8133H60.6643Z" fill="#EBF0F6"/>
    <path fill-rule="evenodd" clip-rule="evenodd" d="M34.6392 20.3187L37.1325 27.089L36.7135 39.0294L44.5989 39.6644L46.6614 37.5022V24.3393L38.5463 18.1694L34.6392 20.3187ZM58.8059 39.8921H68.4097H58.8069H58.8059Z" fill="white"/>
    <path d="M58.8059 39.8921H68.4087" stroke="#133DBD" stroke-width="1.66423" stroke-linecap="round"/>
    <path fill-rule="evenodd" clip-rule="evenodd" d="M28.7898 39.6644H36.7136V26.8031H28.7898V39.6644Z" fill="#65D78D"/>
    <path fill-rule="evenodd" clip-rule="evenodd" d="M46.6624 37.5022C46.6624 38.5838 45.8757 39.6643 44.5979 39.6643H37.1326V27.09H29.47V39.6634H22.1023C21.0217 39.6634 19.9412 38.779 19.9412 37.5012V24.2407L31.7298 15.3014L33.3013 14.2208L34.7752 15.3014L46.6624 24.3393V37.5022Z" stroke="#133DBD" stroke-width="1.99648" stroke-linecap="round"/>
    <path fill-rule="evenodd" clip-rule="evenodd" d="M7.44175 16.527C7.49486 14.0965 8.19895 11.7248 9.48062 9.65908C7.00893 11.2513 5.18006 13.6994 4.41006 16.527H7.44175ZM20.9784 16.527C20.9272 15.1541 20.6039 13.8051 20.0271 12.5582C19.4503 11.3114 18.6315 10.1915 17.6184 9.26373V16.527H20.9784ZM27.4203 16.527C26.6503 13.6984 24.8205 11.2504 22.3478 9.6581C23.6293 11.7242 24.3334 14.0962 24.3867 16.527H27.4203ZM14.212 16.528V9.26472C13.1985 10.1923 12.3794 11.3121 11.8025 12.559C11.2255 13.8059 10.9021 15.155 10.851 16.528H14.213H14.212ZM19.9786 34.8335C18.4496 34.8316 16.9838 34.2234 15.9027 33.1421C14.8216 32.0608 14.2136 30.5949 14.212 29.0658V19.9323H2.37119C2.13362 19.932 1.89873 19.8821 1.68156 19.7858C1.46439 19.6895 1.26972 19.5489 1.11 19.3731C0.950282 19.1972 0.829042 18.9899 0.754037 18.7645C0.679033 18.5391 0.651917 18.3005 0.674425 18.064C1.38921 10.8589 7.03752 5.22246 14.212 4.44063V3.32951C14.212 2.39092 14.9751 1.62683 15.9147 1.62683C16.3662 1.62735 16.7991 1.80688 17.1185 2.12605C17.4378 2.44522 17.6176 2.878 17.6184 3.32951V4.44063C24.7919 5.22246 30.4392 10.8589 31.155 18.063C31.1804 18.3135 31.1495 18.5665 31.0648 18.8036C30.98 19.0407 30.8434 19.2558 30.665 19.4334C30.3446 19.7549 29.9157 19.9323 29.4612 19.9323H17.6184V29.0658C17.6204 29.6914 17.8699 30.2906 18.3123 30.7329C18.7547 31.1751 19.3541 31.4243 19.9796 31.4261C20.605 31.4238 21.204 31.1742 21.646 30.7318C22.088 30.2894 22.3371 29.6902 22.3389 29.0649C22.3498 28.6202 22.534 28.1975 22.8523 27.8869C23.1707 27.5763 23.5978 27.4025 24.0426 27.4027C24.4873 27.4028 24.9144 27.5768 25.2325 27.8876C25.5507 28.1984 25.7347 28.6212 25.7453 29.0658C25.7437 30.5949 25.1357 32.0608 24.0546 33.1421C22.9735 34.2234 21.5077 34.8316 19.9786 34.8335Z" fill="#133DBD"/>
    <mask id="mask0_1_2354" style="mask-type:alpha" maskUnits="userSpaceOnUse" x="0" y="0" width="32" height="36">
        <path d="M0 0.961304H31.8283V35.4989H0V0.961304Z" fill="white"/>
    </mask>
    <g mask="url(#mask0_1_2354)">
        <path fill-rule="evenodd" clip-rule="evenodd" d="M5.31814 15.8614C5.81659 14.4895 6.57892 13.2284 7.56209 12.1495C7.14651 13.3478 6.89221 14.5961 6.80589 15.8614H5.31716H5.31814ZM25.0226 15.8614C24.9375 14.5954 24.6839 13.3464 24.2684 12.1475C25.2514 13.2275 26.014 14.4891 26.5134 15.8614H25.0226ZM11.5629 15.8624C11.744 14.069 12.4321 12.3643 13.5466 10.9476V15.8624H11.5629ZM18.2839 15.8614V10.9476C19.3981 12.3641 20.0861 14.0684 20.2676 15.8614H18.2839ZM15.9148 0.961304C15.2868 0.962087 14.6847 1.21198 14.2407 1.65614C13.7968 2.1003 13.5471 2.70245 13.5466 3.33046V3.85497C6.34349 4.90891 0.739551 10.6775 0.00997309 17.9969C-0.0217467 18.3261 0.0156335 18.6582 0.119719 18.972C0.223804 19.2859 0.392299 19.5745 0.614409 19.8194C0.836519 20.0644 1.10734 20.2602 1.40954 20.3944C1.71173 20.5286 2.03862 20.5982 2.36927 20.5988H13.5466V29.0658C13.5484 30.7712 14.2266 32.4063 15.4325 33.6123C16.6383 34.8184 18.2733 35.4968 19.9787 35.4989C21.6841 35.4968 23.3191 34.8184 24.5249 33.6123C25.7308 32.4063 26.409 30.7712 26.4108 29.0658C26.41 28.4378 26.1601 27.8358 25.716 27.3918C25.2718 26.9478 24.6697 26.6982 24.0417 26.6976C23.4138 26.6984 22.8119 26.9482 22.368 27.3921C21.924 27.8361 21.6743 28.438 21.6735 29.0658C21.6719 29.5152 21.4926 29.9458 21.1747 30.2635C20.8568 30.5812 20.4262 30.7603 19.9767 30.7616C19.5278 30.7592 19.098 30.5796 18.7809 30.2618C18.4639 29.944 18.2852 29.5138 18.2839 29.0648V20.5988H29.4593C29.7709 20.5994 30.0795 20.5382 30.3673 20.4185C30.655 20.2988 30.9161 20.1232 31.1353 19.9017C31.3832 19.6549 31.5729 19.356 31.6907 19.0267C31.8086 18.6974 31.8516 18.3459 31.8166 17.9979C31.089 10.6775 25.486 4.90891 18.2829 3.85497V3.33046C18.2824 2.70245 18.0328 2.1003 17.5888 1.65614C17.1448 1.21198 16.5428 0.962087 15.9148 0.961304ZM10.1807 17.1934H14.8776V7.87553C11.9484 9.94201 10.1807 13.2517 10.1807 16.876V17.1934ZM16.9529 17.1924H21.6498V16.876C21.6498 13.2517 19.8821 9.94201 16.9529 7.87454V17.1914V17.1924ZM11.7769 7.79666C7.64983 9.25877 4.4318 12.8189 3.5711 17.1924H8.10434V16.876C8.09911 13.4869 9.41636 10.2295 11.7759 7.79666H11.7779H11.7769ZM23.7252 17.1924H28.2604C27.3977 12.8189 24.1807 9.2568 20.0536 7.79666C22.413 10.2296 23.7302 13.4869 23.7252 16.876V17.1914V17.1924ZM15.9148 2.29229C16.4876 2.29229 16.9529 2.75666 16.9529 3.33046V5.0499H16.9519C24.0476 5.5399 29.7836 10.991 30.4935 18.1281C30.5077 18.2723 30.4915 18.4178 30.446 18.5554C30.4005 18.693 30.3268 18.8195 30.2294 18.9269C30.1321 19.0343 30.0134 19.12 29.8809 19.1788C29.7485 19.2375 29.6052 19.2678 29.4603 19.2678H16.9529V29.0658C16.9537 29.8681 17.2727 30.6374 17.84 31.2048C18.4072 31.7723 19.1764 32.0915 19.9787 32.0926C20.781 32.0915 21.5502 31.7723 22.1174 31.2048C22.6847 30.6374 23.0037 29.8681 23.0045 29.0658C23.0045 28.7906 23.1138 28.5267 23.3084 28.3321C23.503 28.1375 23.7669 28.0281 24.0422 28.0281C24.3174 28.0281 24.5813 28.1375 24.7759 28.3321C24.9705 28.5267 25.0798 28.7906 25.0798 29.0658C25.0785 30.4184 24.5407 31.7152 23.5844 32.6718C22.628 33.6283 21.3313 34.1664 19.9787 34.1679C18.6261 34.1664 17.3294 33.6283 16.373 32.6718C15.4167 31.7152 14.8789 30.4184 14.8776 29.0658V19.2678H2.37025C2.22527 19.2679 2.08186 19.2377 1.94927 19.1791C1.81667 19.1204 1.69784 19.0346 1.60041 18.9273C1.50297 18.8199 1.42911 18.6933 1.38358 18.5557C1.33805 18.418 1.32185 18.2724 1.33603 18.1281C2.04589 10.99 7.78293 5.5399 14.8776 5.0499V3.33046C14.8776 2.75666 15.3419 2.29229 15.9148 2.29229Z" fill="white"/>
    </g>
    <path d="M2.9292 39.8921H54.4344" stroke="#133DBD" stroke-width="1.66423" stroke-linecap="round"/>
</svg>
