<svg width="139" height="131" viewBox="0 0 139 131" xmlns="http://www.w3.org/2000/svg">
    <g clip-path="url(#clip0_1_6044)">
        <path d="M100.195 76.6578C99.2345 76.6578 98.3062 76.6896 97.3459 76.7532C88.7669 60.2668 71.4809 49 51.5379 49C23.08 49 0 71.9473 0 100.242C0 110.84 3.87335 121.82 9.44328 130C34.8921 130 110.438 129.905 134.575 129.905C136.784 125.13 138 119.847 138 114.246C138 93.4943 121.066 76.6578 100.195 76.6578Z" fill="#EBF0F6"/>
        <path d="M86.4219 49.0181V44.782H75.4171V49.0181H66.9561V57.479H69.4999V68.4838H44.106V76.9448H46.6498V129.414H69.4999H92.3501V57.479H94.8829V49.0181H86.4219Z" fill="white"/>
        <path d="M50.4545 63.8275H47.0701V68.0635H50.4545V63.8275Z" fill="white"/>
        <path d="M63.5717 106.564H52.5669V129.414H63.5717V106.564Z" fill="#C4D3E4"/>
        <path d="M78.3812 74.8213H74.1451V81.5901H78.3812V74.8213Z" fill="#C4D3E4"/>
        <path d="M74.1452 70.4304H78.3812C78.9895 70.4304 79.4872 69.9327 79.4872 69.3243V62.5556C79.4872 61.9473 78.9895 61.4496 78.3812 61.4496H74.1452C73.5369 61.4496 73.0392 61.9473 73.0392 62.5556V69.3243C73.0392 69.9327 73.5369 70.4304 74.1452 70.4304ZM75.2512 63.6616H77.2752V68.2183H75.2512V63.6616Z" fill="#0022CD"/>
        <path d="M82.6174 70.4304H86.8534C87.4617 70.4304 87.9594 69.9327 87.9594 69.3243V62.5556C87.9594 61.9473 87.4617 61.4496 86.8534 61.4496H82.6174C82.0091 61.4496 81.5114 61.9473 81.5114 62.5556V69.3243C81.5114 69.9327 81.998 70.4304 82.6174 70.4304ZM83.7234 63.6616H85.7474V68.2183H83.7234V63.6616Z" fill="#0022CD"/>
        <path d="M74.1452 82.7072H78.3812C78.9895 82.7072 79.4872 82.2095 79.4872 81.6012V74.8324C79.4872 74.2241 78.9895 73.7264 78.3812 73.7264H74.1452C73.5369 73.7264 73.0392 74.2241 73.0392 74.8324V81.6012C73.0392 82.2095 73.5369 82.7072 74.1452 82.7072ZM75.2512 75.9273H77.2752V80.4841H75.2512V75.9273Z" fill="#0022CD"/>
        <path d="M82.6174 82.7072H86.8534C87.4617 82.7072 87.9594 82.2095 87.9594 81.6012V74.8324C87.9594 74.2241 87.4617 73.7264 86.8534 73.7264H82.6174C82.0091 73.7264 81.5114 74.2241 81.5114 74.8324V81.6012C81.5114 82.2095 81.998 82.7072 82.6174 82.7072ZM83.7234 75.9273H85.7474V80.4841H83.7234V75.9273Z" fill="#0022CD"/>
        <path d="M74.1452 94.9728H78.3812C78.9895 94.9728 79.4872 94.4751 79.4872 93.8668V87.098C79.4872 86.4897 78.9895 85.992 78.3812 85.992H74.1452C73.5369 85.992 73.0392 86.4897 73.0392 87.098V93.8668C73.0392 94.4751 73.5369 94.9728 74.1452 94.9728ZM75.2512 88.204H77.2752V92.7608H75.2512V88.204Z" fill="#0022CD"/>
        <path d="M82.6174 94.9728H86.8534C87.4617 94.9728 87.9594 94.4751 87.9594 93.8668V87.098C87.9594 86.4897 87.4617 85.992 86.8534 85.992H82.6174C82.0091 85.992 81.5114 86.4897 81.5114 87.098V93.8668C81.5114 94.4751 81.998 94.9728 82.6174 94.9728ZM83.7234 88.204H85.7474V92.7608H83.7234V88.204Z" fill="#0022CD"/>
        <path d="M74.1452 107.249H78.3812C78.9895 107.249 79.4872 106.752 79.4872 106.143V99.3747C79.4872 98.7664 78.9895 98.2687 78.3812 98.2687H74.1452C73.5369 98.2687 73.0392 98.7664 73.0392 99.3747V106.143C73.0392 106.752 73.5369 107.249 74.1452 107.249ZM75.2512 100.481H77.2752V105.037H75.2512V100.481Z" fill="#0022CD"/>
        <path d="M82.6174 107.249H86.8534C87.4617 107.249 87.9594 106.752 87.9594 106.143V99.3747C87.9594 98.7664 87.4617 98.2687 86.8534 98.2687H82.6174C82.0091 98.2687 81.5114 98.7664 81.5114 99.3747V106.143C81.5114 106.752 81.998 107.249 82.6174 107.249ZM83.7234 100.481H85.7474V105.037H83.7234V100.481Z" fill="#0022CD"/>
        <path d="M74.1452 119.515H78.3812C78.9895 119.515 79.4872 119.017 79.4872 118.409V111.64C79.4872 111.032 78.9895 110.534 78.3812 110.534H74.1452C73.5369 110.534 73.0392 111.032 73.0392 111.64V118.409C73.0392 119.017 73.5369 119.515 74.1452 119.515ZM75.2512 112.746H77.2752V117.303H75.2512V112.746Z" fill="#0022CD"/>
        <path d="M82.6174 119.515H86.8534C87.4617 119.515 87.9594 119.017 87.9594 118.409V111.64C87.9594 111.032 87.4617 110.534 86.8534 110.534H82.6174C82.0091 110.534 81.5114 111.032 81.5114 111.64V118.409C81.5114 119.017 81.998 119.515 82.6174 119.515ZM83.7234 112.746H85.7474V117.303H83.7234V112.746Z" fill="#0022CD"/>
        <path d="M94.8829 47.9121H87.528V44.7821C87.528 44.1738 87.0303 43.6761 86.422 43.6761H75.4172C74.8088 43.6761 74.3111 44.1738 74.3111 44.7821V47.9121H66.9562C66.3479 47.9121 65.8502 48.4098 65.8502 49.0181V57.4791C65.8502 58.0874 66.3479 58.5851 66.9562 58.5851H68.394V67.3779H51.5605V63.8276C51.5605 63.2193 51.0628 62.7216 50.4545 62.7216H47.0701C46.4618 62.7216 45.9641 63.2193 45.9641 63.8276V67.3779H44.106C43.4977 67.3779 43 67.8756 43 68.4839V76.9449C43 77.5532 43.4977 78.0509 44.106 78.0509H45.5328V129.414C45.5328 130.022 46.0305 130.52 46.6388 130.52H52.567H63.5718H69.5H92.3502C92.9585 130.52 93.4562 130.022 93.4562 129.414V58.5851H94.894C95.5023 58.5851 96 58.0874 96 57.4791V49.0181C95.9889 48.3987 95.4912 47.9121 94.8829 47.9121ZM48.1761 64.9336H49.3485V66.9576H48.1761V64.9336ZM62.4658 128.308H53.673V107.67H62.4658V128.308ZM68.394 128.308H64.6778V106.564C64.6778 105.956 64.1801 105.458 63.5718 105.458H52.567C51.9587 105.458 51.461 105.956 51.461 106.564V128.308H47.7448V78.0509H68.3829V128.308H68.394ZM68.394 75.8389H46.6388H45.212V69.5899H68.394V75.8389ZM76.5232 45.8881H85.3159V47.9121H76.5232V45.8881ZM91.2442 128.308H70.606V76.9449V68.4839V58.5851H91.2442V128.308ZM93.7769 56.3731H92.3391H69.5H68.0622V50.1241H75.4172H86.422H93.7769V56.3731Z" fill="#0022CD"/>
        <path d="M28.0047 96.8416C30.7797 96.8416 33.0303 94.6244 33.0303 91.8905C33.0303 89.1567 30.7797 86.9395 28.0047 86.9395C25.2297 86.9395 22.9791 89.1567 22.9791 91.8905C22.9791 94.6244 25.2297 96.8416 28.0047 96.8416Z" fill="#CCFF69"/>
        <path d="M28.0047 97.255C22.4547 97.255 17.9631 101.68 17.9631 107.148C17.9631 112.615 22.4547 117.04 28.0047 117.04C33.5548 117.04 38.0464 112.615 38.0464 107.148C38.0464 101.68 33.5453 97.255 28.0047 97.255Z" fill="#CCFF69"/>
        <path d="M39 107.148C39 102.3 35.7482 98.1851 31.2852 96.804C32.9064 95.7518 33.9744 93.9386 33.9744 91.8905C33.9744 88.6399 31.2948 86 28.0048 86C24.7053 86 22.0256 88.6399 22.0256 91.8905C22.0256 93.9386 23.0936 95.7518 24.7148 96.804C20.2518 98.1851 17 102.3 17 107.138C17 112.794 21.4248 117.444 27.0416 117.924V128.991H28.9488V117.933C34.5752 117.454 39 112.803 39 107.148ZM28.0048 87.8884C30.2458 87.8884 32.0672 89.6828 32.0672 91.8999C32.0672 94.1077 30.2458 95.9021 28.0048 95.9021C25.7638 95.9021 23.9328 94.1077 23.9328 91.8999C23.9328 89.6922 25.7542 87.8884 28.0048 87.8884ZM28.0048 116.101C22.9983 116.101 18.9168 112.08 18.9168 107.148C18.9168 102.215 22.9983 98.1945 28.0048 98.1945C33.0113 98.1945 37.0928 102.215 37.0928 107.148C37.0928 112.08 33.0113 116.101 28.0048 116.101Z" fill="#0022CD"/>
        <path d="M0 130L149 130" stroke="#0022CD" stroke-width="2" stroke-linecap="round"/>
        <path d="M108.02 108.02C109.959 108.02 111.53 106.449 111.53 104.51C111.53 102.571 109.959 101 108.02 101C106.081 101 104.51 102.571 104.51 104.51C104.51 106.449 106.081 108.02 108.02 108.02Z" fill="white"/>
        <path d="M108.02 108.31C104.14 108.31 101 111.46 101 115.34C101 119.22 104.14 122.36 108.02 122.36C111.9 122.36 115.04 119.22 115.04 115.34C115.04 111.46 111.9 108.31 108.02 108.31Z" fill="white"/>
        <path d="M116.04 115.34C116.04 111.96 113.94 109.07 110.98 107.89C111.92 107.06 112.53 105.86 112.53 104.51C112.53 102.02 110.51 100 108.02 100C105.53 100 103.51 102.02 103.51 104.51C103.51 105.86 104.12 107.06 105.06 107.89C102.1 109.07 100 111.96 100 115.34C100 119.42 103.07 122.8 107.02 123.29V130.84H109.02V123.29C112.97 122.79 116.04 119.42 116.04 115.34ZM108.02 102C109.4 102 110.53 103.13 110.53 104.51C110.53 105.89 109.41 107.02 108.02 107.02C106.63 107.02 105.51 105.9 105.51 104.51C105.51 103.12 106.64 102 108.02 102ZM108.02 121.36C104.7 121.36 102 118.66 102 115.34C102 112.02 104.7 109.32 108.02 109.32C111.34 109.32 114.04 112.02 114.04 115.34C114.04 118.66 111.34 121.36 108.02 121.36Z" fill="#0022CD"/>
    </g>
    <defs>
        <clipPath id="clip0_1_6044">
            <rect width="139" height="131" fill="white"/>
        </clipPath>
    </defs>
</svg>