<svg width="60" height="60" viewBox="0 0 60 60" xmlns="http://www.w3.org/2000/svg">
    <g stroke="#70768C" stroke-width="2" fill="none" fill-rule="evenodd">
        <rect x="1" y="1" width="58" height="58" rx="29"/>
        <path d="M46.875 20.137c-1.24.542-2.576.917-3.973 1.088a6.965 6.965 0 003.041-3.825 13.746 13.746 0 01-4.395 1.669 6.905 6.905 0 00-5.053-2.194c-3.827 0-6.924 3.113-6.924 6.938 0 .543.061 1.066.181 1.573a19.654 19.654 0 01-14.276-7.238 6.874 6.874 0 00-.937 3.488c0 2.402 1.22 4.52 3.08 5.758a6.852 6.852 0 01-3.138-.865v.075a6.955 6.955 0 005.555 6.809 7.655 7.655 0 01-3.127.112c.885 2.754 3.439 4.76 6.47 4.817a14.001 14.001 0 01-8.6 2.944c-.56 0-1.11-.02-1.654-.094a19.573 19.573 0 0010.616 3.112c12.735 0 19.703-10.554 19.703-19.687 0-.3-.008-.6-.025-.9a14.125 14.125 0 003.456-3.58"/>
    </g>
</svg>