<svg width="132" height="133" viewBox="0 0 132 133" fill="none" xmlns="http://www.w3.org/2000/svg">
    <path d="M105.378 107.818L104.982 107.421H104.422H103.263C105.81 103.904 107.309 99.5866 107.309 94.9394C107.309 83.1591 97.7598 73.61 85.9794 73.61C74.199 73.61 64.65 83.1591 64.65 94.9394C64.65 106.72 74.199 116.269 85.9794 116.269C90.6265 116.269 94.9444 114.77 98.4613 112.223V113.382V113.942L98.8577 114.338L114.226 129.676L115.181 130.628L116.135 129.675L120.715 125.095L121.668 124.141L120.716 123.186L105.378 107.818ZM85.9794 105.43C82.7756 105.43 80.173 104.343 78.3747 102.544C76.5763 100.746 75.4886 98.1432 75.4886 94.9394C75.4886 91.7465 76.6033 89.1425 78.422 87.3386C80.2423 85.533 82.8493 84.4486 85.9794 84.4486C92.1276 84.4486 96.4367 88.7791 96.4702 94.9468C96.5037 101.089 92.1414 105.43 85.9794 105.43Z" fill="#6288B9" stroke="#0022CD" stroke-width="2.7"/>
    <path d="M100.49 94.8C100.49 102.891 93.9311 109.45 85.8401 109.45C77.7491 109.45 71.1901 102.891 71.1901 94.8C71.1901 86.709 77.7491 80.15 85.8401 80.15C93.9311 80.15 100.49 86.709 100.49 94.8Z" fill="white" stroke="#0022CD" stroke-width="2.7"/>
    <path d="M92.5514 101.508L92.6224 101.578C93.0993 101.097 93.0992 100.317 92.6225 99.8345L87.5659 94.7209L92.465 89.7665C92.9417 89.2844 92.9418 88.5042 92.4651 88.0228C91.9885 87.5391 91.2141 87.5391 90.7375 88.0228C90.7375 88.0228 90.7374 88.0228 90.7374 88.0228L85.84 92.9755L80.9427 88.0228C80.9426 88.0228 80.9426 88.0228 80.9426 88.0228C80.466 87.5391 79.6916 87.5391 79.215 88.0227C78.7382 88.5041 78.7383 89.2844 79.215 89.7665L84.1141 94.7209L79.0576 99.8345C78.5809 100.317 78.5808 101.097 79.0575 101.578C79.2954 101.82 79.6094 101.94 79.9214 101.94L90.895 101.578C91.1329 101.82 91.4468 101.94 91.7587 101.94C92.0707 101.94 92.3847 101.82 92.6226 101.578L92.5514 101.508ZM92.5514 101.508C92.333 101.73 92.0451 101.84 91.7587 101.84C91.4724 101.84 91.1844 101.73 90.9661 101.508L92.3939 89.6962L87.4253 94.7209L92.5514 99.9048C92.9896 100.348 92.9896 101.066 92.5514 101.508ZM85.84 96.4663L80.7853 101.578C80.7852 101.578 80.7852 101.578 80.7852 101.578L80.7851 101.578L80.714 101.508L85.84 96.4663ZM85.84 96.4663L90.8948 101.578L85.84 96.4663Z" fill="#0022CD" stroke="#0022CD" stroke-width="0.2"/>
    <path d="M65.9607 30.7121L96.2476 58.0992H91.9213C91.1601 58.0992 90.5397 58.7177 90.5397 59.4808V66.8728C90.5397 67.6341 91.1583 68.2544 91.9213 68.2544C92.6843 68.2544 93.3029 67.6357 93.3029 66.8728V60.8624H99.8346C100.596 60.8624 101.216 60.2438 101.216 59.4808C101.216 59.0894 101.049 58.7178 100.761 58.4558L100.761 58.4555L66.8648 27.8049C66.6033 27.5678 66.2694 27.45 65.9383 27.45C65.5971 27.45 65.2528 27.5746 64.9892 27.8258C64.9891 27.8259 64.989 27.826 64.9889 27.826L31.7393 59.2987C31.3242 59.6895 31.1936 60.2846 31.4052 60.8126C31.614 61.3427 32.1188 61.6835 32.6879 61.6835H40.4977V95.7659C40.4977 96.5272 41.1178 97.1491 41.8809 97.1491H56.7106H56.7109C57.4738 97.1473 58.0922 96.5271 58.0922 95.7644C58.0922 95.0031 57.4737 94.3828 56.7106 94.3828H43.2625V60.3003C43.2625 59.539 42.6439 58.9187 41.8809 58.9187H36.1569L65.9607 30.7121Z" fill="#0022CD" stroke="#0022CD" stroke-width="0.3"/>
    <path d="M125.362 89.5C128.349 82.18 130 74.2381 130 66C130 30.6538 101.346 2 66 2C30.6538 2 2 30.6538 2 66C2 101.346 30.6538 130 66 130C68.3619 130 70.6977 129.865 73 129.602" stroke="#C4D3E4" stroke-width="3"/>
</svg>
