<svg width="72" height="72" viewBox="0 0 72 72" fill="none" xmlns="http://www.w3.org/2000/svg">
    <path d="M46.2498 37.3797H43.5398V37.0897L11.2798 33.8697V57.9997L43.5398 61.9997V46.6097L43.6998 61.9997L60.1798 54.3797L60.1898 32.5797L46.2498 37.3797Z" fill="#65D78D"/>
    <path d="M21.98 59.1898V44.8998L30.04 45.7498V60.1898L21.98 59.1898Z" fill="white"/>
    <path d="M60.62 31.9698C60.42 31.8298 60.17 31.7898 59.94 31.8698L46.12 36.6298H44.12C44 36.4798 43.82 36.3698 43.62 36.3498L11.35 33.1298C11.14 33.1098 10.93 33.1798 10.77 33.3198C10.61 33.4598 10.52 33.6598 10.52 33.8798V57.9998C10.52 58.3798 10.8 58.6998 11.18 58.7398L43.44 62.7398C43.47 62.7398 43.5 62.7498 43.53 62.7498C43.55 62.7498 43.58 62.7398 43.6 62.7398C43.63 62.7398 43.66 62.7498 43.69 62.7498C43.8 62.7498 43.9 62.7298 44 62.6798L60.48 55.0598C60.75 54.9398 60.92 54.6698 60.92 54.3798L60.93 32.5698C60.94 32.3398 60.82 32.1098 60.62 31.9698ZM22.73 58.5298V45.7398L29.29 46.4298V59.3498L22.73 58.5298ZM42.79 61.1598L30.78 59.6698V45.7498C30.78 45.3698 30.49 45.0398 30.11 44.9998L22.05 44.1498C21.84 44.1298 21.63 44.1998 21.47 44.3398C21.31 44.4798 21.22 44.6798 21.22 44.8998V58.4798L12.02 57.3398V34.6998L42.69 37.7598L42.78 46.6798V61.1598H42.79ZM59.43 53.9098L44.44 60.8398L44.29 46.6898V37.9298L45.74 38.0798C46.24 38.1098 46.62 38.0798 47.07 37.9698L59.43 33.6398V53.9098Z" fill="#133DBD"/>
    <path d="M45.34 10.7498L27.55 14.9798L8.75 29.6998L46.08 33.5398L46.25 33.6998L8.75 29.6998V33.4398L46.25 37.3798L62.69 31.6898V28.1198L45.34 10.7498Z" fill="white"/>
    <path d="M63.41 28.0097C63.4 27.9497 63.39 27.9097 63.37 27.8497C63.35 27.7897 63.31 27.7297 63.27 27.6797C63.25 27.6497 63.24 27.6097 63.22 27.5897L45.87 10.2197C45.69 10.0397 45.42 9.9597 45.17 10.0197L27.37 14.2497C27.36 14.2497 27.36 14.2597 27.35 14.2597C27.25 14.2897 27.16 14.3297 27.08 14.3897L8.29 29.1097C8.28 29.1197 8.28 29.1297 8.27 29.1297C8.27 29.1297 8.26 29.1297 8.25 29.1397C8.24 29.1497 8.24 29.1597 8.23 29.1697C8.17 29.2297 8.13 29.2897 8.09 29.3597C8.08 29.3797 8.07 29.3997 8.06 29.4197C8.02 29.5097 8 29.5997 8 29.6997C8 29.6997 8 29.6997 8 29.7097V33.4497C8 33.8297 8.29 34.1597 8.67 34.1997L45.74 38.0897C45.77 38.1097 62.94 32.3997 62.94 32.3997C63.24 32.2897 63.44 32.0097 63.44 31.6897V28.1297C63.44 28.0797 63.42 28.0497 63.41 28.0097ZM45.1 11.5797L61.3 27.7997L46.44 32.8397L29.02 15.3997L45.1 11.5797ZM27.49 15.9797L33.43 21.9297L44.06 32.5797L10.68 29.1497L27.49 15.9797ZM45.5 36.5397L9.5 32.7597V30.5297L45.5 34.3697V36.5397ZM61.94 31.1597L47 36.4797V34.2397L51 32.8797L61.95 29.1697V31.1597H61.94Z" fill="#133DBD"/>
</svg>
