<svg width="72" height="72" viewBox="0 0 72 72" fill="none" xmlns="http://www.w3.org/2000/svg">
    <path d="M62.12 15.75H10.73C9.08 15.75 7.75 17.08 7.75 18.73V53.78C7.75 55.43 9.08 56.76 10.73 56.76H62.12C63.77 56.76 65.1 55.43 65.1 53.78V18.73C65.1 17.08 63.76 15.75 62.12 15.75Z" fill="white"/>
    <path d="M44.7701 19.63H13.0901V35.21H44.7701V19.63Z" fill="#CCFF69"/>
    <path d="M62.12 15H10.73C8.67 15 7 16.67 7 18.73V53.78C7 55.84 8.67 57.51 10.73 57.51H62.12C64.18 57.51 65.85 55.84 65.85 53.78V18.73C65.85 16.67 64.17 15 62.12 15ZM64.35 53.78C64.35 55.01 63.35 56.01 62.12 56.01H10.73C9.5 56.01 8.5 55.01 8.5 53.78V18.73C8.5 17.5 9.5 16.5 10.73 16.5H62.12C63.35 16.5 64.35 17.5 64.35 18.73V53.78Z" fill="#0022CD"/>
    <path d="M61.71 20.71H49.49C49.08 20.71 48.74 21.05 48.74 21.46C48.74 21.87 49.08 22.21 49.49 22.21H61.7C62.11 22.21 62.45 21.87 62.45 21.46C62.45 21.05 62.12 20.71 61.71 20.71Z" fill="#0022CD"/>
    <path d="M61.71 25.91H49.49C49.08 25.91 48.74 26.25 48.74 26.66C48.74 27.07 49.08 27.41 49.49 27.41H61.7C62.11 27.41 62.45 27.07 62.45 26.66C62.45 26.25 62.12 25.91 61.71 25.91Z" fill="#0022CD"/>
    <path d="M61.71 31.1H49.49C49.08 31.1 48.74 31.44 48.74 31.85C48.74 32.26 49.08 32.6 49.49 32.6H61.7C62.11 32.6 62.45 32.26 62.45 31.85C62.45 31.44 62.12 31.1 61.71 31.1Z" fill="#0022CD"/>
    <path d="M61.71 36.3H49.49C49.08 36.3 48.74 36.64 48.74 37.05C48.74 37.46 49.08 37.8 49.49 37.8H61.7C62.11 37.8 62.45 37.46 62.45 37.05C62.45 36.64 62.12 36.3 61.71 36.3Z" fill="#0022CD"/>
    <path d="M44.7601 18.88H13.0901C12.6801 18.88 12.3401 19.22 12.3401 19.63V35.21C12.3401 35.62 12.6801 35.96 13.0901 35.96H44.7601C45.1701 35.96 45.5101 35.62 45.5101 35.21V19.63C45.5101 19.21 45.1801 18.88 44.7601 18.88ZM44.0101 34.46H13.8401V20.38H44.0101V34.46Z" fill="#0022CD"/>
    <path d="M54.05 42.02H49.49C49.08 42.02 48.74 42.36 48.74 42.77V48.9C48.74 49.31 49.08 49.65 49.49 49.65H54.05C54.46 49.65 54.8 49.31 54.8 48.9V42.77C54.8 42.35 54.46 42.02 54.05 42.02ZM53.3 48.14H50.24V43.51H53.3V48.14Z" fill="#0022CD"/>
    <path d="M59.2401 42.9399C57.6501 42.9399 56.3501 44.2299 56.3501 45.8299C56.3501 47.4199 57.6401 48.7199 59.2401 48.7199C60.8401 48.7199 62.1301 47.4299 62.1301 45.8299C62.1201 44.2399 60.8301 42.9399 59.2401 42.9399ZM59.2401 47.2199C58.4801 47.2199 57.8501 46.5999 57.8501 45.8299C57.8501 45.0699 58.4701 44.4399 59.2401 44.4399C60.0101 44.4399 60.6301 45.0599 60.6301 45.8299C60.6201 46.5899 60.0001 47.2199 59.2401 47.2199Z" fill="#0022CD"/>
    <path d="M16.86 38.2H15.15C13.95 38.2 12.98 39.17 12.98 40.37V40.4799C12.98 41.6799 13.95 42.65 15.15 42.65H16.86C18.06 42.65 19.03 41.6799 19.03 40.4799V40.37C19.03 39.18 18.06 38.2 16.86 38.2ZM17.53 40.4799C17.53 40.8499 17.23 41.15 16.86 41.15H15.15C14.78 41.15 14.48 40.8499 14.48 40.4799V40.37C14.48 40 14.78 39.7 15.15 39.7H16.86C17.23 39.7 17.53 40 17.53 40.37V40.4799Z" fill="#0022CD"/>
    <path d="M23.7201 38.2H22.0101C20.8101 38.2 19.8401 39.17 19.8401 40.37V40.4799C19.8401 41.6799 20.8101 42.65 22.0101 42.65H23.7201C24.9201 42.65 25.8901 41.6799 25.8901 40.4799V40.37C25.8901 39.18 24.9201 38.2 23.7201 38.2ZM24.3901 40.4799C24.3901 40.8499 24.0901 41.15 23.7201 41.15H22.0101C21.6401 41.15 21.3401 40.8499 21.3401 40.4799V40.37C21.3401 40 21.6401 39.7 22.0101 39.7H23.7201C24.0901 39.7 24.3901 40 24.3901 40.37V40.4799Z" fill="#0022CD"/>
    <path d="M30.58 38.2H28.87C27.67 38.2 26.7 39.17 26.7 40.37V40.4799C26.7 41.6799 27.67 42.65 28.87 42.65H30.58C31.78 42.65 32.75 41.6799 32.75 40.4799V40.37C32.75 39.18 31.77 38.2 30.58 38.2ZM31.25 40.4799C31.25 40.8499 30.95 41.15 30.58 41.15H28.87C28.5 41.15 28.2 40.8499 28.2 40.4799V40.37C28.2 40 28.5 39.7 28.87 39.7H30.58C30.95 39.7 31.25 40 31.25 40.37V40.4799Z" fill="#0022CD"/>
    <path d="M16.86 43.65H15.15C13.95 43.65 12.98 44.62 12.98 45.82V45.93C12.98 47.13 13.95 48.1 15.15 48.1H16.86C18.06 48.1 19.03 47.13 19.03 45.93V45.82C19.03 44.62 18.06 43.65 16.86 43.65ZM17.53 45.93C17.53 46.3 17.23 46.6 16.86 46.6H15.15C14.78 46.6 14.48 46.3 14.48 45.93V45.82C14.48 45.45 14.78 45.15 15.15 45.15H16.86C17.23 45.15 17.53 45.45 17.53 45.82V45.93Z" fill="#0022CD"/>
    <path d="M23.7201 43.65H22.0101C20.8101 43.65 19.8401 44.62 19.8401 45.82V45.93C19.8401 47.13 20.8101 48.1 22.0101 48.1H23.7201C24.9201 48.1 25.8901 47.13 25.8901 45.93V45.82C25.8901 44.62 24.9201 43.65 23.7201 43.65ZM24.3901 45.93C24.3901 46.3 24.0901 46.6 23.7201 46.6H22.0101C21.6401 46.6 21.3401 46.3 21.3401 45.93V45.82C21.3401 45.45 21.6401 45.15 22.0101 45.15H23.7201C24.0901 45.15 24.3901 45.45 24.3901 45.82V45.93Z" fill="#0022CD"/>
    <path d="M30.58 43.65H28.87C27.67 43.65 26.7 44.62 26.7 45.82V45.93C26.7 47.13 27.67 48.1 28.87 48.1H30.58C31.78 48.1 32.75 47.13 32.75 45.93V45.82C32.75 44.62 31.77 43.65 30.58 43.65ZM31.25 45.93C31.25 46.3 30.95 46.6 30.58 46.6H28.87C28.5 46.6 28.2 46.3 28.2 45.93V45.82C28.2 45.45 28.5 45.15 28.87 45.15H30.58C30.95 45.15 31.25 45.45 31.25 45.82V45.93Z" fill="#0022CD"/>
    <path d="M16.86 49.09H15.15C13.95 49.09 12.98 50.06 12.98 51.26V51.37C12.98 52.57 13.95 53.54 15.15 53.54H16.86C18.06 53.54 19.03 52.57 19.03 51.37V51.26C19.03 50.07 18.06 49.09 16.86 49.09ZM17.53 51.38C17.53 51.75 17.23 52.05 16.86 52.05H15.15C14.78 52.05 14.48 51.75 14.48 51.38V51.27C14.48 50.9 14.78 50.6 15.15 50.6H16.86C17.23 50.6 17.53 50.9 17.53 51.27V51.38Z" fill="#0022CD"/>
    <path d="M23.7201 49.09H22.0101C20.8101 49.09 19.8401 50.06 19.8401 51.26V51.37C19.8401 52.57 20.8101 53.54 22.0101 53.54H23.7201C24.9201 53.54 25.8901 52.57 25.8901 51.37V51.26C25.8901 50.07 24.9201 49.09 23.7201 49.09ZM24.3901 51.38C24.3901 51.75 24.0901 52.05 23.7201 52.05H22.0101C21.6401 52.05 21.3401 51.75 21.3401 51.38V51.27C21.3401 50.9 21.6401 50.6 22.0101 50.6H23.7201C24.0901 50.6 24.3901 50.9 24.3901 51.27V51.38Z" fill="#0022CD"/>
    <path d="M30.58 49.09H28.87C27.67 49.09 26.7 50.06 26.7 51.26V51.37C26.7 52.57 27.67 53.54 28.87 53.54H30.58C31.78 53.54 32.75 52.57 32.75 51.37V51.26C32.75 50.07 31.77 49.09 30.58 49.09ZM31.25 51.38C31.25 51.75 30.95 52.05 30.58 52.05H28.87C28.5 52.05 28.2 51.75 28.2 51.38V51.27C28.2 50.9 28.5 50.6 28.87 50.6H30.58C30.95 50.6 31.25 50.9 31.25 51.27V51.38Z" fill="#0022CD"/>
    <path d="M43.44 38.09H36.99C36.58 38.09 36.24 38.43 36.24 38.84V41.9C36.24 42.31 36.58 42.65 36.99 42.65H43.44C43.85 42.65 44.19 42.31 44.19 41.9V38.84C44.19 38.42 43.85 38.09 43.44 38.09ZM42.69 41.15H37.74V39.59H42.69V41.15Z" fill="#0022CD"/>
    <path d="M43.44 43.59H36.99C36.58 43.59 36.24 43.93 36.24 44.34V47.4C36.24 47.81 36.58 48.15 36.99 48.15H43.44C43.85 48.15 44.19 47.81 44.19 47.4V44.34C44.19 43.93 43.85 43.59 43.44 43.59ZM42.69 46.66H37.74V45.1H42.69V46.66Z" fill="#0022CD"/>
    <path d="M43.44 49.04H36.99C36.58 49.04 36.24 49.38 36.24 49.79V52.85C36.24 53.26 36.58 53.6 36.99 53.6H43.44C43.85 53.6 44.19 53.26 44.19 52.85V49.79C44.19 49.37 43.85 49.04 43.44 49.04ZM42.69 52.1H37.74V50.54H42.69V52.1Z" fill="#0022CD"/>
</svg>
