<svg width="72" height="72" viewBox="0 0 72 72" fill="none" xmlns="http://www.w3.org/2000/svg">
    <path d="M47.1562 35.095H41.1602V38.652H47.1562V35.095Z" fill="#CCFF69"/>
    <path d="M39.4591 35.095H33.1211V38.652H39.4591V35.095Z" fill="#CCFF69"/>
    <path d="M39.459 24.676H33.126V28.174H39.459V24.676Z" fill="#CCFF69"/>
    <path d="M49.633 29.876H43.637V33.394H49.633V29.876Z" fill="#CCFF69"/>
    <path d="M55.325 29.876H51.334V33.394H55.325V29.876Z" fill="#CCFF69"/>
    <path d="M26.199 29.876H20.606V33.394H26.199V29.876Z" fill="#CCFF69"/>
    <path d="M33.8949 29.876H27.8999V33.394H33.8949V29.876Z" fill="#CCFF69"/>
    <path d="M61.928 64.328H57.118V64.306V6.894C57.118 6.401 56.717 6 56.224 6H16.326C15.833 6 15.432 6.401 15.432 6.894V64.327H10.823C10.369 64.327 10 64.695 10 65.149C10 65.603 10.368 65.971 10.823 65.971H15.907H56.643H61.928C62.382 65.971 62.75 65.603 62.75 65.149C62.75 64.696 62.382 64.328 61.928 64.328ZM55.325 7.786V22.833H28.437V24.676H31.425V28.174H17.219V24.676H20.357V22.833H17.219V7.786H55.325ZM17.219 35.095H23.723V38.652H17.219V35.095ZM26.199 29.876V33.394H20.606V29.876H26.199ZM39.459 24.676V28.174H33.126V24.676H39.459ZM55.325 29.876V33.394H51.334V29.876H55.325ZM49.633 33.394H43.637V29.876H49.633V33.394ZM41.936 33.394H35.597V29.876H41.936V33.394ZM33.896 29.876V33.394H27.9V29.876H33.896ZM33.121 35.095H39.459V38.652H33.121V35.095ZM41.16 35.095H47.156V38.652H41.16V35.095ZM41.16 28.174V24.676H47.161V28.174H41.16ZM18.905 33.394H17.219V29.876H18.905V33.394ZM25.424 35.095H31.42V38.652H25.424V35.095ZM48.857 35.095H55.324V38.652H48.857V35.095ZM55.325 28.174H48.862V24.676H55.325V28.174ZM40.43 64.304C38.775 64.304 37.077 64.304 35.386 64.304C34.392 64.304 33.405 64.304 32.428 64.304C32.425 64.304 32.422 64.304 32.419 64.304V49.578H40.43V64.304ZM42.221 64.304V48.684C42.221 48.191 41.82 47.79 41.327 47.79H31.526C31.033 47.79 30.632 48.191 30.632 48.684V64.304C23.652 64.304 17.77 64.304 17.219 64.304V40.494H55.325V64.304C55.325 64.304 49.399 64.304 42.221 64.304Z" fill="#0022CD"/>
</svg>
