<svg width="72" height="72" viewBox="0 0 72 72" fill="none" xmlns="http://www.w3.org/2000/svg">
    <path d="M66.4137 66.68H4.75366L12.1837 46.75H58.8537L66.4137 66.68Z" fill="#CCFF69"/>
    <path d="M66.4136 67.43H4.75364C4.50364 67.43 4.27364 67.31 4.13364 67.11C3.99364 66.91 3.96364 66.65 4.04364 66.42L11.4836 46.49C11.5936 46.19 11.8736 46 12.1836 46H58.8536C59.1636 46 59.4436 46.19 59.5536 46.48L67.1136 66.41C67.2036 66.64 67.1736 66.9 67.0336 67.1C66.8936 67.3 66.6636 67.43 66.4136 67.43ZM5.83364 65.93H65.3336L58.3336 47.5H12.7036L5.83364 65.93Z" fill="#0022CD"/>
    <path d="M34.7269 15.0622C34.7269 13.0803 34.0134 11.3362 32.8243 9.9093C33.1414 9.11656 33.2999 8.32381 33.2999 7.45179C33.3792 3.72589 30.3667 0.792725 26.7201 0.792725C23.0735 0.792725 20.1403 3.72589 20.1403 7.45179C20.1403 8.32381 20.2989 9.19583 20.616 9.9093C19.4269 11.3362 18.7134 13.0803 18.7134 15.0622C18.7134 16.8855 19.3476 18.5502 20.3781 19.8979C19.3476 21.2456 18.7134 22.9103 18.7134 24.7337C18.7134 29.173 22.2807 32.7404 26.7201 32.7404C31.1595 32.7404 34.7269 29.173 34.7269 24.7337C34.7269 22.9103 34.0927 21.2456 33.0621 19.8979C34.0927 18.5502 34.7269 16.8855 34.7269 15.0622Z" fill="white"/>
    <path d="M35.5197 24.7337C35.5197 22.9896 35.044 21.3249 34.0135 19.8979C34.9648 18.471 35.5197 16.8062 35.5197 15.0622C35.5197 13.1596 34.8855 11.3363 33.7756 9.75078C34.0135 8.95803 34.172 8.16529 34.172 7.37254C34.172 3.32953 30.8425 0 26.7202 0C22.5979 0 19.3477 3.32953 19.3477 7.45181C19.3477 8.24456 19.5062 9.03731 19.744 9.83005C18.6342 11.3363 18 13.2389 18 15.1415C18 16.8855 18.4756 18.5503 19.5062 19.9772C18.5549 21.4041 18 23.0689 18 24.813C18 29.4109 21.4881 33.1368 26.0067 33.5332V45.1865C26.0067 45.5829 26.3238 45.9 26.7995 45.9C27.2751 45.9 27.5922 45.5829 27.5922 45.1865V33.5332C32.0316 33.1368 35.5197 29.3316 35.5197 24.7337ZM26.7202 31.9477C22.7565 31.9477 19.5062 28.6974 19.5062 24.7337C19.5062 23.1482 20.0611 21.642 21.0124 20.3736C21.2503 20.0565 21.2503 19.6601 21.0124 19.4223C20.0611 18.1539 19.5062 16.6477 19.5062 15.0622C19.5062 13.3974 20.1404 11.7326 21.171 10.4642C21.3295 10.2264 21.4088 9.90933 21.3295 9.6715C21.0124 8.95803 20.9332 8.24456 20.9332 7.45181C20.9332 4.20155 23.5492 1.58549 26.7202 1.58549C29.8912 1.58549 32.5865 4.20155 32.5865 7.45181C32.5865 8.16529 32.428 8.95803 32.1902 9.6715C32.1109 9.90933 32.1109 10.2264 32.3487 10.4642C33.4585 11.7326 34.0135 13.3974 34.0135 15.0622C34.0135 16.6477 33.4585 18.1539 32.5073 19.4223C32.2694 19.7394 32.2694 20.1358 32.5073 20.3736C33.4585 21.642 34.0135 23.1482 34.0135 24.7337C33.9342 28.6974 30.6839 31.9477 26.7202 31.9477Z" fill="#0022CD"/>
    <path d="M16.881 40.1096C16.8168 39.3511 17.4152 38.7 18.1764 38.7H35.8236C36.5848 38.7 37.1832 39.3511 37.119 40.1096L35.7651 56.1096C35.7082 56.7827 35.1453 57.3 34.4698 57.3H19.5302C18.8547 57.3 18.2918 56.7827 18.2349 56.1096L16.881 40.1096Z" fill="white" stroke="#0022CD" stroke-width="1.4"/>
    <path d="M15.9035 40.1222C15.8314 39.3593 16.4315 38.7 17.1977 38.7H36.8023C37.5685 38.7 38.1686 39.3593 38.0965 40.1222L37.7189 44.1222C37.6559 44.7899 37.0953 45.3 36.4247 45.3H17.5753C16.9047 45.3 16.3441 44.7899 16.2811 44.1222L15.9035 40.1222Z" fill="white" stroke="#0022CD" stroke-width="1.4"/>
    <path d="M54 31.4715C54 26.7965 50.1831 23 45.5 23C40.817 23 37 26.8042 37 31.4715C37 35.8868 40.4031 39.5229 44.7335 39.9049V44.2361C44.7335 44.6562 45.0784 45 45.5 45C45.9216 45 46.2665 44.6562 46.2665 44.2361V39.9049C50.5969 39.5153 54 35.8792 54 31.4715ZM46.2665 38.3694V31.7083C46.2665 31.2882 45.9216 30.9444 45.5 30.9444C45.0784 30.9444 44.7335 31.2882 44.7335 31.7083V38.3694C41.2462 37.9875 38.5329 35.0389 38.5329 31.4639C38.5329 27.6368 41.6601 24.5201 45.5 24.5201C49.3399 24.5201 52.4671 27.6368 52.4671 31.4639C52.4671 35.0389 49.7538 37.9875 46.2665 38.3694Z" fill="#0022CD"/>
    <path d="M37.7143 45.1096C37.6501 44.3511 38.2484 43.7 39.0096 43.7H52.9902C53.7514 43.7 54.3498 44.3511 54.2856 45.1096L53.2138 57.7763C53.1568 58.4493 52.5939 58.9667 51.9184 58.9667H40.0814C39.4059 58.9667 38.843 58.4493 38.7861 57.7763L37.7143 45.1096Z" fill="white" stroke="#0022CD" stroke-width="1.4"/>
    <path d="M36.9035 45.1222C36.8314 44.3593 37.4315 43.7 38.1977 43.7H53.8023C54.5685 43.7 55.1686 44.3593 55.0965 45.1222L54.8448 47.7888C54.7818 48.4565 54.2212 48.9667 53.5505 48.9667H38.4495C37.7788 48.9667 37.2182 48.4565 37.1552 47.7889L36.9035 45.1222Z" fill="white" stroke="#0022CD" stroke-width="1.4"/>
</svg>
