<svg width="72" height="72" viewBox="0 0 72 72" fill="none" xmlns="http://www.w3.org/2000/svg">
    <path d="M13.3698 41.3099L6.49976 59.7399H65.9998L58.9998 41.3099H52.1698V50.1599C52.1698 50.5699 51.8298 50.9099 51.4198 50.9099H40.0798H32.3498H20.9898C20.7898 50.9099 20.5998 50.8299 20.4598 50.6899C20.3198 50.5499 20.2398 50.3599 20.2398 50.1599L20.2498 41.3099H13.3698Z" fill="#CCFF69"/>
    <path d="M36.3299 11.75L18.5999 26.54V26.57L18.6199 29.75V29.76H21.0099L20.9899 50.16H32.3499H40.0799H51.4199V29.75H53.9699V26.57V26.54L36.3299 11.75Z" fill="white"/>
    <path d="M67.3999 59.2099L60.3999 40.7799C60.1799 40.1999 59.6199 39.8099 58.9999 39.8099H52.1699V30.4999H53.9699C54.3799 30.4999 54.7199 30.1599 54.7199 29.7499V26.5699V26.5599V26.5499C54.7199 26.4699 54.6899 26.3899 54.6699 26.3099C54.6699 26.2999 54.6699 26.2899 54.6599 26.2799C54.6099 26.1599 54.5499 26.0599 54.4499 25.9699L36.8099 11.1799C36.5299 10.9499 36.1299 10.9499 35.8499 11.1799L18.1199 25.9699C18.0299 26.0499 17.9599 26.1599 17.9099 26.2799C17.8699 26.3599 17.8599 26.4499 17.8499 26.5399C17.8499 26.5499 17.8399 26.5599 17.8399 26.5699L17.8499 29.7499V29.7599C17.8499 30.1699 18.1899 30.5099 18.5999 30.5099H20.2399L20.2299 39.8099H13.3699C12.7399 39.8099 12.1799 40.1999 11.9599 40.7899L5.08987 59.2199C4.91987 59.6799 4.97987 60.1999 5.25987 60.5999C5.53987 60.9999 5.99987 61.2399 6.48987 61.2399H65.9999C66.4899 61.2399 66.9499 60.9999 67.2299 60.5899C67.5099 60.1799 67.5699 59.6699 67.3999 59.2099ZM39.3299 49.4099H33.0999V37.7899H39.3299V49.4099ZM40.0799 36.2899H32.3499C31.9399 36.2899 31.5999 36.6299 31.5999 37.0399V49.4099H21.7399L21.7499 41.3899C21.7499 41.3599 21.7499 41.3399 21.7499 41.3099C21.7499 41.2999 21.7499 41.2999 21.7499 41.2899L21.7599 30.4999H50.6799V41.3099V49.4099H40.8399V37.0399C40.8299 36.6199 40.4899 36.2899 40.0799 36.2899ZM36.3299 12.7299L51.9399 25.8199H20.6399L36.3299 12.7299ZM19.3599 28.9999L19.3499 27.3199H53.2099V28.9999H19.3599ZM6.49987 59.7399L13.3699 41.3099H20.2499L20.2399 50.1599C20.2399 50.3599 20.3199 50.5499 20.4599 50.6899C20.5999 50.8299 20.7899 50.9099 20.9899 50.9099H32.3499H40.0799H51.4199C51.8299 50.9099 52.1699 50.5699 52.1699 50.1599V41.3099H58.9999L65.9999 59.7399H6.49987Z" fill="#0022CD"/>
</svg>
