<svg width="72" height="72" viewBox="0 0 72 72" fill="none" xmlns="http://www.w3.org/2000/svg">
    <path d="M15.833 45.1591H25.527C25.847 45.1591 26.118 44.9611 26.118 44.7281V32.4291C26.118 32.1951 25.848 31.9971 25.527 31.9971H15.833C15.512 31.9971 15.24 32.1951 15.24 32.4291V44.7281C15.241 44.9611 15.512 45.1591 15.833 45.1591ZM18.093 38.8511V38.3241V35.1671C18.093 34.7451 18.434 34.4041 18.856 34.4041H21.225C22.662 34.4041 23.83 35.5721 23.83 37.0091C23.83 38.4461 22.662 39.6141 21.225 39.6141H19.619V42.0091C19.619 42.4311 19.278 42.7721 18.856 42.7721C18.434 42.7721 18.093 42.4311 18.093 42.0091V38.8511Z" fill="#CCFF69"/>
    <path d="M16.961 52.528H24.398C24.727 52.528 25.016 52.326 25.016 52.096V50.518C25.016 50.287 24.727 50.085 24.398 50.085H16.961C16.631 50.085 16.342 50.287 16.342 50.518V52.096C16.342 52.325 16.631 52.528 16.961 52.528Z" fill="#CCFF69"/>
    <path d="M56.202 6H16.807C16.341 6 15.963 6.379 15.963 6.845V24.284C15.963 24.75 16.341 25.129 16.807 25.129C17.273 25.129 17.652 24.75 17.652 24.284V7.686H55.35V64.228H21.589L21.59 53.769H24.397C25.422 53.769 26.256 53.018 26.256 52.096V50.518C26.256 49.594 25.422 48.844 24.397 48.844H21.591L21.592 46.401H25.527C26.537 46.401 27.359 45.65 27.359 44.729V32.43C27.359 31.508 26.538 30.757 25.527 30.757H15.833C14.823 30.757 14 31.508 14 32.43V44.729C14 45.651 14.822 46.401 15.833 46.401H19.902L19.901 48.844H16.961C15.936 48.844 15.102 49.595 15.102 50.518V52.096C15.102 53.019 15.936 53.769 16.961 53.769H19.9L19.896 64.228H15.339C14.873 64.228 14.495 64.607 14.495 65.073C14.495 65.539 14.873 65.917 15.339 65.917H56.182C56.648 65.917 57.026 65.539 57.026 65.073L57.047 63.739V6.845C57.046 6.379 56.668 6 56.202 6ZM16.342 50.517C16.342 50.286 16.631 50.084 16.961 50.084H24.398C24.727 50.084 25.016 50.286 25.016 50.517V52.095C25.016 52.325 24.727 52.527 24.398 52.527H16.961C16.631 52.527 16.342 52.325 16.342 52.095V50.517ZM15.241 32.428C15.241 32.194 15.512 31.996 15.834 31.996H25.528C25.848 31.996 26.119 32.194 26.119 32.428V44.727C26.119 44.961 25.849 45.158 25.528 45.158H15.834C15.513 45.158 15.241 44.96 15.241 44.727V32.428Z" fill="#0022CD"/>
    <path d="M32.4839 22.4271C32.8919 22.4271 33.2239 22.0951 33.2239 21.6871V15.5191C33.2239 15.1111 32.8919 14.7791 32.4839 14.7791H26.3149C25.9069 14.7791 25.5759 15.1111 25.5759 15.5191V21.6871C25.5759 22.0951 25.9069 22.4271 26.3149 22.4271H32.4839ZM27.0549 16.257H31.7449V20.9471H27.0549V16.257Z" fill="#0022CD"/>
    <path d="M39.676 35.2659C39.676 35.6729 40.007 36.0049 40.415 36.0049H46.584C46.992 36.0049 47.323 35.6729 47.323 35.2659V29.0969C47.323 28.6899 46.992 28.3579 46.584 28.3579H40.415C40.007 28.3579 39.676 28.6899 39.676 29.0969V35.2659ZM41.154 29.8349H45.845V34.5269H41.154V29.8349Z" fill="#0022CD"/>
    <path d="M39.676 48.6431C39.676 49.0511 40.007 49.3821 40.415 49.3821H46.584C46.992 49.3821 47.323 49.0511 47.323 48.6431V42.4741C47.323 42.0661 46.992 41.7351 46.584 41.7351H40.415C40.007 41.7351 39.676 42.0661 39.676 42.4741V48.6431ZM41.154 43.2121H45.845V47.9041H41.154V43.2121Z" fill="#0022CD"/>
    <path d="M40.415 22.4271H46.584C46.992 22.4271 47.323 22.0951 47.323 21.6871V15.5191C47.323 15.1111 46.992 14.7791 46.584 14.7791H40.415C40.007 14.7791 39.676 15.1111 39.676 15.5191V21.6871C39.676 22.0941 40.007 22.4271 40.415 22.4271ZM41.154 16.257H45.845V20.9471H41.154V16.257Z" fill="#0022CD"/>
    <path d="M22.3039 37.0089C22.3039 36.4139 21.8189 35.9299 21.2249 35.9299H19.6189V38.0879H21.2249C21.8189 38.0879 22.3039 37.6039 22.3039 37.0089Z" fill="#CCFF69"/>
    <path d="M18.856 42.7721C19.278 42.7721 19.619 42.4311 19.619 42.0091V39.6141H21.225C22.662 39.6141 23.83 38.4461 23.83 37.0091C23.83 35.5721 22.662 34.4041 21.225 34.4041H18.856C18.434 34.4041 18.093 34.7451 18.093 35.1671V38.3241V38.8511V42.0091C18.093 42.4311 18.434 42.7721 18.856 42.7721ZM19.619 35.9301H21.225C21.82 35.9301 22.304 36.4151 22.304 37.0091C22.304 37.6031 21.819 38.0881 21.225 38.0881H19.619V35.9301Z" fill="#0022CD"/>
</svg>
