<svg width="72" height="72" viewBox="0 0 72 72" fill="none" xmlns="http://www.w3.org/2000/svg">
    <rect x="11" y="11" width="25" height="25" fill="#CCFF69"/>
    <path d="M10.828 29.155C11.285 29.155 11.655 28.785 11.655 28.328V11.654H28.329C28.786 11.654 29.156 11.284 29.156 10.827C29.156 10.37 28.786 10 28.329 10H10.828C10.371 10 10.001 10.37 10.001 10.827V28.328C10.001 28.785 10.371 29.155 10.828 29.155Z" fill="#0022CD"/>
    <path d="M60.3949 41.734C59.9379 41.734 59.5679 42.104 59.5679 42.561V59.235H42.8939C42.4369 59.235 42.0669 59.605 42.0669 60.062C42.0669 60.519 42.4369 60.889 42.8939 60.889H60.3949C60.8519 60.889 61.2219 60.519 61.2219 60.062V42.561C61.2219 42.104 60.8509 41.734 60.3949 41.734Z" fill="#0022CD"/>
    <path d="M41.9009 10.661C41.9009 11.118 42.2709 11.488 42.7279 11.488L59.4019 11.488L59.4019 28.162C59.4019 28.619 59.7719 28.989 60.2289 28.989C60.6859 28.989 61.0559 28.619 61.0559 28.162L61.0559 10.661C61.0559 10.204 60.6859 9.83398 60.2289 9.83398L42.7279 9.83398C42.2709 9.83398 41.9009 10.204 41.9009 10.661Z" fill="#0022CD"/>
    <path d="M29.322 60.228C29.322 59.771 28.952 59.401 28.495 59.401L11.821 59.401L11.821 42.727C11.821 42.27 11.451 41.9 10.994 41.9C10.537 41.9 10.167 42.27 10.167 42.727L10.167 60.228C10.167 60.685 10.537 61.055 10.994 61.055L28.495 61.055C28.952 61.055 29.322 60.684 29.322 60.228Z" fill="#0022CD"/>
    <path d="M36 14L36 58" stroke="#0022CD" stroke-width="1.5" stroke-linecap="round" stroke-dasharray="4 4"/>
    <path d="M14 36L58 36" stroke="#0022CD" stroke-width="1.5" stroke-linecap="round" stroke-dasharray="4 4"/>
</svg>
