<svg width="72" height="72" viewBox="0 0 72 72" fill="none" xmlns="http://www.w3.org/2000/svg">
    <path d="M31.6338 26.484C31.6338 28.791 33.5107 30.668 35.8177 30.668C38.1247 30.668 40.0017 28.792 40.0017 26.484C40.0017 24.177 38.1247 22.301 35.8177 22.301C33.5107 22.301 31.6338 24.177 31.6338 26.484Z" fill="#CCFF69"/>
    <path d="M61.5108 57.719L53.1768 44.384C53.0288 44.148 52.7628 44 52.4848 44H45.8178C45.3678 44 45.0018 44.366 45.0018 44.816C45.0018 45.266 45.3678 45.632 45.8178 45.632H52.0299L52.0719 45.698L59.3429 57.333H12.2899L19.6029 45.632H25.8169C26.2669 45.632 26.6329 45.266 26.6329 44.816C26.6329 44.366 26.2669 44 25.8169 44H19.1499C18.8669 44 18.6068 44.145 18.4538 44.387L10.1229 57.716C9.96689 57.967 9.95889 58.284 10.1019 58.542C10.2469 58.804 10.5209 58.966 10.8169 58.966H60.8169C61.1139 58.966 61.3868 58.804 61.5308 58.544L61.5418 58.525C61.6758 58.272 61.6658 57.964 61.5108 57.719Z" fill="#0022CD"/>
    <path d="M41.634 26.484C41.634 23.277 39.025 20.668 35.818 20.668C32.611 20.668 30.002 23.277 30.002 26.484C30.002 29.692 32.611 32.301 35.818 32.301C39.025 32.301 41.634 29.691 41.634 26.484ZM40.002 26.484C40.002 28.791 38.125 30.668 35.818 30.668C33.511 30.668 31.634 28.792 31.634 26.484C31.634 24.177 33.511 22.301 35.818 22.301C38.125 22.301 40.002 24.177 40.002 26.484Z" fill="#0022CD"/>
    <path d="M35.8169 52.272C36.1109 52.272 36.3699 52.14 36.5089 51.918C40.8889 44.956 48.2999 31.766 48.2999 26.483C48.2999 19.6 42.6999 14 35.8179 14C28.9359 14 23.3359 19.6 23.3359 26.483C23.3359 31.754 30.7469 44.95 35.1259 51.918C35.2649 52.14 35.5239 52.272 35.8169 52.272ZM24.9669 26.484C24.9669 20.501 29.8339 15.634 35.8179 15.634C41.8019 15.634 46.6688 20.501 46.6688 26.484C46.6688 31.497 38.9219 44.782 36.5469 48.734L35.8179 49.947L35.0889 48.734C32.7139 44.782 24.9669 31.497 24.9669 26.484Z" fill="#0022CD"/>
</svg>
