<svg width="72" height="72" viewBox="0 0 72 72" fill="none" xmlns="http://www.w3.org/2000/svg">
    <path d="M50.0161 19.6479H52.8541V18.2289C52.8541 12.4299 48.1351 7.71094 42.3351 7.71094H30.1911C24.3911 7.71094 19.6721 12.4289 19.6721 18.2289V49.2199H22.5111V18.2289C22.5111 13.9949 25.9561 10.5489 30.1911 10.5489H42.3351C46.5701 10.5489 50.0151 13.9949 50.0151 18.2289V19.6479H50.0161Z" fill="#CCFF69"/>
    <path d="M22.5121 55.483H19.6731V64.583H22.5121V55.483Z" fill="#CCFF69"/>
    <path d="M58.83 22.068L54.565 20.647V18.23C54.565 11.486 49.079 6 42.335 6H30.191C23.447 6 17.961 11.486 17.961 18.23V49.221H13.13C11.404 49.221 10 50.626 10 52.353C10 54.08 11.404 55.484 13.13 55.484H17.961V64.584H18.777H19.6721V55.484H22.511V64.584H23.494H24.222V55.484H29.053C30.779 55.484 32.183 54.08 32.183 52.353C32.183 50.626 30.779 49.221 29.053 49.221H24.222V18.229C24.222 14.938 26.9 12.261 30.191 12.261H42.335C45.626 12.261 48.304 14.939 48.304 18.229V20.647L44.051 22.068C41.835 22.801 40.345 24.86 40.342 27.192V30.459H62.527V27.192C62.526 24.863 61.04 22.804 58.83 22.068ZM29.054 50.933C29.837 50.933 30.473 51.569 30.473 52.352C30.467 52.735 30.307 53.102 30.033 53.363C29.79 53.62 29.437 53.771 29.071 53.771C29.064 53.771 29.056 53.771 29.049 53.771H24.223H22.512H19.673H17.962H13.131C12.348 53.771 11.712 53.135 11.712 52.352C11.718 51.97 11.878 51.602 12.152 51.341C12.399 51.08 12.7661 50.952 13.1331 50.934H17.962H24.223H29.054V50.933ZM42.335 10.549H30.191C25.956 10.549 22.511 13.995 22.511 18.229V49.22H19.6721V18.229C19.6721 12.43 24.391 7.711 30.191 7.711H42.335C48.135 7.711 52.854 12.429 52.854 18.229V19.648H50.0161V18.229C50.0161 13.995 46.571 10.549 42.335 10.549ZM42.054 28.748V27.192C42.038 25.58 43.057 24.155 44.591 23.648L49.493 22.033C50.782 21.597 52.203 21.597 53.493 22.034L58.348 23.649C59.853 24.181 60.843 25.606 60.815 27.197V28.748H42.054Z" fill="#0022CD"/>
    <path d="M45.4659 36.709H43.7549V41.833H45.4659V36.709Z" fill="#0022CD"/>
    <path d="M52.2901 34.4351H50.5791V39.5591H52.2901V34.4351Z" fill="#0022CD"/>
    <path d="M59.1151 36.709H57.4041V41.833H59.1151V36.709Z" fill="#0022CD"/>
    <path d="M45.4659 46.946H43.7549V52.07H45.4659V46.946Z" fill="#0022CD"/>
    <path d="M52.2901 44.671H50.5791V49.795H52.2901V44.671Z" fill="#0022CD"/>
    <path d="M59.1151 46.946H57.4041V52.07H59.1151V46.946Z" fill="#0022CD"/>
    <path d="M45.4659 57.183H43.7549V62.307H45.4659V57.183Z" fill="#0022CD"/>
    <path d="M52.2901 54.908H50.5791V60.032H52.2901V54.908Z" fill="#0022CD"/>
    <path d="M59.1151 57.183H57.4041V62.307H59.1151V57.183Z" fill="#0022CD"/>
</svg>
