<svg width="72" height="72" viewBox="0 0 72 72" fill="none" xmlns="http://www.w3.org/2000/svg">
    <path d="M55.65 29.34V18.12C55.65 16.26 54.14 14.75 52.28 14.75H20.1C18.24 14.75 16.73 16.26 16.73 18.12V29.34H16.48C14.42 29.34 12.75 30.95 12.75 32.94V52.92V53.88V55.3C12.75 57.03 14.21 58.44 16 58.44H56.08C57.88 58.44 59.33 57.04 59.33 55.3V53.88V52.92V32.94C59.34 30.97 57.69 29.37 55.65 29.34ZM49.9 47.05V48.3C49.9 48.61 49.81 48.89 49.65 49.13C49.38 49.52 48.93 49.78 48.42 49.78H23.67C23.16 49.78 22.71 49.52 22.44 49.13C22.28 48.89 22.19 48.61 22.19 48.3V47.05V41.48C22.19 40.66 22.85 40 23.67 40H48.42C49.24 40 49.9 40.66 49.9 41.48V47.05Z" fill="white"/>
    <path d="M20.4399 64.81H22.5499L25.1999 58.79H20.4399V64.81Z" fill="white"/>
    <path d="M49.86 64.81H51.97V58.79H47.21L49.86 64.81Z" fill="white"/>
    <path d="M48.4199 49.78H23.6699C22.8499 49.78 22.1899 49.12 22.1899 48.3V41.48C22.1899 40.66 22.8499 40 23.6699 40H48.4199C49.2399 40 49.8999 40.66 49.8999 41.48V48.3C49.8999 49.12 49.2399 49.78 48.4199 49.78Z" fill="#CCFF69"/>
    <path d="M56.4 28.67V18.12C56.4 15.85 54.56 14 52.29 14H20.1C17.83 14 15.98 15.85 15.98 18.12V28.64C13.75 28.88 12 30.7 12 32.94V55.3C12 57.44 13.8 59.19 16 59.19H19.69V64.82C19.69 65.23 20.03 65.57 20.44 65.57H22.55C22.85 65.57 23.12 65.39 23.24 65.12L25.85 59.19H46.57L49.18 65.12C49.3 65.39 49.57 65.57 49.87 65.57H51.98C52.39 65.57 52.73 65.23 52.73 64.82V59.19H56.1C58.31 59.19 60.1 57.45 60.1 55.3V32.94C60.09 30.8 58.49 29.03 56.4 28.67ZM22.07 64.06H21.19V59.55H24.05L22.07 64.06ZM51.22 64.06H50.35L48.37 59.55H51.23V64.06H51.22ZM17.48 18.12C17.48 16.68 18.65 15.5 20.1 15.5H52.28C53.72 15.5 54.9 16.67 54.9 18.12V28.59H53.63C51.16 28.59 49.15 30.54 49.15 32.94V39.38C49.09 39.36 49.02 39.35 48.96 39.33C48.92 39.32 48.88 39.31 48.84 39.3C48.7 39.27 48.57 39.26 48.42 39.26H23.67C23.53 39.26 23.39 39.28 23.26 39.3C23.22 39.31 23.17 39.32 23.13 39.33C23.07 39.35 23.01 39.36 22.95 39.38V32.94C22.95 30.54 20.94 28.59 18.47 28.59H17.48V18.12ZM49.07 48.62C49.05 48.67 49.02 48.71 48.99 48.74C48.94 48.8 48.88 48.85 48.82 48.89C48.79 48.91 48.77 48.93 48.74 48.94C48.64 48.99 48.54 49.02 48.42 49.02H23.67C23.56 49.02 23.45 48.99 23.35 48.94C23.32 48.93 23.3 48.91 23.27 48.89C23.21 48.85 23.15 48.8 23.1 48.74C23.07 48.7 23.04 48.66 23.02 48.62C23.01 48.6 23 48.58 22.99 48.55C22.96 48.47 22.94 48.38 22.94 48.29V41.47C22.94 41.07 23.27 40.74 23.67 40.74H48.42C48.82 40.74 49.15 41.07 49.15 41.47V48.29C49.15 48.38 49.13 48.47 49.1 48.55C49.09 48.58 49.08 48.6 49.07 48.62ZM58.59 55.29C58.59 56.61 57.47 57.68 56.09 57.68H16C14.62 57.68 13.5 56.61 13.5 55.29V32.94C13.5 31.37 14.84 30.09 16.48 30.09H16.73H18.45C20.09 30.09 21.43 31.37 21.43 32.94V41.49V48.31C21.43 48.51 21.47 48.7 21.52 48.89C21.53 48.94 21.55 48.99 21.57 49.04C21.63 49.22 21.71 49.39 21.81 49.55V49.56C21.82 49.57 21.82 49.57 21.83 49.58C21.92 49.71 22.02 49.82 22.13 49.93C22.17 49.97 22.22 50 22.26 50.04C22.35 50.11 22.43 50.17 22.53 50.23C22.58 50.26 22.63 50.29 22.68 50.31C22.79 50.36 22.9 50.4 23.01 50.44C23.05 50.45 23.1 50.47 23.14 50.48C23.3 50.52 23.47 50.54 23.65 50.54H48.4C48.57 50.54 48.74 50.52 48.91 50.48C48.96 50.47 49 50.45 49.04 50.44C49.16 50.41 49.27 50.36 49.37 50.31C49.42 50.28 49.47 50.26 49.52 50.23C49.62 50.17 49.7 50.11 49.79 50.04C49.83 50 49.88 49.97 49.92 49.93C50.03 49.83 50.13 49.71 50.22 49.59C50.23 49.58 50.24 49.57 50.24 49.56C50.24 49.56 50.24 49.55 50.25 49.55C50.35 49.39 50.43 49.22 50.49 49.04C50.51 48.99 50.52 48.95 50.53 48.9C50.58 48.71 50.62 48.52 50.62 48.32V41.5V32.95C50.62 31.38 51.96 30.1 53.6 30.1H55.58C57.22 30.1 58.56 31.38 58.56 32.95V55.29H58.59Z" fill="#0022CD"/>
</svg>
