<svg width="72" height="72" viewBox="0 0 72 72" fill="none" xmlns="http://www.w3.org/2000/svg">
    <rect x="6" y="9" width="57" height="49" rx="4" fill="white"/>
    <path d="M15 28.75H19.8529C20.5433 28.75 21.1029 29.3096 21.1029 30V32C21.1029 32.6904 20.5433 33.25 19.8529 33.25H15C14.3096 33.25 13.75 32.6904 13.75 32V30C13.75 29.3096 14.3096 28.75 15 28.75Z" stroke="#0022CD" stroke-width="1.5"/>
    <path d="M15 36.75H19.8529C20.5433 36.75 21.1029 37.3096 21.1029 38V40C21.1029 40.6904 20.5433 41.25 19.8529 41.25H15C14.3096 41.25 13.75 40.6904 13.75 40V38C13.75 37.3096 14.3096 36.75 15 36.75Z" stroke="#0022CD" stroke-width="1.5"/>
    <path d="M15 44.75H19.8529C20.5433 44.75 21.1029 45.3096 21.1029 46V48C21.1029 48.6904 20.5433 49.25 19.8529 49.25H15C14.3096 49.25 13.75 48.6904 13.75 48V46C13.75 45.3096 14.3096 44.75 15 44.75Z" stroke="#0022CD" stroke-width="1.5"/>
    <path d="M26.3823 28.75H31.2353C31.9256 28.75 32.4853 29.3096 32.4853 30V32C32.4853 32.6904 31.9256 33.25 31.2353 33.25H26.3823C25.692 33.25 25.1323 32.6904 25.1323 32V30C25.1323 29.3096 25.692 28.75 26.3823 28.75Z" stroke="#0022CD" stroke-width="1.5"/>
    <path d="M26.3823 36.75H31.2353C31.9256 36.75 32.4853 37.3096 32.4853 38V40C32.4853 40.6904 31.9256 41.25 31.2353 41.25H26.3823C25.692 41.25 25.1323 40.6904 25.1323 40V38C25.1323 37.3096 25.692 36.75 26.3823 36.75Z" stroke="#0022CD" stroke-width="1.5"/>
    <path d="M26.3823 44.75H31.2353C31.9256 44.75 32.4853 45.3096 32.4853 46V48C32.4853 48.6904 31.9256 49.25 31.2353 49.25H26.3823C25.692 49.25 25.1323 48.6904 25.1323 48V46C25.1323 45.3096 25.692 44.75 26.3823 44.75Z" stroke="#0022CD" stroke-width="1.5"/>
    <path d="M37.7646 28.75H42.6176C43.3079 28.75 43.8676 29.3096 43.8676 30V32C43.8676 32.6904 43.3079 33.25 42.6176 33.25H37.7646C37.0743 33.25 36.5146 32.6904 36.5146 32V30C36.5146 29.3096 37.0743 28.75 37.7646 28.75Z" stroke="#0022CD" stroke-width="1.5"/>
    <path d="M37.7646 36.75H42.6176C43.3079 36.75 43.8676 37.3096 43.8676 38V40C43.8676 40.6904 43.3079 41.25 42.6176 41.25H37.7646C37.0743 41.25 36.5146 40.6904 36.5146 40V38C36.5146 37.3096 37.0743 36.75 37.7646 36.75Z" stroke="#0022CD" stroke-width="1.5"/>
    <path d="M37.7646 44.75H42.6176C43.3079 44.75 43.8676 45.3096 43.8676 46V48C43.8676 48.6904 43.3079 49.25 42.6176 49.25H37.7646C37.0743 49.25 36.5146 48.6904 36.5146 48V46C36.5146 45.3096 37.0743 44.75 37.7646 44.75Z" stroke="#0022CD" stroke-width="1.5"/>
    <path d="M49.147 28.75H53.9999C54.6903 28.75 55.2499 29.3096 55.2499 30V32C55.2499 32.6904 54.6903 33.25 53.9999 33.25H49.147C48.4566 33.25 47.897 32.6904 47.897 32V30C47.897 29.3096 48.4566 28.75 49.147 28.75Z" stroke="#0022CD" stroke-width="1.5"/>
    <path d="M49.147 36.75H53.9999C54.6903 36.75 55.2499 37.3096 55.2499 38V40C55.2499 40.6904 54.6903 41.25 53.9999 41.25H49.147C48.4566 41.25 47.897 40.6904 47.897 40V38C47.897 37.3096 48.4566 36.75 49.147 36.75Z" stroke="#0022CD" stroke-width="1.5"/>
    <path d="M49.147 44.75H53.9999C54.6903 44.75 55.2499 45.3096 55.2499 46V48C55.2499 48.6904 54.6903 49.25 53.9999 49.25H49.147C48.4566 49.25 47.897 48.6904 47.897 48V46C47.897 45.3096 48.4566 44.75 49.147 44.75Z" stroke="#0022CD" stroke-width="1.5"/>
    <path d="M41.165 57.358H41.153H8.77802C7.60702 57.358 6.617 56.369 6.617 55.198V21.956H62.673V39.186L62.675 39.234C62.675 39.661 63.021 40.007 63.448 40.007C63.875 40.007 64.221 39.661 64.221 39.234L64.223 39.191L64.222 11.853C64.254 10.829 63.883 9.866 63.175 9.135C62.477 8.414 61.506 8 60.511 8H8.77802C6.73002 8 5 9.73 5 11.778V55.131C5 57.179 6.73002 58.909 8.77802 58.909H41.158L41.164 58.908C41.592 58.908 41.939 58.561 41.939 58.133C41.94 57.704 41.593 57.358 41.165 57.358ZM6.617 11.844C6.617 10.616 7.58702 9.617 8.77802 9.617H60.445C61.617 9.617 62.606 10.606 62.606 11.778V20.273H6.61603L6.617 11.844Z" fill="#0022CD"/>
    <rect x="17" y="5" width="6" height="4" rx="1" fill="#0022CD"/>
    <rect x="47" y="5" width="6" height="4" rx="1" fill="#0022CD"/>
    <circle cx="55.5" cy="52.5" r="14.5" fill="white"/>
    <path d="M68 52.8496C68 54.4007 67.6998 55.9518 67.0994 57.4028C66.499 58.8538 65.6233 60.1547 64.5226 61.2555C63.4218 62.3563 62.1209 63.2319 60.6699 63.8323C59.2189 64.4327 57.6928 64.7329 56.1167 64.7329C54.5656 64.7329 53.0145 64.4327 51.5635 63.8323C50.1125 63.2319 48.8116 62.3563 47.7108 61.2555C46.6101 60.1547 45.7344 58.8538 45.134 57.4028C44.5336 55.9518 44.2334 54.4257 44.2334 52.8496C44.2334 49.6974 45.4843 46.6703 47.7108 44.4437C49.9374 42.2172 52.9645 40.9663 56.1167 40.9663C59.2689 40.9663 62.296 42.2172 64.5226 44.4437C66.7491 46.6953 68 49.7224 68 52.8496Z" fill="#CCFF69"/>
    <path fill-rule="evenodd" clip-rule="evenodd" d="M56.1167 62.8066C58.7686 62.8066 61.2953 61.7558 63.1466 59.8795C65.0229 58.0032 66.0737 55.4764 66.0737 52.8496C66.0737 50.1978 65.0229 47.671 63.1466 45.8197C61.2703 43.9434 58.7435 42.8927 56.1167 42.8927C53.4648 42.8927 50.9381 43.9434 49.0868 45.8197C47.2105 47.696 46.1597 50.2228 46.1597 52.8496C46.1597 55.5015 47.2105 58.0282 49.0868 59.8795C50.9631 61.7558 53.4899 62.8066 56.1167 62.8066ZM56.1167 64.7329C59.2689 64.7329 62.296 63.482 64.5226 61.2555C66.7491 59.0289 68 56.0018 68 52.8496C68 49.6974 66.7491 46.6703 64.5226 44.4437C62.296 42.2172 59.2689 40.9663 56.1167 40.9663C52.9645 40.9663 49.9374 42.2172 47.7108 44.4437C45.4843 46.6703 44.2334 49.6974 44.2334 52.8496C44.2334 56.0018 45.4843 59.0289 47.7108 61.2555C49.9374 63.482 52.9645 64.7329 56.1167 64.7329Z" fill="#0022CD"/>
    <path d="M53.6393 45.7181C53.5011 45.9576 53.582 46.2655 53.8179 46.4058L57.1916 48.4038C57.4275 48.544 57.7309 48.4619 57.869 48.2224C58.0039 47.983 57.9263 47.6751 57.6904 47.5382L54.3167 45.5368C54.0808 45.3965 53.7775 45.4787 53.6393 45.7181Z" fill="#0022CD"/>
    <path d="M49.3659 53.1147C49.2277 53.3542 49.3086 53.6621 49.5445 53.8024L53.1103 55.8995C53.3462 56.0398 53.6495 55.9577 53.7877 55.7182C53.9259 55.4787 53.845 55.1708 53.6091 55.034L50.0433 52.9368C49.8074 52.7931 49.5041 52.8752 49.3659 53.1147Z" fill="#0022CD"/>
    <path d="M55.6616 53.0806L61.863 56.7549C62.355 57.0457 62.9853 56.8781 63.2751 56.3786C63.2751 56.3786 63.2751 56.3752 63.2785 56.3752C63.5616 55.8757 63.3965 55.2393 62.9044 54.9485L56.6997 51.2742C56.5682 51.5992 56.4199 51.9242 56.2481 52.2253C56.0829 52.5092 55.8807 52.8 55.6616 53.0806Z" fill="#0022CD"/>
    <path d="M50.1445 52.776L53.7069 54.8595C53.7069 54.8595 55.3213 53.4363 56.0796 52.1089C56.902 50.672 57.2491 48.6432 57.2491 48.6432L53.68 46.5494C53.68 46.5494 52.16 47.7058 51.2736 49.259C50.4108 50.778 50.1445 52.776 50.1445 52.776Z" fill="#0022CD"/>
    <path d="M48.375 59.6252H56.3458C56.3458 59.6252 56.2211 57.3091 54.6909 57.3091C53.5046 57.3091 51.2229 57.3091 50.1444 57.3091C48.6581 57.3091 48.375 59.6252 48.375 59.6252Z" fill="#0022CD"/>
</svg>
