<svg width="72" height="72" viewBox="0 0 72 72" fill="none" xmlns="http://www.w3.org/2000/svg">
    <path d="M42.5647 42.505L36.0447 35.985L68.0347 35.985L42.5647 42.505Z" fill="white"/>
    <path d="M42.5647 29.46L36.0447 35.985L36.0447 3.98999L42.5647 29.46Z" fill="white"/>
    <path d="M29.5195 42.505L36.0447 35.985L36.0445 67.975L29.5195 42.505Z" fill="white"/>
    <path d="M42.5646 29.4599L36.0446 35.9849L68.0346 35.9849L42.5646 29.4599Z" fill="#E4EAF5"/>
    <path d="M42.5646 42.5049L36.0446 35.9849V67.9749L42.5646 42.5049Z" fill="#E4EAF5"/>
    <path d="M29.5195 29.4599L36.0446 35.9849L36.0445 3.98987L29.5195 29.4599Z" fill="#E4EAF5"/>
    <path d="M29.5197 29.46L36.0447 35.985L4.05469 35.985L29.5197 29.46Z" fill="#65D78D"/>
    <path d="M35.4995 4.00999L35.4995 67.99C35.4995 68.265 35.7245 68.49 35.9995 68.49C36.2745 68.49 36.4995 68.265 36.4995 67.99L36.4995 36.5L67.9895 36.5C68.2645 36.5 68.4895 36.275 68.4895 36C68.4895 35.725 68.2645 35.5 67.9895 35.5L36.4995 35.5L36.4995 4.00999C36.4995 3.73499 36.2745 3.50999 35.9995 3.50999C35.7245 3.50999 35.4995 3.73 35.4995 4.00999Z" fill="#A8BEEA"/>
    <path d="M29.5198 42.505L36.0448 35.985H4.05481L29.5198 42.505Z" fill="#133DBD"/>
    <path d="M35.2748 3.825L28.8598 28.86L3.82477 35.275C3.48977 35.36 3.25977 35.655 3.25977 36C3.25977 36.345 3.48977 36.64 3.82477 36.725L28.8598 43.14L35.2748 68.175C35.3598 68.51 35.6548 68.74 35.9998 68.74C36.3448 68.74 36.6398 68.51 36.7248 68.175L43.1348 43.135L68.1748 36.725C68.5048 36.64 68.7398 36.34 68.7398 36C68.7398 35.66 68.5098 35.36 68.1748 35.275L43.1348 28.865L36.7248 3.825C36.6398 3.495 36.3398 3.26001 35.9998 3.26001C35.6598 3.26001 35.3598 3.49001 35.2748 3.825ZM29.5298 30.24L34.7948 35.5H8.98477L29.5298 30.24ZM8.98477 36.5H34.7948L29.5298 41.76L8.98477 36.5ZM35.9998 64.97L30.2398 42.47L35.9998 36.705L41.7598 42.47L35.9998 64.97ZM64.9698 36L42.4698 41.76L36.7048 36L42.4648 30.24L64.9698 36ZM41.7598 29.53L35.9998 35.295L30.2398 29.535L35.9998 7.035L41.7598 29.53Z" fill="#133DBD"/>
</svg>
