<svg width="72" height="72" viewBox="0 0 72 72" fill="none" xmlns="http://www.w3.org/2000/svg">
    <rect x="29" y="7" width="32" height="58" fill="white"/>
    <rect x="11" y="27" width="26" height="38" fill="white"/>
    <path d="M20.8568 33.3794H18.1558V36.0805H20.8568V33.3794Z" fill="#65D78D"/>
    <path d="M30.0795 33.3794H27.3784V36.0805H30.0795V33.3794Z" fill="#65D78D"/>
    <path d="M30.0795 41.6213H27.3784V44.3224H30.0795V41.6213Z" fill="#65D78D"/>
    <path d="M62.065 6.25772C61.8992 6.0909 61.6784 6 61.4437 6H28.6352C28.1537 6 27.7632 6.39158 27.7632 6.87206V26.1652H11.268C10.7865 26.1652 10.396 26.5567 10.396 27.0382V41.2878C10.396 41.7692 10.7875 42.1608 11.268 42.1608C11.7485 42.1608 12.1401 41.7692 12.1401 41.2878V27.9083H36.1601V64.2539H15.6772V59.8796H15.904C15.9759 59.8796 16.0458 59.8706 16.1158 59.8527C17.4993 59.514 18.6161 58.8318 19.4352 57.8249C20.6299 56.3515 20.9126 54.6113 20.3012 52.5066C19.633 50.1991 18.2455 48.1064 15.936 45.9217L15.3706 45.4223C15.0299 45.1266 14.5275 45.1336 14.2018 45.4373C11.7655 47.7018 10.2481 49.8525 9.42802 52.2079C8.97351 53.5065 8.88161 54.6493 9.14932 55.7002C9.69573 57.8598 11.2361 59.2653 13.7274 59.8766L13.9301 59.8726V64.2539H11.269C10.7875 64.2539 10.397 64.6455 10.397 65.1269C10.397 65.6084 10.7885 66 11.269 66H61.4457C61.9271 66 62.3177 65.6084 62.3177 65.1269V6.87006C62.3177 6.63931 62.2288 6.42155 62.065 6.25772ZM14.8072 52.7733C14.3257 52.7733 13.9351 53.1639 13.9351 53.6454V58.1455L13.7653 58.0976C12.1411 57.6401 11.2111 56.743 10.8405 55.2736V55.2726C10.6597 54.5514 10.7356 53.7603 11.0782 52.7843C11.7305 50.9093 12.8893 49.1862 14.7243 47.3612L14.8172 47.2693L14.9111 47.3602C16.8829 49.2631 18.0637 51.0532 18.628 52.9941C19.0766 54.5554 18.9067 55.7062 18.0806 56.727C17.5342 57.4003 16.804 57.8548 15.8491 58.1165L15.6802 58.1625V53.6464C15.6792 53.1639 15.2877 52.7733 14.8072 52.7733ZM53.1207 64.2569H45.2992V49.345H53.1207V64.2569ZM60.5716 64.2569H54.8688V48.472C54.8688 47.9905 54.4772 47.5999 53.9957 47.5999H44.4261C43.9446 47.5999 43.554 47.9915 43.554 48.472V64.2569H37.9112V27.0382C37.9112 26.5567 37.5196 26.1652 37.0391 26.1652H29.5113V22.9606H44.3682C44.8496 22.9606 45.2402 22.5691 45.2402 22.0886C45.2402 21.6081 44.8486 21.2165 44.3682 21.2165H29.5073V17.9321H46.8794C47.3609 17.9321 47.7515 17.5405 47.7515 17.059C47.7515 16.5775 47.3599 16.187 46.8794 16.187H29.5073V12.9025H51.909C52.3905 12.9025 52.782 12.5109 52.782 12.0305C52.782 11.55 52.3905 11.1574 51.909 11.1574H29.5073V7.74711H60.5716V64.2569Z" fill="#133DBD"/>
    <path d="M17.4871 37.4149H21.5227C21.8913 37.4149 22.19 37.1162 22.19 36.7476V32.712C22.19 32.3434 21.8913 32.0447 21.5227 32.0447H17.4871C17.1185 32.0447 16.8198 32.3434 16.8198 32.712V36.7476C16.8198 37.1162 17.1185 37.4149 17.4871 37.4149ZM18.1554 33.3792H20.8565V36.0803H18.1554V33.3792Z" fill="#133DBD"/>
    <path d="M26.043 44.9898C26.043 45.3584 26.3416 45.657 26.7102 45.657H30.7459C31.1145 45.657 31.4132 45.3584 31.4132 44.9898V40.9541C31.4132 40.5855 31.1145 40.2869 30.7459 40.2869H26.7102C26.3416 40.2869 26.043 40.5855 26.043 40.9541V44.9898ZM27.3785 41.6214H30.0796V44.3225H27.3785V41.6214Z" fill="#133DBD"/>
    <path d="M26.7112 37.4149H30.7469C31.1155 37.4149 31.4141 37.1162 31.4141 36.7476V32.712C31.4141 32.3434 31.1155 32.0447 30.7469 32.0447H26.7112C26.3426 32.0447 26.0439 32.3434 26.0439 32.712V36.7476C26.0429 37.1162 26.3416 37.4149 26.7112 37.4149ZM27.3785 33.3792H30.0796V36.0803H27.3785V33.3792Z" fill="#133DBD"/>
</svg>
