<svg width="72" height="72" viewBox="0 0 72 72" fill="none" xmlns="http://www.w3.org/2000/svg">
    <path d="M48.8911 42.832V40.838L39.2721 51.573C39.1401 51.72 38.9501 51.81 38.7521 51.818C38.5631 51.817 38.361 51.755 38.217 51.621L33.821 47.511L24.874 56.552H49.6361L49.629 43.568C49.235 43.571 48.8911 43.239 48.8911 42.832Z" fill="#65D78D"/>
    <path d="M52.524 16.228H48.368V12.872C48.368 12.392 47.9761 12 47.4961 12C47.0151 12 46.623 12.391 46.623 12.872V16.228H26.879V12.872C26.879 12.392 26.4871 12 26.0061 12C25.5261 12 25.134 12.391 25.134 12.872V16.228H20.9771C17.1301 16.228 14 19.358 14 23.205V51.318C14 55.166 17.1301 58.296 20.9771 58.296H52.525C56.373 58.296 59.5031 55.166 59.5031 51.318V23.205C59.5021 19.357 56.372 16.228 52.524 16.228ZM57.7581 51.318C57.7581 54.204 55.41 56.551 52.525 56.551H49.6371H24.875L33.822 47.51L38.218 51.62C38.363 51.754 38.5641 51.816 38.7531 51.817C38.9501 51.809 39.1411 51.719 39.2731 51.572L48.8921 40.837V42.831C48.8921 43.238 49.2361 43.57 49.6311 43.567C49.7591 43.566 49.8921 43.531 50.0211 43.45C50.2401 43.311 50.3711 43.08 50.3711 42.831V38.906C50.3731 38.498 50.043 38.164 49.634 38.163L45.3031 38.606C44.9251 38.646 44.64 38.962 44.64 39.342L44.644 39.415C44.663 39.611 44.7561 39.788 44.9091 39.913C45.0601 40.038 45.253 40.096 45.447 40.079L47.8031 39.835L38.676 50.021L34.3091 45.938C34.0171 45.664 33.564 45.672 33.28 45.957L22.7421 56.551H20.979C18.093 56.551 15.7471 54.203 15.7471 51.318V33.31H57.7611V51.318H57.7581ZM57.7581 31.566H15.744V23.204C15.744 20.318 18.0911 17.971 20.9761 17.971H25.1411V22.853C25.1411 23.334 25.5331 23.725 26.0131 23.725C26.4931 23.725 26.885 23.334 26.885 22.853V17.971H46.6221V22.853C46.6221 23.334 47.0141 23.725 47.4951 23.725C47.9751 23.725 48.3671 23.334 48.3671 22.853V17.971H52.5231C55.4091 17.971 57.7561 20.319 57.7561 23.204V31.566H57.7581Z" fill="#133DBD"/>
</svg>
