<svg width="72" height="72" viewBox="0 0 72 72" fill="none" xmlns="http://www.w3.org/2000/svg">
    <path d="M10.83 66.186C10.372 66.186 10 66.557 10 67.016C10 67.474 10.371 67.846 10.83 67.846H62.377C62.835 67.846 63.207 67.475 63.207 67.016C63.207 66.558 62.836 66.186 62.377 66.186H56.168V42.057H58.513C58.971 42.057 59.343 41.686 59.343 41.227V37.701V37.7V37.699C59.343 37.698 59.343 37.698 59.343 37.697C59.343 37.597 59.321 37.5 59.284 37.406C59.282 37.396 59.281 37.386 59.278 37.376C59.277 37.374 59.276 37.373 59.275 37.372C59.254 37.325 59.218 37.286 59.188 37.243C59.182 37.235 59.177 37.225 59.171 37.217C59.133 37.144 59.076 37.086 59.011 37.037L36.959 18.27C36.925 18.247 36.889 18.227 36.851 18.21C36.805 18.178 36.755 18.15 36.703 18.128C36.65 18.11 36.595 18.096 36.54 18.088C36.433 18.06 36.32 18.06 36.214 18.089C36.161 18.097 36.108 18.109 36.057 18.127C36.004 18.15 35.954 18.178 35.907 18.211C35.87 18.228 35.834 18.248 35.8 18.27L13.709 37.071C13.62 37.145 13.546 37.234 13.494 37.339C13.492 37.342 13.49 37.345 13.488 37.348C13.456 37.414 13.444 37.488 13.431 37.563C13.424 37.6 13.41 37.635 13.409 37.672C13.409 37.682 13.403 37.691 13.403 37.701V41.227C13.403 41.685 13.774 42.057 14.233 42.057H16.578V66.186H10.83ZM36.378 20.002L56.2 36.871H19.649H17.157H16.556L36.378 20.002ZM15.061 40.398V38.591L57.684 38.533V40.399H15.061V40.398ZM40.252 66.186H32.492V52.16H40.252V66.186ZM54.509 66.186H41.911V51.33C41.911 50.872 41.54 50.5 41.081 50.5H31.662C31.204 50.5 30.832 50.871 30.832 51.33V66.186H18.234V42.057H54.508V66.186H54.509Z" fill="#0022CD"/>
    <path d="M35.8611 4L37.3051 8.479H42.0061C40.8121 9.346 39.4512 10.308 38.1942 11.218C38.6882 12.741 39.1641 14.248 39.6381 15.697C38.3911 14.792 37.1911 13.95 35.8261 12.958C34.5331 13.896 33.2701 14.806 32.0511 15.697C32.5061 14.296 33.0171 12.693 33.4941 11.218C32.2721 10.331 30.9571 9.405 29.6821 8.479C31.1581 8.478 32.8311 8.476 34.3831 8.479C34.8751 6.959 35.3931 5.438 35.8611 4Z" fill="#CCFF69"/>
    <path d="M50.4541 5.71606L51.6862 9.53706H55.6971C54.6781 10.2771 53.5172 11.0981 52.4442 11.8741C52.8662 13.1741 53.2721 14.4601 53.6761 15.6951C52.6121 14.9231 51.5882 14.2041 50.4232 13.3581C49.3202 14.1591 48.2421 14.9351 47.2021 15.6951C47.5901 14.4991 48.0261 13.1321 48.4341 11.8741C47.3911 11.1171 46.2692 10.3271 45.1812 9.53706C46.4412 9.53606 47.8681 9.53406 49.1921 9.53706C49.6131 8.24106 50.0551 6.94406 50.4541 5.71606Z" fill="#CCFF69"/>
    <path d="M21.262 5.71606L22.494 9.53706H26.505C25.486 10.2771 24.325 11.0981 23.252 11.8741C23.674 13.1741 24.08 14.4601 24.484 15.6951C23.42 14.9231 22.396 14.2041 21.231 13.3581C20.128 14.1591 19.05 14.9351 18.01 15.6951C18.398 14.4991 18.834 13.1321 19.242 11.8741C18.199 11.1171 17.077 10.3271 15.989 9.53706C17.249 9.53606 18.676 9.53406 20 9.53706C20.421 8.24106 20.863 6.94406 21.262 5.71606Z" fill="#CCFF69"/>
</svg>
