<svg width="72" height="72" viewBox="0 0 72 72" fill="none" xmlns="http://www.w3.org/2000/svg">
    <path d="M22.6219 36.644C19.9779 36.644 17.8259 38.796 17.8259 41.44C17.8259 44.084 19.9779 46.236 22.6219 46.236C25.2659 46.236 27.4169 44.084 27.4169 41.44C27.4169 38.796 25.2659 36.644 22.6219 36.644Z" fill="#65D78D"/>
    <path d="M22.622 35.027C19.086 35.027 16.209 37.904 16.209 41.44C16.209 44.976 19.086 47.853 22.622 47.853C26.158 47.853 29.035 44.976 29.035 41.44C29.035 37.904 26.158 35.027 22.622 35.027ZM22.622 46.236C19.978 46.236 17.826 44.084 17.826 41.44C17.826 38.796 19.978 36.644 22.622 36.644C25.266 36.644 27.417 38.796 27.417 41.44C27.417 44.084 25.266 46.236 22.622 46.236Z" fill="#133DBD"/>
    <path d="M26.447 51.591C23.55 50.569 20.428 50.736 17.657 52.063C15.292 53.194 13.641 54.758 12.501 56.955C14.008 58.311 17.644 60.493 21.891 60.509C21.92 60.509 21.949 60.509 21.978 60.509C26.415 60.509 30.026 59.31 32.725 56.943C31.367 54.435 29.157 52.546 26.447 51.591Z" fill="#65D78D"/>
    <path d="M65.955 9H33.175C32.729 9 32.366 9.362 32.366 9.809V29.85C29.573 27.989 26.223 26.901 22.622 26.901C12.905 26.901 5 34.806 5 44.523C5 49.801 7.33599 54.541 11.025 57.774C12.653 59.47 16.856 62.038 21.701 62.12C21.725 62.121 21.748 62.121 21.772 62.123C21.81 62.123 21.848 62.127 21.886 62.127C21.903 62.127 21.92 62.127 21.937 62.127C22.165 62.136 22.393 62.144 22.622 62.144C24.599 62.144 26.498 61.812 28.273 61.209C30.32 60.562 32.124 59.568 33.674 58.233C37.676 55 40.243 50.057 40.243 44.523C40.243 42.903 40.019 41.335 39.608 39.844L49.779 34.032H65.954C66.401 34.032 66.763 33.67 66.763 33.223V9.808C66.763 9.361 66.401 9 65.955 9ZM21.979 60.509C21.95 60.509 21.921 60.509 21.892 60.509C17.645 60.493 14.009 58.311 12.502 56.955C13.642 54.758 15.293 53.194 17.658 52.063C20.429 50.736 23.55 50.568 26.448 51.591C29.158 52.546 31.368 54.435 32.727 56.943C30.027 59.31 26.415 60.509 21.979 60.509ZM33.942 55.824C32.379 53.138 29.948 51.11 26.985 50.065C23.679 48.901 20.12 49.091 16.959 50.603C14.443 51.807 12.579 53.516 11.286 55.807C8.403 52.911 6.61699 48.922 6.61699 44.522C6.61699 35.697 13.797 28.517 22.622 28.517C26.29 28.517 29.664 29.771 32.366 31.854V42.588C32.366 42.876 32.52 43.142 32.769 43.288C32.895 43.361 33.035 43.397 33.175 43.397C33.314 43.397 33.452 43.361 33.576 43.29L38.141 40.681C38.446 41.914 38.626 43.196 38.626 44.521C38.626 48.93 36.835 52.927 33.942 55.824ZM65.146 32.414H49.564C49.423 32.414 49.285 32.451 49.163 32.521L33.983 41.195V10.617H65.146V32.414Z" fill="#133DBD"/>
</svg>
