<svg width="72" height="72" viewBox="0 0 72 72" fill="none" xmlns="http://www.w3.org/2000/svg">
    <path d="M21 41.5C25.5 45 29.4 54.5 21 54.5C12.9999 54.5 15.5 46 21 41.5Z" fill="#CCFF69"/>
    <path d="M56.9108 6H34.0748H31.0058H17.3058C16.8168 6 16.4188 6.398 16.4188 6.887V36.753C16.4188 37.242 16.8168 37.64 17.3058 37.64C17.7948 37.64 18.1928 37.242 18.1928 36.753V33.816V33.807H19.5288V32.052H18.1928V20.258H19.5288V18.502H18.1928V18.5V7.772H56.0178V18.501V18.503H54.4768V20.259H56.0178V32.053H54.4768V33.808H56.0178V33.817V45.601H54.4768V47.357H56.0178V63.875H21.7878V55.598H22.0178C22.0908 55.598 22.1618 55.589 22.2328 55.571C23.6398 55.227 24.7748 54.533 25.6078 53.51C26.8218 52.012 27.1098 50.243 26.4878 48.104C25.8078 45.758 24.3978 43.63 22.0508 41.409L21.4758 40.901C21.1298 40.6 20.6188 40.607 20.2878 40.916C17.8108 43.218 16.2688 45.405 15.4348 47.799C14.9728 49.119 14.8798 50.281 15.1518 51.349C15.7068 53.545 17.2728 54.974 19.8058 55.595L20.0118 55.591V63.876H17.3068C16.8178 63.876 16.4198 64.274 16.4198 64.763C16.4198 65.252 16.8178 65.65 17.3068 65.65H56.9118C57.4008 65.65 57.7988 65.252 57.7988 64.763V63.878V6.887C57.7978 6.398 57.3998 6 56.9108 6ZM20.9038 48.371C20.4148 48.371 20.0168 48.768 20.0168 49.258V53.833L19.8438 53.784C18.1928 53.319 17.2478 52.406 16.8698 50.913V50.912C16.6858 50.179 16.7628 49.375 17.1118 48.382C17.7748 46.476 18.9528 44.725 20.8178 42.869L20.9118 42.775L21.0078 42.867C23.0128 44.802 24.2128 46.622 24.7868 48.595C25.2428 50.182 25.0708 51.352 24.2308 52.39C23.6758 53.075 22.9328 53.536 21.9618 53.802L21.7898 53.849V49.257C21.7908 48.769 21.3938 48.371 20.9038 48.371Z" fill="#0022CD"/>
    <path d="M30.2837 18.5029H27.5947V20.2589H30.2837V18.5029Z" fill="#0022CD"/>
    <path d="M24.9058 18.5029H22.2178V20.2589H24.9058V18.5029Z" fill="#0022CD"/>
    <path d="M51.7888 18.5029H49.1008V20.2589H51.7888V18.5029Z" fill="#0022CD"/>
    <path d="M46.4129 18.5029H43.7249V20.2589H46.4129V18.5029Z" fill="#0022CD"/>
    <path d="M35.6597 18.5029H32.9717V20.2589H35.6597V18.5029Z" fill="#0022CD"/>
    <path d="M41.0357 18.5029H38.3477V20.2589H41.0357V18.5029Z" fill="#0022CD"/>
    <path d="M35.6597 32.052H32.9717V33.807H35.6597V32.052Z" fill="#0022CD"/>
    <path d="M41.0357 32.052H38.3477V33.807H41.0357V32.052Z" fill="#0022CD"/>
    <path d="M24.9058 32.052H22.2178V33.807H24.9058V32.052Z" fill="#0022CD"/>
    <path d="M51.7888 32.052H49.1008V33.807H51.7888V32.052Z" fill="#0022CD"/>
    <path d="M30.2837 32.052H27.5947V33.807H30.2837V32.052Z" fill="#0022CD"/>
    <path d="M46.4129 32.052H43.7249V33.807H46.4129V32.052Z" fill="#0022CD"/>
    <path d="M46.4129 45.6H43.7249V47.356H46.4129V45.6Z" fill="#0022CD"/>
    <path d="M51.7898 45.6H49.1018V47.356H51.7898V45.6Z" fill="#0022CD"/>
    <path d="M35.6597 45.6H32.9717V47.356H35.6597V45.6Z" fill="#0022CD"/>
    <path d="M41.0357 45.6H38.3477V47.356H41.0357V45.6Z" fill="#0022CD"/>
</svg>
