<svg width="72" height="72" viewBox="0 0 72 72" fill="none" xmlns="http://www.w3.org/2000/svg">
    <path d="M66.4137 56.68H4.75366L12.1837 36.75H58.8537L66.4137 56.68Z" fill="#CCFF69"/>
    <path d="M66.4136 57.43H4.75364C4.50364 57.43 4.27364 57.31 4.13364 57.11C3.99364 56.91 3.96364 56.65 4.04364 56.42L11.4836 36.49C11.5936 36.19 11.8736 36 12.1836 36H58.8536C59.1636 36 59.4436 36.19 59.5536 36.48L67.1136 56.41C67.2036 56.64 67.1736 56.9 67.0336 57.1C66.8936 57.3 66.6636 57.43 66.4136 57.43ZM5.83364 55.93H65.3336L58.3336 37.5H12.7036L5.83364 55.93Z" fill="#0022CD"/>
</svg>
