<svg width="72" height="72" viewBox="0 0 72 72" fill="none" xmlns="http://www.w3.org/2000/svg">
    <path d="M29.4949 42.5651L36.0149 36.0451V68.0351L29.4949 42.5651Z" fill="white"/>
    <path d="M42.54 42.5651L36.0149 36.0451H68.01L42.54 42.5651Z" fill="white"/>
    <path d="M29.4949 29.52L36.0149 36.0451L4.0249 36.045L29.4949 29.52Z" fill="white"/>
    <path d="M42.54 42.5651L36.015 36.0451V68.0351L42.54 42.5651Z" fill="#EBF0F6"/>
    <path d="M29.4949 42.5651L36.015 36.0451H4.0249L29.4949 42.5651Z" fill="#EBF0F6"/>
    <path d="M42.54 29.52L36.015 36.0451L68.01 36.045L42.54 29.52Z" fill="#EBF0F6"/>
    <path d="M42.5396 29.5201L36.0146 36.0451V4.05505L42.5396 29.5201Z" fill="#CCFF69"/>
    <path d="M67.9898 35.5H4.00977C3.73477 35.5 3.50977 35.725 3.50977 36C3.50977 36.275 3.73477 36.5 4.00977 36.5H35.4998V67.99C35.4998 68.265 35.7248 68.49 35.9998 68.49C36.2748 68.49 36.4998 68.265 36.4998 67.99V36.5H67.9898C68.2648 36.5 68.4898 36.275 68.4898 36C68.4898 35.725 68.2698 35.5 67.9898 35.5Z" fill="#C4D3E4"/>
    <path d="M29.4948 29.5201L36.0147 36.0451V4.05505L29.4948 29.5201Z" fill="#0022CD"/>
    <path d="M68.1748 35.275L43.1398 28.86L36.7248 3.82501C36.6398 3.49001 36.3448 3.26001 35.9998 3.26001C35.6548 3.26001 35.3598 3.49001 35.2748 3.82501L28.8598 28.86L3.82477 35.275C3.48977 35.36 3.25977 35.655 3.25977 36C3.25977 36.345 3.48977 36.64 3.82477 36.725L28.8648 43.135L35.2748 68.175C35.3598 68.505 35.6598 68.74 35.9998 68.74C36.3398 68.74 36.6398 68.51 36.7248 68.175L43.1348 43.135L68.1748 36.725C68.5048 36.64 68.7398 36.34 68.7398 36C68.7398 35.66 68.5098 35.36 68.1748 35.275ZM41.7598 29.53L36.4998 34.795V8.98501L41.7598 29.53ZM35.4998 8.98501V34.795L30.2398 29.53L35.4998 8.98501ZM7.02977 36L29.5298 30.24L35.2948 36L29.5298 41.76L7.02977 36ZM35.9998 64.97L30.2398 42.47L35.9998 36.705L41.7598 42.465L35.9998 64.97ZM42.4698 41.76L36.7048 36L42.4648 30.24L64.9648 36L42.4698 41.76Z" fill="#0022CD"/>
</svg>
