<svg width="72" height="72" viewBox="0 0 72 72" fill="none" xmlns="http://www.w3.org/2000/svg">
    <path d="M61.2251 15.1265H56.6531V11.7315C56.6531 11.3295 56.3251 11.0015 55.9231 11.0015H50.0421C49.9991 10.9995 49.9531 10.9995 49.9101 11.0015L49.8941 11.0035C49.5441 11.0715 49.2951 11.3785 49.3011 11.7315V15.1265L15.875 15.1275C15.83 15.1205 15.7821 15.1215 15.7211 15.1295C15.6131 15.1525 15.5141 15.1985 15.4291 15.2635L11.3051 18.2095C11.1461 18.3225 11.0411 18.4905 11.0101 18.6825C10.9781 18.8755 11.0231 19.0695 11.1361 19.2275C11.1831 19.2925 11.2401 19.3495 11.3051 19.3955L15.4281 22.3415C15.5531 22.4325 15.7021 22.4765 15.8601 22.4785H22.2001V25.7325L17.0531 25.7335C17.0081 25.7275 16.9611 25.7295 16.9021 25.7345C16.5521 25.8015 16.3031 26.1075 16.3091 26.4625V50.0295C16.3091 50.4315 16.637 50.7595 17.039 50.7595H45.3181C45.7191 50.7595 46.0471 50.4315 46.0481 50.0295V26.4625C46.0471 26.0605 45.7191 25.7325 45.3181 25.7325H40.156V22.4785H49.302V61.2235C49.302 61.6255 49.6301 61.9535 50.0321 61.9535H55.9231C56.3251 61.9535 56.6531 61.6255 56.6531 61.2235V22.4785H61.2251C61.6271 22.4785 61.9551 22.1505 61.9551 21.7485V15.8575C61.9551 15.4545 61.6271 15.1265 61.2251 15.1265ZM60.4951 16.5865V21.0185H56.6521V16.5865H60.4951ZM55.1931 12.4615V21.7365C55.1911 21.7695 55.1911 21.8005 55.1931 21.8205V60.4925H50.7611V21.8685C50.7641 21.8245 50.7641 21.7805 50.7611 21.7475V15.8645C50.7621 15.8415 50.7621 15.8175 50.7611 15.8015V12.4615H55.1931ZM17.7701 49.2985V27.1915H44.5891V49.2985H17.7701ZM23.6611 25.7315V22.4775H38.6981V25.7315H23.6611ZM49.302 16.5865V21.0185H16.1091L12.9931 18.8025L16.1091 16.5875H49.302V16.5865Z" fill="#0022CD"/>
    <path d="M44.5621 27.2125H17.7671V49.3075H44.5621V27.2125Z" fill="#CCFF69"/>
    <path d="M22.6821 32.5985H23.3481V32.3275C23.3481 31.7165 23.4771 31.2735 23.7341 30.9995C23.9911 30.7265 24.3651 30.5895 24.8541 30.5895C25.3691 30.5895 25.7971 30.6505 26.1381 30.7725L25.8972 31.7775C25.7492 31.7255 25.6181 31.6925 25.5051 31.6755C25.3931 31.6595 25.2751 31.6515 25.1531 31.6515C25.0241 31.6515 24.9231 31.6715 24.8491 31.7095C24.7751 31.7475 24.7202 31.8075 24.6852 31.8885C24.6502 31.9685 24.6271 32.0685 24.6171 32.1875C24.6081 32.3075 24.6031 32.4435 24.6031 32.5985H25.6652V33.6605H24.6031V37.4265H23.3481V33.6605H22.6821V32.5985Z" fill="#0022CD"/>
    <path d="M25.9463 35.0124C25.9463 34.1954 26.1463 33.5654 26.5453 33.1244C26.9443 32.6834 27.5043 32.4624 28.2253 32.4624C28.6113 32.4624 28.9463 32.5234 29.2303 32.6454C29.5133 32.7674 29.7483 32.9394 29.9353 33.1614C30.1223 33.3844 30.2623 33.6524 30.3553 33.9684C30.4483 34.2834 30.4953 34.6314 30.4953 35.0114C30.4953 35.8284 30.2972 36.4584 29.9012 36.8994C29.5052 37.3404 28.9473 37.5614 28.2263 37.5614C27.8403 37.5614 27.5053 37.5004 27.2223 37.3784C26.9393 37.2564 26.7023 37.0834 26.5123 36.8614C26.3223 36.6394 26.1803 36.3704 26.0873 36.0554C25.9923 35.7394 25.9463 35.3914 25.9463 35.0124ZM27.2393 35.0124C27.2393 35.2244 27.2593 35.4214 27.2973 35.6014C27.3363 35.7824 27.3943 35.9394 27.4713 36.0744C27.5493 36.2094 27.6503 36.3144 27.7753 36.3884C27.9003 36.4624 28.0502 36.4994 28.2242 36.4994C28.5532 36.4994 28.7973 36.3804 28.9583 36.1424C29.1193 35.9044 29.2003 35.5284 29.2003 35.0134C29.2003 34.5694 29.1263 34.2104 28.9783 33.9364C28.8303 33.6634 28.5792 33.5264 28.2242 33.5264C27.9152 33.5264 27.6742 33.6424 27.5002 33.8744C27.3272 34.1044 27.2393 34.4844 27.2393 35.0124Z" fill="#0022CD"/>
    <path d="M34.0271 33.7764C33.8271 33.7054 33.6471 33.6704 33.4861 33.6704C33.2611 33.6704 33.0721 33.7304 32.9211 33.8494C32.7701 33.9684 32.6691 34.1214 32.6171 34.3084V37.4274H31.3621V32.5994H32.3371L32.4821 33.2364H32.5211C32.6311 32.9984 32.7791 32.8144 32.9651 32.6854C33.1521 32.5564 33.3711 32.4924 33.6221 32.4924C33.7891 32.4924 33.9791 32.5274 34.1921 32.5984L34.0271 33.7764Z" fill="#0022CD"/>
    <path d="M25.7912 41.8494C25.5912 41.7784 25.4112 41.7434 25.2502 41.7434C25.0252 41.7434 24.8362 41.8034 24.6852 41.9224C24.5342 42.0414 24.4332 42.1944 24.3812 42.3814V45.5004H23.1262V40.6724H24.1012L24.2462 41.3094H24.2852C24.3952 41.0714 24.5432 40.8874 24.7292 40.7584C24.9162 40.6294 25.1352 40.5654 25.3862 40.5654C25.5532 40.5654 25.7432 40.6004 25.9562 40.6714L25.7912 41.8494Z" fill="#0022CD"/>
    <path d="M30.3772 45.0835C30.1842 45.2375 29.9222 45.3685 29.5912 45.4745C29.2592 45.5805 28.9062 45.6345 28.5332 45.6345C27.7542 45.6345 27.1852 45.4075 26.8242 44.9535C26.4632 44.4995 26.2832 43.8765 26.2832 43.0845C26.2832 42.2345 26.4862 41.5975 26.8912 41.1725C27.2962 40.7475 27.8662 40.5355 28.6002 40.5355C28.8442 40.5355 29.0832 40.5675 29.3152 40.6325C29.5462 40.6965 29.7532 40.8035 29.9332 40.9515C30.1132 41.0995 30.2582 41.2995 30.3682 41.5505C30.4772 41.8015 30.5322 42.1145 30.5322 42.4875C30.5322 42.6225 30.5242 42.7675 30.5082 42.9215C30.4922 43.0755 30.4682 43.2365 30.4362 43.4045H27.5482C27.5672 43.8095 27.6722 44.1165 27.8612 44.3215C28.0502 44.5275 28.3572 44.6305 28.7802 44.6305C29.0432 44.6305 29.2792 44.5905 29.4872 44.5105C29.6962 44.4295 29.8542 44.3475 29.9632 44.2645L30.3772 45.0835ZM28.5852 41.5395C28.2582 41.5395 28.0172 41.6385 27.8602 41.8345C27.7042 42.0305 27.6092 42.2935 27.5772 42.6205H29.3632C29.3892 42.2725 29.3362 42.0065 29.2052 41.8195C29.0742 41.6335 28.8672 41.5395 28.5852 41.5395Z" fill="#0022CD"/>
    <path d="M34.3751 45.4995V42.7575C34.3751 42.3655 34.3182 42.0815 34.2062 41.9085C34.0932 41.7345 33.9022 41.6475 33.6312 41.6475C33.3932 41.6475 33.1921 41.7165 33.0281 41.8555C32.8641 41.9945 32.7462 42.1665 32.6752 42.3715V45.5005H31.4202V40.6725H32.4141L32.5591 41.3095H32.5981C32.7461 41.1035 32.9421 40.9235 33.1871 40.7685C33.4321 40.6135 33.7472 40.5365 34.1332 40.5365C34.3712 40.5365 34.5841 40.5685 34.7701 40.6335C34.9571 40.6975 35.1141 40.8045 35.2441 40.9525C35.3721 41.1005 35.4691 41.3025 35.5331 41.5555C35.5971 41.8105 35.6301 42.1235 35.6301 42.4965V45.4995H34.3751Z" fill="#0022CD"/>
    <path d="M36.1802 40.6715H36.8472V39.7635L38.1022 39.4065V40.6715H39.2802V41.7335H38.1022V43.5875C38.1022 43.9225 38.1361 44.1625 38.2031 44.3065C38.2711 44.4515 38.3981 44.5235 38.5851 44.5235C38.7141 44.5235 38.8252 44.5105 38.9182 44.4845C39.0112 44.4585 39.1162 44.4205 39.2322 44.3685L39.4542 45.3335C39.2802 45.4175 39.0771 45.4875 38.8461 45.5455C38.6141 45.6035 38.3792 45.6325 38.1412 45.6325C37.6972 45.6325 37.3701 45.5185 37.1611 45.2895C36.9521 45.0605 36.8481 44.6855 36.8481 44.1645V41.7305H36.1802V40.6715Z" fill="#0022CD"/>
</svg>
