<svg width="72" height="72" viewBox="0 0 72 72" fill="none" xmlns="http://www.w3.org/2000/svg">
    <rect x="6" y="9" width="57" height="49" rx="4" fill="white"/>
    <path d="M12.8749 13.861C12.6099 13.879 12.3719 13.997 12.2239 14.185C11.9949 14.42 11.9009 14.645 11.9009 14.945C11.9009 15.252 11.9979 15.481 12.2259 15.707C12.4539 15.935 12.6829 16.033 12.9879 16.033C13.2939 16.033 13.5219 15.936 13.7499 15.707C13.9739 15.486 14.0759 15.157 14.0759 14.945C14.0759 14.639 13.9789 14.41 13.7509 14.183C13.5289 13.959 13.1959 13.831 12.8749 13.861Z" fill="#133DBD"/>
    <path d="M16.908 13.938C16.779 13.992 16.6559 14.074 16.5469 14.182C16.3189 14.41 16.2219 14.639 16.2219 14.944C16.2219 15.251 16.3189 15.479 16.5469 15.705C16.7759 15.934 17.0039 16.032 17.3099 16.032C17.6149 16.032 17.843 15.935 18.072 15.706C18.3 15.48 18.397 15.251 18.397 14.944C18.397 14.638 18.3 14.41 18.072 14.182C17.745 13.857 17.296 13.775 16.908 13.938Z" fill="#133DBD"/>
    <path d="M21.515 13.861C21.249 13.879 21.012 13.997 20.865 14.185C20.635 14.42 20.542 14.644 20.542 14.945C20.542 15.237 20.634 15.464 20.84 15.68C21.007 15.947 21.354 16.033 21.629 16.033C21.934 16.033 22.163 15.936 22.391 15.707C22.614 15.485 22.716 15.156 22.716 14.945C22.716 14.64 22.619 14.411 22.39 14.182C22.169 13.96 21.842 13.833 21.515 13.861Z" fill="#133DBD"/>
    <path d="M34.543 28.421C34.543 28.079 34.265 27.8 33.923 27.8H12.848C12.506 27.8 12.228 28.079 12.228 28.421V31.993C12.228 32.335 12.507 32.613 12.848 32.613H33.923C34.265 32.613 34.543 32.335 34.543 31.993V28.421ZM33.303 31.371H13.469V29.042H33.303V31.371Z" fill="#133DBD"/>
    <path d="M34.543 39.807V36.235C34.543 35.893 34.265 35.614 33.923 35.614H12.848C12.506 35.614 12.228 35.893 12.228 36.235V39.807C12.228 40.149 12.507 40.427 12.848 40.427H33.923C34.265 40.427 34.543 40.149 34.543 39.807ZM33.303 39.185H13.469V36.856H33.303V39.185Z" fill="#133DBD"/>
    <path d="M19.966 44.6699H13.469V46.9989H19.966V44.6699Z" fill="#65D78D"/>
    <path d="M12.848 43.428C12.506 43.428 12.228 43.707 12.228 44.049V47.621C12.228 47.963 12.507 48.241 12.848 48.241H20.587C20.929 48.241 21.207 47.963 21.207 47.621V44.049C21.207 43.707 20.929 43.428 20.587 43.428H12.848ZM19.966 46.999H13.469V44.67H19.966V46.999Z" fill="#133DBD"/>
    <path d="M47.165 57.358H47.153H8.77802C7.60702 57.358 6.617 56.369 6.617 55.198V21.956H62.673V36.186L62.675 36.234C62.675 36.661 63.021 37.007 63.448 37.007C63.875 37.007 64.221 36.661 64.221 36.234L64.223 36.191L64.222 11.853C64.254 10.829 63.883 9.866 63.175 9.135C62.477 8.414 61.506 8 60.511 8H8.77802C6.73002 8 5 9.73 5 11.778V55.131C5 57.179 6.73002 58.909 8.77802 58.909H47.158L47.164 58.908C47.592 58.908 47.939 58.561 47.939 58.133C47.94 57.704 47.593 57.358 47.165 57.358ZM6.617 11.844C6.617 10.616 7.58702 9.617 8.77802 9.617H60.445C61.617 9.617 62.606 10.606 62.606 11.778V20.273H6.61603L6.617 11.844Z" fill="#133DBD"/>
    <path d="M59.0988 40.364C53.7308 40.364 49.3633 44.731 49.3633 50.0995C49.3633 55.468 53.7303 59.835 59.0988 59.835C64.4673 59.835 68.8343 55.468 68.8343 50.0995C68.8343 44.731 64.4673 40.364 59.0988 40.364ZM55.496 46.8856C55.2294 46.619 55.2294 46.1873 55.496 45.9212C55.7622 45.6541 56.1944 45.6541 56.4605 45.9212L59.4833 48.944L62.5061 45.9212C62.7723 45.6541 63.2044 45.6541 63.4706 45.9212C63.7372 46.1873 63.7372 46.619 63.4706 46.8856L60.4478 49.9084L63.5664 53.027C63.833 53.2937 63.833 53.7254 63.5664 53.9915C63.4335 54.1248 63.2584 54.1912 63.0841 54.1912C62.9099 54.1912 62.7347 54.1248 62.6019 53.9915L59.4833 50.8729L56.3647 53.9915C56.2319 54.1248 56.0567 54.1912 55.8825 54.1912C55.7083 54.1912 55.5331 54.1248 55.4003 53.9915C55.1336 53.7254 55.1336 53.2937 55.4003 53.027L58.5188 49.9084L55.496 46.8856Z" fill="#65D78D"/>
    <path d="M61.0264 39.1709C60.3998 39.0606 59.7563 39 59.0989 39C52.9787 39 48 43.9792 48 50.0989C48 51.5475 48.282 52.9307 48.7888 54.2003C50.1137 57.5186 52.9941 60.0515 56.5251 60.8932C57.3519 61.0905 58.2129 61.1978 59.0989 61.1978C65.2191 61.1978 70.1978 56.2187 70.1978 50.0989C70.1978 48.3914 69.8094 46.7729 69.1179 45.3267C67.5966 42.1456 64.6041 39.8003 61.0264 39.1709ZM59.0989 59.8344C53.7309 59.8344 49.3634 55.4674 49.3634 50.0989C49.3634 44.7304 53.7304 40.3634 59.0989 40.3634C64.4674 40.3634 68.8344 44.7304 68.8344 50.0989C68.8344 55.4674 64.4674 59.8344 59.0989 59.8344Z" fill="#133DBD"/>
    <path d="M55.4004 53.9918C55.5332 54.1251 55.7084 54.1916 55.8826 54.1916C56.0569 54.1916 56.232 54.1251 56.3649 53.9918L59.4835 50.8732L62.602 53.9918C62.7349 54.1251 62.9101 54.1916 63.0843 54.1916C63.2585 54.1916 63.4337 54.1251 63.5665 53.9918C63.8331 53.7257 63.8331 53.294 63.5665 53.0274L60.4479 49.9088L63.4707 46.886C63.7373 46.6193 63.7373 46.1877 63.4707 45.9215C63.2046 45.6544 62.7724 45.6544 62.5063 45.9215L59.4835 48.9443L56.4606 45.9215C56.1945 45.6544 55.7623 45.6544 55.4962 45.9215C55.2295 46.1877 55.2295 46.6193 55.4962 46.886L58.519 49.9088L55.4004 53.0274C55.1338 53.294 55.1338 53.7257 55.4004 53.9918Z" fill="#133DBD"/>
</svg>
