<svg width="241" height="149" viewBox="0 0 241 149" xmlns="http://www.w3.org/2000/svg">
    <g clip-path="url(#clip0_1_6011)">
        <path d="M148.662 70.633C147.256 70.633 145.897 70.6798 144.492 70.7733C131.934 46.5525 106.631 30 77.4396 30C35.7838 30 2 63.7128 2 105.281C2 120.851 7.66968 136.983 15.8228 149C53.074 149 163.656 148.86 198.986 148.86C202.219 141.846 204 134.084 204 125.855C204 95.3682 179.213 70.633 148.662 70.633Z" fill="#EBF0F6"/>
        <path d="M85.4219 67.0181V62.782H74.4171V67.0181H65.9561V75.479H68.4999V86.4838H43.106V94.9448H45.6498V147.414H68.4999H91.3501V75.479H93.8829V67.0181H85.4219Z" fill="white"/>
        <path d="M49.4545 81.8275H46.0701V86.0635H49.4545V81.8275Z" fill="white"/>
        <path d="M62.5717 124.564H51.5669V147.414H62.5717V124.564Z" fill="#C4D3E4"/>
        <path d="M77.3812 92.8213H73.1451V99.5901H77.3812V92.8213Z" fill="#C4D3E4"/>
        <path d="M73.1452 88.4304H77.3812C77.9895 88.4304 78.4872 87.9327 78.4872 87.3243V80.5556C78.4872 79.9473 77.9895 79.4496 77.3812 79.4496H73.1452C72.5369 79.4496 72.0392 79.9473 72.0392 80.5556V87.3243C72.0392 87.9327 72.5369 88.4304 73.1452 88.4304ZM74.2512 81.6616H76.2752V86.2183H74.2512V81.6616Z" fill="#0022CD"/>
        <path d="M81.6174 88.4304H85.8534C86.4617 88.4304 86.9594 87.9327 86.9594 87.3243V80.5556C86.9594 79.9473 86.4617 79.4496 85.8534 79.4496H81.6174C81.0091 79.4496 80.5114 79.9473 80.5114 80.5556V87.3243C80.5114 87.9327 80.998 88.4304 81.6174 88.4304ZM82.7234 81.6616H84.7474V86.2183H82.7234V81.6616Z" fill="#0022CD"/>
        <path d="M73.1452 100.707H77.3812C77.9895 100.707 78.4872 100.209 78.4872 99.6012V92.8324C78.4872 92.2241 77.9895 91.7264 77.3812 91.7264H73.1452C72.5369 91.7264 72.0392 92.2241 72.0392 92.8324V99.6012C72.0392 100.209 72.5369 100.707 73.1452 100.707ZM74.2512 93.9273H76.2752V98.4841H74.2512V93.9273Z" fill="#0022CD"/>
        <path d="M81.6174 100.707H85.8534C86.4617 100.707 86.9594 100.209 86.9594 99.6012V92.8324C86.9594 92.2241 86.4617 91.7264 85.8534 91.7264H81.6174C81.0091 91.7264 80.5114 92.2241 80.5114 92.8324V99.6012C80.5114 100.209 80.998 100.707 81.6174 100.707ZM82.7234 93.9273H84.7474V98.4841H82.7234V93.9273Z" fill="#0022CD"/>
        <path d="M73.1452 112.973H77.3812C77.9895 112.973 78.4872 112.475 78.4872 111.867V105.098C78.4872 104.49 77.9895 103.992 77.3812 103.992H73.1452C72.5369 103.992 72.0392 104.49 72.0392 105.098V111.867C72.0392 112.475 72.5369 112.973 73.1452 112.973ZM74.2512 106.204H76.2752V110.761H74.2512V106.204Z" fill="#0022CD"/>
        <path d="M81.6174 112.973H85.8534C86.4617 112.973 86.9594 112.475 86.9594 111.867V105.098C86.9594 104.49 86.4617 103.992 85.8534 103.992H81.6174C81.0091 103.992 80.5114 104.49 80.5114 105.098V111.867C80.5114 112.475 80.998 112.973 81.6174 112.973ZM82.7234 106.204H84.7474V110.761H82.7234V106.204Z" fill="#0022CD"/>
        <path d="M73.1452 125.249H77.3812C77.9895 125.249 78.4872 124.752 78.4872 124.143V117.375C78.4872 116.766 77.9895 116.269 77.3812 116.269H73.1452C72.5369 116.269 72.0392 116.766 72.0392 117.375V124.143C72.0392 124.752 72.5369 125.249 73.1452 125.249ZM74.2512 118.481H76.2752V123.037H74.2512V118.481Z" fill="#0022CD"/>
        <path d="M81.6174 125.249H85.8534C86.4617 125.249 86.9594 124.752 86.9594 124.143V117.375C86.9594 116.766 86.4617 116.269 85.8534 116.269H81.6174C81.0091 116.269 80.5114 116.766 80.5114 117.375V124.143C80.5114 124.752 80.998 125.249 81.6174 125.249ZM82.7234 118.481H84.7474V123.037H82.7234V118.481Z" fill="#0022CD"/>
        <path d="M73.1452 137.515H77.3812C77.9895 137.515 78.4872 137.017 78.4872 136.409V129.64C78.4872 129.032 77.9895 128.534 77.3812 128.534H73.1452C72.5369 128.534 72.0392 129.032 72.0392 129.64V136.409C72.0392 137.017 72.5369 137.515 73.1452 137.515ZM74.2512 130.746H76.2752V135.303H74.2512V130.746Z" fill="#0022CD"/>
        <path d="M81.6174 137.515H85.8534C86.4617 137.515 86.9594 137.017 86.9594 136.409V129.64C86.9594 129.032 86.4617 128.534 85.8534 128.534H81.6174C81.0091 128.534 80.5114 129.032 80.5114 129.64V136.409C80.5114 137.017 80.998 137.515 81.6174 137.515ZM82.7234 130.746H84.7474V135.303H82.7234V130.746Z" fill="#0022CD"/>
        <path d="M93.8829 65.9121H86.528V62.7821C86.528 62.1738 86.0303 61.6761 85.422 61.6761H74.4172C73.8088 61.6761 73.3111 62.1738 73.3111 62.7821V65.9121H65.9562C65.3479 65.9121 64.8502 66.4098 64.8502 67.0181V75.4791C64.8502 76.0874 65.3479 76.5851 65.9562 76.5851H67.394V85.3779H50.5605V81.8276C50.5605 81.2193 50.0628 80.7216 49.4545 80.7216H46.0701C45.4618 80.7216 44.9641 81.2193 44.9641 81.8276V85.3779H43.106C42.4977 85.3779 42 85.8756 42 86.4839V94.9449C42 95.5532 42.4977 96.0509 43.106 96.0509H44.5328V147.414C44.5328 148.022 45.0305 148.52 45.6388 148.52H51.567H62.5718H68.5H91.3502C91.9585 148.52 92.4562 148.022 92.4562 147.414V76.5851H93.894C94.5023 76.5851 95 76.0874 95 75.4791V67.0181C94.9889 66.3987 94.4912 65.9121 93.8829 65.9121ZM47.1761 82.9336H48.3485V84.9576H47.1761V82.9336ZM61.4658 146.308H52.673V125.67H61.4658V146.308ZM67.394 146.308H63.6778V124.564C63.6778 123.956 63.1801 123.458 62.5718 123.458H51.567C50.9587 123.458 50.461 123.956 50.461 124.564V146.308H46.7448V96.0509H67.3829V146.308H67.394ZM67.394 93.8389H45.6388H44.212V87.5899H67.394V93.8389ZM75.5232 63.8881H84.3159V65.9121H75.5232V63.8881ZM90.2442 146.308H69.606V94.9449V86.4839V76.5851H90.2442V146.308ZM92.7769 74.3731H91.3391H68.5H67.0622V68.1241H74.4172H85.422H92.7769V74.3731Z" fill="#0022CD"/>
        <path d="M211.197 91.5468H144.659L142.028 114.116H213.828L211.197 91.5468Z" fill="#C4D3E4"/>
        <path d="M210.992 114.29H145.882V143.499H210.992V114.29Z" fill="white"/>
        <path d="M210.992 115.234H146.468V117.133H210.992V115.234Z" fill="#6288B9"/>
        <path d="M204.918 103.298H210.036L204.506 92.2447L202.266 87.7597L194.383 71.9853L186.5 87.7597L184.249 92.2447L178.719 103.298H183.838L183.468 113.336L181.566 118.077V143.489H207.189V118.077L205.288 113.336L204.918 103.298Z" fill="white"/>
        <path d="M174.927 126.606H165.441V142.709H174.927V126.606Z" fill="white"/>
        <path d="M199.604 126.606H189.162V138.922H199.604V126.606Z" fill="white"/>
        <path d="M199.604 126.606H189.162V131.347H199.604V126.606Z" fill="white"/>
        <path d="M160.703 126.606H152.162V135.134H160.703V126.606Z" fill="white"/>
        <path d="M178.719 103.298H183.838L184.249 92.2447L178.719 103.298Z" fill="white"/>
        <path d="M183.838 104.324H178.719C178.36 104.324 178.031 104.14 177.846 103.842C177.661 103.544 177.64 103.165 177.805 102.847L183.334 91.7931C183.55 91.3621 184.043 91.1363 184.506 91.2595C184.979 91.3826 185.297 91.8137 185.277 92.296L184.866 103.349C184.845 103.893 184.393 104.324 183.838 104.324ZM180.384 102.272H182.851L183.046 96.9453L180.384 102.272Z" fill="#0022CD"/>
        <path d="M210.036 103.298L204.506 92.2447L204.917 103.298H210.036Z" fill="white"/>
        <path d="M210.036 104.324H204.917C204.362 104.324 203.91 103.883 203.89 103.339L203.479 92.2858C203.458 91.8034 203.787 91.3724 204.249 91.2492C204.712 91.1261 205.205 91.3518 205.421 91.7829L210.951 102.836C211.115 103.154 211.094 103.534 210.909 103.832C210.724 104.14 210.396 104.324 210.036 104.324ZM205.914 102.272H208.381L205.719 96.9453L205.914 102.272Z" fill="#0022CD"/>
        <path d="M205.287 113.336L204.917 103.298L204.506 92.2447L202.266 87.7597L194.383 71.9853L186.5 87.7597L184.249 92.2447L183.838 103.298L183.468 113.336" fill="white"/>
        <path d="M179.675 84.9168H174.927V91.5468H179.675V84.9168Z" fill="white"/>
        <path d="M197.703 92.4911H191.063V108.594H197.703V92.4911Z" fill="white"/>
        <path d="M197.703 92.4911H191.063V98.69H197.703V92.4911Z" fill="white"/>
        <path d="M154.33 100.496H157.188L157.414 94.3282L154.33 100.496Z" fill="white"/>
        <path d="M171.803 100.496L168.719 94.3282L168.945 100.496H171.803Z" fill="white"/>
        <path d="M168.945 100.496L168.719 94.3282L167.465 91.8137L163.066 83.0182L158.667 91.8137L157.414 94.3282L157.187 100.496L156.982 106.09H169.161L168.945 100.496Z" fill="white"/>
        <path d="M165.441 96.2782H160.692V101.964H165.441V96.2782Z" fill="white"/>
        <path d="M212.883 143.489H143.981V147.44H212.883V143.489Z" fill="white"/>
        <path d="M160.692 125.579H152.151C151.586 125.579 151.124 126.041 151.124 126.606V135.134C151.124 135.699 151.586 136.161 152.151 136.161H160.692C161.258 136.161 161.72 135.699 161.72 135.134V126.606C161.72 126.031 161.268 125.579 160.692 125.579ZM159.664 134.108H153.179V127.632H159.664V134.108Z" fill="#0022CD"/>
        <path d="M165.441 95.2518H160.692C160.127 95.2518 159.665 95.7137 159.665 96.2782V101.964C159.665 102.528 160.127 102.99 160.692 102.99H165.441C166.006 102.99 166.468 102.528 166.468 101.964V96.2782C166.468 95.7137 166.006 95.2518 165.441 95.2518ZM164.413 100.938H161.72V97.3045H164.413V100.938Z" fill="#0022CD"/>
        <path d="M191.063 109.631H197.703C198.268 109.631 198.73 109.169 198.73 108.604V98.69V92.4911C198.73 91.9266 198.268 91.4647 197.703 91.4647H191.063C190.498 91.4647 190.035 91.9266 190.035 92.4911V98.69V108.604C190.035 109.169 190.488 109.631 191.063 109.631ZM192.091 93.5174H196.675V97.6637H192.091V93.5174ZM192.091 99.7163H196.675V107.578H192.091V99.7163Z" fill="#0022CD"/>
        <path d="M213.828 115.142C214.126 115.142 214.404 115.019 214.599 114.803C214.794 114.588 214.887 114.29 214.856 114.003L212.225 91.4237C212.163 90.9105 211.721 90.5205 211.207 90.5205H204.804L195.297 71.5234C194.948 70.8255 193.807 70.8255 193.458 71.5234L183.961 90.5205H180.693V84.9168C180.693 84.3524 180.23 83.8905 179.665 83.8905H174.917C174.351 83.8905 173.889 84.3524 173.889 84.9168V90.5205H167.959L163.981 82.5563C163.632 81.8584 162.491 81.8584 162.141 82.5563L158.164 90.5205H144.659C144.135 90.5205 143.703 90.9105 143.641 91.4237L141.01 114.003C140.979 114.29 141.072 114.588 141.267 114.803C141.462 115.019 141.74 115.142 142.038 115.142H144.864V142.462H143.98C143.415 142.462 142.953 142.924 142.953 143.489V147.44C142.953 148.004 143.415 148.466 143.98 148.466H163.549H176.828H212.883C213.448 148.466 213.91 148.004 213.91 147.44V143.489C213.91 142.924 213.448 142.462 212.883 142.462H212.009V115.142H213.828ZM171.802 101.523C172.162 101.523 172.491 101.338 172.676 101.04C172.84 100.773 172.861 100.455 172.758 100.158H179.141L178.267 101.892H170.014L170.004 101.523H171.802ZM170.888 96.3603H181.042L180.179 98.0947H171.761L170.888 96.3603ZM177.928 103.945C178.123 104.181 178.411 104.335 178.719 104.335H182.769L182.717 105.689H170.168L170.107 103.955H177.928V103.945ZM182.594 119.103H206.161V142.473H182.594V119.103ZM212.677 113.089H206.315L206.254 111.519H212.492L212.677 113.089ZM211.937 107.732C211.978 107.732 212.009 107.711 212.05 107.711L212.256 109.477H206.182L206.12 107.742H211.937V107.732ZM211.814 105.679H206.038L205.986 104.324H210.036C210.344 104.324 210.632 104.181 210.827 103.934H211.608L211.814 105.679ZM211.372 101.892H210.478L209.604 100.158H211.166L211.372 101.892ZM210.93 98.0947H208.587L207.723 96.3603H210.735L210.93 98.0947ZM210.282 92.5732L210.488 94.3076H206.685L205.822 92.5732H210.282ZM208.371 102.272H205.904L205.709 96.9453L208.371 102.272ZM184.403 113.777C184.403 113.777 184.403 113.767 184.413 113.767L184.434 113.715C184.475 113.602 184.506 113.489 184.506 113.377L185.277 92.5116L194.383 74.2842L203.489 92.5116L203.89 103.339L204.26 113.377C204.26 113.489 204.29 113.613 204.332 113.715L205.668 117.041H183.087L184.403 113.777ZM182.851 102.272H180.384L183.046 96.9453L182.851 102.272ZM175.955 85.9432H178.647V90.5205H175.955V85.9432ZM174.927 92.5732H179.675H182.944L182.08 94.3076H169.86L169.634 93.8663L168.986 92.5732H174.927ZM158.431 94.5847L163.066 85.3171L167.702 94.5847L168.092 105.063H158.051L158.431 94.5847ZM145.574 92.5732H157.146L156.499 93.8663L156.273 94.3076H145.368L145.574 92.5732ZM145.132 96.3603H155.245L154.382 98.0947H144.926L145.132 96.3603ZM144.69 100.147H153.374C153.272 100.435 153.292 100.763 153.457 101.03C153.642 101.328 153.97 101.512 154.33 101.512H156.119L156.108 101.892H144.484L144.69 100.147ZM144.248 103.945H156.036L155.975 105.679H144.042L144.248 103.945ZM143.806 107.711C143.847 107.711 143.878 107.732 143.919 107.732H182.645L182.584 109.466H143.6L143.806 107.711ZM143.364 111.519H182.502L182.44 113.089H143.179L143.364 111.519ZM146.91 115.316H181.577L180.631 117.677L180.621 117.697C180.58 117.81 180.559 117.923 180.559 118.036C180.559 118.046 180.549 118.057 180.549 118.077V142.473H175.965V126.606C175.965 126.041 175.502 125.579 174.937 125.579H165.451C164.885 125.579 164.423 126.041 164.423 126.606V142.473H146.91V115.316ZM166.468 141.682V127.632H173.899V141.682H166.468ZM145.008 144.515H145.882H163.817L162.902 146.414H145.008V144.515ZM165.173 146.424L166.088 144.525H174.279L175.194 146.424H165.173ZM211.855 146.424H177.476L176.561 144.525H181.566H207.189H210.981H211.855V146.424ZM208.217 142.462V118.077C208.217 118.067 208.206 118.057 208.206 118.036C208.206 117.923 208.186 117.8 208.145 117.697L208.134 117.677L207.189 115.316H209.954V142.473H208.217V142.462Z" fill="#0022CD"/>
        <path d="M199.594 125.579H189.162C188.596 125.579 188.134 126.041 188.134 126.606V131.347V138.932C188.134 139.496 188.596 139.958 189.162 139.958H199.604C200.169 139.958 200.632 139.496 200.632 138.932V131.347V126.606C200.621 126.031 200.169 125.579 199.594 125.579ZM198.566 137.895H190.179V132.363H198.566V137.895ZM198.566 130.311H190.179V127.622H198.566V130.311Z" fill="#0022CD"/>
        <path d="M27.0047 115.842C29.7797 115.842 32.0303 113.624 32.0303 110.891C32.0303 108.157 29.7797 105.939 27.0047 105.939C24.2297 105.939 21.9791 108.157 21.9791 110.891C21.9791 113.624 24.2297 115.842 27.0047 115.842Z" fill="#CCFF69"/>
        <path d="M27.0047 116.255C21.4547 116.255 16.9631 120.68 16.9631 126.148C16.9631 131.615 21.4547 136.04 27.0047 136.04C32.5548 136.04 37.0464 131.615 37.0464 126.148C37.0464 120.68 32.5453 116.255 27.0047 116.255Z" fill="#CCFF69"/>
        <path d="M38 126.148C38 121.3 34.7482 117.185 30.2852 115.804C31.9064 114.752 32.9744 112.939 32.9744 110.891C32.9744 107.64 30.2948 105 27.0048 105C23.7053 105 21.0256 107.64 21.0256 110.891C21.0256 112.939 22.0936 114.752 23.7148 115.804C19.2518 117.185 16 121.3 16 126.138C16 131.794 20.4248 136.444 26.0416 136.924V147.991H27.9488V136.933C33.5752 136.454 38 131.803 38 126.148ZM27.0048 106.888C29.2458 106.888 31.0672 108.683 31.0672 110.9C31.0672 113.108 29.2458 114.902 27.0048 114.902C24.7638 114.902 22.9328 113.108 22.9328 110.9C22.9328 108.692 24.7542 106.888 27.0048 106.888ZM27.0048 135.101C21.9983 135.101 17.9168 131.08 17.9168 126.148C17.9168 121.215 21.9983 117.194 27.0048 117.194C32.0113 117.194 36.0928 121.215 36.0928 126.148C36.0928 131.08 32.0113 135.101 27.0048 135.101Z" fill="#0022CD"/>
        <path d="M0 148H241" stroke="#0022CD" stroke-width="2" stroke-linecap="round"/>
        <path d="M234.15 61.2042C235.852 61.0326 237.426 60.2246 238.557 58.942C239.688 57.6594 240.293 55.9969 240.25 54.2873C240.208 52.5777 239.521 50.9472 238.328 49.7224C237.134 48.4976 235.522 47.7687 233.814 47.6819C234.099 45.2158 233.499 42.7287 232.122 40.6636C230.744 38.5985 228.678 37.0896 226.291 36.4056C223.905 35.7216 221.353 35.907 219.091 36.9288C216.828 37.9506 215.002 39.7423 213.937 41.9849C213.004 41.7864 212.04 41.7875 211.107 41.988C210.175 42.1886 209.295 42.5841 208.526 43.1486C207.757 43.7131 207.116 44.4338 206.645 45.2635C206.174 46.0931 205.884 47.013 205.794 47.9627C204.251 48.4294 202.926 49.4313 202.057 50.788C201.187 52.1447 200.83 53.7672 201.051 55.3635C201.271 56.9598 202.053 58.4252 203.258 59.4959C204.462 60.5666 206.009 61.1724 207.62 61.2042H234.15Z" fill="#EBF0F6"/>
        <path d="M108.02 126.02C109.959 126.02 111.53 124.449 111.53 122.51C111.53 120.571 109.959 119 108.02 119C106.081 119 104.51 120.571 104.51 122.51C104.51 124.449 106.081 126.02 108.02 126.02Z" fill="white"/>
        <path d="M108.02 126.31C104.14 126.31 101 129.46 101 133.34C101 137.22 104.14 140.36 108.02 140.36C111.9 140.36 115.04 137.22 115.04 133.34C115.04 129.46 111.9 126.31 108.02 126.31Z" fill="white"/>
        <path d="M116.04 133.34C116.04 129.96 113.94 127.07 110.98 125.89C111.92 125.06 112.53 123.86 112.53 122.51C112.53 120.02 110.51 118 108.02 118C105.53 118 103.51 120.02 103.51 122.51C103.51 123.86 104.12 125.06 105.06 125.89C102.1 127.07 100 129.96 100 133.34C100 137.42 103.07 140.8 107.02 141.29V148.84H109.02V141.29C112.97 140.79 116.04 137.42 116.04 133.34ZM108.02 120C109.4 120 110.53 121.13 110.53 122.51C110.53 123.89 109.41 125.02 108.02 125.02C106.63 125.02 105.51 123.9 105.51 122.51C105.51 121.12 106.64 120 108.02 120ZM108.02 139.36C104.7 139.36 102 136.66 102 133.34C102 130.02 104.7 127.32 108.02 127.32C111.34 127.32 114.04 130.02 114.04 133.34C114.04 136.66 111.34 139.36 108.02 139.36Z" fill="#0022CD"/>
    </g>
    <defs>
        <clipPath id="clip0_1_6011">
            <rect width="241" height="149" fill="white"/>
        </clipPath>
    </defs>
</svg>