<svg width="104" height="104" viewBox="0 0 104 104" fill="none" xmlns="http://www.w3.org/2000/svg">
    <path d="M51.9998 8.66663C28.0798 8.66663 8.6665 28.08 8.6665 52C8.6665 75.92 28.0798 95.3333 51.9998 95.3333C75.9198 95.3333 95.3332 75.92 95.3332 52C95.3332 28.08 75.9198 8.66663 51.9998 8.66663Z" fill="#CCFF69"/>
    <path d="M26.8005 56.9609C26.8003 56.9607 26.8002 56.9606 26.8001 56.9605C25.9675 56.1259 25.5 54.9933 25.5 53.8127C25.5 52.6321 25.9675 51.4996 26.8001 50.665L26.8005 56.9609ZM26.8005 56.9609L40.9693 71.1931C42.7007 72.9322 45.5463 72.9397 47.2453 71.1909C47.2461 71.1901 47.2469 71.1893 47.2477 71.1885L77.1999 41.1024C78.9334 39.3611 78.9334 36.5481 77.1999 34.8069C75.4652 33.0644 72.6608 33.0644 70.9261 34.8069L44.1253 61.7275L33.0738 50.665C31.3392 48.9226 28.535 48.9225 26.8003 50.6648L26.8005 56.9609Z" fill="#0022CD" stroke="#0022CD"/>
</svg>
