<svg width="132" height="132" viewBox="0 0 132 132" fill="none" xmlns="http://www.w3.org/2000/svg">
    <circle cx="66" cy="66" r="63" fill="white"/>
    <path fill-rule="evenodd" clip-rule="evenodd" d="M66 3.5C31.4822 3.5 3.5 31.4822 3.5 66C3.5 100.518 31.4822 128.5 66 128.5C68.3047 128.5 70.5837 128.368 72.8301 128.112C73.6532 128.018 74.3965 128.609 74.4903 129.433C74.5842 130.256 73.993 130.999 73.1699 131.093C70.8116 131.362 68.4191 131.5 66 131.5C29.8253 131.5 0.5 102.175 0.5 66C0.5 29.8253 29.8253 0.5 66 0.5C102.175 0.5 131.5 29.8253 131.5 66C131.5 74.4399 129.808 82.5738 126.751 90.0666C126.438 90.8337 125.562 91.2018 124.795 90.8889C124.028 90.5759 123.66 89.7004 123.973 88.9334C126.889 81.7861 128.5 74.0363 128.5 66C128.5 31.4822 100.518 3.5 66 3.5Z" fill="#A8BEEA"/>
    <path d="M89.3001 37.6C88.9001 31.3 85.8001 25.4 80.8001 21.5C75.9001 17.7 69.9001 16.3 64.0001 17.3C59.7001 18.1 55.9001 20.2 52.8001 23.4L52.5001 23.7L52.1001 23.6C51.9001 23.6 51.6001 23.6 51.4001 23.6C50.1001 23.6 48.9001 24 47.8001 24.7C46.0001 25.9 44.7001 28 44.3001 30.4C43.8001 34.2 44.8001 37.6 47.3001 40.9L47.7001 41.4L47.2001 41.9C45.9001 43.3 45.2001 45.2 45.2001 47.1C45.2001 51.2 48.5001 54.6 52.5001 54.7H53.0001L53.2001 55.2C54.4001 58 56.3001 60.4 58.8001 62L59.2001 62.2V68.3C59.2001 68.8 59.0001 69.3 58.6001 69.7C58.2001 70.2 57.7001 70.4 57.2001 70.4C43.4001 70.8 32.0001 82.1 32.0001 96.1C31.9001 97.6 32.4001 99 33.4001 100.1C34.4001 101.2 35.9001 101.8 37.5001 101.8H68.4001V87.9L68.9001 87.7C79.6001 83.7999 82.3001 77.3 83.0001 74.6L83.4001 74.5H83.0001L83.1001 74.1C83.2001 73.7 83.2001 73.3 83.3001 72.8C83.4001 72.3 83.4001 71.8 83.4001 71.5V71.4C83.3001 71.4 83.1001 71.3 82.9001 71.3C82.5001 71.2 82.0001 71.1 81.4001 71.1C80.2001 70.9 78.9001 70.9 78.0001 70.9C77.5001 70.9 77.0001 70.6 76.6001 70.2C76.2001 69.8 76.0001 69.3 76.0001 68.8V62.6L76.3001 62.4C78.8001 60.6 80.8001 58.2 81.9001 55.4L82.1001 55L82.5001 54.9C86.2001 54.3 89.0001 51 89.0001 47.3C89.0001 47.1 89.0001 46.9 89.0001 46.6C89.0001 46.3 88.9001 46.1 88.9001 45.8L89.0001 44.5C89.4001 42.2 89.4001 39.9 89.3001 37.6ZM51.0001 52.1C48.9001 51.2 47.6001 49.3 47.6001 47.1C47.6001 45.8 48.0001 44.7 48.8001 43.8L49.3001 43.2L49.9001 43.7C50.2001 44 50.5001 44.2 50.8001 44.4L50.9001 44.5C51.2001 44.8 51.5001 45 51.8001 45.2L52.0001 45.4V49.4C52.0001 50 52.0001 50.6 52.1001 51.1L52.3001 52.6L51.0001 52.1ZM52.3001 42.4L51.5001 41.7C47.8001 38.5 46.2001 34.8 46.7001 30.6C46.9001 29 47.8001 27.6 49.0001 26.8C49.9001 26.2 50.8001 26 51.7001 26.1H52.1001L52.3001 26.4C53.0001 27.5 54.5001 29.5 56.7001 31.9L57.1001 32.3L52.3001 42.4ZM65.9001 99.2H37.5001C35.7001 99.2 34.3001 97.8 34.3001 96C34.3001 85.8 41.2001 76.8 51.1001 74L51.9001 73.8L52.1001 74.6C52.5001 76.5 54.8001 83.2 65.3001 87.3L65.8001 87.5V99.2H65.9001ZM77.9001 73.3C78.5001 73.3 79.1001 73.3 79.7001 73.4L80.5001 73.6L80.3001 74.4C79.9001 76.1 77.8001 81.8 67.8001 85.5L67.5001 85.6L67.2001 85.5C57.7001 82 55.2001 76.6 54.6001 74.4L54.3001 73.4H57.1001C59.4001 73.4 61.6001 71.2 61.6001 68.7V63.9L62.6001 64.2C65.9001 65.2 69.1001 65.2 72.4001 64.2L73.4001 63.9V68.7C73.5001 71.1 75.6001 73.3 77.9001 73.3ZM80.6001 49.5C80.6001 56.7 74.7001 62.5 67.6001 62.5C60.4001 62.5 54.6001 56.6 54.6001 49.5L54.7001 43.6L59.1001 34.4L59.9001 35.1C64.0001 38.8 70.8001 43.6 80.1001 45.2L80.8001 45.3V49.5H80.6001ZM84.2001 51.4L83.0001 52.2V50.7C83.0001 50.5 83.0001 50.2 83.1001 50C83.1001 49.8 83.1001 49.6 83.1001 49.4V45.5H83.9001C84.2001 45.5 84.6001 45.5 84.9001 45.6C85.2001 45.6 85.4001 45.6 85.7001 45.6H86.5001V46.4V46.5C86.5001 46.7 86.6001 46.9 86.6001 47.1C86.6001 48.9 85.7001 50.5 84.2001 51.4ZM86.8001 43.1H86.0001C68.3001 42.9 57.7001 29.7 54.8001 25.7L54.4001 25.2L54.9001 24.7C57.5001 22.1 60.6001 20.5 64.3001 19.8C69.5001 18.8 74.8001 20.1 79.0001 23.5C83.4001 26.9 86.2001 32.1 86.6001 37.8C86.7001 39.7 86.7001 41.3 86.7001 42.4V43.1H86.8001Z" fill="#133DBD"/>
    <rect x="115.722" y="91" width="7.46385" height="46.2759" transform="rotate(45 115.722 91)" fill="#C4262E" stroke="#133DBD" stroke-width="2.5" stroke-linecap="round" stroke-linejoin="round"/>
    <rect x="83" y="96.2778" width="7.46385" height="46.2759" transform="rotate(-45 83 96.2778)" fill="#C4262E" stroke="#133DBD" stroke-width="2.5" stroke-linecap="round" stroke-linejoin="round"/>
</svg>
