<svg width="98" height="98" viewBox="0 0 98 98" fill="none" xmlns="http://www.w3.org/2000/svg">
    <mask id="mask0_1_2447" style="mask-type:alpha" maskUnits="userSpaceOnUse" x="0" y="0" width="98" height="98">
        <circle cx="49" cy="49" r="49" fill="white"/>
    </mask>
    <g mask="url(#mask0_1_2447)">
        <circle cx="49" cy="49" r="47.5" fill="white" stroke="#A8BEEA" stroke-width="3"/>
        <path d="M80.5293 68.8692L80.3664 68.8249C79.4449 68.5723 78.7403 68.1347 78.213 67.4841C77.4158 66.4989 77.252 65.3885 77.6848 63.8819C78.2294 62.009 79.3687 60.2816 81.2715 58.4453L81.3621 58.3576L81.4518 58.4463C83.2225 60.2074 84.3407 61.8702 84.9701 63.6794C85.3007 64.6212 85.374 65.3846 85.1995 66.0806V66.0815C84.8409 67.4995 83.9445 68.3651 82.3771 68.8066L82.2133 68.8528V64.5103C82.2133 64.0457 81.8354 63.6688 81.3718 63.6688C80.9072 63.6688 80.5303 64.0457 80.5303 64.5103V68.8692H80.5293Z" fill="#E4EAF5"/>
        <path d="M67.186 23.5098H45.569C45.1044 23.5098 44.7266 23.8876 44.7266 24.3523C44.7266 24.8169 45.1044 25.1938 45.569 25.1938H67.186V28.3631H50.4224C49.9578 28.3631 49.5809 28.741 49.5809 29.2047C49.5809 29.6683 49.9588 30.0471 50.4224 30.0471H67.186V33.2165H52.8467C52.3821 33.2165 52.0052 33.5944 52.0052 34.058C52.0052 34.5217 52.383 34.8995 52.8467 34.8995H67.1831V37.9918H59.919C59.4544 37.9918 59.0775 38.3697 59.0775 38.8343V74.7492H53.6323V59.5172C53.6323 59.0526 53.2544 58.6757 52.7908 58.6757H43.5564C43.0917 58.6757 42.7139 59.0536 42.7139 59.5172V74.7492H37.2108V20.217H67.186V23.5098Z" fill="#E4EAF5"/>
        <path d="M44.4005 60.3616H51.948V74.7511H44.4005V60.3616Z" fill="#E4EAF5"/>
        <path d="M75.5334 44.9551H78.1399V47.5616H75.5334V44.9551Z" fill="#E4EAF5"/>
        <path d="M66.6335 44.9551H69.24V47.5616H66.6335V44.9551Z" fill="#E4EAF5"/>
        <path d="M66.6335 52.9086H69.24V55.5151H66.6335V52.9086Z" fill="#E4EAF5"/>
        <path d="M35.7687 18.7837C35.9287 18.6227 36.1418 18.535 36.3683 18.535H68.0275C68.4921 18.535 68.869 18.9129 68.869 19.3765V37.9938H84.7863C85.2509 37.9938 85.6278 38.3716 85.6278 38.8362V52.5867C85.6278 53.0513 85.2499 53.4291 84.7863 53.4291C84.3226 53.4291 83.9448 53.0513 83.9448 52.5867V39.6758H60.7662V74.7483H80.5315V70.5272H80.3127C80.2433 70.5272 80.1758 70.5186 80.1083 70.5012C78.7733 70.1744 77.6956 69.5161 76.9052 68.5444C75.7524 67.1227 75.4796 65.4435 76.0695 63.4125C76.7144 61.1858 78.0533 59.1664 80.2819 57.0583L80.8274 56.5763C81.1561 56.291 81.641 56.2978 81.9552 56.5908C84.3062 58.776 85.7704 60.8514 86.5618 63.1243C87.0004 64.3774 87.0891 65.4801 86.8308 66.4942C86.3035 68.5782 84.8171 69.9344 82.4131 70.5244L82.2174 70.5205V74.7483H84.7853C85.2499 74.7483 85.6268 75.1261 85.6268 75.5907C85.6268 76.0554 85.249 76.4332 84.7853 76.4332H36.3664C35.9018 76.4332 35.5249 76.0554 35.5249 75.5907V19.3746C35.5249 19.1519 35.6106 18.9418 35.7687 18.7837ZM81.3711 63.6699C81.8357 63.6699 82.2126 64.0468 82.2126 64.5114V68.8539L82.3765 68.8076C83.9438 68.3661 84.8412 67.5005 85.1988 66.0826V66.0816C85.3733 65.3857 85.3001 64.6222 84.9694 63.6805C84.34 61.8712 83.2218 60.2084 81.4511 58.4473L81.3615 58.3586L81.2708 58.4464C79.3681 60.2826 78.2287 62.01 77.6841 63.8829C77.2513 65.3895 77.4151 66.5 78.2123 67.4851C78.7396 68.1348 79.4442 68.5734 80.3657 68.8259L80.5286 68.8703V64.5123C80.5296 64.0468 80.9074 63.6699 81.3711 63.6699ZM44.3997 74.7512H51.9473V60.3617H44.3997V74.7512ZM37.2098 74.7512H42.7129V59.5192C42.7129 59.0546 43.0907 58.6777 43.5553 58.6777H52.7897C53.2543 58.6777 53.6312 59.0556 53.6312 59.5192V74.7512H59.0765V38.8362C59.0765 38.3716 59.4543 37.9938 59.918 37.9938H67.1821V34.9015H52.8456C52.381 34.9015 52.0041 34.5236 52.0041 34.06C52.0041 33.5963 52.382 33.2185 52.8456 33.2185H67.186V30.0491H50.4223C49.9577 30.0491 49.5808 29.6712 49.5808 29.2066C49.5808 28.742 49.9587 28.3651 50.4223 28.3651H67.186V25.1957H45.569C45.1043 25.1957 44.7265 24.8179 44.7265 24.3542C44.7265 23.8906 45.1043 23.5118 45.569 23.5118H67.186V20.2209H37.2098V74.7512Z" fill="#E4EAF5"/>
        <path d="M78.7848 48.8495H74.8905C74.5349 48.8495 74.2466 48.5613 74.2466 48.2056V44.3114C74.2466 43.9557 74.5349 43.6675 74.8905 43.6675H78.7848C79.1405 43.6675 79.4287 43.9557 79.4287 44.3114V48.2056C79.4287 48.5613 79.1405 48.8495 78.7848 48.8495ZM78.1399 44.9553H75.5335V47.5617H78.1399V44.9553Z" fill="#EBF0F6"/>
        <path d="M70.5291 56.1589C70.5291 56.5146 70.2408 56.8028 69.8852 56.8028H65.9909C65.6352 56.8028 65.347 56.5146 65.347 56.1589V52.2647C65.347 51.909 65.6352 51.6208 65.9909 51.6208H69.8852C70.2408 51.6208 70.5291 51.909 70.5291 52.2647V56.1589ZM69.2403 52.9086H66.6338V55.515H69.2403V52.9086Z" fill="#EBF0F6"/>
        <path d="M69.8839 48.8495H65.9897C65.634 48.8495 65.3458 48.5613 65.3458 48.2056V44.3114C65.3458 43.9557 65.634 43.6675 65.9897 43.6675H69.8839C70.2396 43.6675 70.5278 43.9557 70.5278 44.3114V48.2056C70.5288 48.5613 70.2406 48.8495 69.8839 48.8495ZM69.24 44.9553H66.6336V47.5617H69.24V44.9553Z" fill="#EBF0F6"/>
        <path d="M44.7018 53.3231V65.2978L35.9204 68.491L27.1389 65.2978V53.3231L26.3407 58.1511C22.893 58.8394 13.0125 55.5426 12.3538 54.9197L18.7566 45.3399C17.6922 43.4772 15.8029 38.6341 16.7609 34.1635C17.9583 28.5753 21.9498 16.9997 36.3195 16.6006C52.1252 17.8403 59.2683 32.3143 53.2651 44.1425L60.2691 55.3717C54.9052 58.0435 53.084 58.5121 47.0966 58.7608C47.0966 58.7608 44.7018 55.4006 44.7018 53.3231Z" fill="white"/>
        <path d="M0.794922 108.407H71.8449V88.0499C67.9638 74.9538 60.025 64.3125 45.325 64.925C44.7125 65.5375 41.2471 67.9875 36.1375 67.9875C28.4481 67.9875 25.725 64.9251 25.725 64.9251C9.18749 66.7626 5.88475 73.5151 0.794922 86.8524V108.407Z" fill="#315ED1"/>
        <rect x="44.1001" y="79.625" width="13.475" height="6.125" fill="white"/>
        <path d="M65.0861 72.1778C64.5948 71.6142 64.0812 71.0744 63.5486 70.5593C59.1607 66.3142 53.4257 63.7337 47.1526 63.7337H46.4065V59.1728L46.62 59.1759C46.6883 59.1775 46.7581 59.1791 46.8256 59.1791C49.8229 59.1791 52.3486 58.8021 54.4275 58.2758C55.3705 58.0369 56.223 57.7694 56.9802 57.4892C60.0481 56.3533 61.607 55.046 61.719 54.95C62.0008 54.7063 62.1357 54.3276 62.069 53.9609C62.0039 53.5942 61.746 53.2862 61.3951 53.1568C57.2691 51.6297 55.0434 45.4693 54.6386 44.25L54.6251 44.208L54.6418 44.1683C54.8442 43.7127 55.0228 43.2507 55.1895 42.7863C55.969 40.6194 56.3698 38.3627 56.3698 36.0552C56.3698 25.703 48.479 17.1454 38.3395 15.9548C37.6426 15.873 36.9361 15.8262 36.2202 15.8151C36.1185 15.8135 36.0185 15.8072 35.9169 15.8072C24.6392 15.8072 15.4641 24.8894 15.4641 36.0544C15.4641 36.418 15.4744 36.7799 15.4942 37.1411C15.5958 38.9977 15.961 40.8186 16.5769 42.5855C16.7889 43.1935 17.0262 43.796 17.2985 44.3897L17.3151 44.4262L17.285 44.508C17.281 44.5263 17.0151 45.4875 16.4507 46.7742C15.6966 48.4951 14.4044 50.7954 12.4859 52.2186C11.9668 52.6036 11.4048 52.9298 10.792 53.156C10.4427 53.2862 10.184 53.5942 10.1181 53.9609C10.0522 54.3284 10.1863 54.7071 10.4681 54.9492C10.669 55.1222 15.5117 59.1799 25.3631 59.1799L25.5845 59.1752V63.7329H25.0638L24.9511 63.7345C11.1928 63.7345 0 76.1204 0 91.3439V92.2496V94.369V107.968C0 108.55 0.473877 109.025 1.05729 109.025H71.0401C71.6219 109.025 72.0966 108.55 72.0966 107.968V93.5419V91.3336C72.0982 83.8984 69.4224 77.1459 65.0861 72.1778ZM58.79 54.157L58.9408 54.261L58.7805 54.3483C57.9557 54.7991 56.704 55.3818 55.0339 55.8906C54.2298 56.1358 53.3241 56.3613 52.3248 56.5494C50.7285 56.8494 48.8894 57.0486 46.7978 57.0486C46.705 57.0486 46.6113 57.0479 46.5168 57.0471L46.4049 57.0463V53.7291C46.4049 53.6887 46.393 53.6482 46.3811 53.6022C46.3732 53.5752 46.3652 53.5482 46.3605 53.5204L46.3438 53.441L46.4129 53.3997C46.8097 53.1632 47.1955 52.91 47.5757 52.6473C48.2028 52.2139 48.8068 51.7471 49.3815 51.2471C50.8508 49.9699 52.1398 48.4887 53.1852 46.8568L53.2995 46.6781L53.3829 46.8718C54.3862 49.1888 56.138 52.3313 58.79 54.157ZM48.0385 22.6311L48.1139 22.5533L48.1956 22.6256C51.689 25.7506 53.8163 30.0115 54.1838 34.6225L54.1957 34.7725L54.048 34.7416C46.7899 33.2144 43.0592 29.259 41.7924 27.6287L41.717 27.5318L41.8194 27.4652C43.9554 26.0792 46.0342 24.4735 47.994 22.6923C48.0099 22.6684 48.0218 22.6494 48.0385 22.6311ZM18.1978 31.4633C20.3148 23.4908 27.6007 17.9225 35.9177 17.9225C36.0193 17.9225 36.1201 17.9321 36.2209 17.9336C36.9337 17.9456 37.641 17.998 38.3403 18.0908C41.1994 18.4671 43.9276 19.4997 46.3351 21.15L46.4525 21.2317L46.3462 21.327C43.803 23.6091 41.1256 25.5109 38.3403 27.0595C37.641 27.4485 36.9345 27.812 36.2209 28.1533C33.5992 29.4099 30.89 30.3679 28.096 30.9815C25.2575 31.6038 22.854 31.7689 21.1061 31.7689C19.7147 31.7689 18.7399 31.6641 18.2915 31.6038L18.1652 31.5872L18.1978 31.4633ZM18.813 42.5855C18.1446 40.8789 17.7279 39.0501 17.6136 37.1411C17.5921 36.7815 17.5779 36.4196 17.5779 36.0552C17.5779 35.3647 17.6287 34.64 17.739 33.7748L17.7541 33.6589L17.8684 33.6771C18.4153 33.7628 19.5893 33.9081 21.3054 33.9081C24.9083 33.9081 30.1963 33.2652 36.2217 30.5283C36.9195 30.2116 37.6251 29.8726 38.3411 29.4972C38.8285 29.2416 39.319 28.9741 39.8135 28.6899L39.9008 28.6407L39.9604 28.7217C41.3804 30.6402 45.6008 35.2789 54.1179 36.9061L54.2147 36.9244L54.2092 37.0228C54.0996 39.0572 53.6369 40.9893 52.9114 42.7855C51.7882 45.5653 49.9975 47.9942 47.7321 49.8913C47.1455 50.3818 46.5391 50.8494 45.8937 51.2645C44.6015 52.0964 43.1918 52.7568 41.7043 53.2473C40.6239 53.6037 39.5 53.8601 38.3427 54.0125C37.6465 54.1038 36.9409 54.1633 36.2233 54.1752C36.1209 54.1768 36.0225 54.1895 35.9201 54.1895C30.4249 54.1895 25.4901 51.7844 22.1261 47.9863C21.7808 47.5965 21.4506 47.1925 21.1395 46.7742C20.1854 45.4954 19.4019 44.0881 18.813 42.5855ZM44.2927 54.5142V64.1965L43.8879 64.4417C43.183 64.8704 42.4504 65.2292 41.7027 65.5332C40.612 65.9761 39.4849 66.2881 38.3411 66.4667C37.6386 66.5762 36.9306 66.6381 36.2217 66.6484C36.1487 66.6492 36.0757 66.6555 36.0027 66.6555C33.2991 66.6563 30.5948 65.9316 28.1793 64.4806L27.6999 64.1933V54.5904L27.8563 54.657C30.4186 55.7493 33.1308 56.3025 35.9177 56.3025C36.0193 56.3025 36.1201 56.2962 36.2209 56.2946C36.9329 56.2843 37.6394 56.2374 38.3403 56.1541C39.4793 56.0192 40.6009 55.7882 41.7019 55.4627C42.525 55.2198 43.337 54.9309 44.1348 54.5824L44.2927 54.5142ZM25.475 57.0463C25.4464 57.0463 25.4171 57.0463 25.3885 57.0463C19.2646 57.0463 15.2609 55.3603 13.4146 54.3515L13.2534 54.2641L13.4051 54.1601C14.2099 53.6109 14.9116 52.9393 15.5395 52.2178C16.9635 50.5811 17.962 48.6586 18.5986 47.1171L18.6796 46.921L18.7963 47.0981C19.7305 48.5126 20.8569 49.8064 22.1229 50.9542C23.1771 51.9091 24.3272 52.7639 25.5599 53.4847L25.625 53.5228L25.6147 53.5974C25.6107 53.6228 25.6044 53.6466 25.598 53.6712C25.5917 53.6934 25.5861 53.7133 25.5861 53.7291V57.0471H25.475V57.0463ZM56.4944 106.911V99.499C56.4944 98.9172 56.0198 98.4426 55.4379 98.4426C54.8561 98.4426 54.3814 98.9172 54.3814 99.499V106.912H17.4532V99.499C17.4532 98.9172 16.9794 98.4426 16.3967 98.4426C15.8141 98.4426 15.3402 98.9172 15.3402 99.499V106.912H2.11538V94.369V92.2496V91.3424C2.11538 75.5933 13.9702 65.8459 24.9527 65.8459H26.3497L27.0911 66.292C29.7907 67.9129 32.8721 68.7694 36.0019 68.7694C36.0749 68.7694 36.1479 68.763 36.2209 68.7614C36.9314 68.7527 37.6394 68.7051 38.3403 68.6082C39.4857 68.4511 40.6112 68.1772 41.7019 67.7954C42.8409 67.3969 43.9411 66.8802 44.9841 66.2476L45.6429 65.8459H47.1511C52.3129 65.8467 57.6668 68.001 61.892 71.919C62.4341 72.4214 62.958 72.9533 63.4605 73.5129C67.3706 77.8722 69.9844 83.9413 69.9844 91.3336V93.5419V106.911H56.4944Z" fill="#133DBD"/>
        <path d="M58.1885 85.9854V79.2082C58.1885 78.8121 57.9599 78.4787 57.6361 78.2978C57.4837 78.2128 57.3178 78.1517 57.1312 78.1517H54.3054H44.5009C43.9183 78.1517 43.4436 78.6264 43.4436 79.2082V85.9854C43.4436 86.3021 43.5905 86.5775 43.8119 86.7712C43.9977 86.9339 44.2342 87.0418 44.5009 87.0418H46.9917H57.1312C57.7147 87.0418 58.1885 86.568 58.1885 85.9854ZM56.0747 84.9281H49.5643H46.0559H45.5574V80.2647H51.7329H55.2413H56.0747V84.9281Z" fill="#133DBD"/>
    </g>
</svg>
