<svg width="67" height="68" viewBox="0 0 67 68" fill="none" xmlns="http://www.w3.org/2000/svg">
    <path d="M53.542 54.69L53.3223 54.4698H53.0112H52.5478C53.8047 52.6921 54.5416 50.5249 54.5416 48.1958C54.5416 42.178 49.6636 37.3 43.6458 37.3C37.628 37.3 32.75 42.178 32.75 48.1958C32.75 54.2136 37.628 59.0916 43.6458 59.0916C45.9749 59.0916 48.1421 58.3547 49.9198 57.0978V57.5611V57.8722L50.14 58.092L57.9445 65.8808L58.4748 66.4101L59.0046 65.8803L61.3303 63.5546L61.8601 63.0248L61.3309 62.4945L53.542 54.69ZM43.6458 53.4587C42.0339 53.4587 40.7293 52.9118 39.8296 52.012C38.9298 51.1122 38.3829 49.8077 38.3829 48.1958C38.3829 46.5899 38.9432 45.2846 39.8534 44.3817C40.7646 43.478 42.0716 42.9329 43.6458 42.9329C46.732 42.9329 48.8919 45.1028 48.9087 48.1999C48.9255 51.2828 46.7396 53.4587 43.6458 53.4587Z" fill="#65D78D" stroke="#133DBD" stroke-width="1.5"/>
    <path d="M33.4814 15.681L48.6686 29.414H46.6634C46.2361 29.414 45.888 29.7611 45.888 30.1895V33.9432C45.888 34.3705 46.2351 34.7186 46.6634 34.7186C47.0916 34.7186 47.4388 34.3714 47.4388 33.9432V30.9649H50.6818C51.1091 30.9649 51.4573 30.6178 51.4573 30.1895C51.4573 29.9697 51.3635 29.7612 51.2021 29.6144L51.2018 29.6141L33.989 14.0494C33.8419 13.916 33.6543 13.85 33.4689 13.85C33.278 13.85 33.0845 13.9197 32.9361 14.0611C32.936 14.0612 32.9359 14.0613 32.9358 14.0614L16.0516 30.0433C15.8187 30.2625 15.7453 30.5968 15.864 30.8931C15.9813 31.1906 16.265 31.3818 16.584 31.3818H20.476V48.6155C20.476 49.0428 20.8239 49.3917 21.2522 49.3917H28.7829L28.7833 49.3917C29.2114 49.3908 29.5584 49.0428 29.5584 48.6147C29.5584 48.1875 29.2113 47.8393 28.7829 47.8393H22.0276V30.6056C22.0276 30.1783 21.6806 29.8302 21.2522 29.8302H18.5309L33.4814 15.681Z" fill="#133DBD" stroke="#133DBD" stroke-width="0.3"/>
    <path d="M63.6448 45.4336C65.1614 41.7164 66 37.6834 66 33.5C66 15.5507 51.4493 1 33.5 1C15.5507 1 1 15.5507 1 33.5C1 51.4493 15.5507 66 33.5 66C34.6994 66 35.8855 65.9314 37.0547 65.7981" stroke="#C4D3E4" stroke-width="2"/>
</svg>
