<svg width="66" height="66" viewBox="0 0 66 66" fill="none" xmlns="http://www.w3.org/2000/svg">
    <mask id="mask0_1_2322" style="mask-type:alpha" maskUnits="userSpaceOnUse" x="0" y="0" width="66" height="66">
        <circle cx="33" cy="33" r="33" fill="white"/>
    </mask>
    <g mask="url(#mask0_1_2322)">
        <circle cx="33" cy="33" r="32" fill="white" stroke="#C4D3E4" stroke-width="2"/>
        <path d="M54.2341 46.3813L54.1244 46.3515C53.5038 46.1814 53.0293 45.8866 52.6742 45.4484C52.1373 44.785 52.0269 44.0371 52.3184 43.0225C52.6852 41.7611 53.4525 40.5978 54.734 39.3611L54.795 39.3021L54.8554 39.3618C56.0479 40.5478 56.801 41.6677 57.2249 42.8862C57.4475 43.5204 57.4969 44.0345 57.3794 44.5033V44.5039C57.1379 45.4588 56.5342 46.0418 55.4786 46.3391L55.3682 46.3703V43.4457C55.3682 43.1328 55.1138 42.879 54.8015 42.879C54.4886 42.879 54.2348 43.1328 54.2348 43.4457V46.3813H54.2341Z" fill="#EBF0F6"/>
        <path d="M45.2478 15.8331H30.6894C30.3765 15.8331 30.122 16.0876 30.122 16.4005C30.122 16.7134 30.3765 16.9672 30.6894 16.9672H45.2478V19.1017H33.958C33.6451 19.1017 33.3913 19.3562 33.3913 19.6684C33.3913 19.9807 33.6458 20.2358 33.958 20.2358H45.2478V22.3703H35.5907C35.2778 22.3703 35.024 22.6248 35.024 22.937C35.024 23.2493 35.2784 23.5038 35.5907 23.5038H45.2459V25.5863H40.3537C40.0408 25.5863 39.7869 25.8408 39.7869 26.1537V50.3413H36.1198V40.083C36.1198 39.7701 35.8653 39.5163 35.553 39.5163H29.3339C29.021 39.5163 28.7666 39.7708 28.7666 40.083V50.3413H25.0604V13.6155H45.2478V15.8331Z" fill="#EBF0F6"/>
        <path d="M29.9023 40.6517H34.9854V50.3426H29.9023V40.6517Z" fill="#EBF0F6"/>
        <path d="M50.8696 30.2759H52.625V32.0313H50.8696V30.2759Z" fill="#EBF0F6"/>
        <path d="M44.8757 30.2759H46.6311V32.0313H44.8757V30.2759Z" fill="#EBF0F6"/>
        <path d="M44.8757 35.6323H46.6311V37.3877H44.8757V35.6323Z" fill="#EBF0F6"/>
        <path d="M24.0892 12.6502C24.197 12.5418 24.3404 12.4828 24.493 12.4828H45.8145C46.1274 12.4828 46.3812 12.7372 46.3812 13.0495V25.5876H57.101C57.4139 25.5876 57.6677 25.8421 57.6677 26.155V35.4155C57.6677 35.7284 57.4133 35.9829 57.101 35.9829C56.7888 35.9829 56.5343 35.7284 56.5343 35.4155V26.7205H40.9242V50.3407H54.2356V47.4979H54.0882C54.0415 47.4979 53.996 47.4921 53.9506 47.4804C53.0515 47.2603 52.3257 46.817 51.7934 46.1626C51.0169 45.2051 50.8332 44.0742 51.2305 42.7064C51.6648 41.2068 52.5665 39.8468 54.0674 38.427L54.4349 38.1024C54.6562 37.9103 54.9828 37.9148 55.1944 38.1122C56.7777 39.5839 57.7638 40.9815 58.2968 42.5123C58.5922 43.3562 58.6519 44.0989 58.4779 44.7818C58.1228 46.1853 57.1218 47.0987 55.5027 47.496L55.371 47.4934V50.3407H57.1004C57.4133 50.3407 57.6671 50.5952 57.6671 50.9081C57.6671 51.221 57.4126 51.4754 57.1004 51.4754H24.4917C24.1788 51.4754 23.9249 51.221 23.9249 50.9081V13.0482C23.9249 12.8982 23.9827 12.7567 24.0892 12.6502ZM54.801 42.8797C55.1139 42.8797 55.3677 43.1335 55.3677 43.4464V46.371L55.4781 46.3398C56.5336 46.0425 57.138 45.4595 57.3789 44.5046V44.5039C57.4964 44.0352 57.447 43.5211 57.2244 42.8869C56.8004 41.6684 56.0474 40.5485 54.8549 39.3625L54.7945 39.3028L54.7335 39.3618C53.452 40.5985 52.6847 41.7618 52.3179 43.0232C52.0264 44.0378 52.1368 44.7857 52.6736 45.4491C53.0287 45.8867 53.5033 46.1821 54.1239 46.3521L54.2336 46.382V43.4471C54.2343 43.1335 54.4887 42.8797 54.801 42.8797ZM29.9019 50.3426H34.9849V40.6517H29.9019V50.3426ZM25.0597 50.3426H28.7658V40.0844C28.7658 39.7715 29.0203 39.5176 29.3332 39.5176H35.5523C35.8652 39.5176 36.119 39.7721 36.119 40.0844V50.3426H39.7862V26.155C39.7862 25.8421 40.0407 25.5876 40.353 25.5876H45.2451V23.5051H35.59C35.2771 23.5051 35.0232 23.2506 35.0232 22.9384C35.0232 22.6261 35.2777 22.3716 35.59 22.3716H45.2477V20.2371H33.9579C33.645 20.2371 33.3912 19.9827 33.3912 19.6698C33.3912 19.3569 33.6457 19.103 33.9579 19.103H45.2477V16.9686H30.6893C30.3764 16.9686 30.122 16.7141 30.122 16.4018C30.122 16.0896 30.3764 15.8344 30.6893 15.8344H45.2477V13.6182H25.0597V50.3426Z" fill="#EBF0F6"/>
        <path d="M53.0593 32.8987H50.4366C50.1971 32.8987 50.003 32.7046 50.003 32.465V29.8424C50.003 29.6028 50.1971 29.4087 50.4366 29.4087H53.0593C53.2988 29.4087 53.4929 29.6028 53.4929 29.8424V32.465C53.4929 32.7046 53.2988 32.8987 53.0593 32.8987ZM52.625 30.276H50.8696V32.0314H52.625V30.276Z" fill="#EBF0F6"/>
        <path d="M47.4993 37.8213C47.4993 38.0609 47.3052 38.255 47.0656 38.255H44.443C44.2034 38.255 44.0093 38.0609 44.0093 37.8213V35.1986C44.0093 34.9591 44.2034 34.765 44.443 34.765H47.0656C47.3052 34.765 47.4993 34.9591 47.4993 35.1986V37.8213ZM46.6313 35.6323H44.876V37.3877H46.6313V35.6323Z" fill="#EBF0F6"/>
        <path d="M47.0646 32.8987H44.442C44.2024 32.8987 44.0083 32.7046 44.0083 32.465V29.8424C44.0083 29.6028 44.2024 29.4087 44.442 29.4087H47.0646C47.3042 29.4087 47.4983 29.6028 47.4983 29.8424V32.465C47.4989 32.7046 47.3048 32.8987 47.0646 32.8987ZM46.631 30.276H44.8756V32.0314H46.631V30.276Z" fill="#EBF0F6"/>
        <path d="M30.1053 35.9115V43.9761L24.1912 46.1266L18.2772 43.9761V35.9115L17.7396 39.163C15.4176 39.6265 8.76346 37.4063 8.31982 36.9868L12.632 30.5351C11.9151 29.2806 10.6427 26.0189 11.2879 23.0081C12.0943 19.2446 14.7825 11.4488 24.46 11.18C35.1047 12.0149 39.9154 21.7627 35.8724 29.7286L40.5894 37.2912C36.9769 39.0906 35.7504 39.4061 31.7181 39.5736C31.7181 39.5736 30.1053 37.3106 30.1053 35.9115Z" fill="white"/>
        <path d="M0.5354 73.0088H48.3854V59.2989C45.7716 50.4791 40.425 43.3125 30.525 43.725C30.1125 44.1375 27.7787 45.7875 24.3375 45.7875C19.1589 45.7875 17.325 43.7251 17.325 43.7251C6.18754 44.9626 3.96324 49.5102 0.5354 58.4925V73.0088Z" fill="#6288B9"/>
        <rect x="29.7" y="53.625" width="9.075" height="4.125" fill="white"/>
        <path d="M43.8335 48.6095C43.5026 48.23 43.1567 47.8665 42.798 47.5195C39.8429 44.6606 35.9806 42.9227 31.7559 42.9227H31.2534V39.851L31.3972 39.8532C31.4431 39.8543 31.4902 39.8553 31.5356 39.8553C33.5542 39.8553 35.2552 39.6014 36.6552 39.247C37.2903 39.0861 37.8644 38.9059 38.3744 38.7172C40.4406 37.9522 41.4905 37.0718 41.5658 37.0071C41.7556 36.843 41.8465 36.588 41.8016 36.341C41.7577 36.0941 41.584 35.8867 41.3477 35.7995C38.569 34.771 37.0701 30.6222 36.7974 29.8011L36.7883 29.7727L36.7996 29.746C36.9359 29.4391 37.0562 29.128 37.1684 28.8153C37.6934 27.3559 37.9633 25.8361 37.9633 24.2821C37.9633 17.3102 32.6491 11.5469 25.8205 10.7451C25.3511 10.69 24.8753 10.6585 24.3932 10.651C24.3247 10.6499 24.2574 10.6456 24.189 10.6456C16.5937 10.6456 10.4146 16.7622 10.4146 24.2816C10.4146 24.5264 10.4215 24.7702 10.4349 25.0134C10.5033 26.2638 10.7492 27.4901 11.1641 28.68C11.3068 29.0895 11.4666 29.4953 11.65 29.8951L11.6612 29.9197L11.6409 29.9748C11.6382 29.9871 11.4591 30.6345 11.0791 31.501C10.5712 32.66 9.70092 34.2092 8.40886 35.1676C8.05924 35.4269 7.68077 35.6466 7.26807 35.799C7.03286 35.8867 6.85859 36.0941 6.81422 36.341C6.76985 36.5886 6.86019 36.8435 7.04997 37.0066C7.18522 37.1231 10.4467 39.8559 17.0813 39.8559L17.2304 39.8527V42.9222H16.8797L16.8038 42.9233C7.53803 42.9233 0 51.2647 0 61.5173V62.1273V63.5546V72.7135C0 73.1053 0.319141 73.425 0.712053 73.425H47.8433C48.2352 73.425 48.5549 73.1053 48.5549 72.7135V62.9976V61.5104C48.5559 56.503 46.7539 51.9554 43.8335 48.6095ZM39.5933 36.4731L39.6948 36.5431L39.5868 36.6019C39.0314 36.9055 38.1884 37.2979 37.0636 37.6406C36.5221 37.8058 35.9122 37.9576 35.2391 38.0843C34.1641 38.2864 32.9255 38.4205 31.5169 38.4205C31.4544 38.4205 31.3913 38.42 31.3277 38.4195L31.2523 38.4189V36.1849C31.2523 36.1577 31.2443 36.1304 31.2362 36.0994C31.2309 36.0812 31.2256 36.0631 31.2224 36.0443L31.2111 35.9909L31.2576 35.9631C31.5249 35.8038 31.7847 35.6333 32.0408 35.4563C32.4631 35.1644 32.8699 34.8501 33.2569 34.5133C34.2464 33.6532 35.1146 32.6557 35.8186 31.5566L35.8956 31.4363L35.9517 31.5668C36.6274 33.1272 37.8072 35.2436 39.5933 36.4731ZM32.3524 15.2414L32.4032 15.189L32.4583 15.2376C34.811 17.3423 36.2436 20.2119 36.4911 23.3172L36.4991 23.4182L36.3997 23.3974C31.5116 22.3689 28.9991 19.7051 28.1459 18.6071L28.0951 18.5419L28.1641 18.4969C29.6026 17.5636 31.0026 16.4821 32.3225 15.2825C32.3332 15.2665 32.3412 15.2537 32.3524 15.2414ZM12.2557 21.1896C13.6814 15.8203 18.5882 12.0703 24.1895 12.0703C24.2579 12.0703 24.3258 12.0767 24.3937 12.0778C24.8737 12.0858 25.3501 12.1211 25.821 12.1836C27.7465 12.437 29.5839 13.1325 31.2052 14.2439L31.2844 14.2989L31.2127 14.3631C29.5 15.9 27.6968 17.1808 25.821 18.2238C25.3501 18.4857 24.8743 18.7305 24.3937 18.9604C22.628 19.8066 20.8035 20.4519 18.9218 20.8651C17.0102 21.2842 15.3915 21.3954 14.2143 21.3954C13.2772 21.3954 12.6208 21.3248 12.3187 21.2842L12.2337 21.273L12.2557 21.1896ZM12.6699 28.68C12.2198 27.5307 11.9392 26.2991 11.8622 25.0134C11.8478 24.7712 11.8382 24.5275 11.8382 24.2821C11.8382 23.817 11.8724 23.329 11.9467 22.7463L11.9568 22.6682L12.0338 22.6805C12.4021 22.7383 13.1928 22.8361 14.3485 22.8361C16.7749 22.8361 20.3363 22.4031 24.3942 20.5599C24.8641 20.3466 25.3394 20.1183 25.8215 19.8655C26.1498 19.6933 26.4801 19.5132 26.8132 19.3218L26.872 19.2887L26.9121 19.3432C27.8684 20.6352 30.7108 23.7593 36.4467 24.8552L36.512 24.8675L36.5082 24.9337C36.4345 26.3039 36.1228 27.605 35.6342 28.8148C34.8778 30.6868 33.6718 32.3226 32.1461 33.6003C31.751 33.9306 31.3426 34.2455 30.908 34.5251C30.0377 35.0853 29.0883 35.5301 28.0865 35.8605C27.359 36.1005 26.602 36.2732 25.8226 36.3758C25.3538 36.4373 24.8786 36.4774 24.3953 36.4854C24.3263 36.4864 24.2601 36.495 24.1911 36.495C20.4902 36.495 17.1668 34.8752 14.9013 32.3173C14.6687 32.0548 14.4463 31.7827 14.2368 31.501C13.5942 30.6398 13.0666 29.692 12.6699 28.68ZM29.8298 36.7136V43.2344L29.5572 43.3996C29.0825 43.6882 28.589 43.9299 28.0855 44.1346C27.351 44.4329 26.5919 44.643 25.8215 44.7633C25.3484 44.837 24.8716 44.8787 24.3942 44.8857C24.3451 44.8862 24.2959 44.8905 24.2467 44.8905C22.4259 44.891 20.6046 44.403 18.9779 43.4258L18.655 43.2322V36.765L18.7604 36.8099C20.486 37.5454 22.3126 37.918 24.1895 37.918C24.2579 37.918 24.3258 37.9138 24.3937 37.9127C24.8732 37.9057 25.349 37.8742 25.821 37.8181C26.5881 37.7272 27.3435 37.5716 28.0849 37.3525C28.6393 37.1889 29.1862 36.9943 29.7234 36.7596L29.8298 36.7136ZM17.1566 38.4189C17.1374 38.4189 17.1176 38.4189 17.0984 38.4189C12.9741 38.4189 10.2777 37.2835 9.03431 36.6041L8.92579 36.5452L9.02789 36.4752C9.56995 36.1053 10.0425 35.653 10.4654 35.1671C11.4244 34.0648 12.0969 32.7701 12.5256 31.7319L12.5801 31.5999L12.6587 31.7191C13.2879 32.6717 14.0465 33.5431 14.8991 34.3161C15.609 34.9592 16.3836 35.5349 17.2138 36.0203L17.2577 36.046L17.2507 36.0962C17.248 36.1133 17.2438 36.1293 17.2395 36.1459C17.2352 36.1609 17.2315 36.1742 17.2315 36.1849V38.4195H17.1566V38.4189ZM38.0473 72.0014V67.0096C38.0473 66.6177 37.7276 66.2981 37.3357 66.2981C36.9439 66.2981 36.6242 66.6177 36.6242 67.0096V72.002H11.7542V67.0096C11.7542 66.6177 11.4351 66.2981 11.0427 66.2981C10.6503 66.2981 10.3312 66.6177 10.3312 67.0096V72.002H1.42464V63.5546V62.1273V61.5163C1.42464 50.9098 9.40851 44.3452 16.8049 44.3452H17.7457L18.245 44.6457C20.0631 45.7373 22.1383 46.3141 24.2462 46.3141C24.2953 46.3141 24.3445 46.3098 24.3937 46.3087C24.8721 46.3028 25.349 46.2708 25.821 46.2055C26.5924 46.0997 27.3504 45.9153 28.0849 45.6581C28.8521 45.3898 29.593 45.0418 30.2954 44.6157L30.7391 44.3452H31.7548C35.2311 44.3458 38.8368 45.7966 41.6824 48.4353C42.0475 48.7736 42.4003 49.1318 42.7387 49.5087C45.372 52.4446 47.1324 56.5319 47.1324 61.5104V62.9976V72.0014H38.0473Z" fill="#0022CD"/>
        <path d="M39.1881 57.9085V53.3443C39.1881 53.0776 39.0341 52.8531 38.816 52.7312C38.7134 52.674 38.6016 52.6328 38.476 52.6328H36.5729H29.9699C29.5775 52.6328 29.2578 52.9525 29.2578 53.3443V57.9085C29.2578 58.1218 29.3567 58.3073 29.5059 58.4377C29.6309 58.5473 29.7902 58.62 29.9699 58.62H31.6474H38.476C38.8689 58.62 39.1881 58.3009 39.1881 57.9085ZM37.7645 57.1965H33.3799H31.0171H30.6814V54.0558H34.8404H37.2032H37.7645V57.1965Z" fill="#0022CD"/>
    </g>
</svg>
