<svg width="82" height="82" viewBox="0 0 82 82" fill="none" xmlns="http://www.w3.org/2000/svg">
    <circle cx="41" cy="41" r="40" fill="white"/>
    <path fill-rule="evenodd" clip-rule="evenodd" d="M41 2C19.4609 2 2 19.4609 2 41C2 62.5391 19.4609 80 41 80C43.9936 80 46.9072 79.6629 49.7054 79.025C50.2439 78.9023 50.7799 79.2393 50.9026 79.7777C51.0254 80.3162 50.6884 80.8522 50.1499 80.975C47.2069 81.6459 44.1442 82 41 82C18.3563 82 0 63.6437 0 41C0 18.3563 18.3563 0 41 0C63.6437 0 82 18.3563 82 41C82 45.482 81.2804 49.798 79.9498 53.8375C79.777 54.3621 79.2117 54.6472 78.6871 54.4744C78.1626 54.3016 77.8774 53.7363 78.0502 53.2118C79.3152 49.3716 80 45.2668 80 41C80 19.4609 62.5391 2 41 2Z" fill="#C4D3E4"/>
    <path d="M42.6239 33.333C42.6239 33.333 60.5702 33.9693 62.7339 36.1331C64.8977 38.2968 64.7068 65.2799 61.143 65.789C57.5792 66.2981 46.8878 67.1254 41.3512 66.6799C35.8145 66.2345 22.5776 65.5981 20.8593 63.2434C19.141 60.8888 18.5047 42.9425 20.8593 37.1513C22.5139 33.0784 42.6239 33.333 42.6239 33.333Z" fill="white"/>
    <path d="M61.5436 34.8015L61.2697 34.7359C61.0024 34.677 60.7154 34.6311 60.4024 34.5787C60.0959 34.5328 59.7502 34.4739 59.4307 34.4018L58.7785 34.2577V25.9629C58.7596 21.4518 56.9603 17.1324 53.7755 13.9524C50.5907 10.7723 46.2804 8.99132 41.7902 9.00003H41.1902C36.6933 9.00003 32.3805 10.7948 29.2007 13.9895C26.0209 17.1841 24.2345 21.517 24.2345 26.035V34.3166L23.5824 34.4673C23.2628 34.5394 22.9302 34.5918 22.6172 34.6377C22.2976 34.6901 22.0172 34.7359 21.7498 34.7949L21.4694 34.867C20.4964 35.0422 19.6157 35.5557 18.9815 36.3175C18.3472 37.0792 17.9998 38.0408 18 39.034V61.7167C18.0068 62.7019 18.3518 63.6545 18.9768 64.4137C19.6018 65.1729 20.4684 65.6921 21.4303 65.8837L23.3867 66.2768C29.3554 67.4112 35.4157 67.988 41.4902 68C41.7237 68 41.9476 67.9068 42.1128 67.7409C42.2779 67.5751 42.3706 67.3501 42.3706 67.1155C42.3706 66.8809 42.2779 66.6559 42.1128 66.49C41.9476 66.3242 41.7237 66.231 41.4902 66.231C35.5419 66.2454 29.606 65.6837 23.765 64.5537L21.8085 64.154C21.2709 64.0423 20.7838 63.7584 20.4205 63.3449C20.0571 62.9314 19.8371 62.4107 19.7934 61.8609V38.9685C19.7976 38.4008 20.0005 37.8527 20.3666 37.4203C20.7326 36.9879 21.2385 36.6986 21.7955 36.6032L22.0563 36.5377C34.9312 34.1201 48.1405 34.1201 61.0154 36.5377L61.2828 36.6032C61.8309 36.7093 62.3254 37.003 62.6821 37.4343C63.0388 37.8655 63.2357 38.4077 63.2392 38.9685V43.9086C63.2392 44.1432 63.332 44.3682 63.4971 44.5341C63.6622 44.6999 63.8861 44.7931 64.1196 44.7931C64.3531 44.7931 64.577 44.6999 64.7421 44.5341C64.9072 44.3682 65 44.1432 65 43.9086V38.9685C64.9908 37.9799 64.6416 37.025 64.0117 36.2656C63.3817 35.5061 62.5098 34.9889 61.5436 34.8015ZM49.4072 33.2421L48.5008 33.1831C43.8548 32.849 39.1909 32.849 34.5449 33.1831L33.6515 33.2421V26.094C33.6583 24.0681 34.461 22.127 35.885 20.6926C37.309 19.2583 39.2391 18.4469 41.2554 18.4348H41.7902C43.8089 18.4434 45.7423 19.2533 47.1691 20.688C48.5959 22.1227 49.4004 24.0659 49.4072 26.094V33.2421ZM56.9786 34.048L56.0135 33.8973C54.6374 33.7007 53.2679 33.5697 51.8658 33.4321L51.1028 33.36V26.035C51.1028 23.5345 50.1141 21.1364 48.3542 19.3683C46.5943 17.6001 44.2074 16.6068 41.7185 16.6068H41.1902C38.7062 16.6206 36.3279 17.6185 34.572 19.3839C32.8161 21.1492 31.8244 23.5393 31.8124 26.035V33.3404L31.0429 33.4125C30.3581 33.478 29.6734 33.5632 28.9756 33.6418C28.2778 33.7204 27.5735 33.8056 26.8692 33.8711L25.9366 33.9628V26.035C25.9435 21.9883 27.5466 18.1094 30.3947 15.248C33.2428 12.3866 37.1037 10.776 41.1315 10.769H41.725C45.7619 10.7638 49.6359 12.3686 52.4959 15.231C55.356 18.0934 56.9683 21.9792 56.9786 26.035V34.048Z" fill="#0022CD"/>
    <path fill-rule="evenodd" clip-rule="evenodd" d="M59.1472 48.5464C59.6717 48.5464 60.097 48.9716 60.097 49.4961V52.9784C60.097 53.5029 59.6717 53.9281 59.1472 53.9281C58.6227 53.9281 58.1975 53.5029 58.1975 52.9784V49.4961C58.1975 48.9716 58.6227 48.5464 59.1472 48.5464Z" fill="#0022CD"/>
    <path fill-rule="evenodd" clip-rule="evenodd" d="M45.2307 63.181C45.2236 62.6565 45.6431 62.2256 46.1675 62.2186L49.6495 62.1718C50.174 62.1648 50.6049 62.5843 50.6119 63.1087C50.619 63.6332 50.1995 64.0641 49.675 64.0711L46.193 64.1179C45.6686 64.1249 45.2377 63.7055 45.2307 63.181Z" fill="#0022CD"/>
    <path fill-rule="evenodd" clip-rule="evenodd" d="M49.0497 52.7058C49.4175 52.3319 50.0188 52.3268 50.3928 52.6946L52.8756 55.1364C53.2496 55.5042 53.2546 56.1055 52.8868 56.4795C52.519 56.8534 51.9177 56.8584 51.5437 56.4906L49.0609 54.0489C48.6869 53.6811 48.6819 53.0798 49.0497 52.7058Z" fill="#0022CD"/>
    <path fill-rule="evenodd" clip-rule="evenodd" d="M69.3303 52.7019C69.7003 53.0737 69.6989 53.675 69.3271 54.045L66.8587 56.5014C66.4869 56.8714 65.8856 56.8699 65.5156 56.4981C65.1456 56.1263 65.1471 55.525 65.5189 55.155L67.9872 52.6986C68.359 52.3287 68.9603 52.3301 69.3303 52.7019Z" fill="#0022CD"/>
    <path fill-rule="evenodd" clip-rule="evenodd" d="M53.5015 68.5306C53.8715 68.9024 53.87 69.5037 53.4982 69.8737L51.0299 72.3301C50.6581 72.7001 50.0567 72.6986 49.6868 72.3268C49.3168 71.955 49.3182 71.3537 49.69 70.9837L52.1584 68.5273C52.5301 68.1573 53.1315 68.1588 53.5015 68.5306Z" fill="#0022CD"/>
    <g clip-path="url(#clip0_1_2011)">
        <path d="M72.5008 73.8399C71.4211 72.7292 70.4267 71.5322 69.5268 70.2599C70.0829 69.6556 72.1572 68.4731 74.2503 67.596C74.4481 67.5064 74.6161 67.3579 74.733 67.1693C74.8499 66.9806 74.9105 66.7602 74.9071 66.5358C74.9038 66.3114 74.8367 66.0931 74.7142 65.9083C74.5918 65.7235 74.4195 65.5805 74.219 65.4973L57.4683 59.0715C57.2835 58.9957 57.0824 58.9736 56.8865 59.0077C56.6905 59.0419 56.5073 59.1308 56.3563 59.2651C56.2054 59.3993 56.0924 59.5738 56.0297 59.7698C55.9669 59.9658 55.9566 60.1758 56 60.3774L59.7488 78.57C59.7958 78.7935 59.9066 78.9971 60.0666 79.1541C60.2267 79.3112 60.4286 79.4143 60.6459 79.4501C60.8632 79.4859 61.0859 79.4527 61.2848 79.3548C61.4836 79.2569 61.6495 79.0988 61.7606 78.9013C62.6459 77.2436 63.7041 75.6922 64.9158 74.2752C65.9836 75.3672 66.9793 76.5329 67.8961 77.7643C69.9142 80.3308 70.4765 81.013 71.2887 81.013C72.5383 81.013 74.9688 78.8364 74.9688 77.3745C75 76.6143 74.4377 75.9646 72.5008 73.8399ZM73.0694 77.8423L71.7386 79.0378C71.6446 79.1265 71.5219 79.1752 71.3949 79.1742H71.3575C71.2204 79.1644 71.0926 79.0991 71.0013 78.9923L66.1029 73.1447C65.9585 72.9663 65.7789 72.8223 65.5762 72.7225C65.3735 72.6227 65.1526 72.5695 64.9283 72.5664H64.8846C64.6518 72.5757 64.4238 72.6389 64.2174 72.7513C64.011 72.8637 63.8312 73.0225 63.6912 73.2162L60.9984 76.8677L57.8744 61.1051L72.4509 66.5109L68.6396 68.7785C68.438 68.8971 68.264 69.0605 68.1301 69.257C67.9962 69.4536 67.9056 69.6784 67.8649 69.9155C67.8292 70.153 67.845 70.3958 67.9109 70.6262C67.9768 70.8566 68.0913 71.0689 68.246 71.2475L73.1444 77.0951C73.2369 77.2065 73.2839 77.351 73.2756 77.4979C73.2519 77.636 73.1781 77.7593 73.0694 77.8423Z" fill="#0022CD"/>
        <path d="M68.2149 71.2475C68.0602 71.0689 67.9457 70.8566 67.8798 70.6262C67.8138 70.3958 67.7981 70.153 67.8337 69.9155C67.8745 69.6784 67.9651 69.4536 68.099 69.257C68.2329 69.0605 68.4069 68.8971 68.6085 68.7785L72.4197 66.5109L57.8745 61.1051L60.9985 76.8677L63.6664 73.2422C63.8064 73.0485 63.9861 72.8897 64.1925 72.7773C64.399 72.6649 64.6269 72.6017 64.8597 72.5924H64.9034C65.1277 72.5955 65.3486 72.6487 65.5513 72.7485C65.754 72.8483 65.9337 72.9923 66.0781 73.1707L70.9764 79.0183C71.0677 79.1251 71.1956 79.1904 71.3326 79.2002H71.3701C71.497 79.2012 71.6197 79.1525 71.7137 79.0638L73.0695 77.8423C73.1707 77.749 73.2334 77.6186 73.2445 77.4784C73.2528 77.3315 73.2057 77.187 73.1132 77.0756L68.2149 71.2475Z" fill="#CCFF69"/>
    </g>
    <defs>
        <clipPath id="clip0_1_2011">
            <rect width="19" height="22" fill="white" transform="translate(56 59)"/>
        </clipPath>
    </defs>
</svg>
