<svg width="24" height="24" viewBox="0 0 24 24" xmlns="http://www.w3.org/2000/svg">
    <path fill-rule="evenodd" clip-rule="evenodd" d="M4.144 12.002c0-5.05 4.17-9.14 9.26-9 4.69.13 8.61 4.05 8.74 8.74.14 5.09-3.95 9.26-9 9.26-2.09 0-4-.71-5.52-1.91-.47-.36-.5-1.07-.08-1.49.36-.36.92-.39 1.32-.08 1.18.93 2.67 1.48 4.28 1.48 3.9 0 7.05-3.19 7-7.1-.05-3.72-3.18-6.85-6.9-6.9-3.92-.05-7.1 3.1-7.1 7h1.79a.5.5 0 01.36.85l-2.79 2.8c-.2.2-.51.2-.71 0l-2.79-2.8c-.32-.31-.1-.85.35-.85h1.79zm8-3.25c0-.41.34-.75.75-.75s.75.34.75.74v3.4l2.88 1.71c.35.21.47.67.26 1.03-.21.35-.67.47-1.03.26l-3.12-1.85c-.3-.18-.49-.51-.49-.86v-3.68z"/>
</svg>