<svg width="24" height="24" viewBox="0 0 24 24" xmlns="http://www.w3.org/2000/svg">
    <path d="M9.65 3.433a.64.64 0 00.225.869l4.262 2.524a.621.621 0 00.856-.23.639.639 0 00-.226-.864l-4.261-2.528a.621.621 0 00-.856.23zM4.252 12.777a.64.64 0 00.225.868l4.504 2.65a.62.62 0 00.856-.23.635.635 0 00-.226-.864l-4.504-2.65a.616.616 0 00-.855.226zM12.204 12.733l7.833 4.642a1.296 1.296 0 001.784-.476s0-.004.004-.004a1.33 1.33 0 00-.472-1.802l-7.838-4.642c-.166.411-.353.822-.57 1.202a9.768 9.768 0 01-.74 1.08zM5.235 12.349l4.5 2.631s2.04-1.797 2.997-3.474c1.039-1.815 1.477-4.378 1.477-4.378L9.701 4.484s-1.92 1.46-3.04 3.422c-1.09 1.919-1.426 4.443-1.426 4.443zM3 21h10.068s-.157-2.925-2.09-2.925H5.235C3.358 18.075 3 21 3 21z"/>
</svg>