<svg width="24" height="24" viewBox="0 0 24 24" xmlns="http://www.w3.org/2000/svg">
    <path fill-rule="evenodd" clip-rule="evenodd" d="M12.056 4.211v2.211H20.9c1.216 0 2.211.995 2.211 2.211V19.69A2.218 2.218 0 0 1 20.9 21.9H3.211A2.218 2.218 0 0 1 1 19.689V4.21C1 2.995 1.995 2 3.211 2h6.633c1.217 0 2.212.995 2.212 2.211ZM3.21 19.69h2.211v-2.211h-2.21v2.21Zm2.211-4.422h-2.21v-2.211h2.21v2.21Zm-2.21-4.422h2.21V8.633h-2.21v2.212Zm2.21-4.423h-2.21V4.211h2.21v2.211ZM7.633 19.69h2.211v-2.211h-2.21v2.21Zm2.211-4.422h-2.21v-2.211h2.21v2.21Zm-2.21-4.422h2.21V8.633h-2.21v2.212Zm2.21-4.423h-2.21V4.211h2.21v2.211Zm2.212 13.267h7.738c.608 0 1.106-.498 1.106-1.106V9.74c0-.608-.497-1.106-1.106-1.106h-7.739v2.212h2.212v2.21h-2.211v2.212h2.21v2.21h-2.21v2.212Zm6.633-8.845h-2.211v2.212h2.21v-2.212Zm-2.211 4.423h2.21v2.21h-2.21v-2.21Z"/>
</svg>