<svg xmlns="http://www.w3.org/2000/svg" width="24" height="24" viewBox="0 0 24 24">
    <path d="M22.2 9.2c-.7-.4-1.5-.6-1.5-.6l-.4 1.4s.6.2 1.2.5c.7.4.9.7.9.9s-.3.8-1.8 1.4c-1.3.5-3.9 1.2-8.6 1.2-4.7 0-7.3-.6-8.6-1.2-1.5-.6-1.8-1.2-1.8-1.4 0-.2.4-.7 1.8-1.1.2 0 .4-.1.6-.1l-.4.6 1.3.8L6.6 9 4.3 6.6 3.2 7.7l.8.8c-.3.1-.7.2-1 .3-2 .6-3 1.4-3 2.6 0 .5.3 1.8 2.8 2.8 2.1.9 5.2 1.3 9.2 1.3 4 0 7.1-.4 9.2-1.3 2.5-1 2.8-2.3 2.8-2.8 0-.8-.6-1.6-1.8-2.2zm-6.1 7.3-1.5-.2c-.3 2.8-.9 4.3-1.4 5.1-.4.8-.8 1-1 1-.1 0-.5-.2-1-1-.4-.8-1-2.2-1.4-5l-1.5.2c.3 2.4.8 4.3 1.6 5.6.9 1.5 1.8 1.8 2.3 1.8.5 0 1.4-.3 2.3-1.8.8-1.3 1.4-3.2 1.6-5.7z"/><path d="M9.5 2.7C8.6 4.9 8.2 8 8.2 12h1.6c0-4.7.6-7.3 1.2-8.6.6-1.4 1.2-1.8 1.4-1.8.1 0 .4.2.8.8.3.5.8 1.6 1.2 3.7.2.9.3 2 .4 3.2v.6L13.7 9l-1 1.2 2.9 2.6 2.6-2.5-1.1-1.1-.8.8v-.6c-.1-1.2-.2-2.4-.4-3.3-.8-4.5-2.4-6.1-3.6-6.1-.6 0-1.8.3-2.8 2.7z"/>
</svg>