<svg width="48" height="48" viewBox="0 0 48 48" xmlns="http://www.w3.org/2000/svg">
    <path d="M15.196 28.419h-1.62v2.403h1.62c.651 0 1.166-.57 1.166-1.169-.001-.674-.515-1.234-1.166-1.234zM21.72 28.466h-1.61v4.324h1.61c2.622 0 2.738-4.324 0-4.324z" fill="#fff"/>
    <path d="M34.929 23.105H8.214c-.668 0-1.214.543-1.214 1.207v12.07c0 .664.546 1.207 1.214 1.207H34.93c.669 0 1.214-.543 1.214-1.207v-12.07c0-.664-.545-1.207-1.214-1.207zm-19.733 8.923h-1.62v1.275c0 .425-.273.665-.622.665-.32 0-.66-.24-.66-.666v-5.433c0-.319.253-.668.66-.668h2.242c1.263 0 2.4.84 2.4 2.452-.001 1.526-1.137 2.375-2.4 2.375zm6.612 1.94h-2.31c-.321 0-.67-.175-.67-.599v-5.48c0-.348.349-.6.67-.6h2.223c4.437 0 4.34 6.679.087 6.679zm8.652-5.424h-2.827v1.534h2.476c.351 0 .7.348.7.685 0 .32-.349.579-.7.579h-2.476v2.026c0 .338-.241.599-.581.599-.428 0-.69-.26-.69-.599v-5.48c0-.349.263-.6.69-.6h3.408c.427 0 .679.252.679.6 0 .31-.252.656-.679.656z" fill="#fff"/>
    <path d="M39.786 14.156l-7.998-7.949C31.086 5.507 29.853 5 28.857 5H15.5c-2.009 0-3.643 1.625-3.643 3.621v12.07a1.21 1.21 0 001.214 1.207 1.21 1.21 0 001.215-1.207V8.621c0-.665.543-1.207 1.214-1.207h10.928a2.421 2.421 0 012.429 2.414v4.526c0 1.495 1.231 2.716 2.732 2.716h4.554a2.421 2.421 0 012.428 2.414v20.52c0 .664-.542 1.206-1.214 1.206H15.5c-.67 0-1.214-.542-1.214-1.207a1.21 1.21 0 00-1.215-1.207 1.21 1.21 0 00-1.214 1.207c0 1.996 1.634 3.621 3.643 3.621h21.857C39.365 43.624 41 42 41 40.004V17.07c0-.989-.51-2.215-1.214-2.914z" fill="#fff"/>
</svg>