<svg viewBox="0 0 28 28" width="28" height="28" fill="currentColor" xmlns="http://www.w3.org/2000/svg">
    <path fill-rule="evenodd" d="M3.5 8.167A1.17 1.17 0 014.667 7h18.666A1.17 1.17 0 0024.5 5.833a1.17 1.17 0 00-1.167-1.166H3.5A2.34 2.34 0 001.167 7v14A2.34 2.34 0 003.5 23.333H7a1.17 1.17 0 001.167-1.166A1.17 1.17 0 007 21H4.667A1.17 1.17 0 013.5 19.833V8.167zM14 14h-2.333a1.17 1.17 0 00-1.167 1.167v.91a3.464 3.464 0 00-1.167 2.59c0 1.038.455 1.948 1.167 2.59v.91a1.17 1.17 0 001.167 1.166H14a1.17 1.17 0 001.167-1.166v-.91a3.484 3.484 0 001.166-2.59 3.483 3.483 0 00-1.166-2.59v-.91A1.17 1.17 0 0014 14zm-2.917 4.667c0 .968.782 1.75 1.75 1.75.969 0 1.75-.782 1.75-1.75 0-.969-.781-1.75-1.75-1.75-.968 0-1.75.781-1.75 1.75zm14.584-9.334h-7c-.584 0-1.167.584-1.167 1.167v11.667c0 .583.583 1.166 1.167 1.166h7c.583 0 1.166-.583 1.166-1.166V10.5c0-.583-.583-1.167-1.166-1.167zM19.833 21H24.5v-9.333h-4.667V21z"/>
  </svg>
