<svg width="21" height="18" viewBox="0 0 21 18" xmlns="http://www.w3.org/2000/svg">
    <path d="M11.09 18h7.16v-4.25l.051-.15.55-1.531L21 6.045 3.797 0 1.399 6.723H0V18H11.091zm-3.957-4.862l3.502 1.233a2.565 2.565 0 01-1.29.473c-.073.005-.145.016-.223.016a2.587 2.587 0 01-2.492-1.897l.503.175zm5.734-5.973c.3.622.337 1.316.104 1.964a2.595 2.595 0 01-3.31 1.562A2.569 2.569 0 018.19 9.375a2.513 2.513 0 01-.104-1.963 2.588 2.588 0 013.305-1.568 2.586 2.586 0 011.476 1.321zm-10.37 1.1l.549-1.542 1.699-4.754 6.33 2.225a4.148 4.148 0 00-2.331.365A4.098 4.098 0 006.62 6.898a4.071 4.071 0 00.166 3.145 4.107 4.107 0 002.357 2.108c.456.16.922.236 1.383.236 1.71 0 3.31-1.053 3.91-2.74a4.071 4.071 0 00-.165-3.145 4.131 4.131 0 00-1.58-1.742l6.33 2.225-.766 2.149-.803 2.25-.752 2.103-.145.406-.295.823-.544-.19-1.75-.617-.907-.32-1.476-.518-4.864-1.712-1.466-.514L1.989 9.7l.508-1.434zm-.508 8.193h-.435v-5.279l.435.155 3 1.053c.051 2.226 1.885 4.02 4.138 4.02a4.133 4.133 0 003.155-1.455l.197.072 1.75.617 2.347.822H1.99v-.005z"/>
</svg>