<svg width="24" height="24" viewBox="0 0 24 24" xmlns="http://www.w3.org/2000/svg">
    <path d="M9.955 21.992c0-.046.007-.093.007-.14v-8.42-.108H7.133C7 13.33 7 13.33 7 13.214v-3.153c0-.093.031-.116.125-.116h2.837v-.101c0-.87-.007-1.748.008-2.618.008-.7.15-1.383.455-2.02.415-.87 1.073-1.483 1.967-1.856A4.859 4.859 0 0114.265 3c.737.008 1.481.047 2.218.07.14.008.274.031.415.04.079 0 .102.03.102.108V6.06c0 .093-.023.116-.118.116-.564 0-1.12-.007-1.685 0a4.067 4.067 0 00-.76.086c-.478.1-.768.42-.862.893-.039.194-.063.388-.063.583-.007.714 0 1.421 0 2.136 0 .023 0 .039.008.077h3.229c.133 0 .141 0 .118.125-.07.559-.15 1.118-.22 1.678-.062.465-.117.932-.172 1.405-.024.18-.016.18-.196.18H13.52V22c-1.199-.008-2.382-.008-3.565-.008z"/>
</svg>