<svg width="22" height="27" xmlns="http://www.w3.org/2000/svg">
    <path d="M.793 8.007h17.95l-4.734 5.024a.817.817 0 0 0 .025 1.143.787.787 0 0 0 1.123-.019l6.551-6.949L15.151.245a.79.79 0 0 0-1.123-.026.823.823 0 0 0-.026 1.143l4.735 5.024H.793A.81.81 0 0 0 0 7.2a.8.8 0 0 0 .793.807ZM21.206 18.992H3.256l4.735-5.024a.817.817 0 0 0-.025-1.143.784.784 0 0 0-1.124.026L.298 19.8l6.55 6.948a.772.772 0 0 0 .572.246.81.81 0 0 0 .552-.226.823.823 0 0 0 .025-1.143L3.262 20.6h17.95a.8.8 0 0 0 .794-.808.8.8 0 0 0-.8-.8Z" fill="#fff"/>
</svg>