<svg width="19" height="21" viewBox="0 0 19 21" xmlns="http://www.w3.org/2000/svg">
    <path fill="#FFF" d="M10.174 1.815V.684A.681.681 0 009.497 0a.681.681 0 00-.676.684v1.131C4.2 2.139.463 5.73.003 10.435a.679.679 0 00.607.745c.022 0 .043.004.065.004h8.146v6.453c0 1.855 1.491 3.363 3.325 3.363s3.325-1.508 3.325-3.363a.681.681 0 00-.676-.684.681.681 0 00-.677.684c0 1.1-.884 1.99-1.972 1.995-1.088 0-1.968-.894-1.973-1.995v-6.453h8.15A.681.681 0 0019 10.5c0-.022 0-.044-.004-.066-.464-4.704-4.201-8.295-8.822-8.619zm3.06 8.001h-3.06V3.678a7.264 7.264 0 013.06 5.932v.206zM8.825 3.678v6.138h-3.06v-.21a7.244 7.244 0 013.06-5.928zm-2.02-.052a8.614 8.614 0 00-2.393 5.98v.21H1.46c.559-2.88 2.657-5.226 5.345-6.19zm7.782 6.19v-.21a8.606 8.606 0 00-2.393-5.98c2.688.964 4.786 3.31 5.345 6.19h-2.952z"/>
</svg>