<svg width="72" height="72" viewBox="0 0 72 72" fill="none" xmlns="http://www.w3.org/2000/svg">
    <path d="M52.7691 28.142C53.7951 28.142 54.7811 27.971 55.7061 27.667V16.387H43.6551C43.4631 17.135 43.3501 17.915 43.3501 18.723C43.3501 23.916 47.5751 28.142 52.7691 28.142Z" fill="#CCFF69"/>
    <path d="M61.294 10H39.556H11.798C11.357 10 11 10.357 11 10.798V60.294C11 60.735 11.357 61.092 11.798 61.092H61.294C61.735 61.092 62.092 60.735 62.092 60.294V34.417V10.799C62.093 10.358 61.735 10 61.294 10ZM60.496 34.417V59.496H12.597V11.597H39.557H60.496V34.417Z" fill="#0022CD"/>
    <path d="M16.589 14.79C16.148 14.79 15.791 15.147 15.791 15.588V55.504C15.791 55.945 16.148 56.302 16.589 56.302H56.505C56.946 56.302 57.303 55.945 57.303 55.504V34.417V15.589C57.303 15.148 56.946 14.791 56.505 14.791H39.557H16.589V14.79ZM35.748 54.706H17.387V36.345H35.748V54.706ZM35.748 34.748H17.387V16.387H35.748V34.748ZM55.706 54.706H37.345V36.345H55.706V54.706ZM43.655 16.387H55.706V27.667C54.781 27.972 53.795 28.142 52.769 28.142C47.576 28.142 43.35 23.916 43.35 18.723C43.35 17.915 43.463 17.135 43.655 16.387ZM52.769 29.952C53.787 29.952 54.768 29.804 55.706 29.549V34.748H37.345V16.387H41.787C41.627 17.141 41.539 17.922 41.539 18.723C41.538 24.915 46.576 29.952 52.769 29.952Z" fill="#0022CD"/>
</svg>
