<svg width="72" height="72" viewBox="0 0 72 72" fill="none" xmlns="http://www.w3.org/2000/svg">
    <path d="M13.5 45L2 53V65H69V60H45.5L31.5 53L25 55C24.5 54.8333 23.1 54.2 21.5 53C19.9 51.8 15.5 47.1667 13.5 45Z" fill="#CCFF69" stroke="#0022CD" stroke-width="2"/>
    <path d="M54.7 26.4C58.1242 26.4 60.9 23.6242 60.9 20.2C60.9 16.7758 58.1242 14 54.7 14C51.2758 14 48.5 16.7758 48.5 20.2C48.5 23.6242 51.2758 26.4 54.7 26.4Z" fill="#CCFF69" stroke="#CCFF69" stroke-width="2" stroke-miterlimit="10" stroke-linecap="round" stroke-linejoin="round"/>
    <path d="M21.9764 24.6677C21.9774 24.6677 21.9794 24.6677 21.9804 24.6677C21.9924 24.7047 24.0644 24.6677 25.3974 26.0027C26.1754 26.7817 26.5644 27.8917 26.5544 29.3017C26.5514 29.7617 26.9224 30.1377 27.3824 30.1407C27.3844 30.1407 27.3863 30.1407 27.3883 30.1407C27.3913 30.1407 27.3934 30.1387 27.3954 30.1387C27.3984 30.1387 27.4004 30.1407 27.4024 30.1407C27.4044 30.1407 27.4064 30.1407 27.4084 30.1407C27.8694 30.1377 28.2394 29.7627 28.2364 29.3017C28.2264 27.8907 28.6163 26.7807 29.3933 26.0027C30.7273 24.6667 32.8314 24.6807 32.8114 24.6677C32.8144 24.6677 32.8163 24.6677 32.8183 24.6677C33.2743 24.6677 33.6474 24.3007 33.6524 23.8437C33.6574 23.3837 33.2883 23.0057 32.8283 23.0007C32.7153 22.9947 30.0563 22.9907 28.2273 24.8117C27.9003 25.1377 27.6273 25.5027 27.3963 25.8977C27.1653 25.5027 26.8923 25.1377 26.5653 24.8117C24.7343 22.9897 22.0783 23.0147 21.9643 23.0007C21.5053 23.0057 21.1384 23.3817 21.1424 23.8417C21.1454 24.2987 21.5194 24.6677 21.9764 24.6677Z" fill="#0022CD"/>
    <path d="M12.2822 31.9828C12.2832 31.9828 12.2833 31.9828 12.2843 31.9828C12.3033 31.9828 13.7283 31.9928 14.6293 32.8968C15.1533 33.4238 15.4153 34.1808 15.4093 35.1508C15.4063 35.6108 15.7773 35.9868 16.2373 35.9898C16.2393 35.9898 16.2413 35.9898 16.2433 35.9898C16.2453 35.9898 16.2462 35.9888 16.2482 35.9888C16.2502 35.9888 16.2513 35.9898 16.2533 35.9898C16.2553 35.9898 16.2573 35.9898 16.2593 35.9898C16.7193 35.9868 17.0903 35.6118 17.0873 35.1508C17.0803 34.1818 17.3423 33.4238 17.8673 32.8968C18.7603 32.0008 20.1673 31.9838 20.2113 31.9828C20.2133 31.9828 20.2153 31.9828 20.2183 31.9828C20.6743 31.9828 21.0463 31.6158 21.0523 31.1588C21.0573 30.6988 20.6883 30.3208 20.2283 30.3158C20.1373 30.2968 18.1063 30.3058 16.7003 31.7058C16.5283 31.8768 16.3873 32.0688 16.2493 32.2648C16.1123 32.0698 15.9703 31.8768 15.7983 31.7058C14.3913 30.3058 12.3513 30.2998 12.2703 30.3158C11.8113 30.3208 11.4453 30.6958 11.4483 31.1548C11.4513 31.6138 11.8252 31.9828 12.2822 31.9828Z" fill="#0022CD"/>
    <path d="M69.1 7.09998H2V65.2H69.1V7.09998Z" stroke="#0022CD" stroke-width="2" stroke-miterlimit="10" stroke-linejoin="round"/>
    <path d="M35.5 7V65.6" stroke="#0022CD" stroke-width="3" stroke-miterlimit="10" stroke-linejoin="round"/>
</svg>
