<svg width="72" height="72" viewBox="0 0 72 72" fill="none" xmlns="http://www.w3.org/2000/svg">
    <path d="M11.39 22.4851C11.86 22.4851 12.2411 22.1041 12.2411 21.6341V11.7021H60.0171V21.6521C60.0171 22.1221 60.3981 22.4941 60.8681 22.4941C61.3381 22.4941 61.719 22.1041 61.719 21.6341V11.4861C61.719 10.6671 61.0531 10.0011 60.2331 10.0011L12.101 10.0051C12.01 9.99706 11.9191 9.99706 11.7461 10.0161C11.0341 10.1521 10.526 10.7771 10.538 11.4871V21.6361C10.539 22.1041 10.92 22.4851 11.39 22.4851Z" fill="#133DBD"/>
    <path d="M60.8681 48.6931C60.3981 48.6931 60.0171 49.0741 60.0171 49.5441V59.4761H12.2411V49.5441C12.2411 49.0741 11.8601 48.6931 11.3901 48.6931C10.9201 48.6931 10.5391 49.0741 10.5391 49.5441V59.6931C10.5391 60.5121 11.2061 61.1781 12.0251 61.1781H60.2341C61.0531 61.1781 61.7201 60.5121 61.7201 59.6931V49.5441C61.7191 49.0741 61.3381 48.6931 60.8681 48.6931Z" fill="#133DBD"/>
    <path d="M20.905 48.492C27.561 48.492 33.072 43.373 33.704 36.729C35.325 36.284 36.921 36.287 38.551 36.73C39.164 43.373 44.676 48.492 51.352 48.492C58.467 48.492 64.256 42.704 64.256 35.59C64.256 28.475 58.468 22.687 51.352 22.687C47.127 22.687 43.112 24.723 40.699 28.046C37.627 26.79 34.623 26.79 31.557 28.046C29.15 24.724 25.135 22.687 20.904 22.687C13.789 22.687 8 28.475 8 35.59C8.002 42.704 13.79 48.492 20.905 48.492ZM20.905 24.388C24.811 24.388 28.502 26.372 30.535 29.565L30.936 30.195L31.613 29.879C34.691 28.441 37.56 28.441 40.646 29.879L41.322 30.194L41.723 29.566C43.763 26.372 47.453 24.388 51.353 24.388C57.529 24.388 62.554 29.414 62.554 35.59C62.554 41.766 57.529 46.791 51.353 46.791C45.386 46.791 40.491 42.071 40.211 36.046L40.184 35.461L39.628 35.277C38.447 34.887 37.285 34.691 36.125 34.691C34.964 34.691 33.804 34.887 32.63 35.277L32.078 35.461L32.049 36.042C31.748 42.068 26.853 46.79 20.906 46.79C14.73 46.79 9.70502 41.765 9.70502 35.589C9.70502 29.413 14.729 24.388 20.905 24.388Z" fill="#133DBD"/>
    <path d="M51.4449 38.631C53.1829 38.631 54.598 37.216 54.598 35.479C54.598 33.742 53.1839 32.327 51.4449 32.327C49.7069 32.327 48.293 33.742 48.293 35.479C48.293 37.216 49.7069 38.631 51.4449 38.631Z" fill="#65D78D"/>
    <path d="M51.4451 40.333C54.1221 40.333 56.3001 38.156 56.3001 35.479C56.3001 32.802 54.1221 30.625 51.4451 30.625C48.7681 30.625 46.5901 32.802 46.5901 35.479C46.5901 38.156 48.7691 40.333 51.4451 40.333ZM51.4451 32.326C53.1831 32.326 54.5981 33.741 54.5981 35.478C54.5981 37.215 53.1841 38.63 51.4451 38.63C49.7071 38.63 48.2931 37.215 48.2931 35.478C48.2931 33.741 49.7071 32.326 51.4451 32.326Z" fill="#133DBD"/>
    <path d="M18.2251 35.479C18.2251 37.217 19.6391 38.631 21.3781 38.631C23.1161 38.631 24.5301 37.216 24.5301 35.479C24.5301 33.742 23.1161 32.327 21.3781 32.327C19.6391 32.326 18.2251 33.741 18.2251 35.479Z" fill="#65D78D"/>
    <path d="M21.3779 40.333C24.0549 40.333 26.233 38.156 26.233 35.479C26.233 32.802 24.0549 30.625 21.3779 30.625C18.7009 30.625 16.5229 32.802 16.5229 35.479C16.5229 38.156 18.7009 40.333 21.3779 40.333ZM24.53 35.479C24.53 37.217 23.1159 38.631 21.3779 38.631C19.6399 38.631 18.225 37.216 18.225 35.479C18.225 33.742 19.6389 32.327 21.3779 32.327C23.1159 32.326 24.53 33.741 24.53 35.479Z" fill="#133DBD"/>
</svg>
