<svg width="72" height="72" viewBox="0 0 72 72" fill="none" xmlns="http://www.w3.org/2000/svg">
    <path d="M19.2219 55.938H17.4629V59.467H19.2219V55.938Z" fill="#CCFF69"/>
    <path d="M27.201 55.938H20.9241V59.467H27.201V55.938Z" fill="#CCFF69"/>
    <path d="M19.2219 45.116H17.4629V48.825H19.2219V45.116Z" fill="#CCFF69"/>
    <path d="M29.768 50.5271H23.491V54.2371H29.768V50.5271Z" fill="#CCFF69"/>
    <path d="M35.181 50.5271H31.469V54.2371H35.181V50.5271Z" fill="#CCFF69"/>
    <path d="M62.828 59.467H56.447V34.67H58.857C59.328 34.67 59.71 34.288 59.71 33.817V30.193V30.192V30.191C59.71 30.19 59.71 30.19 59.71 30.189C59.71 30.086 59.688 29.987 59.649 29.89C59.646 29.88 59.646 29.869 59.643 29.86C59.642 29.858 59.641 29.857 59.64 29.856C59.618 29.808 59.582 29.767 59.55 29.723C59.543 29.715 59.539 29.705 59.532 29.697C59.493 29.622 59.434 29.562 59.367 29.512L36.704 10.225C36.672 10.204 36.639 10.186 36.605 10.169C36.459 10.071 36.292 10 36.103 10C35.889 10 35.701 10.085 35.544 10.207C35.534 10.213 35.523 10.218 35.513 10.224L35.493 10.241C35.475 10.257 35.456 10.269 35.44 10.286L12.81 29.545C12.718 29.621 12.642 29.712 12.589 29.821C12.587 29.824 12.585 29.827 12.583 29.83C12.551 29.898 12.538 29.974 12.524 30.05C12.517 30.088 12.503 30.124 12.501 30.162C12.501 30.172 12.495 30.181 12.495 30.191V33.815C12.495 34.286 12.877 34.668 13.348 34.668H15.758V59.465H9.853C9.382 59.465 9 59.847 9 60.318C9 60.789 9.382 61.171 9.853 61.171H62.828C63.299 61.171 63.681 60.789 63.681 60.318C63.681 59.849 63.299 59.467 62.828 59.467ZM19.223 59.467H17.464V55.938H19.223V59.467ZM21.79 50.527V54.237H17.463V50.527H21.79ZM17.463 48.825V45.116H19.222V48.825H17.463ZM27.201 59.467H20.924V55.938H27.201V59.467ZM23.491 54.237V50.527H29.768V54.237H23.491ZM35.181 59.467H28.902V55.938H35.181V59.467ZM35.181 54.237H31.469V50.527H35.181V54.237ZM35.181 48.825H28.908V45.116H35.181V48.825ZM35.181 32.965V34.67V43.415H25.363V45.116H27.207V48.825H20.924V45.116H22.616V43.415H17.463V35.053V34.669V32.964H14.201V31.107L35.181 31.078V32.965ZM35.181 29.341H18.916H16.355H15.738L35.181 12.794V29.341ZM37.024 12.784L56.479 29.341H37.024V12.784ZM37.024 31.076L58.004 31.047V32.964H37.024V31.076ZM40.09 59.467H37.024V55.148C37.026 55.127 37.036 55.109 37.036 55.087C37.036 55.065 37.025 55.048 37.024 55.026V49.736C37.026 49.715 37.036 49.697 37.036 49.675C37.036 49.653 37.025 49.636 37.024 49.614V45.115H37.036V45.051H40.09V59.467ZM54.742 59.467H41.795V44.2C41.795 43.729 41.413 43.347 40.942 43.347H37.023V34.67H54.741V59.467H54.742Z" fill="#0022CD"/>
</svg>
