<svg width="72" height="72" viewBox="0 0 72 72" fill="none" xmlns="http://www.w3.org/2000/svg">
    <path d="M14.3501 30.4626L35.5901 12.7426L56.7301 30.4626V34.3126H53.6701V58.7726H17.2101V34.2126H14.3501V30.4626Z" fill="white"/>
    <path d="M30.43 50.0525C29.09 49.0525 28.28 47.6125 28.17 45.9925C28.05 44.2825 28.71 42.6025 30.05 41.2725C32.45 38.8825 32.89 36.5225 32.83 34.9625C32.74 32.4325 31.37 29.9425 28.87 27.7825C28.03 27.0625 26.77 27.1525 26.05 27.9825C25.33 28.8225 25.42 30.0825 26.25 30.8025C27.87 32.2025 28.78 33.7225 28.83 35.1025C28.87 36.2225 28.33 37.3425 27.22 38.4425C25.04 40.6125 23.96 43.3925 24.17 46.2925C24.37 49.0525 25.78 51.5925 28.04 53.2725C28.4 53.5425 28.82 53.6625 29.23 53.6625C29.84 53.6625 30.45 53.3825 30.84 52.8525C31.5 51.9725 31.31 50.7125 30.43 50.0525Z" fill="#CCFF69"/>
    <path d="M37.41 50.0525C36.07 49.0525 35.26 47.6125 35.15 45.9925C35.03 44.2825 35.69 42.6025 37.03 41.2725C39.43 38.8825 39.87 36.5225 39.82 34.9625C39.73 32.4325 38.36 29.9425 35.86 27.7825C35.02 27.0625 33.76 27.1525 33.04 27.9825C32.32 28.8225 32.41 30.0825 33.24 30.8025C34.86 32.2025 35.77 33.7225 35.82 35.1025C35.86 36.2225 35.32 37.3425 34.21 38.4425C32.03 40.6125 30.95 43.3925 31.16 46.2925C31.36 49.0525 32.77 51.5925 35.03 53.2725C35.39 53.5425 35.81 53.6625 36.22 53.6625C36.83 53.6625 37.44 53.3825 37.83 52.8525C38.49 51.9725 38.3 50.7125 37.41 50.0525Z" fill="#CCFF69"/>
    <path d="M43.9901 50.0525C42.6501 49.0525 41.8401 47.6125 41.7301 45.9925C41.6101 44.2825 42.2801 42.6025 43.6101 41.2725C46.0101 38.8825 46.4501 36.5225 46.4001 34.9525C46.3101 32.4225 44.9401 29.9325 42.4401 27.7725C41.6001 27.0525 40.3401 27.1425 39.6201 27.9825C38.9001 28.8125 38.9901 30.0825 39.8301 30.8025C41.4501 32.2025 42.3601 33.7225 42.4101 35.1025C42.4501 36.2225 41.9101 37.3425 40.8001 38.4425C38.6201 40.6125 37.5401 43.3925 37.7501 46.2925C37.9501 49.0525 39.3601 51.5925 41.6201 53.2725C41.9801 53.5425 42.4001 53.6625 42.8101 53.6625C43.4201 53.6625 44.0301 53.3825 44.4201 52.8525C45.0601 51.9725 44.8701 50.7125 43.9901 50.0525Z" fill="#CCFF69"/>
    <path d="M65.33 58.0225H54.43V35.0525H56.74C57.15 35.0525 57.49 34.7125 57.49 34.3025V30.4625C57.49 30.2425 57.39 30.0325 57.22 29.8925L36.07 12.1725C35.79 11.9425 35.39 11.9425 35.11 12.1725L13.87 29.8925C13.7 30.0325 13.6 30.2425 13.6 30.4625V34.2025C13.6 34.6125 13.94 34.9525 14.35 34.9525H16.46V58.0125H5.75C5.34 58.0225 5 58.3525 5 58.7725C5 59.1925 5.34 59.5225 5.75 59.5225H17.21H53.68H65.33C65.74 59.5225 66.08 59.1825 66.08 58.7725C66.08 58.3625 65.74 58.0225 65.33 58.0225ZM17.96 58.0225V34.2125C17.96 33.8025 17.62 33.4625 17.21 33.4625H15.1V30.8225L35.59 13.7225L55.98 30.8125V33.5525H53.67C53.26 33.5525 52.92 33.8925 52.92 34.3025V58.0125H17.96V58.0225Z" fill="#0022CD"/>
    <path d="M31.55 35.0025C31.45 32.2525 29.58 30.0725 28.02 28.7225C27.71 28.4525 27.23 28.4825 26.96 28.8025C26.69 29.1125 26.72 29.5925 27.04 29.8625C28.92 31.4925 29.99 33.3325 30.05 35.0625C30.1 36.5425 29.44 37.9725 28.07 39.3325C26.15 41.2425 25.2 43.6825 25.38 46.2025C25.55 48.6025 26.78 50.8125 28.75 52.2725C28.88 52.3725 29.04 52.4225 29.2 52.4225C29.43 52.4225 29.66 52.3225 29.8 52.1225C30.05 51.7925 29.98 51.3225 29.64 51.0725C28.02 49.8725 27.02 48.0625 26.87 46.1025C26.72 44.0225 27.52 41.9925 29.12 40.4025C30.8 38.7325 31.62 36.9225 31.55 35.0025Z" fill="#0022CD"/>
    <path d="M38.54 35.0025C38.44 32.2525 36.57 30.0725 35.01 28.7225C34.7 28.4525 34.22 28.4825 33.95 28.8025C33.68 29.1125 33.71 29.5925 34.03 29.8625C35.91 31.4925 36.98 33.3325 37.04 35.0625C37.09 36.5425 36.43 37.9725 35.06 39.3325C33.14 41.2425 32.19 43.6825 32.37 46.2025C32.54 48.6025 33.77 50.8125 35.74 52.2725C35.87 52.3725 36.03 52.4225 36.19 52.4225C36.42 52.4225 36.65 52.3225 36.79 52.1225C37.04 51.7925 36.97 51.3225 36.63 51.0725C35.01 49.8725 34.01 48.0625 33.87 46.1025C33.72 44.0225 34.52 41.9925 36.12 40.4025C37.79 38.7325 38.6 36.9225 38.54 35.0025Z" fill="#0022CD"/>
    <path d="M45.11 35.0025C45.01 32.2525 43.14 30.0725 41.58 28.7225C41.27 28.4525 40.79 28.4825 40.52 28.8025C40.25 29.1125 40.28 29.5925 40.6 29.8625C42.48 31.4925 43.55 33.3325 43.61 35.0625C43.66 36.5425 43 37.9725 41.63 39.3325C39.71 41.2425 38.76 43.6725 38.94 46.2025C39.11 48.6025 40.34 50.8125 42.31 52.2725C42.44 52.3725 42.6 52.4225 42.76 52.4225C42.99 52.4225 43.22 52.3225 43.36 52.1225C43.61 51.7925 43.54 51.3225 43.2 51.0725C41.58 49.8725 40.58 48.0625 40.44 46.1025C40.29 44.0225 41.09 41.9925 42.69 40.4025C44.36 38.7325 45.18 36.9225 45.11 35.0025Z" fill="#0022CD"/>
</svg>
