<svg width="72" height="72" viewBox="0 0 72 72" fill="none" xmlns="http://www.w3.org/2000/svg">
    <path d="M55.168 36.4049H53.509V37.8229H55.168V36.4049Z" fill="#133DBD"/>
    <path d="M17.2461 34.9879V34.9889H53.4921V34.9879H55.1931V34.9889H57.5131C57.9711 34.9889 58.3431 34.6179 58.3431 34.1589V30.6329V30.6319V30.6309C58.3431 30.6299 58.3431 30.6299 58.3431 30.6289C58.3431 30.5289 58.3211 30.4329 58.2841 30.3379C58.2821 30.3279 58.2811 30.3179 58.2781 30.3089C58.2771 30.3069 58.2761 30.3059 58.2751 30.3049C58.2541 30.2579 58.218 30.2189 58.188 30.1759C58.182 30.1679 58.1781 30.1579 58.1711 30.1499C58.1331 30.0769 58.0761 30.0179 58.0111 29.9699L35.9591 11.2029C35.9251 11.1799 35.8891 11.1599 35.8511 11.1429C35.8051 11.1109 35.7551 11.0829 35.7031 11.0609C35.6501 11.0429 35.5951 11.0289 35.5401 11.0209C35.4331 10.9929 35.3201 10.9929 35.2141 11.0219C35.1611 11.0299 35.1081 11.0429 35.0571 11.0599C35.0041 11.0829 34.9541 11.1109 34.9071 11.1439C34.8701 11.1609 34.834 11.1809 34.8 11.2029L12.7091 30.0039C12.6201 30.0779 12.5461 30.1669 12.4941 30.2719C12.4921 30.2749 12.4901 30.2769 12.4881 30.2809C12.4561 30.3469 12.4441 30.4209 12.4311 30.4949C12.4241 30.5319 12.4101 30.5669 12.4091 30.6039C12.4091 30.6139 12.4031 30.6229 12.4031 30.6329V34.1589C12.4031 34.6169 12.7741 34.9889 13.2331 34.9889H15.5471V34.9879H17.2461ZM35.3781 12.9339L55.2001 29.8029H18.649H16.1571H15.5561L35.3781 12.9339ZM14.0601 33.3299V31.5229L56.6831 31.4639V33.3299H14.0601Z" fill="#133DBD"/>
    <path d="M17.235 36.4049H15.5759V37.8229H17.235V36.4049Z" fill="#133DBD"/>
    <path d="M55.168 42.075H53.509V43.492H55.168V42.075Z" fill="#133DBD"/>
    <path d="M55.168 44.9089H53.509V46.3269H55.168V44.9089Z" fill="#133DBD"/>
    <path d="M55.168 39.2399H53.509V40.6569H55.168V39.2399Z" fill="#133DBD"/>
    <path d="M17.235 39.2399H15.5759V40.6569H17.235V39.2399Z" fill="#133DBD"/>
    <path d="M17.235 42.075H15.5759V43.492H17.235V42.075Z" fill="#133DBD"/>
    <path d="M17.235 56.2468H15.5759V57.6638H17.235V56.2468Z" fill="#133DBD"/>
    <path d="M61.377 59.1179H55.168V59.0819H53.509V59.1179H40.911V44.2619C40.911 43.8039 40.54 43.4319 40.081 43.4319H30.662C30.204 43.4319 29.832 43.8029 29.832 44.2619V59.1179H17.234V59.0819H15.575V59.1179H9.83002C9.37202 59.1179 9 59.4889 9 59.9479C9 60.4059 9.37102 60.7779 9.83002 60.7779H61.377C61.835 60.7779 62.207 60.4069 62.207 59.9479C62.207 59.4889 61.835 59.1179 61.377 59.1179ZM39.252 59.1179H31.492V45.0919H39.252V59.1179Z" fill="#133DBD"/>
    <path d="M17.235 53.4119H15.5759V54.8299H17.235V53.4119Z" fill="#133DBD"/>
    <path d="M17.235 44.9089H15.5759V46.3269H17.235V44.9089Z" fill="#133DBD"/>
    <path d="M17.235 50.5779H15.5759V51.9949H17.235V50.5779Z" fill="#133DBD"/>
    <path d="M55.168 47.7439H53.509V49.1609H55.168V47.7439Z" fill="#133DBD"/>
    <path d="M17.235 47.7439H15.5759V49.1609H17.235V47.7439Z" fill="#133DBD"/>
    <path d="M55.168 50.5779H53.509V51.9949H55.168V50.5779Z" fill="#133DBD"/>
    <path d="M55.168 53.4119H53.509V54.8299H55.168V53.4119Z" fill="#133DBD"/>
    <path d="M55.168 56.2468H53.509V57.6638H55.168V56.2468Z" fill="#133DBD"/>
    <path d="M17.2459 56.2468V54.8298H17.2349H15.5759H15.5449V56.2468H15.5759H17.2349H17.2459Z" fill="#65D78D"/>
    <path d="M17.2459 50.5779V49.1609H17.2349H15.5759H15.5449V50.5779H15.5759H17.2349H17.2459Z" fill="#65D78D"/>
    <path d="M17.2459 53.4119V51.9949H17.2349H15.5759H15.5449V53.4119H15.5759H17.2349H17.2459Z" fill="#65D78D"/>
    <path d="M17.2459 47.7439V46.3269H17.2349H15.5759H15.5449V47.7439H15.5759H17.2349H17.2459Z" fill="#65D78D"/>
    <path d="M17.2459 44.9089V43.4919H17.2349H15.5759H15.5449V44.9089H15.5759H17.2349H17.2459Z" fill="#65D78D"/>
    <path d="M17.2459 42.0749V40.6569H17.2349H15.5759H15.5449V42.0749H15.5759H17.2349H17.2459Z" fill="#65D78D"/>
    <path d="M17.2459 59.0818V57.6638H17.2349H15.5759H15.5449V59.0818H15.5759H17.2349H17.2459Z" fill="#65D78D"/>
    <path d="M17.2459 36.4049V34.9889V34.9879H15.5449V34.9889V36.4049H15.5759H17.2349H17.2459Z" fill="#65D78D"/>
    <path d="M17.2459 39.2399V37.8229H17.2349H15.5759H15.5449V39.2399H15.5759H17.2349H17.2459Z" fill="#65D78D"/>
    <path d="M53.4919 54.8298V56.2468H53.509H55.168H55.1929V54.8298H55.168H53.509H53.4919Z" fill="#65D78D"/>
    <path d="M53.4919 49.1609V50.5779H53.509H55.168H55.1929V49.1609H55.168H53.509H53.4919Z" fill="#65D78D"/>
    <path d="M53.4919 40.6569V42.0749H53.509H55.168H55.1929V40.6569H55.168H53.509H53.4919Z" fill="#65D78D"/>
    <path d="M53.4919 43.4919V44.9089H53.509H55.168H55.1929V43.4919H55.168H53.509H53.4919Z" fill="#65D78D"/>
    <path d="M53.4919 46.3269V47.7439H53.509H55.168H55.1929V46.3269H55.168H53.509H53.4919Z" fill="#65D78D"/>
    <path d="M53.4919 51.9949V53.4119H53.509H55.168H55.1929V51.9949H55.168H53.509H53.4919Z" fill="#65D78D"/>
    <path d="M53.4919 37.8229V39.2399H53.509H55.168H55.1929V37.8229H55.168H53.509H53.4919Z" fill="#65D78D"/>
    <path d="M53.4919 57.6638V59.0818H53.509H55.168H55.1929V57.6638H55.168H53.509H53.4919Z" fill="#65D78D"/>
    <path d="M53.4919 34.9879V34.9889V36.4049H53.509H55.168H55.1929V34.9889V34.9879H53.4919Z" fill="#65D78D"/>
</svg>
