<svg width="72" height="72" viewBox="0 0 72 72" fill="none" xmlns="http://www.w3.org/2000/svg">
    <path d="M36.22 10.7426L14.98 28.4626V28.4926V32.3026H17.84V50.1726C17.84 50.1726 18.93 50.6426 21.07 50.6426C25.18 50.6426 26.07 46.9926 31 47.0426C35.44 47.0926 37.26 50.6426 40.9 50.6426C44.89 50.6426 47.49 47.2526 50.56 47.2226C52.95 47.2026 54.3 47.9826 54.3 47.9826V32.3126H57.36V28.4926V28.4626L36.22 10.7426Z" fill="white"/>
    <path d="M47.09 55.8825C48.42 55.0825 49.56 54.3925 51.05 54.3925C52.56 54.3925 53.81 55.1125 55.26 55.9525C56.9 56.9025 58.76 57.9725 61.19 57.9725C62.02 57.9725 62.69 57.3025 62.69 56.4725C62.69 55.6425 62.02 54.9725 61.19 54.9725C59.56 54.9725 58.27 54.2225 56.76 53.3525C55.17 52.4325 53.36 51.3925 51.05 51.3925C48.73 51.3925 47.04 52.4125 45.55 53.3125C44.07 54.2025 42.79 54.9725 40.91 54.9725C39.27 54.9725 38.43 54.3825 37.27 53.5725C37.08 53.4325 36.87 53.2925 36.67 53.1525C37.74 53.8025 39.03 54.3525 40.91 54.3525C43.62 54.3525 45.47 53.2425 47.1 52.2625C48.43 51.4625 49.57 50.7725 51.06 50.7725C52.57 50.7725 53.82 51.4925 55.27 52.3325C56.91 53.2825 58.77 54.3525 61.2 54.3525C62.03 54.3525 62.7 53.6825 62.7 52.8525C62.7 52.0225 62.03 51.3525 61.2 51.3525C59.57 51.3525 58.28 50.6025 56.77 49.7325C55.18 48.8125 53.37 47.7725 51.06 47.7725C48.74 47.7725 47.05 48.7925 45.56 49.6925C44.08 50.5825 42.8 51.3525 40.92 51.3525C39.28 51.3525 38.44 50.7625 37.28 49.9525C35.87 48.9625 34.12 47.7325 30.78 47.7325C28.04 47.7325 26.57 48.7825 25.28 49.7125C24.06 50.5925 23.01 51.3425 20.64 51.3425C18.47 51.3425 17.54 50.6625 16.38 49.8025C15.05 48.8325 13.55 47.7225 10.5 47.7225C9.67 47.7225 9 48.3925 9 49.2225C9 50.0525 9.67 50.7225 10.5 50.7225C12.56 50.7225 13.46 51.3825 14.6 52.2225C14.68 52.2825 14.76 52.3325 14.84 52.3925C13.79 51.8025 12.47 51.3425 10.5 51.3425C9.67 51.3425 9 52.0125 9 52.8425C9 53.6725 9.67 54.3425 10.5 54.3425C12.56 54.3425 13.46 55.0025 14.6 55.8425C14.67 55.8925 14.75 55.9525 14.83 56.0125C13.78 55.4225 12.46 54.9625 10.5 54.9625C9.67 54.9625 9 55.6325 9 56.4625C9 57.2925 9.67 57.9625 10.5 57.9625C12.56 57.9625 13.46 58.6225 14.6 59.4625C15.89 60.4025 17.48 61.5825 20.64 61.5825C23.98 61.5825 25.67 60.3625 27.03 59.3825C28.17 58.5625 29 57.9625 30.78 57.9625C33.17 57.9625 34.28 58.7425 35.56 59.6325C36.86 60.5425 38.33 61.5725 40.92 61.5725C43.63 61.5725 45.48 60.4625 47.11 59.4825C48.44 58.6825 49.58 57.9925 51.07 57.9925C52.58 57.9925 53.83 58.7125 55.28 59.5525C56.92 60.5025 58.78 61.5725 61.21 61.5725C62.04 61.5725 62.71 60.9025 62.71 60.0725C62.71 59.2425 62.04 58.5725 61.21 58.5725C59.58 58.5725 58.29 57.8225 56.78 56.9525C55.18 56.0325 53.38 54.9925 51.07 54.9925C48.75 54.9925 47.06 56.0125 45.57 56.9125C44.09 57.8025 42.81 58.5725 40.93 58.5725C39.29 58.5725 38.45 57.9825 37.29 57.1725C37.1 57.0325 36.89 56.8925 36.68 56.7525C37.75 57.4025 39.04 57.9525 40.92 57.9525C43.62 57.9725 45.46 56.8625 47.09 55.8825ZM30.76 50.7425C33.15 50.7425 34.26 51.5225 35.54 52.4125C35.71 52.5325 35.89 52.6625 36.08 52.7825C34.84 52.0325 33.24 51.3525 30.76 51.3525C28.92 51.3525 27.66 51.8325 26.63 52.4225C26.76 52.3325 26.89 52.2425 27.01 52.1525C28.16 51.3425 28.99 50.7425 30.76 50.7425ZM20.62 54.3625C22.94 54.3625 24.46 53.7725 25.63 53.0825C25.51 53.1725 25.38 53.2625 25.26 53.3425C24.04 54.2225 22.99 54.9725 20.62 54.9725C18.45 54.9725 17.52 54.2925 16.36 53.4325C16.28 53.3725 16.19 53.3125 16.1 53.2425C17.18 53.8625 18.57 54.3625 20.62 54.3625ZM20.62 58.5925C18.45 58.5925 17.52 57.9125 16.36 57.0525C16.27 56.9925 16.19 56.9325 16.1 56.8725C17.18 57.4825 18.57 57.9825 20.62 57.9825C22.94 57.9825 24.45 57.3925 25.62 56.7125C25.5 56.8025 25.38 56.8825 25.26 56.9725C24.05 57.8325 23 58.5925 20.62 58.5925ZM30.76 54.9725C28.92 54.9725 27.66 55.4525 26.63 56.0425C26.76 55.9525 26.89 55.8625 27.01 55.7725C28.15 54.9525 28.98 54.3525 30.76 54.3525C33.15 54.3525 34.26 55.1325 35.54 56.0225C35.72 56.1425 35.9 56.2725 36.08 56.4025C34.85 55.6525 33.25 54.9725 30.76 54.9725Z" fill="#CCFF69"/>
    <path d="M10.48 48.5225C12.79 48.5225 13.82 49.2825 15.03 50.1625C16.29 51.0825 17.72 52.1325 20.63 52.1325C23.73 52.1325 25.25 51.0425 26.58 50.0825C27.74 49.2425 28.75 48.5225 30.77 48.5225C33.4 48.5225 34.66 49.4025 35.98 50.3325C37.25 51.2225 38.56 52.1425 40.91 52.1425C43.42 52.1425 45.17 51.0925 46.71 50.1625C48.13 49.3025 49.36 48.5625 51.05 48.5625C52.76 48.5625 54.16 49.3725 55.64 50.2225C57.27 51.1625 58.96 52.1425 61.19 52.1425C61.6 52.1425 61.94 51.8025 61.94 51.3925C61.94 50.9825 61.6 50.6425 61.19 50.6425C59.36 50.6425 57.92 49.8125 56.39 48.9225C55.94 48.6625 55.49 48.4025 55.02 48.1625C55.04 48.1025 55.06 48.0425 55.06 47.9825V33.0625H57.36C57.77 33.0625 58.11 32.7225 58.11 32.3125V28.4925V28.4825V28.4725C58.11 28.2525 58.01 28.0425 57.84 27.9025L36.7 10.1725C36.42 9.9425 36.02 9.9425 35.74 10.1725L14.5 27.8925C14.41 27.9725 14.34 28.0825 14.29 28.2025C14.25 28.2925 14.23 28.3925 14.23 28.5025V32.3125C14.23 32.7225 14.57 33.0625 14.98 33.0625H17.09V49.7525C16.68 49.5125 16.3 49.2325 15.92 48.9625C14.68 48.0425 13.28 47.0225 10.48 47.0225C10.07 47.0225 9.72998 47.3625 9.72998 47.7725C9.72998 48.1825 10.07 48.5225 10.48 48.5225ZM53.55 47.5125C52.78 47.2325 51.96 47.0525 51.05 47.0525C48.94 47.0525 47.41 47.9725 45.93 48.8625C44.42 49.7725 43 50.6325 40.91 50.6325C39.03 50.6325 38.02 49.9225 36.84 49.1025C35.45 48.1225 33.87 47.0225 30.76 47.0225C28.26 47.0225 26.96 47.9625 25.7 48.8625C24.43 49.7725 23.24 50.6325 20.62 50.6325C19.81 50.6325 19.15 50.5325 18.58 50.3825V33.0625H53.55V47.5125ZM36.22 11.7225L55.33 27.7425H17.01L36.22 11.7225ZM15.73 31.5525V29.2425H56.61V31.5525H15.73Z" fill="#0022CD"/>
    <path d="M61.19 54.2524C59.36 54.2524 57.92 53.4224 56.39 52.5324C54.8 51.6124 53.16 50.6724 51.05 50.6724C48.94 50.6724 47.41 51.5924 45.93 52.4824C44.42 53.3924 43 54.2524 40.91 54.2524C39.03 54.2524 38.02 53.5424 36.84 52.7224C35.45 51.7424 33.87 50.6424 30.76 50.6424C28.26 50.6424 26.96 51.5824 25.7 52.4824C24.43 53.3924 23.24 54.2524 20.62 54.2524C18.2 54.2524 17.09 53.4324 15.91 52.5724C14.68 51.6624 13.28 50.6324 10.48 50.6324C10.07 50.6324 9.72998 50.9724 9.72998 51.3824C9.72998 51.7924 10.07 52.1324 10.48 52.1324C12.79 52.1324 13.82 52.8924 15.02 53.7724C16.28 54.6924 17.71 55.7424 20.62 55.7424C23.72 55.7424 25.24 54.6524 26.57 53.6924C27.73 52.8524 28.74 52.1324 30.76 52.1324C33.39 52.1324 34.65 53.0124 35.97 53.9424C37.24 54.8324 38.55 55.7524 40.9 55.7524C43.41 55.7524 45.16 54.7024 46.7 53.7724C48.12 52.9124 49.35 52.1724 51.04 52.1724C52.75 52.1724 54.15 52.9824 55.63 53.8324C57.26 54.7724 58.95 55.7524 61.18 55.7524C61.59 55.7524 61.93 55.4124 61.93 55.0024C61.93 54.5924 61.6 54.2524 61.19 54.2524Z" fill="#0022CD"/>
    <path d="M61.19 57.8624C59.36 57.8624 57.92 57.0324 56.39 56.1424C54.8 55.2224 53.16 54.2824 51.05 54.2824C48.94 54.2824 47.41 55.2024 45.93 56.0924C44.42 57.0024 43 57.8624 40.91 57.8624C39.03 57.8624 38.02 57.1524 36.84 56.3324C35.45 55.3524 33.87 54.2524 30.76 54.2524C28.26 54.2524 26.96 55.1924 25.7 56.0924C24.43 57.0024 23.24 57.8624 20.62 57.8624C18.2 57.8624 17.09 57.0424 15.91 56.1824C14.68 55.2824 13.28 54.2524 10.48 54.2524C10.07 54.2524 9.72998 54.5924 9.72998 55.0024C9.72998 55.4124 10.07 55.7524 10.48 55.7524C12.79 55.7524 13.82 56.5124 15.02 57.3924C16.28 58.3124 17.71 59.3624 20.62 59.3624C23.72 59.3624 25.24 58.2724 26.57 57.3124C27.73 56.4724 28.74 55.7524 30.76 55.7524C33.39 55.7524 34.65 56.6324 35.97 57.5624C37.24 58.4524 38.55 59.3724 40.9 59.3724C43.41 59.3724 45.16 58.3224 46.7 57.3924C48.12 56.5324 49.35 55.7924 51.04 55.7924C52.75 55.7924 54.15 56.6024 55.63 57.4524C57.26 58.3924 58.95 59.3724 61.18 59.3724C61.59 59.3724 61.93 59.0324 61.93 58.6224C61.93 58.2124 61.6 57.8624 61.19 57.8624Z" fill="#0022CD"/>
</svg>
