<svg width="72" height="72" viewBox="0 0 72 72" fill="none" xmlns="http://www.w3.org/2000/svg">
    <path d="M13.75 16.11V22.97V55.31H15.41V58.41H56.22V55.31H57.88V22.97V16.11H13.75Z" fill="white"/>
    <path d="M32.1699 13.75H17.8599V15.84H32.1699V13.75Z" fill="white"/>
    <path d="M51.4599 13.75H41.1299V15.84H51.4599V13.75Z" fill="white"/>
    <path d="M49.1101 47.52H23.1601C21.6001 47.52 20.3301 46.25 20.3301 44.69V32.2C20.3301 30.64 21.6001 29.37 23.1601 29.37H49.1101C50.6701 29.37 51.9401 30.64 51.9401 32.2V44.69C51.9401 46.25 50.6701 47.52 49.1101 47.52Z" fill="#CCFF69"/>
    <path d="M57.88 15.36H52.22V13.75C52.22 13.34 51.88 13 51.47 13H41.13C40.72 13 40.38 13.34 40.38 13.75V15.36H32.91V13.75C32.91 13.34 32.57 13 32.16 13H17.86C17.44 13 17.11 13.34 17.11 13.75V15.36H13.75C13.34 15.36 13 15.7 13 16.11V22.97V55.31C13 55.72 13.34 56.06 13.75 56.06H14.66V58.41C14.66 58.82 15 59.16 15.41 59.16H56.22C56.63 59.16 56.97 58.82 56.97 58.41V56.06H57.88C58.29 56.06 58.63 55.72 58.63 55.31V22.97V16.11C58.62 15.7 58.29 15.36 57.88 15.36ZM41.88 14.5H50.71V15.09H41.88V14.5ZM18.61 14.5H31.42V15.09H18.61V14.5ZM14.5 16.86H57.12V22.22H14.5V16.86ZM55.47 57.66H16.16V56.06H55.47V57.66ZM56.22 54.56H15.41H14.5V23.72H57.12V54.56H56.22Z" fill="#0022CD"/>
    <path d="M49.1101 28.62H23.1601C21.1901 28.62 19.5801 30.23 19.5801 32.2V44.68C19.5801 46.65 21.1901 48.26 23.1601 48.26H49.1101C51.0801 48.26 52.6901 46.65 52.6901 44.68V32.2C52.6901 30.23 51.0801 28.62 49.1101 28.62ZM51.1901 44.69C51.1901 45.84 50.2601 46.77 49.1101 46.77H23.1601C22.0101 46.77 21.0801 45.84 21.0801 44.69V32.2C21.0801 31.05 22.0101 30.12 23.1601 30.12H49.1101C50.2601 30.12 51.1901 31.05 51.1901 32.2V44.69Z" fill="#0022CD"/>
    <path d="M47.7101 33.52H24.3501C23.9401 33.52 23.6001 33.86 23.6001 34.27C23.6001 34.68 23.9401 35.02 24.3501 35.02H47.7101C48.1201 35.02 48.4601 34.68 48.4601 34.27C48.4601 33.86 48.1201 33.52 47.7101 33.52Z" fill="#0022CD"/>
    <path d="M47.7101 37.95H24.3501C23.9401 37.95 23.6001 38.29 23.6001 38.7C23.6001 39.11 23.9401 39.45 24.3501 39.45H47.7101C48.1201 39.45 48.4601 39.11 48.4601 38.7C48.4601 38.29 48.1201 37.95 47.7101 37.95Z" fill="#0022CD"/>
    <path d="M47.7101 42.37H24.3501C23.9401 42.37 23.6001 42.71 23.6001 43.12C23.6001 43.53 23.9401 43.87 24.3501 43.87H47.7101C48.1201 43.87 48.4601 43.53 48.4601 43.12C48.4601 42.71 48.1201 42.37 47.7101 42.37Z" fill="#0022CD"/>
    <path d="M19.6502 17.58C18.6002 17.58 17.7402 18.44 17.7402 19.49C17.7402 20.54 18.5902 21.4 19.6502 21.4C20.7102 21.4 21.5602 20.54 21.5602 19.49C21.5602 18.44 20.7002 17.58 19.6502 17.58ZM19.6502 19.9C19.4302 19.9 19.2402 19.72 19.2402 19.49C19.2402 19.26 19.4202 19.08 19.6502 19.08C19.8802 19.08 20.0602 19.26 20.0602 19.49C20.0602 19.72 19.8702 19.9 19.6502 19.9Z" fill="#0022CD"/>
    <path d="M30.64 17.58C29.59 17.58 28.73 18.44 28.73 19.49C28.73 20.54 29.59 21.4 30.64 21.4C31.69 21.4 32.55 20.54 32.55 19.49C32.55 18.44 31.69 17.58 30.64 17.58ZM30.64 19.9C30.42 19.9 30.23 19.72 30.23 19.49C30.23 19.26 30.41 19.08 30.64 19.08C30.87 19.08 31.05 19.26 31.05 19.49C31.05 19.72 30.86 19.9 30.64 19.9Z" fill="#0022CD"/>
    <path d="M41.6302 17.58C40.5802 17.58 39.7202 18.44 39.7202 19.49C39.7202 20.54 40.5802 21.4 41.6302 21.4C42.6802 21.4 43.5402 20.54 43.5402 19.49C43.5402 18.44 42.6802 17.58 41.6302 17.58ZM41.6302 19.9C41.4102 19.9 41.2202 19.72 41.2202 19.49C41.2202 19.26 41.4002 19.08 41.6302 19.08C41.8602 19.08 42.0402 19.26 42.0402 19.49C42.0402 19.72 41.8502 19.9 41.6302 19.9Z" fill="#0022CD"/>
    <path d="M52.62 17.58C51.57 17.58 50.71 18.44 50.71 19.49C50.71 20.54 51.57 21.4 52.62 21.4C53.67 21.4 54.53 20.54 54.53 19.49C54.53 18.44 53.67 17.58 52.62 17.58ZM52.62 19.9C52.4 19.9 52.21 19.72 52.21 19.49C52.21 19.26 52.39 19.08 52.62 19.08C52.85 19.08 53.03 19.26 53.03 19.49C53.03 19.72 52.84 19.9 52.62 19.9Z" fill="#0022CD"/>
</svg>
