<svg width="72" height="72" viewBox="0 0 72 72" fill="none" xmlns="http://www.w3.org/2000/svg">
    <rect x="8" y="14.1746" width="56" height="44.0317" rx="3" fill="white" stroke="#0022CD" stroke-width="2"/>
    <path d="M9 57L33.2254 33.6718C34.7744 32.1802 37.2256 32.1802 38.7746 33.6718L63 57" stroke="#0022CD" stroke-width="2"/>
    <path d="M32.339 36.5263L9 16V18.7368L30.9661 39.7193C31.8814 40.6316 33.8034 42 36 42C38.1966 42 40.5763 40.1754 41.4915 39.2632L63 18.7368V16L39.661 36.5263C39.0508 37.2865 37.0983 38.3509 36 38.3509C34.9017 38.3509 33.2542 37.2865 32.339 36.5263Z" fill="#CCFF69"/>
    <path d="M33.3255 38.5165L29.4643 34.9312C26.8003 32.4574 28.5507 28 32.1861 28H40.0464C43.716 28 45.4489 32.5286 42.7165 34.9783L38.7175 38.5636C37.1781 39.9438 34.8406 39.9234 33.3255 38.5165Z" fill="white"/>
    <path d="M9 16L33.2824 38.4837C34.8159 39.9036 37.1841 39.9036 38.7176 38.4837L63 16" stroke="#0022CD" stroke-width="2"/>
</svg>
