<svg width="72" height="72" viewBox="0 0 72 72" fill="none" xmlns="http://www.w3.org/2000/svg">
    <path d="M12.8405 18.7464C12.0343 19.5505 8.6975 21.5383 7.12988 22.4317L8.13764 28.7969L12.5046 31.142L13.8482 30.137H15.8638L17.5433 31.4771V35.8324L18.5511 36.5024L20.5666 35.8324L23.2539 37.1725V40.1877L25.6054 39.5176L28.9646 39.8526L30.9801 42.1978L30.3082 44.5429L31.316 45.883L30.3082 46.8881L31.316 48.8982H35.6829L37.6984 47.5581L38.3703 46.5531L40.0499 43.8729L41.0576 44.5429L40.0499 47.5581L41.3935 50.2383L41.0576 52.2485L43.409 53.5885L48.7837 56.6037L50.4633 59.2839L52.8147 57.9438H55.1662L56.1739 54.5936L54.1584 51.9134L55.838 46.8881L58.1894 43.5379L59.869 44.5429L60.5409 42.5328L63.5641 40.5227L62.5564 36.5024L60.5409 35.8324L61.2127 33.1522L58.1894 30.137H53.4866L52.8147 27.1218L55.1662 21.4264L51.1351 18.7464L50.4633 17.7412H46.7682L44.4168 15.731L43.409 13.3859L41.3935 14.726L39.378 12.7158L37.3625 14.3909L35.6829 13.3859L34.3392 14.0559L34.0033 15.731H31.316C30.7561 16.6245 29.5692 18.4784 29.3005 18.7464C28.9646 19.0815 27.285 19.7513 26.6131 19.7513C25.9413 19.7513 22.5821 17.7412 21.9103 17.7412C21.2384 17.7412 20.9025 18.4114 19.8948 18.4114C18.887 18.4114 19.2229 15.7312 18.5511 16.4013C18.0136 16.9373 16.0877 16.6246 15.1919 16.4013L12.8405 18.7464Z" fill="#E4EAF5"/>
    <path d="M45.4103 34.0269L42.6478 34.6189L42.2531 31.4617L46.1996 18.8331L48.3701 18.2411L49.554 18.4385L50.5407 17.6492L51.5273 18.2411L51.9219 19.4251L53.3032 20.2144H54.8818L55.0791 21.201L55.4737 20.8063L55.8684 21.3983L55.2764 21.7929L55.8684 22.3849H55.2764V23.3715H54.8818V24.1608L54.6844 24.9501L54.0925 25.7394H54.6844L54.0925 26.726L52.7112 27.5153L53.3032 28.6992L53.8951 29.2912V30.4751H54.6844L55.2764 30.0805L56.855 30.6725L57.8416 30.4751L59.0255 30.6725L58.6309 31.4617H60.2095L60.9988 32.843V33.435H62.38L60.9988 35.4082L61.5907 36.7895H63.1693V37.1841L63.9586 37.5787L63.5639 39.3546L64.3532 40.3413L63.5639 40.7359H62.7747L62.38 41.7225L60.6041 42.9064L60.9988 43.6957L60.2095 44.0904V44.8797L59.8148 44.0904L59.0255 44.485L58.6309 40.7359L56.0657 39.9466V40.7359L55.8684 41.3279L56.4603 41.7225L54.0925 42.1172L54.6844 41.3279L54.0925 40.7359L53.8951 38.96H53.3032L52.7112 37.1841H51.5273V36.3948L49.9487 36.0002L49.3567 34.6189L48.3701 35.0135V33.435H46.3969L46.1996 34.6189L45.4103 34.0269Z" fill="#A8BEEA"/>
    <path d="M15.2199 30.0805L15.8119 29.2912L14.8253 20.2144L9.89223 21.9903L8.70829 25.7394L7.72168 26.726L8.31365 28.8966L9.6949 29.2912L11.0762 31.4617L11.4708 31.0671L12.2601 32.0537L14.036 30.0805H15.2199Z" fill="#A8BEEA"/>
    <path d="M46.1998 53.3644L45.8052 54.5483V55.1403H47.5811L48.5677 56.1269L48.173 56.7189H48.5677L49.7516 57.1135L50.5409 59.4814L51.5275 58.8894L52.5141 59.284L52.9088 58.4948L53.8954 58.8894L54.4874 58.4948L54.6847 54.1537L53.8954 52.9697L51.5275 53.5617L50.7382 54.1537L49.7516 52.9697L48.173 53.3644L47.5811 53.5617L46.1998 53.3644Z" fill="#A8BEEA"/>
    <path d="M53.8951 52.3773L53.6978 51.588L52.7112 52.9693L53.3031 53.1666L52.7112 54.3505L53.1058 54.7452L52.7112 55.1398L53.1058 56.1264L53.6978 56.5211L53.1058 57.3104L53.5005 57.5077L53.6978 58.4943L53.8951 58.0997L54.8817 58.297L55.671 57.9023L55.4737 57.3104L56.0657 56.1264L55.4737 55.5345L55.671 54.7452L55.4737 53.7586L54.4871 52.9693L53.8951 52.3773Z" fill="#315ED1"/>
    <path d="M46.0021 31.8563L45.0155 31.4616L43.2396 29.6857L42.845 31.8563L43.2396 33.8295L44.4235 35.2108L43.8316 35.8027H44.8182L45.8048 37.184L46.3968 36.9867L46.9887 38.1706L46.3968 38.9599H45.6075L44.4235 39.9465H43.6342L42.0557 40.3412V39.7492H40.8717L39.6878 40.7358V41.7224L38.3065 41.9197L37.1226 41.3278L37.5173 40.3412L37.1226 39.7492L37.5173 38.9599L37.1226 37.776L37.5173 36.9867L37.1226 36.592V35.2108L33.9654 30.6724L27.0592 31.4616L26.6645 30.6724H25.4806L24.0993 30.0804L23.1127 31.067H21.9288L21.5341 30.2777L20.3502 30.0804L18.7716 31.4616L18.5743 30.6724L16.9957 30.2777H16.4037L15.8118 29.6857H15.0225V29.0938V28.5018L14.0359 27.3179L14.8252 26.9232L14.4305 26.5286H13.6412L13.2466 25.1473L14.8252 24.1607L18.5743 18.0437L19.7582 18.6357L20.7448 18.241L21.5341 18.0437L22.7181 17.6491L24.6913 18.6357L25.4806 19.8196L27.0592 20.0169L28.8351 19.0303H29.6243L31.7949 15.4785L35.3467 17.6491L37.9119 13.8999L40.0824 12.9133L40.8717 13.308V14.4919H41.2664V14.6892L41.661 14.8866L42.0557 14.0973H43.4369L43.8316 13.308L45.0155 14.4919L44.4235 15.4785L45.0155 16.2678L45.6075 17.2544L46.5941 17.0571L46.9887 17.6491L46.5941 19.8196L46.9887 20.4116V21.2009L48.5673 22.5821V24.1607L50.1459 24.7527L50.5405 24.1607H52.5138L52.3164 24.7527L52.5138 26.9232L50.5405 26.5286L49.7512 27.7125L46.9887 26.9232L47.5807 28.6991L46.9887 29.0938L47.5807 29.6857L46.9887 30.6724V31.4616H46.0021V31.8563Z" fill="#315ED1"/>
    <path d="M15.2199 16.662L18.969 16.07L19.7583 21.0031L21.3369 21.2004L22.5209 20.6084H24.2968L24.6914 20.0165L26.0727 20.6084L26.4673 19.6218L27.0593 20.0165L28.0459 19.6218L28.4405 21.0031L27.0593 21.2004V23.1736L26.0727 23.7656L26.27 25.9361L25.678 27.1201L25.086 26.7254H23.3101L21.7316 25.9361L20.7449 27.1201H19.7583L20.153 23.7656L18.7717 22.187L16.2065 23.1736L14.8253 24.3576L14.4306 23.1736L13.444 21.7924L10.4842 22.5817L10.0895 23.7656L10.4842 24.3576L9.30024 25.1468V26.1335L8.51095 26.7254H7.91899V25.5415L6.93237 22.5817L15.2199 16.662Z" fill="#133DBD"/>
    <path d="M33.5709 16.07H31.795L32.5843 17.4513L33.1763 17.8459L32.7816 18.6352L33.5709 20.0165L33.1763 21.7924L32.1897 22.187L31.795 21.7924L31.203 22.5817L31.4004 23.9629L32.1897 23.7656L31.795 25.1468H31.203L30.6111 25.5415L31.203 26.3308L30.6111 26.7254L30.0191 26.3308L29.4271 28.5013L29.6245 28.896L29.4271 29.8826L28.4405 30.2772L27.6512 29.8826L28.0459 30.8692L27.0593 31.4612L28.0459 31.8558L30.2164 31.4612V33.2371H30.6111L31.203 32.8424L33.5709 34.8156H35.5441L36.1361 35.8023L37.1227 35.4076V34.8156H38.3067V34.421L38.7013 33.829L39.6879 34.0264L42.4504 33.2371H43.2397L43.6344 31.8558L43.2397 30.8692L43.6344 30.4745L44.029 30.8692L44.4236 31.4612H45.0156V30.8692V29.8826L45.8049 29.4879L45.4103 29.0933L45.8049 27.712L46.1996 26.7254H44.4236L44.029 26.1335L45.0156 24.7522L45.8049 24.3576L44.8183 23.3709L44.4236 24.3576L42.8451 23.7656L40.6745 24.5549L40.2799 23.7656V23.3709L39.6879 22.5817H40.4772L40.0826 21.7924L39.6879 22.187L38.8986 20.0165L39.6879 19.0298L40.0826 17.4513L39.2933 17.0566L38.8986 14.8861L36.5307 14.4914V13.3075L34.3602 14.0968V15.478L33.9656 16.4647L33.5709 16.07Z" fill="#133DBD"/>
    <path fill-rule="evenodd" clip-rule="evenodd" d="M38.9205 12.1653C39.2047 11.9291 39.622 11.9481 39.8837 12.209L41.4847 13.8058L43.0128 12.7898C43.1896 12.6722 43.4096 12.6392 43.6132 12.6998C43.8168 12.7603 43.983 12.9081 44.0669 13.1033L45.0088 15.2953L47.0326 17.0253H50.4634C50.7025 17.0253 50.9258 17.1447 51.0586 17.3435L51.6509 18.2297L55.5626 20.8303C55.8473 21.0196 55.9584 21.3837 55.828 21.6997L53.5627 27.1865L54.0606 29.4212H58.1895C58.3791 29.4212 58.5609 29.4963 58.6951 29.6302L61.7183 32.6454C61.8967 32.8233 61.9685 33.0819 61.9072 33.3263L61.3968 35.3625L62.7823 35.8231C63.0146 35.9004 63.1914 36.091 63.2509 36.3284L64.2586 40.3487C64.3323 40.6426 64.2129 40.9511 63.9606 41.1189L61.142 42.9929L60.5481 44.77C60.4793 44.9757 60.321 45.1391 60.1176 45.2144C59.9142 45.2897 59.6876 45.2687 59.5015 45.1573L58.3931 44.4941L56.484 47.2141L54.9567 51.7838L56.7462 54.1634C56.8831 54.3455 56.9252 54.5818 56.8596 54.7999L55.8518 58.1501C55.7608 58.4527 55.4822 58.6598 55.1663 58.6598H53.0045L50.8179 59.906C50.4845 60.096 50.0606 59.9893 49.8568 59.6642L48.2742 57.1388L43.0589 54.213L43.0547 54.2106L40.7032 52.8705C40.4425 52.7219 40.3021 52.4265 40.3516 52.1305L40.6491 50.3506L39.41 47.8791C39.3247 47.7089 39.3106 47.5118 39.371 47.3313L40.1063 45.1313L38.977 46.9333L38.9655 46.951L38.2937 47.9561C38.2412 48.0346 38.1736 48.102 38.0949 48.1544L36.0794 49.4945C35.962 49.5726 35.8241 49.6142 35.683 49.6142H31.3161C31.0452 49.6142 30.7975 49.4613 30.6761 49.2192L29.6684 47.209C29.53 46.933 29.5842 46.5993 29.8028 46.3813L30.3698 45.8158L29.7362 44.9733C29.6013 44.7939 29.5583 44.5616 29.6201 44.3459L30.1857 42.3718L28.6085 40.5366L25.6703 40.2436L23.4502 40.8762C23.2343 40.9378 23.002 40.8944 22.8227 40.7591C22.6435 40.6238 22.5382 40.4123 22.5382 40.1877V37.6155L20.5119 36.6051L18.777 37.1818C18.5679 37.2514 18.3384 37.2207 18.1548 37.0986L17.1471 36.4286C16.9475 36.2959 16.8276 36.0721 16.8276 35.8324V31.8218L15.6133 30.853H14.0865L12.9335 31.7154C12.7106 31.8821 12.4112 31.9045 12.166 31.7728L7.79904 29.4277C7.60193 29.3218 7.46564 29.1299 7.43065 28.9089L6.4229 22.5437C6.37633 22.2495 6.51675 21.9573 6.77552 21.8098C7.55291 21.3668 8.77008 20.6517 9.89051 19.9491C10.451 19.5977 10.9822 19.2526 11.4199 18.9482C11.87 18.6352 12.1828 18.3915 12.3351 18.2396L14.6865 15.8945C14.8642 15.7173 15.1217 15.646 15.3652 15.7067C15.7831 15.8109 16.4433 15.9357 17.0483 15.9715C17.3519 15.9895 17.6145 15.9832 17.8141 15.9518C17.9944 15.9233 18.0527 15.8853 18.0536 15.8866C18.0536 15.8866 18.0536 15.8865 18.0536 15.8866C18.1772 15.765 18.4665 15.5231 18.8739 15.5885C19.2932 15.6558 19.4825 15.9915 19.5428 16.1119C19.6199 16.2656 19.6679 16.4381 19.7007 16.5706C19.7282 16.6814 19.7546 16.8057 19.779 16.9202C19.7851 16.9492 19.7911 16.9775 19.797 17.0048C19.8625 17.3099 19.9206 17.5355 19.9942 17.6824C19.9959 17.6857 19.9975 17.6889 19.9991 17.692C20.2612 17.6732 20.4484 17.5831 20.674 17.4544C20.6979 17.4408 20.7242 17.4253 20.7528 17.4084C20.9948 17.2654 21.4012 17.0253 21.9104 17.0253C22.1264 17.0253 22.353 17.0956 22.5137 17.1517C22.6992 17.2165 22.9094 17.3044 23.1273 17.4022C23.5605 17.5966 24.0749 17.8531 24.5718 18.1009L24.5813 18.1056C25.0893 18.359 25.5788 18.6029 25.9826 18.7842C26.1846 18.8748 26.3523 18.9439 26.4818 18.9891C26.5782 19.0228 26.6242 19.0324 26.6334 19.035C26.7138 19.0314 26.8658 19.0077 27.0863 18.9494C27.3137 18.8892 27.5723 18.8036 27.8265 18.7062C28.0809 18.6086 28.3195 18.5035 28.5078 18.4073C28.6954 18.3115 28.7775 18.2522 28.7925 18.2413C28.7946 18.2398 28.7954 18.2393 28.795 18.2396C28.7941 18.2406 28.7945 18.2401 28.7963 18.2379C28.8027 18.2305 28.8263 18.2029 28.8711 18.1439C28.9227 18.0759 28.9874 17.9863 29.0636 17.8774C29.2157 17.6602 29.4025 17.3819 29.601 17.08C29.9976 16.477 30.4314 15.7948 30.7094 15.351C30.8404 15.1421 31.0695 15.0152 31.3161 15.0152H33.4168L33.6374 13.9152C33.6809 13.6985 33.822 13.514 34.0199 13.4153L35.3635 12.7453C35.5821 12.6363 35.8411 12.6462 36.0506 12.7716L37.295 13.5163L38.9205 12.1653ZM39.3343 13.6832L37.8202 14.9416C37.5865 15.1358 37.2557 15.1613 36.995 15.0053L35.6517 14.2015L34.9724 14.5403L34.7054 15.8719C34.6383 16.2063 34.3445 16.447 34.0034 16.447H31.7113C31.4454 16.8675 31.1106 17.3903 30.7973 17.8667C30.5956 18.1735 30.4002 18.4648 30.2366 18.6985C30.0895 18.9086 29.9272 19.1326 29.8061 19.2534C29.635 19.424 29.376 19.5716 29.1591 19.6824C28.917 19.8061 28.6307 19.9312 28.3392 20.043C28.0476 20.1549 27.7393 20.2577 27.4524 20.3336C27.1786 20.406 26.8757 20.4673 26.6132 20.4673C26.3973 20.4673 26.1706 20.397 26.0099 20.3409C25.8244 20.2762 25.6142 20.1882 25.3963 20.0904C24.9631 19.896 24.4487 19.6395 23.9518 19.3917L23.9423 19.387C23.4344 19.1337 22.9448 18.8897 22.541 18.7085C22.339 18.6178 22.1713 18.5487 22.0419 18.5035C21.9458 18.47 21.8997 18.4602 21.8903 18.4576C21.7981 18.4626 21.7207 18.5059 21.3832 18.6983C21.0497 18.8884 20.5834 19.1274 19.8949 19.1274C19.2425 19.1274 18.8847 18.6641 18.7143 18.324C18.5465 17.9893 18.4576 17.5868 18.3971 17.3056C18.3957 17.299 18.3943 17.2924 18.3929 17.286C18.2692 17.3236 18.1478 17.3486 18.037 17.3661C17.6964 17.4198 17.3207 17.4219 16.9637 17.4008C16.4243 17.3689 15.8654 17.2798 15.4183 17.1868L13.3461 19.2534C13.0953 19.5036 12.6887 19.8099 12.2373 20.1237C11.7737 20.4461 11.2216 20.8045 10.6511 21.1622C9.69998 21.7586 8.68381 22.3618 7.9142 22.8069L8.78931 28.3343L12.4413 30.2955L13.4195 29.5638C13.5433 29.4712 13.6938 29.4212 13.8484 29.4212H15.8639C16.0261 29.4212 16.1835 29.4763 16.3103 29.5775L17.9899 30.9175C18.1602 31.0534 18.2593 31.2593 18.2593 31.4772V35.4487L18.6568 35.713L20.3409 35.1531C20.5206 35.0933 20.7167 35.1073 20.8862 35.1918L23.5735 36.5319C23.8164 36.653 23.97 36.9011 23.97 37.1725V39.2393L25.4093 38.8292C25.4961 38.8045 25.5867 38.7964 25.6765 38.8053L29.0357 39.1403C29.2187 39.1586 29.3877 39.2466 29.5076 39.3861L31.5231 41.7312C31.6801 41.914 31.7347 42.1634 31.6684 42.395L31.0947 44.3976L31.8883 45.4528C32.1028 45.7381 32.0744 46.1379 31.8216 46.39L31.1801 47.0298L31.758 48.1824H35.4667L37.1829 47.0413L37.7693 46.1641L39.4433 43.4928C39.5459 43.3291 39.7104 43.2138 39.8992 43.1731C40.0881 43.1324 40.2854 43.1698 40.4463 43.2768L41.4541 43.9469C41.7234 44.1259 41.8392 44.4633 41.7367 44.77L40.8232 47.5032L42.0336 49.9176C42.1016 50.0531 42.1247 50.2068 42.0997 50.3564L41.8461 51.8739L43.7594 52.9643L43.7636 52.9666L49.1341 55.9795C49.2386 56.0381 49.3268 56.1221 49.3904 56.2237L50.7055 58.3221L52.4604 57.3219C52.5684 57.2604 52.6905 57.228 52.8148 57.228H54.634L55.3841 54.7344L53.5863 52.3438C53.4448 52.1556 53.4049 51.9099 53.4795 51.6866L55.1591 46.6612C55.1811 46.5956 55.2124 46.5335 55.2521 46.4769L57.6036 43.1267C57.8191 42.8196 58.2352 42.731 58.5571 42.9236L59.4725 43.4714L59.862 42.306C59.9125 42.1549 60.0119 42.0249 60.1446 41.9367L62.7469 40.2065L61.9576 37.0578L60.3151 36.5118C59.9598 36.3936 59.7555 36.0216 59.8465 35.6584L60.4196 33.3723L57.8936 30.853H53.4867C53.1513 30.853 52.8609 30.6201 52.7879 30.2928L52.1161 27.2776C52.0841 27.1342 52.0971 26.9844 52.1531 26.8487L54.2801 21.697L50.7389 19.3427C50.6602 19.2903 50.5926 19.2229 50.54 19.1443L50.0808 18.4571H46.7683C46.5977 18.4571 46.4328 18.3962 46.3031 18.2854L43.9517 16.2753C43.8683 16.204 43.8025 16.1145 43.7591 16.0137L43.0904 14.4576L41.79 15.3222C41.5064 15.5108 41.1292 15.4734 40.8881 15.2329L39.3343 13.6832ZM19.0567 16.9083C19.0691 16.896 19.0684 16.8989 19.0557 16.9093C19.056 16.909 19.0564 16.9086 19.0567 16.9083Z" fill="#133DBD"/>
</svg>
