<svg width="232" height="139" viewBox="0 0 232 139" fill="none" xmlns="http://www.w3.org/2000/svg">
    <path d="M45 134.932L123.365 134.247L123.386 136.49L45.0209 137.175L45 134.932Z" fill="#133DBD"/>
    <path d="M51.2283 104.962L116.609 104.391L116.881 135.437L51.4998 136.008L51.2283 104.962Z" fill="white"/>
    <path d="M109.418 89.4686L58.1613 89.9157L51.2314 104.973L116.611 104.402L109.418 89.4686Z" fill="#A8BEEA"/>
    <path d="M98.3836 106.045L103.351 106.001L96.413 96.4666L93.5956 92.5937L83.6966 78.9902L74.0358 92.765L71.2853 96.6867L64.5156 106.341L68.9624 106.302" fill="white"/>
    <path d="M83.9307 105.744C87.1802 105.716 89.7935 103.297 89.7676 100.342C89.7418 97.3875 87.0866 95.0151 83.8371 95.0435C80.5876 95.0719 77.9743 97.4904 78.0002 100.445C78.026 103.4 80.6812 105.773 83.9307 105.744Z" fill="white"/>
    <path d="M115.928 76.9292L162.381 77.2843L161.959 132.447L115.506 132.092L115.928 76.9292Z" fill="white"/>
    <path d="M112.122 131.582L165.349 131.989L165.311 136.829L112.084 136.422L112.122 131.582Z" fill="white"/>
    <path d="M115.905 79.8326L162.358 80.1878L162.337 83.0915L115.884 82.7349L115.905 79.8326Z" fill="#A8BEEA"/>
    <path d="M163.849 74.8762L114.493 74.4988L115.918 66.9841L116.51 63.8673L161.995 64.2155L163.849 74.8762Z" fill="#315ED1"/>
    <path d="M150.404 61.2227L156.211 61.2672L156.108 74.8163L150.301 74.7718L150.404 61.2227ZM145.254 130.297C143.524 132.116 132.592 131.546 131.356 130.521C130.121 129.496 129.794 109.804 129.794 109.804C133.388 110.918 142.335 110.953 146.728 109.677C146.728 109.677 146.983 128.478 145.254 130.297Z" fill="white"/>
    <path d="M134.204 103.234C134.525 103.234 134.833 103.107 135.061 102.881C135.289 102.655 135.418 102.348 135.42 102.027L135.47 95.411C135.483 93.6952 134.814 92.0445 133.61 90.822C132.406 89.5994 130.766 88.9052 129.05 88.892H129C127.293 88.8937 125.656 89.5692 124.445 90.7714C123.233 91.9736 122.546 93.6055 122.531 95.3121L122.481 101.929C122.479 102.088 122.509 102.247 122.569 102.395C122.629 102.542 122.717 102.677 122.829 102.791C122.941 102.905 123.074 102.996 123.221 103.058C123.368 103.12 123.526 103.153 123.685 103.154L134.196 103.234H134.204ZM132.999 100.795L131.601 100.784L131.618 98.6238C131.608 97.9625 131.34 97.3312 130.871 96.8651C130.402 96.399 129.769 96.1351 129.107 96.13C128.446 96.1249 127.809 96.379 127.332 96.8378C126.856 97.2966 126.578 97.9237 126.558 98.5848L126.542 100.745L124.919 100.732L124.961 95.3288C124.971 94.2636 125.401 93.2452 126.157 92.4948C126.913 91.7444 127.934 91.3225 129 91.3208H129.032C129.562 91.3246 130.087 91.4329 130.576 91.6396C131.065 91.8463 131.508 92.1473 131.88 92.5253C132.252 92.9033 132.547 93.351 132.746 93.8428C132.945 94.3346 133.045 94.8609 133.041 95.3915L132.999 100.795ZM145.362 103.318L155.872 103.399H155.882C156.203 103.399 156.51 103.273 156.737 103.047C156.965 102.821 157.094 102.515 157.097 102.195L157.148 95.5767C157.16 93.8612 156.49 92.2112 155.286 90.9888C154.083 89.7664 152.443 89.0714 150.728 89.0563H150.678C148.971 89.0588 147.335 89.7345 146.124 90.9365C144.912 92.1386 144.224 93.77 144.209 95.4764L144.157 102.094C144.156 102.254 144.186 102.412 144.246 102.56C144.305 102.708 144.394 102.843 144.506 102.957C144.618 103.071 144.751 103.161 144.898 103.224C145.045 103.286 145.202 103.319 145.362 103.32V103.318ZM146.638 95.4959C146.642 94.9654 146.75 94.4408 146.957 93.9522C147.164 93.4637 147.465 93.0206 147.843 92.6483C148.221 92.2761 148.669 91.982 149.161 91.7827C149.652 91.5835 150.179 91.4831 150.709 91.4872C151.24 91.4913 151.764 91.5999 152.253 91.8067C152.741 92.0135 153.185 92.3146 153.557 92.6927C153.929 93.0707 154.223 93.5184 154.422 94.0101C154.622 94.5019 154.722 95.028 154.718 95.5586L154.676 100.961L152.694 100.945L152.71 98.9246C152.7 98.2633 152.432 97.632 151.963 97.1659C151.494 96.6998 150.86 96.4359 150.199 96.4308C149.538 96.4257 148.901 96.6798 148.424 97.1386C147.948 97.5974 147.67 98.2245 147.65 98.8857L147.636 100.906L146.596 100.898L146.638 95.4959Z" fill="#133DBD"/>
    <path d="M83.9497 93.9098C82.1635 93.8438 80.4238 94.4876 79.1108 95.7006C77.7979 96.9135 77.0186 98.597 76.9433 100.383C77.0839 102.145 77.883 103.789 79.1815 104.988C80.4799 106.187 82.1824 106.852 83.9497 106.852C85.717 106.852 87.4195 106.187 88.718 104.988C90.0164 103.789 90.8156 102.145 90.9562 100.383C90.8808 98.597 90.1015 96.9135 88.7886 95.7006C87.4757 94.4876 85.736 93.8438 83.9497 93.9098ZM83.9497 104.612C82.7587 104.677 81.5902 104.269 80.6983 103.477C79.8065 102.685 79.2633 101.573 79.1868 100.383C79.3252 99.2168 79.8865 98.1421 80.7643 97.3623C81.6422 96.5825 82.7755 96.1518 83.9497 96.1518C85.1239 96.1518 86.2573 96.5825 87.1351 97.3623C88.0129 98.1421 88.5742 99.2168 88.7126 100.383C88.6362 101.573 88.093 102.685 87.2011 103.477C86.3092 104.269 85.1407 104.677 83.9497 104.612ZM97.1688 114.297V127.138C97.1686 127.286 97.1975 127.432 97.2539 127.568C97.3102 127.705 97.3929 127.828 97.4972 127.933C97.6014 128.037 97.7252 128.12 97.8615 128.176C97.9978 128.232 98.1438 128.261 98.2913 128.261H110.061C110.208 128.261 110.354 128.232 110.49 128.176C110.627 128.12 110.75 128.037 110.855 127.933C110.959 127.828 111.042 127.705 111.098 127.568C111.154 127.432 111.183 127.286 111.183 127.138V114.297C111.183 114.149 111.154 114.003 111.098 113.867C111.042 113.731 110.959 113.607 110.855 113.503C110.75 113.398 110.627 113.316 110.49 113.259C110.354 113.203 110.208 113.174 110.061 113.174H98.2913C98.1438 113.174 97.9978 113.203 97.8615 113.259C97.7252 113.316 97.6014 113.398 97.4972 113.503C97.3929 113.607 97.3102 113.731 97.2539 113.867C97.1975 114.003 97.1686 114.149 97.1688 114.297ZM108.938 126.017H108.813C108.86 125.953 108.896 125.882 108.938 125.814V126.017ZM99.4124 115.419H108.938V123.292C108.673 122.88 108.307 122.542 107.876 122.31C107.444 122.079 106.96 121.961 106.47 121.968C105.751 121.935 105.047 122.189 104.514 122.674C103.982 123.158 103.662 123.834 103.627 124.554C103.629 125.083 103.805 125.597 104.128 126.016H99.4124V115.419ZM68.8687 113.173H57.1008C56.9532 113.173 56.807 113.202 56.6707 113.258C56.5343 113.315 56.4104 113.397 56.3061 113.502C56.2019 113.606 56.1192 113.73 56.0629 113.867C56.0067 114.003 55.9779 114.149 55.9783 114.297V127.138C55.9781 127.286 56.007 127.432 56.0632 127.568C56.1195 127.704 56.202 127.828 56.3061 127.932C56.4103 128.036 56.5339 128.119 56.67 128.175C56.8061 128.232 56.952 128.261 57.0994 128.261H68.8673C69.0149 128.261 69.1611 128.233 69.2975 128.176C69.4339 128.12 69.5579 128.037 69.6623 127.933C69.7667 127.829 69.8495 127.705 69.906 127.569C69.9624 127.432 69.9913 127.286 69.9912 127.138V114.297C69.9913 114.149 69.9624 114.003 69.9061 113.867C69.8497 113.731 69.7671 113.607 69.6628 113.503C69.5585 113.398 69.4347 113.316 69.2984 113.259C69.1622 113.203 69.0161 113.174 68.8687 113.174V113.173ZM67.7462 122.585C67.2232 122.183 66.5823 121.967 65.9232 121.968C65.2036 121.935 64.5003 122.189 63.9674 122.674C63.4344 123.158 63.1151 123.834 63.0794 124.554C63.0817 125.083 63.2578 125.597 63.5808 126.016H58.2218V115.418H67.7476L67.7462 122.585Z" fill="#133DBD"/>
    <path d="M166.652 74.0393C166.54 73.9256 166.407 73.8351 166.26 73.773C166.113 73.7108 165.955 73.6783 165.795 73.6773L164.873 73.6689L163.018 63.0081L157.414 62.9664L157.437 60.0627L149.199 60L149.177 62.9023L115.507 62.6446L113.489 73.2762L112.568 73.2692H112.558C112.238 73.2692 111.931 73.3958 111.703 73.6214C111.476 73.8471 111.347 74.1535 111.344 74.4739L111.306 79.3119C111.305 79.4715 111.335 79.6298 111.395 79.7778C111.454 79.9258 111.543 80.0606 111.655 80.1744C111.767 80.2882 111.9 80.3789 112.047 80.4412C112.194 80.5035 112.351 80.5362 112.511 80.5375L114.2 80.55L114.078 96.6003L110.593 89.2026C110.503 89.0101 110.359 88.8474 110.179 88.7335C109.999 88.6196 109.791 88.5591 109.578 88.5591H92.1728L84.8613 78.3259C84.7574 78.181 84.6205 78.063 84.4618 77.9815C84.3032 77.9001 84.1274 77.8576 83.9491 77.8576C83.7708 77.8576 83.5951 77.9001 83.4364 77.9815C83.2778 78.063 83.1409 78.181 83.0369 78.3259L75.7255 88.5591H58.3201C58.1071 88.5589 57.8983 88.6192 57.7183 88.7331C57.5383 88.8471 57.3944 89.0099 57.3035 89.2026L50.2427 104.199C50.1736 104.344 50.137 104.503 50.1355 104.664V135.713C50.1353 135.86 50.1642 136.007 50.2206 136.143C50.2769 136.279 50.3596 136.403 50.4639 136.507C50.5681 136.611 50.6919 136.694 50.8282 136.75C50.9645 136.807 51.1105 136.836 51.258 136.835H110.953C111.036 137.067 111.188 137.268 111.389 137.411C111.589 137.554 111.829 137.632 112.075 137.635L165.302 138.043H165.312C165.633 138.043 165.94 137.916 166.167 137.691C166.395 137.465 166.524 137.159 166.527 136.838L166.563 131.999C166.564 131.839 166.534 131.681 166.474 131.533C166.414 131.385 166.326 131.251 166.214 131.137C166.102 131.024 165.969 130.933 165.822 130.871C165.675 130.809 165.518 130.776 165.358 130.775L163.67 130.761L164.05 80.9316L165.738 80.9441H165.748C166.068 80.9441 166.376 80.8175 166.603 80.5919C166.831 80.3662 166.96 80.0599 166.962 79.7395L167 74.9C167.002 74.7405 166.972 74.5822 166.912 74.4343C166.852 74.2864 166.764 74.1517 166.652 74.0379V74.0393ZM147.944 109.659C147.942 109.472 147.896 109.288 147.811 109.122C147.726 108.955 147.603 108.811 147.453 108.699C147.303 108.588 147.129 108.513 146.945 108.48C146.76 108.447 146.571 108.457 146.392 108.509C141.049 109.688 135.518 109.734 130.156 108.643C129.973 108.586 129.778 108.573 129.589 108.606C129.4 108.639 129.221 108.716 129.068 108.831C128.914 108.947 128.79 109.097 128.706 109.269C128.621 109.442 128.579 109.632 128.582 109.824C128.819 124.179 129.497 128.858 130.033 130.503L116.249 130.397L116.631 80.5681L161.622 80.9121L161.24 130.741L146.465 130.63C147.949 127.643 148.036 116.397 147.944 109.659ZM144.357 129.475C143.162 130.555 134.048 130.42 132.252 129.642C131.688 128 131.213 119.47 131.04 111.343C135.848 112.059 140.738 112.013 145.531 111.206C145.58 119.316 145.169 128.194 144.357 129.475ZM108.866 90.8013L114.037 101.784L114.023 103.54H102.877L93.7757 90.8013H108.866ZM59.0318 90.8013H74.1226L65.0216 103.54H53.0336L59.0318 90.8013ZM89.9055 134.592H77.7755V119.83H89.9055V134.592ZM111.269 130.716C111.155 130.828 111.065 130.961 111.002 131.108C110.94 131.255 110.908 131.413 110.907 131.573L110.883 134.592H91.897V118.834C91.897 118.57 91.7921 118.317 91.6054 118.13C91.4186 117.943 91.1653 117.838 90.9013 117.838H76.7784C76.5143 117.838 76.261 117.943 76.0743 118.13C75.8875 118.317 75.7826 118.57 75.7826 118.834V134.592H52.3805V105.799H63.4702C63.4119 105.967 63.3949 106.148 63.4205 106.324C63.4461 106.501 63.5136 106.669 63.6174 106.814C63.7211 106.959 63.8581 107.077 64.0168 107.159C64.1756 107.24 64.3515 107.282 64.53 107.282H68.9767C69.1273 107.287 69.2775 107.262 69.4183 107.208C69.559 107.154 69.6874 107.072 69.7959 106.968C69.9043 106.863 69.9905 106.738 70.0495 106.599C70.1084 106.46 70.1387 106.311 70.1387 106.16C70.1387 106.009 70.1084 105.86 70.0495 105.722C69.9905 105.583 69.9043 105.457 69.7959 105.353C69.6874 105.248 69.559 105.166 69.4183 105.112C69.2775 105.058 69.1273 105.033 68.9767 105.038H66.7109L83.9491 80.9079L101.186 105.04H98.4007C98.2501 105.035 98.0999 105.06 97.9592 105.114C97.8184 105.168 97.69 105.249 97.5816 105.354C97.4731 105.459 97.3869 105.584 97.328 105.723C97.269 105.862 97.2387 106.011 97.2387 106.162C97.2387 106.312 97.269 106.462 97.328 106.6C97.3869 106.739 97.4731 106.864 97.5816 106.969C97.69 107.074 97.8184 107.156 97.9592 107.21C98.0999 107.264 98.2501 107.289 98.4007 107.283H103.368C103.547 107.284 103.722 107.241 103.881 107.16C104.04 107.078 104.176 106.96 104.28 106.815C104.383 106.67 104.451 106.502 104.476 106.325C104.502 106.149 104.485 105.969 104.427 105.8H114.008L113.819 130.381L112.131 130.369C111.971 130.364 111.812 130.392 111.663 130.452C111.515 130.512 111.38 130.603 111.269 130.718V130.716ZM164.124 133.195L164.106 135.604L113.309 135.214L113.327 132.805L113.801 132.809L163.651 133.191L164.124 133.195ZM160.974 65.423L162.404 73.6494L157.332 73.6118L157.395 65.3951L160.974 65.423ZM154.966 62.7992L154.902 73.5923L151.525 73.5672L151.588 62.7728L154.966 62.7992ZM115.958 73.2943L117.515 65.0915L149.159 65.3325L149.096 73.5491L140.626 73.4837L115.958 73.2943ZM113.745 78.117L113.763 75.7077L164.562 76.0977L164.543 78.5056L113.745 78.117Z" fill="#133DBD"/>
    <path d="M114.864 103.541L114.523 102.817V103.541H114.864Z" fill="#133DBD"/>
    <path d="M177.2 109.4C179.575 109.4 181.5 107.475 181.5 105.1C181.5 102.725 179.575 100.8 177.2 100.8C174.826 100.8 172.9 102.725 172.9 105.1C172.9 107.475 174.826 109.4 177.2 109.4Z" fill="#3D6CA9"/>
    <path d="M136.999 51.2C139.374 51.2 141.299 49.2748 141.299 46.9C141.299 44.5252 139.374 42.6 136.999 42.6C134.624 42.6 132.699 44.5252 132.699 46.9C132.699 49.2748 134.624 51.2 136.999 51.2Z" fill="#65D78D"/>
    <path d="M136.999 87.2999C139.374 87.2999 141.299 85.3748 141.299 83C141.299 80.6251 139.374 78.7 136.999 78.7C134.624 78.7 132.699 80.6251 132.699 83C132.699 85.3748 134.624 87.2999 136.999 87.2999Z" fill="#65D78D"/>
    <path d="M215.3 39.2C217.675 39.2 219.6 37.2748 219.6 34.9C219.6 32.5252 217.675 30.6 215.3 30.6C212.925 30.6 211 32.5252 211 34.9C211 37.2748 212.925 39.2 215.3 39.2Z" fill="#65D78D"/>
    <path d="M227.4 85.2999C229.774 85.2999 231.7 83.3748 231.7 81C231.7 78.6251 229.774 76.7 227.4 76.7C225.025 76.7 223.1 78.6251 223.1 81C223.1 83.3748 225.025 85.2999 227.4 85.2999Z" fill="#65D78D"/>
    <path d="M92.3 106.5C94.6748 106.5 96.6 104.575 96.6 102.2C96.6 99.8252 94.6748 97.9 92.3 97.9C89.9252 97.9 88 99.8252 88 102.2C88 104.575 89.9252 106.5 92.3 106.5Z" fill="#65D78D"/>
    <path d="M168.4 8.6C170.774 8.6 172.7 6.67482 172.7 4.3C172.7 1.92518 170.774 0 168.4 0C166.025 0 164.1 1.92518 164.1 4.3C164.1 6.67482 166.025 8.6 168.4 8.6Z" fill="#3D6CA9"/>
    <path d="M192.499 64.7999C194.874 64.7999 196.799 62.8748 196.799 60.5C196.799 58.1251 194.874 56.2 192.499 56.2C190.124 56.2 188.199 58.1251 188.199 60.5C188.199 62.8748 190.124 64.7999 192.499 64.7999Z" fill="#3D6CA9"/>
    <path d="M96.8996 49.2C99.2744 49.2 101.2 47.2748 101.2 44.9C101.2 42.5252 99.2744 40.6 96.8996 40.6C94.5248 40.6 92.5996 42.5252 92.5996 44.9C92.5996 47.2748 94.5248 49.2 96.8996 49.2Z" fill="#3D6CA9"/>
    <path d="M120.999 81.2999C123.374 81.2999 125.299 79.3748 125.299 77C125.299 74.6251 123.374 72.7 120.999 72.7C118.624 72.7 116.699 74.6251 116.699 77C116.699 79.3748 118.624 81.2999 120.999 81.2999Z" fill="#3D6CA9"/>
    <path d="M120.599 15.9C122.974 15.9 124.899 13.9749 124.899 11.6C124.899 9.22522 122.974 7.30005 120.599 7.30005C118.224 7.30005 116.299 9.22522 116.299 11.6C116.299 13.9749 118.224 15.9 120.599 15.9Z" fill="#65D78D"/>
    <path d="M195.2 97.4C197.575 97.4 199.5 95.4749 199.5 93.1001C199.5 90.7252 197.575 88.8 195.2 88.8C192.826 88.8 190.9 90.7252 190.9 93.1001C190.9 95.4749 192.826 97.4 195.2 97.4Z" fill="#65D78D"/>
    <path d="M179.2 35.1C181.575 35.1 183.5 33.1748 183.5 30.8C183.5 28.4252 181.575 26.5 179.2 26.5C176.826 26.5 174.9 28.4252 174.9 30.8C174.9 33.1748 176.826 35.1 179.2 35.1Z" fill="#65D78D"/>
    <path d="M89.2004 109.4C91.5752 109.4 93.5004 107.475 93.5004 105.1C93.5004 102.725 91.5752 100.8 89.2004 100.8C86.8256 100.8 84.9004 102.725 84.9004 105.1C84.9004 107.475 86.8256 109.4 89.2004 109.4Z" fill="#3D6CA9"/>
    <path d="M48.9992 51.2C51.374 51.2 53.2992 49.2748 53.2992 46.9C53.2992 44.5252 51.374 42.6 48.9992 42.6C46.6244 42.6 44.6992 44.5252 44.6992 46.9C44.6992 49.2748 46.6244 51.2 48.9992 51.2Z" fill="#65D78D"/>
    <path d="M48.9992 87.2999C51.374 87.2999 53.2992 85.3748 53.2992 83C53.2992 80.6251 51.374 78.7 48.9992 78.7C46.6244 78.7 44.6992 80.6251 44.6992 83C44.6992 85.3748 46.6244 87.2999 48.9992 87.2999Z" fill="#65D78D"/>
    <path d="M127.3 39.2C129.675 39.2 131.6 37.2748 131.6 34.9C131.6 32.5252 129.675 30.6 127.3 30.6C124.925 30.6 123 32.5252 123 34.9C123 37.2748 124.925 39.2 127.3 39.2Z" fill="#65D78D"/>
    <path d="M139.4 85.2999C141.774 85.2999 143.7 83.3748 143.7 81C143.7 78.6251 141.774 76.7 139.4 76.7C137.025 76.7 135.1 78.6251 135.1 81C135.1 83.3748 137.025 85.2999 139.4 85.2999Z" fill="#65D78D"/>
    <path d="M4.3 106.5C6.67483 106.5 8.6 104.575 8.6 102.2C8.6 99.8252 6.67483 97.9 4.3 97.9C1.92518 97.9 0 99.8252 0 102.2C0 104.575 1.92518 106.5 4.3 106.5Z" fill="#65D78D"/>
    <path d="M80.3996 8.6C82.7744 8.6 84.6996 6.67482 84.6996 4.3C84.6996 1.92518 82.7744 0 80.3996 0C78.0248 0 76.0996 1.92518 76.0996 4.3C76.0996 6.67482 78.0248 8.6 80.3996 8.6Z" fill="#3D6CA9"/>
    <path d="M104.499 64.7999C106.874 64.7999 108.799 62.8748 108.799 60.5C108.799 58.1251 106.874 56.2 104.499 56.2C102.124 56.2 100.199 58.1251 100.199 60.5C100.199 62.8748 102.124 64.7999 104.499 64.7999Z" fill="#3D6CA9"/>
    <path d="M8.89961 49.2C11.2744 49.2 13.1996 47.2748 13.1996 44.9C13.1996 42.5252 11.2744 40.6 8.89961 40.6C6.52479 40.6 4.59961 42.5252 4.59961 44.9C4.59961 47.2748 6.52479 49.2 8.89961 49.2Z" fill="#3D6CA9"/>
    <path d="M32.9992 81.2999C35.374 81.2999 37.2992 79.3748 37.2992 77C37.2992 74.6251 35.374 72.7 32.9992 72.7C30.6244 72.7 28.6992 74.6251 28.6992 77C28.6992 79.3748 30.6244 81.2999 32.9992 81.2999Z" fill="#3D6CA9"/>
    <path d="M32.5988 15.9C34.9736 15.9 36.8988 13.9749 36.8988 11.6C36.8988 9.22522 34.9736 7.30005 32.5988 7.30005C30.224 7.30005 28.2988 9.22522 28.2988 11.6C28.2988 13.9749 30.224 15.9 32.5988 15.9Z" fill="#65D78D"/>
    <path d="M107.2 97.4C109.575 97.4 111.5 95.4749 111.5 93.1001C111.5 90.7252 109.575 88.8 107.2 88.8C104.826 88.8 102.9 90.7252 102.9 93.1001C102.9 95.4749 104.826 97.4 107.2 97.4Z" fill="#65D78D"/>
    <path d="M91.2004 35.1C93.5752 35.1 95.5004 33.1748 95.5004 30.8C95.5004 28.4252 93.5752 26.5 91.2004 26.5C88.8256 26.5 86.9004 28.4252 86.9004 30.8C86.9004 33.1748 88.8256 35.1 91.2004 35.1Z" fill="#65D78D"/>
</svg>
