<svg width="72" height="72" viewBox="0 0 72 72" fill="none" xmlns="http://www.w3.org/2000/svg">
    <path d="M43.2051 11.6541L50.7691 19.2701L58.4111 11.6541H43.2051Z" fill="#65D78D"/>
    <path d="M51.9351 20.444L59.5681 28.129V12.837L51.9351 20.444Z" fill="#65D78D"/>
    <path d="M19.238 50.695L11.655 43.059V58.254L19.238 50.695Z" fill="#65D78D"/>
    <path d="M27.7189 59.235L20.4039 51.869L13.0139 59.235H27.7189Z" fill="#65D78D"/>
    <path d="M10.828 29.155C11.285 29.155 11.655 28.785 11.655 28.328V11.654H28.329C28.786 11.654 29.156 11.284 29.156 10.827C29.156 10.37 28.786 10 28.329 10H10.828C10.371 10 10.001 10.37 10.001 10.827V28.328C10.001 28.785 10.371 29.155 10.828 29.155Z" fill="#133DBD"/>
    <path d="M60.395 10H42.894C42.437 10 42.067 10.37 42.067 10.827C42.067 11.284 42.437 11.654 42.894 11.654H43.205H58.411L50.769 19.27L19.238 50.695L11.654 58.253V43.059V42.56C11.654 42.103 11.284 41.733 10.827 41.733C10.37 41.733 10 42.103 10 42.56V60.061C10 60.518 10.37 60.888 10.827 60.888H28.328C28.785 60.888 29.155 60.518 29.155 60.061C29.155 59.604 28.785 59.234 28.328 59.234H27.718H13.013L20.403 51.869L51.934 20.444L59.567 12.837V28.129V28.327C59.567 28.784 59.937 29.154 60.394 29.154C60.851 29.154 61.221 28.784 61.221 28.327V10.827C61.222 10.37 60.851 10 60.395 10Z" fill="#133DBD"/>
    <path d="M60.3949 41.734C59.9379 41.734 59.5679 42.104 59.5679 42.561V59.235H42.8939C42.4369 59.235 42.0669 59.605 42.0669 60.062C42.0669 60.519 42.4369 60.889 42.8939 60.889H60.3949C60.8519 60.889 61.2219 60.519 61.2219 60.062V42.561C61.2219 42.104 60.8509 41.734 60.3949 41.734Z" fill="#133DBD"/>
</svg>
