<svg width="64" height="64" viewBox="0 0 64 64" xmlns="http://www.w3.org/2000/svg">
    <path d="M51.927 42.754c-.571 0-1.035.456-1.035 1.02 0 .563.463 1.02 1.035 1.02.572 0 1.036-.456 1.036-1.02 0-.564-.464-1.02-1.036-1.02z" fill="#133DBD"/>
    <path d="M54.986 38.782a.685.685 0 00-.519-.23h-7.409a.68.68 0 00-.685.686v2.426h-1.64l-4.786-4.18a.725.725 0 00-.458-.197H26.682c-.382 0-.645.253-.686.66l-.053.526c-.046.887.266 1.926.859 2.838l.263.406h-1.164l-3.307-5.024c-.975-1.794-3.025-3.45-5.266-2.894l-.333.083V21.687l.13-.13 11.673-6.883 11.805 6.907v13.175c0 .385.302.685.685.685.384 0 .686-.3.686-.685V22.38l2.148 1.232c.474.263.904.387 1.348.387.967 0 1.83-.483 2.309-1.293a2.61 2.61 0 00.294-2.032 2.584 2.584 0 00-1.252-1.613L30.145 9.25c-.823-.482-1.875-.48-2.75.004l-6.06 3.612V9.708a.678.678 0 00-.685-.685h-4.34c-.384 0-.685.3-.685.685v6.529l-4.098 2.45c-1.252.767-1.686 2.406-.965 3.651a2.81 2.81 0 001.641 1.249 2.5 2.5 0 002.007-.287l1.361-.83v11.92l-.06 1.507-.478-.216a5.572 5.572 0 00-2.258-.507c-.986 0-1.984.311-2.782 1.135l-.956.952c-.055.078-.182.287-.14.503.053.26.145.418.3.511l11.604 7.972c.048.04.079.057.093.062l18.16 6.71a.45.45 0 00.222.036h7.095v1.37c0 .385.302.686.685.686h4.816c.383 0 .685-.3.685-.685a.678.678 0 00-.685-.686h-4.131V39.977h6.67c.385 0 .686-.3.686-.685.047-.268-.035-.42-.11-.51zM17.502 35.19c1.526-.47 3.073.72 3.811 2.135l.014.028a.325.325 0 01.05.093l2.528 3.235-5.796-3.296v-.013l-1.073-2.028.466-.154zm-.505-24.795h2.917v3.26l-2.917 1.743v-5.003zm-3.5 11.662c-.242.175-.55.224-.942.145-.34-.068-.615-.27-.812-.6-.344-.614-.127-1.405.469-1.735l15.923-9.435a1.137 1.137 0 011.292.007l16.658 9.748c.59.326.806 1.118.468 1.724a1.228 1.228 0 01-.75.583 1.325 1.325 0 01-.99-.11l-15.672-9.18c-.254-.168-.435-.16-.666-.008l-14.977 8.86zM46.374 51.63l-6.977-.016-17.893-6.622-10.793-7.403.329-.328c1.088-1.085 3.033-.745 4.349.133h.028l.13.088 9.579 5.537c.1.067.19.07.34.07h11.643a.679.679 0 00.686-.686.678.678 0 00-.686-.685h-7.41c-.562-.055-1.086-.377-1.63-.987a3.863 3.863 0 01-.748-1.651l-.064-.315H39.22l4.787 4.18a.725.725 0 00.457.196h1.908v8.49h.001z" fill="#133DBD"/>
    <path d="M29.471 23.806l-.137.195-.134-.191c-.92-1.279-2.706-1.559-4.01-.648a2.799 2.799 0 00-1.195 2.297c0 1.073.416 2.052 1.196 2.82l3.89 3.834a.36.36 0 00.505 0l3.89-3.834c.78-.768 1.196-1.747 1.196-2.82 0-1.55-1.298-2.83-2.871-2.83a2.87 2.87 0 00-2.33 1.177z" fill="#65D78D"/>
    <path d="M36.622 27.378a8.217 8.217 0 11-16.434 0 8.217 8.217 0 0116.434 0z" fill="#65D78D"/>
    <path fill-rule="evenodd" clip-rule="evenodd" d="M28.405 34.262a6.884 6.884 0 100-13.768 6.884 6.884 0 000 13.768zm0 1.333a8.217 8.217 0 100-16.435 8.217 8.217 0 000 16.435z" fill="#133DBD"/>
    <path d="M23.269 26.997v-.993h1.287a3.894 3.894 0 011.447-1.985c.694-.5 1.482-.75 2.364-.75 1.312 0 2.352.443 3.119 1.327l-.879 1.04c-.363-.363-.71-.616-1.04-.763-.321-.146-.721-.219-1.2-.219-.478 0-.911.12-1.3.358a2.13 2.13 0 00-.853.992h2.945v.993h-3.205a5.315 5.315 0 00-.012.427c0 .185.012.362.037.53h3.18v.993h-2.846c.445.8 1.095 1.2 2.017 1.2.446 0 .825-.076 1.139-.23.321-.162.66-.412 1.014-.75l.88.992c-.768.885-1.779 1.327-3.033 1.327-.858 0-1.621-.227-2.29-.68a3.843 3.843 0 01-1.422-1.859h-1.35v-.992h1.114a4.173 4.173 0 01-.037-.554c0-.185.004-.32.013-.404h-1.09z" fill="#133DBD"/>
</svg>
