<svg width="83" height="75" viewBox="0 0 83 75" fill="none" xmlns="http://www.w3.org/2000/svg">
<path d="M10.4599 7.79789C10.1076 7.82184 9.79165 7.97904 9.59521 8.22891C9.29068 8.54228 9.16699 8.84003 9.16699 9.23981C9.16699 9.64896 9.29691 9.95297 9.59936 10.2538C9.90286 10.5578 10.2063 10.6869 10.6117 10.6869C11.0191 10.6869 11.3205 10.5578 11.623 10.2538C11.9202 9.95921 12.0554 9.52194 12.0554 9.23981C12.0554 8.8317 11.9254 8.52874 11.623 8.22578C11.3278 7.92907 10.8861 7.75937 10.4599 7.79789Z" fill="#133DBD"/>
<path d="M15.8168 7.90096C15.6453 7.9728 15.4821 8.08107 15.3376 8.22578C15.0352 8.52978 14.9053 8.83378 14.9053 9.23981C14.9053 9.64896 15.0352 9.95089 15.3366 10.2528C15.6401 10.5578 15.9436 10.688 16.35 10.688C16.7553 10.688 17.0588 10.5589 17.3613 10.2549C17.6637 9.95401 17.7936 9.65001 17.7936 9.24086C17.7936 8.83275 17.6648 8.53082 17.3613 8.22682C16.9289 7.79268 16.3313 7.68441 15.8168 7.90096Z" fill="#133DBD"/>
<path d="M21.9365 7.79788C21.5831 7.82183 21.2682 7.97903 21.0728 8.2289C20.7672 8.54227 20.6436 8.83897 20.6436 9.2398C20.6436 9.62813 20.7652 9.93005 21.0395 10.2174C21.262 10.5724 21.7224 10.6869 22.0872 10.6869C22.4926 10.6869 22.7961 10.5578 23.0996 10.2538C23.3958 9.95816 23.5319 9.52089 23.5319 9.2398C23.5319 8.83377 23.402 8.52977 23.0996 8.22473C22.8054 7.9301 22.371 7.76144 21.9365 7.79788Z" fill="#133DBD"/>
<path d="M39.243 27.1716C39.243 26.7166 38.8741 26.345 38.4199 26.345H10.4238C9.96962 26.345 9.59961 26.7166 9.59961 27.1716V31.9242C9.59961 32.3792 9.96962 32.7488 10.4238 32.7488H38.4188C38.873 32.7488 39.242 32.3792 39.242 31.9242V27.1716H39.243ZM37.5946 31.0965H11.248V27.9982H37.5946V31.0965Z" fill="#133DBD"/>
<path d="M39.243 42.3217V37.5691C39.243 37.1141 38.8741 36.7424 38.4199 36.7424H10.4238C9.96962 36.7424 9.59961 37.1141 9.59961 37.5691V42.3217C9.59961 42.7766 9.96962 43.1462 10.4238 43.1462H38.4188C38.873 43.1462 39.243 42.7766 39.243 42.3217ZM37.5946 41.494H11.248V38.3957H37.5946V41.494Z" fill="#133DBD"/>
<path d="M19.8788 48.7921H11.248V51.8904H19.8788V48.7921Z" fill="#65D78D"/>
<path d="M10.4238 47.1399C9.96962 47.1399 9.59961 47.5116 9.59961 47.9665V52.7191C9.59961 53.1741 9.96962 53.5437 10.4238 53.5437H20.703C21.1572 53.5437 21.5262 53.1741 21.5262 52.7191V47.9665C21.5262 47.5116 21.1572 47.1399 20.703 47.1399H10.4238ZM19.8788 51.8915H11.248V48.7932H19.8788V51.8915Z" fill="#133DBD"/>
<path d="M74.3143 62.2858C73.8902 61.8028 73.7042 61.1812 73.8029 60.5805C73.9016 59.9798 74.28 59.4488 74.8381 59.1251L79.8977 56.2246L60.5293 49.3013L64.7605 69.4757L68.3037 64.8407C68.6997 64.3254 69.2755 64.0182 69.8866 63.9984L69.9448 63.9974C70.5289 63.9974 71.0985 64.266 71.508 64.7345L78.0133 72.2148C78.1349 72.3522 78.3033 72.4366 78.4893 72.447C78.5049 72.448 78.5195 72.4501 78.534 72.4501C78.7035 72.4501 78.8646 72.3876 78.9914 72.2773L80.7603 70.7458L80.7614 70.7448C80.8965 70.6261 80.9786 70.4595 80.99 70.2763C81.0025 70.0889 80.9412 69.9077 80.8185 69.7682L74.3143 62.2858Z" fill="#65D78D"/>
<path d="M82.0612 68.6792L75.5559 61.201C75.4551 61.0875 75.4104 60.9615 75.4302 60.8501C75.4489 60.7367 75.531 60.6326 75.6609 60.5586L80.9481 57.528C81.8565 57.0085 81.9012 56.3245 81.8783 56.0549C81.8554 55.7852 81.6954 55.1179 80.707 54.7628L61.1162 47.7583C60.451 47.5168 59.8201 47.6022 59.3804 47.9864C58.9377 48.3736 58.7683 48.9931 58.9148 49.6885L63.2032 70.0795C63.4204 71.106 64.0575 71.3538 64.3215 71.4131C64.5855 71.4819 65.2642 71.535 65.9055 70.6948L69.6139 65.8464C69.6971 65.7381 69.7917 65.6725 69.8894 65.6538C69.9112 65.6454 69.9372 65.6403 69.9652 65.6403C70.0453 65.6403 70.1492 65.6819 70.2698 65.8235L76.773 73.3006C77.1867 73.7723 77.7583 74.0544 78.3819 74.0929C79.0253 74.1429 79.6125 73.9274 80.074 73.5203L81.844 71.9889C82.3138 71.5787 82.5944 71.0061 82.635 70.3783C82.6755 69.7505 82.4718 69.1477 82.0612 68.6792ZM80.762 70.7437L80.761 70.7448L78.992 72.2762C78.8663 72.3866 78.7052 72.449 78.5347 72.449C78.5202 72.449 78.5046 72.448 78.49 72.4459C78.305 72.4355 78.1356 72.3512 78.014 72.2137L71.5087 64.7335C71.0992 64.265 70.5296 63.9964 69.9455 63.9964L69.8873 63.9974C69.2761 64.0172 68.7003 64.3243 68.3043 64.8396L64.7612 69.4746L60.53 49.3002L79.8983 56.2235L74.8388 59.124C74.2806 59.4478 73.9023 59.9788 73.8036 60.5795C73.7048 61.1802 73.8909 61.8017 74.3149 62.2848L80.8202 69.7661C80.9429 69.9056 81.0042 70.0857 80.9917 70.2742C80.9793 70.4584 80.8982 70.624 80.762 70.7437Z" fill="#133DBD"/>
<path d="M56.0088 65.6746L55.9932 65.6735H5.018C3.46209 65.6735 2.14731 64.3576 2.14731 62.7991V18.5701H76.6098V46.8192L76.6119 46.8827C76.6119 47.4512 77.0723 47.9114 77.6388 47.9114C78.2063 47.9114 78.6656 47.4512 78.6656 46.8827L78.6688 46.8255L78.6677 5.12741C78.7114 3.76461 78.2177 2.48406 77.2771 1.51064C76.35 0.550745 75.0601 0 73.7381 0H5.018C2.29801 0 0 2.30187 0 5.02643V62.7116C0 65.4362 2.29801 67.738 5.018 67.738H56.0004L56.0088 67.737C56.5773 67.737 57.0377 67.2758 57.0377 66.7063C57.0377 66.1368 56.5773 65.6746 56.0088 65.6746ZM2.14731 5.11388C2.14731 3.48039 3.43507 2.14987 5.018 2.14987H73.6508C75.2067 2.14987 76.5215 3.46582 76.5215 5.02539V16.3286H2.14731V5.11388Z" fill="#133DBD"/>
</svg>
