<svg width="72" height="72" viewBox="0 0 72 72" fill="none" xmlns="http://www.w3.org/2000/svg">
    <path d="M26.4189 57.804V59.929V59.983H34.5369H42.2169H52.1499H56.8159V59.929V57.804H52.1499" fill="#65D78D"/>
    <path d="M57.731 55.975H53.065V52.88C53.065 52.376 52.655 51.966 52.15 51.966H50.411L40.73 44.746C40.904 44.608 41.077 44.469 41.244 44.318C42.73 42.949 43.484 41.267 43.484 39.318C43.484 38.184 43.214 37.123 42.682 36.166C42.606 36.028 42.518 35.884 42.42 35.739C42.142 35.32 41.571 35.204 41.152 35.484C40.733 35.763 40.618 36.333 40.898 36.753C40.967 36.858 41.03 36.958 41.083 37.053C41.467 37.745 41.654 38.485 41.654 39.318C41.654 40.755 41.112 41.943 40.037 42.996C39.265 43.753 37.577 44.888 35.323 44.888C33.786 44.888 32.272 44.344 30.98 43.114C30.132 42.308 29.443 41.151 29.226 39.744C29.226 39.744 29.813 39.741 30.342 39.741C30.406 40.386 30.771 41.627 31.902 42.704C32.856 43.613 34.019 44.02 35.41 44.02C36.86 44.02 38.136 43.531 39.138 42.546C40.154 41.571 40.677 40.465 40.677 39.128C40.677 38.385 40.493 37.683 40.128 37.04C39.781 36.437 39.113 35.704 38.084 34.796C36.97 33.826 36.451 33.283 36.212 32.997C35.772 32.469 35.47 31.973 35.279 31.459C35.019 30.807 34.888 30.036 34.88 29.105H38.222C38.486 29.105 38.738 28.991 38.912 28.79L42.716 24.415C42.902 24.202 42.979 23.909 42.923 23.632L40.545 12.031V12.03L40.295 10.812C40.208 10.389 39.83 10.082 39.398 10.082H36.065V6.912C36.067 6.41 35.657 6 35.152 6C34.647 6 34.237 6.41 34.237 6.915V10.085H30.9C30.467 10.085 30.09 10.392 30.004 10.817L27.381 23.635C27.325 23.912 27.401 24.205 27.587 24.417L31.387 28.792C31.561 28.993 31.812 29.108 32.078 29.108H33.056C33.065 30.272 33.235 31.263 33.577 32.124C33.832 32.814 34.236 33.484 34.811 34.172C35.223 34.664 35.92 35.337 36.882 36.175C38.013 37.173 38.409 37.716 38.543 37.949C38.75 38.315 38.85 38.701 38.85 39.13C38.85 39.961 38.532 40.671 37.873 41.303C37.21 41.954 36.418 42.271 35.452 42.271C34.528 42.271 33.779 41.988 33.16 41.407C32.263 40.564 32.158 40.019 32.158 39.494C32.158 38.252 32.144 38.039 30.46 38.039C30.344 38.039 28.858 37.997 28.073 38.057C27.83 38.086 27.614 38.208 27.463 38.401C27.312 38.592 27.245 38.833 27.275 39.075C27.554 41.39 28.416 43.199 29.833 44.451C30.276 44.843 30.732 45.182 31.198 45.472L21.848 51.969H19.915C19.41 51.969 19 52.379 19 52.883V56.892C19 57.397 19.41 57.807 19.915 57.807H24.59V59.986H19.915C19.41 59.986 19 60.396 19 60.901V64.91C19 65.414 19.41 65.824 19.915 65.824H34.58C34.58 65.824 35.409 65.766 35.409 64.877C35.409 64.066 34.58 63.995 34.58 63.995H20.83V61.816H25.505H34.538H42.218H51.237V63.995H42.41C42.41 63.995 41.593 64.109 41.593 64.943C41.593 65.787 42.435 65.92 42.435 65.92C42.435 65.92 51.875 65.92 52.181 65.92C52.645 65.92 53.059 65.523 53.059 65.009C53.059 64.728 53.068 63.995 53.068 63.995V61.816H57.734C58.239 61.816 58.649 61.406 58.649 60.901V56.892C58.646 56.385 58.235 55.975 57.731 55.975ZM32.494 27.278L29.263 23.559L31.646 11.914H38.215L32.19 15.399C31.979 15.521 31.828 15.719 31.765 15.955C31.702 16.191 31.734 16.438 31.857 16.648C32.02 16.931 32.324 17.105 32.649 17.105C32.808 17.105 32.967 17.063 33.106 16.982L38.995 13.576L39.548 16.246L36.425 18.046C36.213 18.168 36.062 18.365 35.998 18.601C35.934 18.837 35.967 19.084 36.089 19.294C36.251 19.578 36.555 19.752 36.883 19.752C37.043 19.752 37.201 19.71 37.339 19.63L39.936 18.134L41.042 23.558L37.808 27.277H32.494V27.278ZM56.816 57.804V59.929V59.983H52.15H42.216H34.536H26.418V59.929V57.804H56.816ZM33.125 46.359C33.842 46.579 34.58 46.692 35.335 46.692C36.622 46.692 37.897 46.379 39.078 45.796L47.351 51.967H25.052L33.125 46.359ZM20.829 55.975V53.795H51.235V55.975H35.64H27.96H25.504H20.829Z" fill="#133DBD"/>
</svg>
