<svg width="72" height="72" viewBox="0 0 72 72" fill="none" xmlns="http://www.w3.org/2000/svg">
    <path d="M38.7901 33.338H12.6101V44.436H60.4351V33.338" fill="#65D78D"/>
    <path d="M61.239 10H11.805C11.36 10 11 10.36 11 10.805V32.533V45.24V60.238C11 60.682 11.36 61.043 11.805 61.043H61.239C61.684 61.043 62.044 60.683 62.044 60.238V45.24V32.533V10.805C62.044 10.36 61.684 10 61.239 10ZM60.435 59.434H12.61V46.045H60.435V59.434ZM60.435 33.338V44.436H12.61V33.338H60.435ZM19.732 21.99L33.215 21.977V31.728H19.744L19.732 21.99ZM39.182 22.111L52.665 22.098V31.728H39.194L39.182 22.111ZM60.435 31.728H54.275V22.098C54.275 21.217 53.559 20.502 52.679 20.502H39.183C38.303 20.502 37.587 21.218 37.587 22.098V31.728H34.825V21.977C34.825 21.096 34.109 20.381 33.229 20.381H19.733C18.852 20.381 18.137 21.097 18.137 21.977V31.728H12.611V11.61H60.436V31.728H60.435Z" fill="#133DBD"/>
</svg>
