<svg width="72" height="72" viewBox="0 0 72 72" fill="none" xmlns="http://www.w3.org/2000/svg">
    <path d="M53.5001 56.65V14.67C53.5001 13.84 52.8301 13.17 52.0001 13.17C51.1701 13.17 50.5001 13.84 50.5001 14.67V55.16H18.8101C17.9801 55.16 17.3101 55.83 17.3101 56.66C17.3101 57.49 17.9801 58.16 18.8101 58.16H52.0001C52.8201 58.15 53.5001 57.48 53.5001 56.65Z" fill="#65D78D"/>
    <path d="M55.2501 16.4501C54.4201 16.4501 53.7501 17.1201 53.7501 17.9501V58.4401H22.0601C21.2301 58.4401 20.5601 59.1101 20.5601 59.9401C20.5601 60.7701 21.2301 61.4401 22.0601 61.4401H55.2501C56.0801 61.4401 56.7501 60.7701 56.7501 59.9401V17.9501C56.7501 17.1201 56.0801 16.4501 55.2501 16.4501Z" fill="#65D78D"/>
    <path d="M49.98 10.75H15.75V54.71H49.98V10.75Z" fill="white"/>
    <path d="M54.0201 57.99V16C54.0201 15.59 53.6801 15.25 53.2701 15.25C52.8601 15.25 52.5201 15.59 52.5201 16V57.24H20.0801C19.6701 57.24 19.3301 57.58 19.3301 57.99C19.3301 58.4 19.6701 58.74 20.0801 58.74H53.2701C53.6801 58.74 54.0201 58.41 54.0201 57.99Z" fill="#133DBD"/>
    <path d="M56.5201 18.54C56.1101 18.54 55.7701 18.88 55.7701 19.29V60.53H23.3301C22.9201 60.53 22.5801 60.87 22.5801 61.28C22.5801 61.69 22.9201 62.03 23.3301 62.03H56.5201C56.9301 62.03 57.2701 61.69 57.2701 61.28V19.29C57.2701 18.87 56.9301 18.54 56.5201 18.54Z" fill="#133DBD"/>
    <path d="M50.73 54.71V10.75C50.73 10.34 50.4 10 49.98 10H15.75C15.34 10 15 10.34 15 10.75V54.71C15 55.12 15.34 55.46 15.75 55.46H49.98C50.4 55.46 50.73 55.12 50.73 54.71ZM49.23 53.96H16.5V11.5H49.23V53.96Z" fill="#133DBD"/>
    <path d="M20.1201 49.15H32.8701C33.2801 49.15 33.6201 48.81 33.6201 48.4C33.6201 47.99 33.2801 47.65 32.8701 47.65H20.1201C19.7101 47.65 19.3701 47.99 19.3701 48.4C19.3701 48.81 19.7001 49.15 20.1201 49.15Z" fill="#133DBD"/>
    <path d="M20.1201 23.29H45.4101C45.8201 23.29 46.1601 22.95 46.1601 22.54C46.1601 22.13 45.8201 21.79 45.4101 21.79H20.1201C19.7101 21.79 19.3701 22.13 19.3701 22.54C19.3701 22.95 19.7001 23.29 20.1201 23.29Z" fill="#133DBD"/>
    <path d="M20.1201 26.62H45.4101C45.8201 26.62 46.1601 26.28 46.1601 25.87C46.1601 25.46 45.8201 25.12 45.4101 25.12H20.1201C19.7101 25.12 19.3701 25.46 19.3701 25.87C19.3701 26.28 19.7001 26.62 20.1201 26.62Z" fill="#133DBD"/>
    <path d="M20.1201 29.96H45.4101C45.8201 29.96 46.1601 29.62 46.1601 29.21C46.1601 28.8 45.8201 28.46 45.4101 28.46H20.1201C19.7101 28.46 19.3701 28.8 19.3701 29.21C19.3701 29.62 19.7001 29.96 20.1201 29.96Z" fill="#133DBD"/>
    <path d="M20.1201 33.29H45.4101C45.8201 33.29 46.1601 32.95 46.1601 32.54C46.1601 32.13 45.8201 31.79 45.4101 31.79H20.1201C19.7101 31.79 19.3701 32.13 19.3701 32.54C19.3701 32.95 19.7001 33.29 20.1201 33.29Z" fill="#133DBD"/>
    <path d="M20.1201 36.62H45.4101C45.8201 36.62 46.1601 36.28 46.1601 35.87C46.1601 35.46 45.8201 35.12 45.4101 35.12H20.1201C19.7101 35.12 19.3701 35.46 19.3701 35.87C19.3701 36.28 19.7001 36.62 20.1201 36.62Z" fill="#133DBD"/>
    <path d="M20.1201 39.95H45.4101C45.8201 39.95 46.1601 39.61 46.1601 39.2C46.1601 38.79 45.8201 38.45 45.4101 38.45H20.1201C19.7101 38.45 19.3701 38.79 19.3701 39.2C19.3701 39.61 19.7001 39.95 20.1201 39.95Z" fill="#133DBD"/>
    <path d="M20.1201 43.29H45.4101C45.8201 43.29 46.1601 42.95 46.1601 42.54C46.1601 42.13 45.8201 41.79 45.4101 41.79H20.1201C19.7101 41.79 19.3701 42.13 19.3701 42.54C19.3701 42.95 19.7001 43.29 20.1201 43.29Z" fill="#133DBD"/>
</svg>
