<svg width="72" height="72" viewBox="0 0 72 72" fill="none" xmlns="http://www.w3.org/2000/svg">
    <path d="M59.2201 52.6799H35.3V59.2899H59.2201L62.87 55.9799L59.2201 52.6799Z" fill="#65D78D"/>
    <path d="M57.87 45.9699L54.2201 42.6599H35.3V49.2699H54.2201L57.87 45.9699Z" fill="#65D78D"/>
    <path d="M52.87 35.9499L49.2201 32.6399H35.3V39.2599H49.2201L52.87 35.9499Z" fill="#65D78D"/>
    <path d="M33.99 13.7299L54.65 31.0499C54.96 31.3199 55.44 31.2799 55.71 30.9599C55.98 30.6399 55.93 30.1699 55.62 29.8999L34.48 12.1799C34.2 11.9499 33.8 11.9499 33.52 12.1799L12.27 29.8999C12.1 30.0399 12 30.2499 12 30.4699V34.2099C12 34.6199 12.34 34.9599 12.75 34.9599H14.86V58.7699C14.86 59.1799 15.2 59.5199 15.61 59.5199H31.58C31.99 59.5199 32.33 59.1799 32.33 58.7699C32.33 58.3599 31.99 58.0199 31.58 58.0199H16.36V34.2199C16.36 33.8099 16.02 33.4699 15.61 33.4699H13.5V30.8299L33.99 13.7299Z" fill="#133DBD"/>
    <path d="M63.3801 55.4299L59.7201 52.1199C59.5801 51.9999 59.4001 51.9299 59.2201 51.9299H35.3C34.89 51.9299 34.55 52.2699 34.55 52.6799V59.2999C34.55 59.7099 34.89 60.0499 35.3 60.0499H59.21C59.4 60.0499 59.58 59.9799 59.71 59.8599L63.37 56.5499C63.53 56.4099 63.62 56.2099 63.62 55.9899C63.62 55.7699 63.5301 55.5699 63.3801 55.4299ZM58.93 58.5399H36.05V53.4199H58.93L61.76 55.9799L58.93 58.5399Z" fill="#133DBD"/>
    <path d="M54.2201 41.9099H35.3C34.89 41.9099 34.55 42.2499 34.55 42.6599V49.2799C34.55 49.6899 34.89 50.0299 35.3 50.0299H54.21C54.4 50.0299 54.58 49.9599 54.71 49.8399L58.37 46.5299C58.53 46.3899 58.62 46.1899 58.62 45.9699C58.62 45.7499 58.53 45.5599 58.37 45.4099L54.71 42.0999C54.58 41.9799 54.4001 41.9099 54.2201 41.9099ZM53.93 48.5199H36.05V43.3999H53.93L56.76 45.9599L53.93 48.5199Z" fill="#133DBD"/>
    <path d="M35.3 40.0099H49.21C49.4 40.0099 49.58 39.9399 49.71 39.8199L53.37 36.5099C53.53 36.3699 53.62 36.1699 53.62 35.9499C53.62 35.7299 53.53 35.5399 53.37 35.3899L49.71 32.0799C49.57 31.9599 49.39 31.8899 49.21 31.8899H35.3C34.89 31.8899 34.55 32.2299 34.55 32.6399V39.2599C34.55 39.6699 34.89 40.0099 35.3 40.0099ZM36.05 33.3899H48.93L51.76 35.9499L48.93 38.5099H36.05V33.3899Z" fill="#133DBD"/>
</svg>
