<svg width="72" height="72" viewBox="0 0 72 72" fill="none" xmlns="http://www.w3.org/2000/svg">
    <path d="M23.5311 15.368C23.5311 15.045 23.2681 14.781 22.9441 14.781H18.0941C17.7701 14.781 17.5071 15.045 17.5071 15.368V20.219C17.5071 20.543 17.7701 20.807 18.0941 20.807H22.9441C23.2681 20.807 23.5311 20.543 23.5311 20.219V15.368ZM22.3581 19.631H18.6811V15.955H22.3581V19.631Z" fill="#133DBD"/>
    <path d="M34.617 15.368C34.617 15.045 34.354 14.781 34.03 14.781H29.18C28.856 14.781 28.593 15.045 28.593 15.368V20.219C28.593 20.543 28.856 20.807 29.18 20.807H34.03C34.354 20.807 34.617 20.543 34.617 20.219V15.368ZM33.443 19.631H29.766V15.955H33.443V19.631Z" fill="#133DBD"/>
    <path d="M23.5311 26.4859C23.5311 26.1629 23.2681 25.8989 22.9441 25.8989H18.0941C17.7701 25.8989 17.5071 26.1629 17.5071 26.4859V31.3359C17.5071 31.6589 17.7701 31.9229 18.0941 31.9229H22.9441C23.2681 31.9229 23.5311 31.6589 23.5311 31.3359V26.4859ZM22.3581 30.7489H18.6811V27.0729H22.3581V30.7489Z" fill="#133DBD"/>
    <path d="M22.9441 37.017H18.0941C17.7701 37.017 17.5071 37.281 17.5071 37.604V42.455C17.5071 42.779 17.7701 43.042 18.0941 43.042H22.9441C23.2681 43.042 23.5311 42.779 23.5311 42.455V37.604C23.5311 37.281 23.2681 37.017 22.9441 37.017ZM22.3581 41.867H18.6811V38.191H22.3581V41.867Z" fill="#133DBD"/>
    <path d="M34.03 25.873H29.18C28.856 25.873 28.593 26.137 28.593 26.46V31.31C28.593 31.633 28.856 31.897 29.18 31.897H34.03C34.354 31.897 34.617 31.633 34.617 31.31V26.46C34.617 26.136 34.354 25.873 34.03 25.873ZM33.443 30.723H29.766V27.047H33.443V30.723Z" fill="#133DBD"/>
    <path d="M14.913 55.672C14.913 55.216 14.542 54.844 14.084 54.844H11.657V9.655H40.57V43.36C40.57 43.816 40.941 44.187 41.398 44.187C41.855 44.187 42.227 43.817 42.227 43.36V8.828C42.227 8.372 41.856 8 41.398 8H10.829C10.372 8 10 8.371 10 8.828V55.673C10 56.129 10.371 56.501 10.829 56.501H14.083C14.541 56.5 14.913 56.129 14.913 55.672Z" fill="#133DBD"/>
    <path d="M60.864 44.088V38.7579C60.421 38.7579 60.062 38.399 60.062 37.956V37.931V33.1479L42.284 52.99C42.14 53.151 41.937 53.247 41.722 53.256C41.507 53.263 41.297 53.186 41.139 53.041L33.061 45.486L15.27 63.37H60.062V44.915V44.8899C60.062 44.4469 60.421 44.088 60.864 44.088Z" fill="#65D78D"/>
    <path d="M60.0619 63.396H15.2439L15.2689 63.371L33.0599 45.486L41.1379 53.041C41.2969 53.187 41.5059 53.264 41.7209 53.256C41.9359 53.247 42.1389 53.151 42.2829 52.99L60.061 33.148V37.931V37.956C60.061 38.399 60.42 38.758 60.863 38.758C61.02 38.758 61.1579 38.701 61.2809 38.623C61.5059 38.481 61.665 38.242 61.665 37.956V31.054C61.667 30.611 61.3099 30.25 60.8669 30.248C60.8379 30.248 60.8089 30.249 60.7799 30.252L53.3049 31.026C52.8959 31.068 52.5859 31.412 52.5859 31.823C52.5859 31.851 52.5869 31.879 52.5899 31.906C52.6319 32.344 53.0209 32.665 53.4589 32.622C53.4629 32.622 53.466 32.621 53.47 32.621L58.8799 32.061L41.6349 51.308L33.587 43.782C33.271 43.486 32.7759 43.495 32.4709 43.802L12.7469 63.632C12.4349 63.946 12.4359 64.454 12.7499 64.766C12.8999 64.916 13.1039 64.999 13.3149 64.999H60.8639C61.3069 64.999 61.6659 64.64 61.6659 64.197V44.915C61.6659 44.629 61.5079 44.39 61.2819 44.248C61.1579 44.17 61.0199 44.113 60.8639 44.113C60.4209 44.113 60.0619 44.472 60.0619 44.915V63.37V63.396Z" fill="#133DBD"/>
</svg>
