<svg width="72" height="72" viewBox="0 0 72 72" fill="none" xmlns="http://www.w3.org/2000/svg">
    <path d="M58.139 6H18.759C18.293 6 17.9141 6.379 17.9141 6.845V30.148C17.9141 30.614 18.293 30.993 18.759 30.993C19.225 30.993 19.604 30.614 19.604 30.148V29.877H17.918V29.169H19.604V27.784H17.918V26.4H19.604V25.015H17.918V23.631H19.604V22.247H17.918V20.862H19.604V19.479H17.918V18.095H19.604V16.71H17.918V15.326H19.604V13.942H17.918V12.558H19.604V11.173H17.918V9.791H19.604V8.407H17.918V7.699H19.604V7.687H57.287V7.699H58.974V8.407H57.287V9.82H58.974V11.233H57.287V12.645H58.974V14.058H57.287V15.47H58.974V16.883H57.287V18.295H58.974V19.708H57.287V21.12H58.974V22.533H57.287V23.945H58.974V25.358H57.287V26.77H58.974V28.183H57.287V29.595H58.974V31.008H57.287V32.42H58.974V33.833H57.287V35.245H58.974V36.658H57.287V38.07H58.974V39.483H57.287V40.895H58.974V42.308H57.287V43.72H58.974V45.133H57.287V46.545H58.974V47.958H57.287V49.37H58.974V50.783H57.287V52.195H58.974V53.608H57.287V55.02H58.974V56.433H57.287V57.845H58.974V59.258H57.287V60.67H58.974V62.083H57.287V63.495H58.974V64.204H57.2729V64.201H25.009V56.54H25.843C25.912 56.54 25.978 56.531 26.049 56.513C28.059 56.023 29.677 55.036 30.86 53.581C32.577 51.463 32.98 48.95 32.093 45.899C31.095 42.458 29.018 39.33 25.556 36.054L24.704 35.302C24.376 35.017 23.89 35.023 23.575 35.316C19.911 38.719 17.634 41.944 16.407 45.465C15.746 47.357 15.61 49.011 15.994 50.52C16.776 53.615 18.99 55.637 22.572 56.533L23.314 56.518V64.201H14.845C14.379 64.201 14 64.581 14 65.047C14 65.513 14.379 65.892 14.845 65.892H58.1169C58.5829 65.892 58.962 65.513 58.962 65.047L58.983 63.713V6.845C58.982 6.379 58.603 6 58.139 6ZM24.166 46.66C23.7 46.66 23.321 47.039 23.321 47.505V55.027L22.4401 54.778C19.7721 54.027 18.244 52.545 17.629 50.113C17.327 48.91 17.446 47.612 18.004 46.027C19.025 43.091 20.832 40.399 23.692 37.554L24.172 37.077L24.66 37.545C27.738 40.518 29.5839 43.322 30.4709 46.372C31.2049 48.926 30.92 50.822 29.546 52.519C28.644 53.631 27.446 54.379 25.885 54.806L25.009 55.043V47.503C25.011 47.039 24.632 46.66 24.166 46.66Z" fill="#133DBD"/>
    <path d="M17.918 8.40697H19.603H19.619V7.69897H19.603H17.918V8.40697Z" fill="#65D78D"/>
    <path d="M17.918 16.711H19.603H19.619V15.327H19.603H17.918V16.711Z" fill="#65D78D"/>
    <path d="M17.918 19.4789H19.603H19.619V18.0959H19.603H17.918V19.4789Z" fill="#65D78D"/>
    <path d="M17.918 11.175H19.603H19.619V9.79102H19.603H17.918V11.175Z" fill="#65D78D"/>
    <path d="M17.918 13.9431H19.603H19.619V12.5601H19.603H17.918V13.9431Z" fill="#65D78D"/>
    <path d="M17.918 22.248H19.603H19.619V20.863H19.603H17.918V22.248Z" fill="#65D78D"/>
    <path d="M17.918 25.016H19.603H19.619V23.632H19.603H17.918V25.016Z" fill="#65D78D"/>
    <path d="M17.918 27.784H19.603H19.619V26.4H19.603H17.918V27.784Z" fill="#65D78D"/>
    <path d="M17.918 29.8769H19.603H19.619V29.1689H19.603H17.918V29.8769Z" fill="#65D78D"/>
    <path d="M58.973 7.69897H57.286H57.271V8.40697H57.286H58.973V7.69897Z" fill="#65D78D"/>
    <path d="M58.973 43.723H57.286H57.271V45.136H57.286H58.973V43.723Z" fill="#65D78D"/>
    <path d="M58.973 40.897H57.286H57.271V42.31H57.286H58.973V40.897Z" fill="#65D78D"/>
    <path d="M58.973 32.422H57.286H57.271V33.835H57.286H58.973V32.422Z" fill="#65D78D"/>
    <path d="M58.973 35.2471H57.286H57.271V36.6601H57.286H58.973V35.2471Z" fill="#65D78D"/>
    <path d="M58.973 38.072H57.286H57.271V39.485H57.286H58.973V38.072Z" fill="#65D78D"/>
    <path d="M58.973 46.548H57.286H57.271V47.961H57.286H58.973V46.548Z" fill="#65D78D"/>
    <path d="M58.973 60.6741H57.286H57.271V62.0871H57.286H58.973V60.6741Z" fill="#65D78D"/>
    <path d="M58.973 49.373H57.286H57.271V50.786H57.286H58.973V49.373Z" fill="#65D78D"/>
    <path d="M58.973 57.849H57.286H57.271V59.262H57.286H58.973V57.849Z" fill="#65D78D"/>
    <path d="M58.973 55.0229H57.286H57.271V56.4359H57.286H58.973V55.0229Z" fill="#65D78D"/>
    <path d="M58.973 52.198H57.286H57.271V53.611H57.286H58.973V52.198Z" fill="#65D78D"/>
    <path d="M58.973 15.4709H57.286H57.271V16.8839H57.286H58.973V15.4709Z" fill="#65D78D"/>
    <path d="M58.973 18.296H57.286H57.271V19.709H57.286H58.973V18.296Z" fill="#65D78D"/>
    <path d="M58.973 12.645H57.286H57.271V14.059H57.286H58.973V12.645Z" fill="#65D78D"/>
    <path d="M58.973 9.81995H57.286H57.271V11.2329H57.286H58.973V9.81995Z" fill="#65D78D"/>
    <path d="M58.973 29.5969H57.286H57.271V31.0099H57.286H58.973V29.5969Z" fill="#65D78D"/>
    <path d="M58.973 21.121H57.286H57.271V22.534H57.286H58.973V21.121Z" fill="#65D78D"/>
    <path d="M58.973 26.771H57.286H57.271V28.185H57.286H58.973V26.771Z" fill="#65D78D"/>
    <path d="M58.973 23.946H57.286H57.271V25.359H57.286H58.973V23.946Z" fill="#65D78D"/>
    <path d="M58.973 64.208V63.499H57.286H57.271V64.205V64.208H58.973Z" fill="#65D78D"/>
</svg>
