<svg width="72" height="72" viewBox="0 0 72 72" fill="none" xmlns="http://www.w3.org/2000/svg">
    <path d="M42.505 29.4348L35.985 35.9548L35.985 3.96484L42.505 29.4348Z" fill="white"/>
    <path d="M29.46 29.4348L35.985 35.9548L3.98999 35.9548L29.46 29.4348Z" fill="white"/>
    <path d="M42.5051 42.48L35.985 35.9548L67.9751 35.955L42.5051 42.48Z" fill="white"/>
    <path d="M29.46 29.4347L35.985 35.9547L35.985 3.96472L29.46 29.4347Z" fill="#E4EAF5"/>
    <path d="M42.5051 29.4347L35.985 35.9547H67.9751L42.5051 29.4347Z" fill="#E4EAF5"/>
    <path d="M29.46 42.4799L35.985 35.9547L3.98999 35.9549L29.46 42.4799Z" fill="#E4EAF5"/>
    <path d="M29.4601 42.4798L35.9851 35.9548L35.9851 67.9448L29.4601 42.4798Z" fill="#65D78D"/>
    <path d="M4.00999 36.5L67.99 36.5C68.265 36.5 68.49 36.275 68.49 36C68.49 35.725 68.265 35.5 67.99 35.5L36.5 35.5L36.5 4.01C36.5 3.735 36.275 3.51 36 3.51C35.725 3.51 35.5 3.735 35.5 4.01L35.5 35.5L4.00999 35.5C3.73499 35.5 3.50999 35.725 3.50999 36C3.50999 36.275 3.73 36.5 4.00999 36.5Z" fill="#A8BEEA"/>
    <path d="M42.505 42.4799L35.985 35.9549L35.985 67.9449L42.505 42.4799Z" fill="#133DBD"/>
    <path d="M3.825 36.725L28.86 43.14L35.275 68.175C35.36 68.51 35.655 68.74 36 68.74C36.345 68.74 36.64 68.51 36.725 68.175L43.14 43.14L68.175 36.725C68.51 36.64 68.74 36.345 68.74 36C68.74 35.655 68.51 35.36 68.175 35.275L43.135 28.865L36.725 3.825C36.64 3.495 36.34 3.26001 36 3.26001C35.66 3.26001 35.36 3.49001 35.275 3.825L28.865 28.865L3.825 35.275C3.495 35.36 3.26001 35.66 3.26001 36C3.26001 36.34 3.49001 36.64 3.825 36.725ZM30.24 42.47L35.5 37.205L35.5 63.015L30.24 42.47ZM36.5 63.015L36.5 37.205L41.76 42.47L36.5 63.015ZM64.97 36L42.47 41.76L36.705 36L42.47 30.24L64.97 36ZM36 7.03L41.76 29.53L36 35.295L30.24 29.535L36 7.03ZM29.53 30.24L35.295 36L29.535 41.76L7.035 36L29.53 30.24Z" fill="#133DBD"/>
</svg>
