<svg width="72" height="72" viewBox="0 0 72 72" fill="none" xmlns="http://www.w3.org/2000/svg">
    <path d="M40.5 13.5L19.5 31H61.5L40.5 13.5Z" fill="white"/>
    <path d="M59 35H22.5V59.5H59V35Z" fill="white"/>
    <path d="M45.2852 43.2192C45.3812 43.2192 45.4712 43.2432 45.5562 43.2742V43.2192H45.2852Z" fill="#65D78D"/>
    <path d="M44.4871 44.8171H37.0171V58.3181H44.4871V44.8171Z" fill="#65D78D"/>
    <path d="M65.7839 58.3181H59.8069V35.0921H62.0639C62.5049 35.0921 62.8629 34.7341 62.8629 34.2931V30.8991V30.8981V30.8971C62.8629 30.8961 62.8629 30.8961 62.8629 30.8951C62.8629 30.7991 62.8419 30.7061 62.8059 30.6151C62.8039 30.6061 62.8029 30.5961 62.7999 30.5871C62.7989 30.5861 62.7979 30.5841 62.7969 30.5831C62.7769 30.5381 62.7419 30.5001 62.7129 30.4581C62.7069 30.4501 62.7029 30.4411 62.6959 30.4331C62.6599 30.3621 62.6039 30.3061 62.5419 30.2601L41.3149 12.1951C41.2819 12.1731 41.2469 12.1541 41.2109 12.1371C41.1669 12.1061 41.1189 12.0801 41.0689 12.0581C41.0179 12.0401 40.9649 12.0281 40.9119 12.0201C40.8089 11.9931 40.6999 11.9931 40.5979 12.0211C40.5469 12.0281 40.4959 12.0411 40.4469 12.0581C40.3959 12.0801 40.3479 12.1071 40.3019 12.1391C40.2659 12.1561 40.2319 12.1751 40.1989 12.1961L18.9349 30.2931C18.8489 30.3651 18.7779 30.4501 18.7279 30.5511C18.7269 30.5541 18.7239 30.5561 18.7229 30.5591C18.6929 30.6231 18.6799 30.6941 18.6679 30.7651C18.6619 30.8011 18.6479 30.8341 18.6469 30.8701C18.6469 30.8801 18.6409 30.8881 18.6409 30.8981V34.2921C18.6409 34.7331 18.9989 35.0911 19.4399 35.0911H21.6969V58.3171H13.1679V53.2411C16.6569 52.8001 19.1289 49.6141 18.6879 46.1241C18.2469 42.6341 15.0609 40.1631 11.5709 40.6041C8.08192 41.0451 5.60993 44.2311 6.05093 47.7211C6.41593 50.6051 8.68692 52.8761 11.5709 53.2411V58.3171H6.79993C6.35893 58.3171 6.00092 58.6751 6.00092 59.1161C6.00092 59.5571 6.35893 59.9151 6.79993 59.9151H65.7859C66.2269 59.9151 66.5849 59.5571 66.5849 59.1161C66.5829 58.6761 66.2249 58.3181 65.7839 58.3181ZM12.3759 46.0851C11.9429 46.0851 11.5879 46.4391 11.5879 46.8731V51.5921H11.5699V51.6281C9.27792 51.2381 7.60092 49.2531 7.59692 46.9291C7.59392 44.2941 9.72792 42.1551 12.3629 42.1531C14.9979 42.1501 17.1369 44.2841 17.1399 46.9191C17.1419 49.2481 15.4629 51.2381 13.1669 51.6281V51.5921H13.1629V46.8731C13.1639 46.4401 12.8089 46.0851 12.3759 46.0851ZM40.7579 13.8621L59.8379 30.1001H24.6549H22.2569H21.6789L40.7579 13.8621ZM20.2379 33.4941V31.7541L61.2669 31.6981V33.4941H20.2379ZM37.0169 58.3181V44.8171H44.4869V58.3181H37.0169ZM58.2099 58.3181H46.0829V44.0181C46.0829 43.6731 45.8619 43.3861 45.5559 43.2741C45.4709 43.2431 45.3809 43.2191 45.2849 43.2191H36.2179C35.7769 43.2191 35.4189 43.5771 35.4189 44.0181V58.3181H23.2919V35.0921H58.2089V58.3181H58.2099Z" fill="#133DBD"/>
</svg>
