<svg width="72" height="72" viewBox="0 0 72 72" fill="none" xmlns="http://www.w3.org/2000/svg">
    <path d="M58.6302 43.9307H34.7622V47.0587H58.6302V43.9307Z" fill="#65D78D"/>
    <path d="M58.6302 48.7257H34.7622V51.8537H58.6302V48.7257Z" fill="#65D78D"/>
    <path d="M68.8064 60.1567H60.2984V53.5207H62.0893C62.5493 53.5207 62.9234 53.1477 62.9234 52.6877C62.9234 52.2277 62.5503 51.8547 62.0893 51.8547H60.2984V48.7267H62.0893C62.5493 48.7267 62.9234 48.3537 62.9234 47.8937C62.9234 47.4337 62.5503 47.0607 62.0893 47.0607H60.2984V43.9327H62.0893C62.5493 43.9327 62.9234 43.5597 62.9234 43.0997C62.9234 42.6397 62.5503 42.2667 62.0893 42.2667H60.2984V40.7957C60.2984 40.3357 59.9253 39.9627 59.4643 39.9627C59.0033 39.9627 58.6303 40.3357 58.6303 40.7957V42.2667H34.7624V40.7957C34.7624 40.3357 34.3894 39.9627 33.9284 39.9627C33.4674 39.9627 33.0943 40.3357 33.0943 40.7957V42.2667H31.5183C31.0573 42.2667 30.6843 42.6397 30.6843 43.0997C30.6843 43.5597 31.0573 43.9327 31.5183 43.9327H33.0943V47.0607H31.5183C31.0573 47.0607 30.6843 47.4337 30.6843 47.8937C30.6843 48.3537 31.0573 48.7267 31.5183 48.7267H33.0943V51.8547H31.5183C31.0573 51.8547 30.6843 52.2277 30.6843 52.6877C30.6843 53.1477 31.0573 53.5207 31.5183 53.5207H33.0943V60.1567H16.8513V51.2147C16.8513 51.2147 17.9134 51.2007 18.7174 51.0337C21.6174 50.3247 23.9443 48.9087 25.6413 46.8217C28.0963 43.7917 28.6703 40.1867 27.3943 35.7987L27.3933 35.7977C25.9353 30.7627 22.8864 26.1757 17.7984 21.3627L16.5434 20.2527C16.2274 19.9777 15.7503 19.9807 15.4433 20.2667C10.0533 25.2747 6.70531 30.0117 4.90731 35.1757C3.95031 37.9057 3.75333 40.2807 4.30233 42.4387C5.41833 46.8577 8.52931 49.7787 13.7093 51.0487C14.2793 51.1737 15.1914 51.2017 15.1914 51.2017V60.1577H9.97933C9.51933 60.1577 9.14535 60.5307 9.14535 60.9907C9.14535 61.4507 9.51833 61.8237 9.97933 61.8237H68.8053C69.2653 61.8237 69.6394 61.4507 69.6394 60.9907C69.6394 60.5307 69.2664 60.1567 68.8064 60.1567ZM16.0304 37.2307C15.5744 37.2307 15.2033 37.6007 15.2033 38.0557V49.7987L13.3504 49.2757C9.28136 48.1307 6.84534 45.7627 5.90334 42.0357C5.43334 40.1617 5.61431 38.1557 6.47231 35.7187C8.01231 31.2957 10.7294 27.2427 15.0254 22.9697L16.0343 21.9647L17.0633 22.9507C21.6933 27.4207 24.4733 31.6467 25.8123 36.2547C26.9303 40.1467 26.4684 43.1717 24.3584 45.7797L24.3573 45.7807C22.9593 47.5037 21.1084 48.6607 18.6994 49.3207L16.8563 49.8217V38.0557C16.8573 37.6007 16.4854 37.2307 16.0304 37.2307ZM58.6303 60.1567H34.7624V53.5207H58.6303V60.1567ZM58.6303 51.8527H34.7624V48.7247H58.6303V51.8527ZM58.6303 47.0587H34.7624V43.9307H58.6303V47.0587Z" fill="#133DBD"/>
    <path d="M57.9761 11.6677C57.9771 11.6677 57.9791 11.6677 57.9801 11.6677C57.9921 11.7047 60.0641 11.6677 61.3971 13.0027C62.1751 13.7817 62.5641 14.8917 62.5541 16.3017C62.5511 16.7617 62.9221 17.1377 63.3821 17.1407C63.3841 17.1407 63.3861 17.1407 63.3881 17.1407C63.3911 17.1407 63.3931 17.1387 63.3951 17.1387C63.3981 17.1387 63.4001 17.1407 63.4021 17.1407C63.4041 17.1407 63.4061 17.1407 63.4081 17.1407C63.8691 17.1377 64.2391 16.7627 64.2361 16.3017C64.2261 14.8907 64.6161 13.7807 65.3931 13.0027C66.7271 11.6667 68.8311 11.6807 68.8111 11.6677C68.8141 11.6677 68.8161 11.6677 68.8181 11.6677C69.2741 11.6677 69.6471 11.3007 69.6521 10.8437C69.6571 10.3837 69.2881 10.0057 68.8281 10.0007C68.7151 9.99467 66.0561 9.99067 64.2271 11.8117C63.9001 12.1377 63.6271 12.5027 63.3961 12.8977C63.1651 12.5027 62.8921 12.1377 62.5651 11.8117C60.7341 9.98967 58.0781 10.0147 57.9641 10.0007C57.5051 10.0057 57.1381 10.3817 57.1421 10.8417C57.1451 11.2987 57.5191 11.6677 57.9761 11.6677Z" fill="#133DBD"/>
    <path d="M48.2822 18.9828C48.2832 18.9828 48.2833 18.9828 48.2843 18.9828C48.3033 18.9828 49.7283 18.9928 50.6293 19.8968C51.1533 20.4238 51.4153 21.1808 51.4093 22.1508C51.4063 22.6108 51.7773 22.9868 52.2373 22.9898C52.2393 22.9898 52.2413 22.9898 52.2433 22.9898C52.2453 22.9898 52.2462 22.9888 52.2482 22.9888C52.2502 22.9888 52.2513 22.9898 52.2533 22.9898C52.2553 22.9898 52.2573 22.9898 52.2593 22.9898C52.7193 22.9868 53.0903 22.6118 53.0873 22.1508C53.0803 21.1818 53.3423 20.4238 53.8673 19.8968C54.7603 19.0008 56.1673 18.9838 56.2113 18.9828C56.2133 18.9828 56.2153 18.9828 56.2183 18.9828C56.6743 18.9828 57.0463 18.6158 57.0523 18.1588C57.0573 17.6988 56.6883 17.3208 56.2283 17.3158C56.1373 17.2968 54.1063 17.3058 52.7003 18.7058C52.5283 18.8768 52.3873 19.0688 52.2493 19.2648C52.1123 19.0698 51.9703 18.8768 51.7983 18.7058C50.3913 17.3058 48.3513 17.2998 48.2703 17.3158C47.8113 17.3208 47.4453 17.6958 47.4483 18.1548C47.4513 18.6138 47.8252 18.9828 48.2822 18.9828Z" fill="#133DBD"/>
</svg>
