<svg width="72" height="72" viewBox="0 0 72 72" fill="none" xmlns="http://www.w3.org/2000/svg">
    <path d="M29.4348 29.495L35.9548 36.015L3.96484 36.015L29.4348 29.495Z" fill="white"/>
    <path d="M29.4348 42.54L35.9548 36.015V68.01L29.4348 42.54Z" fill="white"/>
    <path d="M42.48 29.495L35.9548 36.015L35.955 4.02502L42.48 29.495Z" fill="white"/>
    <path d="M29.4348 42.5401L35.9548 36.0151L3.96484 36.0151L29.4348 42.5401Z" fill="#E4EAF5"/>
    <path d="M29.4348 29.495L35.9548 36.0151V4.02502L29.4348 29.495Z" fill="#E4EAF5"/>
    <path d="M42.4801 42.5401L35.9548 36.0151L35.9551 68.0101L42.4801 42.5401Z" fill="#E4EAF5"/>
    <path d="M42.4798 42.54L35.9548 36.015L67.9448 36.015L42.4798 42.54Z" fill="#65D78D"/>
    <path d="M36.5 67.99L36.5 4.01001C36.5 3.73501 36.275 3.51001 36 3.51001C35.725 3.51001 35.5 3.73501 35.5 4.01001L35.5 35.5L4.01 35.5C3.735 35.5 3.51 35.725 3.51 36C3.51 36.275 3.735 36.5 4.01 36.5L35.5 36.5L35.5 67.99C35.5 68.265 35.725 68.49 36 68.49C36.275 68.49 36.5 68.27 36.5 67.99Z" fill="#A8BEEA"/>
    <path d="M42.48 29.495L35.955 36.015H67.945L42.48 29.495Z" fill="#133DBD"/>
    <path d="M36.725 68.175L43.14 43.14L68.175 36.725C68.51 36.64 68.74 36.345 68.74 36C68.74 35.655 68.51 35.36 68.175 35.275L43.14 28.86L36.725 3.82501C36.64 3.49001 36.345 3.26001 36 3.26001C35.655 3.26001 35.36 3.49001 35.275 3.82501L28.865 28.865L3.825 35.275C3.495 35.36 3.26001 35.66 3.26001 36C3.26001 36.34 3.49001 36.64 3.825 36.725L28.865 43.135L35.275 68.175C35.36 68.505 35.66 68.74 36 68.74C36.34 68.74 36.64 68.51 36.725 68.175ZM42.47 41.76L37.205 36.5H63.015L42.47 41.76ZM63.015 35.5H37.205L42.47 30.24L63.015 35.5ZM36 7.03001L41.76 29.53L36 35.295L30.24 29.53L36 7.03001ZM7.03 36L29.53 30.24L35.295 36L29.535 41.76L7.03 36ZM30.24 42.47L36 36.705L41.76 42.465L36 64.965L30.24 42.47Z" fill="#133DBD"/>
</svg>
