<svg width="72" height="72" viewBox="0 0 72 72" fill="none" xmlns="http://www.w3.org/2000/svg">
    <path d="M58.1078 48.4485C57.4699 48.4485 56.9521 48.9755 56.9521 49.6263C56.9521 50.2764 57.4692 50.8041 58.1078 50.8041C58.7457 50.8041 59.2635 50.2772 59.2635 49.6263C59.2635 48.9755 58.7464 48.4485 58.1078 48.4485Z" fill="#133DBD"/>
    <path d="M61.522 43.8645C61.3864 43.6991 61.1694 43.5996 60.9424 43.5996H52.6744C52.2465 43.5996 51.91 43.9469 51.91 44.3908V47.1904H50.0806L44.7393 42.3667C44.6086 42.2328 44.3908 42.139 44.2285 42.139H29.9362C29.5098 42.139 29.2168 42.4304 29.1705 42.8994L29.1115 43.508C29.0602 44.5311 29.4086 45.7305 30.0697 46.783L30.3641 47.2513H29.0644L25.374 41.4523C24.2865 39.3816 21.9983 37.4706 19.4973 38.1121L19.1257 38.2081V24.1321L19.2704 23.9825L32.2974 16.0376L45.4713 24.0097V39.2169C45.4713 39.6609 45.8078 40.0081 46.2357 40.0081C46.6642 40.0081 47.0007 39.6609 47.0007 39.2169V24.9319L49.3984 26.3546C49.9274 26.6582 50.4066 26.8007 50.9019 26.8007C51.9817 26.8007 52.9448 26.2429 53.4788 25.3078C53.8932 24.6133 54.0113 23.7605 53.8068 22.9636C53.6003 22.1602 53.1036 21.4986 52.4095 21.1012L33.8001 9.77617C32.8819 9.21983 31.708 9.22126 30.7329 9.78046L23.9696 13.9498V10.306C23.9696 9.86209 23.6331 9.51482 23.2046 9.51482H18.3613C17.9335 9.51482 17.597 9.86209 17.597 10.306V17.8413L13.0242 20.6688C11.6276 21.5552 11.1428 23.4469 11.9472 24.8839C12.373 25.597 13.008 26.0975 13.7787 26.3252C14.5339 26.5479 15.3306 26.4298 16.0184 25.9937L17.5373 25.0364V38.7945L17.4698 40.5344L16.9366 40.2852C16.1919 39.9365 15.3096 39.6995 14.4166 39.6995C13.3172 39.6995 12.203 40.059 11.3129 41.0091L10.2457 42.1089C10.1839 42.1984 10.042 42.4404 10.0897 42.6889C10.148 42.9896 10.2513 43.1722 10.4249 43.2788L23.3739 52.4803C23.4266 52.5261 23.461 52.5468 23.4772 52.5519L43.7417 60.2962C43.8232 60.337 43.8857 60.3384 43.9904 60.3384H51.9079V61.9208C51.9079 62.3647 52.2444 62.712 52.6722 62.712H58.0466C58.4744 62.712 58.811 62.3647 58.811 61.9208C58.811 61.4769 58.4744 61.1296 58.0466 61.1296H53.4366V45.2436H60.8806C61.3092 45.2436 61.6457 44.8963 61.6457 44.4524C61.6977 44.1438 61.6063 43.9676 61.522 43.8645ZM19.6912 39.7181C21.3935 39.1747 23.1203 40.5494 23.9436 42.1826L23.9598 42.2149C23.9795 42.2421 24.0019 42.2779 24.016 42.3223L26.8367 46.0555L20.3678 42.2521V42.2371L19.1707 39.8964L19.6912 39.7181ZM19.1271 11.0979H22.3819V14.8605L19.1271 16.8732V11.0979ZM15.2224 24.5588C14.9512 24.7608 14.607 24.8173 14.17 24.7264C13.79 24.6483 13.4844 24.4149 13.2638 24.0347C12.8802 23.3259 13.1226 22.4123 13.7871 22.0313L31.5563 11.1409C31.9996 10.8351 32.544 10.8351 32.9986 11.1495L51.5875 22.4008C52.2458 22.7767 52.4875 23.691 52.1102 24.3913C51.9332 24.7192 51.636 24.9584 51.2728 25.0636C51.1407 25.1023 51.0051 25.1209 50.8702 25.1209C50.6244 25.1209 50.3813 25.0586 50.167 24.9362L32.6796 14.3407C32.3958 14.1467 32.1942 14.1553 31.9356 14.3314L15.2224 24.5588ZM51.91 58.6945L44.1245 58.6759L24.1565 51.0318L12.113 42.4869L12.4797 42.1082C13.6937 40.8566 15.8645 41.249 17.3328 42.2614H17.3644L17.5085 42.3638L28.1982 48.7549C28.3106 48.8315 28.4103 48.8351 28.5782 48.8351H41.5708C41.9994 48.8351 42.3359 48.4878 42.3359 48.0439C42.3359 47.5999 41.9994 47.2527 41.5708 47.2527H33.3028C32.6747 47.1897 32.0895 46.8181 31.4839 46.1142C31.0631 45.5593 30.7863 44.9228 30.6479 44.2075L30.5769 43.8445H43.9278L49.2692 48.6682C49.3999 48.8021 49.6176 48.8959 49.7799 48.8959H51.9093V58.6945H51.91Z" fill="#133DBD"/>
    <path d="M33.0493 26.578L32.8961 26.8035L32.7458 26.5823C31.7201 25.1066 29.7263 24.7837 28.2707 25.8348C27.4283 26.4477 26.938 27.4315 26.938 28.4862C26.938 29.7249 27.4024 30.854 28.2721 31.7411L32.6144 36.1668C32.7697 36.325 33.0212 36.325 33.1764 36.1668L37.5188 31.7411C38.3892 30.854 38.8529 29.7249 38.8529 28.4862C38.8529 26.6976 37.4043 25.2205 35.6487 25.2205C34.6152 25.2212 33.65 25.7217 33.0493 26.578Z" fill="#65D78D"/>
</svg>
