<svg width="72" height="72" viewBox="0 0 72 72" fill="none" xmlns="http://www.w3.org/2000/svg">
    <path d="M58.139 6H18.759C18.293 6 17.914 6.379 17.914 6.845V30.148C17.914 30.614 18.293 30.993 18.759 30.993C19.225 30.993 19.604 30.614 19.604 30.148V7.687H57.287V64.205H25.009V56.544H25.843C25.912 56.544 25.978 56.535 26.049 56.517C28.059 56.027 29.677 55.04 30.86 53.585C32.577 51.467 32.98 48.954 32.093 45.903C31.095 42.462 29.018 39.334 25.556 36.058L24.704 35.306C24.376 35.021 23.89 35.027 23.575 35.32C19.911 38.723 17.634 41.948 16.407 45.469C15.746 47.361 15.61 49.015 15.994 50.524C16.776 53.619 18.99 55.641 22.572 56.537L23.314 56.522V64.205H14.845C14.379 64.205 14 64.585 14 65.051C14 65.517 14.379 65.896 14.845 65.896H58.117C58.583 65.896 58.962 65.517 58.962 65.051L58.983 63.717V6.846C58.983 6.379 58.604 6 58.139 6ZM24.167 46.66C23.701 46.66 23.322 47.039 23.322 47.505V55.027L22.441 54.778C19.773 54.027 18.245 52.545 17.63 50.113C17.328 48.91 17.447 47.612 18.005 46.027C19.026 43.091 20.833 40.399 23.693 37.554L24.173 37.077L24.661 37.545C27.739 40.518 29.585 43.322 30.472 46.372C31.206 48.926 30.921 50.822 29.547 52.519C28.645 53.631 27.447 54.379 25.886 54.806L25.01 55.043V47.503C25.011 47.039 24.632 46.66 24.167 46.66Z" fill="#133DBD"/>
    <path d="M46.4121 17.253L44.9611 12.75C44.4901 14.197 43.9691 15.726 43.4721 17.253C41.9121 17.25 40.2301 17.252 38.7451 17.253C40.0271 18.184 41.3501 19.115 42.5781 20.007C42.0981 21.49 41.5841 23.101 41.1261 24.51C42.3521 23.614 43.6221 22.699 44.9221 21.756C46.2951 22.753 47.5021 23.6 48.7551 24.51C48.2791 23.054 47.8001 21.538 47.3031 20.007C48.5671 19.092 49.9361 18.124 51.1361 17.253H46.4121Z" fill="#65D78D"/>
    <path d="M42.5792 33.96C42.0992 35.443 41.5852 37.054 41.1272 38.463C42.3532 37.567 43.6232 36.652 44.9232 35.709C46.2962 36.706 47.5032 37.553 48.7562 38.463C48.2802 37.007 47.8012 35.491 47.3042 33.96C48.5682 33.045 49.9372 32.077 51.1372 31.206H46.4102L44.9592 26.703C44.4882 28.15 43.9672 29.679 43.4702 31.206C41.9102 31.203 40.2282 31.205 38.7432 31.206C40.0272 32.137 41.3502 33.068 42.5792 33.96Z" fill="#65D78D"/>
    <path d="M42.5792 47.913C42.0992 49.396 41.5852 51.007 41.1272 52.416C42.3532 51.52 43.6232 50.605 44.9232 49.662C46.2962 50.659 47.5032 51.506 48.7562 52.416C48.2802 50.96 47.8012 49.444 47.3042 47.913C48.5682 46.998 49.9372 46.031 51.1372 45.159H46.4102L44.9592 40.656C44.4882 42.103 43.9672 43.632 43.4702 45.159C41.9102 45.156 40.2282 45.158 38.7432 45.159C40.0272 46.09 41.3502 47.021 42.5792 47.913Z" fill="#65D78D"/>
</svg>
