<svg width="83" height="75" viewBox="0 0 83 75" fill="none" xmlns="http://www.w3.org/2000/svg">
<path d="M81.8621 45.5555V38.1528C81.2468 38.1528 80.7482 37.6541 80.7482 37.0389V37.0041V30.3611L56.0565 57.9194C55.8565 58.143 55.576 58.2764 55.276 58.2889C54.9773 58.2986 54.6857 58.1916 54.4663 57.9903L43.2469 47.4972L18.5371 72.3361H80.7482V46.7041V46.6694C80.7482 46.0541 81.2468 45.5555 81.8621 45.5555Z" fill="#65D78D"/>
<path d="M27.0892 22.4597C26.5059 22.4597 26.0322 22.9347 26.0322 23.5181V32.3417C26.0322 32.925 26.5059 33.4 27.0892 33.4H35.9142C36.4975 33.4 36.9725 32.925 36.9725 32.3417V23.5181C36.9725 22.9347 36.4975 22.4597 35.9142 22.4597H27.0892ZM34.8559 31.2847H28.1462V24.575H34.8559V31.2847Z" fill="#133DBD"/>
<path d="M16.3742 61.6111C16.3742 61.0028 15.8798 60.5069 15.2701 60.5069H10.7839V29.8167C10.7839 29.2083 10.2895 28.7125 9.67978 28.7125H4.21035L31.2659 3.10694L58.7701 27.9778H54.5423C53.934 27.9778 53.4381 28.4722 53.4381 29.0819V45.0042C53.4381 45.6125 53.9326 46.1083 54.5423 46.1083C55.152 46.1083 55.6465 45.6139 55.6465 45.0042V30.1861H61.6367C62.2451 30.1861 62.7409 29.6917 62.7409 29.0819C62.7409 28.7694 62.6076 28.4722 62.377 28.2625L31.9881 0.783326C31.7798 0.594437 31.5131 0.5 31.2478 0.5C30.9742 0.5 30.6993 0.599994 30.4895 0.799994L0.67981 29.0167C0.347866 29.3292 0.243676 29.8042 0.41312 30.2264C0.579787 30.65 0.982531 30.9222 1.43809 30.9222H8.5742V61.6125C8.5742 62.2208 9.07006 62.7181 9.67978 62.7181H15.2701C15.8798 62.7167 16.3742 62.2208 16.3742 61.6111Z" fill="#133DBD"/>
<path d="M80.7482 72.3721H18.5024L18.5371 72.3374L43.2469 47.4971L54.4663 57.9902C54.6872 58.193 54.9774 58.2999 55.276 58.2888C55.5746 58.2763 55.8565 58.143 56.0565 57.9194L80.7482 30.361V37.0041V37.0388C80.7482 37.6541 81.2468 38.1527 81.8621 38.1527C82.0802 38.1527 82.2718 38.0735 82.4426 37.9652C82.7551 37.768 82.976 37.436 82.976 37.0388V27.4527C82.9788 26.8374 82.483 26.336 81.8677 26.3333C81.8274 26.3333 81.7871 26.3346 81.7468 26.3388L71.3649 27.4138C70.7969 27.4721 70.3663 27.9499 70.3663 28.5208C70.3663 28.5596 70.3677 28.5985 70.3718 28.636C70.4302 29.2444 70.9719 29.6902 71.5788 29.6305C71.5844 29.6305 71.5885 29.6291 71.5941 29.6291L79.1079 28.8513L55.1565 55.5833L43.9788 45.1305C43.5399 44.7194 42.8524 44.7319 42.4274 45.1582L15.033 72.6999C14.5996 73.136 14.601 73.8416 15.0371 74.2749C15.2454 74.4832 15.5288 74.5985 15.8218 74.5985H81.8621C82.4774 74.5985 82.976 74.0999 82.976 73.4846V46.7041C82.976 46.3069 82.7565 45.9749 82.4426 45.7777C82.2704 45.6694 82.0788 45.5902 81.8621 45.5902C81.2468 45.5902 80.7482 46.0888 80.7482 46.7041V72.336V72.3721Z" fill="#133DBD"/>
</svg>
