<svg width="72" height="72" viewBox="0 0 72 72" xmlns="http://www.w3.org/2000/svg">
    <path d="M58.4187 48.0979C57.7756 48.0979 57.2537 48.6115 57.2537 49.2459C57.2537 49.8795 57.7749 50.3939 58.4187 50.3939C59.0618 50.3939 59.5838 49.8802 59.5838 49.2459C59.5838 48.6115 59.0625 48.0979 58.4187 48.0979Z" fill="#133DBD"/>
    <path d="M61.86 43.6302C61.7233 43.469 61.5045 43.372 61.2757 43.372H52.9405C52.5091 43.372 52.1699 43.7104 52.1699 44.1431V46.8717H50.3256L44.9409 42.1702C44.8091 42.0397 44.5896 41.9483 44.426 41.9483H30.0175C29.5876 41.9483 29.2923 42.2324 29.2455 42.6895L29.1861 43.2826C29.1344 44.2799 29.4856 45.4488 30.1521 46.4747L30.4488 46.9311H29.1386L25.4182 41.2791C24.3219 39.2608 22.0151 37.3983 19.4938 38.0235L19.1191 38.1171V24.3978L19.265 24.2519L32.3979 16.5084L45.6788 24.2784V39.1003C45.6788 39.533 46.0181 39.8715 46.4494 39.8715C46.8814 39.8715 47.2207 39.533 47.2207 39.1003V25.1773L49.6379 26.5639C50.1712 26.8598 50.6542 26.9987 51.1536 26.9987C52.2421 26.9987 53.2131 26.4551 53.7514 25.5437C54.1692 24.8667 54.2882 24.0356 54.0821 23.2589C53.8739 22.4759 53.3732 21.831 52.6734 21.4437L33.9128 10.4056C32.9872 9.8634 31.8037 9.86479 30.8207 10.4098L24.0024 14.4735V10.9221C24.0024 10.4894 23.6632 10.1509 23.2312 10.1509H18.3486C17.9172 10.1509 17.578 10.4894 17.578 10.9221V18.2664L12.9681 21.0222C11.5601 21.8862 11.0714 23.7299 11.8823 25.1305C12.3115 25.8256 12.9518 26.3134 13.7287 26.5353C14.4901 26.7524 15.2932 26.6372 15.9866 26.2122L17.5178 25.2792V38.6886L17.4498 40.3844L16.9122 40.1416C16.1615 39.8017 15.272 39.5707 14.3718 39.5707C13.2634 39.5707 12.1401 39.921 11.2428 40.8471L10.167 41.919C10.1046 42.0062 9.96157 42.2421 10.0097 42.4843C10.0685 42.7774 10.1726 42.9553 10.3476 43.0593L23.4019 52.0276C23.455 52.0722 23.4897 52.0925 23.506 52.0973L43.9352 59.6454C44.0173 59.6852 44.0803 59.6866 44.1859 59.6866H52.1678V61.2289C52.1678 61.6615 52.507 62 52.9383 62H58.3563C58.7877 62 59.1269 61.6615 59.1269 61.2289C59.1269 60.7962 58.7877 60.4577 58.3563 60.4577H53.7089V44.9743H61.2134C61.6454 44.9743 61.9847 44.6358 61.9847 44.2031C62.0371 43.9023 61.945 43.7307 61.86 43.6302ZM19.6893 39.5888C21.4053 39.0592 23.1462 40.3991 23.9762 41.9909L23.9925 42.0223C24.0124 42.0488 24.035 42.0837 24.0492 42.127L26.8928 45.7656L20.3713 42.0586V42.0439L19.1645 39.7626L19.6893 39.5888ZM19.1205 11.6939H22.4018V15.3612L19.1205 17.3228V11.6939ZM15.1841 24.8137C14.9108 25.0105 14.5637 25.0656 14.1232 24.977C13.74 24.9009 13.432 24.6734 13.2096 24.3029C12.8229 23.612 13.0672 22.7215 13.7372 22.3502L31.6507 11.7358C32.0976 11.4378 32.6465 11.4378 33.1047 11.7441L51.8448 22.7103C52.5084 23.0767 52.7521 23.9679 52.3717 24.6504C52.1933 24.97 51.8937 25.2031 51.5275 25.3057C51.3943 25.3434 51.2577 25.3615 51.1217 25.3615C50.8738 25.3615 50.6288 25.3008 50.4127 25.1815L32.7832 14.8545C32.4971 14.6654 32.2938 14.6738 32.0332 14.8454L15.1841 24.8137ZM52.1699 58.0843L44.3212 58.0662L24.1908 50.6158L12.0495 42.2875L12.4192 41.9183C13.643 40.6984 15.8315 41.0809 17.3117 42.0677H17.3436L17.4887 42.1675L28.2653 48.3966C28.3787 48.4712 28.4792 48.4747 28.6485 48.4747H41.7467C42.1787 48.4747 42.518 48.1363 42.518 47.7036C42.518 47.2709 42.1787 46.9325 41.7467 46.9325H33.4114C32.7783 46.871 32.1883 46.5089 31.5778 45.8229C31.1535 45.282 30.8745 44.6616 30.735 43.9644L30.6635 43.6106H44.1228L49.5076 48.3121C49.6393 48.4426 49.8589 48.5341 50.0225 48.5341H52.1692V58.0843H52.1699Z" fill="#133DBD"/>
    <path d="M33.1558 26.7816L33.0015 27.0014L32.8499 26.7858C31.8159 25.3475 29.8059 25.0328 28.3384 26.0572C27.4892 26.6546 26.9949 27.6135 26.9949 28.6414C26.9949 29.8487 27.463 30.9492 28.3398 31.8139L32.7174 36.1274C32.874 36.2816 33.1275 36.2816 33.284 36.1274L37.6617 31.8139C38.5392 30.9492 39.0066 29.8487 39.0066 28.6414C39.0066 26.8981 37.5462 25.4585 35.7763 25.4585C34.7345 25.4591 33.7614 25.947 33.1558 26.7816Z" fill="#65D78D"/>
    <path d="M41.2001 30.8C41.2001 35.9056 37.0612 40.0444 31.9556 40.0444C26.8501 40.0444 22.7112 35.9056 22.7112 30.8C22.7112 25.6944 26.8501 21.5555 31.9556 21.5555C37.0612 21.5555 41.2001 25.6944 41.2001 30.8Z" fill="#65D78D"/>
    <path fill-rule="evenodd" clip-rule="evenodd" d="M31.9556 38.5444C36.2328 38.5444 39.7001 35.0771 39.7001 30.8C39.7001 26.5228 36.2328 23.0555 31.9556 23.0555C27.6785 23.0555 24.2112 26.5228 24.2112 30.8C24.2112 35.0771 27.6785 38.5444 31.9556 38.5444ZM31.9556 40.0444C37.0612 40.0444 41.2001 35.9056 41.2001 30.8C41.2001 25.6944 37.0612 21.5555 31.9556 21.5555C26.8501 21.5555 22.7112 25.6944 22.7112 30.8C22.7112 35.9056 26.8501 40.0444 31.9556 40.0444Z" fill="#133DBD"/>
    <path d="M26.1777 30.3715V29.2549H27.6257C27.932 28.3287 28.4749 27.5843 29.2546 27.0217C30.0342 26.459 30.9206 26.1777 31.9137 26.1777C33.3895 26.1777 34.559 26.6754 35.4222 27.6709L34.4337 28.8394C34.0253 28.4326 33.6355 28.1469 33.2642 27.9825C32.9022 27.818 32.4521 27.7358 31.9137 27.7358C31.3754 27.7358 30.8881 27.87 30.4519 28.1383C30.0249 28.398 29.7047 28.7702 29.4913 29.2549H32.8048V30.3715H29.1989C29.1896 30.4754 29.185 30.6355 29.185 30.8519C29.185 31.0596 29.1989 31.2587 29.2267 31.4491H32.8048V32.5657H29.6026C30.1038 33.466 30.8603 33.9161 31.872 33.9161C32.3732 33.9161 32.8001 33.8295 33.1528 33.6564C33.5148 33.4746 33.8954 33.1933 34.2945 32.8124L35.283 33.929C34.4198 34.9245 33.2828 35.4222 31.872 35.4222C30.9067 35.4222 30.0481 35.1668 29.2963 34.6561C28.5538 34.1368 28.0201 33.44 27.6953 32.5657H26.1777V31.4491H27.4307C27.4029 31.2414 27.389 31.0337 27.389 30.8259C27.389 30.6182 27.3936 30.4667 27.4029 30.3715H26.1777Z" fill="#133DBD"/>
</svg>
