<svg width="155" height="40" viewBox="0 0 155 40" fill="none" xmlns="http://www.w3.org/2000/svg">
    <path d="M4.60909 15.1546H0V32.2318H4.60909V15.1546Z" fill="#133DBD"/>
    <path d="M26.65 14.7704C24.6114 14.7704 22.75 15.7454 21.7159 17.9613C21.0068 15.8045 19.2636 14.7704 17.2841 14.7704C15.3341 14.7704 13.8864 15.6272 13.0591 17.2227V15.1545H8.44999V32.2318H13.0591V21.9204C13.0591 19.7636 14.1523 18.7295 15.5704 18.7295C17.0182 18.7295 18.0818 19.6749 18.0818 21.5659V32.2318H22.6614V21.7431C22.6614 19.7636 23.6659 18.6113 25.1727 18.6113C26.6204 18.6113 27.6841 19.6454 27.6841 21.5659V32.2318H32.2932V20.709C32.3227 16.8681 30.0773 14.7704 26.65 14.7704Z" fill="#133DBD"/>
    <path d="M54.3636 14.7704C52.325 14.7704 50.4636 15.7454 49.4295 17.9613C48.7205 15.8045 46.9773 14.7704 44.9977 14.7704C43.0477 14.7704 41.6 15.6272 40.7727 17.2227V15.1545H36.1636V32.2318H40.7727V21.9204C40.7727 19.7636 41.8659 18.7295 43.2841 18.7295C44.7318 18.7295 45.7955 19.6749 45.7955 21.5659V32.2318H50.375V21.7431C50.375 19.7636 51.3795 18.6113 52.8864 18.6113C54.3341 18.6113 55.3977 19.6454 55.3977 21.5659V32.2318H60.0659V20.709C60.0659 16.8681 57.7909 14.7704 54.3636 14.7704Z" fill="#133DBD"/>
    <path d="M107.191 27.8887L104.236 15.1546H98.8295L95.8454 27.8887L92.7136 15.1546H88.1045L92.7727 32.2023H98.7113L101.518 21.1228L104.295 32.2023H110.234L114.932 15.1546H110.352L107.191 27.8887Z" fill="#133DBD"/>
    <path d="M145.866 14.7705C143.591 14.7705 141.523 15.9523 140.4 17.6955V7H135.791V32.2023H140.223V29.9273C141.405 31.6409 143.384 32.5568 145.63 32.5568C150.416 32.5568 153.902 29.1295 153.902 23.7227C153.902 18.3455 150.475 14.7705 145.866 14.7705ZM144.743 28.6273C142.409 28.6273 140.193 26.9136 140.193 23.7227C140.193 20.4727 142.38 18.7295 144.743 18.7295C147.195 18.7295 149.293 20.5614 149.293 23.7227C149.293 26.8545 147.195 28.6273 144.743 28.6273Z" fill="#133DBD"/>
    <path d="M4.60909 7H0V11.4614H4.60909V7Z" fill="#133DBD"/>
    <path d="M125.184 28.5978C122.88 28.5978 120.752 27.2387 120.693 24.5205H132.275C132.423 23.8705 132.482 23.191 132.482 22.4228C132.482 17.6955 129.291 14.741 124.564 14.741C119.452 14.741 116.055 18.6705 116.055 23.516C116.055 28.9819 119.836 32.5273 125.095 32.5273C128.759 32.5273 131.27 30.8728 132.6 28.2432L128.7 26.7069C128.05 27.9182 126.898 28.5978 125.184 28.5978ZM124.564 18.4932C126.602 18.4932 128.02 19.616 128.02 21.3296C128.02 21.3887 127.991 21.4773 127.991 21.4773H120.693C121.107 19.5569 122.732 18.4932 124.564 18.4932Z" fill="#133DBD"/>
    <path d="M82.4614 10.9886H78.9159V13.3227L74.3068 10.0431L62.6659 18.3159L67.1864 32.2022H81.3977L85.9182 18.3159L82.4614 15.8636V10.9886ZM78.5614 28.3613H69.9932L67.2159 19.8522L74.2773 14.8295L81.3386 19.8522L78.5614 28.3613Z" fill="#133DBD"/>
</svg>
