<?xml version="1.0" encoding="utf-8"?>
<!-- Generator: Adobe Illustrator 28.1.0, SVG Export Plug-In . SVG Version: 6.00 Build 0)  -->
<svg version="1.1" id="Layer_1" xmlns="http://www.w3.org/2000/svg" xmlns:xlink="http://www.w3.org/1999/xlink" x="0px" y="0px"
     viewBox="0 0 1603.3 600" style="enable-background:new 0 0 1603.3 600;" xml:space="preserve">
<style type="text/css">
	.st0{fill:#133DBD;}
</style>
    <g>
	<g>
		<path class="st0" d="M924.8,452.2l15.1-8c3.5,7.9,9.8,11.3,18,11.3c7.7,0,11.6-3,11.6-6.9c0-4.8-3.2-7.4-16.6-9.4
			c-14.8-2.3-24.5-8.9-24.5-21.4c0-12.8,12.8-21,27.3-21c16,0,23.3,6.5,27.2,15.1l-14.6,8c-1.8-5.6-6.5-8.2-12.1-8.2
			c-5.7,0-10.1,2.6-10.1,6.2c0,4.2,3.8,6,15.9,7.9c18.7,2.9,25.5,10.1,25.5,22.5c0,13.6-13,23.1-30.2,23.1
			C940.4,471.3,929.8,464.1,924.8,452.2z"/>
        <path class="st0" d="M1069.2,449c-4.8,13.6-16.2,22.3-33.4,22.3c-22,0-37.9-14.8-37.9-37.8c0-20.4,14.2-36.8,35.6-36.8
			c19.8,0,33.2,12.4,33.2,32.2c0,3.2-0.3,6-0.9,8.8h-49.4c1.8,10,8.8,17.1,19.6,17.1c9.2,0,14.5-4.7,16.6-12.2L1069.2,449z
			 M1016.9,424.8h31.1v-0.9c0-6.8-5.9-11.6-14.5-11.6C1025.8,412.3,1019.3,417.1,1016.9,424.8z"/>
        <path class="st0" d="M1139.7,417.9c0,2.9-0.3,5.9-1.1,8.9h-18.3c0.5-2,0.6-3.6,0.6-5.4c0-5.1-3.6-8.9-9.1-8.9c-6,0-10,4.1-10,11.3
			v46.1h-19.3v-71.6h19.3v9.1c2.9-6.2,8.6-10.6,17.2-10.6C1132.4,396.8,1139.7,406,1139.7,417.9z"/>
        <path class="st0" d="M1220.9,449c-4.8,13.6-16.2,22.3-33.4,22.3c-22,0-37.9-14.8-37.9-37.8c0-20.4,14.2-36.8,35.6-36.8
			c19.8,0,33.2,12.4,33.2,32.2c0,3.2-0.3,6-0.9,8.8h-49.4c1.8,10,8.8,17.1,19.6,17.1c9.2,0,14.5-4.7,16.6-12.2L1220.9,449z
			 M1168.7,424.8h31.1v-0.9c0-6.8-5.9-11.6-14.5-11.6C1177.6,412.3,1171.1,417.1,1168.7,424.8z"/>
        <path class="st0" d="M1301.3,423v46.8h-19.3v-41.5c0-10-5.3-15.9-13.4-15.9c-8.5,0-14.8,6.2-14.8,17.8v39.6h-19.3v-71.6h19.3v9.4
			c4.8-7.4,13-10.9,21.7-10.9C1290.7,396.8,1301.3,406.3,1301.3,423z"/>
        <path class="st0" d="M1319.1,387.5v-20.4h20.7v20.4H1319.1z M1319.7,398.3h19.3v71.6h-19.3V398.3z"/>
        <path class="st0" d="M1419.2,447.6c-2,14.8-11.5,23.7-26.7,23.7c-17.8,0-26.9-10.3-26.9-25.7v-31.6h-14.8v-15.9h14.8v-23.6h19.2
			v23.6h26.9v15.9h-26.9v31.6c0,5.7,3.6,8.6,8.2,8.6c5.1,0,7.9-3.3,8.5-10L1419.2,447.6z"/>
        <path class="st0" d="M1481.9,398.3h19.6l-48.8,101.5h-19.6l19.2-40l-28.7-61.5h20.2l18.4,40.8L1481.9,398.3z"/>
	</g>
        <g>
		<rect x="100" y="174.6" class="st0" width="42" height="155.6"/>
            <path class="st0" d="M343,171.3c-18.7,0-35.5,8.9-45,29.2c-6.6-19.7-22.3-29.2-40.4-29.2c-17.7,0-30.9,7.9-38.4,22.3v-19h-42
			v155.6h42v-93.9c0-19.7,9.8-29.2,23-29.2c13.1,0,23,8.5,23,25.9v97.2h41.7v-95.5c0-18.1,9.2-28.6,23-28.6c13.1,0,23,9.5,23,26.9
			v97.2h42v-105C394.9,190.3,374.2,171.3,343,171.3"/>
            <path class="st0" d="M595.8,171.3c-18.7,0-35.5,8.9-45,29.2c-6.6-19.7-22.3-29.2-40.4-29.2c-17.7,0-30.9,7.9-38.4,22.3v-19h-42
			v155.6h42v-93.9c0-19.7,9.8-29.2,23-29.2c13.1,0,23,8.5,23,25.9v97.2h41.7v-95.5c0-18.1,9.2-28.6,23-28.6c13.1,0,23,9.5,23,26.9
			v97.2h42v-105C647.7,190.3,627,171.3,595.8,171.3"/>
            <polygon class="st0" points="1077.3,290.8 1050.4,174.6 1001.2,174.6 973.9,290.8 945.4,174.6 903.4,174.6 946,330.2
			1000.2,330.2 1025.8,229.1 1051.1,330.2 1105.2,330.2 1147.9,174.6 1106.2,174.6 		"/>
            <path class="st0" d="M1430.1,171.3c-20.7,0-39.7,10.8-49.9,26.6v-97.5h-42v229.8h40.4v-20.7c10.8,15.8,28.9,24,49.2,24
			c43.7,0,75.5-31.2,75.5-80.4C1503.3,203.8,1472.1,171.3,1430.1,171.3 M1419.9,297.7c-21.3,0-41.4-15.8-41.4-44.6
			c0-29.5,20-45.6,41.4-45.6c22.3,0,41.4,16.7,41.4,45.6C1461.3,281.3,1442.2,297.7,1419.9,297.7"/>
            <rect x="100" y="100.3" class="st0" width="42" height="40.6"/>
            <path class="st0" d="M1241.5,297.3c-21,0-40.4-12.5-41-37.1h105.7c1.3-5.9,2-12.1,2-19c0-43-29.2-69.9-72.2-69.9
			c-46.6,0-77.5,35.8-77.5,80.1c0,49.9,34.5,82.1,82.4,82.1c33.3,0,56.4-15.1,68.5-39.2l-35.6-14
			C1267.7,291,1257.3,297.3,1241.5,297.3 M1235.9,205.1c18.7,0,31.5,10.2,31.5,25.9c0,0.7-0.3,1.3-0.3,1.3h-66.6
			C1204.4,214.9,1219.2,205.1,1235.9,205.1"/>
            <path class="st0" d="M851.8,136.8h-32.5V158l-42.1-29.9l-106.2,75.3l41.3,126.7h129.7l41.3-126.7L851.8,181V136.8z M816.4,295
			h-78.2l-25.3-77.5l64.4-45.7l64.4,45.7L816.4,295z"/>
	</g>
</g>
</svg>
