<svg width="42" height="59" viewBox="0 0 42 59" fill="none" xmlns="http://www.w3.org/2000/svg">
    <g clip-path="url(#clip0_1_2214)">
        <path d="M0.790527 21.0177C0.790527 32.1946 20.9999 57.7629 20.9999 57.7629C20.9999 57.7629 41.2094 32.1946 41.2094 21.0177C41.2094 9.84088 32.2164 0.790588 20.9999 0.790588C9.78347 0.790588 0.790527 9.84088 0.790527 21.0177Z" fill="#315ED1"/>
        <path d="M21 59L20.4071 58.2582C19.5671 57.2196 0 32.3437 0 21.0184C0 9.44593 9.38824 0 21 0C32.6118 0 42 9.39648 42 21.0184C42 32.3437 22.4329 57.1702 21.5929 58.2582L21 59ZM21 1.53311C10.2776 1.53311 1.53176 10.2867 1.53176 21.0184C1.53176 30.7611 17.6894 52.2246 21 56.5272C24.3106 52.2246 40.4682 30.7117 40.4682 21.0184C40.5176 10.2867 31.7718 1.53311 21 1.53311Z" fill="#133DBD"/>
        <path d="M21 36.4972C29.5962 36.4972 36.5647 29.5225 36.5647 20.9188C36.5647 12.3151 29.5962 5.34045 21 5.34045C12.4039 5.34045 5.4353 12.3151 5.4353 20.9188C5.4353 29.5225 12.4039 36.4972 21 36.4972Z" fill="white"/>
        <path d="M21 37.2397C12.007 37.2397 4.69409 29.9203 4.69409 20.9195C4.69409 11.9187 12.007 4.5993 21 4.5993C29.9929 4.5993 37.3059 11.9187 37.3059 20.9195C37.3059 29.9203 30.0423 37.2397 21 37.2397ZM21 6.08296C12.847 6.08296 6.17644 12.7099 6.17644 20.9195C6.17644 29.1291 12.7976 35.7561 21 35.7561C29.2023 35.7561 35.8235 29.1291 35.8235 20.9195C35.8235 12.7099 29.2023 6.08296 21 6.08296Z" fill="#133DBD"/>
        <path d="M3.01405 39.9598C2.66816 39.9598 2.27287 39.8114 2.02581 39.5641C1.48228 39.0201 1.48228 38.1299 2.02581 37.5859L37.0588 2.81895C37.6023 2.27495 38.4917 2.27495 39.0352 2.81895C39.5788 3.36296 39.5788 4.25315 39.0352 4.79716L4.00228 39.5641C3.70581 39.8609 3.35993 39.9598 3.01405 39.9598Z" fill="#133DBD"/>
    </g>
    <defs>
        <clipPath id="clip0_1_2214">
            <rect width="42" height="59" fill="white"/>
        </clipPath>
    </defs>
</svg>
