<svg width="173" height="100" viewBox="0 0 173 100" xmlns="http://www.w3.org/2000/svg">
    <rect y="98" width="173" height="2" fill="#133DBD"/>
    <path d="M103.422 18.0181V13.782H92.4172V18.0181H83.9562V26.479H86.5V37.4838H61.106V45.9448H63.6498V98.4139H86.5H109.35V26.479H111.883V18.0181H103.422Z" fill="white"/>
    <path d="M67.4545 32.8275H64.0701V37.0635H67.4545V32.8275Z" fill="white"/>
    <path d="M80.5717 75.5637H69.5669V98.4139H80.5717V75.5637Z" fill="#C4D3E4"/>
    <path d="M95.3812 43.8213H91.1451V50.5901H95.3812V43.8213Z" fill="#C4D3E4"/>
    <path d="M91.1451 39.4303H95.3812C95.9895 39.4303 96.4872 38.9326 96.4872 38.3243V31.5555C96.4872 30.9472 95.9895 30.4495 95.3812 30.4495H91.1451C90.5368 30.4495 90.0391 30.9472 90.0391 31.5555V38.3243C90.0391 38.9326 90.5368 39.4303 91.1451 39.4303ZM92.2511 32.6615H94.2751V37.2183H92.2511V32.6615Z" fill="#133DBD"/>
    <path d="M99.6174 39.4303H103.853C104.462 39.4303 104.959 38.9326 104.959 38.3243V31.5555C104.959 30.9472 104.462 30.4495 103.853 30.4495H99.6174C99.0091 30.4495 98.5114 30.9472 98.5114 31.5555V38.3243C98.5114 38.9326 98.998 39.4303 99.6174 39.4303ZM100.723 32.6615H102.747V37.2183H100.723V32.6615Z" fill="#133DBD"/>
    <path d="M91.1451 51.7072H95.3812C95.9895 51.7072 96.4872 51.2095 96.4872 50.6012V43.8324C96.4872 43.2241 95.9895 42.7264 95.3812 42.7264H91.1451C90.5368 42.7264 90.0391 43.2241 90.0391 43.8324V50.6012C90.0391 51.2095 90.5368 51.7072 91.1451 51.7072ZM92.2511 44.9273H94.2751V49.4841H92.2511V44.9273Z" fill="#133DBD"/>
    <path d="M99.6174 51.7072H103.853C104.462 51.7072 104.959 51.2095 104.959 50.6012V43.8324C104.959 43.2241 104.462 42.7264 103.853 42.7264H99.6174C99.0091 42.7264 98.5114 43.2241 98.5114 43.8324V50.6012C98.5114 51.2095 98.998 51.7072 99.6174 51.7072ZM100.723 44.9273H102.747V49.4841H100.723V44.9273Z" fill="#133DBD"/>
    <path d="M91.1451 63.9728H95.3812C95.9895 63.9728 96.4872 63.4751 96.4872 62.8668V56.098C96.4872 55.4897 95.9895 54.992 95.3812 54.992H91.1451C90.5368 54.992 90.0391 55.4897 90.0391 56.098V62.8668C90.0391 63.4751 90.5368 63.9728 91.1451 63.9728ZM92.2511 57.204H94.2751V61.7608H92.2511V57.204Z" fill="#133DBD"/>
    <path d="M99.6174 63.9728H103.853C104.462 63.9728 104.959 63.4751 104.959 62.8668V56.098C104.959 55.4897 104.462 54.992 103.853 54.992H99.6174C99.0091 54.992 98.5114 55.4897 98.5114 56.098V62.8668C98.5114 63.4751 98.998 63.9728 99.6174 63.9728ZM100.723 57.204H102.747V61.7608H100.723V57.204Z" fill="#133DBD"/>
    <path d="M91.1451 76.2495H95.3812C95.9895 76.2495 96.4872 75.7518 96.4872 75.1435V68.3747C96.4872 67.7664 95.9895 67.2687 95.3812 67.2687H91.1451C90.5368 67.2687 90.0391 67.7664 90.0391 68.3747V75.1435C90.0391 75.7518 90.5368 76.2495 91.1451 76.2495ZM92.2511 69.4807H94.2751V74.0375H92.2511V69.4807Z" fill="#133DBD"/>
    <path d="M99.6174 76.2495H103.853C104.462 76.2495 104.959 75.7518 104.959 75.1435V68.3747C104.959 67.7664 104.462 67.2687 103.853 67.2687H99.6174C99.0091 67.2687 98.5114 67.7664 98.5114 68.3747V75.1435C98.5114 75.7518 98.998 76.2495 99.6174 76.2495ZM100.723 69.4807H102.747V74.0375H100.723V69.4807Z" fill="#133DBD"/>
    <path d="M91.1451 88.5151H95.3812C95.9895 88.5151 96.4872 88.0174 96.4872 87.4091V80.6403C96.4872 80.032 95.9895 79.5343 95.3812 79.5343H91.1451C90.5368 79.5343 90.0391 80.032 90.0391 80.6403V87.4091C90.0391 88.0174 90.5368 88.5151 91.1451 88.5151ZM92.2511 81.7463H94.2751V86.3031H92.2511V81.7463Z" fill="#133DBD"/>
    <path d="M99.6174 88.5151H103.853C104.462 88.5151 104.959 88.0174 104.959 87.4091V80.6403C104.959 80.032 104.462 79.5343 103.853 79.5343H99.6174C99.0091 79.5343 98.5114 80.032 98.5114 80.6403V87.4091C98.5114 88.0174 98.998 88.5151 99.6174 88.5151ZM100.723 81.7463H102.747V86.3031H100.723V81.7463Z" fill="#133DBD"/>
    <path d="M111.883 16.9121H104.528V13.7821C104.528 13.1738 104.03 12.6761 103.422 12.6761H92.4172C91.8088 12.6761 91.3111 13.1738 91.3111 13.7821V16.9121H83.9562C83.3479 16.9121 82.8502 17.4098 82.8502 18.0181V26.4791C82.8502 27.0874 83.3479 27.5851 83.9562 27.5851H85.394V36.3779H68.5605V32.8276C68.5605 32.2193 68.0628 31.7216 67.4545 31.7216H64.0701C63.4618 31.7216 62.9641 32.2193 62.9641 32.8276V36.3779H61.106C60.4977 36.3779 60 36.8756 60 37.4839V45.9449C60 46.5532 60.4977 47.0509 61.106 47.0509H62.5328V98.414C62.5328 99.0223 63.0305 99.52 63.6388 99.52H69.567H80.5718H86.5H109.35C109.958 99.52 110.456 99.0223 110.456 98.414V27.5851H111.894C112.502 27.5851 113 27.0874 113 26.4791V18.0181C112.989 17.3987 112.491 16.9121 111.883 16.9121ZM65.1761 33.9336H66.3485V35.9576H65.1761V33.9336ZM79.4658 97.308H70.673V76.6698H79.4658V97.308ZM85.394 97.308H81.6778V75.5638C81.6778 74.9555 81.1801 74.4578 80.5718 74.4578H69.567C68.9587 74.4578 68.461 74.9555 68.461 75.5638V97.308H64.7448V47.0509H85.3829V97.308H85.394ZM85.394 44.8389H63.6388H62.212V38.5899H85.394V44.8389ZM93.5232 14.8881H102.316V16.9121H93.5232V14.8881ZM108.244 97.308H87.606V45.9449V37.4839V27.5851H108.244V97.308ZM110.777 25.3731H109.339H86.5H85.0622V19.1241H92.4172H103.422H110.777V25.3731Z" fill="#133DBD"/>
    <path d="M35 81C31.13 81 28 77.87 28 74V43C28 39.13 31.13 36 35 36C38.87 36 42 39.13 42 43V74C42 77.87 38.87 81 35 81Z" fill="white"/>
    <path d="M35 35C30.59 35 27 38.59 27 43V74C27 78.07 30.06 81.44 34 81.93V97.31C34 97.86 34.45 98.31 35 98.31C35.55 98.31 36 97.86 36 97.31V81.93C39.94 81.44 43 78.07 43 74V43C43 38.59 39.41 35 35 35ZM41 74C41 76.97 38.83 79.43 36 79.91V73.06L38.71 69.62C39.05 69.19 38.98 68.56 38.54 68.22C38.11 67.88 37.48 67.95 37.14 68.39L36 69.84V60.07L38.71 56.63C39.05 56.2 38.98 55.57 38.54 55.23C38.11 54.89 37.48 54.96 37.14 55.4L36 56.85V48.02C36 47.47 35.55 47.02 35 47.02C34.45 47.02 34 47.47 34 48.02V51.04L32.71 49.4C32.37 48.97 31.74 48.89 31.31 49.23C30.88 49.57 30.8 50.2 31.14 50.63L34 54.26V64.03L32.71 62.39C32.37 61.96 31.74 61.88 31.31 62.22C30.88 62.56 30.8 63.19 31.14 63.62L34 67.25V79.91C31.17 79.43 29 76.97 29 74V43C29 39.69 31.69 37 35 37C38.31 37 41 39.69 41 43V74Z" fill="#133DBD"/>
    <path d="M137 88.6C141.971 88.6 146 78.8398 146 66.8C146 54.7602 141.971 45 137 45C132.029 45 128 54.7602 128 66.8C128 78.8398 132.029 88.6 137 88.6Z" fill="white"/>
    <path d="M147 66.8C147 54 142.6 44 137 44C131.4 44 127 54 127 66.8C127 78.8 130.9 88.4 136 89.5V98C136 98.5 136.4 99 137 99C137.6 99 138 98.6 138 98V89.5C143.1 88.4 147 78.8 147 66.8ZM138 87.4V69.9C138 69.4 137.6 68.9 137 68.9C136.4 68.9 136 69.3 136 69.9V87.4C132.4 86.1 129 78.2 129 66.8C129 54.4 133.1 46 137 46C140.9 46 145 54.4 145 66.8C145 78.2 141.6 86.2 138 87.4Z" fill="#133DBD"/>
</svg>
