<svg width="173" height="100" viewBox="0 0 173 100" xmlns="http://www.w3.org/2000/svg">
    <rect y="98" width="173" height="2" fill="#0022CD"/>
    <g clip-path="url(#clip0_1_6128)">
        <path d="M113.6 37.2H63V56H113.6V37.2Z" fill="white"/>
        <path d="M110.6 23H66L63 37H113.6L110.6 23Z" fill="white"/>
        <path d="M113.6 56.2H63L61 68H115.6L113.6 56.2Z" fill="#6288B9"/>
        <path d="M99 68H63V87H99V68Z" fill="#C4D3E4"/>
        <path d="M99.1 87H63V99H99.1V87Z" fill="white"/>
        <path d="M113.6 68.2H99.1V99H113.6V68.2Z" fill="white"/>
        <path d="M113.6 95H99.1V99H113.6V95Z" fill="white"/>
        <path d="M73.1 96H67.1C66.5 96 66.1 95.6 66.1 95V91C66.1 90.4 66.5 90 67.1 90H73.1C73.7 90 74.1 90.4 74.1 91V95C74.1 95.6 73.6 96 73.1 96ZM68.1 94H72.1V92H68.1V94Z" fill="#0022CD"/>
        <path d="M84.1 96H78.1C77.5 96 77.1 95.6 77.1 95V91C77.1 90.4 77.5 90 78.1 90H84.1C84.7 90 85.1 90.4 85.1 91V95C85.1 95.6 84.6 96 84.1 96ZM79.1 94H83.1V92H79.1V94Z" fill="#0022CD"/>
        <path d="M95.1 96H89.1C88.5 96 88.1 95.6 88.1 95V91C88.1 90.4 88.5 90 89.1 90H95.1C95.7 90 96.1 90.4 96.1 91V95C96.1 95.6 95.6 96 95.1 96ZM90.1 94H94.1V92H90.1V94Z" fill="#0022CD"/>
        <path d="M73.1 82C72.8 82 72.6 81.9 72.4 81.7L67.4 76.7C67 76.3 67 75.7 67.4 75.3C67.8 74.9 68.4 74.9 68.8 75.3L73.8 80.3C74.2 80.7 74.2 81.3 73.8 81.7C73.6 81.9 73.3 82 73.1 82Z" fill="white"/>
        <path d="M69.6 83.5C69.3 83.5 69.1 83.4 68.9 83.2L66.4 80.7C66 80.3 66 79.7 66.4 79.3C66.8 78.9 67.4 78.9 67.8 79.3L70.3 81.8C70.7 82.2 70.7 82.8 70.3 83.2C70.1 83.4 69.8 83.5 69.6 83.5Z" fill="white"/>
        <path d="M110 23H66L63 37H113.5L110 23Z" fill="#C4D3E4"/>
        <path d="M114.6 56V37.1V37C114.6 36.9 114.6 36.8 114.6 36.7L111.6 22.7C111.5 22.2 111.1 21.9 110.6 21.9H66C65.5 22 65.1 22.3 65 22.8L62 36.8C62 36.9 62 37 62 37.1V37.2V56L60 67.8C60 68.1 60 68.4 60.2 68.6C60.4 68.9 60.7 69 61 69H62V87V99C62 99.6 62.4 100 63 100H99.1H113.6C114.2 100 114.6 99.6 114.6 99V95V69H115.6C115.9 69 116.2 68.9 116.4 68.6C116.6 68.4 116.7 68.1 116.6 67.8L114.6 56ZM64.8 33.3C64.8 33.3 64.9 33.3 64.8 33.3H111.5C111.6 33.3 111.6 33.3 111.7 33.3L112.3 36.1H64.2L64.8 33.3ZM111.3 31.3H65.2L65.8 28.3H110.6L111.3 31.3ZM64 55V38.2H112.6V55H64ZM72.8 57.2V67H68.9V57.2H72.8ZM74.8 57.2H78.7V67H74.8V57.2ZM80.7 57.2H84.6V67H80.7V57.2ZM86.5 57.2H90.4V67H86.5V57.2ZM92.4 57.2H96.3V67H92.4V57.2ZM98.2 57.2H102.1V67H98.2V57.2ZM104.1 57.2H108V67H104.1V57.2ZM63.8 57.2H66.9V67H62.2L63.8 57.2ZM109.9 67V57.2H112.7L114.4 67H109.9ZM109.8 24L110.3 26.3H66.3L66.8 24H109.8ZM112.6 94H100.1V87V69.2H112.6V94ZM98.1 86H64V69.2H98.1V86ZM64 88H98.1V95V98H64V88ZM112.6 98H100.1V96H112.6V98Z" fill="#0022CD"/>
        <path d="M78.1 52H70.1V45C70.1 43.3 71.4 42 73.1 42H75.1C76.8 42 78.1 43.3 78.1 45V52Z" fill="#C4D3E4"/>
        <path d="M75.1 41H73.1C70.9 41 69.1 42.8 69.1 45V52C69.1 52.6 69.5 53 70.1 53H78.1C78.7 53 79.1 52.6 79.1 52V45C79.1 42.8 77.3 41 75.1 41ZM71.1 45C71.1 43.9 72 43 73.1 43V51H71.1V45ZM77.1 51H75.1V43C76.2 43 77.1 43.9 77.1 45V51Z" fill="#0022CD"/>
        <path d="M89.6 41H87.6C85.4 41 83.6 42.8 83.6 45V52C83.6 52.6 84 53 84.6 53H92.6C93.2 53 93.6 52.6 93.6 52V45C93.6 42.8 91.8 41 89.6 41ZM85.6 45C85.6 43.9 86.5 43 87.6 43V51H85.6V45ZM91.6 51H89.6V43C90.7 43 91.6 43.9 91.6 45V51Z" fill="#0022CD"/>
        <path d="M104.1 41H102.1C99.9 41 98.1 42.8 98.1 45V52C98.1 52.6 98.5 53 99.1 53H107.1C107.7 53 108.1 52.6 108.1 52V45C108.1 42.8 106.3 41 104.1 41ZM100.1 45C100.1 43.9 101 43 102.1 43V51H100.1V45ZM106.1 51H104.1V43C105.2 43 106.1 43.9 106.1 45V51Z" fill="#0022CD"/>
    </g>
    <path d="M48.4 70.6C48.4 68.1 46.8 66 44.6 65.3C44.4 64.9 44.3 64.4 44.1 64C44.3 63.4 44.4 62.8 44.4 62.1C44.4 59 41.9 56.4 38.7 56.4C38.1 56.4 37.5 56.5 36.9 56.7C36.4 56.5 35.9 56.3 35.4 56.1C35.4 55.9 35.4 55.8 35.4 55.6C35.5 52.5 33 50 29.9 50C26.8 50 24.2 52.5 24.2 55.7C24.2 55.9 24.2 56.2 24.2 56.4C23.9 56.5 23.7 56.7 23.4 56.8C22.8 56.6 22.2 56.5 21.6 56.5C18.5 56.5 16 59 16 62.1C16 62.8 16.1 63.4 16.3 64C16.1 64.3 16 64.6 15.9 65C13.1 65.3 11 67.7 11 70.6C11 73.5 13.1 75.8 15.9 76.2C16 76.5 16.1 76.7 16.3 77C16.1 77.6 16 78.2 16 78.8C16 81.9 18.5 84.5 21.7 84.5C22.2 84.5 22.7 84.4 23.2 84.3C25.3 85.4 27.7 86 30.3 86C32.9 86 35.3 85.4 37.4 84.3C37.9 84.4 38.4 84.5 38.9 84.5C42 84.5 44.6 82 44.6 78.8C44.6 78.2 44.5 77.6 44.3 77.1C44.5 76.7 44.6 76.3 44.8 75.9C46.9 75.1 48.4 73 48.4 70.6Z" fill="white"/>
    <path d="M49.4 70.6C49.4 67.9 47.8 65.5 45.4 64.5C45.3 64.3 45.2 64.1 45.2 63.9C45.4 63.3 45.4 62.7 45.4 62.1C45.4 58.4 42.4 55.4 38.7 55.4C38.1 55.4 37.6 55.5 37 55.6C36.8 55.5 36.7 55.4 36.5 55.4C36.4 51.9 33.5 49 29.9 49C26.2 49 23.3 52 23.2 55.6C22.7 55.5 22.2 55.4 21.6 55.4C18 55.5 15 58.4 15 62.1C15 62.7 15.1 63.3 15.3 63.9C15.3 63.9 15.3 64 15.2 64C12.2 64.7 10 67.4 10 70.5C10 73.6 12.2 76.3 15.2 77C15.1 77.6 15 78.2 15 78.8C15 82.5 18 85.5 21.7 85.5C22.1 85.5 22.6 85.5 23.1 85.4C25.1 86.4 27.2 86.9 29.3 87V98.6C29.3 99.2 29.7 99.6 30.3 99.6C30.9 99.6 31.3 99.2 31.3 98.6V86.9C33.5 86.8 35.5 86.2 37.5 85.3C37.9 85.4 38.4 85.4 38.8 85.4C42.5 85.4 45.5 82.4 45.5 78.7C45.5 78.2 45.4 77.6 45.3 77.1C45.4 76.9 45.4 76.8 45.5 76.6C47.8 75.6 49.4 73.2 49.4 70.6ZM44.3 75C44 75.1 43.8 75.3 43.7 75.6C43.6 76 43.4 76.3 43.3 76.7C43.2 76.9 43.2 77.2 43.3 77.4C43.4 77.9 43.5 78.3 43.5 78.8C43.5 81.8 40.7 84.1 37.6 83.3C37.4 83.2 37.1 83.3 36.9 83.4C35.1 84.3 33.2 84.8 31.3 85V82.2C31.3 81.6 30.9 81.2 30.3 81.2C29.7 81.2 29.3 81.6 29.3 82.2V85C27.4 84.9 25.4 84.4 23.7 83.4C23.6 83.3 23.4 83.3 23.2 83.3C23.1 83.3 23 83.3 22.9 83.3C22.5 83.4 22.1 83.5 21.7 83.5C19.1 83.5 17 81.4 17 78.8C17 78.3 17.1 77.8 17.2 77.4C17.3 77.2 17.3 76.9 17.2 76.7C17.1 76.4 17 76.2 16.9 75.9C16.8 75.6 16.5 75.3 16.1 75.3C13.8 75 12.1 73 12.1 70.7C12.1 68.4 13.8 66.4 16.1 66.1C16.5 66.1 16.8 65.8 16.9 65.5C17 65 17.1 64.7 17.2 64.4C17.3 64.2 17.3 63.9 17.2 63.6C17 63.1 16.9 62.6 16.9 62.1C16.9 59.5 19 57.4 21.6 57.4C22.1 57.4 22.6 57.5 23.1 57.6C23.3 57.7 23.6 57.7 23.9 57.6L24.1 57.5C24.3 57.4 24.5 57.3 24.7 57.2C25.1 57 25.4 56.6 25.3 56.2C25.3 56 25.3 55.8 25.3 55.6C25.3 53 27.4 50.9 30 50.9C32.6 50.9 34.7 53 34.7 55.6C34.7 55.7 34.7 55.9 34.7 56C34.7 56.4 34.9 56.9 35.4 57C35.9 57.2 36.3 57.4 36.8 57.6C37 57.7 37.3 57.7 37.6 57.7C38.1 57.5 38.6 57.5 39.1 57.5C41.7 57.5 43.8 59.6 43.8 62.2C43.8 62.7 43.7 63.2 43.5 63.7C43.4 63.9 43.4 64.2 43.5 64.5C43.7 64.9 43.8 65.3 44 65.7C44.1 66 44.3 66.2 44.6 66.3C46.5 67 47.7 68.7 47.7 70.7C47.7 72.7 46.2 74.3 44.3 75Z" fill="#0022CD"/>
    <path d="M156.108 60C156.108 57.5 155.208 55.3 153.708 53.5C154.108 52.5 154.308 51.5 154.308 50.4C154.408 45.7 150.608 42 146.008 42C141.408 42 137.708 45.7 137.708 50.4C137.708 51.5 137.908 52.6 138.308 53.5C136.808 55.3 135.908 57.5 135.908 60C135.908 62.3 136.708 64.4 138.008 66.1C136.708 67.8 135.908 69.9 135.908 72.2C135.908 77.8 140.408 82.3 146.008 82.3C151.608 82.3 156.108 77.8 156.108 72.2C156.108 69.9 155.308 67.8 154.008 66.1C155.308 64.4 156.108 62.3 156.108 60Z" fill="white"/>
    <path d="M162.208 78.7C163.408 80.8 162.708 83.5 162.708 83.5C162.708 83.5 160.008 82.8 158.808 80.8C157.608 78.7 158.308 76 158.308 76C158.308 76 161.008 76.6 162.208 78.7Z" fill="white"/>
    <path d="M139.308 89.7C137.808 91.6 135.008 91.9 135.008 91.9C135.008 91.9 134.608 89.1 136.108 87.2C137.608 85.3 140.408 85 140.408 85C140.408 85 140.808 87.8 139.308 89.7Z" fill="white"/>
    <path d="M148.908 70.9C149.408 73.2 147.908 75.6 147.908 75.6C147.908 75.6 145.508 74.1 145.008 71.8C144.508 69.5 146.008 67.1 146.008 67.1C146.008 67.1 148.408 68.5 148.908 70.9Z" fill="white"/>
    <path d="M157.108 72.2C157.108 70 156.508 67.9 155.208 66.1C156.408 64.3 157.108 62.2 157.108 60C157.108 57.6 156.308 55.3 154.908 53.3C155.208 52.3 155.408 51.3 155.408 50.3C155.408 45.2 151.208 41 146.008 41C140.808 41 136.708 45.2 136.708 50.4C136.708 51.4 136.908 52.4 137.208 53.4C135.808 55.3 135.008 57.7 135.008 60.1C135.008 62.3 135.608 64.4 136.908 66.2C135.708 68 135.008 70.1 135.008 72.3C135.008 78.1 139.408 82.8 145.108 83.3V98C145.108 98.5 145.508 98.9 146.108 98.9C146.708 98.9 147.108 98.5 147.108 98V83.3C152.708 82.8 157.108 78 157.108 72.2ZM146.008 81.3C141.008 81.3 136.908 77.2 136.908 72.2C136.908 70.2 137.608 68.3 138.808 66.7C139.108 66.3 139.108 65.8 138.808 65.5C137.608 63.9 136.908 62 136.908 60C136.908 57.9 137.708 55.8 139.008 54.2C139.208 53.9 139.308 53.5 139.208 53.2C138.808 52.3 138.708 51.4 138.708 50.4C138.708 46.3 142.008 43 146.008 43C150.008 43 153.408 46.3 153.408 50.4C153.408 51.3 153.208 52.3 152.908 53.2C152.808 53.5 152.808 53.9 153.108 54.2C154.508 55.8 155.208 57.9 155.208 60C155.208 62 154.508 63.9 153.308 65.5C153.008 65.9 153.008 66.4 153.308 66.7C154.508 68.3 155.208 70.2 155.208 72.2C155.108 77.2 151.008 81.3 146.008 81.3Z" fill="#0022CD"/>
    <path d="M163.108 78.2C161.708 75.8 158.708 75 158.608 75C158.108 74.9 157.508 75.2 157.408 75.7C157.408 75.8 156.508 78.8 158.008 81.2C159.408 83.6 162.408 84.4 162.508 84.4C162.608 84.4 162.708 84.4 162.708 84.4C163.108 84.4 163.508 84.1 163.708 83.7C163.708 83.6 164.508 80.6 163.108 78.2ZM161.908 82.1C161.208 81.8 160.208 81.2 159.608 80.2C159.008 79.2 159.008 78.1 159.108 77.3C159.808 77.6 160.808 78.2 161.408 79.2C162.008 80.2 162.008 81.2 161.908 82.1Z" fill="#0022CD"/>
    <path d="M140.308 84C140.208 84 137.108 84.4 135.408 86.6C133.608 88.8 134.008 91.9 134.108 92C134.208 92.5 134.608 92.9 135.108 92.9H135.208C135.308 92.9 138.408 92.5 140.108 90.3C141.808 88.1 141.408 85 141.408 84.9C141.308 84.4 140.808 84 140.308 84ZM138.508 89.1C137.808 90 136.808 90.4 136.008 90.7C136.008 89.9 136.208 88.8 136.908 87.9C137.608 87 138.608 86.6 139.408 86.3C139.408 87.1 139.208 88.2 138.508 89.1Z" fill="#0022CD"/>
    <path d="M146.608 66.2C146.108 65.9 145.508 66 145.208 66.5C145.108 66.6 143.408 69.2 144.008 71.9C144.608 74.6 147.208 76.3 147.308 76.4C147.508 76.5 147.608 76.6 147.808 76.6C148.108 76.6 148.408 76.4 148.608 76.2C148.708 76.1 150.408 73.5 149.808 70.8C149.308 68 146.708 66.3 146.608 66.2ZM147.608 74C147.008 73.4 146.308 72.6 146.008 71.5C145.808 70.4 146.108 69.3 146.408 68.6C147.008 69.2 147.708 70 148.008 71.1C148.308 72.2 147.908 73.3 147.608 74Z" fill="#0022CD"/>
    <defs>
        <clipPath id="clip0_1_6128">
            <rect width="56.6" height="78" fill="white" transform="translate(60 22)"/>
        </clipPath>
    </defs>
</svg>