<svg width="173" height="100" viewBox="0 0 173 100" xmlns="http://www.w3.org/2000/svg">
    <rect y="98" width="173" height="2" fill="#0022CD"/>
    <path d="M55.41 54.05C54.58 54.05 53.79 54.17 53.03 54.37C51.51 50.07 47.42 46.99 42.6 46.99C37.87 46.99 33.85 49.95 32.26 54.12C31.88 54.07 31.5 54.04 31.11 54.04C26.08 54.04 22 58.12 22 63.15C22 68.18 26.08 72.26 31.11 72.26C34.2 72.26 36.92 70.72 38.57 68.37C39.82 68.86 41.18 69.14 42.6 69.14C44.42 69.14 46.14 68.69 47.66 67.91C49.26 70.51 52.13 72.26 55.41 72.26C60.44 72.26 64.52 68.18 64.52 63.15C64.52 58.13 60.44 54.05 55.41 54.05Z" fill="white"/>
    <path d="M55.41 53.05C54.83 53.05 54.24 53.1 53.64 53.21C51.72 48.86 47.39 46 42.6 46C37.89 46 33.57 48.81 31.62 53.07C31.44 53.06 31.27 53.05 31.11 53.05C25.53 53.05 21 57.59 21 63.16C21 68.73 25.54 73.27 31.11 73.27C32.8 73.27 34.44 72.83 35.89 72.04L41.5 76.45V97.7H43.5V76.08L48.61 70.62C50.45 72.31 52.84 73.28 55.42 73.28C61 73.28 65.53 68.74 65.53 63.17C65.53 57.6 60.99 53.05 55.41 53.05ZM37.62 70.87C38.08 70.48 38.52 70.05 38.92 69.58C39.77 69.85 40.63 70.02 41.5 70.1V73.92L37.62 70.87ZM43.5 70.11C44.74 70.02 45.97 69.73 47.14 69.26L43.5 73.15V70.11ZM55.41 71.28C52.58 71.28 50 69.83 48.51 67.41L48.02 66.62L47.2 67.04C44.64 68.36 41.65 68.52 38.93 67.46L38.2 67.17L37.75 67.81C36.23 69.98 33.75 71.27 31.11 71.27C26.64 71.27 23 67.63 23 63.16C23 58.69 26.64 55.05 31.11 55.05C31.42 55.05 31.74 55.07 32.13 55.12L32.91 55.22L33.19 54.49C34.67 50.61 38.45 48 42.6 48C46.85 48 50.66 50.7 52.09 54.71L52.4 55.58L53.29 55.34C54 55.15 54.72 55.05 55.41 55.05C59.88 55.05 63.52 58.69 63.52 63.16C63.52 67.63 59.88 71.28 55.41 71.28Z" fill="#0022CD"/>
    <path d="M69.53 86.06C78.107 86.06 85.06 79.107 85.06 70.53C85.06 61.953 78.107 55 69.53 55C60.953 55 54 61.953 54 70.53C54 79.107 60.953 86.06 69.53 86.06Z" fill="#C4D3E4"/>
    <path d="M86.06 70.53C86.06 61.41 78.64 54 69.53 54C60.42 54 53 61.42 53 70.53C53 79.28 59.83 86.44 68.44 87.01V96.98C68.44 97.53 68.89 97.98 69.44 97.98C69.99 97.98 70.44 97.53 70.44 96.98V87.02C79.12 86.54 86.06 79.34 86.06 70.53ZM70.47 85.01L73.94 79.46C74.23 78.99 74.09 78.37 73.62 78.08C73.15 77.79 72.53 77.93 72.24 78.4L70.42 81.31V66.46C70.42 65.91 69.97 65.46 69.42 65.46C68.87 65.46 68.42 65.91 68.42 66.46V72.94L65.11 69.81C64.71 69.43 64.08 69.45 63.7 69.85C63.32 70.25 63.34 70.88 63.74 71.26L68.42 75.7V84.52V84.53C68.32 84.68 68.29 84.85 68.28 85.02C60.84 84.39 54.98 78.15 54.98 70.55C54.98 62.54 61.5 56.02 69.51 56.02C77.52 56.02 84.04 62.54 84.04 70.55C84.06 78.22 78.04 84.52 70.47 85.01Z" fill="#0022CD"/>
    <path d="M126.2 86.4C131.281 86.4 135.4 82.281 135.4 77.2C135.4 72.119 131.281 68 126.2 68C121.119 68 117 72.119 117 77.2C117 82.281 121.119 86.4 126.2 86.4Z" fill="white"/>
    <path d="M136.4 77.2C136.4 71.6 131.8 67 126.2 67C120.6 67 116 71.6 116 77.2C116 82.5 120.1 86.8 125.2 87.3V97.4C125.2 97.9 125.6 98.4 126.2 98.4C126.8 98.4 127.2 98 127.2 97.4V87.3C132.3 86.8 136.4 82.5 136.4 77.2ZM126.2 85.4C121.7 85.4 118 81.7 118 77.2C118 72.7 121.7 69 126.2 69C130.7 69 134.4 72.7 134.4 77.2C134.4 81.7 130.7 85.4 126.2 85.4Z" fill="#0022CD"/>
    <path d="M139 87.6C143.971 87.6 148 77.8398 148 65.8C148 53.7602 143.971 44 139 44C134.029 44 130 53.7602 130 65.8C130 77.8398 134.029 87.6 139 87.6Z" fill="white"/>
    <path d="M149 65.8C149 53 144.6 43 139 43C133.4 43 129 53 129 65.8C129 77.8 132.9 87.4 138 88.5V97C138 97.5 138.4 98 139 98C139.6 98 140 97.6 140 97V88.5C145.1 87.4 149 77.8 149 65.8ZM140 86.4V68.9C140 68.4 139.6 67.9 139 67.9C138.4 67.9 138 68.3 138 68.9V86.4C134.4 85.1 131 77.2 131 65.8C131 53.4 135.1 45 139 45C142.9 45 147 53.4 147 65.8C147 77.2 143.6 85.2 140 86.4Z" fill="#0022CD"/>
</svg>