<svg width="122" height="79" viewBox="0 0 122 79" fill="none" xmlns="http://www.w3.org/2000/svg">
    <path d="M0 74.9318L78.3646 74.2466L78.3855 76.4901L0.0208903 77.1753L0 74.9318Z" fill="#0022CD"/>
    <path d="M6.22803 44.9619L71.6089 44.3909L71.8805 75.4373L6.4996 76.0083L6.22803 44.9619Z" fill="white"/>
    <path d="M64.4179 29.4686L13.1613 29.9157L6.23145 44.973L71.611 44.4021L64.4179 29.4686Z" fill="#C4D3E4"/>
    <path d="M53.3836 46.0453L58.3512 46.0008L51.413 36.4666L48.5956 32.5937L38.6966 18.9902L29.0358 32.765L26.2853 36.6867L19.5156 46.3406L23.9624 46.3016" fill="white"/>
    <path d="M38.9304 45.7443C42.1799 45.7158 44.7932 43.2974 44.7674 40.3424C44.7415 37.3875 42.0864 35.0151 38.8369 35.0435C35.5874 35.0719 32.9741 37.4904 32.9999 40.4453C33.0257 43.4003 35.6809 45.7727 38.9304 45.7443Z" fill="white"/>
    <path d="M70.9283 16.9292L117.382 17.2843L116.96 72.4473L70.5063 72.0922L70.9283 16.9292Z" fill="white"/>
    <path d="M67.1216 71.5824L120.349 71.9891L120.311 76.8285L67.084 76.4219L67.1216 71.5824Z" fill="white"/>
    <path d="M70.9047 19.8326L117.358 20.1878L117.337 23.0915L70.8838 22.7349L70.9047 19.8326Z" fill="#C4D3E4"/>
    <path d="M118.849 14.8762L69.4937 14.4988L70.9183 6.98407L71.5102 3.86731L116.996 4.21547L118.849 14.8762Z" fill="#6288B9"/>
    <path d="M105.403 1.22266L111.211 1.26722L111.108 14.8163L105.3 14.7718L105.403 1.22266ZM100.253 70.2969C98.5236 72.1157 87.5913 71.5461 86.356 70.5211C85.1207 69.4961 84.7935 49.804 84.7935 49.804C88.3879 50.9181 97.3343 50.9529 101.728 49.6773C101.728 49.6773 101.983 68.4781 100.253 70.2969Z" fill="white"/>
    <path d="M89.2039 43.2335C89.5248 43.2339 89.8327 43.1073 90.0605 42.8813C90.2884 42.6553 90.4175 42.3483 90.4197 42.0275L90.4698 35.411C90.4828 33.6952 89.8137 32.0445 88.6097 30.822C87.4057 29.5994 85.7655 28.9052 84.0497 28.892H83.9995C82.2928 28.8937 80.6559 29.5692 79.4445 30.7714C78.2331 31.9736 77.5453 33.6055 77.5307 35.3121L77.4805 41.9286C77.4791 42.0882 77.5091 42.2465 77.5688 42.3945C77.6286 42.5425 77.7169 42.6773 77.8288 42.7911C77.9407 42.9049 78.0739 42.9955 78.2208 43.0578C78.3678 43.1201 78.5256 43.1529 78.6852 43.1541L89.1955 43.2335H89.2039ZM87.9992 40.795L86.601 40.7838L86.6177 38.6238C86.6082 37.9625 86.3401 37.3312 85.8708 36.8651C85.4015 36.399 84.7684 36.1351 84.107 36.13C83.4456 36.1249 82.8086 36.379 82.3322 36.8378C81.8558 37.2966 81.578 37.9237 81.5582 38.5848L81.5415 40.7448L79.9191 40.7323L79.9608 35.3288C79.9707 34.2636 80.4004 33.2452 81.1565 32.4948C81.9127 31.7444 82.9342 31.3225 83.9995 31.3208H84.0316C84.5622 31.3246 85.0868 31.4329 85.5755 31.6396C86.0643 31.8463 86.5075 32.1473 86.8798 32.5253C87.2522 32.9033 87.5464 33.351 87.7456 33.8428C87.9449 34.3346 88.0452 34.8609 88.041 35.3915L87.9992 40.795ZM100.362 43.3185L110.872 43.3992H110.882C111.202 43.3993 111.51 43.2726 111.737 43.047C111.965 42.8214 112.094 42.515 112.096 42.1946L112.148 35.5767C112.159 33.8612 111.49 32.2112 110.286 30.9888C109.083 29.7664 107.443 29.0714 105.728 29.0563H105.678C103.971 29.0588 102.335 29.7345 101.123 30.9365C99.9121 32.1386 99.2241 33.77 99.2087 35.4764L99.1572 42.0943C99.1557 42.2539 99.1857 42.4122 99.2455 42.5602C99.3052 42.7082 99.3936 42.843 99.5055 42.9568C99.6173 43.0706 99.7506 43.1613 99.8975 43.2236C100.044 43.2859 100.202 43.3186 100.362 43.3199V43.3185ZM101.637 35.4959C101.642 34.9654 101.75 34.4408 101.957 33.9522C102.164 33.4637 102.465 33.0206 102.843 32.6483C103.221 32.2761 103.669 31.982 104.16 31.7827C104.652 31.5835 105.178 31.4831 105.709 31.4872C106.239 31.4913 106.764 31.5999 107.253 31.8067C107.741 32.0135 108.184 32.3146 108.557 32.6927C108.929 33.0707 109.223 33.5184 109.422 34.0101C109.621 34.5019 109.722 35.028 109.718 35.5586L109.676 40.9607L107.694 40.9454L107.709 38.9246C107.7 38.2633 107.432 37.632 106.963 37.1659C106.493 36.6998 105.86 36.4359 105.199 36.4308C104.537 36.4257 103.9 36.6798 103.424 37.1386C102.948 37.5974 102.67 38.2245 102.65 38.8857L102.636 40.9064L101.596 40.898L101.637 35.4959Z" fill="#0022CD"/>
    <path d="M38.9495 33.9098C37.1632 33.8438 35.4235 34.4876 34.1106 35.7006C32.7977 36.9135 32.0184 38.597 31.943 40.3828C32.0837 42.1445 32.8828 43.7886 34.1812 44.9876C35.4797 46.1865 37.1822 46.8523 38.9495 46.8523C40.7168 46.8523 42.4193 46.1865 43.7177 44.9876C45.0162 43.7886 45.8153 42.1445 45.9559 40.3828C45.8806 38.597 45.1013 36.9135 43.7884 35.7006C42.4754 34.4876 40.7357 33.8438 38.9495 33.9098ZM38.9495 44.6123C37.7585 44.6772 36.59 44.2692 35.6981 43.4772C34.8062 42.6852 34.263 41.5732 34.1866 40.3828C34.325 39.2168 34.8863 38.1421 35.7641 37.3623C36.6419 36.5825 37.7753 36.1518 38.9495 36.1518C40.1237 36.1518 41.257 36.5825 42.1349 37.3623C43.0127 38.1421 43.574 39.2168 43.7124 40.3828C43.6359 41.5732 43.0928 42.6852 42.2009 43.4772C41.309 44.2692 40.1405 44.6772 38.9495 44.6123ZM52.1685 54.2968V67.1385C52.1684 67.2859 52.1973 67.432 52.2536 67.5683C52.31 67.7045 52.3926 67.8283 52.4969 67.9326C52.6012 68.0369 52.725 68.1195 52.8613 68.1759C52.9975 68.2322 53.1436 68.2611 53.291 68.261H65.0603C65.2078 68.2611 65.3538 68.2322 65.4901 68.1759C65.6264 68.1195 65.7502 68.0369 65.8545 67.9326C65.9587 67.8283 66.0414 67.7045 66.0978 67.5683C66.1541 67.432 66.183 67.2859 66.1828 67.1385V54.2968C66.183 54.1494 66.1541 54.0033 66.0978 53.8671C66.0414 53.7308 65.9587 53.607 65.8545 53.5027C65.7502 53.3984 65.6264 53.3158 65.4901 53.2594C65.3538 53.2031 65.2078 53.1742 65.0603 53.1744H53.291C53.1436 53.1742 52.9975 53.2031 52.8613 53.2594C52.725 53.3158 52.6012 53.3984 52.4969 53.5027C52.3926 53.607 52.31 53.7308 52.2536 53.8671C52.1973 54.0033 52.1684 54.1494 52.1685 54.2968ZM63.9379 66.0174H63.8125C63.8599 65.9533 63.8961 65.8823 63.9379 65.8141V66.0174ZM54.4121 55.4193H63.9379V63.292C63.6728 62.8799 63.3072 62.542 62.8754 62.3103C62.4437 62.0786 61.96 61.9606 61.4701 61.9676C60.7504 61.935 60.0472 62.1888 59.5142 62.6735C58.9813 63.1582 58.662 63.8342 58.6263 64.5537C58.6286 65.0829 58.8047 65.5967 59.1276 66.016H54.4121V55.4193ZM23.8684 53.173H12.1005C11.9529 53.1728 11.8068 53.2017 11.6704 53.2582C11.5341 53.3146 11.4102 53.3974 11.3059 53.5018C11.2016 53.6062 11.119 53.7302 11.0627 53.8666C11.0064 54.0031 10.9777 54.1493 10.978 54.2968V67.1385C10.9778 67.2858 11.0067 67.4318 11.063 67.5679C11.1192 67.7041 11.2018 67.8279 11.3059 67.9321C11.41 68.0364 11.5337 68.1191 11.6698 68.1755C11.8059 68.2319 11.9518 68.261 12.0991 68.261H23.867C24.0146 68.2613 24.1608 68.2326 24.2972 68.1763C24.4337 68.12 24.5576 68.0374 24.6621 67.9331C24.7665 67.8288 24.8493 67.7049 24.9057 67.5686C24.9621 67.4322 24.9911 67.2861 24.9909 67.1385V54.2968C24.9911 54.1494 24.9622 54.0033 24.9058 53.8671C24.8495 53.7308 24.7668 53.607 24.6626 53.5027C24.5583 53.3984 24.4345 53.3158 24.2982 53.2594C24.1619 53.2031 24.0159 53.1742 23.8684 53.1744V53.173ZM22.746 62.5845C22.2229 62.1835 21.582 61.9666 20.923 61.9676C20.2033 61.935 19.5001 62.1888 18.9671 62.6735C18.4342 63.1582 18.1149 63.8342 18.0792 64.5537C18.0814 65.0829 18.2576 65.5967 18.5805 66.016H13.2216V55.4179H22.7473L22.746 62.5845Z" fill="#0022CD"/>
    <path d="M121.652 14.0393C121.54 13.9256 121.407 13.8351 121.26 13.773C121.113 13.7108 120.955 13.6783 120.796 13.6773L119.874 13.6689L118.019 3.00813L112.415 2.96635L112.437 0.0626695L104.199 0L104.177 2.90229L70.5069 2.64465L68.489 13.2762L67.5684 13.2692H67.5587C67.2383 13.2692 66.9308 13.3958 66.7034 13.6214C66.4759 13.8471 66.3468 14.1535 66.3443 14.4739L66.3067 19.3119C66.3052 19.4715 66.3352 19.6298 66.395 19.7778C66.4547 19.9258 66.5431 20.0606 66.6549 20.1744C66.7668 20.2882 66.9001 20.3789 67.047 20.4412C67.1939 20.5035 67.3517 20.5362 67.5113 20.5375L69.2006 20.55L69.078 36.6003L65.5936 29.2026C65.5028 29.0101 65.3591 28.8474 65.1794 28.7335C64.9996 28.6196 64.7912 28.5591 64.5784 28.5591H47.173L39.8616 18.3259C39.7576 18.181 39.6207 18.063 39.4621 17.9815C39.3034 17.9001 39.1277 17.8576 38.9494 17.8576C38.7711 17.8576 38.5953 17.9001 38.4367 17.9815C38.278 18.063 38.1411 18.181 38.0372 18.3259L30.7258 28.5591H13.3204C13.1073 28.5589 12.8986 28.6192 12.7186 28.7331C12.5385 28.8471 12.3947 29.0099 12.3037 29.2026L5.24298 44.1986C5.17384 44.3441 5.13724 44.5028 5.13574 44.6638V75.713C5.13556 75.8605 5.16447 76.0065 5.22081 76.1428C5.27716 76.2791 5.35983 76.4029 5.4641 76.5071C5.56837 76.6114 5.69218 76.6941 5.82845 76.7504C5.96472 76.8068 6.11076 76.8357 6.25822 76.8355H65.9529C66.036 77.0674 66.1881 77.2684 66.3888 77.4113C66.5894 77.5542 66.8291 77.6322 67.0754 77.6349L120.303 78.0429H120.312C120.633 78.0429 120.94 77.9163 121.168 77.6907C121.395 77.465 121.524 77.1587 121.527 76.8383L121.563 71.9988C121.564 71.8393 121.534 71.6812 121.474 71.5333C121.414 71.3855 121.326 71.2509 121.214 71.1372C121.102 71.0236 120.969 70.933 120.822 70.8708C120.675 70.8086 120.518 70.7759 120.358 70.7747L118.67 70.7607L119.051 20.9316L120.739 20.9441H120.748C121.069 20.9441 121.376 20.8175 121.604 20.5919C121.831 20.3662 121.96 20.0599 121.963 19.7395L122 14.9C122.002 14.7405 121.972 14.5822 121.912 14.4343C121.852 14.2864 121.764 14.1517 121.652 14.0379V14.0393ZM102.945 49.6592C102.942 49.4722 102.897 49.2883 102.811 49.1218C102.726 48.9553 102.603 48.8107 102.453 48.6994C102.303 48.588 102.129 48.5129 101.945 48.4799C101.761 48.4468 101.571 48.4568 101.392 48.5089C96.0488 49.688 90.5179 49.7335 85.1562 48.6426C84.9728 48.5858 84.7785 48.5732 84.5893 48.606C84.4001 48.6388 84.2214 48.716 84.0678 48.8313C83.9143 48.9465 83.7902 49.0966 83.7058 49.2691C83.6215 49.4415 83.5792 49.6316 83.5825 49.8236C83.8193 64.1791 84.4975 68.8584 85.0337 70.5031L71.2492 70.3973L71.6308 20.5681L116.622 20.9121L116.24 70.7412L101.466 70.6298C102.949 67.6426 103.037 56.3969 102.945 49.6592ZM99.3571 69.4753C98.1622 70.5546 89.0487 70.4195 87.2522 69.6424C86.6881 68.0005 86.2133 59.4705 86.0406 51.343C90.8479 52.0592 95.7381 52.0131 100.531 51.2065C100.58 59.3159 100.169 68.1941 99.3571 69.4753ZM63.8667 30.8013L69.0377 41.7838L69.0237 43.5399H57.8769L48.7759 30.8013H63.8667ZM14.032 30.8013H29.1228L20.0218 43.5399H8.03385L14.032 30.8013ZM44.9058 74.5919H32.7757V59.8298H44.9058V74.5919ZM66.2691 70.7162C66.1553 70.8281 66.0648 70.9614 66.0027 71.1083C65.9406 71.2553 65.908 71.4131 65.907 71.5727L65.8833 74.5919H46.8972V58.8341C46.8972 58.57 46.7923 58.3167 46.6056 58.13C46.4189 57.9432 46.1656 57.8383 45.9015 57.8383H31.7786C31.5145 57.8383 31.2612 57.9432 31.0745 58.13C30.8878 58.3167 30.7829 58.57 30.7829 58.8341V74.5919H7.3807V45.7988H18.4704C18.4122 45.9675 18.3952 46.1476 18.4208 46.3242C18.4464 46.5008 18.5139 46.6687 18.6176 46.8139C18.7214 46.959 18.8583 47.0773 19.0171 47.1587C19.1758 47.2402 19.3518 47.2824 19.5302 47.282H23.977C24.1276 47.2873 24.2778 47.2622 24.4185 47.2082C24.5592 47.1542 24.6877 47.0725 24.7961 46.9678C24.9045 46.8631 24.9908 46.7376 25.0497 46.5989C25.1086 46.4601 25.139 46.3109 25.139 46.1602C25.139 46.0095 25.1086 45.8603 25.0497 45.7215C24.9908 45.5828 24.9045 45.4573 24.7961 45.3526C24.6877 45.2479 24.5592 45.1662 24.4185 45.1122C24.2778 45.0582 24.1276 45.0331 23.977 45.0384H21.7111L38.9494 20.9079L56.1863 45.0398H53.4009C53.2503 45.0345 53.1001 45.0596 52.9594 45.1136C52.8187 45.1676 52.6902 45.2493 52.5818 45.354C52.4734 45.4587 52.3871 45.5842 52.3282 45.7229C52.2693 45.8617 52.2389 46.0109 52.2389 46.1616C52.2389 46.3123 52.2693 46.4615 52.3282 46.6003C52.3871 46.739 52.4734 46.8645 52.5818 46.9692C52.6902 47.0739 52.8187 47.1556 52.9594 47.2096C53.1001 47.2636 53.2503 47.2887 53.4009 47.2834H58.3685C58.5468 47.2836 58.7226 47.2412 58.8812 47.1596C59.0398 47.0781 59.1766 46.9598 59.2801 46.8147C59.3837 46.6695 59.4511 46.5017 59.4766 46.3252C59.5022 46.1488 59.4851 45.9688 59.427 45.8002H69.0084L68.819 70.3805L67.1311 70.3694C66.9711 70.3642 66.8118 70.3924 66.6633 70.4524C66.5148 70.5123 66.3806 70.6027 66.2691 70.7176V70.7162ZM119.124 73.1951L119.106 75.6044L68.3093 75.2144L68.3274 72.8052L68.8009 72.8093L118.651 73.1909L119.124 73.1951ZM115.974 5.42299L117.405 13.6494L112.332 13.6118L112.395 5.39514L115.974 5.42299ZM109.966 2.79923L109.902 13.5923L106.525 13.5672L106.588 2.77277L109.966 2.79923ZM70.9581 13.2943L72.5151 5.09154L104.159 5.33247L104.096 13.5491L95.6262 13.4837L70.9581 13.2943ZM68.7452 18.117L68.7633 15.7077L119.562 16.0977L119.544 18.5056L68.7452 18.117Z" fill="#0022CD"/>
    <path d="M69.8646 43.5413L69.5234 42.8171V43.5413H69.8646Z" fill="#0022CD"/>
</svg>
