<svg width="128" height="128" viewBox="0 0 128 128" fill="none" xmlns="http://www.w3.org/2000/svg">
    <g clip-path="url(#clip0_1_2544)">
        <path d="M65 38L40.5 52V77.5L49 79L58 92.5H63L61 84.5H85L88.5 86.5V52L65 38Z" fill="white"/>
        <path d="M99.5 49C97.5 47.8 75.6667 35.5 65 29.5C55.3334 35 35.2 46.6 32 49C28 52 32.5 56.5 36 54.5C38.8 52.9 56.5 42.8333 65 38C73.5 43 91.5 53.5 95.5 55.5C100.5 58 102 50.5 99.5 49Z" fill="#EBF0F6"/>
        <path d="M105.633 94.5C104.533 94.5 103.633 95.3667 103.633 96.4667C103.633 97.5667 104.533 98.4333 105.633 98.4333C106.733 98.4333 107.633 97.5667 107.633 96.4667C107.633 95.3667 106.733 94.5 105.633 94.5Z" fill="#0022CD"/>
        <path d="M115.267 85.8C115.133 85.6667 115 85.5334 114.8 85.4667C114.633 85.4 114.433 85.3667 114.267 85.3667H100C99.2666 85.3667 98.6666 85.9334 98.6666 86.7V91.3667H95.5L86.2666 83.3C86.0333 83.0667 85.7 82.9334 85.4 82.9334H60.7333C60 82.9334 59.5 83.4334 59.4 84.2L59.3 85.2C59.2 86.9 59.8 88.9 60.9666 90.6667L61.4666 91.4333H59.2333L52.8666 81.7667C51 78.3 47.0333 75.1334 42.7333 76.2L42.1 76.3667V52.8667L42.3666 52.6L64.8666 39.3334L87.6 52.6334V78C87.6 78.7334 88.1666 79.3334 88.9333 79.3334C89.6666 79.3334 90.2666 78.7667 90.2666 78V54.1667L94.4 56.5334C95.3 57.0334 96.1333 57.2667 97 57.2667C98.8666 57.2667 100.533 56.3334 101.433 54.7667C102.133 53.6 102.367 52.1667 102 50.8667C101.833 50.2 101.533 49.6 101.1 49.0667C100.7 48.5334 100.167 48.1 99.5667 47.7667L67.4333 28.8667C65.8333 27.9334 63.8333 27.9334 62.1333 28.8667L50.4666 35.8334V29.7667C50.4666 29.6 50.4333 29.4334 50.3666 29.2667C50.3 29.1 50.2 28.9667 50.0666 28.8334C49.9333 28.7 49.8 28.6 49.6333 28.5334C49.4666 28.4667 49.3 28.4334 49.1333 28.4334H40.7666C40.0333 28.4334 39.4333 29 39.4333 29.7667V42.3334L31.5333 47.0667C29.1333 48.5334 28.3 51.7 29.6666 54.1C30.4 55.3 31.5 56.1334 32.8333 56.5C34.1333 56.8667 35.5 56.6667 36.7 55.9334L39.3333 54.3334V77.3334L39.2333 80.2334L38.3 79.8334C36.9333 79.2 35.4666 78.8667 33.9333 78.8667C32.0333 78.8667 30.1 79.4667 28.5666 81.0667L26.7333 82.9C26.6333 83.0667 26.3666 83.4667 26.4666 83.8667C26.5666 84.3667 26.7333 84.6667 27.0333 84.8667L49.4 100.233C49.5 100.3 49.5666 100.333 49.5666 100.367L84.5666 113.3C84.7 113.367 84.8333 113.367 85 113.367H98.6666V116C98.6666 116.733 99.2333 117.333 100 117.333H109.267C110 117.333 110.6 116.767 110.6 116C110.6 115.833 110.567 115.667 110.5 115.5C110.433 115.333 110.333 115.2 110.2 115.067C110.067 114.933 109.933 114.833 109.767 114.767C109.6 114.7 109.433 114.667 109.267 114.667H101.333V88.1667H114.167C114.9 88.1667 115.5 87.6 115.5 86.8334C115.6 86.2667 115.433 85.9667 115.267 85.8ZM43.0666 78.8667C46 77.9667 49 80.2667 50.4 82.9667L50.4333 83.0334C50.4666 83.1 50.5 83.1334 50.5333 83.2L55.4 89.4333L44.2333 83.1V83.0667L42.1666 79.1667L43.0666 78.8667ZM42.1 31.1H47.7333V37.3667L42.1 40.7334V31.1ZM35.3666 53.5667C34.9 53.9 34.3 54 33.5666 53.8334C32.9 53.7 32.3666 53.3 32 52.6667C31.3333 51.5 31.7666 49.9667 32.9 49.3334L63.5666 31.1667C63.9333 30.9 64.3666 30.7667 64.8 30.8C65.2333 30.8 65.6666 30.9334 66.0333 31.2L98.1333 49.9667C99.2666 50.6 99.7 52.1334 99.0333 53.3C98.8666 53.5667 98.6666 53.8 98.4333 54C98.2 54.2 97.9 54.3334 97.6 54.4C96.9666 54.5667 96.2666 54.5 95.7 54.2L65.5 36.5C65 36.1667 64.6666 36.2 64.2333 36.5L35.3666 53.5667ZM98.7 110.533L85.2666 110.5L50.8 97.7334L30 83.5L30.6333 82.8667C32.7333 80.7667 36.4666 81.4334 39 83.1334H39.0666L39.3333 83.3L57.8 93.9667C58 94.1 58.1666 94.1 58.4666 94.1H80.9C81.6333 94.1 82.2333 93.5333 82.2333 92.7667C82.2333 92.6 82.2 92.4333 82.1333 92.2667C82.0666 92.1 81.9666 91.9667 81.8333 91.8334C81.7 91.7 81.5666 91.6 81.4 91.5334C81.2333 91.4667 81.0666 91.4333 80.9 91.4333H66.6333C65.5666 91.3334 64.5333 90.7 63.5 89.5334C62.7666 88.6 62.2666 87.5 62.0666 86.3667L61.9333 85.7667H84.9666L94.2 93.8334C94.4333 94.0667 94.7666 94.2 95.0667 94.2H98.7333L98.7 110.533Z" fill="#0022CD"/>
        <path d="M79.9001 63.7996C79.9001 65.8663 79.5001 67.933 78.7001 69.8663C77.9001 71.7996 76.7334 73.533 75.2667 74.9996C73.8001 76.4663 72.0667 77.633 70.1334 78.433C68.2001 79.233 66.1667 79.633 64.0667 79.633C62.0001 79.633 59.9334 79.233 58.0001 78.433C56.0667 77.633 54.3334 76.4663 52.8667 74.9996C51.4001 73.533 50.2334 71.7996 49.4334 69.8663C48.6334 67.933 48.2334 65.8996 48.2334 63.7996C48.2334 59.5996 49.9001 55.5663 52.8667 52.5996C55.8334 49.633 59.8667 47.9663 64.0667 47.9663C68.2667 47.9663 72.3001 49.633 75.2667 52.5996C78.2334 55.5996 79.9001 59.633 79.9001 63.7996Z" fill="#CCFF69"/>
        <path fill-rule="evenodd" clip-rule="evenodd" d="M64.0667 77.0663C67.6001 77.0663 70.9667 75.6663 73.4334 73.1663C75.9334 70.6663 77.3334 67.2996 77.3334 63.7996C77.3334 60.2663 75.9334 56.8996 73.4334 54.433C70.9334 51.933 67.5667 50.533 64.0667 50.533C60.5334 50.533 57.1667 51.933 54.7001 54.433C52.2001 56.933 50.8001 60.2996 50.8001 63.7996C50.8001 67.333 52.2001 70.6996 54.7001 73.1663C57.2001 75.6663 60.5667 77.0663 64.0667 77.0663ZM64.0667 79.633C68.2667 79.633 72.3001 77.9663 75.2667 74.9996C78.2334 72.033 79.9001 67.9996 79.9001 63.7996C79.9001 59.5996 78.2334 55.5663 75.2667 52.5996C72.3001 49.633 68.2667 47.9663 64.0667 47.9663C59.8667 47.9663 55.8334 49.633 52.8667 52.5996C49.9001 55.5663 48.2334 59.5996 48.2334 63.7996C48.2334 67.9996 49.9001 72.033 52.8667 74.9996C55.8334 77.9663 59.8667 79.633 64.0667 79.633Z" fill="#0022CD"/>
        <path d="M54.1667 63.0671V61.1671H56.6334C57.1334 59.6337 58.1001 58.2671 59.4334 57.3337C60.7667 56.3671 62.3001 55.9004 64.0001 55.9004C66.5334 55.9004 68.5334 56.7671 70.0001 58.4671L68.3001 60.4671C67.6001 59.7671 66.9334 59.2671 66.3001 59.0004C65.6667 58.7337 64.9001 58.5671 64.0001 58.5671C63.0667 58.5671 62.2334 58.8004 61.5001 59.2671C60.7667 59.7004 60.2334 60.3337 59.8667 61.1671H65.5334V63.0671H59.3667C59.3334 63.3337 59.3334 63.6004 59.3334 63.9004C59.3334 64.2671 59.3667 64.6004 59.4001 64.9337H65.5334V66.8337H60.0667C60.9334 68.3671 62.1667 69.1337 63.9667 69.1337C64.8334 69.1337 65.5667 69.0004 66.1667 68.7004C66.8001 68.4004 67.4334 67.9004 68.1334 67.2671L69.8334 69.1671C68.3667 70.8671 66.4001 71.7337 64.0001 71.7337C62.3334 71.7337 60.8667 71.3004 59.6001 70.4337C58.3334 69.5671 57.3668 68.3004 56.8668 66.8671H54.2667V64.9671H56.4001C56.3667 64.6004 56.3334 64.2671 56.3334 63.9004C56.3334 63.5337 56.3334 63.3004 56.3668 63.1337H54.1667V63.0671Z" fill="#0022CD"/>
        <path d="M0 64C0 28.7 28.7 0 64 0C99.3 0 128 28.7 128 64C128 68 127.633 72 126.9 75.9C126.767 76.6333 126.067 77.1 125.333 76.9667C124.6 76.8333 124.133 76.1333 124.267 75.4C124.967 71.6667 125.333 67.8333 125.333 64C125.333 30.1667 97.8333 2.66667 64 2.66667C30.1667 2.66667 2.66667 30.1667 2.66667 64C2.66667 97.8333 30.1667 125.333 64 125.333C67.3333 125.333 70.7 125.067 73.9667 124.533C74.7 124.4 75.3667 124.9 75.5 125.633C75.6333 126.367 75.1333 127.033 74.4 127.167C71 127.7 67.5 128 64 128C28.7 128 0 99.3 0 64Z" fill="#C4D3E4"/>
    </g>
    <defs>
        <clipPath id="clip0_1_2544">
            <rect width="128" height="128" fill="white"/>
        </clipPath>
    </defs>
</svg>
