<svg width="33" height="59" viewBox="0 0 33 59" fill="none" xmlns="http://www.w3.org/2000/svg">
    <rect width="33" height="59" rx="3" fill="#A8BEEA"/>
    <rect x="17" y="42" width="10" height="17" rx="1" fill="#133DBD"/>
    <rect x="22" y="11" width="5" height="5" rx="1" fill="#133DBD"/>
    <rect x="22" y="4" width="5" height="5" rx="1" fill="#133DBD"/>
    <rect x="14" y="4" width="5" height="5" rx="1" fill="#133DBD"/>
    <rect x="6" y="4" width="5" height="5" rx="1" fill="#133DBD"/>
    <circle cx="17" cy="28" r="8" fill="#C4D3E4"/>
    <path fill-rule="evenodd" clip-rule="evenodd" d="M17 18C11.48 18 7 22.48 7 28C7 33.52 11.48 38 17 38C22.52 38 27 33.52 27 28C27 22.48 22.52 18 17 18ZM16 35V33H18V35H16ZM19.17 28.17L20.07 27.25C21.09 26.23 21.44 24.48 20.26 22.85C19.36 21.6 17.91 20.81 16.39 21.05C14.84 21.29 13.59 22.41 13.16 23.88C13 24.44 13.4 25 13.98 25H14.28C14.67 25 14.98 24.72 15.1 24.35C15.43 23.4 16.46 22.77 17.57 23.08C18.27 23.28 18.83 23.89 18.96 24.61C19.09 25.31 18.87 25.97 18.41 26.41L17.17 27.67C16.75 28.09 16.42 28.61 16.22 29.19C16.08 29.6 16 30.04 16 30.5V31H18C18 30.54 18.05 30.18 18.13 29.86C18.31 29.14 18.67 28.68 19.17 28.17Z" fill="#133DBD"/>
</svg>
