<svg width="72" height="72" viewBox="0 0 72 72" fill="none" xmlns="http://www.w3.org/2000/svg">
    <rect x="11.9189" y="37.3732" width="48.1622" height="20.578" fill="white"/>
    <path d="M54.608 27.0842H17.3918L12.2837 37.0058H59.7161L54.608 27.0842Z" fill="#C4D3E4"/>
    <path d="M43.5869 31.6051L41.8878 28.9621L35.8822 19.6777L29.8934 28.9621L28.1775 31.6051L23.9719 38.1109H25.4187V59.6107H29.2878V60.3392H42.4261V59.6107H46.3457V38.1109H47.7925L43.5869 31.6051Z" fill="white"/>
    <rect x="31.6216" y="41.0479" width="8.75676" height="14.6986" fill="#EBF0F6"/>
    <path d="M63 57.476H60.4262V37.0944V37.0775C60.4262 37.0436 60.4262 37.0266 60.4262 36.9927C60.4262 36.9589 60.4093 36.908 60.3925 36.8741C60.3757 36.8233 60.3589 36.7894 60.3421 36.7555L55.1944 26.624C55.0766 26.4038 54.8411 26.2513 54.5888 26.2513H44.0916V19.6777C44.0916 19.305 43.7888 19 43.4187 19H39.8019C39.4318 19 39.129 19.305 39.129 19.6777V23.4728L36.4374 19.305C36.3196 19.1186 36.1009 19 35.8654 19C35.6299 19 35.428 19.1186 35.2935 19.305L30.8019 26.2513H17.1757C16.9234 26.2513 16.6879 26.3868 16.5701 26.624L11.4393 36.7555C11.4224 36.7894 11.4056 36.8403 11.3888 36.8741C11.372 36.908 11.372 36.9589 11.3551 36.9927C11.3551 37.0266 11.3551 37.0436 11.3551 37.0775V37.0944V57.476H9V58.8314H11.9439C11.9776 58.8314 11.9944 58.8314 12.028 58.8314H24.7626V59.5938C24.7626 59.9665 25.0654 60.2715 25.4355 60.2715H28.6318V60.3223C28.6318 60.695 28.9346 61 29.3047 61H42.443C42.8131 61 43.1159 60.695 43.1159 60.3223V60.2715H46.3458C46.7159 60.2715 47.0187 59.9665 47.0187 59.5938V58.8314H59.7533C59.7869 58.8314 59.8037 58.8314 59.8374 58.8314H63V57.476ZM58.643 36.4167H47.5065L46.043 34.1464H57.4991L58.643 36.4167ZM44.0916 27.6067H54.1851L54.9757 29.1484H44.1084V27.6067H44.0916ZM55.6654 30.5208L56.8262 32.791H45.1682L44.1084 31.1476V30.5208H55.6654ZM42.7458 29.0637L41.8037 27.6236H42.7458V29.0637ZM40.4916 20.3554H42.7626V26.2683H40.9458L40.4916 25.5736V20.3554ZM17.5963 27.6067H29.9607L28.9682 29.1484H16.8056L17.5963 27.6067ZM16.1327 30.4869C16.1832 30.5038 16.2336 30.5038 16.2841 30.5038H28.0766L26.6131 32.7741H14.972L16.1327 30.4869ZM14.2991 34.0956C14.3832 34.1295 14.4673 34.1464 14.5682 34.1464H25.7383L24.2748 36.4167H13.1215L14.2991 34.0956ZM22.4579 57.4929H12.7009V37.789H23.4C23.2822 37.9923 23.2822 38.2295 23.4 38.4328C23.5178 38.6531 23.7364 38.7886 23.9888 38.7886H24.7626V57.476H22.4579V57.4929ZM41.7533 59.6616H29.9607V58.8314H30.9869H40.7103H41.7365V59.6616H41.7533ZM39.5159 55.2904H32.1981V42.1263H39.5159V55.2904ZM31.6598 56.6458H40.0374V57.476H31.6598V56.6458ZM45.6729 38.1109V58.933H43.0991V58.1537C43.0991 57.781 42.7963 57.476 42.4262 57.476H41.4V55.9681C41.4 55.6462 41.1645 55.3752 40.8617 55.3074V41.4486C40.8617 41.0758 40.5589 40.7709 40.1888 40.7709H31.5252C31.1551 40.7709 30.8523 41.0758 30.8523 41.4486V55.3074C30.5495 55.3752 30.314 55.6462 30.314 55.9681V57.476H29.2879C28.9178 57.476 28.615 57.781 28.615 58.1537V58.933H26.0916V38.1109C26.0916 37.7382 25.7888 37.4332 25.4187 37.4332H25.2168L35.8822 20.9145L46.5477 37.4332H46.3458C45.9757 37.4332 45.6729 37.7382 45.6729 38.1109ZM47.0187 38.7886H47.7925C48.0449 38.7886 48.2636 38.6531 48.3813 38.4328C48.4991 38.2295 48.4822 37.9754 48.3813 37.789H59.0804V57.476H49.5421H47.0187V38.7886Z" fill="#133DBD"/>
    <path d="M42.7414 20.4359H40.3652V25.5093L42.7414 29.0511V20.4359Z" fill="white"/>
    <path d="M22.3072 42.9562H15.0904C14.7203 42.9562 14.4175 43.2612 14.4175 43.6339V52.3423C14.4175 52.715 14.7203 53.02 15.0904 53.02H22.3072C22.6773 53.02 22.9801 52.715 22.9801 52.3423V43.6339C22.9801 43.2612 22.6773 42.9562 22.3072 42.9562ZM21.6343 51.6646H15.7633V44.3116H21.6343V51.6646Z" fill="#133DBD"/>
    <path d="M56.2371 53.02C56.6072 53.02 56.91 52.715 56.91 52.3423V43.6339C56.91 43.2612 56.6072 42.9562 56.2371 42.9562H49.0203C48.6502 42.9562 48.3474 43.2612 48.3474 43.6339V52.3423C48.3474 52.715 48.6502 53.02 49.0203 53.02H56.2371ZM49.6932 44.3116H55.5642V51.6646H49.6932V44.3116Z" fill="#133DBD"/>
    <path d="M68.5927 31.5929C68.5927 33.1504 67.3184 34.4248 65.7608 34.4248H38.1502C36.5927 34.4248 35.3184 33.1504 35.3184 31.5929V12.8319C35.3184 11.2743 36.5927 10 38.1502 10H65.7608C67.3184 10 68.5927 11.2743 68.5927 12.8319V31.5929Z" fill="#65D78D"/>
    <path d="M45.3082 15.1326V16.0833H47.6389V17.5093H45.3082V19.288H43.4221V13.7065H47.9609V15.1326H45.3082Z" fill="#133DBD"/>
    <path d="M49.8324 19.0433C49.3571 18.7979 48.9738 18.4452 48.7131 18.0006C48.4371 17.5559 48.2991 17.0499 48.2991 16.4979C48.2991 15.9459 48.4371 15.4398 48.7131 14.9952C48.9891 14.5505 49.3571 14.1978 49.8324 13.9525C50.3078 13.7071 50.8445 13.5845 51.4578 13.5845C52.0558 13.5845 52.5925 13.7071 53.0832 13.9525C53.5585 14.1978 53.9419 14.5505 54.2025 14.9952C54.4786 15.4398 54.6166 15.9459 54.6166 16.4979C54.6166 17.0499 54.4786 17.5559 54.2025 18.0006C53.9265 18.4452 53.5585 18.7979 53.0832 19.0433C52.6078 19.2886 52.0712 19.4113 51.4578 19.4113C50.8445 19.4113 50.3078 19.2886 49.8324 19.0433ZM52.0865 17.7246C52.2705 17.6172 52.4238 17.4486 52.5312 17.2339C52.6385 17.0192 52.6998 16.7739 52.6998 16.4979C52.6998 16.2219 52.6385 15.9765 52.5312 15.7619C52.4238 15.5472 52.2705 15.3938 52.0865 15.2712C51.9025 15.1485 51.6878 15.1025 51.4578 15.1025C51.2278 15.1025 51.0131 15.1638 50.8291 15.2712C50.6451 15.3785 50.4918 15.5472 50.3845 15.7619C50.2771 15.9765 50.2158 16.2219 50.2158 16.4979C50.2158 16.7739 50.2771 17.0192 50.3845 17.2339C50.4918 17.4486 50.6451 17.6019 50.8291 17.7246C51.0131 17.8319 51.2278 17.8932 51.4578 17.8932C51.6878 17.8932 51.8872 17.8319 52.0865 17.7246Z" fill="#133DBD"/>
    <path d="M57.6679 17.8929H57.1619V19.3036H55.2759V13.7222H57.9593C58.4806 13.7222 58.9253 13.8142 59.3086 13.9828C59.692 14.1515 59.9833 14.3969 60.198 14.7189C60.4127 15.0409 60.5047 15.4089 60.5047 15.8382C60.5047 16.2369 60.4127 16.5896 60.2287 16.8809C60.0447 17.1722 59.784 17.4176 59.4466 17.5863L60.612 19.3036H58.6033L57.6679 17.8929ZM58.4193 15.3322C58.2966 15.2249 58.0973 15.1635 57.8519 15.1635H57.1619V16.4669H57.8519C58.1126 16.4669 58.2966 16.4056 58.4193 16.2982C58.542 16.1909 58.6033 16.0222 58.6033 15.8229C58.6186 15.6082 58.5573 15.4395 58.4193 15.3322Z" fill="#133DBD"/>
    <path d="M42.0734 27.005C41.6287 26.8977 41.276 26.7597 41 26.591L41.6133 25.2263C41.874 25.3796 42.1807 25.5023 42.5027 25.5943C42.8247 25.6863 43.1467 25.7323 43.4534 25.7323C43.7141 25.7323 43.8981 25.7016 44.0054 25.6556C44.1127 25.6096 44.1741 25.533 44.1741 25.4256C44.1741 25.303 44.0974 25.2263 43.9594 25.165C43.8061 25.1036 43.5761 25.0423 43.2387 24.9809C42.8094 24.8889 42.4567 24.7969 42.1654 24.6896C41.874 24.5823 41.6287 24.4136 41.414 24.1836C41.1993 23.9536 41.092 23.6316 41.092 23.2176C41.092 22.8649 41.184 22.5429 41.3833 22.2669C41.5827 21.9755 41.874 21.7609 42.2574 21.5922C42.6407 21.4235 43.116 21.3469 43.6834 21.3469C44.0667 21.3469 44.4347 21.3929 44.8181 21.4695C45.1861 21.5462 45.5081 21.6689 45.7994 21.8375L45.2321 23.2022C44.6801 22.9262 44.1587 22.7882 43.6834 22.7882C43.1927 22.7882 42.9627 22.9109 42.9627 23.1409C42.9627 23.2482 43.0394 23.3402 43.1774 23.3862C43.3154 23.4476 43.5607 23.5089 43.8827 23.5702C44.3121 23.6469 44.6648 23.7389 44.9561 23.8463C45.2474 23.9536 45.5081 24.1223 45.7228 24.3523C45.9374 24.5823 46.0448 24.9043 46.0448 25.303C46.0448 25.6556 45.9528 25.9776 45.7534 26.2536C45.5541 26.545 45.2628 26.7597 44.8794 26.9283C44.4961 27.097 44.0207 27.1737 43.4534 27.1737C42.9627 27.1583 42.518 27.1123 42.0734 27.005Z" fill="#133DBD"/>
    <path d="M50.3842 26.0688H48.2681L47.9001 27.0348H45.9834L48.4215 21.4534H50.2768L52.7149 27.0348H50.7675L50.3842 26.0688ZM49.8781 24.7041L49.3415 23.2934L48.8048 24.7041H49.8781Z" fill="#133DBD"/>
    <path d="M53.0212 21.4534H54.9073V25.5781H57.422V27.0348H53.0212V21.4534Z" fill="#133DBD"/>
    <path d="M62.5743 25.6245V27.0505H57.9282V21.4691H62.467V22.8951H59.7836V23.5544H62.145V24.9038H59.7836V25.6398H62.5743V25.6245Z" fill="#133DBD"/>
    <path d="M65.7608 31.2706C65.7608 31.701 65.2829 32.0532 64.6988 32.0532H39.3891C38.805 32.0532 38.3271 31.701 38.3271 31.2706V29.8358C38.3271 29.4054 38.805 29.0532 39.3891 29.0532H64.6988C65.2829 29.0532 65.7608 29.4054 65.7608 29.8358V31.2706Z" fill="white"/>
</svg>
