<svg width="24" height="24" viewBox="0 0 24 24" xmlns="http://www.w3.org/2000/svg">
    <path d="M22 5.89a8.262 8.262 0 01-2.358.64 4.019 4.019 0 001.799-2.235 8.388 8.388 0 01-2.608.985A4.113 4.113 0 0015.836 4c-2.268 0-4.096 1.812-4.096 4.037 0 .315.04.62.11.925A11.684 11.684 0 013.4 4.738c-.35.601-.56 1.29-.56 2.029 0 1.398.72 2.639 1.828 3.367a4.207 4.207 0 01-1.858-.502v.05c0 1.959 1.409 3.593 3.287 3.957-.34.089-.71.138-1.079.138-.26 0-.52-.03-.77-.069a4.092 4.092 0 003.827 2.807A8.294 8.294 0 012 18.188 11.763 11.763 0 008.284 20c7.542 0 11.658-6.154 11.658-11.49 0-.178 0-.345-.01-.522A7.993 7.993 0 0022 5.89z"/>
</svg>