<svg width="24" height="24" viewBox="0 0 24 24" fill="none" xmlns="http://www.w3.org/2000/svg">
    <path d="M23.5191 17.6785C23.0535 17.6785 22.8375 17.5009 22.5447 17.2561C22.1991 16.9681 21.7719 16.6129 20.9559 16.6129C20.1399 16.6129 19.7127 16.9681 19.3671 17.2561C19.1175 17.4625 18.9159 17.6161 18.5799 17.6593V9.14408L18.8295 9.34568C18.9207 9.41768 19.0263 9.45128 19.1319 9.45128C19.2035 9.45085 19.2741 9.43473 19.3388 9.40404C19.4035 9.37336 19.4607 9.32886 19.5063 9.27368C19.5862 9.17462 19.6239 9.04813 19.6113 8.92152C19.5987 8.7949 19.5369 8.6783 19.4391 8.59688L12.4023 2.86568C12.1719 2.67368 11.8359 2.67368 11.6007 2.86568L8.88391 5.07848V4.56008C8.88391 4.24808 8.62951 3.99368 8.31751 3.99368H6.81991C6.50791 3.99368 6.25351 4.24808 6.25351 4.56008V7.21928L4.56871 8.59208C4.47184 8.67348 4.41094 8.78976 4.39922 8.91575C4.3875 9.04173 4.42589 9.16726 4.50608 9.26513C4.58628 9.363 4.7018 9.42533 4.82763 9.43861C4.95346 9.45189 5.07945 9.41505 5.17831 9.33608L5.41831 9.14408V16.6177C4.72711 16.6657 4.33351 16.9873 4.01671 17.2513C3.72391 17.4961 3.50791 17.6737 3.04231 17.6737C2.57671 17.6737 2.36551 17.4961 2.06791 17.2513C1.72231 16.9633 1.29511 16.6081 0.483906 16.6081C0.219906 16.6081 0.00390625 16.8241 0.00390625 17.0881C0.00390625 17.3521 0.219906 17.5681 0.483906 17.5681C0.949506 17.5681 1.16071 17.7457 1.45831 17.9905C1.80391 18.2785 2.23111 18.6337 3.04231 18.6337C3.85351 18.6337 4.28551 18.2785 4.62631 17.9905C4.91911 17.7457 5.13511 17.5681 5.60071 17.5681C6.06631 17.5681 6.28231 17.7457 6.57511 17.9905C6.92071 18.2785 7.34791 18.6337 8.15911 18.6337C8.97031 18.6337 9.40231 18.2785 9.74311 17.9905C10.0359 17.7457 10.2519 17.5681 10.7175 17.5681C11.1831 17.5681 11.3991 17.7457 11.6919 17.9905C12.0375 18.2785 12.4647 18.6337 13.2807 18.6337C14.0967 18.6337 14.5239 18.2785 14.8647 17.9905C15.1575 17.7457 15.3687 17.5681 15.8391 17.5681C16.3095 17.5681 16.5207 17.7457 16.8135 17.9905C17.1591 18.2785 17.5863 18.6337 18.4023 18.6337C19.2183 18.6337 19.6455 18.2785 19.9911 17.9905C20.2839 17.7457 20.4999 17.5681 20.9655 17.5681C21.4311 17.5681 21.6471 17.7457 21.9399 17.9905C22.2855 18.2785 22.7127 18.6337 23.5287 18.6337C23.7927 18.6337 24.0087 18.4177 24.0087 18.1537C24.0087 17.8897 23.7927 17.6737 23.5287 17.6737L23.5191 17.6785ZM7.21351 4.96328H7.92391V5.86568L7.21351 6.44648V4.96328ZM9.12871 17.2561L8.88391 17.4481V12.6289H10.4391V16.6273C9.80071 16.6993 9.43591 17.0017 9.13351 17.2513L9.12871 17.2561ZM15.8343 16.6129C15.0231 16.6129 14.5911 16.9681 14.2503 17.2561C13.9575 17.5009 13.7463 17.6785 13.2759 17.6785C12.8055 17.6785 12.5943 17.5009 12.3015 17.2561C12.0711 17.0641 11.7975 16.8433 11.3943 16.7185V12.3025C11.3943 12.1344 11.3276 11.9733 11.2087 11.8545C11.0899 11.7356 10.9287 11.6689 10.7607 11.6689H8.55271C8.38466 11.6689 8.22351 11.7356 8.10468 11.8545C7.98586 11.9733 7.91911 12.1344 7.91911 12.3025V17.6545C7.60711 17.6017 7.41511 17.4577 7.17991 17.2561C6.96391 17.0785 6.71911 16.8721 6.36871 16.7425V8.36648L11.9991 3.77768L17.6199 8.35688V17.4145C17.5527 17.3665 17.4903 17.3137 17.4183 17.2513C17.0727 16.9633 16.6455 16.6081 15.8295 16.6081L15.8343 16.6129ZM18.3543 20.3137C17.8935 20.3137 17.6823 20.1361 17.3943 19.8961C17.0535 19.6081 16.6263 19.2529 15.8151 19.2529C15.0039 19.2529 14.5815 19.6081 14.2359 19.8961C13.9431 20.1409 13.7367 20.3137 13.2759 20.3137C12.8151 20.3137 12.6039 20.1361 12.3159 19.8961C11.9751 19.6081 11.5479 19.2529 10.7415 19.2529C9.93511 19.2529 9.50791 19.6081 9.16711 19.8961C8.87911 20.1409 8.66791 20.3137 8.20711 20.3137C7.74631 20.3137 7.53511 20.1361 7.24711 19.8961C6.90631 19.6081 6.47911 19.2529 5.67271 19.2529C5.40871 19.2529 5.19271 19.4689 5.19271 19.7329C5.19271 19.9969 5.40871 20.2129 5.67271 20.2129C6.13351 20.2129 6.34471 20.3905 6.63271 20.6305C6.97351 20.9185 7.40071 21.2737 8.20711 21.2737C9.01351 21.2737 9.44071 20.9185 9.78151 20.6305C10.0695 20.3857 10.2807 20.2129 10.7415 20.2129C11.2023 20.2129 11.4135 20.3905 11.7015 20.6305C12.0423 20.9185 12.4695 21.2737 13.2759 21.2737C14.0823 21.2737 14.5095 20.9185 14.8551 20.6305C15.1479 20.3857 15.3543 20.2129 15.8151 20.2129C16.2759 20.2129 16.4871 20.3905 16.7751 20.6305C17.1159 20.9185 17.5431 21.2737 18.3543 21.2737C18.6183 21.2737 18.8343 21.0577 18.8343 20.7937C18.8343 20.5297 18.6183 20.3137 18.3543 20.3137ZM15.9159 11.6689H13.1271C12.8007 11.6689 12.5319 11.9377 12.5319 12.2641V14.9953C12.5319 15.3217 12.8007 15.5905 13.1271 15.5905H15.9159C16.2423 15.5905 16.5111 15.3217 16.5111 14.9953V12.2641C16.5111 11.9377 16.2423 11.6689 15.9159 11.6689ZM15.5511 14.6257H13.4919V12.6289H15.5511V14.6257Z" fill="#63697D"/>
</svg>
