<svg width="24" height="20" viewBox="0 0 24 20" xmlns="http://www.w3.org/2000/svg">
    <path d="M21.72 19.715c.695 0 1.344-.315 1.781-.864.43-.54.593-1.234.447-1.905-.908-4.176-4.64-7.206-8.872-7.206-4.234 0-7.967 3.03-8.874 7.205a2.273 2.273 0 0 0 .446 1.906 2.27 2.27 0 0 0 1.782.864h13.29ZM15.503 9.595c2.784 0 5.048-2.102 5.048-4.687 0-2.584-2.264-4.686-5.048-4.686-2.782 0-5.046 2.102-5.046 4.686 0 2.585 2.264 4.687 5.046 4.687M.031 17.38C.776 14.302 3.8 12 7.417 12c.1 0 .197.008.297.011-1.505 1.265-2.608 2.93-3.068 4.83-.168.696-.03 1.406.35 2.016H1.364c-.858 0-1.517-.717-1.333-1.477m10.255-8.45c-.7.819-1.79 1.356-3.03 1.356-2.114 0-3.827-1.535-3.827-3.43 0-1.892 1.713-3.427 3.826-3.427.528 0 1.032.096 1.489.268a4.866 4.866 0 0 0-.218 1.422c0 1.486.672 2.833 1.76 3.811"/>
</svg>