<svg width="24" height="24" viewBox="0 0 24 24" fill="none" xmlns="http://www.w3.org/2000/svg">
    <path d="M23.52 18.1298C23.0544 18.1298 22.8384 17.9522 22.5456 17.7074C22.2 17.4194 21.7728 17.0642 20.9568 17.0642C20.1408 17.0642 19.7136 17.4194 19.368 17.7074C19.0752 17.9522 18.8592 18.1298 18.3936 18.1298C17.928 18.1298 17.712 17.9522 17.4192 17.7074C17.0736 17.4194 16.6464 17.0642 15.8304 17.0642L15.5424 17.0786C14.928 17.0786 14.3184 17.0738 13.9776 16.7378C13.7376 16.4978 13.6176 16.0754 13.6176 15.4706V11.5394H13.824C15.6672 11.4482 17.1888 9.93139 17.2896 8.09299C17.3176 7.60086 17.2457 7.10816 17.0782 6.64455C16.9108 6.18095 16.6512 5.75603 16.3152 5.39539C15.696 4.73299 14.88 4.32979 13.992 4.24819C13.536 3.08659 12.3696 2.27539 11.112 2.27539C9.8544 2.27539 9.1056 3.07699 8.4864 3.77779C8.4768 3.78739 8.4432 3.80659 8.4432 3.80659C7.0752 4.07059 6.144 5.11699 6.1344 6.41299C6.1296 7.17139 6.456 7.85299 6.9792 8.33299C6.9936 10.3394 8.0688 11.5346 9.864 11.5346H10.0176H10.392V14.4194C10.104 14.3042 9.8496 13.9922 9.7248 13.6754C9.6288 13.4306 9.3504 13.3058 9.1008 13.4066C8.856 13.5026 8.7312 13.781 8.832 14.0306C9.0816 14.6642 9.6528 15.2978 10.392 15.4082V16.2434C10.392 16.7378 10.104 16.9922 9.6576 17.3282C9.4512 17.4434 9.2784 17.5826 9.1296 17.7074C8.8368 17.9522 8.6208 18.1298 8.1552 18.1298C7.6896 18.1298 7.4736 17.9522 7.1808 17.7074C6.8352 17.4194 6.408 17.0642 5.5968 17.0642C4.7856 17.0642 4.3536 17.4194 4.0128 17.7074C3.72 17.9522 3.5088 18.1298 3.0384 18.1298C2.568 18.1298 2.3616 17.9522 2.064 17.7074C1.7184 17.4194 1.2912 17.0642 0.48 17.0642C0.216 17.0642 0 17.2802 0 17.5442C0 17.8082 0.216 18.0242 0.48 18.0242C0.9456 18.0242 1.1568 18.2018 1.4544 18.4466C1.8 18.7346 2.2272 19.0898 3.0384 19.0898C3.8496 19.0898 4.2816 18.7346 4.6224 18.4466C4.9152 18.2018 5.1264 18.0242 5.5968 18.0242C6.0672 18.0242 6.2784 18.2018 6.5712 18.4466C6.9168 18.7346 7.344 19.0898 8.1552 19.0898C8.9664 19.0898 9.3984 18.7346 9.7392 18.4466C10.032 18.2018 10.248 18.0242 10.7136 18.0242C11.1792 18.0242 11.3952 18.2018 11.688 18.4466C12.0336 18.7346 12.4608 19.0898 13.2768 19.0898C14.0928 19.0898 14.52 18.7346 14.8608 18.4466C15.12 18.2306 15.3216 18.077 15.6816 18.0434H15.8352C15.8352 18.0434 15.864 18.0338 15.8832 18.0338C16.3104 18.0482 16.5264 18.2162 16.8048 18.4514C17.1504 18.7394 17.5776 19.0946 18.3936 19.0946C19.2096 19.0946 19.6368 18.7394 19.9824 18.4514C20.2752 18.2066 20.4912 18.029 20.9568 18.029C21.4224 18.029 21.6384 18.2066 21.9312 18.4514C22.2768 18.7394 22.704 19.0946 23.52 19.0946C23.784 19.0946 24 18.8786 24 18.6146C24 18.3506 23.784 18.1346 23.52 18.1346V18.1298ZM12.3024 17.7074C12.024 17.477 11.6928 17.2082 11.1504 17.1074C11.2855 16.8396 11.3546 16.5433 11.352 16.2434V11.0834C11.352 10.9154 11.2752 10.757 11.1456 10.6514C11.016 10.5458 10.8432 10.5026 10.68 10.541C10.488 10.5794 10.2672 10.5794 10.0272 10.5794H9.8688C8.5824 10.5794 8.1216 9.76819 7.9872 8.90899C8.112 8.94739 8.2368 8.98099 8.3712 8.99539C8.6688 9.03379 8.9712 9.02419 9.2592 8.96179C9.32085 8.94924 9.3794 8.92457 9.43144 8.88921C9.48348 8.85386 9.52799 8.80852 9.56237 8.75583C9.59675 8.70314 9.62033 8.64415 9.63173 8.58227C9.64314 8.5204 9.64214 8.45688 9.6288 8.39539C9.5712 8.13619 9.3168 7.96819 9.0624 8.02579C8.88 8.06419 8.6928 8.06899 8.5008 8.04499C7.7088 7.93939 7.0992 7.22899 7.104 6.42259C7.1088 5.59699 7.728 4.92499 8.6352 4.75219C8.8368 4.71379 9.0672 4.57939 9.2064 4.42099C9.8592 3.68179 10.3104 3.23539 11.1168 3.23539C12.0336 3.23539 12.9168 3.90259 13.1664 4.79059C13.2336 5.03059 13.4448 5.18899 13.6896 5.19379C14.4288 5.20819 15.1152 5.51059 15.6192 6.05299C15.8673 6.31838 16.059 6.6313 16.1827 6.97285C16.3065 7.3144 16.3597 7.67749 16.3392 8.04019C16.2624 9.39859 15.144 10.517 13.7808 10.5842C13.6464 10.589 13.512 10.565 13.3152 10.5314C13.235 10.5171 13.1527 10.5205 13.074 10.5412C12.9953 10.5619 12.922 10.5995 12.8592 10.6514C12.7296 10.757 12.6576 10.9106 12.6576 11.0786V15.4706C12.6576 16.349 12.8688 16.9874 13.3008 17.4194C13.5168 17.6354 13.7712 17.7746 14.04 17.8706C13.8336 18.0242 13.6272 18.125 13.272 18.125C12.8064 18.125 12.5904 17.9474 12.2976 17.7026L12.3024 17.7074ZM18.3408 20.765C17.88 20.765 17.6688 20.5874 17.3808 20.3474C17.04 20.0594 16.6128 19.7042 15.8016 19.7042C14.9904 19.7042 14.568 20.0594 14.2224 20.3474C13.9296 20.5922 13.7232 20.765 13.2624 20.765C12.8016 20.765 12.5904 20.5874 12.3024 20.3474C11.9616 20.0594 11.5344 19.7042 10.728 19.7042C9.9216 19.7042 9.4944 20.0594 9.1536 20.3474C8.8656 20.5922 8.6544 20.765 8.1936 20.765C7.7328 20.765 7.5264 20.5874 7.2336 20.3474C6.8928 20.0594 6.4656 19.7042 5.6592 19.7042C5.3952 19.7042 5.1792 19.9202 5.1792 20.1842C5.1792 20.4482 5.3952 20.6642 5.6592 20.6642C6.12 20.6642 6.3312 20.8418 6.6192 21.0818C6.96 21.3698 7.3872 21.725 8.1936 21.725C9 21.725 9.4272 21.3698 9.768 21.0818C10.056 20.837 10.2672 20.6642 10.728 20.6642C11.1888 20.6642 11.4 20.8418 11.688 21.0818C12.0288 21.3698 12.456 21.725 13.2672 21.725C14.0784 21.725 14.5008 21.3698 14.8464 21.0818C15.1392 20.837 15.3456 20.6642 15.8064 20.6642C16.2672 20.6642 16.4784 20.8418 16.7664 21.0818C17.1072 21.3698 17.5344 21.725 18.3456 21.725C18.6096 21.725 18.8256 21.509 18.8256 21.245C18.8256 20.981 18.6096 20.765 18.3408 20.765Z" fill="#63697D"/>
</svg>
