<svg width="104" height="104" viewBox="0 0 104 104" fill="none" xmlns="http://www.w3.org/2000/svg">
    <path d="M82.725 84.7087L82.432 84.4151H82.0172H81.0039C83.0261 81.6609 84.2178 78.2658 84.2178 74.6089C84.2178 65.4357 76.7821 58 67.6089 58C58.4357 58 51 65.4357 51 74.6089C51 83.7821 58.4357 91.2178 67.6089 91.2178C71.2658 91.2178 74.6609 90.0261 77.4151 88.0039V89.0172V89.432L77.7087 89.725L89.7156 101.708L90.4227 102.414L91.1291 101.707L94.7071 98.1291L95.4135 97.4227L94.7078 96.7156L82.725 84.7087ZM67.6089 82.8595C65.0932 82.8595 63.0454 82.0052 61.629 80.5888C60.2126 79.1724 59.3583 77.1246 59.3583 74.6089C59.3583 72.1012 60.234 70.0524 61.6662 68.6319C63.0995 67.2102 65.1506 66.3583 67.6089 66.3583C72.4426 66.3583 75.8332 69.7662 75.8596 74.6144C75.8858 79.4438 72.4529 82.8595 67.6089 82.8595Z" fill="#CCFF69" stroke="#0022CD" stroke-width="2"/>
    <path d="M51.9696 24.4761L75.5455 45.7947H72.2508C71.638 45.7947 71.1386 46.2926 71.1386 46.9069V52.6819C71.1386 53.2947 71.6365 53.7941 72.2508 53.7941C72.865 53.7941 73.363 53.296 73.363 52.6819V48.0191H78.433C79.0458 48.0191 79.5452 47.5212 79.5452 46.9069C79.5452 46.5918 79.4108 46.2927 79.1791 46.0818L79.1787 46.0815L52.6974 22.1358C52.4868 21.9448 52.2179 21.85 51.9515 21.85C51.6772 21.85 51.3999 21.9502 51.1875 22.1526C51.1874 22.1527 51.1873 22.1528 51.1872 22.1529L25.2111 46.7408C25.2111 46.7408 25.2111 46.7408 25.2111 46.7408C24.877 47.0554 24.7718 47.5346 24.9421 47.9596C25.1103 48.3863 25.5168 48.6605 25.9747 48.6605H32.0433V75.2547C32.0433 75.8675 32.5424 76.3681 33.1567 76.3681H44.7424L44.7427 76.3681C45.3568 76.3667 45.8546 75.8674 45.8546 75.2534C45.8546 74.6406 45.3567 74.1412 44.7424 74.1412H34.2689V47.5471C34.2689 46.9343 33.771 46.4349 33.1567 46.4349H28.7672L51.9696 24.4761Z" fill="#0022CD" stroke="#0022CD" stroke-width="0.3"/>
    <path d="M98.3766 70.3594C100.71 64.6406 102 58.436 102 52C102 24.3858 79.6142 2 52 2C24.3858 2 2 24.3858 2 52C2 79.6142 24.3858 102 52 102C53.8452 102 55.6701 101.895 57.4688 101.689" stroke="#C4D3E4" stroke-width="2.5"/>
</svg>
