<svg width="72" height="72" viewBox="0 0 72 72" fill="none" xmlns="http://www.w3.org/2000/svg">
    <mask id="path-1-inside-1_1_1659" fill="white">
        <rect x="12" y="35" width="5" height="21" rx="1"/>
    </mask>
    <rect x="12" y="35" width="5" height="21" rx="1" fill="white" stroke="#133DBD" stroke-width="4" mask="url(#path-1-inside-1_1_1659)"/>
    <path d="M26.7547 24.3774C26.7547 25.9929 26.442 27.6085 25.8166 29.1198C25.1913 30.6312 24.2792 31.9862 23.1327 33.1327C21.9862 34.2793 20.6312 35.1913 19.1198 35.8167C17.6085 36.442 16.019 36.7547 14.3774 36.7547C12.7618 36.7547 11.1462 36.442 9.63488 35.8167C8.12354 35.1913 6.76854 34.2793 5.62201 33.1327C4.47547 31.9862 3.56346 30.6312 2.93808 29.1198C2.31269 27.6085 2 26.019 2 24.3774C2 21.0941 3.30288 17.9411 5.62201 15.622C7.94113 13.3029 11.0941 12 14.3774 12C17.6606 12 20.8136 13.3029 23.1327 15.622C25.4518 17.9672 26.7547 21.1202 26.7547 24.3774Z" fill="white"/>
    <circle cx="14.5" cy="24.5" r="10.5" fill="white"/>
    <path fill-rule="evenodd" clip-rule="evenodd" d="M14.3774 34.7483C17.1395 34.7483 19.7713 33.6539 21.6995 31.6995C23.6539 29.7452 24.7483 27.1134 24.7483 24.3774C24.7483 21.6153 23.6539 18.9834 21.6995 17.0552C19.7452 15.1009 17.1134 14.0064 14.3774 14.0064C11.6153 14.0064 8.98344 15.1009 7.05518 17.0552C5.10086 19.0095 4.00643 21.6413 4.00643 24.3774C4.00643 27.1395 5.10086 29.7713 7.05518 31.6995C9.0095 33.6539 11.6413 34.7483 14.3774 34.7483ZM14.3774 36.7547C17.6606 36.7547 20.8136 35.4518 23.1327 33.1327C25.4518 30.8136 26.7547 27.6606 26.7547 24.3774C26.7547 21.0941 25.4518 17.9411 23.1327 15.622C20.8136 13.3029 17.6606 12 14.3774 12C11.0941 12 7.94113 13.3029 5.62201 15.622C3.30288 17.9411 2 21.0941 2 24.3774C2 27.6606 3.30288 30.8136 5.62201 33.1327C7.94113 35.4518 11.0941 36.7547 14.3774 36.7547Z" fill="#133DBD"/>
    <path d="M7 23.8842V22.3242H9.02526C9.43579 21.0653 10.2295 19.9432 11.3242 19.1768C12.4189 18.3832 13.6779 18 15.0737 18C17.1537 18 18.7958 18.7116 20 20.1074L18.6042 21.7495C18.0295 21.1747 17.4821 20.7642 16.9621 20.5453C16.4421 20.3263 15.8126 20.1895 15.0737 20.1895C14.3074 20.1895 13.6232 20.3811 13.0211 20.7642C12.4189 21.12 11.9811 21.64 11.68 22.3242H16.3326V23.8842H11.2695C11.2421 24.1032 11.2421 24.3221 11.2421 24.5684C11.2421 24.8695 11.2695 25.1432 11.2968 25.4168H16.3326V26.9768H11.8442C12.5558 28.2358 13.5684 28.8653 15.0463 28.8653C15.7579 28.8653 16.36 28.7558 16.8526 28.5095C17.3726 28.2632 17.8926 27.8526 18.4674 27.3326L19.8632 28.8926C18.6589 30.2884 17.0442 31 15.0737 31C13.7053 31 12.5011 30.6442 11.4611 29.9326C10.4211 29.2211 9.62737 28.1811 9.21684 27.0042H7.08211V25.4442H8.83368C8.80631 25.1432 8.77895 24.8695 8.77895 24.5684C8.77895 24.2674 8.77895 24.0758 8.80632 23.9389H7V23.8842Z" fill="#133DBD"/>
    <mask id="path-6-inside-2_1_1659" fill="white">
        <rect x="43" y="33" width="5" height="17" rx="1"/>
    </mask>
    <rect x="43" y="33" width="5" height="17" rx="1" fill="white" stroke="#133DBD" stroke-width="4" mask="url(#path-6-inside-2_1_1659)"/>
    <path d="M56 24.875C56 26.1803 55.7474 27.4855 55.2421 28.7066C54.7368 29.9276 54 31.0224 53.0737 31.9487C52.1474 32.875 51.0526 33.6118 49.8316 34.1171C48.6105 34.6224 47.3263 34.875 46 34.875C44.6947 34.875 43.3895 34.6224 42.1684 34.1171C40.9474 33.6118 39.8526 32.875 38.9263 31.9487C38 31.0224 37.2632 29.9276 36.7579 28.7066C36.2526 27.4855 36 26.2013 36 24.875C36 22.2224 37.0526 19.675 38.9263 17.8013C40.8 15.9276 43.3474 14.875 46 14.875C48.6526 14.875 51.2 15.9276 53.0737 17.8013C54.9474 19.6961 56 22.2434 56 24.875Z" fill="white"/>
    <circle cx="45.5" cy="24.5" r="8.5" fill="white"/>
    <path d="M40.0396 24.4765V23.2162H41.6758C42.0075 22.199 42.6487 21.2925 43.5332 20.6733C44.4177 20.0321 45.4348 19.7225 46.5625 19.7225C48.243 19.7225 49.5697 20.2974 50.5426 21.4251L49.4149 22.7518C48.9506 22.2875 48.5083 21.9558 48.0882 21.7789C47.6681 21.602 47.1595 21.4915 46.5625 21.4915C45.9434 21.4915 45.3906 21.6463 44.9041 21.9558C44.4177 22.2433 44.0639 22.6634 43.8206 23.2162H47.5796V24.4765H43.489C43.4669 24.6534 43.4669 24.8303 43.4669 25.0293C43.4669 25.2726 43.489 25.4937 43.5111 25.7148H47.5796V26.9752H43.9533C44.5282 27.9923 45.3464 28.5009 46.5404 28.5009C47.1153 28.5009 47.6017 28.4124 47.9998 28.2134C48.4199 28.0144 48.84 27.6827 49.3043 27.2626L50.432 28.523C49.4591 29.6507 48.1545 30.2256 46.5625 30.2256C45.4569 30.2256 44.484 29.9381 43.6438 29.3632C42.8035 28.7883 42.1623 27.9481 41.8306 26.9973H40.1059V25.7369H41.521C41.4989 25.4937 41.4768 25.2726 41.4768 25.0293C41.4768 24.7861 41.4768 24.6313 41.4989 24.5208H40.0396V24.4765Z" fill="#133DBD"/>
    <path fill-rule="evenodd" clip-rule="evenodd" d="M46 33.254C48.2316 33.254 50.3579 32.3697 51.9158 30.7908C53.4947 29.2118 54.3789 27.0855 54.3789 24.875C54.3789 22.6434 53.4947 20.5171 51.9158 18.9592C50.3368 17.3803 48.2105 16.4961 46 16.4961C43.7684 16.4961 41.6421 17.3803 40.0842 18.9592C38.5053 20.5382 37.6211 22.6645 37.6211 24.875C37.6211 27.1066 38.5053 29.2329 40.0842 30.7908C41.6632 32.3697 43.7895 33.254 46 33.254ZM46 34.875C48.6526 34.875 51.2 33.8224 53.0737 31.9487C54.9474 30.075 56 27.5276 56 24.875C56 22.2224 54.9474 19.675 53.0737 17.8013C51.2 15.9276 48.6526 14.875 46 14.875C43.3474 14.875 40.8 15.9276 38.9263 17.8013C37.0526 19.675 36 22.2224 36 24.875C36 27.5276 37.0526 30.075 38.9263 31.9487C40.8 33.8224 43.3474 34.875 46 34.875Z" fill="#133DBD"/>
    <mask id="path-11-inside-3_1_1659" fill="white">
        <rect x="29" y="28" width="6" height="31" rx="1"/>
    </mask>
    <rect x="29" y="28" width="6" height="31" rx="1" fill="white" stroke="#133DBD" stroke-width="4" mask="url(#path-11-inside-3_1_1659)"/>
    <circle cx="32.5" cy="18.5" r="12.5" fill="white"/>
    <circle cx="32.5" cy="18.5" r="13.5" fill="white" stroke="#133DBD" stroke-width="2"/>
    <path d="M23 17.2421V15.3221H25.4926C25.9979 13.7726 26.9747 12.3916 28.3221 11.4484C29.6695 10.4716 31.2189 10 32.9368 10C35.4968 10 37.5179 10.8758 39 12.5937L37.2821 14.6147C36.5747 13.9074 35.9011 13.4021 35.2611 13.1326C34.6211 12.8632 33.8463 12.6947 32.9368 12.6947C31.9937 12.6947 31.1516 12.9305 30.4105 13.4021C29.6695 13.84 29.1305 14.48 28.76 15.3221H34.4863V17.2421H28.2547C28.2211 17.5116 28.2211 17.7811 28.2211 18.0842C28.2211 18.4547 28.2547 18.7916 28.2884 19.1284H34.4863V21.0484H28.9621C29.8379 22.5979 31.0842 23.3726 32.9032 23.3726C33.7789 23.3726 34.52 23.2379 35.1263 22.9347C35.7663 22.6316 36.4063 22.1263 37.1137 21.4863L38.8316 23.4063C37.3495 25.1242 35.3621 26 32.9368 26C31.2526 26 29.7705 25.5621 28.4905 24.6863C27.2105 23.8105 26.2337 22.5305 25.7284 21.0821H23.1011V19.1621H25.2568C25.2232 18.7916 25.1895 18.4547 25.1895 18.0842C25.1895 17.7137 25.1895 17.4779 25.2232 17.3095H23V17.2421Z" fill="#133DBD"/>
    <path d="M71 57.8496C71 59.4007 70.6998 60.9518 70.0994 62.4028C69.499 63.8538 68.6233 65.1547 67.5226 66.2555C66.4218 67.3563 65.1209 68.2319 63.6699 68.8323C62.2189 69.4327 60.6928 69.7329 59.1167 69.7329C57.5656 69.7329 56.0145 69.4327 54.5635 68.8323C53.1125 68.2319 51.8116 67.3563 50.7108 66.2555C49.6101 65.1547 48.7344 63.8538 48.134 62.4028C47.5336 60.9518 47.2334 59.4257 47.2334 57.8496C47.2334 54.6974 48.4843 51.6703 50.7108 49.4437C52.9374 47.2172 55.9645 45.9663 59.1167 45.9663C62.2689 45.9663 65.296 47.2172 67.5226 49.4437C69.7491 51.6953 71 54.7224 71 57.8496Z" fill="#65D78D"/>
    <path fill-rule="evenodd" clip-rule="evenodd" d="M59.1167 67.8066C61.7686 67.8066 64.2953 66.7558 66.1466 64.8795C68.0229 63.0032 69.0737 60.4764 69.0737 57.8496C69.0737 55.1978 68.0229 52.671 66.1466 50.8197C64.2703 48.9434 61.7435 47.8927 59.1167 47.8927C56.4648 47.8927 53.9381 48.9434 52.0868 50.8197C50.2105 52.696 49.1597 55.2228 49.1597 57.8496C49.1597 60.5015 50.2105 63.0282 52.0868 64.8795C53.9631 66.7558 56.4899 67.8066 59.1167 67.8066ZM59.1167 69.7329C62.2689 69.7329 65.296 68.482 67.5226 66.2555C69.7491 64.0289 71 61.0018 71 57.8496C71 54.6974 69.7491 51.6703 67.5226 49.4437C65.296 47.2172 62.2689 45.9663 59.1167 45.9663C55.9645 45.9663 52.9374 47.2172 50.7108 49.4437C48.4843 51.6703 47.2334 54.6974 47.2334 57.8496C47.2334 61.0018 48.4843 64.0289 50.7108 66.2555C52.9374 68.482 55.9645 69.7329 59.1167 69.7329Z" fill="#133DBD"/>
    <path d="M56.0029 57.8472H54.8104C54.1429 57.8472 53.8054 57.0372 54.2779 56.5647L58.4704 52.3722C58.7629 52.0797 59.2354 52.0797 59.5279 52.3722L63.7204 56.5647C64.1929 57.0372 63.8629 57.8472 63.1954 57.8472H62.0029V63.0972C62.0029 63.5097 61.6654 63.8472 61.2529 63.8472H56.7529C56.3404 63.8472 56.0029 63.5097 56.0029 63.0972V57.8472Z" fill="#133DBD"/>
</svg>
