<svg width="83" height="75" viewBox="0 0 83 75" fill="none" xmlns="http://www.w3.org/2000/svg">
<path d="M23.579 38.5452C20.0405 38.5452 17.1621 41.5446 17.1621 45.232C17.1621 48.9193 20.0405 51.9188 23.579 51.9188C27.1175 51.9188 29.9959 48.9183 29.9959 45.232C29.9959 41.5457 27.1165 38.5452 23.579 38.5452Z" fill="#65D78D"/>
<path d="M23.5784 36.2906C18.847 36.2906 14.998 40.3025 14.998 45.2319C14.998 50.1623 18.847 54.1732 23.5784 54.1732C28.3088 54.1732 32.1587 50.1613 32.1587 45.2319C32.1577 40.3015 28.3088 36.2906 23.5784 36.2906ZM23.5784 51.9187C20.0399 51.9187 17.1615 48.9182 17.1615 45.2319C17.1615 41.5456 20.0399 38.5451 23.5784 38.5451C27.1169 38.5451 29.9953 41.5446 29.9953 45.2319C29.9953 48.9193 27.1159 51.9187 23.5784 51.9187Z" fill="#133DBD"/>
<path d="M28.6962 59.3853C24.8199 57.9595 20.6428 58.1932 16.9359 60.0435C13.7715 61.6214 11.563 63.8013 10.0371 66.8651C12.0537 68.7552 16.9192 71.7985 22.6016 71.82C22.6398 71.82 22.6789 71.82 22.7181 71.82C28.6541 71.82 33.4864 70.1493 37.0983 66.8467C35.2787 63.3512 32.3219 60.7171 28.6962 59.3853Z" fill="#65D78D"/>
<path d="M81.5588 0H37.6983C37.1008 0 36.616 0.504168 36.616 1.12774V29.0711C32.8787 26.4758 28.3961 24.9592 23.5786 24.9592C10.5773 24.9592 0 35.9815 0 49.5296C0 56.889 3.1252 63.4982 8.06127 68.0051C10.2404 70.3688 15.864 73.951 22.3455 74.0653C22.3769 74.0673 22.4092 74.0673 22.4405 74.0694C22.4914 74.0704 22.5414 74.0755 22.5933 74.0755C22.6158 74.0755 22.6383 74.0755 22.6609 74.0755C22.9655 74.0877 23.27 74.1 23.5776 74.1C26.2219 74.1 28.7634 73.6377 31.1393 72.7967C33.8787 71.8945 36.2919 70.5096 38.3662 68.647C43.7214 64.1392 47.1551 57.2472 47.1551 49.5306C47.1551 47.2721 46.8555 45.086 46.305 43.0071L59.9145 34.9027H81.5578C82.1552 34.9027 82.64 34.3985 82.64 33.775V1.12774C82.64 0.504168 82.1562 0 81.5588 0ZM22.7167 71.82C22.6785 71.82 22.6393 71.82 22.6001 71.82C16.9178 71.7976 12.0522 68.7552 10.0357 66.8651C11.5616 63.8013 13.7701 61.6214 16.9344 60.0436C20.6414 58.1933 24.8184 57.9596 28.6948 59.3853C32.3205 60.7172 35.2772 63.3513 37.0959 66.8478C33.4859 70.1493 28.6537 71.82 22.7167 71.82ZM38.7246 65.2883C36.6337 61.5438 33.3802 58.7158 29.4157 57.2584C24.9928 55.6357 20.2301 55.9011 16.0011 58.0096C12.635 59.6884 10.1405 62.0715 8.41092 65.2649C4.55314 61.2275 2.16345 55.6643 2.16345 49.5306C2.16345 37.2255 11.7702 27.2147 23.5786 27.2147C28.4872 27.2147 33.0012 28.963 36.616 31.8675V46.8333C36.616 47.2354 36.8217 47.6058 37.1547 47.8089C37.3231 47.91 37.5102 47.961 37.6973 47.961C37.8824 47.961 38.0675 47.911 38.234 47.812L44.3424 44.1746C44.7508 45.8933 44.9917 47.6803 44.9917 49.5296C44.9927 55.6755 42.5951 61.2489 38.7246 65.2883ZM80.4765 32.6472H59.6275C59.4395 32.6472 59.2544 32.6993 59.0908 32.7962L38.7795 44.8911V2.25445H80.4765V32.6472Z" fill="#133DBD"/>
</svg>
