<svg width="72" height="72" viewBox="0 0 72 72" fill="none" xmlns="http://www.w3.org/2000/svg">
    <rect x="6" y="9" width="57" height="49" rx="4" fill="white"/>
    <path d="M12.8749 13.861C12.6099 13.879 12.3719 13.997 12.2239 14.185C11.9949 14.42 11.9009 14.645 11.9009 14.945C11.9009 15.252 11.9979 15.481 12.2259 15.707C12.4539 15.935 12.6829 16.033 12.9879 16.033C13.2939 16.033 13.5219 15.936 13.7499 15.707C13.9739 15.486 14.0759 15.157 14.0759 14.945C14.0759 14.639 13.9789 14.41 13.7509 14.183C13.5289 13.959 13.1959 13.831 12.8749 13.861Z" fill="#0022CD"/>
    <path d="M16.9082 13.938C16.7792 13.992 16.6562 14.074 16.5472 14.182C16.3192 14.41 16.2222 14.639 16.2222 14.944C16.2222 15.251 16.3192 15.479 16.5472 15.705C16.7762 15.934 17.0042 16.032 17.3102 16.032C17.6152 16.032 17.8432 15.935 18.0722 15.706C18.3002 15.48 18.3972 15.251 18.3972 14.944C18.3972 14.638 18.3002 14.41 18.0722 14.182C17.7452 13.857 17.2962 13.775 16.9082 13.938Z" fill="#0022CD"/>
    <path d="M21.515 13.861C21.249 13.879 21.012 13.997 20.865 14.185C20.635 14.42 20.542 14.644 20.542 14.945C20.542 15.237 20.634 15.464 20.84 15.68C21.007 15.947 21.354 16.033 21.629 16.033C21.934 16.033 22.163 15.936 22.391 15.707C22.614 15.485 22.716 15.156 22.716 14.945C22.716 14.64 22.619 14.411 22.39 14.182C22.169 13.96 21.842 13.833 21.515 13.861Z" fill="#0022CD"/>
    <path d="M34.543 28.421C34.543 28.079 34.265 27.8 33.923 27.8H12.848C12.506 27.8 12.228 28.079 12.228 28.421V31.993C12.228 32.335 12.507 32.613 12.848 32.613H33.923C34.265 32.613 34.543 32.335 34.543 31.993V28.421ZM33.303 31.371H13.469V29.042H33.303V31.371Z" fill="#0022CD"/>
    <path d="M34.543 39.807V36.235C34.543 35.893 34.265 35.614 33.923 35.614H12.848C12.506 35.614 12.228 35.893 12.228 36.235V39.807C12.228 40.149 12.507 40.427 12.848 40.427H33.923C34.265 40.427 34.543 40.149 34.543 39.807ZM33.303 39.185H13.469V36.856H33.303V39.185Z" fill="#0022CD"/>
    <path d="M19.9658 44.6699H13.4688V46.9989H19.9658V44.6699Z" fill="#CCFF69"/>
    <path d="M12.848 43.428C12.506 43.428 12.228 43.707 12.228 44.049V47.621C12.228 47.963 12.507 48.241 12.848 48.241H20.587C20.929 48.241 21.207 47.963 21.207 47.621V44.049C21.207 43.707 20.929 43.428 20.587 43.428H12.848ZM19.966 46.999H13.469V44.67H19.966V46.999Z" fill="#0022CD"/>
    <path d="M47.165 57.358H47.153H8.77802C7.60702 57.358 6.617 56.369 6.617 55.198V21.956H62.673V43.186L62.675 43.234C62.675 43.661 63.021 44.007 63.448 44.007C63.875 44.007 64.221 43.661 64.221 43.234L64.223 43.191L64.222 11.853C64.254 10.829 63.883 9.866 63.175 9.135C62.477 8.414 61.506 8 60.511 8H8.77802C6.73002 8 5 9.73 5 11.778V55.131C5 57.179 6.73002 58.909 8.77802 58.909H47.158L47.164 58.908C47.592 58.908 47.939 58.561 47.939 58.133C47.94 57.704 47.593 57.358 47.165 57.358ZM6.617 11.844C6.617 10.616 7.58702 9.617 8.77802 9.617H60.445C61.617 9.617 62.606 10.606 62.606 11.778V20.273H6.61603V11.844H6.617Z" fill="#0022CD"/>
    <path d="M57.8906 50.9332C57.7592 50.8016 57.581 50.7277 57.3951 50.7277H57.1394C58.1568 49.2435 58.7509 47.4497 58.7509 45.5254C58.7509 40.4302 54.6207 36.3 49.5254 36.3C44.4302 36.3 40.3 40.4302 40.3 45.5254C40.3 50.6207 44.4302 54.7509 49.5254 54.7509C51.4497 54.7509 53.2435 54.1568 54.7277 53.1394V53.3951C54.7277 53.581 54.8016 53.7592 54.9332 53.8906L61.4912 60.4355C61.7647 60.7084 62.2075 60.7081 62.4807 60.435L64.435 58.4807C64.7081 58.2075 64.7084 57.7647 64.4355 57.4912L57.8906 50.9332ZM49.5254 49.878C48.1873 49.878 47.1095 49.4243 46.368 48.6828C45.6266 47.9414 45.1728 46.8636 45.1728 45.5254C45.1728 44.1929 45.6374 43.1144 46.3879 42.3701C47.1392 41.6249 48.2192 41.1728 49.5254 41.1728C52.0798 41.1728 53.8641 42.9647 53.8781 45.5293C53.8919 48.0807 52.087 49.878 49.5254 49.878Z" fill="#CCFF69" stroke="#0022CD" stroke-width="1.4" stroke-linejoin="round"/>
</svg>
