<svg width="72" height="72" viewBox="0 0 72 72" fill="none" xmlns="http://www.w3.org/2000/svg">
    <path d="M54.9 11.75H16.75V60.74H54.9V11.75Z" fill="white"/>
    <path d="M49.4099 49.1601C49.1499 48.1401 46.5399 47.5701 46.0299 47.1201C45.5199 46.6801 45.5299 44.7201 44.5599 44.3601C43.6399 44.0201 42.2999 45.6101 41.4399 45.8801C40.5799 46.1501 38.6299 45.4401 37.9799 46.1601C37.3299 46.8801 38.0099 48.7301 37.6899 49.7501C37.3699 50.7701 35.9899 52.0501 36.2499 52.7601C36.4999 53.4701 39.0699 54.1701 39.5999 54.6901C40.1299 55.2101 40.3699 57.2101 41.0999 57.5601C41.8299 57.9101 43.8199 55.8701 44.3999 55.7101C44.9799 55.5501 47.2199 56.3401 47.6799 55.7501C48.1299 55.1601 47.8299 52.4301 47.9599 51.7701C48.0999 51.1201 49.6799 50.1801 49.4099 49.1601Z" fill="#CCFF69"/>
    <path d="M54.9 11H16.75C16.34 11 16 11.34 16 11.75V60.74C16 61.15 16.34 61.49 16.75 61.49H54.9C55.31 61.49 55.65 61.15 55.65 60.74V11.75C55.65 11.34 55.31 11 54.9 11ZM54.15 59.99H17.5V12.5H54.15V59.99Z" fill="#0022CD"/>
    <path d="M21.6101 19.25H35.8201C36.2301 19.25 36.5701 18.91 36.5701 18.5C36.5701 18.09 36.2301 17.75 35.8201 17.75H21.6101C21.2001 17.75 20.8601 18.09 20.8601 18.5C20.8601 18.91 21.2001 19.25 21.6101 19.25Z" fill="#0022CD"/>
    <path d="M21.6101 48.14H33.0901C33.5001 48.14 33.8401 47.8 33.8401 47.39C33.8401 46.98 33.5001 46.64 33.0901 46.64H21.6101C21.2001 46.64 20.8601 46.98 20.8601 47.39C20.8601 47.8 21.2001 48.14 21.6101 48.14Z" fill="#0022CD"/>
    <path d="M21.6101 25.64H49.8001C50.2101 25.64 50.5501 25.3 50.5501 24.89C50.5501 24.48 50.2101 24.14 49.8001 24.14H21.6101C21.2001 24.14 20.8601 24.48 20.8601 24.89C20.8601 25.3 21.2001 25.64 21.6101 25.64Z" fill="#0022CD"/>
    <path d="M21.6101 29.35H49.8001C50.2101 29.35 50.5501 29.01 50.5501 28.6C50.5501 28.19 50.2101 27.85 49.8001 27.85H21.6101C21.2001 27.85 20.8601 28.19 20.8601 28.6C20.8601 29.01 21.2001 29.35 21.6101 29.35Z" fill="#0022CD"/>
    <path d="M21.6101 33.0699H49.8001C50.2101 33.0699 50.5501 32.7299 50.5501 32.3199C50.5501 31.9099 50.2101 31.5699 49.8001 31.5699H21.6101C21.2001 31.5699 20.8601 31.9099 20.8601 32.3199C20.8601 32.7299 21.2001 33.0699 21.6101 33.0699Z" fill="#0022CD"/>
    <path d="M21.6101 36.78H49.8001C50.2101 36.78 50.5501 36.44 50.5501 36.03C50.5501 35.62 50.2101 35.28 49.8001 35.28H21.6101C21.2001 35.28 20.8601 35.62 20.8601 36.03C20.8601 36.44 21.2001 36.78 21.6101 36.78Z" fill="#0022CD"/>
    <path d="M21.6101 40.49H49.8001C50.2101 40.49 50.5501 40.15 50.5501 39.74C50.5501 39.33 50.2101 38.99 49.8001 38.99H21.6101C21.2001 38.99 20.8601 39.33 20.8601 39.74C20.8601 40.15 21.2001 40.49 21.6101 40.49Z" fill="#0022CD"/>
    <path d="M47.3799 46.94C47.0599 46.81 46.6299 46.64 46.5499 46.59C46.4799 46.49 46.3699 46.11 46.2999 45.86C46.0799 45.08 45.7699 44.01 44.8299 43.66C43.8699 43.31 42.9399 43.99 42.1199 44.6C41.7899 44.84 41.4299 45.11 41.2199 45.18C41.0199 45.24 40.5099 45.2 40.0999 45.16C39.1499 45.07 38.0699 44.9699 37.4299 45.67C36.8399 46.32 36.9199 47.28 36.9899 48.21C37.0299 48.72 37.0699 49.25 36.9799 49.54C36.8799 49.86 36.5999 50.28 36.3199 50.69C35.7999 51.46 35.2699 52.25 35.5499 53.02C35.7899 53.7 36.6099 54.09 37.9399 54.67C38.3399 54.85 38.9499 55.11 39.0899 55.23C39.1999 55.35 39.3799 55.85 39.4899 56.19C39.7799 57.03 40.0899 57.91 40.7799 58.24C40.9499 58.32 41.1199 58.36 41.2999 58.36C42.0599 58.36 42.9199 57.7 43.8099 57.02C44.0999 56.8 44.4999 56.49 44.5699 56.45C44.7099 56.43 45.1699 56.51 45.4799 56.56C46.5799 56.74 47.7099 56.93 48.2699 56.22C48.6899 55.68 48.7099 54.62 48.6799 53.07C48.6699 52.63 48.6599 52.08 48.6899 51.95C48.7299 51.85 48.9699 51.58 49.1299 51.41C49.6699 50.81 50.3999 50 50.1399 48.98C49.8699 47.93 48.5499 47.41 47.3799 46.94ZM42.1099 48.3C42.3499 48.23 42.5999 48.2 42.8399 48.2C43.3099 48.2 43.7799 48.32 44.1999 48.56C44.8399 48.92 45.2899 49.51 45.4899 50.22C45.6799 50.93 45.5899 51.67 45.2299 52.3C44.8699 52.94 44.2799 53.39 43.5699 53.59C42.1099 53.99 40.5999 53.13 40.1999 51.67C39.7799 50.21 40.6499 48.7 42.1099 48.3ZM38.5399 53.29C38.0799 53.09 37.2599 52.74 36.9999 52.51C37.0699 52.28 37.3799 51.82 37.5799 51.53C37.9099 51.03 38.2599 50.52 38.4299 49.99C38.6099 49.41 38.5499 48.74 38.4999 48.09C38.4599 47.63 38.3999 46.85 38.5499 46.68C38.7099 46.53 39.5599 46.61 39.9699 46.65C40.5999 46.71 41.1899 46.77 41.6799 46.61C42.1199 46.47 42.5499 46.15 43.0099 45.81C43.3299 45.57 44.0999 45.02 44.3099 45.07C44.5399 45.15 44.7399 45.88 44.8599 46.27C45.0199 46.83 45.1699 47.35 45.5299 47.67C45.3399 47.5199 45.1499 47.37 44.9399 47.25C43.9599 46.69 42.8099 46.54 41.7199 46.84C39.4599 47.46 38.1299 49.8 38.7499 52.06C38.9399 52.77 39.3099 53.39 39.7899 53.88C39.4699 53.71 39.0799 53.53 38.5399 53.29ZM48.0199 50.41C47.6599 50.81 47.3299 51.18 47.2399 51.64C47.1799 51.94 47.1799 52.37 47.1999 53.1C47.2099 53.68 47.2299 54.85 47.1299 55.23C46.8299 55.27 46.1399 55.15 45.7499 55.09C45.0399 54.97 44.5799 54.9 44.2199 55C43.8899 55.09 43.5399 55.35 42.9099 55.83C42.5199 56.13 41.7499 56.72 41.3899 56.84C41.2299 56.62 41.0199 56.03 40.9099 55.7C40.7299 55.18 40.5499 54.7 40.2899 54.35C41.0199 54.89 41.9099 55.2 42.8399 55.2C43.2099 55.2 43.5899 55.15 43.9599 55.05C45.0499 54.75 45.9599 54.04 46.5299 53.06C47.0899 52.07 47.2399 50.93 46.9399 49.84C46.7199 49.03 46.2699 48.32 45.6499 47.78C45.8999 47.97 46.2599 48.12 46.8399 48.35C47.3199 48.54 48.5899 49.05 48.6999 49.37C48.7499 49.59 48.3099 50.08 48.0199 50.41Z" fill="#0022CD"/>
</svg>
