<svg width="72" height="72" viewBox="0 0 72 72" fill="none" xmlns="http://www.w3.org/2000/svg">
    <rect x="27" y="7" width="33" height="58" fill="#CCFF69"/>
    <rect x="2" y="8" width="18" height="57" fill="#CCFF69"/>
    <rect x="9" y="27" width="24" height="38" fill="#CCFF69"/>
    <rect x="46" y="15" width="24" height="49" fill="#CCFF69"/>
    <path fill-rule="evenodd" clip-rule="evenodd" d="M15.3274 37.1267H19.7118V32.7413H15.3274V37.1267Z" fill="#CCFF69"/>
    <path fill-rule="evenodd" clip-rule="evenodd" d="M24.6494 37.1267H29.0348V32.7413H24.6494V37.1267Z" fill="#CCFF69"/>
    <path fill-rule="evenodd" clip-rule="evenodd" d="M15.3274 45.3764H19.7118V40.9919H15.3274V45.3764Z" fill="#CCFF69"/>
    <path fill-rule="evenodd" clip-rule="evenodd" d="M24.6494 45.3764H29.0348V40.9919H24.6494V45.3764Z" fill="#CCFF69"/>
    <path fill-rule="evenodd" clip-rule="evenodd" d="M24.6494 53.6659H29.0348V49.2815H24.6494V53.6659Z" fill="#CCFF69"/>
    <mask id="mask0_1_1321" style="mask-type:luminance" maskUnits="userSpaceOnUse" x="7" y="6" width="54" height="61">
        <path fill-rule="evenodd" clip-rule="evenodd" d="M7.00024 6H60.624V66.3455H7.00024V6Z" fill="white"/>
    </mask>
    <g mask="url(#mask0_1_1321)">
        <path fill-rule="evenodd" clip-rule="evenodd" d="M58.8692 64.5924H53.1328V48.7164C53.1328 48.2323 52.7387 47.8381 52.2556 47.8381H42.6303C42.1462 47.8381 41.753 48.2323 41.753 48.7164V64.5924H36.0774V27.159C36.0774 26.6758 35.6833 26.2817 35.2001 26.2817H27.6287V23.0588H42.5706C43.0547 23.0588 43.4488 22.6647 43.4488 22.1806C43.4488 21.6974 43.0547 21.3042 42.5706 21.3042H27.6259V17.9998H45.0982C45.5823 17.9998 45.9755 17.6057 45.9755 17.1226C45.9755 16.6385 45.5823 16.2444 45.0982 16.2444H27.6259V12.9409H50.1572C50.6403 12.9409 51.0344 12.5468 51.0344 12.0636C51.0344 11.5795 50.6403 11.1854 50.1572 11.1854H27.6259V7.75499H58.8692V64.5924ZM43.5076 64.5924H51.3745V49.5946H43.5076V64.5924ZM12.8413 53.043C12.3572 53.043 11.963 53.4361 11.963 53.9193V58.4458L11.7925 58.3975C10.1583 57.938 9.2242 57.0342 8.85094 55.5573L8.84999 55.5564C8.6681 54.8307 8.74389 54.0349 9.08968 53.0534C9.74526 51.1681 10.9105 49.4354 12.756 47.5994L12.8498 47.5066L12.9445 47.5985C14.9274 49.5121 16.1154 51.3121 16.6828 53.2647C17.1338 54.8345 16.9642 55.9921 16.1324 57.0191C15.5829 57.6965 14.8487 58.1531 13.8881 58.4155L13.7185 58.4619V53.9193C13.7185 53.4361 13.3244 53.043 12.8413 53.043ZM60.3707 6.25909C60.2049 6.09141 59.9823 5.99951 59.7464 5.99951H26.7486C26.2645 5.99951 25.8704 6.39267 25.8704 6.87677V26.2817H9.28199C8.79789 26.2817 8.40378 26.6758 8.40378 27.159V42.4959C8.40378 42.98 8.79789 43.3741 9.28199 43.3741C9.76515 43.3741 10.1593 42.98 10.1593 42.4959V28.0344H34.3172V64.5895H13.7157V60.1909H13.944C14.016 60.1909 14.0861 60.1814 14.1562 60.1634C15.5479 59.8233 16.6715 59.1365 17.4947 58.1247C18.696 56.642 18.9812 54.8932 18.3654 52.7758C17.6927 50.4548 16.2973 48.3497 13.9753 46.1528L13.4068 45.6497C13.0648 45.3522 12.5599 45.3589 12.2312 45.6649C9.78126 47.9424 8.25505 50.1061 7.43084 52.4746C6.97326 53.781 6.88136 54.9301 7.15042 55.9865C7.69894 58.1588 9.24884 59.5723 11.7546 60.1871L11.9583 60.1833V64.5895H9.28199C8.79789 64.5895 8.40378 64.9836 8.40378 65.4677C8.40378 65.9518 8.79789 66.3459 9.28199 66.3459H59.7464C60.2305 66.3459 60.6246 65.9518 60.6246 65.4677V6.87488C60.6256 6.64277 60.5356 6.42488 60.3707 6.25909Z" fill="#0022CD"/>
    </g>
    <mask id="mask1_1_1321" style="mask-type:luminance" maskUnits="userSpaceOnUse" x="7" y="6" width="54" height="61">
        <path fill-rule="evenodd" clip-rule="evenodd" d="M7 66.3455H60.6239V6H7V66.3455Z" fill="white"/>
    </mask>
    <g mask="url(#mask1_1_1321)">
        <path fill-rule="evenodd" clip-rule="evenodd" d="M16.2084 44.5418H18.9245V41.8257H16.2084V44.5418ZM14.866 45.2135C14.866 45.5849 15.1663 45.8842 15.5367 45.8842H19.5962C19.9666 45.8842 20.2669 45.5849 20.2669 45.2135V41.155C20.2669 40.7845 19.9666 40.4833 19.5962 40.4833H15.5367C15.1663 40.4833 14.866 40.7845 14.866 41.155V45.2135Z" fill="#0022CD"/>
        <path fill-rule="evenodd" clip-rule="evenodd" d="M16.2084 36.2524H18.9245V33.5363H16.2084V36.2524ZM15.5367 37.5948H19.5962C19.9666 37.5948 20.2669 37.2954 20.2669 36.9241V32.8655C20.2669 32.4951 19.9666 32.1938 19.5962 32.1938H15.5367C15.1663 32.1938 14.866 32.4951 14.866 32.8655V36.9241C14.866 37.2954 15.1663 37.5948 15.5367 37.5948Z" fill="#0022CD"/>
        <path fill-rule="evenodd" clip-rule="evenodd" d="M25.484 44.5418H28.2001V41.8257H25.484V44.5418ZM24.1416 45.2135C24.1416 45.5849 24.4419 45.8842 24.8133 45.8842H28.8718C29.2432 45.8842 29.5435 45.5849 29.5435 45.2135V41.155C29.5435 40.7845 29.2432 40.4833 28.8718 40.4833H24.8133C24.4419 40.4833 24.1416 40.7845 24.1416 41.155V45.2135Z" fill="#0022CD"/>
        <path fill-rule="evenodd" clip-rule="evenodd" d="M25.484 52.8312H28.2001V50.1151H25.484V52.8312ZM24.1416 53.5029C24.1416 53.8743 24.4419 54.1746 24.8133 54.1746H28.8718C29.2432 54.1746 29.5435 53.8743 29.5435 53.5029V49.4444C29.5435 49.074 29.2432 48.7727 28.8718 48.7727H24.8133C24.4419 48.7727 24.1416 49.074 24.1416 49.4444V53.5029Z" fill="#0022CD"/>
        <path fill-rule="evenodd" clip-rule="evenodd" d="M25.484 36.2524H28.2001V33.5363H25.484V36.2524ZM24.8133 37.5948H28.8718C29.2432 37.5948 29.5435 37.2954 29.5435 36.9241V32.8655C29.5435 32.4951 29.2432 32.1938 28.8718 32.1938H24.8133C24.4419 32.1938 24.1416 32.4951 24.1416 32.8655V36.9241C24.1416 37.2954 24.4419 37.5948 24.8133 37.5948Z" fill="#0022CD"/>
    </g>
    <path d="M69.1 7.09998H2V65.2H69.1V7.09998Z" stroke="#0022CD" stroke-width="2" stroke-miterlimit="10" stroke-linejoin="round"/>
    <path d="M35.5 7V65.6" stroke="#0022CD" stroke-width="3" stroke-miterlimit="10" stroke-linejoin="round"/>
</svg>
