<svg width="72" height="72" viewBox="0 0 72 72" fill="none" xmlns="http://www.w3.org/2000/svg">
    <rect x="6" y="9" width="57" height="49" rx="4" fill="white"/>
    <path d="M12.8749 13.861C12.6099 13.879 12.3719 13.997 12.2239 14.185C11.9949 14.42 11.9009 14.645 11.9009 14.945C11.9009 15.252 11.9979 15.481 12.2259 15.707C12.4539 15.935 12.6829 16.033 12.9879 16.033C13.2939 16.033 13.5219 15.936 13.7499 15.707C13.9739 15.486 14.0759 15.157 14.0759 14.945C14.0759 14.639 13.9789 14.41 13.7509 14.183C13.5289 13.959 13.1959 13.831 12.8749 13.861Z" fill="#0022CD"/>
    <path d="M16.9082 13.938C16.7792 13.992 16.6562 14.074 16.5472 14.182C16.3192 14.41 16.2222 14.639 16.2222 14.944C16.2222 15.251 16.3192 15.479 16.5472 15.705C16.7762 15.934 17.0042 16.032 17.3102 16.032C17.6152 16.032 17.8432 15.935 18.0722 15.706C18.3002 15.48 18.3972 15.251 18.3972 14.944C18.3972 14.638 18.3002 14.41 18.0722 14.182C17.7452 13.857 17.2962 13.775 16.9082 13.938Z" fill="#0022CD"/>
    <path d="M21.515 13.861C21.249 13.879 21.012 13.997 20.865 14.185C20.635 14.42 20.542 14.644 20.542 14.945C20.542 15.237 20.634 15.464 20.84 15.68C21.007 15.947 21.354 16.033 21.629 16.033C21.934 16.033 22.163 15.936 22.391 15.707C22.614 15.485 22.716 15.156 22.716 14.945C22.716 14.64 22.619 14.411 22.39 14.182C22.169 13.96 21.842 13.833 21.515 13.861Z" fill="#0022CD"/>
    <path d="M34.543 28.421C34.543 28.079 34.265 27.8 33.923 27.8H12.848C12.506 27.8 12.228 28.079 12.228 28.421V31.993C12.228 32.335 12.507 32.613 12.848 32.613H33.923C34.265 32.613 34.543 32.335 34.543 31.993V28.421ZM33.303 31.371H13.469V29.042H33.303V31.371Z" fill="#0022CD"/>
    <path d="M34.543 39.807V36.235C34.543 35.893 34.265 35.614 33.923 35.614H12.848C12.506 35.614 12.228 35.893 12.228 36.235V39.807C12.228 40.149 12.507 40.427 12.848 40.427H33.923C34.265 40.427 34.543 40.149 34.543 39.807ZM33.303 39.185H13.469V36.856H33.303V39.185Z" fill="#0022CD"/>
    <path d="M19.9658 44.6699H13.4688V46.9989H19.9658V44.6699Z" fill="#CCFF69"/>
    <path d="M12.848 43.428C12.506 43.428 12.228 43.707 12.228 44.049V47.621C12.228 47.963 12.507 48.241 12.848 48.241H20.587C20.929 48.241 21.207 47.963 21.207 47.621V44.049C21.207 43.707 20.929 43.428 20.587 43.428H12.848ZM19.966 46.999H13.469V44.67H19.966V46.999Z" fill="#0022CD"/>
    <path d="M60.9449 54.811C60.6259 54.448 60.4859 53.981 60.5599 53.529C60.6349 53.077 60.9189 52.679 61.3389 52.435L65.1479 50.255L50.5669 45.052L53.7529 60.214L56.4209 56.73C56.7189 56.342 57.1529 56.112 57.6129 56.097L57.6569 56.096C58.0959 56.096 58.5259 56.298 58.8339 56.65L63.7309 62.271C63.8219 62.375 63.9499 62.437 64.0889 62.445C64.1009 62.446 64.1119 62.447 64.1229 62.447C64.2509 62.447 64.3719 62.4 64.4669 62.317L65.7989 61.166V61.165C65.9009 61.076 65.9619 60.951 65.9719 60.813C65.9809 60.672 65.9349 60.536 65.8429 60.431L60.9449 54.811Z" fill="#CCFF69"/>
    <path d="M66.778 59.6161L61.88 53.9951C61.804 53.9101 61.7701 53.8151 61.7851 53.7311C61.7991 53.6461 61.861 53.5681 61.959 53.5121L65.9391 51.2341C66.6231 50.8431 66.656 50.3301 66.639 50.1271C66.622 49.9241 66.5011 49.4231 65.7571 49.1561L51.0091 43.8921C50.5081 43.7101 50.033 43.7741 49.703 44.0641C49.37 44.3551 49.242 44.8211 49.352 45.3441L52.58 60.6691C52.743 61.4401 53.223 61.6271 53.422 61.6721C53.621 61.7241 54.132 61.7631 54.615 61.1321L57.406 57.4881C57.468 57.4071 57.539 57.3571 57.613 57.3431C57.63 57.3371 57.649 57.3331 57.67 57.3331C57.73 57.3331 57.808 57.3641 57.899 57.4711L62.794 63.0901C63.105 63.4441 63.536 63.6561 64.006 63.6861C64.49 63.7241 64.9321 63.5611 65.2801 63.2561L66.612 62.1051C66.966 61.7971 67.177 61.3661 67.208 60.8941C67.24 60.4211 67.087 59.9681 66.778 59.6161ZM65.8 61.1671V61.1681L64.4681 62.3191C64.373 62.4021 64.2521 62.4491 64.1241 62.4491C64.1131 62.4491 64.1021 62.4481 64.0901 62.4471C63.9501 62.4391 63.823 62.3761 63.732 62.2731L58.8351 56.6521C58.5271 56.3001 58.0981 56.0981 57.6581 56.0981L57.614 56.0991C57.154 56.1141 56.721 56.3451 56.422 56.7321L53.7541 60.2161L50.568 45.0541L65.149 50.2571L61.3401 52.4371C60.9201 52.6811 60.6351 53.0791 60.5611 53.5311C60.4871 53.9831 60.627 54.4491 60.946 54.8131L65.8431 60.4351C65.935 60.5401 65.981 60.6761 65.972 60.8171C65.963 60.9531 65.902 61.0781 65.8 61.1671Z" fill="#0022CD"/>
    <path d="M47.165 57.358H47.153H8.77802C7.60702 57.358 6.617 56.369 6.617 55.198V21.956H62.673V43.186L62.675 43.234C62.675 43.661 63.021 44.007 63.448 44.007C63.875 44.007 64.221 43.661 64.221 43.234L64.223 43.191L64.222 11.853C64.254 10.829 63.883 9.866 63.175 9.135C62.477 8.414 61.506 8 60.511 8H8.77802C6.73002 8 5 9.73 5 11.778V55.131C5 57.179 6.73002 58.909 8.77802 58.909H47.158L47.164 58.908C47.592 58.908 47.939 58.561 47.939 58.133C47.94 57.704 47.593 57.358 47.165 57.358ZM6.617 11.844C6.617 10.616 7.58702 9.617 8.77802 9.617H60.445C61.617 9.617 62.606 10.606 62.606 11.778V20.273H6.61603V11.844H6.617Z" fill="#0022CD"/>
</svg>
