<svg width="72" height="72" viewBox="0 0 72 72" fill="none" xmlns="http://www.w3.org/2000/svg">
    <path d="M56.7494 53.9125V40.0583H51.1702V37.9657H44.9323V40.0583H38.5159V36.1493H34.5563V40.0583H31.8731V34.402H32.5182V33H12.0888V34.402H12.7339V40.0583H6.41357V48.8777V56.2468H56.7494C56.4749 55.4388 57.4013 54.6583 56.7494 53.9125Z" fill="#EBF0F6"/>
    <path d="M35.9494 23.8442C35.1808 24.3553 34.7759 30.1083 34.7759 30.1083L46.7782 36.0201L45.4469 24.7006L35.9494 23.8442Z" fill="white"/>
    <path d="M15.5 53.2195L17 56H50.0722L51 53.2195V36.5363L36.3611 23.458L33.3877 21L15 34.4509L15.5 53.2195Z" fill="white"/>
    <path d="M40 39H28V56H40V39Z" fill="#CCFF69"/>
    <path d="M50.6166 52.6353C50.6166 53.2643 50.365 54.577 49.173 54.577H40.1762V38.101H26.7937V54.6678H17.9674C17.1927 54.6678 16.3534 53.5973 16.3534 52.626V34.2305L33.3754 21.7399L38.3227 26.0091V24.2692L33.3754 20L15 33.519V52.7301C15 55.1536 16.7938 56 17.9674 56H28.0917V39.5466H38.673V56H49.1409C51.7971 56 52 54.7905 52 52.626V44.6711H50.6166V52.6353Z" fill="#0022CD"/>
    <path fill-rule="evenodd" clip-rule="evenodd" d="M33.3878 19.6805L38.5727 24.1547V26.555L33.3628 22.0593L16.6034 34.3571V52.626C16.6034 53.0447 16.787 53.5021 17.0662 53.8564C17.3508 54.2174 17.6899 54.4178 17.9674 54.4178H26.5437V37.851H40.4262V54.327H49.173C49.6528 54.327 49.9395 54.0732 50.1201 53.7265C50.3071 53.3673 50.3666 52.9257 50.3666 52.6353V44.4211H52.25V52.626C52.25 53.1683 52.2375 53.6653 52.1742 54.1022C52.1108 54.5397 51.9943 54.9344 51.7744 55.2636C51.321 55.9423 50.4966 56.25 49.1409 56.25H38.423V39.7966H28.3417V56.25H17.9674C17.3272 56.25 16.5254 56.0209 15.8801 55.463C15.2269 54.8983 14.75 54.0103 14.75 52.7301V33.3925L33.3878 19.6805ZM15.25 33.6454V52.7301C15.25 53.8734 15.6699 54.6203 16.2071 55.0848C16.7521 55.5559 17.434 55.75 17.9674 55.75H27.8417V39.2966H38.923V55.75H49.1409C50.4415 55.75 51.0465 55.4531 51.3587 54.9858C51.5215 54.7421 51.6217 54.4286 51.6794 54.0305C51.7371 53.6319 51.75 53.166 51.75 52.626V44.9211H50.8666V52.6353C50.8666 52.9739 50.8002 53.5031 50.5635 53.9575C50.3203 54.4244 49.8851 54.827 49.173 54.827H39.9262V38.351H27.0437V54.9178H17.9674C17.4702 54.9178 17.0023 54.5829 16.6735 54.1659C16.3395 53.7421 16.1034 53.1786 16.1034 52.626V34.1039L33.388 21.4206L38.0727 25.4631V24.3837L33.363 20.3195L15.25 33.6454Z" fill="#0022CD"/>
    <path d="M6 56L60 56" stroke="#0022CD" stroke-width="1.5" stroke-miterlimit="10" stroke-linecap="round"/>
    <path d="M50.9028 40.1501C57.2548 40.1501 62.4042 34.9678 62.4042 28.5751C62.4042 22.1823 57.2548 17 50.9028 17C44.5507 17 39.4014 22.1823 39.4014 28.5751C39.4014 34.9678 44.5507 40.1501 50.9028 40.1501Z" fill="#CCFF69"/>
    <path d="M44.8569 27.9811V26.586H46.4559C46.7853 25.329 47.4166 24.3207 48.343 23.561C49.2695 22.8013 50.4018 22.4283 51.7262 22.4283C53.3732 22.4283 54.7868 23.0983 55.9603 24.4312L54.4918 26.3512C53.6889 25.3705 52.7487 24.8732 51.6576 24.8732C50.4292 24.8732 49.5783 25.4395 49.1048 26.5791H52.9409V27.9742H48.8097C48.796 28.0847 48.796 28.2504 48.796 28.4714C48.796 28.6924 48.8028 28.8513 48.8097 28.9549H52.9409V30.3499H49.1871C49.4479 30.8679 49.8116 31.2685 50.2645 31.5447C50.7174 31.821 51.2253 31.9591 51.7742 31.9591C52.8585 31.9591 53.7506 31.524 54.4437 30.6469L55.9603 32.339C55.3701 33.0365 54.6839 33.5545 53.9085 33.8998C53.133 34.2451 52.3644 34.4109 51.5958 34.4109C50.3537 34.4109 49.2763 34.0448 48.3499 33.3059C47.4303 32.5738 46.799 31.5862 46.4559 30.3499H44.8569V28.9549H46.2431C46.2294 28.8582 46.2294 28.6924 46.2294 28.4714C46.2294 28.2504 46.2363 28.0847 46.2431 27.9742H44.8569V27.9811Z" fill="#0022CD"/>
</svg>
