<svg width="72" height="72" viewBox="0 0 72 72" fill="none" xmlns="http://www.w3.org/2000/svg">
    <path d="M41.4299 10.7426L20.1899 28.4626H62.5699L41.4299 10.7426Z" fill="white"/>
    <path d="M62.5699 28.4926H20.1899V32.3026H62.5699V28.4926Z" fill="white"/>
    <path d="M59.51 32.3125H23.04V56.7625H59.51V32.3125Z" fill="#CCFF69"/>
    <path d="M6.75 57.5225H65.63C66.04 57.5225 66.38 57.1825 66.38 56.7725C66.38 56.3625 66.04 56.0225 65.63 56.0225H60.26V33.0525H62.57C62.98 33.0525 63.32 32.7125 63.32 32.3025V28.4925C63.32 28.4925 63.32 28.4925 63.32 28.4825C63.33 28.2525 63.23 28.0325 63.05 27.8825L41.91 10.1725C41.63 9.9425 41.23 9.9425 40.95 10.1725L19.71 27.8925C19.53 28.0425 19.44 28.2625 19.44 28.4925C19.44 28.4925 19.44 28.4925 19.44 28.5025V32.3125C19.44 32.7225 19.78 33.0625 20.19 33.0625H22.3V56.0225H14.04V52.1125C17.21 51.6825 19.66 48.9725 19.66 45.6925C19.66 42.1125 16.75 39.2025 13.17 39.2025C9.59 39.2025 6.68 42.1125 6.68 45.6925C6.68 49.0625 9.26 51.8325 12.54 52.1525V56.0325H6.75C6.34 56.0225 6 56.3525 6 56.7725C6 57.1925 6.34 57.5225 6.75 57.5225ZM58.76 56.0125H23.79V33.0525H58.76V56.0125ZM41.43 11.7225L60.51 27.7225H22.25L41.43 11.7225ZM20.94 31.5525V29.2425H61.82V31.5525H59.51H23.04H20.94ZM8.17 45.6825C8.17 42.9325 10.41 40.6925 13.16 40.6925C15.91 40.6925 18.15 42.9325 18.15 45.6825C18.15 48.1325 16.37 50.1625 14.03 50.5825V45.6125C14.03 45.2025 13.69 44.8625 13.28 44.8625C12.87 44.8625 12.53 45.2025 12.53 45.6125V50.6125C10.08 50.3025 8.17 48.2225 8.17 45.6825Z" fill="#0022CD"/>
    <path d="M12.75 61.4125H6.75C6.34 61.4125 6 61.7525 6 62.1625C6 62.5725 6.34 62.9125 6.75 62.9125H12.75C13.16 62.9125 13.5 62.5725 13.5 62.1625C13.5 61.7525 13.16 61.4125 12.75 61.4125Z" fill="#0022CD"/>
    <path d="M50.2501 61.4125H40.8701C40.4601 61.4125 40.1201 61.7525 40.1201 62.1625C40.1201 62.5725 40.4601 62.9125 40.8701 62.9125H50.2501C50.6601 62.9125 51.0001 62.5725 51.0001 62.1625C51.0001 61.7525 50.6701 61.4125 50.2501 61.4125Z" fill="#0022CD"/>
    <path d="M31.5001 61.4125H22.1201C21.7101 61.4125 21.3701 61.7525 21.3701 62.1625C21.3701 62.5725 21.7101 62.9125 22.1201 62.9125H31.5001C31.9101 62.9125 32.2501 62.5725 32.2501 62.1625C32.2501 61.7525 31.9101 61.4125 31.5001 61.4125Z" fill="#0022CD"/>
    <path d="M65.6299 61.4125H59.6299C59.2199 61.4125 58.8799 61.7525 58.8799 62.1625C58.8799 62.5725 59.2199 62.9125 59.6299 62.9125H65.6299C66.0399 62.9125 66.3799 62.5725 66.3799 62.1625C66.3799 61.7525 66.0399 61.4125 65.6299 61.4125Z" fill="#0022CD"/>
    <path d="M26.7498 49.1125C26.8998 49.2725 27.0998 49.3625 27.3098 49.3625C27.4898 49.3625 27.6698 49.3025 27.8098 49.1725C28.1198 48.8925 28.1398 48.4225 27.8598 48.1125L26.6298 46.7525H55.9498L54.7198 48.1125C54.4398 48.4225 54.4698 48.8925 54.7698 49.1725C54.9098 49.3025 55.0898 49.3625 55.2698 49.3625C55.4698 49.3625 55.6798 49.2825 55.8298 49.1125L58.1998 46.5025C58.2298 46.4725 58.2398 46.4325 58.2698 46.3925C58.2898 46.3525 58.3198 46.3225 58.3398 46.2725C58.3698 46.2025 58.3798 46.1225 58.3898 46.0425C58.3898 46.0225 58.3998 46.0125 58.3998 45.9925C58.3998 45.8925 58.3798 45.8025 58.3398 45.7125C58.3198 45.6725 58.2898 45.6425 58.2698 45.6025C58.2398 45.5625 58.2298 45.5225 58.1898 45.4825L58.1698 45.4625L55.8198 42.9625C55.5398 42.6625 55.0598 42.6425 54.7598 42.9325C54.4598 43.2125 54.4398 43.6925 54.7298 43.9925L55.9098 45.2425H26.6698L27.8498 43.9925C28.1298 43.6925 28.1198 43.2125 27.8198 42.9325C27.5198 42.6525 27.0398 42.6625 26.7598 42.9625L24.3898 45.4725C24.1198 45.7525 24.1198 46.2025 24.3798 46.4925L26.7498 49.1125Z" fill="#0022CD"/>
</svg>
