<svg width="72" height="72" viewBox="0 0 72 72" fill="none" xmlns="http://www.w3.org/2000/svg">
    <path d="M25.265 24.811C24.845 24.811 24.5039 25.153 24.5039 25.573V31.926C24.5039 32.346 24.845 32.688 25.265 32.688H31.6189C32.0389 32.688 32.3809 32.346 32.3809 31.926V25.573C32.3809 25.153 32.0389 24.811 31.6189 24.811H25.265ZM30.8569 31.165H26.0259V26.334H30.8569V31.165Z" fill="#0022CD"/>
    <path d="M64.7004 41.44V36.11C64.2574 36.11 63.8984 35.751 63.8984 35.308V35.283V30.5L46.1204 50.342C45.9764 50.503 45.7744 50.599 45.5584 50.608C45.3434 50.615 45.1335 50.538 44.9755 50.393L36.8975 42.838L19.1064 60.722H63.8984V42.267V42.242C63.8984 41.799 64.2574 41.44 64.7004 41.44Z" fill="#CCFF69"/>
    <path d="M17.5497 53C17.5497 52.562 17.1937 52.205 16.7547 52.205H13.5247V30.108C13.5247 29.67 13.1687 29.313 12.7297 29.313H8.79169L28.2717 10.877L48.0747 28.784H45.0307C44.5927 28.784 44.2357 29.14 44.2357 29.579V41.043C44.2357 41.481 44.5917 41.838 45.0307 41.838C45.4697 41.838 45.8257 41.482 45.8257 41.043V30.374H50.1387C50.5767 30.374 50.9337 30.018 50.9337 29.579C50.9337 29.354 50.8377 29.14 50.6717 28.989L28.7917 9.20399C28.6417 9.06799 28.4497 9 28.2587 9C28.0617 9 27.8637 9.072 27.7127 9.216L6.2497 29.532C6.0107 29.757 5.93568 30.099 6.05768 30.403C6.17768 30.708 6.46766 30.904 6.79566 30.904H11.9337V53.001C11.9337 53.439 12.2907 53.797 12.7297 53.797H16.7547C17.1937 53.796 17.5497 53.439 17.5497 53Z" fill="#0022CD"/>
    <path d="M63.8988 60.748H19.0818L19.1069 60.723L36.8979 42.838L44.9759 50.393C45.1349 50.539 45.3438 50.616 45.5588 50.608C45.7738 50.599 45.9768 50.503 46.1208 50.342L63.8988 30.5V35.283V35.308C63.8988 35.751 64.2578 36.11 64.7008 36.11C64.8578 36.11 64.9958 36.053 65.1188 35.975C65.3438 35.833 65.5028 35.594 65.5028 35.308V28.406C65.5048 27.963 65.1479 27.602 64.7049 27.6C64.6759 27.6 64.6468 27.601 64.6178 27.604L57.1429 28.378C56.7339 28.42 56.4239 28.764 56.4239 29.175C56.4239 29.203 56.4248 29.231 56.4278 29.258C56.4698 29.696 56.8599 30.017 57.2969 29.974C57.3009 29.974 57.3038 29.973 57.3078 29.973L62.7178 29.413L45.4728 48.66L37.4248 41.134C37.1088 40.838 36.6138 40.847 36.3078 41.154L16.5838 60.984C16.2718 61.298 16.2728 61.806 16.5868 62.118C16.7368 62.268 16.9408 62.351 17.1518 62.351H64.7008C65.1438 62.351 65.5028 61.992 65.5028 61.549V42.267C65.5028 41.981 65.3448 41.742 65.1188 41.6C64.9948 41.522 64.8568 41.465 64.7008 41.465C64.2578 41.465 63.8988 41.824 63.8988 42.267V60.722V60.748Z" fill="#0022CD"/>
</svg>
