<svg width="72" height="72" viewBox="0 0 72 72" fill="none" xmlns="http://www.w3.org/2000/svg">
    <path d="M26.0121 14.249H16.5801V37.447H26.0121V14.249ZM23.9211 22.637C23.9211 23.072 23.5671 23.427 23.1311 23.427H19.4601C19.0251 23.427 18.6701 23.073 18.6701 22.637V18.966C18.6701 17.518 19.8471 16.341 21.2951 16.341C22.7431 16.341 23.9201 17.518 23.9201 18.966V22.637H23.9211Z" fill="#65D78D"/>
    <path d="M56.141 61.307H41.377L41.384 61.172C41.67 55.971 44.24 51.218 48.434 48.13L51.095 46.176C53.61 44.326 55.115 41.358 55.121 38.236V34.566C55.121 34.131 54.767 33.776 54.331 33.776H27.59V9.79C27.59 9.355 27.236 9 26.8 9H15.79C15.355 9 15 9.354 15 9.79V62.887H56.141C56.576 62.887 56.931 62.533 56.931 62.097C56.931 61.661 56.577 61.307 56.141 61.307ZM27.591 35.356H53.542V37.448H27.591V35.356ZM16.58 14.249H26.012V37.447H16.58V14.249ZM16.58 10.579H26.012V12.671H16.58V10.579ZM39.794 61.307H16.58V39.027H53.506L53.489 39.17C53.26 41.166 52.304 43.017 50.829 44.36C50.618 44.552 50.397 44.733 50.166 44.904L47.505 46.858C42.896 50.249 40.088 55.472 39.801 61.186L39.794 61.307Z" fill="#133DBD"/>
    <path d="M21.2959 16.3411C19.8479 16.3411 18.6709 17.5181 18.6709 18.9661V22.6371C18.6709 23.0721 19.0249 23.4271 19.4609 23.4271H23.1319C23.5669 23.4271 23.9219 23.0731 23.9219 22.6371V18.9661C23.9209 17.5181 22.7439 16.3411 21.2959 16.3411ZM22.3419 21.8471H20.2499V18.9661C20.2499 18.3891 20.7189 17.9201 21.2959 17.9201C21.8729 17.9201 22.3419 18.3891 22.3419 18.9661V21.8471Z" fill="#133DBD"/>
</svg>
