<svg width="72" height="72" viewBox="0 0 72 72" fill="none" xmlns="http://www.w3.org/2000/svg">
    <path d="M61.2251 15.1265H56.6531V11.7315C56.6531 11.3295 56.3251 11.0015 55.9231 11.0015H50.042C49.999 10.9995 49.9531 10.9995 49.9101 11.0015L49.8941 11.0035C49.5441 11.0715 49.2951 11.3785 49.3011 11.7315V15.1265L15.875 15.1275C15.83 15.1205 15.7821 15.1215 15.7211 15.1295C15.6131 15.1525 15.5141 15.1985 15.4291 15.2635L11.305 18.2095C11.146 18.3225 11.0411 18.4905 11.0101 18.6825C10.9781 18.8755 11.0231 19.0695 11.1361 19.2275C11.1831 19.2925 11.24 19.3495 11.305 19.3955L15.4281 22.3415C15.5531 22.4325 15.7021 22.4765 15.8601 22.4785H22.2001V25.7325L17.0531 25.7335C17.0081 25.7275 16.9611 25.7295 16.9021 25.7345C16.5521 25.8015 16.3031 26.1075 16.3091 26.4625V50.0295C16.3091 50.4315 16.637 50.7595 17.039 50.7595H45.318C45.719 50.7595 46.0471 50.4315 46.0481 50.0295V26.4625C46.0471 26.0605 45.719 25.7325 45.318 25.7325H40.156V22.4785H49.302V61.2235C49.302 61.6255 49.6301 61.9535 50.0321 61.9535H55.9231C56.3251 61.9535 56.6531 61.6255 56.6531 61.2235V22.4785H61.2251C61.6271 22.4785 61.9551 22.1505 61.9551 21.7485V15.8575C61.9551 15.4545 61.6271 15.1265 61.2251 15.1265ZM60.4961 16.5865V21.0185H56.6531V16.5865H60.4961ZM55.1941 12.4615V21.7365C55.1921 21.7695 55.1921 21.8005 55.1941 21.8205V60.4925H50.7621V21.8685C50.7651 21.8245 50.7651 21.7805 50.7621 21.7475V15.8645C50.7631 15.8415 50.7631 15.8175 50.7621 15.8015V12.4615H55.1941ZM17.7701 49.2985V27.1915H44.589V49.2985H17.7701ZM23.6611 25.7315V22.4775H38.698V25.7315H23.6611ZM49.302 16.5865V21.0185H16.1091L12.9931 18.8025L16.1091 16.5875H49.302V16.5865Z" fill="#0022CD"/>
    <path d="M44.5621 27.2125H17.7671V49.3075H44.5621V27.2125Z" fill="#CCFF69"/>
    <path d="M22.645 32.4865H23.311V32.2155C23.311 31.6045 23.44 31.1615 23.697 30.8875C23.954 30.6145 24.328 30.4775 24.817 30.4775C25.332 30.4775 25.76 30.5385 26.101 30.6605L25.86 31.6655C25.712 31.6135 25.581 31.5805 25.468 31.5635C25.356 31.5475 25.238 31.5395 25.116 31.5395C24.987 31.5395 24.886 31.5595 24.812 31.5975C24.738 31.6355 24.683 31.6955 24.648 31.7765C24.612 31.8565 24.59 31.9565 24.58 32.0755C24.571 32.1955 24.566 32.3315 24.566 32.4865H25.628V33.5485H24.566V37.3145H23.311V33.5485H22.645V32.4865Z" fill="#0022CD"/>
    <path d="M25.908 34.9006C25.908 34.0836 26.108 33.4536 26.507 33.0126C26.906 32.5716 27.466 32.3506 28.187 32.3506C28.573 32.3506 28.908 32.4116 29.192 32.5336C29.475 32.6556 29.71 32.8276 29.897 33.0496C30.084 33.2726 30.224 33.5406 30.317 33.8566C30.41 34.1716 30.457 34.5196 30.457 34.8996C30.457 35.7166 30.259 36.3466 29.863 36.7876C29.467 37.2286 28.9089 37.4496 28.1879 37.4496C27.8019 37.4496 27.467 37.3886 27.184 37.2666C26.901 37.1446 26.6639 36.9716 26.4739 36.7496C26.2839 36.5276 26.142 36.2586 26.049 35.9436C25.955 35.6276 25.908 35.2806 25.908 34.9006ZM27.202 34.9006C27.202 35.1126 27.2219 35.3096 27.2599 35.4896C27.2989 35.6706 27.357 35.8276 27.434 35.9626C27.512 36.0976 27.613 36.2026 27.738 36.2766C27.863 36.3506 28.013 36.3876 28.187 36.3876C28.515 36.3876 28.76 36.2686 28.921 36.0306C29.082 35.7926 29.163 35.4166 29.163 34.9016C29.163 34.4576 29.089 34.0986 28.941 33.8246C28.793 33.5516 28.542 33.4146 28.187 33.4146C27.878 33.4146 27.637 33.5306 27.463 33.7626C27.289 33.9926 27.202 34.3726 27.202 34.9006Z" fill="#0022CD"/>
    <path d="M33.9902 33.6645C33.7902 33.5935 33.6102 33.5585 33.4492 33.5585C33.2242 33.5585 33.0352 33.6185 32.8842 33.7375C32.7332 33.8565 32.6322 34.0095 32.5802 34.1965V37.3155H31.3252V32.4875H32.3002L32.4452 33.1245H32.4842C32.5942 32.8865 32.7422 32.7025 32.9282 32.5735C33.1152 32.4445 33.3342 32.3805 33.5852 32.3805C33.7522 32.3805 33.9422 32.4155 34.1552 32.4865L33.9902 33.6645Z" fill="#0022CD"/>
    <path d="M25.088 44.0556C25.088 43.9266 25.033 43.8236 24.924 43.7466C24.814 43.6686 24.68 43.5986 24.519 43.5336C24.358 43.4696 24.181 43.4036 23.988 43.3356C23.795 43.2676 23.618 43.1746 23.457 43.0556C23.296 42.9366 23.1609 42.7846 23.0519 42.6016C22.9419 42.4186 22.8879 42.1816 22.8879 41.8916C22.8879 41.4156 23.0289 41.0516 23.3129 40.8006C23.5959 40.5496 24.0049 40.4246 24.5389 40.4246C24.9059 40.4246 25.2369 40.4636 25.5339 40.5406C25.8299 40.6186 26.0619 40.7046 26.2289 40.8016L25.949 41.7096C25.801 41.6516 25.614 41.5896 25.389 41.5256C25.164 41.4616 24.936 41.4286 24.704 41.4286C24.331 41.4286 24.144 41.5736 24.144 41.8636C24.144 41.9796 24.199 42.0726 24.308 42.1436C24.418 42.2146 24.5529 42.2806 24.7139 42.3416C24.8749 42.4026 25.0519 42.4686 25.2449 42.5396C25.4379 42.6096 25.6149 42.7016 25.7759 42.8146C25.9369 42.9276 26.0719 43.0746 26.1819 43.2546C26.2909 43.4346 26.3459 43.6666 26.3459 43.9496C26.3459 44.4386 26.1899 44.8236 25.8779 45.1036C25.5649 45.3846 25.097 45.5236 24.473 45.5236C24.132 45.5236 23.812 45.4806 23.512 45.3926C23.212 45.3056 22.969 45.2046 22.783 45.0886L23.131 44.1526C23.279 44.2356 23.476 44.3186 23.72 44.3986C23.964 44.4786 24.215 44.5186 24.473 44.5186C24.66 44.5186 24.8089 44.4836 24.9219 44.4126C25.0309 44.3416 25.088 44.2226 25.088 44.0556Z" fill="#0022CD"/>
    <path d="M27.1349 40.8395C27.3919 40.7235 27.6979 40.6315 28.0519 40.5645C28.4059 40.4965 28.7759 40.4635 29.1619 40.4635C29.4959 40.4635 29.776 40.5035 30.002 40.5835C30.227 40.6645 30.406 40.7785 30.538 40.9265C30.67 41.0745 30.7629 41.2515 30.8179 41.4585C30.8729 41.6645 30.9 41.8965 30.9 42.1535C30.9 42.4365 30.891 42.7215 30.871 43.0075C30.852 43.2935 30.841 43.5755 30.837 43.8525C30.834 44.1295 30.842 44.3985 30.861 44.6585C30.881 44.9195 30.929 45.1655 31.006 45.3975H29.9819L29.7789 44.7315H29.731C29.602 44.9305 29.4239 45.1025 29.1949 45.2475C28.9659 45.3925 28.672 45.4645 28.312 45.4645C28.087 45.4645 27.884 45.4305 27.704 45.3625C27.523 45.2945 27.3689 45.1985 27.2399 45.0725C27.1109 44.9475 27.011 44.7995 26.941 44.6285C26.87 44.4585 26.835 44.2665 26.835 44.0545C26.835 43.7585 26.901 43.5095 27.033 43.3065C27.165 43.1035 27.355 42.9395 27.603 42.8135C27.851 42.6875 28.147 42.6015 28.491 42.5535C28.835 42.5045 29.22 42.4905 29.645 42.5095C29.69 42.1495 29.664 41.8905 29.567 41.7325C29.47 41.5745 29.255 41.4955 28.92 41.4955C28.669 41.4955 28.404 41.5215 28.124 41.5735C27.844 41.6245 27.614 41.6925 27.433 41.7765L27.1349 40.8395ZM28.728 44.4315C28.979 44.4315 29.178 44.3745 29.327 44.2625C29.475 44.1505 29.584 44.0295 29.655 43.9005V43.2725C29.456 43.2535 29.2639 43.2505 29.0809 43.2635C28.8979 43.2765 28.7349 43.3055 28.5939 43.3505C28.4519 43.3955 28.34 43.4605 28.256 43.5435C28.173 43.6265 28.131 43.7335 28.131 43.8625C28.131 44.0425 28.184 44.1825 28.291 44.2825C28.395 44.3815 28.541 44.4315 28.728 44.4315Z" fill="#0022CD"/>
    <path d="M33.2462 43.7655C33.2462 43.9905 33.2752 44.1555 33.3332 44.2585C33.3912 44.3605 33.4842 44.4125 33.6132 44.4125C33.6912 44.4125 33.7662 44.4055 33.8402 44.3925C33.9142 44.3805 34.0062 44.3515 34.1152 44.3055L34.2502 45.2905C34.1482 45.3425 33.9902 45.3935 33.7772 45.4445C33.5652 45.4955 33.3462 45.5225 33.1212 45.5225C32.7542 45.5225 32.4742 45.4375 32.2812 45.2665C32.0882 45.0965 31.9912 44.8145 31.9912 44.4215V38.6285H33.2472V43.7655H33.2462Z" fill="#0022CD"/>
    <path d="M38.6531 44.9726C38.4601 45.1266 38.1981 45.2576 37.8671 45.3636C37.5351 45.4696 37.1821 45.5236 36.8091 45.5236C36.0301 45.5236 35.4611 45.2966 35.1001 44.8426C34.7391 44.3886 34.5591 43.7656 34.5591 42.9736C34.5591 42.1236 34.7621 41.4866 35.1671 41.0616C35.5721 40.6366 36.1421 40.4246 36.8761 40.4246C37.1201 40.4246 37.3591 40.4566 37.5911 40.5216C37.8221 40.5856 38.0291 40.6926 38.2091 40.8406C38.3891 40.9886 38.5341 41.1886 38.6441 41.4396C38.7531 41.6906 38.8081 42.0036 38.8081 42.3766C38.8081 42.5116 38.8001 42.6566 38.7841 42.8106C38.7681 42.9646 38.7441 43.1256 38.7121 43.2936H35.8241C35.8431 43.6986 35.9481 44.0056 36.1371 44.2106C36.3261 44.4166 36.6331 44.5196 37.0561 44.5196C37.3191 44.5196 37.5551 44.4796 37.7631 44.3996C37.9721 44.3186 38.1301 44.2366 38.2391 44.1536L38.6531 44.9726ZM36.8621 41.4286C36.5351 41.4286 36.2941 41.5276 36.1371 41.7236C35.9811 41.9196 35.8861 42.1826 35.8541 42.5096H37.6401C37.6661 42.1616 37.6131 41.8956 37.4821 41.7086C37.3501 41.5226 37.1441 41.4286 36.8621 41.4286Z" fill="#0022CD"/>
</svg>
