<svg width="48" height="48" viewBox="0 0 48 48" fill="none" xmlns="http://www.w3.org/2000/svg">
    <path fill-rule="evenodd" clip-rule="evenodd" d="M42 23.18V10C42 7.8 40.2 6 38 6H10C7.8 6 6 7.8 6 10V19.16L12 25.18L18.6 18.6C18.9737 18.2255 19.481 18.015 20.01 18.015C20.539 18.015 21.0463 18.2255 21.42 18.6L28 25.18L34.58 18.58C35.36 17.8 36.64 17.8 37.42 18.58L42 23.18ZM42 28.86L36 22.84L29.4 29.4C28.62 30.18 27.36 30.18 26.58 29.4L20 22.82L13.4 29.42C12.62 30.2 11.36 30.2 10.58 29.42L6 24.84V38C6 40.2 7.8 42 10 42H38C40.2 42 42 40.2 42 38V28.86Z" fill="#133DBD"/>
</svg>
