<svg width="24" height="24" viewBox="0 0 24 24" fill="none" xmlns="http://www.w3.org/2000/svg">
    <path fill-rule="evenodd" clip-rule="evenodd" d="M4.75 5H18.75C19.7125 5 20.5 5.7875 20.5 6.75V17.25C20.5 18.2125 19.7125 19 18.75 19H4.75C3.7875 19 3 18.2125 3 17.25L3.00875 6.75C3.00875 5.7875 3.7875 5 4.75 5ZM12.2137 12.5863L18.4 8.71876C18.6188 8.57876 18.75 8.34251 18.75 8.08876C18.75 7.50251 18.1112 7.15251 17.6125 7.45876L11.75 11.125L5.8875 7.45876C5.38875 7.15251 4.75 7.50251 4.75 8.08876C4.75 8.34251 4.88125 8.57876 5.1 8.71876L11.2862 12.5863C11.5662 12.7613 11.9338 12.7613 12.2137 12.5863Z" fill="#133DBD"/>
</svg>
