<svg viewBox="0 0 24 24" width="24" height="24" xmlns="http://www.w3.org/2000/svg">
    <path d="M0 22.43c1.16-1.054 2.148-2.932 2.623-4.38.38-1.155 1.013-3.087 1.83-4.612.594-1.11 1.486-2.373 2.36-2.092.916.295.18 4.271-.174 6.183-.063.338-.124.666-.178.975-.32 1.813.391 3.528 1.622 3.904.404.122 1.805.338 2.89-2.038l-1.065-.478c-.457 1.004-1.024 1.54-1.478 1.402-.573-.175-1.05-1.283-.819-2.593.054-.306.115-.631.177-.966.598-3.23 1.276-6.89-.611-7.497-1.321-.425-2.584.47-3.754 2.655-.866 1.616-1.52 3.608-1.91 4.8a12.499 12.499 0 0 1-1.517 3.03c.003.185.004.754.004 1.707z" stroke="#133DBD" stroke-width="1.213"/>
    <path d="m11.016 14.5 3.91 2.32-2.882 1.271a.708.708 0 0 1-.649-.035.64.64 0 0 1-.318-.538zm6.77-11.165 4.732 2.807-5.91 8.988-4.732-2.806 4.466-6.793zm5.834-.176c.38.341.387.516.223.967-.562.916-.989 1.565-1.28 1.947L17.83 3.267l1.28-1.947a.759.759 0 0 1 1.013-.234c1.335.568 2.5 1.26 3.496 2.073z"/>
</svg>
