<svg width="14" height="14" viewBox="0 0 14 14" fill="none" xmlns="http://www.w3.org/2000/svg">
    <path fill-rule="evenodd" clip-rule="evenodd" d="M3.5625 3.75H14.0625C14.7844 3.75 15.375 4.34062 15.375 5.0625V12.9375C15.375 13.6594 14.7844 14.25 14.0625 14.25H3.5625C2.84062 14.25 2.25 13.6594 2.25 12.9375L2.25656 5.0625C2.25656 4.34062 2.84062 3.75 3.5625 3.75ZM9.16031 9.43969L13.8 6.53907C13.9641 6.43407 14.0625 6.25688 14.0625 6.06657C14.0625 5.62688 13.5834 5.36438 13.2094 5.59407L8.8125 8.34375L4.41562 5.59407C4.04156 5.36438 3.5625 5.62688 3.5625 6.06657C3.5625 6.25688 3.66094 6.43407 3.825 6.53907L8.46469 9.43969C8.67469 9.57094 8.95031 9.57094 9.16031 9.43969Z" fill="#133DBD"/>
</svg>
