<svg width="24" height="24" viewBox="0 0 24 24" fill="none" xmlns="http://www.w3.org/2000/svg">
    <path fill-rule="evenodd" clip-rule="evenodd" d="M18.001 10.75V15.75L19.291 17.04C19.921 17.67 19.471 18.75 18.581 18.75H5.41103C4.52103 18.75 4.08103 17.67 4.71103 17.04L6.00103 15.75V10.75C6.00103 7.67 7.63103 5.11 10.501 4.43V3.75C10.501 2.92 11.171 2.25 12.001 2.25C12.831 2.25 13.501 2.92 13.501 3.75V4.43C16.361 5.11 18.001 7.68 18.001 10.75ZM14.001 19.75C14.001 20.85 13.101 21.75 12.001 21.75C10.891 21.75 10.001 20.85 10.001 19.75H14.001Z" fill="#133DBD"/>
</svg>
