<svg width="24" height="24" fill="none" viewBox="0 0 24 24" xmlns="http://www.w3.org/2000/svg">
    <defs>
        <clipPath>
            <path d="M13.417 20.73a2.095 2.095 0 0 1-2.824-.01l-.115-.105c-5.51-4.986-9.11-8.25-8.974-12.322.063-1.785.976-3.496 2.456-4.503C6.73 1.9 10.152 2.782 12 4.944c1.847-2.162 5.269-3.054 8.04-1.154 1.48 1.007 2.393 2.718 2.456 4.503.147 4.072-3.464 7.336-8.974 12.343l-.105.094z"/>
        </clipPath>
    </defs>
    <path d="M13.35 20.307c-.76.69-1.93.69-2.69-.01l-.11-.1C5.3 15.447 1.87 12.337 2 8.457c.06-1.7.93-3.33 2.34-4.29 2.64-1.8 5.9-.96 7.66 1.1 1.76-2.06 5.02-2.91 7.66-1.1 1.41.96 2.28 2.59 2.34 4.29.14 3.88-3.3 6.99-8.55 11.76l-.1.09z" fill="#81A0C5"/>
    <path fill-rule="evenodd" clip-rule="evenodd" d="M12 5.267c1.76-2.06 5.02-2.9 7.66-1.1 1.4.96 2.28 2.58 2.34 4.28.13 3.88-3.3 6.99-8.55 11.75l-.11.1c-.76.7-1.93.7-2.69.01l-.1-.09-.06-.055C5.274 15.423 1.86 12.322 2 8.457c.06-1.71.94-3.33 2.34-4.29 2.64-1.81 5.9-.96 7.66 1.1zm0 13.56l.1-.1c4.76-4.31 7.9-7.16 7.9-10.05 0-2-1.5-3.5-3.5-3.5-1.54 0-3.04.99-3.56 2.36h-1.87c-.53-1.37-2.03-2.36-3.57-2.36-2 0-3.5 1.5-3.5 3.5 0 2.89 3.14 5.74 7.9 10.05l.1.1z" fill="#fff"/>
    <g>
        <rect
            height="100%"
            width="100%"
            stroke-width="0" />
    </g>
</svg>