<svg width="32" height="32" viewBox="0 0 32 32" fill="none" xmlns="http://www.w3.org/2000/svg">
    <path fill-rule="evenodd" clip-rule="evenodd" d="M22.6665 4H8.66651C7.56193 4 6.6665 4.89543 6.6665 6V26C6.6665 27.1046 7.56194 28 8.66651 28H22.6665C23.7711 28 24.6665 27.1046 24.6665 26V6C24.6665 4.89543 23.7711 4 22.6665 4ZM12.6665 25.5C12.6665 25.7762 12.4427 26 12.1665 26H9.16651C8.89036 26 8.66651 25.7762 8.66651 25.5V22.5C8.66651 22.2239 8.89036 22 9.16651 22H12.1665C12.4427 22 12.6665 22.2239 12.6665 22.5V25.5ZM12.1665 21C12.4427 21 12.6665 20.7762 12.6665 20.5V17.5C12.6665 17.2239 12.4427 17 12.1665 17H9.16651C8.89036 17 8.66651 17.2239 8.66651 17.5V20.5C8.66651 20.7762 8.89036 21 9.16651 21H12.1665ZM17.6665 25.5C17.6665 25.7762 17.4427 26 17.1665 26H14.1665C13.8904 26 13.6665 25.7762 13.6665 25.5V22.5C13.6665 22.2239 13.8904 22 14.1665 22H17.1665C17.4427 22 17.6665 22.2239 17.6665 22.5V25.5ZM17.1665 21C17.4427 21 17.6665 20.7762 17.6665 20.5V17.5C17.6665 17.2239 17.4427 17 17.1665 17H14.1665C13.8904 17 13.6665 17.2239 13.6665 17.5V20.5C13.6665 20.7762 13.8904 21 14.1665 21H17.1665ZM22.6665 25.5C22.6665 25.7762 22.4427 26 22.1665 26H19.1665C18.8904 26 18.6665 25.7762 18.6665 25.5V22.5C18.6665 22.2239 18.8904 22 19.1665 22H22.1665C22.4427 22 22.6665 22.2239 22.6665 22.5V25.5ZM22.1665 21C22.4427 21 22.6665 20.7762 22.6665 20.5V17.5C22.6665 17.2239 22.4427 17 22.1665 17H19.1665C18.8904 17 18.6665 17.2239 18.6665 17.5V20.5C18.6665 20.7762 18.8904 21 19.1665 21H22.1665ZM22.6665 14.5499C22.6504 14.8111 22.428 15.0113 22.1665 14.9999H9.16651C8.90503 15.0113 8.68261 14.8111 8.66651 14.5499V6.4499C8.68261 6.18867 8.90503 5.9885 9.16651 5.9999H22.1665C22.428 5.9885 22.6504 6.18867 22.6665 6.4499V14.5499ZM18.1665 7.5H19.1665C19.9949 7.5 20.6665 8.17158 20.6665 9V12C20.6665 12.8284 19.9949 13.5 19.1665 13.5H18.1665C17.3381 13.5 16.6665 12.8284 16.6665 12V9C16.6665 8.17158 17.3381 7.5 18.1665 7.5ZM18.1665 8.50001H19.1665C19.3771 8.5001 19.565 8.63204 19.6365 8.83001L17.6365 10.83V9.00001C17.636 8.72387 17.8595 8.49961 18.1356 8.49911C18.146 8.49909 18.1563 8.49939 18.1665 8.50001ZM18.1665 12.5H19.1665C19.4427 12.5 19.6665 12.2761 19.6665 12V10.17L17.6665 12.17C17.7415 12.3787 17.9451 12.513 18.1665 12.5Z" fill="#133DBD"/>
    <mask id="mask0_1_581" style="mask-type:luminance" maskUnits="userSpaceOnUse" x="6" y="4" width="19" height="24">
        <path fill-rule="evenodd" clip-rule="evenodd" d="M22.6665 4H8.66651C7.56193 4 6.6665 4.89543 6.6665 6V26C6.6665 27.1046 7.56194 28 8.66651 28H22.6665C23.7711 28 24.6665 27.1046 24.6665 26V6C24.6665 4.89543 23.7711 4 22.6665 4ZM12.6665 25.5C12.6665 25.7762 12.4427 26 12.1665 26H9.16651C8.89036 26 8.66651 25.7762 8.66651 25.5V22.5C8.66651 22.2239 8.89036 22 9.16651 22H12.1665C12.4427 22 12.6665 22.2239 12.6665 22.5V25.5ZM12.1665 21C12.4427 21 12.6665 20.7762 12.6665 20.5V17.5C12.6665 17.2239 12.4427 17 12.1665 17H9.16651C8.89036 17 8.66651 17.2239 8.66651 17.5V20.5C8.66651 20.7762 8.89036 21 9.16651 21H12.1665ZM17.6665 25.5C17.6665 25.7762 17.4427 26 17.1665 26H14.1665C13.8904 26 13.6665 25.7762 13.6665 25.5V22.5C13.6665 22.2239 13.8904 22 14.1665 22H17.1665C17.4427 22 17.6665 22.2239 17.6665 22.5V25.5ZM17.1665 21C17.4427 21 17.6665 20.7762 17.6665 20.5V17.5C17.6665 17.2239 17.4427 17 17.1665 17H14.1665C13.8904 17 13.6665 17.2239 13.6665 17.5V20.5C13.6665 20.7762 13.8904 21 14.1665 21H17.1665ZM22.6665 25.5C22.6665 25.7762 22.4427 26 22.1665 26H19.1665C18.8904 26 18.6665 25.7762 18.6665 25.5V22.5C18.6665 22.2239 18.8904 22 19.1665 22H22.1665C22.4427 22 22.6665 22.2239 22.6665 22.5V25.5ZM22.1665 21C22.4427 21 22.6665 20.7762 22.6665 20.5V17.5C22.6665 17.2239 22.4427 17 22.1665 17H19.1665C18.8904 17 18.6665 17.2239 18.6665 17.5V20.5C18.6665 20.7762 18.8904 21 19.1665 21H22.1665ZM22.6665 14.5499C22.6504 14.8111 22.428 15.0113 22.1665 14.9999H9.16651C8.90503 15.0113 8.68261 14.8111 8.66651 14.5499V6.4499C8.68261 6.18867 8.90503 5.9885 9.16651 5.9999H22.1665C22.428 5.9885 22.6504 6.18867 22.6665 6.4499V14.5499ZM18.1665 7.5H19.1665C19.9949 7.5 20.6665 8.17158 20.6665 9V12C20.6665 12.8284 19.9949 13.5 19.1665 13.5H18.1665C17.3381 13.5 16.6665 12.8284 16.6665 12V9C16.6665 8.17158 17.3381 7.5 18.1665 7.5ZM18.1665 8.50001H19.1665C19.3771 8.5001 19.565 8.63204 19.6365 8.83001L17.6365 10.83V9.00001C17.636 8.72387 17.8595 8.49961 18.1356 8.49911C18.146 8.49909 18.1563 8.49939 18.1665 8.50001ZM18.1665 12.5H19.1665C19.4427 12.5 19.6665 12.2761 19.6665 12V10.17L17.6665 12.17C17.7415 12.3787 17.9451 12.513 18.1665 12.5Z" fill="white"/>
    </mask>
    <g mask="url(#mask0_1_581)">
    </g>
</svg>
