<svg width="24" height="24" viewBox="0 0 24 24" fill="none" xmlns="http://www.w3.org/2000/svg">
    <path d="M12.4663 8C9.81631 8 7.41631 8.99 5.56631 10.6L3.67631 8.71C3.04631 8.08 1.96631 8.52 1.96631 9.41V15C1.96631 15.55 2.41631 16 2.96631 16H8.55631C9.44631 16 9.89631 14.92 9.26631 14.29L7.35631 12.38C8.74631 11.22 10.5163 10.5 12.4763 10.5C15.6363 10.5 18.3663 12.34 19.6663 15C19.9363 15.56 20.5763 15.84 21.1663 15.64C21.8763 15.41 22.2363 14.6 21.9163 13.92C20.1963 10.42 16.6163 8 12.4663 8Z" fill="#133DBD"/>
</svg>
