<svg width="24" height="24" viewBox="0 0 24 24" fill="none" xmlns="http://www.w3.org/2000/svg">
    <path d="M9.88125 8.536C9.88125 9.08 9.77992 9.62933 9.57725 10.184C9.38525 10.7387 9.13458 11.2827 8.82525 11.816C8.52658 12.3493 8.19058 12.8667 7.81725 13.368C7.45458 13.8587 7.09725 14.312 6.74525 14.728L5.89725 15.384V15.464L7.04925 15.24H10.1213V17H3.38525V15.928C3.64125 15.6613 3.92925 15.352 4.24925 15C4.56925 14.6373 4.88925 14.2587 5.20925 13.864C5.53992 13.4587 5.85992 13.0427 6.16925 12.616C6.47858 12.1893 6.75592 11.7627 7.00125 11.336C7.24658 10.8987 7.43858 10.4773 7.57725 10.072C7.72658 9.66667 7.80125 9.28267 7.80125 8.92C7.80125 8.48267 7.67325 8.12533 7.41725 7.848C7.17192 7.56 6.77725 7.416 6.23325 7.416C5.89192 7.416 5.53992 7.49067 5.17725 7.64C4.82525 7.77867 4.52658 7.96 4.28125 8.184L3.44925 6.712C3.86525 6.37067 4.33458 6.09867 4.85725 5.896C5.39058 5.68267 6.01458 5.576 6.72925 5.576C7.18792 5.576 7.60925 5.64 7.99325 5.768C8.37725 5.896 8.70792 6.08267 8.98525 6.328C9.26258 6.57333 9.48125 6.88267 9.64125 7.256C9.80125 7.61867 9.88125 8.04533 9.88125 8.536ZM12.3194 5.8C12.5434 5.768 12.794 5.74133 13.0714 5.72C13.3594 5.69867 13.6527 5.68267 13.9514 5.672C14.25 5.66133 14.538 5.656 14.8154 5.656C15.1034 5.64533 15.3594 5.64 15.5834 5.64C16.5754 5.64 17.4234 5.77867 18.1274 6.056C18.8314 6.33333 19.402 6.72267 19.8394 7.224C20.2767 7.72533 20.5967 8.32267 20.7994 9.016C21.002 9.70933 21.1034 10.472 21.1034 11.304C21.1034 12.0613 21.0074 12.792 20.8154 13.496C20.6234 14.2 20.3034 14.824 19.8554 15.368C19.4074 15.912 18.8154 16.3493 18.0794 16.68C17.354 17.0107 16.4527 17.176 15.3754 17.176C15.2047 17.176 14.9754 17.1707 14.6874 17.16C14.41 17.1493 14.1167 17.1333 13.8074 17.112C13.5087 17.1013 13.2207 17.0853 12.9434 17.064C12.666 17.0533 12.458 17.0373 12.3194 17.016V5.8ZM15.7594 7.592C15.5247 7.592 15.2847 7.59733 15.0394 7.608C14.8047 7.61867 14.6287 7.63467 14.5114 7.656V15.16C14.554 15.1707 14.6234 15.1813 14.7194 15.192C14.826 15.192 14.938 15.1973 15.0554 15.208C15.1727 15.208 15.2847 15.2133 15.3914 15.224C15.498 15.224 15.578 15.224 15.6314 15.224C16.25 15.224 16.762 15.1173 17.1674 14.904C17.5834 14.68 17.9087 14.3867 18.1434 14.024C18.3887 13.6613 18.5594 13.2453 18.6554 12.776C18.7514 12.296 18.7994 11.8053 18.7994 11.304C18.7994 10.8667 18.7567 10.4293 18.6714 9.992C18.586 9.544 18.426 9.144 18.1914 8.792C17.9674 8.44 17.658 8.152 17.2634 7.928C16.8687 7.704 16.3674 7.592 15.7594 7.592Z" fill="#133DBD"/>
</svg>
