<svg width="16" height="16" viewBox="0 0 16 16" fill="none" xmlns="http://www.w3.org/2000/svg">
    <path fill-rule="evenodd" clip-rule="evenodd" d="M14 7.72667V3.33333C14 2.6 13.4 2 12.6667 2H3.33333C2.6 2 2 2.6 2 3.33333V6.38667L4 8.39333L6.2 6.2C6.32455 6.07517 6.49366 6.00501 6.67 6.00501C6.84635 6.00501 7.01545 6.07517 7.14 6.2L9.33333 8.39333L11.5267 6.19333C11.7867 5.93333 12.2133 5.93333 12.4733 6.19333L14 7.72667ZM14 9.62L12 7.61333L9.8 9.8C9.54 10.06 9.12 10.06 8.86 9.8L6.66667 7.60667L4.46667 9.80667C4.20667 10.0667 3.78667 10.0667 3.52667 9.80667L2 8.28V12.6667C2 13.4 2.6 14 3.33333 14H12.6667C13.4 14 14 13.4 14 12.6667V9.62Z" fill="#133DBD"/>
</svg>
