<svg width="500" height="200" viewBox="0 0 500 200" fill="none" xmlns="http://www.w3.org/2000/svg">
    <g clip-path="url(#clip0_1_4459)">
        <path d="M250 200C372.215 200 471.29 184.397 471.29 165.15C471.29 145.903 372.215 130.3 250 130.3C127.785 130.3 28.71 145.903 28.71 165.15C28.71 184.397 127.785 200 250 200Z" fill="#EBF0F6"/>
        <path d="M317.33 101.15V107.9H315.24V112.8H322.23V96.25H317.16L318.05 101.15H317.33Z" fill="#0022CD"/>
        <path d="M194.09 107.9V101.15H193.37L194.26 96.25H189.19V112.8H196.19V107.9H194.09Z" fill="#0022CD"/>
        <path d="M201.08 118.5V199.14C212.35 199.54 223.94 199.81 235.79 199.93V197.24C235.795 192.083 237.846 187.139 241.493 183.493C245.139 179.846 250.083 177.795 255.24 177.79H256.18C261.337 177.795 266.281 179.846 269.927 183.493C273.574 187.139 275.625 192.083 275.63 197.24V199.77C287.51 199.55 299.11 199.19 310.34 198.69V118.5H201.08ZM241.85 171H211.33V146.46C211.33 142.413 212.938 138.531 215.799 135.67C218.661 132.808 222.543 131.2 226.59 131.2C230.637 131.2 234.519 132.808 237.38 135.67C240.242 138.531 241.85 142.413 241.85 146.46V171ZM267.24 171V146.46C267.24 142.413 268.848 138.531 271.71 135.67C274.571 132.808 278.453 131.2 282.5 131.2C286.547 131.2 290.429 132.808 293.29 135.67C296.152 138.531 297.76 142.413 297.76 146.46V171H267.24Z" fill="white"/>
        <path d="M256.18 182.69H255.24C251.381 182.693 247.681 184.226 244.951 186.954C242.221 189.682 240.685 193.381 240.68 197.24V200C243.78 200 246.88 200 250 200C256.993 200 263.907 199.95 270.74 199.85V197.24C270.735 193.381 269.199 189.682 266.469 186.954C263.739 184.226 260.039 182.693 256.18 182.69Z" fill="white"/>
        <path d="M228.71 143.75C225.45 143.75 222.8 141.89 222.8 139.61C222.862 138.866 223.131 138.154 223.576 137.555C224.021 136.956 224.625 136.494 225.32 136.22C222.817 136.527 220.511 137.736 218.836 139.621C217.161 141.506 216.23 143.938 216.22 146.46V166.14H237V146.46C236.988 144.076 236.147 141.771 234.62 139.94C234.33 142.06 231.82 143.75 228.71 143.75Z" fill="white"/>
        <path d="M286.66 143.75C283.4 143.75 280.75 141.89 280.75 139.61C280.811 138.85 281.089 138.123 281.549 137.515C282.01 136.908 282.635 136.444 283.35 136.18C283.06 136.18 282.79 136.09 282.5 136.09C279.752 136.095 277.119 137.19 275.177 139.134C273.235 141.078 272.143 143.712 272.14 146.46V166.14H292.87V146.46C292.859 144.821 292.454 143.21 291.69 141.76C291.036 142.423 290.251 142.943 289.385 143.285C288.519 143.628 287.591 143.786 286.66 143.75Z" fill="white"/>
        <path d="M311.63 104.52H199.8V107.9H311.63V104.52Z" fill="white"/>
        <path d="M310.34 112.8H201.08V118.51H310.34V112.8Z" fill="#CCFF69"/>
        <path d="M311.62 112.8V198.63L315.24 198.46V112.8H311.62Z" fill="#0022CD"/>
        <path d="M199.8 112.8H196.18V199L199.8 199.14V112.8Z" fill="#0022CD"/>
        <path d="M311.62 107.9V111.51V112.8H315.24V107.9H311.62Z" fill="#0022CD"/>
        <path d="M199.8 111.51V107.9H196.19V112.8H199.8V111.51Z" fill="#0022CD"/>
        <path d="M199.8 118.5V199.1H201.08V118.5H199.8Z" fill="#0022CD"/>
        <path d="M310.34 118.5V198.69L311.62 198.63V118.5H310.34Z" fill="#0022CD"/>
        <path d="M311.63 107.9H199.8V111.51H311.63V107.9Z" fill="#0022CD"/>
        <path d="M201.08 112.8H199.8V118.51H201.08V112.8Z" fill="#0022CD"/>
        <path d="M311.62 112.8H310.34V118.51H311.62V112.8Z" fill="#0022CD"/>
        <path d="M199.8 111.51V112.8H201.08H310.34H311.62V111.51H199.8Z" fill="#0022CD"/>
        <path d="M256.18 177.79H255.24C250.083 177.795 245.139 179.846 241.493 183.493C237.846 187.139 235.795 192.083 235.79 197.24V199.93H240.68V197.2C240.685 193.341 242.221 189.642 244.951 186.914C247.681 184.186 251.381 182.653 255.24 182.65H256.18C260.039 182.653 263.739 184.186 266.469 186.914C269.199 189.642 270.735 193.341 270.74 197.2V199.81L275.63 199.73V197.2C275.614 192.05 273.558 187.116 269.913 183.478C266.268 179.841 261.33 177.795 256.18 177.79Z" fill="#0022CD"/>
        <path d="M199.83 93H198.87V88.1H200.72L201.52 83.68H201.2V78.78H202.41L203 75.52H280.05V70.63H198.92L194.26 96.25H199.24L199.83 93Z" fill="#0022CD"/>
        <path d="M308.42 75.52L309.01 78.78H311.62V83.68H309.9L310.7 88.1H311.62V93H311.59L312.19 96.25H317.16L312.5 70.63H298.93V75.52H308.42Z" fill="#0022CD"/>
        <path d="M194.09 101.15H280.05V96.25H199.24H194.26L193.37 101.15H194.09Z" fill="#0022CD"/>
        <path d="M298.93 96.25V101.15H317.33H318.05L317.16 96.25H312.19H298.93Z" fill="#0022CD"/>
        <path d="M294.03 68.5299H284.95V70.6199H294.03V68.5299Z" fill="white"/>
        <path d="M294.03 75.5199H284.95V96.2499H294.03V75.5199Z" fill="white"/>
        <path d="M294.03 70.63H284.95V75.53H294.03V70.63Z" fill="white"/>
        <path d="M282.5 66.0799H296.48V70.6299H298.93V63.6399H280.05V70.6299H282.5V66.0799Z" fill="#0022CD"/>
        <path d="M282.5 75.5199H280.05V78.7799H281.34V83.6799H280.05V88.0999H281.34V92.9999H280.05V96.2499H282.5V75.5199Z" fill="#0022CD"/>
        <path d="M298.93 96.2499V92.9999H296.72V88.0999H298.93V83.6799H296.72V78.7799H298.93V75.5199H296.48V96.2499H298.93Z" fill="#0022CD"/>
        <path d="M282.5 70.63H280.05V75.53H282.5V70.63Z" fill="#0022CD"/>
        <path d="M298.93 70.63H296.48V75.53H298.93V70.63Z" fill="#0022CD"/>
        <path d="M298.93 96.25H296.48V98.7H282.5V96.25H280.05V101.15H298.93V96.25Z" fill="#0022CD"/>
        <path d="M284.95 68.53H294.03V70.63H296.48V66.08H282.5V70.63H284.95V68.53Z" fill="#0022CD"/>
        <path d="M284.95 75.5199H282.5V96.2499H284.95V75.5199Z" fill="#0022CD"/>
        <path d="M296.48 75.5199H294.03V96.2499H296.48V75.5199Z" fill="#0022CD"/>
        <path d="M296.48 70.63H294.03V75.53H296.48V70.63Z" fill="#0022CD"/>
        <path d="M284.95 70.63H282.5V75.53H284.95V70.63Z" fill="#0022CD"/>
        <path d="M284.95 96.25H282.5V98.7H296.48V96.25H294.03H284.95Z" fill="#0022CD"/>
        <path d="M280.05 78.7799H202.41L201.52 83.6799H280.05V78.7799Z" fill="#0022CD"/>
        <path d="M201.2 78.7799V83.6799H201.52L202.41 78.7799H201.2Z" fill="#0022CD"/>
        <path d="M281.33 78.7799H280.05V83.6799H281.33V78.7799Z" fill="#0022CD"/>
        <path d="M280.05 88.1H200.72L199.83 93H280.05V88.1Z" fill="#0022CD"/>
        <path d="M198.87 88.1V93H199.83L200.72 88.1H198.87Z" fill="#0022CD"/>
        <path d="M281.33 88.1H280.05V93H281.33V88.1Z" fill="#0022CD"/>
        <path d="M298.93 83.6799H309.9L309.01 78.7799H298.93V83.6799Z" fill="#0022CD"/>
        <path d="M311.62 83.6799V78.7799H309.01L309.9 83.6799H311.62Z" fill="#0022CD"/>
        <path d="M298.93 78.7799H296.72V83.6799H298.93V78.7799Z" fill="#0022CD"/>
        <path d="M298.93 93H311.59L310.7 88.1H298.93V93Z" fill="#0022CD"/>
        <path d="M311.62 93V88.1H310.7L311.59 93H311.62Z" fill="#0022CD"/>
        <path d="M298.93 88.1H296.72V93H298.93V88.1Z" fill="#0022CD"/>
        <path d="M222.8 139.61C222.8 141.89 225.45 143.75 228.71 143.75C231.82 143.75 234.33 142.06 234.58 139.94C233.618 138.742 232.4 137.775 231.016 137.109C229.632 136.443 228.116 136.095 226.58 136.09C226.154 136.108 225.73 136.151 225.31 136.22C224.617 136.495 224.015 136.958 223.572 137.557C223.128 138.156 222.861 138.867 222.8 139.61Z" fill="#CCFF69"/>
        <path d="M280.75 139.61C280.75 141.89 283.4 143.75 286.66 143.75C287.586 143.781 288.509 143.619 289.37 143.274C290.23 142.93 291.01 142.411 291.66 141.75C290.86 140.187 289.674 138.853 288.215 137.877C286.755 136.9 285.07 136.313 283.32 136.17C282.609 136.44 281.989 136.907 281.534 137.516C281.079 138.125 280.807 138.852 280.75 139.61Z" fill="#CCFF69"/>
        <path d="M282.5 131.2C278.454 131.205 274.576 132.815 271.715 135.675C268.855 138.536 267.245 142.414 267.24 146.46V171H297.76V146.46C297.757 142.414 296.149 138.534 293.288 135.672C290.426 132.811 286.546 131.203 282.5 131.2ZM292.87 166.14H272.14V146.46C272.143 143.712 273.235 141.078 275.177 139.134C277.119 137.19 279.752 136.095 282.5 136.09C282.79 136.09 283.06 136.16 283.35 136.18C284.387 135.701 285.518 135.458 286.66 135.47C289.93 135.47 292.58 137.32 292.58 139.61C292.556 140.411 292.239 141.176 291.69 141.76C292.454 143.21 292.859 144.821 292.87 146.46V166.14Z" fill="#0022CD"/>
        <path d="M291.69 141.76C292.239 141.176 292.556 140.411 292.58 139.61C292.58 137.32 289.93 135.47 286.66 135.47C285.518 135.459 284.387 135.701 283.35 136.18C285.1 136.323 286.785 136.91 288.245 137.887C289.704 138.863 290.89 140.197 291.69 141.76Z" fill="#0022CD"/>
        <path d="M226.59 131.2C222.544 131.203 218.664 132.811 215.802 135.672C212.941 138.534 211.333 142.414 211.33 146.46V171H241.85V146.46C241.845 142.414 240.235 138.536 237.375 135.675C234.514 132.815 230.636 131.205 226.59 131.2ZM237 166.14H216.22V146.46C216.23 143.938 217.161 141.506 218.836 139.621C220.511 137.736 222.817 136.527 225.32 136.22C226.379 135.717 227.538 135.461 228.71 135.47C231.98 135.47 234.63 137.32 234.63 139.61C234.63 139.72 234.63 139.82 234.63 139.94C236.157 141.771 236.998 144.076 237.01 146.46L237 166.14Z" fill="#0022CD"/>
        <path d="M234.58 139.94C234.58 139.82 234.58 139.72 234.58 139.61C234.58 137.32 231.93 135.47 228.66 135.47C227.488 135.461 226.329 135.717 225.27 136.22C225.69 136.151 226.114 136.108 226.54 136.09C228.083 136.089 229.606 136.434 230.998 137.1C232.39 137.767 233.614 138.737 234.58 139.94Z" fill="#0022CD"/>
        <path d="M306.77 61.51C306.12 61.51 305.497 61.2519 305.038 60.7924C304.578 60.3329 304.32 59.7098 304.32 59.06V10.8C304.32 10.1502 304.578 9.52703 305.038 9.06756C305.497 8.6081 306.12 8.34998 306.77 8.34998C307.42 8.34998 308.043 8.6081 308.502 9.06756C308.962 9.52703 309.22 10.1502 309.22 10.8V59.06C309.22 59.7098 308.962 60.3329 308.502 60.7924C308.043 61.2519 307.42 61.51 306.77 61.51Z" fill="#0022CD"/>
        <path d="M319.78 76.36C319.13 76.36 318.507 76.1018 318.048 75.6424C317.588 75.1829 317.33 74.5597 317.33 73.91V34.91C317.33 34.2602 317.588 33.637 318.048 33.1776C318.507 32.7181 319.13 32.46 319.78 32.46C320.43 32.46 321.053 32.7181 321.512 33.1776C321.972 33.637 322.23 34.2602 322.23 34.91V73.91C322.23 74.5597 321.972 75.1829 321.512 75.6424C321.053 76.1018 320.43 76.36 319.78 76.36Z" fill="#0022CD"/>
        <path d="M320.82 27.17C320.499 27.17 320.181 27.1065 319.884 26.9833C319.587 26.86 319.318 26.6794 319.091 26.4518C318.864 26.2241 318.685 25.954 318.563 25.6568C318.441 25.3596 318.379 25.0412 318.38 24.7199V2.44995C318.359 2.11572 318.406 1.78065 318.519 1.46544C318.632 1.15024 318.809 0.861584 319.038 0.617318C319.267 0.373052 319.544 0.17836 319.851 0.0452666C320.159 -0.0878267 320.49 -0.156494 320.825 -0.156494C321.16 -0.156494 321.491 -0.0878267 321.799 0.0452666C322.106 0.17836 322.383 0.373052 322.612 0.617318C322.841 0.861584 323.018 1.15024 323.131 1.46544C323.244 1.78065 323.291 2.11572 323.27 2.44995V24.7199C323.271 25.0421 323.209 25.3612 323.086 25.6591C322.964 25.9569 322.783 26.2275 322.555 26.4553C322.328 26.6831 322.057 26.8635 321.759 26.9861C321.461 27.1088 321.142 27.1713 320.82 27.17Z" fill="#0022CD"/>
        <path d="M334 92.1299C333.352 92.1299 332.73 91.8732 332.271 91.4159C331.812 90.9585 331.553 90.338 331.55 89.6899V18.2299C331.55 17.5801 331.808 16.957 332.268 16.4975C332.727 16.038 333.35 15.7799 334 15.7799C334.65 15.7799 335.273 16.038 335.732 16.4975C336.192 16.957 336.45 17.5801 336.45 18.2299V89.6899C336.447 90.338 336.188 90.9585 335.729 91.4159C335.27 91.8732 334.648 92.1299 334 92.1299Z" fill="#0022CD"/>
        <path d="M206.37 66.15C205.722 66.1473 205.101 65.888 204.644 65.4288C204.187 64.9697 203.93 64.348 203.93 63.7V24.7C203.909 24.3657 203.956 24.0306 204.069 23.7154C204.182 23.4002 204.359 23.1116 204.588 22.8673C204.817 22.6231 205.094 22.4284 205.401 22.2953C205.709 22.1622 206.04 22.0935 206.375 22.0935C206.71 22.0935 207.041 22.1622 207.349 22.2953C207.656 22.4284 207.933 22.6231 208.162 22.8673C208.391 23.1116 208.568 23.4002 208.681 23.7154C208.794 24.0306 208.841 24.3657 208.82 24.7V63.7C208.82 64.0217 208.757 64.3403 208.633 64.6375C208.51 64.9348 208.33 65.2049 208.102 65.4324C207.875 65.6599 207.605 65.8403 207.308 65.9635C207.01 66.0866 206.692 66.15 206.37 66.15Z" fill="#0022CD"/>
        <path d="M189.68 80.0699C189.359 80.0699 189.041 80.0065 188.744 79.8832C188.447 79.76 188.178 79.5794 187.951 79.3517C187.724 79.1241 187.545 78.8539 187.423 78.5567C187.301 78.2596 187.239 77.9412 187.24 77.6199V34.9299C187.219 34.5957 187.266 34.2606 187.379 33.9454C187.492 33.6302 187.669 33.3416 187.898 33.0973C188.127 32.853 188.404 32.6583 188.711 32.5252C189.019 32.3922 189.35 32.3235 189.685 32.3235C190.02 32.3235 190.351 32.3922 190.659 32.5252C190.966 32.6583 191.243 32.853 191.472 33.0973C191.701 33.3416 191.878 33.6302 191.991 33.9454C192.104 34.2606 192.151 34.5957 192.13 34.9299V77.6199C192.131 77.942 192.069 78.2612 191.946 78.5591C191.824 78.8569 191.643 79.1275 191.415 79.3553C191.188 79.5831 190.917 79.7635 190.619 79.8861C190.321 80.0088 190.002 80.0713 189.68 80.0699Z" fill="#0022CD"/>
        <path d="M176.67 97.7C176.023 97.7 175.402 97.4429 174.945 96.9853C174.487 96.5277 174.23 95.9071 174.23 95.26V53.49C174.209 53.1558 174.256 52.8207 174.369 52.5055C174.482 52.1903 174.659 51.9016 174.888 51.6574C175.117 51.4131 175.394 51.2184 175.701 51.0853C176.009 50.9522 176.34 50.8835 176.675 50.8835C177.01 50.8835 177.341 50.9522 177.649 51.0853C177.956 51.2184 178.233 51.4131 178.462 51.6574C178.691 51.9016 178.868 52.1903 178.981 52.5055C179.094 52.8207 179.141 53.1558 179.12 53.49V95.26C179.12 95.5813 179.057 95.8994 178.933 96.196C178.81 96.4927 178.629 96.7622 178.402 96.9889C178.174 97.2156 177.904 97.3951 177.607 97.5171C177.31 97.6392 176.991 97.7013 176.67 97.7Z" fill="#0022CD"/>
        <path d="M189.68 24.3799C189.033 24.3799 188.412 24.1229 187.955 23.6653C187.497 23.2077 187.24 22.5871 187.24 21.94V2.44995C187.219 2.11572 187.266 1.78065 187.379 1.46544C187.492 1.15024 187.669 0.861584 187.898 0.617318C188.127 0.373052 188.404 0.17836 188.711 0.0452666C189.019 -0.0878267 189.35 -0.156494 189.685 -0.156494C190.02 -0.156494 190.351 -0.0878267 190.659 0.0452666C190.966 0.17836 191.243 0.373052 191.472 0.617318C191.701 0.861584 191.878 1.15024 191.991 1.46544C192.104 1.78065 192.151 2.11572 192.13 2.44995V21.94C192.13 22.2612 192.067 22.5793 191.943 22.876C191.82 23.1727 191.639 23.4421 191.412 23.6688C191.184 23.8955 190.914 24.0751 190.617 24.1971C190.32 24.3191 190.001 24.3813 189.68 24.3799Z" fill="#0022CD"/>
    </g>
    <defs>
        <clipPath id="clip0_1_4459">
            <rect width="500" height="200" fill="white"/>
        </clipPath>
    </defs>
</svg>
