<svg width="380" height="152" viewBox="0 0 380 152" fill="none" xmlns="http://www.w3.org/2000/svg">
    <mask id="mask0_1_4887" style="mask-type:alpha" maskUnits="userSpaceOnUse" x="98" y="0" width="174" height="148">
        <path fill-rule="evenodd" clip-rule="evenodd" d="M235.882 148C257.209 133.066 271.04 109.064 271.04 82C271.04 36.7127 232.313 0 184.54 0C136.767 0 98.04 36.7127 98.04 82C98.04 109.064 111.871 133.066 133.198 148H235.882Z" fill="#C4C4C4"/>
    </mask>
    <g mask="url(#mask0_1_4887)">
        <ellipse cx="184.54" cy="82" rx="86.5" ry="82" fill="#EBF0F6"/>
    </g>
    <path d="M239.004 146.381H113.07V148.456H239.004V146.381Z" fill="#0022CD"/>
    <path d="M206.902 53.9688H176.867V60.1938H206.902V53.9688Z" fill="#CCFF69"/>
    <path d="M207.932 61.2313H175.831V52.9313H207.932V61.2313ZM177.909 59.1563H205.867V55.0063H177.909V59.1563Z" fill="#0022CD"/>
    <path d="M202.759 55.0062H181.029V38.4125H202.778L202.759 55.0062ZM183.076 52.9312H200.687V40.4812H183.076V52.9312Z" fill="#0022CD"/>
    <path d="M202.759 39.45H181.029V39.0437C182.065 36.3375 187.145 33.225 190.353 33.225H192.425C195.788 33.2812 200.712 36.35 202.784 39.3062L202.759 39.45Z" fill="#CCFF69"/>
    <path d="M203.795 40.4813H179.975V38.875L180.044 38.6937C181.223 35.5812 186.609 32.1875 190.328 32.1875H192.4C196.375 32.2563 201.492 35.6813 203.633 38.7125L203.82 38.975L203.795 40.4813ZM182.577 38.4125H200.637C198.341 36.1625 194.784 34.3 192.387 34.2625H190.328C187.931 34.2625 184.15 36.375 182.571 38.4125H182.577Z" fill="#0022CD"/>
    <path d="M217.255 148.356H165.459V147.106C165.464 143.868 166.751 140.763 169.039 138.474C171.326 136.185 174.426 134.897 177.66 134.894H205.055C208.289 134.897 211.389 136.185 213.676 138.474C215.963 140.763 217.251 143.868 217.255 147.106V148.356ZM167.575 146.281H215.152C214.947 143.74 213.794 141.369 211.924 139.64C210.053 137.912 207.601 136.951 205.055 136.95H177.672C175.127 136.953 172.676 137.914 170.805 139.642C168.935 141.371 167.782 143.741 167.575 146.281Z" fill="#0022CD"/>
    <path d="M192.4 27H190.328V33.225H192.4V27Z" fill="#0022CD"/>
    <path d="M188.256 39.4437H186.184V53.9625H188.256V39.4437Z" fill="#0022CD"/>
    <path d="M197.579 39.4437H195.507V53.9625H197.579V39.4437Z" fill="#0022CD"/>
    <path d="M202.759 60.1937H179.975V69.5312H202.759V60.1937Z" fill="#CCFF69"/>
    <path d="M204.831 113.094H177.903V127.612H204.831V113.094Z" fill="#CCFF69"/>
    <path d="M178.44 97.5313H204.288L203.695 83.0125H179.039L178.44 97.5313Z" fill="#CCFF69"/>
    <path d="M206.94 136.95H175.787L178.976 59.1562H203.751L206.94 136.95ZM177.946 134.875H204.781L201.76 61.2312H180.967L177.946 134.875Z" fill="#0022CD"/>
    <path d="M177.08 148.537L170.982 130.675L163.375 128V122.644L157.453 117.294L151.537 110.156L146.463 126.213L143.081 130.675L133.783 142.275V148.537" fill="white"/>
    <path d="M177.541 152L170.171 131.487L162.339 128.737V123.106L156.66 117.956L151.955 112.281L147.399 126.7L143.911 131.3L134.819 142.637V148.537H132.747V141.906L142.276 130.025L145.533 125.731L151.125 108.037L158.202 116.575L164.411 122.187V127.262L171.787 129.856L179.488 151.3L177.541 152Z" fill="#0022CD"/>
    <path d="M159.543 149.038L156.766 145.425L158.838 140.238L151.587 132.975L146.981 122.306L129.838 122.606L122.587 131.944V142.313L119.504 149.144" fill="white"/>
    <path d="M158.726 149.669L155.581 145.587L157.621 140.487L150.713 133.569L146.307 123.356L130.35 123.631L123.623 132.294V142.537L120.453 149.575L118.562 148.719L121.551 142.094V131.587L129.327 121.575L147.661 121.256L152.46 132.387L160.049 139.987L157.946 145.262L160.367 148.406L158.726 149.669Z" fill="#0022CD"/>
</svg>
