<svg width="173" height="100" viewBox="0 0 173 100" xmlns="http://www.w3.org/2000/svg">
    <rect y="98" width="173" height="2" fill="#0022CD"/>
    <path d="M37.41 56.05C36.58 56.05 35.79 56.17 35.03 56.37C33.51 52.07 29.42 48.99 24.6 48.99C19.87 48.99 15.85 51.95 14.26 56.12C13.88 56.07 13.5 56.04 13.11 56.04C8.08002 56.04 4 60.12 4 65.15C4 70.18 8.08002 74.26 13.11 74.26C16.2 74.26 18.92 72.72 20.57 70.37C21.82 70.86 23.18 71.14 24.6 71.14C26.42 71.14 28.14 70.69 29.66 69.91C31.26 72.51 34.13 74.26 37.41 74.26C42.44 74.26 46.52 70.18 46.52 65.15C46.52 60.13 42.44 56.05 37.41 56.05Z" fill="white"/>
    <path d="M37.41 55.05C36.83 55.05 36.24 55.1 35.64 55.21C33.72 50.86 29.39 48 24.6 48C19.89 48 15.57 50.81 13.62 55.07C13.44 55.06 13.27 55.05 13.11 55.05C7.53002 55.05 3 59.59 3 65.16C3 70.73 7.54002 75.27 13.11 75.27C14.8 75.27 16.44 74.83 17.89 74.04L23.5 78.45V99.7H25.5V78.08L30.61 72.62C32.45 74.31 34.84 75.28 37.42 75.28C43 75.28 47.53 70.74 47.53 65.17C47.53 59.6 42.99 55.05 37.41 55.05ZM19.62 72.87C20.08 72.48 20.52 72.05 20.92 71.58C21.77 71.85 22.63 72.02 23.5 72.1V75.92L19.62 72.87ZM25.5 72.11C26.74 72.02 27.97 71.73 29.14 71.26L25.5 75.15V72.11ZM37.41 73.28C34.58 73.28 32 71.83 30.51 69.41L30.02 68.62L29.2 69.04C26.64 70.36 23.65 70.52 20.93 69.46L20.2 69.17L19.75 69.81C18.23 71.98 15.75 73.27 13.11 73.27C8.64002 73.27 5 69.63 5 65.16C5 60.69 8.64002 57.05 13.11 57.05C13.42 57.05 13.74 57.07 14.13 57.12L14.91 57.22L15.19 56.49C16.67 52.61 20.45 50 24.6 50C28.85 50 32.66 52.7 34.09 56.71L34.4 57.58L35.29 57.34C36 57.15 36.72 57.05 37.41 57.05C41.88 57.05 45.52 60.69 45.52 65.16C45.52 69.63 41.88 73.28 37.41 73.28Z" fill="#0022CD"/>
    <path d="M47.53 87.06C56.107 87.06 63.06 80.107 63.06 71.53C63.06 62.953 56.107 56 47.53 56C38.953 56 32 62.953 32 71.53C32 80.107 38.953 87.06 47.53 87.06Z" fill="#C4D3E4"/>
    <path d="M64.06 71.53C64.06 62.41 56.64 55 47.53 55C38.42 55 31 62.42 31 71.53C31 80.28 37.83 87.44 46.44 88.01V97.98C46.44 98.53 46.89 98.98 47.44 98.98C47.99 98.98 48.44 98.53 48.44 97.98V88.02C57.12 87.54 64.06 80.34 64.06 71.53ZM48.47 86.01L51.94 80.46C52.23 79.99 52.09 79.37 51.62 79.08C51.15 78.79 50.53 78.93 50.24 79.4L48.42 82.31V67.46C48.42 66.91 47.97 66.46 47.42 66.46C46.87 66.46 46.42 66.91 46.42 67.46V73.94L43.11 70.81C42.71 70.43 42.08 70.45 41.7 70.85C41.32 71.25 41.34 71.88 41.74 72.26L46.42 76.7V85.52V85.53C46.32 85.68 46.29 85.85 46.28 86.02C38.84 85.39 32.98 79.15 32.98 71.55C32.98 63.54 39.5 57.02 47.51 57.02C55.52 57.02 62.04 63.54 62.04 71.55C62.06 79.22 56.04 85.52 48.47 86.01Z" fill="#0022CD"/>
    <path d="M157.02 76.02C158.959 76.02 160.53 74.4485 160.53 72.51C160.53 70.5715 158.959 69 157.02 69C155.081 69 153.51 70.5715 153.51 72.51C153.51 74.4485 155.081 76.02 157.02 76.02Z" fill="white"/>
    <path d="M157.02 76.31C153.14 76.31 150 79.46 150 83.34C150 87.22 153.14 90.36 157.02 90.36C160.9 90.36 164.04 87.22 164.04 83.34C164.04 79.46 160.9 76.31 157.02 76.31Z" fill="white"/>
    <path d="M165.04 83.34C165.04 79.96 162.94 77.07 159.98 75.89C160.92 75.06 161.53 73.86 161.53 72.51C161.53 70.02 159.51 68 157.02 68C154.53 68 152.51 70.02 152.51 72.51C152.51 73.86 153.12 75.06 154.06 75.89C151.1 77.07 149 79.96 149 83.34C149 87.42 152.07 90.8 156.02 91.29V98.84H158.02V91.29C161.97 90.79 165.04 87.42 165.04 83.34ZM157.02 70C158.4 70 159.53 71.13 159.53 72.51C159.53 73.89 158.41 75.02 157.02 75.02C155.63 75.02 154.51 73.9 154.51 72.51C154.51 71.12 155.64 70 157.02 70ZM157.02 89.36C153.7 89.36 151 86.66 151 83.34C151 80.02 153.7 77.32 157.02 77.32C160.34 77.32 163.04 80.02 163.04 83.34C163.04 86.66 160.34 89.36 157.02 89.36Z" fill="#0022CD"/>
    <path d="M136.3 44.02H71.5601L69.0001 66.01H138.86L136.3 44.02Z" fill="#C4D3E4"/>
    <path d="M136.1 66.18H72.7501V94.64H136.1V66.18Z" fill="white"/>
    <path d="M136.1 67.1H73.3201V68.95H136.1V67.1Z" fill="#6288B9"/>
    <path d="M130.19 55.47H135.17L129.79 44.7L127.61 40.33L119.94 24.96L112.27 40.33L110.08 44.7L104.7 55.47H109.68L109.32 65.25L107.47 69.87V94.63H132.4V69.87L130.55 65.25L130.19 55.47Z" fill="white"/>
    <path d="M101.01 78.18H91.78V93.87H101.01V78.18Z" fill="white"/>
    <path d="M125.02 78.18H114.86V90.18H125.02V78.18Z" fill="white"/>
    <path d="M125.02 78.18H114.86V82.8H125.02V78.18Z" fill="white"/>
    <path d="M87.17 78.18H78.86V86.49H87.17V78.18Z" fill="white"/>
    <path d="M104.7 55.47H109.68L110.08 44.7L104.7 55.47Z" fill="white"/>
    <path d="M109.68 56.47H104.7C104.35 56.47 104.03 56.29 103.85 56C103.67 55.71 103.65 55.34 103.81 55.03L109.19 44.26C109.4 43.84 109.88 43.62 110.33 43.74C110.79 43.86 111.1 44.28 111.08 44.75L110.68 55.52C110.66 56.05 110.22 56.47 109.68 56.47ZM106.32 54.47H108.72L108.91 49.28L106.32 54.47Z" fill="#0022CD"/>
    <path d="M135.17 55.47L129.79 44.7L130.19 55.47H135.17Z" fill="white"/>
    <path d="M135.17 56.47H130.19C129.65 56.47 129.21 56.04 129.19 55.51L128.79 44.74C128.77 44.27 129.09 43.85 129.54 43.73C129.99 43.61 130.47 43.83 130.68 44.25L136.06 55.02C136.22 55.33 136.2 55.7 136.02 55.99C135.84 56.29 135.52 56.47 135.17 56.47ZM131.16 54.47H133.56L130.97 49.28L131.16 54.47Z" fill="#0022CD"/>
    <path d="M130.55 65.25L130.19 55.47L129.79 44.7L127.61 40.33L119.94 24.96L112.27 40.33L110.08 44.7L109.68 55.47L109.32 65.25" fill="white"/>
    <path d="M105.63 37.56H101.01V44.02H105.63V37.56Z" fill="white"/>
    <path d="M123.17 44.94H116.71V60.63H123.17V44.94Z" fill="white"/>
    <path d="M123.17 44.94H116.71V50.98H123.17V44.94Z" fill="white"/>
    <path d="M80.97 52.74H83.75L83.97 46.73L80.97 52.74Z" fill="white"/>
    <path d="M97.97 52.74L94.97 46.73L95.19 52.74H97.97Z" fill="white"/>
    <path d="M95.19 52.74L94.97 46.73L93.75 44.28L89.47 35.71L85.19 44.28L83.97 46.73L83.75 52.74L83.55 58.19H95.4L95.19 52.74Z" fill="white"/>
    <path d="M91.78 48.63H87.16V54.17H91.78V48.63Z" fill="white"/>
    <path d="M137.94 94.63H70.9001V98.48H137.94V94.63Z" fill="white"/>
    <path d="M87.16 77.18H78.85C78.3 77.18 77.85 77.63 77.85 78.18V86.49C77.85 87.04 78.3 87.49 78.85 87.49H87.16C87.71 87.49 88.16 87.04 88.16 86.49V78.18C88.16 77.62 87.72 77.18 87.16 77.18ZM86.16 85.49H79.85V79.18H86.16V85.49Z" fill="#0022CD"/>
    <path d="M91.78 47.63H87.16C86.61 47.63 86.16 48.08 86.16 48.63V54.17C86.16 54.72 86.61 55.17 87.16 55.17H91.78C92.33 55.17 92.78 54.72 92.78 54.17V48.63C92.78 48.08 92.33 47.63 91.78 47.63ZM90.78 53.17H88.16V49.63H90.78V53.17Z" fill="#0022CD"/>
    <path d="M116.71 61.64H123.17C123.72 61.64 124.17 61.19 124.17 60.64V50.98V44.94C124.17 44.39 123.72 43.94 123.17 43.94H116.71C116.16 43.94 115.71 44.39 115.71 44.94V50.98V60.64C115.71 61.19 116.15 61.64 116.71 61.64ZM117.71 45.94H122.17V49.98H117.71V45.94ZM117.71 51.98H122.17V59.64H117.71V51.98Z" fill="#0022CD"/>
    <path d="M138.86 67.01C139.15 67.01 139.42 66.89 139.61 66.68C139.8 66.47 139.89 66.18 139.86 65.9L137.3 43.9C137.24 43.4 136.81 43.02 136.31 43.02H130.08L120.83 24.51C120.49 23.83 119.38 23.83 119.04 24.51L109.8 43.02H106.62V37.56C106.62 37.01 106.17 36.56 105.62 36.56H101C100.45 36.56 100 37.01 100 37.56V43.02H94.2301L90.3601 35.26C90.0201 34.58 88.9101 34.58 88.5701 35.26L84.7001 43.02H71.5601C71.0501 43.02 70.6301 43.4 70.5701 43.9L68.0101 65.9C67.9801 66.18 68.0701 66.47 68.2601 66.68C68.4501 66.89 68.7201 67.01 69.0101 67.01H71.7601V93.63H70.9001C70.3501 93.63 69.9001 94.08 69.9001 94.63V98.48C69.9001 99.03 70.3501 99.48 70.9001 99.48H89.9401H102.86H137.94C138.49 99.48 138.94 99.03 138.94 98.48V94.63C138.94 94.08 138.49 93.63 137.94 93.63H137.09V67.01H138.86ZM97.9701 53.74C98.3201 53.74 98.6401 53.56 98.8201 53.27C98.9801 53.01 99.0001 52.7 98.9001 52.41H105.11L104.26 54.1H96.2301L96.2201 53.74H97.9701ZM97.0801 48.71H106.96L106.12 50.4H97.9301L97.0801 48.71ZM103.93 56.1C104.12 56.33 104.4 56.48 104.7 56.48H108.64L108.59 57.8H96.3801L96.3201 56.11H103.93V56.1ZM108.47 70.87H131.4V93.64H108.47V70.87ZM137.74 65.01H131.55L131.49 63.48H137.56L137.74 65.01ZM137.02 59.79C137.06 59.79 137.09 59.77 137.13 59.77L137.33 61.49H131.42L131.36 59.8H137.02V59.79ZM136.9 57.79H131.28L131.23 56.47H135.17C135.47 56.47 135.75 56.33 135.94 56.09H136.7L136.9 57.79ZM136.47 54.1H135.6L134.75 52.41H136.27L136.47 54.1ZM136.04 50.4H133.76L132.92 48.71H135.85L136.04 50.4ZM135.41 45.02L135.61 46.71H131.91L131.07 45.02H135.41ZM133.55 54.47H131.15L130.96 49.28L133.55 54.47ZM110.23 65.68C110.23 65.68 110.23 65.67 110.24 65.67L110.26 65.62C110.3 65.51 110.33 65.4 110.33 65.29L111.08 44.96L119.94 27.2L128.8 44.96L129.19 55.51L129.55 65.29C129.55 65.4 129.58 65.52 129.62 65.62L130.92 68.86H108.95L110.23 65.68ZM108.72 54.47H106.32L108.91 49.28L108.72 54.47ZM102.01 38.56H104.63V43.02H102.01V38.56ZM101.01 45.02H105.63H108.81L107.97 46.71H96.0801L95.8601 46.28L95.2301 45.02H101.01ZM84.9601 46.98L89.4701 37.95L93.9801 46.98L94.3601 57.19H84.5901L84.9601 46.98ZM72.4501 45.02H83.7101L83.0801 46.28L82.8601 46.71H72.2501L72.4501 45.02ZM72.0201 48.71H81.8601L81.0201 50.4H71.8201L72.0201 48.71ZM71.5901 52.4H80.0401C79.9401 52.68 79.9601 53 80.1201 53.26C80.3001 53.55 80.6201 53.73 80.9701 53.73H82.7101L82.7001 54.1H71.3901L71.5901 52.4ZM71.1601 56.1H82.6301L82.5701 57.79H70.9601L71.1601 56.1ZM70.7301 59.77C70.7701 59.77 70.8001 59.79 70.8401 59.79H108.52L108.46 61.48H70.5301L70.7301 59.77ZM70.3001 63.48H108.38L108.32 65.01H70.1201L70.3001 63.48ZM73.7501 67.18H107.48L106.56 69.48L106.55 69.5C106.51 69.61 106.49 69.72 106.49 69.83C106.49 69.84 106.48 69.85 106.48 69.87V93.64H102.02V78.18C102.02 77.63 101.57 77.18 101.02 77.18H91.7901C91.2401 77.18 90.7901 77.63 90.7901 78.18V93.64H73.7501V67.18ZM92.7801 92.87V79.18H100.01V92.87H92.7801ZM71.9001 95.63H72.7501H90.2001L89.3101 97.48H71.9001V95.63ZM91.5201 97.49L92.4101 95.64H100.38L101.27 97.49H91.5201ZM136.94 97.49H103.49L102.6 95.64H107.47H132.4H136.09H136.94V97.49ZM133.4 93.63V69.87C133.4 69.86 133.39 69.85 133.39 69.83C133.39 69.72 133.37 69.6 133.33 69.5L133.32 69.48L132.4 67.18H135.09V93.64H133.4V93.63Z" fill="#0022CD"/>
    <path d="M125.01 77.18H114.86C114.31 77.18 113.86 77.63 113.86 78.18V82.8V90.19C113.86 90.74 114.31 91.19 114.86 91.19H125.02C125.57 91.19 126.02 90.74 126.02 90.19V82.8V78.18C126.01 77.62 125.57 77.18 125.01 77.18ZM124.01 89.18H115.85V83.79H124.01V89.18ZM124.01 81.79H115.85V79.17H124.01V81.79Z" fill="#0022CD"/>
</svg>