<svg width="173" height="103" viewBox="0 0 173 103" xmlns="http://www.w3.org/2000/svg">
    <rect y="101" width="173" height="2" fill="#133DBD"/>
    <path d="M22.02 79.02C23.9585 79.02 25.53 77.4485 25.53 75.51C25.53 73.5715 23.9585 72 22.02 72C20.0815 72 18.51 73.5715 18.51 75.51C18.51 77.4485 20.0815 79.02 22.02 79.02Z" fill="white"/>
    <path d="M22.02 79.31C18.14 79.31 15 82.46 15 86.34C15 90.22 18.14 93.36 22.02 93.36C25.9 93.36 29.04 90.22 29.04 86.34C29.04 82.46 25.9 79.31 22.02 79.31Z" fill="white"/>
    <path d="M30.04 86.34C30.04 82.96 27.94 80.07 24.98 78.89C25.92 78.06 26.53 76.86 26.53 75.51C26.53 73.02 24.51 71 22.02 71C19.53 71 17.51 73.02 17.51 75.51C17.51 76.86 18.12 78.06 19.06 78.89C16.1 80.07 14 82.96 14 86.34C14 90.42 17.07 93.8 21.02 94.29V101.84H23.02V94.29C26.97 93.79 30.04 90.42 30.04 86.34ZM22.02 73C23.4 73 24.53 74.13 24.53 75.51C24.53 76.89 23.41 78.02 22.02 78.02C20.63 78.02 19.51 76.9 19.51 75.51C19.51 74.12 20.64 73 22.02 73ZM22.02 92.36C18.7 92.36 16 89.66 16 86.34C16 83.02 18.7 80.32 22.02 80.32C25.34 80.32 28.04 83.02 28.04 86.34C28.04 89.66 25.34 92.36 22.02 92.36Z" fill="#133DBD"/>
    <path d="M155.1 66.3C158.5 66 161.2 63 161.2 59.5C161.2 55.9 158.3 52.9 154.8 52.7C154.8 52.3 154.9 51.9 154.9 51.5C154.9 45.7 150.2 41 144.4 41C140.2 41 136.6 43.4 134.9 47C134.4 46.9 134 46.9 133.5 46.9C130 46.9 127.1 49.6 126.8 53C124 53.8 122 56.4 122 59.5C122 63.2 125 66.2 128.6 66.3H155.1Z" fill="#C4D3E4"/>
    <path d="M53.7 21.5C51.5 17.6 47.4 15 42.6 15C38.1 15 34.1 17.3 31.9 20.9C31.7 20.9 31.4 20.9 31.2 20.9C28 20.9 25.4 23.3 24.9 26.3C21.6 26.8 19 29.8 19 33.3C19 37.2 22.1 40.3 25.9 40.5H42.9C45.6 40.4 48 39.6 50.1 38.1C50.8 38.3 51.5 38.4 52.2 38.4C56.9 38.4 60.7 34.6 60.7 29.9C60.7 25.7 57.7 22.2 53.7 21.5Z" fill="#C4D3E4"/>
    <path d="M79 37.9H50.1V101.8H79V37.9Z" fill="white"/>
    <path d="M75.4 15.6H53.7V37.9H75.4V15.6Z" fill="white"/>
    <path d="M94.5 101.8V19.2L130.3 40.8L125.2 86.4L131.2 101.8H94.5Z" fill="white"/>
    <rect x="106" y="88" width="7" height="13" fill="#C4D3E4"/>
    <path d="M79 36.9H76.4V15.6C76.4 15 76 14.6 75.4 14.6H65.5V5C65.5 4.5 65.1 4 64.5 4C63.9 4 63.5 4.4 63.5 5V14.6H53.6C53 14.6 52.6 15 52.6 15.6V36.9H50C49.4 36.9 49 37.3 49 37.9V101.8C49 102.4 49.4 102.8 50 102.8H78.9C79.5 102.8 79.9 102.4 79.9 101.8V37.9C80 37.4 79.5 36.9 79 36.9ZM54.7 16.6H74.4V36.9H54.7V16.6ZM78 100.8H51.1V38.9H78V100.8Z" fill="#133DBD"/>
    <path d="M58.3 58.5C58.9 58.5 59.3 58.1 59.3 57.5V46.1C59.3 45.5 58.9 45.1 58.3 45.1C57.7 45.1 57.3 45.5 57.3 46.1V57.5C57.3 58 57.7 58.5 58.3 58.5Z" fill="#133DBD"/>
    <path d="M64.5 58.5C65.1 58.5 65.5 58.1 65.5 57.5V46.1C65.5 45.5 65.1 45.1 64.5 45.1C63.9 45.1 63.5 45.5 63.5 46.1V57.5C63.5 58 64 58.5 64.5 58.5Z" fill="#133DBD"/>
    <path d="M70.8 58.5C71.4 58.5 71.8 58.1 71.8 57.5V46.1C71.8 45.5 71.4 45.1 70.8 45.1C70.2 45.1 69.8 45.5 69.8 46.1V57.5C69.8 58 70.3 58.5 70.8 58.5Z" fill="#133DBD"/>
    <path d="M58.3 75.8C58.9 75.8 59.3 75.4 59.3 74.8V63.4C59.3 62.8 58.9 62.4 58.3 62.4C57.7 62.4 57.3 62.8 57.3 63.4V74.8C57.3 75.3 57.7 75.8 58.3 75.8Z" fill="#133DBD"/>
    <path d="M64.5 75.8C65.1 75.8 65.5 75.4 65.5 74.8V63.4C65.5 62.8 65.1 62.4 64.5 62.4C63.9 62.4 63.5 62.8 63.5 63.4V74.8C63.5 75.3 64 75.8 64.5 75.8Z" fill="#133DBD"/>
    <path d="M70.8 75.8C71.4 75.8 71.8 75.4 71.8 74.8V63.4C71.8 62.8 71.4 62.4 70.8 62.4C70.2 62.4 69.8 62.8 69.8 63.4V74.8C69.8 75.3 70.3 75.8 70.8 75.8Z" fill="#133DBD"/>
    <path d="M58.3 93C58.9 93 59.3 92.6 59.3 92V80.6C59.3 80 58.9 79.6 58.3 79.6C57.7 79.6 57.3 80 57.3 80.6V92C57.3 92.6 57.7 93 58.3 93Z" fill="#133DBD"/>
    <path d="M64.5 93C65.1 93 65.5 92.6 65.5 92V80.6C65.5 80 65.1 79.6 64.5 79.6C63.9 79.6 63.5 80 63.5 80.6V92C63.5 92.6 64 93 64.5 93Z" fill="#133DBD"/>
    <path d="M70.8 93C71.4 93 71.8 92.6 71.8 92V80.6C71.8 80 71.4 79.6 70.8 79.6C70.2 79.6 69.8 80 69.8 80.6V92C69.8 92.6 70.3 93 70.8 93Z" fill="#133DBD"/>
    <path d="M94 19L130 40.5L124.5 86.5L131 102.5H94V19Z" fill="white"/>
    <path d="M132.1 101.4L126.2 86.3L131.3 40.9C131.3 40.5 131.2 40.1 130.8 39.9L95 18.4C94.7 18.2 94.3 18.2 94 18.4C93.7 18.6 93.5 18.9 93.5 19.3V101.9C93.5 102.5 93.9 102.9 94.5 102.9H131.2C131.5 102.9 131.8 102.7 132 102.5C132.2 102.1 132.2 101.7 132.1 101.4ZM107.2 100.1V89.2H112.2V100H107.2V100.1ZM114.2 100.8V88.2C114.2 87.6 113.8 87.2 113.2 87.2H106.2C105.6 87.2 105.2 87.6 105.2 88.2V100.8H95.5V21L129.2 41.3L124.2 86.3C124.2 86.5 124.2 86.6 124.3 86.8L129.8 100.8H114.2Z" fill="#133DBD"/>
    <path d="M103.5 44.2C102.9 44.2 102.5 44.6 102.5 45.2V51C102.5 51.6 102.9 52 103.5 52C104.1 52 104.5 51.6 104.5 51V45.2C104.5 44.6 104.1 44.2 103.5 44.2Z" fill="#133DBD"/>
    <path d="M109.8 44.2C109.2 44.2 108.8 44.6 108.8 45.2V51C108.8 51.6 109.2 52 109.8 52C110.4 52 110.8 51.6 110.8 51V45.2C110.8 44.6 110.4 44.2 109.8 44.2Z" fill="#133DBD"/>
    <path d="M116.1 44.2C115.5 44.2 115.1 44.6 115.1 45.2V51C115.1 51.6 115.5 52 116.1 52C116.7 52 117.1 51.6 117.1 51V45.2C117.1 44.6 116.6 44.2 116.1 44.2Z" fill="#133DBD"/>
    <path d="M103.5 57C102.9 57 102.5 57.4 102.5 58V63.8C102.5 64.4 102.9 64.8 103.5 64.8C104.1 64.8 104.5 64.4 104.5 63.8V58C104.5 57.5 104.1 57 103.5 57Z" fill="#133DBD"/>
    <path d="M109.8 57C109.2 57 108.8 57.4 108.8 58V63.8C108.8 64.4 109.2 64.8 109.8 64.8C110.4 64.8 110.8 64.4 110.8 63.8V58C110.8 57.5 110.4 57 109.8 57Z" fill="#133DBD"/>
    <path d="M116.1 57C115.5 57 115.1 57.4 115.1 58V63.8C115.1 64.4 115.5 64.8 116.1 64.8C116.7 64.8 117.1 64.4 117.1 63.8V58C117.1 57.5 116.6 57 116.1 57Z" fill="#133DBD"/>
    <path d="M103.5 69.9C102.9 69.9 102.5 70.3 102.5 70.9V76.7C102.5 77.3 102.9 77.7 103.5 77.7C104.1 77.7 104.5 77.3 104.5 76.7V70.9C104.5 70.4 104.1 69.9 103.5 69.9Z" fill="#133DBD"/>
    <path d="M109.8 69.9C109.2 69.9 108.8 70.3 108.8 70.9V76.7C108.8 77.3 109.2 77.7 109.8 77.7C110.4 77.7 110.8 77.3 110.8 76.7V70.9C110.8 70.4 110.4 69.9 109.8 69.9Z" fill="#133DBD"/>
    <path d="M116.1 69.9C115.5 69.9 115.1 70.3 115.1 70.9V76.7C115.1 77.3 115.5 77.7 116.1 77.7C116.7 77.7 117.1 77.3 117.1 76.7V70.9C117.1 70.4 116.6 69.9 116.1 69.9Z" fill="#133DBD"/>
</svg>
