<svg width="173" height="100" viewBox="0 0 173 100" fill="none" xmlns="http://www.w3.org/2000/svg">
    <rect y="98" width="173" height="2" fill="#0022CD"/>
    <path d="M59.009 59H23.009V64H59.009V59Z" fill="#EBF0F6"/>
    <path d="M47.009 81V88H56.009V64H26.009V81H47.009Z" fill="white"/>
    <path d="M50.009 54H45.009V59H50.009V54Z" fill="white"/>
    <path d="M34.009 68H26.009V75H34.009V68Z" fill="white"/>
    <path d="M47.009 71C44.809 71 43.009 72.8 43.009 75V81H47.109L47.009 88H51.009V75C51.009 72.8 49.209 71 47.009 71Z" fill="#6288B9"/>
    <path d="M90.009 99H28.009L15.009 81H47.009V88H94.009L90.009 99Z" fill="white"/>
    <path d="M94.809 87.4C94.609 87.1 94.309 87 94.009 87H57.009V65H59.009C59.609 65 60.009 64.6 60.009 64V59C60.009 58.4 59.609 58 59.009 58H51.009V54C51.009 53.4 50.609 53 50.009 53H45.009C44.409 53 44.009 53.4 44.009 54V58H23.009C22.409 58 22.009 58.4 22.009 59V64C22.009 64.6 22.409 65 23.009 65H25.009V68V74.4L14.509 80.1C14.309 80.2 14.209 80.3 14.109 80.5C13.909 80.8 14.009 81.2 14.209 81.5L27.209 99.5C27.409 99.8 27.709 99.9 28.009 99.9H90.009C90.409 99.9 90.809 99.6 90.909 99.2L94.909 88.2C95.009 88 95.009 87.7 94.809 87.4ZM46.009 55H49.009V58H46.009V55ZM24.009 60H45.009H50.009H58.009V63H56.009H26.009H24.009V60ZM55.009 65V87H52.009V75C52.009 72.2 49.809 70 47.009 70C44.209 70 42.009 72.2 42.009 75V80H27.009V76H34.009C34.609 76 35.009 75.6 35.009 75V68C35.009 67.4 34.609 67 34.009 67H27.009V65H55.009ZM48.009 81C48.009 80.7 47.909 80.5 47.709 80.3C47.509 80.1 47.309 80 47.009 80H43.909V75C43.909 73.3 45.209 72 46.909 72C48.609 72 49.909 73.3 49.909 75V87H47.909L48.009 81ZM18.909 80L25.009 76.7V80H18.909ZM27.009 69H33.009V74H27.009V69ZM89.309 98H28.509L16.909 82H25.909H42.909H46.009L45.909 88C45.909 88.3 46.009 88.5 46.209 88.7C46.409 88.9 46.609 89 46.909 89H50.909H55.909H92.509L89.309 98Z" fill="#0022CD"/>
    <path d="M35.009 95C37.7705 95 40.009 92.7614 40.009 90C40.009 87.2386 37.7705 85 35.009 85C32.2476 85 30.009 87.2386 30.009 90C30.009 92.7614 32.2476 95 35.009 95Z" fill="white"/>
    <path d="M35.009 96.5C32.309 96.5 29.809 94.8 28.909 92.3L31.709 91.3C32.209 92.7 33.509 93.6 35.009 93.6C35.109 93.6 35.209 93.6 35.309 93.6L35.009 95V96.5ZM37.209 96.1L36.209 93.3C37.609 92.8 38.509 91.5 38.509 90L41.509 89.9V90C41.509 92.7 39.809 95.2 37.209 96.1ZM28.709 90H28.509C28.509 87.3 30.209 84.8 32.709 83.9L33.709 86.7C32.309 87.2 31.409 88.5 31.409 90H28.709ZM38.209 88.8C37.709 87.4 36.409 86.5 34.909 86.5V83.5C37.609 83.5 40.009 85.2 41.009 87.7L38.209 88.8Z" fill="#6288B9"/>
    <path d="M53 100C53 100 54.1681 98.9869 56.5 97.2553C62.0579 94.1404 68.8964 94.8414 74 95.8828C78.5 97.7127 89.5 100 89.5 100H53Z" fill="#0022CD"/>
    <path d="M101.5 92.5C101.5 95.2157 96.9089 98.0401 95.7089 98.4746C90.8089 100.43 83.3089 99.235 79.2089 97.8228C77.4089 97.2797 71.5 94.1295 71.5 94.1295C71.5 94.1295 96.5 94.6726 101.5 92.5Z" fill="#0022CD"/>
    <path d="M90.7047 99.9299C86.8165 100.227 81.8537 99.6203 75.4554 97.3493C61.109 92.236 54.1352 99.1746 53.7519 99.401C53.3841 99.8233 52.7782 99.771 52.3484 99.4096C51.9186 99.0482 51.9718 98.4528 52.3396 98.0305C52.7152 97.7062 60.5243 89.9153 76.1058 95.4271C96.8505 102.811 101.689 91.6995 101.781 91.5939C101.941 91.0889 102.524 90.8472 103.046 91.1031C103.56 91.2609 103.806 91.8335 103.545 92.3461C103.553 92.4441 100.675 99.1685 90.7047 99.9299Z" fill="#0022CD"/>
    <path d="M52.0088 40C54.2179 40 56.0088 38.2091 56.0088 36C56.0088 33.7909 54.2179 32 52.0088 32C49.7996 32 48.0088 33.7909 48.0088 36C48.0088 38.2091 49.7996 40 52.0088 40Z" fill="#C4D3E4"/>
    <path d="M63.0088 34C66.8748 34 70.0088 30.866 70.0088 27C70.0088 23.134 66.8748 20 63.0088 20C59.1428 20 56.0088 23.134 56.0088 27C56.0088 30.866 59.1428 34 63.0088 34Z" fill="#C4D3E4"/>
    <path d="M82.0088 38C84.2179 38 86.0088 36.2091 86.0088 34C86.0088 31.7909 84.2179 30 82.0088 30C79.7996 30 78.0088 31.7909 78.0088 34C78.0088 36.2091 79.7996 38 82.0088 38Z" fill="#C4D3E4"/>
    <g clip-path="url(#clip0_1_6088)">
        <path d="M147.638 52.2353H125.511L122.957 99.1471H151.043L147.638 52.2353Z" fill="white"/>
        <path d="M156.149 47.1177L147.638 52.2353H125.511L117.851 47.1177V13.853H156.149V47.1177Z" fill="white"/>
        <path d="M147.213 92.3235H143.808V99.147H147.213V92.3235Z" fill="#6288B9"/>
        <path d="M125.085 25.7941H121.681V42.853H125.085V25.7941Z" fill="#EBF0F6"/>
        <path d="M140.404 25.7941H133.596V42.853H140.404V25.7941Z" fill="#EBF0F6"/>
        <path d="M152.319 25.7941H148.915V42.853H152.319V25.7941Z" fill="#EBF0F6"/>
        <path d="M156.149 13H117.851C117.34 13 117 13.3412 117 13.8529V47.1176C117 47.3735 117.17 47.6294 117.34 47.8L124.66 52.6618L122.106 99.0618C122.106 99.3176 122.191 99.4882 122.362 99.6588C122.532 99.8294 122.702 100 122.957 100H143.809H147.213H151.043C151.298 100 151.468 99.9147 151.638 99.7441C151.809 99.5735 151.894 99.3176 151.894 99.0618L148.489 52.6618L156.574 47.8C156.83 47.6294 157 47.3735 157 47.0324V13.8529C157 13.3412 156.66 13 156.149 13ZM146.362 98.2941H144.66V93.1765H146.362V98.2941ZM150.106 98.2941H148.064V92.3235C148.064 91.8118 147.723 91.4706 147.213 91.4706H143.809C143.298 91.4706 142.957 91.8118 142.957 92.3235V98.2941H123.894L126.362 53.0882H146.872L150.106 98.2941ZM155.298 46.6059L147.383 51.3824H125.766L118.702 46.6912V23.2353H155.298V46.6059ZM155.298 21.5294H118.702V14.7059H155.298V21.5294Z" fill="#0022CD"/>
        <path d="M121.681 43.7059H125.085C125.596 43.7059 125.936 43.3647 125.936 42.8529V25.7941C125.936 25.2823 125.596 24.9412 125.085 24.9412H121.681C121.17 24.9412 120.83 25.2823 120.83 25.7941V42.8529C120.83 43.3647 121.17 43.7059 121.681 43.7059ZM122.532 26.647H124.234V42H122.532V26.647Z" fill="#0022CD"/>
        <path d="M133.596 43.7059H140.404C140.915 43.7059 141.255 43.3647 141.255 42.8529V25.7941C141.255 25.2823 140.915 24.9412 140.404 24.9412H133.596C133.085 24.9412 132.745 25.2823 132.745 25.7941V42.8529C132.745 43.3647 133.085 43.7059 133.596 43.7059ZM134.447 26.647H139.553V42H134.447V26.647Z" fill="#0022CD"/>
        <path d="M148.915 43.7059H152.319C152.83 43.7059 153.17 43.3647 153.17 42.8529V25.7941C153.17 25.2823 152.83 24.9412 152.319 24.9412H148.915C148.404 24.9412 148.064 25.2823 148.064 25.7941V42.8529C148.064 43.3647 148.404 43.7059 148.915 43.7059ZM149.766 26.647H151.468V42H149.766V26.647Z" fill="#0022CD"/>
        <path d="M131.383 52.2353H125.511L122.957 99.1471H125.511" fill="#6288B9"/>
        <path d="M125.511 100H122.957C122.702 100 122.532 99.9147 122.362 99.7441C122.191 99.5735 122.106 99.3176 122.106 99.0617L124.66 52.15C124.66 51.7235 125.085 51.3823 125.511 51.3823H131.383C131.894 51.3823 132.234 51.7235 132.234 52.2353C132.234 52.747 131.894 53.0882 131.383 53.0882H126.362L123.894 98.2941H125.511C126.021 98.2941 126.362 98.6353 126.362 99.147C126.362 99.6588 125.936 100 125.511 100Z" fill="#0022CD"/>
    </g>
    <defs>
        <clipPath id="clip0_1_6088">
            <rect width="40" height="87" fill="white" transform="translate(117 13)"/>
        </clipPath>
    </defs>
</svg>
