<svg width="612" height="208" viewBox="0 0 612 208" fill="none" xmlns="http://www.w3.org/2000/svg">
    <g clip-path="url(#clip0_1_6369)">
        <g opacity="0.7">
            <rect x="567.793" y="191.265" width="50.2069" height="16.7356" fill="#E4EAF5"/>
            <rect x="519.977" y="169.747" width="50.2069" height="38.2529" fill="#E4EAF5"/>
            <rect x="-6" y="183.295" width="66.9425" height="23.1111" fill="#E4EAF5"/>
            <path d="M59.9826 129.538V62.5521H76.5468V52.4264H94.3852V62.5521H98.3059V158.477L111.783 142V93.9483L127.514 74.716H175.056L198.23 99.9395V11.3161H201.803L203.936 4.78125H244.947L247.317 11.3161H251.034V115.245H259.59L259.539 108.71L283.281 115.245H287.103V200.827L33.8621 200.758V141.221L43.4184 129.538H59.9826Z" fill="#E4EAF5"/>
            <path d="M271.609 82.3432L271.951 75.4258H288.274L288.11 82.3432H290.791V7.83746L289.437 5.77846V0H348.262V5.77846L346.907 8.09484V66.1415L371.397 48.6535L371.536 39.4415H404.087L404.642 25.6067H410.555L411.255 39.4415H422.06L430.581 49.8184L438.777 59.7997V110.664L453.1 128.106V26.5656H457.266V15.8472H476.224V26.5656H480.286V97.4724H484.687V76.0913H493.489V97.4724H495.52V80.9335H502.29V97.4724H507.03L507.301 69.8029H512.107L511.945 104.695L521.586 104.998V172.861L266 172.935V82.3432H271.609Z" fill="#E4EAF5"/>
            <path fill-rule="evenodd" clip-rule="evenodd" d="M187.057 200.828V199.392V96.9664V53.535L182.805 52.7341V29.8152L168.626 26.9445V15.4627V11.1572L151.87 23.5523L133.181 19.7688V37.3772L131.763 38.4257V42.7312V48.7114L126.092 47.6432V74.3064V199.392V200.828H187.057Z" fill="#E4EAF5"/>
            <path fill-rule="evenodd" clip-rule="evenodd" d="M324.346 73.402V54.9817H293.672V62.7171H283.469V48.2785H277.164V62.7171H272.893V41.8318H273.924V36.6592H241.413V41.8318H242.444V62.7171H232.391V208H333.218V73.402H324.346Z" fill="#A8BEEA"/>
            <path d="M251.801 130.35L251.506 124.421H237.48L237.621 130.35H235.317V66.488L236.481 64.7232V59.7702H185.931V64.7232L187.095 66.7086V116.463L166.05 101.473L165.931 93.5772H137.959L137.482 81.7188H132.401L131.799 93.5772H122.514L115.192 102.472L108.148 111.027V154.625L95.8407 169.575V82.5407H92.2601V73.3535H75.9695V82.5407H72.4787V143.318H68.6969V124.991H61.1335V143.318H59.388V129.142H53.57V143.318H49.4973L49.2638 119.601H45.1338L45.2737 149.508L36.9885 149.768V207.937L256.621 208V130.35H251.801Z" fill="#A8BEEA"/>
            <path d="M502.518 145.694V87.15H487.947V78.3003H472.256V87.15H468.808V170.987L456.953 156.586V114.59L443.116 97.781H401.296L380.911 119.826V42.3705H377.768L375.892 36.6592H339.818L337.733 42.3705H334.463V133.203H326.937L326.982 127.492L306.098 133.203H302.736V208L525.494 207.939V155.906L517.088 145.694H502.518Z" fill="#A8BEEA"/>
        </g>
        <path fill-rule="evenodd" clip-rule="evenodd" d="M422.124 160.132H431.9V178.364H450.559L453.586 170.395H471.635L479.452 189.015V207.635H383.859H371.782H215.977V141.456L228.874 126.241H242.076V111.035H251.584V74.115H299.618V111.449H343.189V122.755H362.736V178.364H384.467V160.132H394.243V147.458L408.047 135.738L422.32 147.458C422.32 147.458 423.069 160.132 422.124 160.132Z" fill="#315ED1"/>
        <path fill-rule="evenodd" clip-rule="evenodd" d="M223.73 90.8506V96.5306H224.856V119.461H220.188V103.608H213.297V119.461H202.144V110.969H168.617V142.925H158.92V208H269.126V119.461H258.139V96.5306H259.265V90.8506H223.73Z" fill="#315ED1"/>
        <rect x="226.705" y="158.59" width="41.4406" height="49.41" fill="#315ED1"/>
        <path d="M131.87 170.641L149.801 158.59L167.732 170.641V208H131.87V170.641Z" fill="#315ED1"/>
        <path d="M93.6169 179.31H132.667V208H83.2567V191.663L93.6169 179.31Z" fill="#315ED1"/>
        <path d="M338.406 157.954C339.284 157.954 340.144 158.046 340.977 158.231C342.869 157.022 345.105 156.32 347.504 156.32C351.487 156.32 355.018 158.25 357.272 161.24C357.408 161.24 357.535 161.231 357.671 161.231C366.533 161.231 373.721 168.56 373.721 177.597C373.721 186.633 366.533 193.962 357.671 193.962C350.446 193.962 344.336 189.098 342.326 182.406C341.095 182.83 339.782 183.061 338.415 183.061C331.616 183.061 326.112 177.449 326.112 170.517C326.112 163.585 331.616 157.954 338.406 157.954Z" fill="#65D78D"/>
        <path d="M336.125 169.88C336.46 169.501 337.03 169.465 337.401 169.806L338.116 170.452L337.519 167.406C337.419 166.908 337.736 166.418 338.225 166.317C338.714 166.215 339.194 166.538 339.293 167.037L340.361 172.483L347.133 178.612V168.818C347.133 168.311 347.54 167.895 348.038 167.895C348.536 167.895 348.944 168.311 348.944 168.818V184.51L355.824 177.966L353.298 175.529C352.936 175.178 352.918 174.597 353.262 174.227C353.606 173.858 354.176 173.84 354.538 174.19L357.146 176.71L358.648 175.28C359.019 174.929 359.59 174.957 359.925 175.326C360.269 175.695 360.242 176.286 359.88 176.627L357.924 178.492L362.876 177.772C363.374 177.698 363.827 178.049 363.899 178.556C363.971 179.064 363.627 179.526 363.13 179.6L355.643 180.689C355.634 180.689 355.625 180.689 355.607 180.689L348.925 187.039V204.319C348.925 204.826 348.518 205.242 348.02 205.242C347.522 205.242 347.115 204.826 347.115 204.319V181.086L342.941 177.301C342.905 177.301 342.878 177.301 342.842 177.292L337.51 176.009C337.021 175.889 336.722 175.39 336.84 174.901C336.958 174.403 337.446 174.098 337.926 174.218L340.108 174.744L336.179 171.191C335.826 170.849 335.79 170.268 336.125 169.88Z" fill="#133DBD"/>
        <path d="M454.017 196.721C458.517 196.721 462.165 187.712 462.165 176.599C462.165 165.486 458.517 156.476 454.017 156.476C449.517 156.476 445.869 165.486 445.869 176.599C445.869 187.712 449.517 196.721 454.017 196.721Z" fill="white"/>
        <path d="M463.07 176.599C463.07 164.784 459.087 155.553 454.017 155.553C448.947 155.553 444.964 164.784 444.964 176.599C444.964 187.675 448.495 196.537 453.112 197.552V205.398C453.112 205.859 453.474 206.321 454.017 206.321C454.56 206.321 454.922 205.952 454.922 205.398V197.552C459.539 196.537 463.07 187.675 463.07 176.599ZM454.922 195.613V179.46C454.922 178.999 454.56 178.537 454.017 178.537C453.474 178.537 453.112 178.906 453.112 179.46V195.613C449.853 194.414 446.775 187.121 446.775 176.599C446.775 165.153 450.486 157.399 454.017 157.399C457.548 157.399 461.259 165.153 461.259 176.599C461.259 187.121 458.181 194.506 454.922 195.613Z" fill="#133DBD"/>
        <path d="M220.976 194.516C228.741 194.516 235.036 188.098 235.036 180.181C235.036 172.264 228.741 165.846 220.976 165.846C213.212 165.846 206.917 172.264 206.917 180.181C206.917 188.098 213.212 194.516 220.976 194.516Z" fill="#65D78D"/>
        <path d="M235.941 180.181C235.941 171.763 229.224 164.923 220.976 164.923C212.729 164.923 206.012 171.772 206.012 180.181C206.012 188.257 212.195 194.866 219.99 195.393V204.595C219.99 205.103 220.397 205.518 220.895 205.518C221.393 205.518 221.8 205.103 221.8 204.595V195.402C229.658 194.959 235.941 188.313 235.941 180.181ZM221.827 193.547L224.969 188.424C225.231 187.99 225.105 187.418 224.679 187.15C224.254 186.882 223.692 187.011 223.43 187.445L221.782 190.131V176.424C221.782 175.916 221.375 175.501 220.877 175.501C220.379 175.501 219.972 175.916 219.972 176.424V182.405L216.975 179.516C216.613 179.166 216.043 179.184 215.699 179.553C215.355 179.922 215.373 180.504 215.735 180.855L219.972 184.953V193.094V193.103C219.881 193.242 219.854 193.399 219.845 193.556C213.109 192.974 207.804 187.214 207.804 180.199C207.804 172.806 213.707 166.788 220.958 166.788C228.21 166.788 234.112 172.806 234.112 180.199C234.13 187.279 228.68 193.094 221.827 193.547Z" fill="#133DBD"/>
        <path d="M179.518 164.969C178.766 164.969 178.051 165.08 177.363 165.264C175.987 161.295 172.285 158.452 167.921 158.452C163.639 158.452 160 161.185 158.56 165.034C158.216 164.988 157.872 164.96 157.519 164.96C152.966 164.96 149.272 168.726 149.272 173.369C149.272 178.012 152.966 181.778 157.519 181.778C160.317 181.778 162.779 180.356 164.273 178.187C165.404 178.639 166.636 178.898 167.921 178.898C169.569 178.898 171.126 178.482 172.502 177.762C173.95 180.162 176.548 181.778 179.518 181.778C184.071 181.778 187.765 178.012 187.765 173.369C187.765 168.735 184.071 164.969 179.518 164.969Z" fill="white"/>
        <path d="M179.518 164.046C178.993 164.046 178.459 164.092 177.915 164.194C176.177 160.178 172.257 157.539 167.921 157.539C163.657 157.539 159.746 160.132 157.981 164.064C157.818 164.055 157.664 164.046 157.519 164.046C152.468 164.046 148.367 168.237 148.367 173.378C148.367 178.519 152.477 182.71 157.519 182.71C159.049 182.71 160.534 182.304 161.847 181.575L166.925 185.645V205.26H168.736V185.304L173.362 180.264C175.028 181.824 177.191 182.719 179.527 182.719C184.578 182.719 188.679 178.529 188.679 173.387C188.679 168.246 184.569 164.046 179.518 164.046ZM163.413 180.495C163.829 180.135 164.227 179.738 164.59 179.304C165.359 179.553 166.138 179.71 166.925 179.784V183.31L163.413 180.495ZM168.736 179.793C169.858 179.71 170.972 179.442 172.031 179.009L168.736 182.599V179.793ZM179.518 180.873C176.956 180.873 174.62 179.535 173.271 177.301L172.828 176.572L172.085 176.959C169.768 178.178 167.061 178.325 164.599 177.347L163.938 177.079L163.53 177.67C162.154 179.673 159.909 180.864 157.519 180.864C153.473 180.864 150.177 177.504 150.177 173.378C150.177 169.252 153.473 165.892 157.519 165.892C157.8 165.892 158.09 165.911 158.443 165.957L159.149 166.049L159.402 165.375C160.742 161.794 164.164 159.385 167.921 159.385C171.769 159.385 175.218 161.877 176.512 165.578L176.793 166.381L177.599 166.16C178.241 165.984 178.893 165.892 179.518 165.892C183.564 165.892 186.86 169.252 186.86 173.378C186.86 177.504 183.564 180.873 179.518 180.873Z" fill="#133DBD"/>
        <path d="M325.001 191.396C321.497 191.396 318.664 188.507 318.664 184.935V156.32C318.664 152.748 321.497 149.859 325.001 149.859C328.504 149.859 331.338 152.748 331.338 156.32V184.935C331.338 188.507 328.504 191.396 325.001 191.396Z" fill="white"/>
        <path d="M325.001 148.936C321.008 148.936 317.758 152.25 317.758 156.32V184.935C317.758 188.691 320.528 191.802 324.095 192.254V206.451C324.095 206.958 324.503 207.374 325.001 207.374C325.499 207.374 325.906 206.958 325.906 206.451V192.254C329.473 191.802 332.243 188.691 332.243 184.935V156.32C332.243 152.25 328.993 148.936 325.001 148.936ZM330.432 184.935C330.432 187.676 328.468 189.947 325.906 190.39V184.067L328.359 180.892C328.667 180.495 328.604 179.913 328.205 179.6C327.816 179.286 327.246 179.35 326.938 179.756L325.906 181.095V172.077L328.359 168.901C328.667 168.505 328.604 167.923 328.205 167.609C327.816 167.295 327.246 167.36 326.938 167.766L325.906 169.105V160.954C325.906 160.446 325.499 160.031 325.001 160.031C324.503 160.031 324.095 160.446 324.095 160.954V163.742L322.927 162.228C322.62 161.831 322.049 161.757 321.66 162.071C321.271 162.385 321.198 162.966 321.506 163.363L324.095 166.714V175.732L322.927 174.218C322.62 173.821 322.049 173.747 321.66 174.061C321.271 174.375 321.198 174.957 321.506 175.354L324.095 178.704V190.39C321.533 189.947 319.569 187.676 319.569 184.935V156.32C319.569 153.265 322.004 150.782 325.001 150.782C327.997 150.782 330.432 153.265 330.432 156.32V184.935Z" fill="#133DBD"/>
        <path d="M105.004 173.064C105.004 166.88 100.088 161.859 94.0135 161.859C92.8275 161.859 91.6869 162.052 90.6186 162.412C88.9891 158.305 85.0511 155.397 80.4341 155.397C74.3686 155.397 69.4439 160.409 69.4439 166.603C69.4439 169.686 70.666 172.474 72.6395 174.495C70.1409 176.544 68.5386 179.692 68.5386 183.218C68.5386 189.402 73.4543 194.424 79.5288 194.424C81.5386 194.424 83.4216 193.861 85.0511 192.901C86.1646 193.288 87.3505 193.501 88.5817 193.501C94.5023 193.501 99.3185 188.719 99.5448 182.738C102.804 180.79 105.004 177.19 105.004 173.064Z" fill="#65D78D"/>
        <path d="M89.2064 187.427C88.7809 187.159 88.2196 187.289 87.9571 187.722L85.7753 191.276V169.308C85.7753 168.8 85.368 168.385 84.8701 168.385C84.3721 168.385 83.9648 168.8 83.9648 169.308V182.673L80.9682 179.784C80.6061 179.433 80.0358 179.452 79.6918 179.821C79.3478 180.19 79.3659 180.772 79.728 181.123L83.9648 185.221V204.863C83.9648 205.371 84.3721 205.786 84.8701 205.786C85.368 205.786 85.7753 205.371 85.7753 204.863V194.608C85.8749 194.534 85.9655 194.451 86.0288 194.341L89.4871 188.701C89.7586 188.267 89.6319 187.695 89.2064 187.427Z" fill="#133DBD"/>
        <path d="M499.605 194.221C507.369 194.221 513.664 187.803 513.664 179.886C513.664 171.969 507.369 165.551 499.605 165.551C491.84 165.551 485.546 171.969 485.546 179.886C485.546 187.803 491.84 194.221 499.605 194.221Z" fill="#65D78D"/>
        <path d="M503.851 186.725C503.425 186.458 502.864 186.587 502.601 187.021L500.42 190.575V176.129C500.42 175.621 500.012 175.206 499.514 175.206C499.016 175.206 498.609 175.621 498.609 176.129V182.11L495.613 179.221C495.25 178.87 494.68 178.889 494.336 179.258C493.992 179.627 494.01 180.209 494.372 180.56L498.609 184.658V204.3C498.609 204.808 499.016 205.223 499.514 205.223C500.012 205.223 500.42 204.808 500.42 204.3V193.907C500.519 193.833 500.61 193.75 500.673 193.639L504.131 187.999C504.403 187.565 504.276 186.993 503.851 186.725Z" fill="#133DBD"/>
    </g>
    <defs>
        <clipPath id="clip0_1_6369">
            <rect width="612" height="208" fill="white"/>
        </clipPath>
    </defs>
</svg>
