<svg width="18" height="18" viewBox="0 0 18 18" fill="none" xmlns="http://www.w3.org/2000/svg">
    <circle cx="9" cy="9" r="9" fill="#65D78D"/>
    <rect x="4.47632" y="5.31567" width="1.15787" height="4.63149" rx="0.578936" transform="rotate(-45 4.47632 5.31567)" fill="#133DBD"/>
    <rect x="9.38867" y="10.228" width="1.15787" height="4.63149" rx="0.578936" transform="rotate(-45 9.38867 10.228)" fill="#133DBD"/>
    <rect x="5.29517" y="13.5032" width="1.15787" height="4.63149" rx="0.578936" transform="rotate(-135 5.29517 13.5032)" fill="#133DBD"/>
    <rect x="10.2075" y="8.59058" width="1.15787" height="4.63149" rx="0.578936" transform="rotate(-135 10.2075 8.59058)" fill="#133DBD"/>
    <rect x="3.18994" y="9.5791" width="1.15787" height="3.17057" rx="0.578936" transform="rotate(-90 3.18994 9.5791)" fill="#133DBD"/>
    <rect x="11.5945" y="9.5791" width="1.15787" height="3.17424" rx="0.578936" transform="rotate(-90 11.5945 9.5791)" fill="#133DBD"/>
    <rect x="9.55811" y="14.7896" width="1.15787" height="3.17057" rx="0.578936" transform="rotate(180 9.55811 14.7896)" fill="#133DBD"/>
    <rect x="9.55811" y="6.38501" width="1.15787" height="3.17424" rx="0.578936" transform="rotate(180 9.55811 6.38501)" fill="#133DBD"/>
</svg>
