<svg width="400" height="400" viewBox="0 0 400 400" fill="none" xmlns="http://www.w3.org/2000/svg">
    <path d="M266.5 7C221.5 7 182.28 31.725 161.66 68.325C152.63 66.155 143.2 65 133.5 65C67.09 65 13.25 118.84 13.25 185.25C13.25 421.5 386.75 372 386.75 127.25C386.75 60.84 332.91 7 266.5 7Z" fill="#A8BEEA"/>
    <path d="M208.75 233H182.75V390.5H208.75V233Z" fill="#E4EAF5"/>
    <path d="M208.75 393H182.75C181.37 393 180.25 391.88 180.25 390.5V233C180.25 231.62 181.37 230.5 182.75 230.5H208.75C210.13 230.5 211.25 231.62 211.25 233V390.5C211.25 391.88 210.13 393 208.75 393ZM185.25 388H206.25V235.5H185.25V388Z" fill="#133DBD"/>
    <path d="M245.75 393H145.75C144.37 393 143.25 391.88 143.25 390.5C143.25 389.12 144.37 388 145.75 388H245.75C247.13 388 248.25 389.12 248.25 390.5C248.25 391.88 247.13 393 245.75 393Z" fill="#133DBD"/>
    <path d="M206.25 235H185.25V242.5H206.25V235Z" fill="#65D78D"/>
    <path d="M250.75 103H142.75C112.925 103 88.75 127.175 88.75 157V233H304.75V157C304.75 127.175 280.575 103 250.75 103Z" fill="white"/>
    <path d="M304.75 235.5H88.75C87.37 235.5 86.25 234.38 86.25 233V157C86.25 125.845 111.595 100.5 142.75 100.5H250.75C281.905 100.5 307.25 125.845 307.25 157V233C307.25 234.38 306.13 235.5 304.75 235.5ZM91.25 230.5H302.25V157C302.25 128.605 279.145 105.5 250.75 105.5H142.75C114.355 105.5 91.25 128.605 91.25 157V230.5Z" fill="#133DBD"/>
    <path d="M232.75 160C235.511 160 237.75 157.761 237.75 155C237.75 152.239 235.511 150 232.75 150C229.989 150 227.75 152.239 227.75 155C227.75 157.761 229.989 160 232.75 160Z" fill="#133DBD"/>
    <path d="M265.75 160C268.511 160 270.75 157.761 270.75 155C270.75 152.239 268.511 150 265.75 150C262.989 150 260.75 152.239 260.75 155C260.75 157.761 262.989 160 265.75 160Z" fill="#133DBD"/>
    <path d="M249.75 207.25C236.79 207.25 226.25 196.71 226.25 183.75C226.25 182.37 227.37 181.25 228.75 181.25C230.13 181.25 231.25 182.37 231.25 183.75C231.25 193.95 239.55 202.25 249.75 202.25C259.95 202.25 268.25 193.95 268.25 183.75C268.25 182.37 269.37 181.25 270.75 181.25C272.13 181.25 273.25 182.37 273.25 183.75C273.25 196.71 262.71 207.25 249.75 207.25Z" fill="#133DBD"/>
    <path d="M142.75 103C172.575 103 196.75 127.175 196.75 157V233H88.75V157C88.75 127.175 112.925 103 142.75 103Z" fill="white"/>
    <path d="M196.75 235.5H88.75C87.37 235.5 86.25 234.38 86.25 233V157C86.25 125.845 111.595 100.5 142.75 100.5C173.905 100.5 199.25 125.845 199.25 157V233C199.25 234.38 198.13 235.5 196.75 235.5ZM91.25 230.5H194.25V157C194.25 128.605 171.145 105.5 142.75 105.5C114.355 105.5 91.25 128.605 91.25 157V230.5Z" fill="#133DBD"/>
    <path d="M141.085 124.33C129.305 124.33 119.75 133.88 119.75 145.66V152.995H128.085V145.66C128.085 138.48 133.905 132.66 141.085 132.66C148.265 132.66 154.085 138.48 154.085 145.66V152.995H162.42V145.66C162.42 133.885 152.87 124.33 141.085 124.33Z" fill="#E4EAF5"/>
    <path d="M162.415 155.5H154.08C153.415 155.5 152.78 155.235 152.31 154.77C151.84 154.3 151.58 153.665 151.58 153V145.665C151.58 142.86 150.49 140.225 148.505 138.24C146.52 136.255 143.885 135.165 141.08 135.165C138.275 135.165 135.64 136.255 133.655 138.24C131.67 140.225 130.58 142.86 130.58 145.665V153C130.58 154.38 129.46 155.5 128.08 155.5H119.745C119.08 155.5 118.445 155.235 117.975 154.77C117.505 154.3 117.245 153.665 117.245 153V145.665C117.245 132.525 127.94 121.835 141.08 121.835C147.445 121.835 153.43 124.315 157.93 128.815C162.43 133.315 164.91 139.3 164.91 145.67V153.005C164.915 154.38 163.795 155.5 162.415 155.5ZM156.585 150.5H159.92V145.665C159.92 140.635 157.96 135.905 154.405 132.35C150.85 128.795 146.12 126.835 141.09 126.835C130.705 126.835 122.255 135.28 122.255 145.665V150.5H125.59V145.665C125.59 141.525 127.205 137.635 130.13 134.705C133.055 131.78 136.95 130.165 141.09 130.165C145.23 130.165 149.12 131.78 152.05 134.705C154.98 137.63 156.59 141.525 156.59 145.665L156.585 150.5Z" fill="#133DBD"/>
    <path d="M168.25 153H114.25V195H168.25V153Z" fill="#65D78D"/>
    <path d="M168.25 197.5H114.25C112.87 197.5 111.75 196.38 111.75 195V153C111.75 151.62 112.87 150.5 114.25 150.5H168.25C169.63 150.5 170.75 151.62 170.75 153V195C170.75 196.38 169.63 197.5 168.25 197.5ZM116.75 192.5H165.75V155.5H116.75V192.5Z" fill="#133DBD"/>
    <path d="M146.25 169C146.25 166.24 144.01 164 141.25 164C138.49 164 136.25 166.24 136.25 169C136.25 170.85 137.255 172.46 138.75 173.325V181.5H143.75V173.325C145.245 172.46 146.25 170.85 146.25 169Z" fill="#133DBD"/>
</svg>
