<svg width="238" height="108" viewBox="0 0 238 108" fill="none" xmlns="http://www.w3.org/2000/svg">
    <path d="M136.689 38.1941C135.436 38.1941 134.225 38.2358 132.973 38.3191C121.783 16.7442 99.2359 2 73.2234 2C36.1044 2 6 32.0299 6 69.057C6 82.9265 11.0522 97.2959 18.3173 108C51.5115 108 150.05 107.875 181.532 107.875C184.413 101.628 186 94.7136 186 87.3831C186 60.2271 163.912 38.1941 136.689 38.1941Z" fill="#E4EAF5"/>
    <path d="M86.422 26.0181V21.7821H75.4172V26.0181H66.9562V34.4791H69.5V45.4839H44.106V53.9449H46.6498V106.414H69.5H92.3502V34.4791H94.8829V26.0181H86.422Z" fill="white"/>
    <path d="M50.4545 40.8275H47.0701V45.0635H50.4545V40.8275Z" fill="white"/>
    <path d="M63.5717 83.5638H52.5669V106.414H63.5717V83.5638Z" fill="#A8BEEA"/>
    <path d="M78.3812 51.8214H74.1451V58.5902H78.3812V51.8214Z" fill="#A8BEEA"/>
    <path d="M74.1451 47.4304H78.3812C78.9895 47.4304 79.4872 46.9327 79.4872 46.3244V39.5556C79.4872 38.9473 78.9895 38.4496 78.3812 38.4496H74.1451C73.5368 38.4496 73.0391 38.9473 73.0391 39.5556V46.3244C73.0391 46.9327 73.5368 47.4304 74.1451 47.4304ZM75.2511 40.6616H77.2751V45.2184H75.2511V40.6616Z" fill="#133DBD"/>
    <path d="M82.6174 47.4304H86.8534C87.4617 47.4304 87.9594 46.9327 87.9594 46.3244V39.5556C87.9594 38.9473 87.4617 38.4496 86.8534 38.4496H82.6174C82.0091 38.4496 81.5114 38.9473 81.5114 39.5556V46.3244C81.5114 46.9327 81.998 47.4304 82.6174 47.4304ZM83.7234 40.6616H85.7474V45.2184H83.7234V40.6616Z" fill="#133DBD"/>
    <path d="M74.1451 59.7072H78.3812C78.9895 59.7072 79.4872 59.2095 79.4872 58.6012V51.8325C79.4872 51.2241 78.9895 50.7264 78.3812 50.7264H74.1451C73.5368 50.7264 73.0391 51.2241 73.0391 51.8325V58.6012C73.0391 59.2095 73.5368 59.7072 74.1451 59.7072ZM75.2511 52.9274H77.2751V57.4842H75.2511V52.9274Z" fill="#133DBD"/>
    <path d="M82.6174 59.7072H86.8534C87.4617 59.7072 87.9594 59.2095 87.9594 58.6012V51.8325C87.9594 51.2241 87.4617 50.7264 86.8534 50.7264H82.6174C82.0091 50.7264 81.5114 51.2241 81.5114 51.8325V58.6012C81.5114 59.2095 81.998 59.7072 82.6174 59.7072ZM83.7234 52.9274H85.7474V57.4842H83.7234V52.9274Z" fill="#133DBD"/>
    <path d="M74.1451 71.9729H78.3812C78.9895 71.9729 79.4872 71.4752 79.4872 70.8669V64.0981C79.4872 63.4898 78.9895 62.9921 78.3812 62.9921H74.1451C73.5368 62.9921 73.0391 63.4898 73.0391 64.0981V70.8669C73.0391 71.4752 73.5368 71.9729 74.1451 71.9729ZM75.2511 65.2041H77.2751V69.7608H75.2511V65.2041Z" fill="#133DBD"/>
    <path d="M82.6174 71.9729H86.8534C87.4617 71.9729 87.9594 71.4752 87.9594 70.8669V64.0981C87.9594 63.4898 87.4617 62.9921 86.8534 62.9921H82.6174C82.0091 62.9921 81.5114 63.4898 81.5114 64.0981V70.8669C81.5114 71.4752 81.998 71.9729 82.6174 71.9729ZM83.7234 65.2041H85.7474V69.7608H83.7234V65.2041Z" fill="#133DBD"/>
    <path d="M74.1451 84.2495H78.3812C78.9895 84.2495 79.4872 83.7518 79.4872 83.1435V76.3747C79.4872 75.7664 78.9895 75.2687 78.3812 75.2687H74.1451C73.5368 75.2687 73.0391 75.7664 73.0391 76.3747V83.1435C73.0391 83.7518 73.5368 84.2495 74.1451 84.2495ZM75.2511 77.4807H77.2751V82.0375H75.2511V77.4807Z" fill="#133DBD"/>
    <path d="M82.6174 84.2495H86.8534C87.4617 84.2495 87.9594 83.7518 87.9594 83.1435V76.3747C87.9594 75.7664 87.4617 75.2687 86.8534 75.2687H82.6174C82.0091 75.2687 81.5114 75.7664 81.5114 76.3747V83.1435C81.5114 83.7518 81.998 84.2495 82.6174 84.2495ZM83.7234 77.4807H85.7474V82.0375H83.7234V77.4807Z" fill="#133DBD"/>
    <path d="M74.1451 96.5151H78.3812C78.9895 96.5151 79.4872 96.0174 79.4872 95.4091V88.6403C79.4872 88.032 78.9895 87.5343 78.3812 87.5343H74.1451C73.5368 87.5343 73.0391 88.032 73.0391 88.6403V95.4091C73.0391 96.0174 73.5368 96.5151 74.1451 96.5151ZM75.2511 89.7463H77.2751V94.3031H75.2511V89.7463Z" fill="#133DBD"/>
    <path d="M82.6174 96.5151H86.8534C87.4617 96.5151 87.9594 96.0174 87.9594 95.4091V88.6403C87.9594 88.032 87.4617 87.5343 86.8534 87.5343H82.6174C82.0091 87.5343 81.5114 88.032 81.5114 88.6403V95.4091C81.5114 96.0174 81.998 96.5151 82.6174 96.5151ZM83.7234 89.7463H85.7474V94.3031H83.7234V89.7463Z" fill="#133DBD"/>
    <path d="M94.8829 24.9122H87.528V21.7822C87.528 21.1739 87.0303 20.6761 86.422 20.6761H75.4172C74.8088 20.6761 74.3111 21.1739 74.3111 21.7822V24.9122H66.9562C66.3479 24.9122 65.8502 25.4099 65.8502 26.0182V34.4792C65.8502 35.0875 66.3479 35.5852 66.9562 35.5852H68.394V44.3779H51.5605V40.8276C51.5605 40.2193 51.0628 39.7216 50.4545 39.7216H47.0701C46.4618 39.7216 45.9641 40.2193 45.9641 40.8276V44.3779H44.106C43.4977 44.3779 43 44.8756 43 45.484V53.9449C43 54.5532 43.4977 55.0509 44.106 55.0509H45.5328V106.414C45.5328 107.022 46.0305 107.52 46.6388 107.52H52.567H63.5718H69.5H92.3502C92.9585 107.52 93.4562 107.022 93.4562 106.414V35.5852H94.894C95.5023 35.5852 96 35.0875 96 34.4792V26.0182C95.9889 25.3988 95.4912 24.9122 94.8829 24.9122ZM48.1761 41.9337H49.3485V43.9577H48.1761V41.9337ZM62.4658 105.308H53.673V84.6699H62.4658V105.308ZM68.394 105.308H64.6778V83.5639C64.6778 82.9556 64.1801 82.4579 63.5718 82.4579H52.567C51.9587 82.4579 51.461 82.9556 51.461 83.5639V105.308H47.7448V55.0509H68.3829V105.308H68.394ZM68.394 52.8389H46.6388H45.212V46.59H68.394V52.8389ZM76.5232 22.8882H85.3159V24.9122H76.5232V22.8882ZM91.2442 105.308H70.606V53.9449V45.484V35.5852H91.2442V105.308ZM93.7769 33.3731H92.3391H69.5H68.0622V27.1242H75.4172H86.422H93.7769V33.3731Z" fill="#133DBD"/>
    <path d="M212.197 50.5469H145.659L143.028 73.1156H214.828L212.197 50.5469Z" fill="#A8BEEA"/>
    <path d="M211.992 73.29H146.882V102.499H211.992V73.29Z" fill="white"/>
    <path d="M211.992 74.2343H147.468V76.1329H211.992V74.2343Z" fill="#315ED1"/>
    <path d="M205.918 62.2981H211.036L205.506 51.2447L203.266 46.7597L195.383 30.9852L187.5 46.7597L185.249 51.2447L179.719 62.2981H184.838L184.468 72.3355L182.566 77.0771V102.489H208.189V77.0771L206.288 72.3355L205.918 62.2981Z" fill="white"/>
    <path d="M175.927 85.6058H166.441V101.709H175.927V85.6058Z" fill="white"/>
    <path d="M200.604 85.6058H190.162V97.9216H200.604V85.6058Z" fill="white"/>
    <path d="M200.604 85.6058H190.162V90.3474H200.604V85.6058Z" fill="white"/>
    <path d="M161.703 85.6058H153.162V94.1345H161.703V85.6058Z" fill="white"/>
    <path d="M179.72 62.298H184.838L185.249 51.2446L179.72 62.298Z" fill="white"/>
    <path d="M184.838 63.3244H179.72C179.36 63.3244 179.031 63.1397 178.846 62.842C178.661 62.5444 178.64 62.1647 178.805 61.8465L184.334 50.7931C184.55 50.362 185.043 50.1362 185.506 50.2594C185.979 50.3825 186.297 50.8136 186.277 51.296L185.866 62.3494C185.845 62.8933 185.393 63.3244 184.838 63.3244ZM181.385 61.2718H183.851L184.046 55.9452L181.385 61.2718Z" fill="#133DBD"/>
    <path d="M211.036 62.298L205.506 51.2446L205.918 62.298H211.036Z" fill="white"/>
    <path d="M211.036 63.3244H205.918C205.363 63.3244 204.91 62.8831 204.89 62.3391L204.479 51.2857C204.458 50.8033 204.787 50.3723 205.25 50.2491C205.712 50.126 206.205 50.3518 206.421 50.7828L211.951 61.8362C212.115 62.1544 212.095 62.5341 211.91 62.8318C211.725 63.1397 211.396 63.3244 211.036 63.3244ZM206.915 61.2718H209.381L206.719 55.9452L206.915 61.2718Z" fill="#133DBD"/>
    <path d="M206.288 72.3355L205.918 62.2981L205.506 51.2447L203.266 46.7597L195.383 30.9852L187.5 46.7597L185.249 51.2447L184.838 62.2981L184.468 72.3355" fill="white"/>
    <path d="M180.675 43.9169H175.927V50.5469H180.675V43.9169Z" fill="white"/>
    <path d="M198.703 51.4911H192.063V67.594H198.703V51.4911Z" fill="white"/>
    <path d="M198.703 51.4911H192.063V57.69H198.703V51.4911Z" fill="white"/>
    <path d="M155.33 59.4964H158.188L158.414 53.3282L155.33 59.4964Z" fill="white"/>
    <path d="M172.803 59.4964L169.719 53.3282L169.945 59.4964H172.803Z" fill="white"/>
    <path d="M169.945 59.4963L169.719 53.3282L168.465 50.8137L164.066 42.0182L159.668 50.8137L158.414 53.3282L158.188 59.4963L157.982 65.0898H170.161L169.945 59.4963Z" fill="white"/>
    <path d="M166.441 55.2782H161.692V60.964H166.441V55.2782Z" fill="white"/>
    <path d="M213.883 102.489H144.981V106.44H213.883V102.489Z" fill="white"/>
    <path d="M161.692 84.5795H153.151C152.586 84.5795 152.124 85.0413 152.124 85.6058V94.1345C152.124 94.6989 152.586 95.1608 153.151 95.1608H161.692C162.258 95.1608 162.72 94.6989 162.72 94.1345V85.6058C162.72 85.031 162.268 84.5795 161.692 84.5795ZM160.664 93.1082H154.179V86.6321H160.664V93.1082Z" fill="#133DBD"/>
    <path d="M166.441 54.2518H161.692C161.127 54.2518 160.664 54.7137 160.664 55.2781V60.9639C160.664 61.5284 161.127 61.9903 161.692 61.9903H166.441C167.006 61.9903 167.468 61.5284 167.468 60.9639V55.2781C167.468 54.7137 167.006 54.2518 166.441 54.2518ZM165.413 59.9376H162.72V56.3045H165.413V59.9376Z" fill="#133DBD"/>
    <path d="M192.063 68.6305H198.703C199.268 68.6305 199.73 68.1687 199.73 67.6042V57.69V51.491C199.73 50.9266 199.268 50.4647 198.703 50.4647H192.063C191.498 50.4647 191.035 50.9266 191.035 51.491V57.69V67.6042C191.035 68.1687 191.488 68.6305 192.063 68.6305ZM193.091 52.5174H197.675V56.6637H193.091V52.5174ZM193.091 58.7163H197.675V66.5779H193.091V58.7163Z" fill="#133DBD"/>
    <path d="M214.828 74.1418C215.126 74.1418 215.404 74.0187 215.599 73.8032C215.794 73.5876 215.887 73.29 215.856 73.0026L213.225 50.4237C213.163 49.9105 212.721 49.5205 212.207 49.5205H205.804L196.297 30.5234C195.948 29.8255 194.807 29.8255 194.458 30.5234L184.961 49.5205H181.693V43.9168C181.693 43.3524 181.23 42.8905 180.665 42.8905H175.917C175.351 42.8905 174.889 43.3524 174.889 43.9168V49.5205H168.959L164.981 41.5563C164.632 40.8584 163.491 40.8584 163.141 41.5563L159.164 49.5205H145.659C145.135 49.5205 144.703 49.9105 144.641 50.4237L142.01 73.0026C141.979 73.29 142.072 73.5876 142.267 73.8032C142.462 74.0187 142.74 74.1418 143.038 74.1418H145.864V101.462H144.98C144.415 101.462 143.953 101.924 143.953 102.489V106.44C143.953 107.004 144.415 107.466 144.98 107.466H164.549H177.828H213.883C214.448 107.466 214.91 107.004 214.91 106.44V102.489C214.91 101.924 214.448 101.462 213.883 101.462H213.009V74.1418H214.828ZM172.802 60.5226C173.162 60.5226 173.491 60.3379 173.676 60.0403C173.84 59.7734 173.861 59.4553 173.758 59.1576H180.141L179.267 60.8921H171.014L171.004 60.5226H172.802ZM171.888 55.3603H182.042L181.179 57.0947H172.761L171.888 55.3603ZM178.928 62.9447C179.123 63.1808 179.411 63.3347 179.719 63.3347H183.769L183.717 64.6895H171.168L171.107 62.955H178.928V62.9447ZM183.594 78.1034H207.161V101.473H183.594V78.1034ZM213.677 72.0892H207.315L207.254 70.5189H213.492L213.677 72.0892ZM212.937 66.7318C212.978 66.7318 213.009 66.7113 213.05 66.7113L213.256 68.4766H207.182L207.12 66.7421H212.937V66.7318ZM212.814 64.6792H207.038L206.986 63.3245H211.036C211.344 63.3245 211.632 63.1808 211.827 62.9345H212.608L212.814 64.6792ZM212.372 60.8921H211.478L210.604 59.1576H212.166L212.372 60.8921ZM211.93 57.0947H209.587L208.723 55.3603H211.735L211.93 57.0947ZM211.282 51.5732L211.488 53.3076H207.685L206.822 51.5732H211.282ZM209.371 61.2718H206.904L206.709 55.9453L209.371 61.2718ZM185.403 72.7768C185.403 72.7768 185.403 72.7666 185.413 72.7666L185.434 72.7153C185.475 72.6024 185.506 72.4895 185.506 72.3766L186.277 51.5116L195.383 33.2842L204.489 51.5116L204.89 62.3392L205.26 72.3766C205.26 72.4895 205.29 72.6126 205.332 72.7153L206.668 76.0405H184.087L185.403 72.7768ZM183.851 61.2718H181.384L184.046 55.9453L183.851 61.2718ZM176.955 44.9432H179.647V49.5205H176.955V44.9432ZM175.927 51.5732H180.675H183.944L183.08 53.3076H170.86L170.634 52.8663L169.986 51.5732H175.927ZM159.431 53.5847L164.066 44.3171L168.702 53.5847L169.092 64.0634H159.051L159.431 53.5847ZM146.574 51.5732H158.146L157.499 52.8663L157.273 53.3076H146.368L146.574 51.5732ZM146.132 55.3603H156.245L155.382 57.0947H145.926L146.132 55.3603ZM145.69 59.1474H154.374C154.272 59.4347 154.292 59.7632 154.457 60.03C154.642 60.3276 154.97 60.5124 155.33 60.5124H157.119L157.108 60.8921H145.484L145.69 59.1474ZM145.248 62.9447H157.036L156.975 64.6792H145.042L145.248 62.9447ZM144.806 66.7113C144.847 66.7113 144.878 66.7318 144.919 66.7318H183.645L183.584 68.4663H144.6L144.806 66.7113ZM144.364 70.5189H183.502L183.44 72.0892H144.179L144.364 70.5189ZM147.91 74.3163H182.577L181.631 76.6768L181.621 76.6974C181.58 76.8103 181.559 76.9232 181.559 77.0361C181.559 77.0463 181.549 77.0566 181.549 77.0771V101.473H176.965V85.6058C176.965 85.0413 176.502 84.5795 175.937 84.5795H166.451C165.885 84.5795 165.423 85.0413 165.423 85.6058V101.473H147.91V74.3163ZM167.468 100.682V86.6321H174.899V100.682H167.468ZM146.008 103.515H146.882H164.817L163.902 105.414H146.008V103.515ZM166.173 105.424L167.088 103.525H175.279L176.194 105.424H166.173ZM212.855 105.424H178.476L177.561 103.525H182.566H208.189H211.981H212.855V105.424ZM209.217 101.462V77.0771C209.217 77.0668 209.206 77.0566 209.206 77.0361C209.206 76.9232 209.186 76.8 209.145 76.6974L209.134 76.6768L208.189 74.3163H210.954V101.473H209.217V101.462Z" fill="#133DBD"/>
    <path d="M200.594 84.5795H190.162C189.596 84.5795 189.134 85.0413 189.134 85.6058V90.3474V97.9318C189.134 98.4963 189.596 98.9582 190.162 98.9582H200.604C201.169 98.9582 201.632 98.4963 201.632 97.9318V90.3474V85.6058C201.621 85.031 201.169 84.5795 200.594 84.5795ZM199.566 96.8953H191.179V91.3634H199.566V96.8953ZM199.566 89.3108H191.179V86.6218H199.566V89.3108Z" fill="#133DBD"/>
    <path d="M28.0047 74.8416C30.7798 74.8416 33.0303 72.6244 33.0303 69.8905C33.0303 67.1566 30.7798 64.9395 28.0047 64.9395C25.2297 64.9395 22.9792 67.1566 22.9792 69.8905C22.9792 72.6244 25.2297 74.8416 28.0047 74.8416Z" fill="#65D78D"/>
    <path d="M28.0047 75.2549C22.4547 75.2549 17.9631 79.6798 17.9631 85.1476C17.9631 90.6154 22.4547 95.0403 28.0047 95.0403C33.5548 95.0403 38.0464 90.6154 38.0464 85.1476C38.0464 79.6798 33.5453 75.2549 28.0047 75.2549Z" fill="#65D78D"/>
    <path d="M39 85.1477C39 80.3 35.7482 76.1851 31.2852 74.804C32.9064 73.7518 33.9744 71.9386 33.9744 69.8905C33.9744 66.6399 31.2948 64 28.0048 64C24.7053 64 22.0256 66.6399 22.0256 69.8905C22.0256 71.9386 23.0936 73.7518 24.7148 74.804C20.2518 76.1851 17 80.3 17 85.1383C17 90.794 21.4248 95.4444 27.0416 95.9235V106.991H28.9488V95.9329C34.5752 95.4538 39 90.8034 39 85.1477ZM28.0048 65.8884C30.2458 65.8884 32.0672 67.6828 32.0672 69.8999C32.0672 72.1077 30.2458 73.9021 28.0048 73.9021C25.7638 73.9021 23.9328 72.1077 23.9328 69.8999C23.9328 67.6922 25.7542 65.8884 28.0048 65.8884ZM28.0048 94.1009C22.9983 94.1009 18.9168 90.08 18.9168 85.1477C18.9168 80.2154 22.9983 76.1945 28.0048 76.1945C33.0113 76.1945 37.0928 80.2154 37.0928 85.1477C37.0928 90.08 33.0113 94.1009 28.0048 94.1009Z" fill="#133DBD"/>
    <path d="M1 107H235" stroke="#133DBD" stroke-width="2" stroke-linecap="round"/>
    <path d="M229.163 25.2042C230.865 25.0326 232.439 24.2246 233.57 22.942C234.701 21.6594 235.306 19.9969 235.263 18.2873C235.221 16.5777 234.534 14.9472 233.341 13.7224C232.147 12.4976 230.535 11.7687 228.827 11.6819C229.112 9.21579 228.512 6.72867 227.135 4.66359C225.757 2.59851 223.691 1.08958 221.304 0.405611C218.918 -0.27836 216.366 -0.0929513 214.104 0.928808C211.841 1.95057 210.015 3.74232 208.95 5.98487C208.017 5.78639 207.053 5.78746 206.12 5.98801C205.187 6.18856 204.308 6.58406 203.539 7.14856C202.77 7.71305 202.129 8.43378 201.658 9.26346C201.187 10.0931 200.897 11.013 200.807 11.9627C199.264 12.4294 197.939 13.4313 197.07 14.788C196.2 16.1447 195.843 17.7672 196.063 19.3635C196.284 20.9598 197.066 22.4252 198.27 23.4959C199.475 24.5666 201.022 25.1724 202.633 25.2042H229.163Z" fill="#E4EAF5"/>
    <path d="M109.02 85.02C110.959 85.02 112.53 83.4485 112.53 81.51C112.53 79.5715 110.959 78 109.02 78C107.081 78 105.51 79.5715 105.51 81.51C105.51 83.4485 107.081 85.02 109.02 85.02Z" fill="white"/>
    <path d="M109.02 85.3101C105.14 85.3101 102 88.4601 102 92.3401C102 96.2201 105.14 99.3601 109.02 99.3601C112.9 99.3601 116.04 96.2201 116.04 92.3401C116.04 88.4601 112.9 85.3101 109.02 85.3101Z" fill="white"/>
    <path d="M117.04 92.34C117.04 88.96 114.94 86.07 111.98 84.89C112.92 84.06 113.53 82.86 113.53 81.51C113.53 79.02 111.51 77 109.02 77C106.53 77 104.51 79.02 104.51 81.51C104.51 82.86 105.12 84.06 106.06 84.89C103.1 86.07 101 88.96 101 92.34C101 96.42 104.07 99.8 108.02 100.29V107.84H110.02V100.29C113.97 99.79 117.04 96.42 117.04 92.34ZM109.02 79C110.4 79 111.53 80.13 111.53 81.51C111.53 82.89 110.41 84.02 109.02 84.02C107.63 84.02 106.51 82.9 106.51 81.51C106.51 80.12 107.64 79 109.02 79ZM109.02 98.36C105.7 98.36 103 95.66 103 92.34C103 89.02 105.7 86.32 109.02 86.32C112.34 86.32 115.04 89.02 115.04 92.34C115.04 95.66 112.34 98.36 109.02 98.36Z" fill="#133DBD"/>
</svg>
