<svg width="105" height="105" viewBox="0 0 105 105" fill="none" xmlns="http://www.w3.org/2000/svg">
    <circle cx="35.5" cy="54.5" r="35.5" fill="#E4EAF5"/>
    <circle cx="65.5" cy="72.5" r="32.5" fill="#E4EAF5"/>
    <circle cx="59.5" cy="45.5" r="45.5" fill="#E4EAF5"/>
    <path d="M72.9673 73.8524L33.7632 67.7803C32.8828 67.644 32.6068 66.5112 33.3257 65.9851L36.7496 63.4796C36.9636 63.323 37.1055 63.095 37.1461 62.8329L39.7624 45.9412C40.6042 40.506 43.8883 25.8359 59.6998 28.2848C75.5112 30.7337 75.0038 43.8101 73.8558 51.2218L71.2402 68.1095C71.1996 68.3716 71.2653 68.6358 71.4219 68.8498L73.9274 72.2737C74.4535 72.9926 73.8477 73.9888 72.9673 73.8524Z" fill="white" stroke="#133DBD" stroke-width="3"/>
    <path d="M72.9673 73.8524L33.7632 67.7803C32.8828 67.644 32.6068 66.5112 33.3257 65.9851L36.7496 63.4796C36.9636 63.323 37.1055 63.095 37.1461 62.8329L39.7624 45.9412C40.6042 40.506 43.8883 25.8359 59.6998 28.2848C75.5112 30.7337 75.0038 43.8101 73.8558 51.2218L71.2402 68.1095C71.1996 68.3716 71.2653 68.6358 71.4219 68.8498L73.9274 72.2737C74.4535 72.9926 73.8477 73.9888 72.9673 73.8524Z" stroke="#133DBD" stroke-width="3"/>
    <path d="M58.4118 23.5318C58.6231 22.1674 59.9005 21.2326 61.265 21.4439C62.6294 21.6553 63.5642 22.9327 63.3529 24.2971L62.8172 27.7559L57.8761 26.9906L58.4118 23.5318Z" fill="#133DBD"/>
    <path d="M52.729 79.8253C55.4579 80.2479 58.0127 78.3784 58.4354 75.6495L48.5532 74.1189C48.1306 76.8478 50.0001 79.4026 52.729 79.8253Z" fill="#133DBD"/>
    <path d="M32.5 39C33 33 37.5 26 43.5 24" stroke="#65D78D" stroke-width="3" stroke-linecap="round"/>
    <path d="M77.0062 28.4376C81.7294 32.1714 85.0745 39.7911 83.424 45.8965" stroke="#65D78D" stroke-width="3" stroke-linecap="round"/>
</svg>
