<svg width="426" height="200" viewBox="0 0 426 200" fill="none" xmlns="http://www.w3.org/2000/svg">
    <path d="M287.713 68.2908C285.363 68.2908 283.09 68.3694 280.739 68.5265C259.737 27.8193 217.42 0 168.599 0C98.9319 0 42.4307 56.6601 42.4307 126.523C42.4307 152.692 51.9128 179.804 65.5484 200C127.849 200 312.79 199.764 371.878 199.764C377.285 187.976 380.263 174.931 380.263 161.1C380.263 109.862 338.808 68.2908 287.713 68.2908Z" fill="#E4EAF5"/>
    <path d="M203.061 113.641L175.945 198.565H293.443L268.139 113.641H203.061Z" fill="#65D78D"/>
    <path d="M236.652 69.2197H233.389V78.3653H236.652V69.2197Z" fill="#133DBD"/>
    <path d="M269.944 115.601H201.403V113.84C201.406 110.15 202.835 106.612 205.377 104.002C207.918 101.393 211.365 99.9258 214.959 99.9228H256.398C259.991 99.9287 263.434 101.397 265.974 104.006C268.513 106.615 269.941 110.152 269.944 113.84V115.601ZM204.941 112.08H266.373C265.966 109.665 264.743 107.475 262.919 105.895C261.094 104.316 258.785 103.448 256.398 103.444H214.959C212.565 103.437 210.245 104.3 208.412 105.881C206.578 107.462 205.349 109.658 204.941 112.08Z" fill="#133DBD"/>
    <path d="M258.161 101.229H254.718V98.3332C254.484 93.5631 252.373 89.0637 248.823 85.7685C245.273 82.4733 240.556 80.635 235.651 80.635C230.747 80.635 226.03 82.4733 222.48 85.7685C218.93 89.0637 216.819 93.5631 216.585 98.3332V101.229H213.153V98.3332C213.153 92.5176 215.526 86.9402 219.749 82.828C223.972 78.7158 229.7 76.4055 235.673 76.4055C241.646 76.4055 247.374 78.7158 251.598 82.828C255.821 86.9402 258.194 92.5176 258.194 98.3332L258.161 101.229Z" fill="#133DBD"/>
    <path d="M236.652 128.666H233.389V134.545H236.652V128.666Z" fill="white"/>
    <path d="M250.765 124.823L247.649 126.277L250.155 131.655L253.271 130.201L250.765 124.823Z" fill="white"/>
    <path d="M220.054 124.813L217.547 130.191L220.662 131.645L223.169 126.268L220.054 124.813Z" fill="white"/>
    <path d="M235.673 95.35C238.377 95.35 240.569 93.0102 240.569 90.1239C240.569 87.2376 238.377 84.8979 235.673 84.8979C232.97 84.8979 230.778 87.2376 230.778 90.1239C230.778 93.0102 232.97 95.35 235.673 95.35Z" fill="#65D78D"/>
    <path d="M142.328 148.917C140.455 148.917 138.625 148.342 137.068 147.265C135.511 146.188 134.298 144.657 133.582 142.866C132.866 141.074 132.679 139.104 133.045 137.203C133.411 135.301 134.314 133.555 135.638 132.186C136.963 130.816 138.651 129.883 140.488 129.506C142.324 129.13 144.228 129.325 145.957 130.069C147.686 130.812 149.164 132.07 150.203 133.682C151.241 135.295 151.795 137.191 151.793 139.129C151.79 141.726 150.791 144.216 149.017 146.051C147.242 147.886 144.836 148.917 142.328 148.917ZM142.328 132.837C141.125 132.837 139.95 133.206 138.951 133.898C137.951 134.589 137.172 135.572 136.712 136.722C136.252 137.871 136.132 139.136 136.367 140.357C136.601 141.577 137.18 142.699 138.03 143.579C138.88 144.459 139.963 145.058 141.142 145.301C142.321 145.543 143.543 145.419 144.653 144.943C145.764 144.466 146.713 143.66 147.381 142.625C148.049 141.59 148.405 140.374 148.405 139.129C148.405 137.461 147.765 135.86 146.625 134.68C145.485 133.5 143.939 132.837 142.328 132.837Z" fill="#133DBD"/>
    <path d="M142.001 180.927C138.515 180.927 135.108 179.892 132.209 177.954C129.311 176.016 127.052 173.262 125.718 170.039C124.384 166.816 124.035 163.269 124.715 159.848C125.395 156.426 127.074 153.284 129.539 150.817C132.003 148.35 135.144 146.67 138.563 145.99C141.982 145.309 145.525 145.659 148.746 146.993C151.966 148.328 154.719 150.589 156.656 153.49C158.592 156.39 159.626 159.8 159.626 163.289C159.623 167.966 157.765 172.45 154.461 175.758C151.156 179.065 146.675 180.924 142.001 180.927ZM142.001 149.097C139.201 149.097 136.463 149.928 134.135 151.485C131.806 153.042 129.992 155.255 128.92 157.844C127.848 160.434 127.568 163.283 128.114 166.031C128.661 168.78 130.009 171.305 131.989 173.286C133.969 175.268 136.492 176.618 139.239 177.164C141.985 177.711 144.832 177.43 147.42 176.358C150.007 175.285 152.218 173.469 153.774 171.139C155.33 168.809 156.16 166.069 156.16 163.267C156.146 159.515 154.649 155.922 151.996 153.271C149.343 150.621 145.75 149.128 142.001 149.119V149.097Z" fill="#133DBD"/>
    <path d="M143.96 178.314H140.696V198.565H143.96V178.314Z" fill="#133DBD"/>
    <path d="M307.804 196.605H117.196V199.871H307.804V196.605Z" fill="#133DBD"/>
</svg>
