<svg width="426" height="200" viewBox="0 0 426 200" fill="none" xmlns="http://www.w3.org/2000/svg">
    <g clip-path="url(#clip0_1_4823)">
        <path d="M166.843 34L108 58.208L115.952 108.76L154.916 123H233.639L295.663 116.592L306 73.872L295.663 43.968L244.771 34H166.843Z" fill="white"/>
        <path d="M380.598 54.1606C359.884 39.9719 343.398 32.1065 319.434 24.6296C286.731 14.4264 242.532 8.74796 177.906 14.5163C116.053 20.0299 99.806 45.7553 70.2206 87.9316C49.8376 117.088 -13.4399 115.59 2.56684 157.167C16.5952 193.65 337.494 211.104 408.31 160.808C434.313 142.319 439.918 94.7937 380.598 54.1606ZM257.94 102.51C241.933 105.416 244.556 115.769 228.834 119.965C207.012 125.778 170.637 119.965 164.822 114.151C154.076 103.409 134.262 111.245 132.809 93.7898C131.602 82.2608 128.656 70.9809 124.071 60.3334C129.901 48.6919 169.183 48.6919 169.183 48.6919C178.873 42.9541 189.935 39.9413 201.197 39.9719C213.855 39.7987 226.355 42.7965 237.557 48.6919C247.748 47.1936 282.669 53.0518 282.669 60.3334C282.669 72.1398 273.931 99.6031 257.94 102.51Z" fill="#65D78D"/>
        <path d="M202.713 118.286C221.33 118.286 236.423 103.395 236.423 85.0252C236.423 66.6556 221.33 51.7641 202.713 51.7641C184.095 51.7641 169.002 66.6556 169.002 85.0252C169.002 103.395 184.095 118.286 202.713 118.286Z" fill="#65D78D"/>
        <path d="M202.727 120.084C195.882 120.087 189.189 118.033 183.495 114.183C177.802 110.332 173.364 104.858 170.742 98.4521C168.12 92.0462 167.433 84.9965 168.766 78.1948C170.1 71.393 173.395 65.1447 178.235 60.2401C183.074 55.3355 189.241 51.995 195.955 50.641C202.669 49.287 209.629 49.9804 215.954 52.6335C222.279 55.2866 227.685 59.7802 231.488 65.5459C235.292 71.3117 237.322 78.0906 237.322 85.0252C237.314 94.3184 233.667 103.229 227.182 109.802C220.696 116.374 211.901 120.072 202.727 120.084ZM202.727 52.9004C196.451 52.8974 190.315 54.7802 185.095 58.3106C179.875 61.8411 175.806 66.8605 173.403 72.7339C171 78.6073 170.37 85.0708 171.594 91.3067C172.817 97.5427 175.84 103.271 180.278 107.767C184.716 112.262 190.371 115.324 196.526 116.563C202.682 117.803 209.063 117.165 214.861 114.731C220.659 112.296 225.614 108.174 229.1 102.887C232.585 97.5991 234.443 91.3831 234.44 85.0252C234.429 76.5088 231.084 68.3447 225.139 62.3227C219.194 56.3007 211.135 52.9123 202.727 52.9004Z" fill="#133DBD"/>
        <path d="M202.263 111.095C216.661 111.095 228.333 99.423 228.333 85.0252C228.333 70.6274 216.661 58.9557 202.263 58.9557C187.865 58.9557 176.194 70.6274 176.194 85.0252C176.194 99.423 187.865 111.095 202.263 111.095Z" fill="white"/>
        <path d="M202.727 112.893C197.304 112.896 192.002 111.264 187.491 108.203C182.98 105.143 179.463 100.792 177.386 95.7C175.309 90.6082 174.763 85.0045 175.82 79.5978C176.876 74.1911 179.486 69.2242 183.32 65.3253C187.154 61.4265 192.039 58.7709 197.358 57.6944C202.677 56.6179 208.191 57.1689 213.202 59.2777C218.212 61.3864 222.495 64.9583 225.509 69.5413C228.522 74.1244 230.13 79.5129 230.13 85.0252C230.119 92.4098 227.228 99.4887 222.092 104.712C216.956 109.935 209.993 112.877 202.727 112.893ZM202.727 60.1032C197.874 60.1002 193.128 61.5606 189.091 64.2995C185.054 67.0385 181.907 70.933 180.048 75.4903C178.189 80.0476 177.702 85.0628 178.648 89.9016C179.595 94.7403 181.932 99.1851 185.364 102.674C188.796 106.162 193.169 108.537 197.93 109.499C202.69 110.461 207.625 109.966 212.109 108.076C216.592 106.187 220.424 102.988 223.119 98.8852C225.814 94.782 227.25 89.9586 227.247 85.0252C227.24 78.4179 224.654 72.0835 220.057 67.4115C215.46 62.7394 209.228 60.1112 202.727 60.1032Z" fill="#133DBD"/>
        <path d="M209.455 60.7536H206.758V111.095H209.455V60.7536Z" fill="#133DBD"/>
        <path d="M197.768 60.7536H195.072V111.095H197.768V60.7536Z" fill="#133DBD"/>
        <path d="M186.085 65H183.385V102.756H186.085V65Z" fill="#133DBD"/>
        <path d="M221.141 66.1473H218.444V103.903H221.141V66.1473Z" fill="#133DBD"/>
        <path d="M148.311 89.5199C145.823 89.517 143.391 88.8028 141.323 87.4675C139.256 86.1322 137.645 84.2358 136.695 82.018C135.744 79.8003 135.497 77.3606 135.985 75.0075C136.472 72.6543 137.672 70.4933 139.433 68.7976C141.193 67.1019 143.436 65.9475 145.877 65.4805C148.318 65.0134 150.847 65.2546 153.146 66.1735C155.445 67.0925 157.409 68.648 158.792 70.6434C160.174 72.6388 160.912 74.9845 160.912 77.3841C160.908 80.6041 159.578 83.6909 157.216 85.9663C154.853 88.2418 151.65 89.5199 148.311 89.5199ZM148.311 68.123C146.411 68.123 144.555 68.6662 142.975 69.6838C141.396 70.7014 140.165 72.1478 139.438 73.84C138.711 75.5323 138.521 77.3944 138.891 79.1909C139.262 80.9874 140.177 82.6376 141.52 83.9327C142.863 85.2279 144.574 86.11 146.437 86.4673C148.3 86.8247 150.231 86.6413 151.986 85.9403C153.741 85.2394 155.241 84.0523 156.297 82.5293C157.352 81.0064 157.915 79.2158 157.915 77.3841C157.911 74.9291 156.898 72.5758 155.098 70.8399C153.297 69.1039 150.857 68.1269 148.311 68.123Z" fill="#133DBD"/>
        <path d="M257.998 89.5199C255.509 89.5199 253.075 88.7818 251.006 87.3989C248.936 86.016 247.323 84.0505 246.371 81.7508C245.418 79.4512 245.169 76.9207 245.654 74.4794C246.14 72.0381 247.339 69.7956 249.099 68.0355C250.859 66.2755 253.101 65.0768 255.543 64.5912C257.984 64.1056 260.514 64.3548 262.814 65.3074C265.114 66.2599 267.079 67.873 268.462 69.9427C269.845 72.0123 270.583 74.4455 270.583 76.9347C270.579 80.2712 269.252 83.47 266.892 85.8293C264.533 88.1886 261.334 89.5159 257.998 89.5199ZM257.998 67.3305C256.098 67.3305 254.241 67.8938 252.662 68.9491C251.083 70.0044 249.852 71.5044 249.125 73.2593C248.398 75.0142 248.208 76.9453 248.578 78.8083C248.949 80.6714 249.864 82.3826 251.207 83.7258C252.55 85.069 254.261 85.9837 256.124 86.3543C257.987 86.7248 259.918 86.5346 261.673 85.8077C263.428 85.0808 264.928 83.8498 265.983 82.2704C267.039 80.691 267.602 78.8342 267.602 76.9347C267.586 74.3967 266.567 71.9681 264.768 70.1778C262.969 68.3875 260.536 67.3806 257.998 67.3766V67.3305Z" fill="#133DBD"/>
        <path d="M268.785 76.0357H247.211V78.7326H268.785V76.0357Z" fill="#133DBD"/>
        <path d="M259.697 67H257V88.5747H259.697V67Z" fill="#133DBD"/>
        <path d="M159.114 76.0357H137.539V78.7326H159.114V76.0357Z" fill="#133DBD"/>
        <path d="M149.7 67H147V88.5747H149.7V67Z" fill="#133DBD"/>
        <path d="M282.447 59.8547C273.326 53.7413 256.239 49.9448 237.831 49.9448H237.441L237.096 49.7505C226.561 44.1796 214.818 41.2599 202.891 41.2456C183.164 41.2456 170.322 49.6159 170.202 49.7056L169.827 49.9448H169.392C150.999 49.9448 133.897 53.7413 124.791 59.8547L123.156 57.4482C132.667 51.0807 150.159 47.1048 168.957 46.9853C179.29 41.1282 191.004 38.1251 202.891 38.2861C215.208 38.276 227.341 41.2622 238.236 46.9853C257.034 46.9853 274.571 51.021 284.067 57.4482L282.447 59.8547Z" fill="#133DBD"/>
        <path d="M182.936 141.659C189.638 141.659 195.072 140.451 195.072 138.962C195.072 137.473 189.638 136.265 182.936 136.265C176.233 136.265 170.8 137.473 170.8 138.962C170.8 140.451 176.233 141.659 182.936 141.659Z" fill="white"/>
        <path d="M165.406 174.021C172.357 174.021 177.992 172.814 177.992 171.324C177.992 169.835 172.357 168.627 165.406 168.627C158.456 168.627 152.821 169.835 152.821 171.324C152.821 172.814 158.456 174.021 165.406 174.021Z" fill="white"/>
        <path d="M205.41 148.85C213.601 148.85 220.242 147.643 220.242 146.154C220.242 144.664 213.601 143.457 205.41 143.457C197.218 143.457 190.577 144.664 190.577 146.154C190.577 147.643 197.218 148.85 205.41 148.85Z" fill="white"/>
        <path d="M162.26 153.345C169.955 153.345 176.194 151.333 176.194 148.85C176.194 146.368 169.955 144.356 162.26 144.356C154.565 144.356 148.326 146.368 148.326 148.85C148.326 151.333 154.565 153.345 162.26 153.345Z" fill="white"/>
        <path d="M191.476 159.638C197.434 159.638 202.263 158.028 202.263 156.042C202.263 154.056 197.434 152.446 191.476 152.446C185.518 152.446 180.688 154.056 180.688 156.042C180.688 158.028 185.518 159.638 191.476 159.638Z" fill="white"/>
        <path d="M132.145 176.718C137.11 176.718 141.135 175.108 141.135 173.122C141.135 171.136 137.11 169.526 132.145 169.526C127.181 169.526 123.156 171.136 123.156 173.122C123.156 175.108 127.181 176.718 132.145 176.718Z" fill="white"/>
        <path d="M146.079 188.404C151.788 188.404 156.417 186.794 156.417 184.808C156.417 182.822 151.788 181.213 146.079 181.213C140.37 181.213 135.741 182.822 135.741 184.808C135.741 186.794 140.37 188.404 146.079 188.404Z" fill="white"/>
        <path d="M158.215 164.133C164.172 164.133 169.002 162.523 169.002 160.537C169.002 158.551 164.172 156.941 158.215 156.941C152.257 156.941 147.427 158.551 147.427 160.537C147.427 162.523 152.257 164.133 158.215 164.133Z" fill="white"/>
        <path d="M203.162 134.467C216.567 134.467 227.434 132.254 227.434 129.523C227.434 126.792 216.567 124.579 203.162 124.579C189.757 124.579 178.891 126.792 178.891 129.523C178.891 132.254 189.757 134.467 203.162 134.467Z" fill="white"/>
        <path d="M331 64C346.464 64 359 51.464 359 36C359 20.536 346.464 8 331 8C315.536 8 303 20.536 303 36C303 51.464 315.536 64 331 64Z" fill="white"/>
        <rect width="40" height="40" transform="translate(311 20)" fill="white"/>
        <path fill-rule="evenodd" clip-rule="evenodd" d="M331 28.7787C333.934 25.3453 339.367 23.9453 343.767 26.9453C346.1 28.5453 347.567 31.2453 347.667 34.0787C347.884 40.5453 342.167 45.7287 333.417 53.662L333.234 53.8287C331.967 54.9953 330.017 54.9953 328.75 53.8453L328.584 53.6953L328.483 53.6039C319.79 45.7055 314.101 40.5372 314.334 34.0953C314.434 31.2453 315.9 28.5453 318.234 26.9453C322.634 23.9287 328.067 25.3453 331 28.7787ZM331 51.3787L331.167 51.212C339.1 44.0287 344.334 39.2787 344.334 34.462C344.334 31.1287 341.834 28.6287 338.5 28.6287C335.934 28.6287 333.434 30.2787 332.567 32.562H329.45C328.567 30.2787 326.067 28.6287 323.5 28.6287C320.167 28.6287 317.667 31.1287 317.667 34.462C317.667 39.2787 322.9 44.0287 330.834 51.212L331 51.3787Z" fill="#133DBD"/>
    </g>
    <defs>
        <clipPath id="clip0_1_4823">
            <rect width="426" height="200" fill="white"/>
        </clipPath>
    </defs>
</svg>
