<svg width="200" height="200" viewBox="0 0 200 200" fill="none" xmlns="http://www.w3.org/2000/svg">
    <path d="M118.668 94.563L115.123 91.651V97.475L118.668 94.563Z" fill="#EBF0F6"/>
    <path d="M131.618 101.719C132.145 102.157 132.918 102.413 133.709 102.411C134.5 102.413 135.273 102.157 135.8 101.719L176.525 68.269L178.483 66.6609C178.014 65.0869 176.552 63.929 174.83 63.929H115.123V88.17L131.618 101.719Z" fill="#EBF0F6"/>
    <path d="M148.746 94.564L178.638 119.119V70.009L148.746 94.564Z" fill="#EBF0F6"/>
    <path d="M137.503 103.798C136.412 104.691 135.05 105.099 133.707 105.102C132.365 105.099 131.003 104.691 129.91 103.797L120.785 96.302L115.121 100.954V125.198H174.827C176.548 125.198 178.011 124.04 178.479 122.466L146.627 96.303L137.503 103.798Z" fill="#EBF0F6"/>
    <path d="M87.9971 72.297C87.9971 71.733 87.5381 71.272 86.9741 71.272H48.7481C48.1841 71.272 47.7241 71.732 47.7241 72.297V78.191C47.7241 78.755 48.1841 79.214 48.7481 79.214H86.9741C87.5381 79.214 87.9971 78.755 87.9971 78.191V72.297ZM85.9501 77.165H49.7721V73.322H85.9501V77.165Z" fill="#0022CD"/>
    <path d="M87.9971 91.085V85.191C87.9971 84.627 87.5381 84.166 86.9741 84.166H48.7481C48.1841 84.166 47.7241 84.626 47.7241 85.191V91.085C47.7241 91.649 48.1841 92.108 48.7481 92.108H86.9741C87.5381 92.108 87.9971 91.649 87.9971 91.085ZM85.9501 90.059H49.7721V86.216H85.9501V90.059Z" fill="#0022CD"/>
    <path d="M63.944 99.11H49.7729V102.953H63.944V99.11Z" fill="#CCFF69"/>
    <path d="M48.7491 97.061C48.1851 97.061 47.7251 97.5211 47.7251 98.0861V103.98C47.7251 104.544 48.1851 105.003 48.7491 105.003H64.9681C65.5321 105.003 65.9911 104.544 65.9911 103.98V98.0861C65.9911 97.5221 65.5321 97.061 64.9681 97.061H48.7491ZM63.9431 102.953H49.7721V99.11H63.9431V102.953Z" fill="#0022CD"/>
    <path d="M115.123 97.475V91.65V88.169V63.928V40.36C115.177 38.671 114.564 37.082 113.395 35.874C112.243 34.684 110.641 34 108.999 34H28.234C24.855 34 22 36.855 22 40.234V153.184C22 156.563 24.855 159.418 28.234 159.418H91.565L91.576 159.416C92.282 159.416 92.855 158.843 92.855 158.137C92.855 157.431 92.283 156.858 91.576 156.858L91.557 156.857H28.235C26.302 156.857 24.669 155.225 24.669 153.292V57.029H112.567V63.928V86.068V89.549V99.576V103.055V125.198V128.875L112.57 128.954C112.57 129.659 113.141 130.23 113.846 130.23C114.551 130.23 115.122 129.659 115.122 128.954L115.126 128.884V125.198V100.954L115.123 97.475ZM112.456 54.252H24.667V40.343C24.667 38.317 26.267 36.668 28.233 36.668H108.889C110.822 36.668 112.455 38.3 112.455 40.234V54.252H112.456Z" fill="#0022CD"/>
    <path d="M117 134C105.96 134 97 142.96 97 154C97 165.04 105.96 174 117 174C128.04 174 137 165.04 137 154C137 142.96 128.04 134 117 134Z" fill="#CCFF69"/>
    <path d="M104.5 154.837C104.5 155.453 104.744 156.044 105.179 156.48L111.718 163.048C112.621 163.955 114.106 163.962 114.997 163.046L128.822 149.16C129.726 148.252 129.726 146.783 128.822 145.875C127.916 144.965 126.45 144.965 125.544 145.875L113.365 158.108L108.456 153.194C108.456 153.194 108.455 153.194 108.455 153.194C107.549 152.284 106.084 152.284 105.179 153.194C104.744 153.63 104.5 154.221 104.5 154.837Z" fill="#0022CD" stroke="#0022CD"/>
</svg>
