<svg width="128" height="128" viewBox="0 0 128 128" fill="none" xmlns="http://www.w3.org/2000/svg">
    <g clip-path="url(#clip0_1_2555)">
        <path d="M99.3333 27H24V102.667H99.3333V27Z" fill="white"/>
        <path d="M99.4469 103.9H23.8802C23.1435 103.9 22.5469 103.303 22.5469 102.567V69.6301C22.5469 68.8934 23.1435 68.2967 23.8802 68.2967C24.6169 68.2967 25.2135 68.8934 25.2135 69.6301V101.233H98.1135V28.3334H25.2135V44.8134C25.2135 45.5501 24.6169 46.1467 23.8802 46.1467C23.1435 46.1467 22.5469 45.5501 22.5469 44.8134V27.0001C22.5469 26.2634 23.1435 25.6667 23.8802 25.6667H99.4469C100.184 25.6667 100.78 26.2634 100.78 27.0001V102.567C100.78 103.3 100.184 103.9 99.4469 103.9Z" fill="#0022CD"/>
        <path d="M66.6036 73.9233H63.9369V102.607H66.6036V73.9233Z" fill="#0022CD"/>
        <path d="M77.3368 75.2135H51.0768C50.3402 75.2135 49.7435 74.6169 49.7435 73.8802C49.7435 73.1435 50.3402 72.5469 51.0768 72.5469H77.3368C78.0735 72.5469 78.6702 73.1435 78.6702 73.8802C78.6702 74.6169 78.0735 75.2135 77.3368 75.2135Z" fill="#0022CD"/>
        <path d="M99.3368 75.2135H90.8202C90.0835 75.2135 89.4868 74.6169 89.4868 73.8802C89.4868 73.1435 90.0835 72.5469 90.8202 72.5469H99.3368C100.073 72.5469 100.67 73.1435 100.67 73.8802C100.67 74.6169 100.073 75.2135 99.3368 75.2135Z" fill="#0022CD"/>
        <path d="M23.8802 70.9602C23.5369 70.9602 23.1935 70.8269 22.9335 70.5635C22.4169 70.0402 22.4202 69.1969 22.9435 68.6769L39.7869 52.0269C40.3102 51.5102 41.1535 51.5135 41.6735 52.0369C42.1902 52.5602 42.1869 53.4035 41.6635 53.9235L24.8202 70.5735C24.5602 70.8335 24.2202 70.9602 23.8802 70.9602Z" fill="#0022CD"/>
        <path d="M124.207 12.7501C126.28 14.8234 126.28 18.2167 124.207 20.2934L116.193 28.3067C114.12 30.3801 110.727 30.3801 108.65 28.3067L99.6932 19.3501C97.6199 17.2767 97.6199 13.8834 99.6932 11.8067L107.707 3.7934C109.78 1.72007 113.173 1.72007 115.25 3.7934L124.207 12.7501Z" fill="white"/>
        <path d="M112.423 31.1934C110.637 31.1934 108.963 30.5034 107.71 29.2467L98.7532 20.29C96.1532 17.69 96.1532 13.46 98.7532 10.8634L106.767 2.85002C109.367 0.250024 113.597 0.250024 116.193 2.85002L125.15 11.8067C126.407 13.0634 127.097 14.7367 127.097 16.52C127.097 18.3034 126.407 19.98 125.15 21.2334L117.137 29.2467C115.88 30.5034 114.207 31.1934 112.423 31.1934ZM111.48 3.56669C110.457 3.56669 109.43 3.95669 108.65 4.73669L100.637 12.75C99.8866 13.5 99.4699 14.5067 99.4699 15.58C99.4699 16.6534 99.8832 17.6567 100.637 18.4067L109.593 27.3634C110.343 28.1134 111.35 28.53 112.423 28.53C113.497 28.53 114.5 28.1167 115.253 27.3634L123.267 19.35C124.017 18.6 124.433 17.5934 124.433 16.5234C124.433 15.4534 124.02 14.4467 123.267 13.6934L114.31 4.73669C113.527 3.95669 112.503 3.56669 111.48 3.56669Z" fill="#0022CD"/>
        <path d="M76.8297 67.6666L47.603 80.3966L60.333 51.17L65.9897 45.5133L74.2397 53.76L82.4864 62.01L76.8297 67.6666Z" fill="white"/>
        <path d="M47.603 81.7299C47.2564 81.7299 46.9164 81.5932 46.6597 81.3399C46.273 80.9532 46.1597 80.3666 46.3797 79.8666L59.1064 50.6399C59.173 50.4866 59.2664 50.3466 59.3864 50.2299L65.043 44.5732C65.293 44.3232 65.633 44.1832 65.9864 44.1832C66.3397 44.1832 66.6797 44.3232 66.9297 44.5732L83.4297 61.0732C83.6797 61.3232 83.8197 61.6632 83.8197 62.0166C83.8197 62.3699 83.6797 62.7099 83.4297 62.9599L77.773 68.6166C77.6564 68.7332 77.5164 68.8299 77.363 68.8966L48.1364 81.6232C47.9664 81.6932 47.783 81.7299 47.603 81.7299ZM61.453 51.9332L50.1797 77.8199L76.0664 66.5466L80.603 62.0099L65.9897 47.3966L61.453 51.9332Z" fill="#0022CD"/>
        <path d="M60.083 74.9602L47.603 80.3969L53.0397 67.9169L60.083 74.9602Z" fill="#0022CD"/>
        <path d="M47.603 81.7302C47.2564 81.7302 46.9164 81.5936 46.6597 81.3402C46.273 80.9536 46.1597 80.3669 46.3797 79.8669L51.8131 67.3869C51.9897 66.9836 52.3531 66.6902 52.7864 66.6102C53.2197 66.5269 53.6664 66.6669 53.9764 66.9769L61.0197 74.0202C61.3331 74.3336 61.4697 74.7769 61.3864 75.2102C61.3031 75.6436 61.0131 76.0069 60.6097 76.1836L48.1297 81.6169C47.9664 81.6936 47.783 81.7302 47.603 81.7302ZM53.4797 70.2436L50.1797 77.8202L57.7564 74.5202L53.4797 70.2436Z" fill="#0022CD"/>
        <path d="M62.9229 48.5768L69.8762 49.8735L71.1729 56.8268L78.1262 58.1235L79.4229 65.0768L117.373 27.1268L100.873 10.6268L62.9229 48.5768Z" fill="#CCFF69"/>
        <path d="M78.5766 67.8069L76.9833 59.2635L70.0299 57.9669L68.7333 51.0135L60.1899 49.4202L100.873 8.74353L119.257 27.1269L78.5766 67.8069ZM72.3166 55.6835L79.2699 56.9802L80.2699 62.3435L115.487 27.1269L100.873 12.5135L65.6566 47.7302L71.0199 48.7302L72.3166 55.6835Z" fill="#0022CD"/>
        <path d="M102.808 8.69255L99.0366 12.4637L115.536 28.9627L119.307 25.1915L102.808 8.69255Z" fill="#0022CD"/>
        <path d="M64 128C28.71 128 0 99.29 0 64C0 28.71 28.71 0 64 0C74.28 0 84.1 2.36333 93.1833 7.02667C93.84 7.36333 94.0967 8.16667 93.76 8.82C93.4233 9.47667 92.62 9.73333 91.9667 9.39667C83.2633 4.93 73.8533 2.66667 64 2.66667C30.18 2.66667 2.66667 30.18 2.66667 64C2.66667 97.82 30.18 125.333 64 125.333C97.82 125.333 125.333 97.82 125.333 64C125.333 54.1433 122.94 44.3467 118.413 35.67C118.073 35.0167 118.327 34.21 118.98 33.87C119.633 33.53 120.44 33.7833 120.78 34.4367C125.503 43.4933 128 53.7167 128 64C128 99.29 99.29 128 64 128Z" fill="#C4D3E4"/>
    </g>
    <defs>
        <clipPath id="clip0_1_2555">
            <rect width="128" height="128" fill="white"/>
        </clipPath>
    </defs>
</svg>
