<svg width="60" height="60" viewBox="0 0 60 60" fill="none" xmlns="http://www.w3.org/2000/svg">
    <path fill-rule="evenodd" clip-rule="evenodd" d="M52.7641 23.6735L32.2286 7.21562C31.7804 6.81589 31.2204 6.63828 30.6728 6.67044H30.656H30.6392C30.0907 6.63828 29.5311 6.81589 29.0844 7.21562L8.54892 23.6735C7.64112 24.4898 7.5441 25.9096 8.33614 26.8481C9.1253 27.7817 10.5048 27.8841 11.415 27.0643L30.656 11.6444L49.9004 27.0643C50.8116 27.8841 52.1896 27.7817 52.9783 26.8481C53.7689 25.9096 53.6738 24.4898 52.7641 23.6735Z" fill="#C4D3E4"/>
    <path fill-rule="evenodd" clip-rule="evenodd" d="M30.6792 15L12.3809 29.1766V47.6038C12.3809 49.1892 13.6704 50.4761 15.2623 50.4761H25.3038H35.8748H46.1185C47.7095 50.4761 49 49.1892 49 47.6038V29.3263L30.6792 15Z" fill="#C4D3E4"/>
    <rect x="22" y="24" width="35" height="20" rx="1" fill="#0022CD"/>
    <path d="M38 23C38 22.4477 38.4477 22 39 22H41C41.5523 22 42 22.4477 42 23V54H38V23Z" fill="#0022CD"/>
    <path d="M36.0581 27.72V28.46H37.3541V28.98H36.0581V30H35.4101V27.2H37.5261V27.72H36.0581ZM39.2935 30.048C39.0028 30.048 38.7401 29.9853 38.5055 29.86C38.2735 29.7347 38.0908 29.5627 37.9575 29.344C37.8268 29.1227 37.7615 28.8747 37.7615 28.6C37.7615 28.3253 37.8268 28.0787 37.9575 27.86C38.0908 27.6387 38.2735 27.4653 38.5055 27.34C38.7401 27.2147 39.0028 27.152 39.2935 27.152C39.5841 27.152 39.8455 27.2147 40.0775 27.34C40.3095 27.4653 40.4921 27.6387 40.6255 27.86C40.7588 28.0787 40.8255 28.3253 40.8255 28.6C40.8255 28.8747 40.7588 29.1227 40.6255 29.344C40.4921 29.5627 40.3095 29.7347 40.0775 29.86C39.8455 29.9853 39.5841 30.048 39.2935 30.048ZM39.2935 29.496C39.4588 29.496 39.6081 29.4587 39.7415 29.384C39.8748 29.3067 39.9788 29.2 40.0535 29.064C40.1308 28.928 40.1695 28.7733 40.1695 28.6C40.1695 28.4267 40.1308 28.272 40.0535 28.136C39.9788 28 39.8748 27.8947 39.7415 27.82C39.6081 27.7427 39.4588 27.704 39.2935 27.704C39.1281 27.704 38.9788 27.7427 38.8455 27.82C38.7121 27.8947 38.6068 28 38.5295 28.136C38.4548 28.272 38.4175 28.4267 38.4175 28.6C38.4175 28.7733 38.4548 28.928 38.5295 29.064C38.6068 29.2 38.7121 29.3067 38.8455 29.384C38.9788 29.4587 39.1281 29.496 39.2935 29.496ZM43.0965 30L42.5565 29.22H42.5245H41.9605V30H41.3125V27.2H42.5245C42.7725 27.2 42.9871 27.2413 43.1685 27.324C43.3525 27.4067 43.4938 27.524 43.5925 27.676C43.6911 27.828 43.7405 28.008 43.7405 28.216C43.7405 28.424 43.6898 28.604 43.5885 28.756C43.4898 28.9053 43.3485 29.02 43.1645 29.1L43.7925 30H43.0965ZM43.0845 28.216C43.0845 28.0587 43.0338 27.9387 42.9325 27.856C42.8311 27.7707 42.6831 27.728 42.4885 27.728H41.9605V28.704H42.4885C42.6831 28.704 42.8311 28.6613 42.9325 28.576C43.0338 28.4907 43.0845 28.3707 43.0845 28.216ZM29.2413 40.12C28.688 40.12 28.1513 40.0467 27.6313 39.9C27.118 39.7467 26.7047 39.55 26.3913 39.31L26.9413 38.09C27.2413 38.31 27.598 38.4867 28.0113 38.62C28.4247 38.7533 28.838 38.82 29.2513 38.82C29.7113 38.82 30.0513 38.7533 30.2713 38.62C30.4913 38.48 30.6013 38.2967 30.6013 38.07C30.6013 37.9033 30.5347 37.7667 30.4013 37.66C30.2747 37.5467 30.108 37.4567 29.9013 37.39C29.7013 37.3233 29.428 37.25 29.0813 37.17C28.548 37.0433 28.1113 36.9167 27.7713 36.79C27.4313 36.6633 27.138 36.46 26.8913 36.18C26.6513 35.9 26.5313 35.5267 26.5313 35.06C26.5313 34.6533 26.6413 34.2867 26.8613 33.96C27.0813 33.6267 27.4113 33.3633 27.8513 33.17C28.298 32.9767 28.8413 32.88 29.4813 32.88C29.928 32.88 30.3647 32.9333 30.7913 33.04C31.218 33.1467 31.5913 33.3 31.9113 33.5L31.4113 34.73C30.7647 34.3633 30.118 34.18 29.4713 34.18C29.018 34.18 28.6813 34.2533 28.4613 34.4C28.248 34.5467 28.1413 34.74 28.1413 34.98C28.1413 35.22 28.2647 35.4 28.5113 35.52C28.7647 35.6333 29.148 35.7467 29.6613 35.86C30.1947 35.9867 30.6313 36.1133 30.9713 36.24C31.3113 36.3667 31.6013 36.5667 31.8413 36.84C32.088 37.1133 32.2113 37.4833 32.2113 37.95C32.2113 38.35 32.098 38.7167 31.8713 39.05C31.6513 39.3767 31.318 39.6367 30.8713 39.83C30.4247 40.0233 29.8813 40.12 29.2413 40.12ZM37.9283 38.5H34.6783L34.0583 40H32.3983L35.5183 33H37.1183L40.2483 40H38.5483L37.9283 38.5ZM37.4183 37.27L36.3083 34.59L35.1983 37.27H37.4183ZM40.9745 33H42.5945V38.68H46.1045V40H40.9745V33ZM52.4297 38.7V40H47.0097V33H52.2997V34.3H48.6197V35.82H51.8697V37.08H48.6197V38.7H52.4297Z" fill="white"/>
</svg>
