<svg width="60" height="60" viewBox="0 0 60 60" fill="none" xmlns="http://www.w3.org/2000/svg">
    <path fill-rule="evenodd" clip-rule="evenodd" d="M52.7641 23.6735L32.2286 7.21562C31.7804 6.81589 31.2204 6.63828 30.6728 6.67044H30.656H30.6392C30.0907 6.63828 29.5311 6.81589 29.0844 7.21562L8.54892 23.6735C7.64112 24.4898 7.5441 25.9096 8.33614 26.8481C9.1253 27.7817 10.5048 27.8841 11.415 27.0643L30.656 11.6444L49.9004 27.0643C50.8116 27.8841 52.1896 27.7817 52.9783 26.8481C53.7689 25.9096 53.6738 24.4898 52.7641 23.6735Z" fill="#C4D3E4"/>
    <path fill-rule="evenodd" clip-rule="evenodd" d="M30.6792 15L12.3809 29.1766V47.6038C12.3809 49.1892 13.6704 50.4761 15.2623 50.4761H25.3038H35.8748H46.1185C47.7095 50.4761 49 49.1892 49 47.6038V29.3263L30.6792 15Z" fill="#C4D3E4"/>
    <path d="M20 33.6194V31.3244H22.9759C23.6054 29.4209 24.7214 27.8909 26.3238 26.7346C27.9262 25.5782 29.748 25 31.7892 25C34.8223 25 37.2259 26.0229 39 28.0688L36.9684 30.4705C36.129 29.6344 35.3278 29.0473 34.5648 28.7093C33.8208 28.3713 32.8956 28.2022 31.7892 28.2022C30.6827 28.2022 29.6812 28.478 28.7846 29.0295C27.9071 29.5632 27.249 30.3282 26.8102 31.3244H33.6205V33.6194H26.2093C26.1903 33.8329 26.1807 34.162 26.1807 34.6067C26.1807 35.0337 26.2093 35.4429 26.2666 35.8343H33.6205V38.1292H27.0392C28.0693 39.9794 29.624 40.9045 31.7033 40.9045C32.7334 40.9045 33.6109 40.7266 34.3358 40.3708C35.0798 39.9972 35.8619 39.419 36.6822 38.6362L38.7139 40.9312C36.9398 42.9771 34.6029 44 31.7033 44C29.7194 44 27.9548 43.4752 26.4096 42.4256C24.8835 41.3581 23.7866 39.926 23.119 38.1292H20V35.8343H22.5753C22.5181 35.4073 22.4895 34.9803 22.4895 34.5534C22.4895 34.1264 22.499 33.8151 22.5181 33.6194H20Z" fill="#0022CD"/>
</svg>
