<svg width="72" height="72" viewBox="0 0 72 72" fill="none" xmlns="http://www.w3.org/2000/svg">
    <rect x="11.9189" y="37.3732" width="48.1622" height="20.578" fill="white"/>
    <path d="M54.608 27.0842H17.3918L12.2837 37.0058H59.7161L54.608 27.0842Z" fill="#C4D3E4"/>
    <path d="M43.5869 31.6051L41.8878 28.9621L35.8822 19.6777L29.8934 28.9621L28.1775 31.6051L23.9719 38.1109H25.4187V59.6107H29.2878V60.3392H42.4261V59.6107H46.3457V38.1109H47.7925L43.5869 31.6051Z" fill="white"/>
    <rect x="31.6216" y="41.0479" width="8.75676" height="14.6986" fill="#EBF0F6"/>
    <path d="M63 57.476H60.4262V37.0944V37.0775C60.4262 37.0436 60.4262 37.0266 60.4262 36.9927C60.4262 36.9589 60.4093 36.908 60.3925 36.8741C60.3757 36.8233 60.3589 36.7894 60.3421 36.7555L55.1944 26.624C55.0766 26.4038 54.8411 26.2513 54.5888 26.2513H44.0916V19.6777C44.0916 19.305 43.7888 19 43.4187 19H39.8019C39.4318 19 39.129 19.305 39.129 19.6777V23.4728L36.4374 19.305C36.3196 19.1186 36.1009 19 35.8654 19C35.6299 19 35.428 19.1186 35.2935 19.305L30.8019 26.2513H17.1757C16.9234 26.2513 16.6879 26.3868 16.5701 26.624L11.4393 36.7555C11.4224 36.7894 11.4056 36.8403 11.3888 36.8741C11.372 36.908 11.372 36.9589 11.3551 36.9927C11.3551 37.0266 11.3551 37.0436 11.3551 37.0775V37.0944V57.476H9V58.8314H11.9439C11.9776 58.8314 11.9944 58.8314 12.028 58.8314H24.7626V59.5938C24.7626 59.9665 25.0654 60.2715 25.4355 60.2715H28.6318V60.3223C28.6318 60.695 28.9346 61 29.3047 61H42.443C42.8131 61 43.1159 60.695 43.1159 60.3223V60.2715H46.3458C46.7159 60.2715 47.0187 59.9665 47.0187 59.5938V58.8314H59.7533C59.7869 58.8314 59.8037 58.8314 59.8374 58.8314H63V57.476ZM58.643 36.4167H47.5065L46.043 34.1464H57.4991L58.643 36.4167ZM44.0916 27.6067H54.1851L54.9757 29.1484H44.1084V27.6067H44.0916ZM55.6654 30.5208L56.8262 32.791H45.1682L44.1084 31.1476V30.5208H55.6654ZM42.7458 29.0637L41.8037 27.6236H42.7458V29.0637ZM40.4916 20.3554H42.7626V26.2683H40.9458L40.4916 25.5736V20.3554ZM17.5963 27.6067H29.9607L28.9682 29.1484H16.8056L17.5963 27.6067ZM16.1327 30.4869C16.1832 30.5038 16.2336 30.5038 16.2841 30.5038H28.0766L26.6131 32.7741H14.972L16.1327 30.4869ZM14.2991 34.0956C14.3832 34.1295 14.4673 34.1464 14.5682 34.1464H25.7383L24.2748 36.4167H13.1215L14.2991 34.0956ZM22.4579 57.4929H12.7009V37.789H23.4C23.2822 37.9923 23.2822 38.2295 23.4 38.4328C23.5178 38.6531 23.7364 38.7886 23.9888 38.7886H24.7626V57.476H22.4579V57.4929ZM41.7533 59.6616H29.9607V58.8314H30.9869H40.7103H41.7365V59.6616H41.7533ZM39.5159 55.2904H32.1981V42.1263H39.5159V55.2904ZM31.6598 56.6458H40.0374V57.476H31.6598V56.6458ZM45.6729 38.1109V58.933H43.0991V58.1537C43.0991 57.781 42.7963 57.476 42.4262 57.476H41.4V55.9681C41.4 55.6462 41.1645 55.3752 40.8617 55.3074V41.4486C40.8617 41.0758 40.5589 40.7709 40.1888 40.7709H31.5252C31.1551 40.7709 30.8523 41.0758 30.8523 41.4486V55.3074C30.5495 55.3752 30.314 55.6462 30.314 55.9681V57.476H29.2879C28.9178 57.476 28.615 57.781 28.615 58.1537V58.933H26.0916V38.1109C26.0916 37.7382 25.7888 37.4332 25.4187 37.4332H25.2168L35.8822 20.9145L46.5477 37.4332H46.3458C45.9757 37.4332 45.6729 37.7382 45.6729 38.1109ZM47.0187 38.7886H47.7925C48.0449 38.7886 48.2636 38.6531 48.3813 38.4328C48.4991 38.2295 48.4822 37.9754 48.3813 37.789H59.0804V57.476H49.5421H47.0187V38.7886Z" fill="#0022CD"/>
    <path d="M42.7414 20.4359H40.3652V25.5093L42.7414 29.0511V20.4359Z" fill="white"/>
    <path d="M22.3072 42.9562H15.0904C14.7203 42.9562 14.4175 43.2612 14.4175 43.6339V52.3423C14.4175 52.715 14.7203 53.02 15.0904 53.02H22.3072C22.6773 53.02 22.9801 52.715 22.9801 52.3423V43.6339C22.9801 43.2612 22.6773 42.9562 22.3072 42.9562ZM21.6343 51.6646H15.7633V44.3116H21.6343V51.6646Z" fill="#0022CD"/>
    <path d="M56.2371 53.02C56.6072 53.02 56.91 52.715 56.91 52.3423V43.6339C56.91 43.2612 56.6072 42.9562 56.2371 42.9562H49.0203C48.6502 42.9562 48.3474 43.2612 48.3474 43.6339V52.3423C48.3474 52.715 48.6502 53.02 49.0203 53.02H56.2371ZM49.6932 44.3116H55.5642V51.6646H49.6932V44.3116Z" fill="#0022CD"/>
    <circle cx="48" cy="24" r="8" fill="white"/>
    <path d="M58.7795 13.1511C52.8149 7.18646 43.1158 7.18646 37.1512 13.1511C31.1866 19.1157 31.1866 28.8148 37.1512 34.7794C42.1246 39.7528 49.6821 40.567 55.5052 37.2573L63.0096 44.7617C63.6113 45.3635 64.6025 45.3635 65.2043 44.7617L68.7618 41.2042C69.3636 40.6024 69.3636 39.6112 68.7618 39.0095L61.2574 31.505C64.5671 25.682 63.7529 18.1245 58.7795 13.1511ZM53.0273 29.0272C50.2308 31.8236 45.6999 31.8236 42.9034 29.0272C40.1069 26.2307 40.1069 21.6997 42.9034 18.9033C45.6999 16.1068 50.2308 16.1068 53.0273 18.9033C55.8237 21.6997 55.8237 26.2484 53.0273 29.0272Z" fill="#CCFF69"/>
    <path d="M64.1239 45.9292C63.5398 45.9292 62.9734 45.7168 62.531 45.2743L55.3982 38.1416C49.2389 41.3628 41.6106 40.2301 36.6726 35.292C33.6637 32.2832 32 28.2655 32 23.9823C32 19.6991 33.6637 15.6814 36.6726 12.6726C39.6814 9.66372 43.6991 8 47.9823 8C52.2655 8 56.2832 9.66372 59.292 12.6726C64.2301 17.6106 65.3805 25.2389 62.1416 31.3982L69.2743 38.531C70.1593 39.4159 70.1593 40.8496 69.2743 41.7168L65.7168 45.2743C65.2743 45.7168 64.6903 45.9292 64.1239 45.9292ZM55.6283 36.3894L63.5221 44.2832C63.8584 44.6195 64.3894 44.6195 64.708 44.2832L68.2655 40.7257C68.6018 40.3894 68.6018 39.8584 68.2655 39.5398L60.3717 31.646L60.6372 31.1858C63.8584 25.5044 62.885 18.3009 58.2655 13.6814C55.5221 10.9381 51.8584 9.41593 47.9469 9.41593C44.0354 9.41593 40.3894 10.9381 37.6283 13.6814C34.885 16.4248 33.3628 20.0885 33.3628 24C33.3628 27.8938 34.885 31.5575 37.6283 34.3186C42.2478 38.938 49.4513 39.9115 55.1327 36.6903L55.6283 36.3894ZM47.9646 31.8407C45.8584 31.8407 43.8761 31.0265 42.4071 29.5398C40.9381 28.0531 40.1062 26.0708 40.1062 23.9823C40.1062 21.8761 40.9204 19.8938 42.4071 18.4248C43.8938 16.9558 45.8761 16.1239 47.9646 16.1239C50.0708 16.1239 52.0531 16.9381 53.5221 18.4248C55.0088 19.9115 55.823 21.8938 55.823 23.9823C55.823 26.0885 55.0088 28.0708 53.5221 29.5398C52.0531 31.0265 50.0708 31.8407 47.9646 31.8407ZM47.9646 17.5221C46.2301 17.5221 44.6195 18.1947 43.3982 19.4159C42.177 20.6372 41.5044 22.2478 41.5044 23.9823C41.5044 25.7168 42.177 27.3274 43.3982 28.5487C44.6195 29.7699 46.2301 30.4425 47.9646 30.4425C49.6991 30.4425 51.3097 29.7699 52.531 28.5487C53.7522 27.3274 54.4248 25.7168 54.4248 23.9823C54.4248 22.2478 53.7522 20.6372 52.531 19.4159C51.3097 18.1947 49.6991 17.5221 47.9646 17.5221Z" fill="#0022CD"/>
</svg>
