<svg width="72" height="72" viewBox="0 0 72 72" fill="none" xmlns="http://www.w3.org/2000/svg">
    <path d="M35.3094 48.8415C35.3094 48.8415 29.8156 46.6893 26.7867 46.3226C26.7222 46.4501 26.5772 46.5617 26.4 46.6733V42.879C26.9317 42.6877 27.4472 42.4486 27.9306 42.1616L26.5933 44.4733C29.7833 44.3457 32.8606 44.0269 35.7767 43.5486V28.5786L35.7283 28.6743C35.7283 28.4989 35.7444 28.3235 35.7444 28.1482C35.7444 21.4364 30.2506 16 23.4678 16C16.685 16 11.1911 21.4364 11.1911 28.1482C11.1911 28.3235 11.1911 28.4989 11.2072 28.6743L11.1589 28.5786V43.5646C14.075 44.0428 17.1522 44.3457 20.3422 44.4733L19.005 42.1457C19.4883 42.4167 19.9717 42.6558 20.4711 42.8471V46.5936C20.3583 46.5139 20.2617 46.4183 20.2133 46.3226C17.1844 46.6893 11.6906 48.8415 11.6906 48.8415C10.0956 49.6227 9 51.2488 9 53.13V67H38V53.13C38 51.2488 36.9044 49.6227 35.3094 48.8415Z" fill="white"/>
    <path d="M9.5 53V67H37.5V53.5C37.5 49.1 34 48.5 27 46.5C24 48.5 20 46.5 20 46.5C11.5 48 9.5 49.8 9.5 53Z" fill="#EBF0F6"/>
    <rect x="15" y="55" width="7" height="5" fill="white"/>
    <path d="M21.6873 54.6787H19.9672V54.0523C19.9672 53.7078 19.6857 53.426 19.3417 53.426H16.8397C16.4957 53.426 16.2142 53.7078 16.2142 54.0523V54.6787H14.3377C13.9936 54.6787 13.7122 54.9606 13.7122 55.3051V60.0029C13.7122 60.3475 13.9936 60.6293 14.3377 60.6293H21.6873C22.0314 60.6293 22.3128 60.3475 22.3128 60.0029V55.3051C22.3128 54.9606 22.0314 54.6787 21.6873 54.6787ZM21.0618 59.3766H14.9632V55.9315H16.8397H19.3417H21.0618V59.3766Z" fill="#0022CD"/>
    <path d="M35.3077 48.3368C35.2296 48.3055 35.1357 48.2585 35.0263 48.2272C34.8699 48.1645 34.651 48.0863 34.3695 47.9766C33.8691 47.7887 33.0872 47.5068 32.1959 47.2093C30.1161 46.5046 28.4428 46.0505 27.2075 45.8626V45.2049C30.0691 45.064 32.8839 44.7664 35.6049 44.328L36.1209 44.234V28.9974H36.074C36.074 28.8564 36.0896 28.7155 36.0896 28.5589C36.0896 21.6374 30.4601 16 23.5483 16C16.6364 16 11.0069 21.6374 11.0069 28.5589C11.0069 28.6998 11.0069 28.8408 11.0225 28.9974H10.9756V44.2497L11.5073 44.328C14.2126 44.7664 17.043 45.064 19.889 45.1892V45.8469C18.6537 46.0505 16.9961 46.489 14.9319 47.1937C14.0406 47.4912 13.2587 47.7731 12.7583 47.961C12.4768 48.0706 12.2579 48.1489 12.1015 48.2115C11.9921 48.2585 11.8982 48.2898 11.82 48.3368C9.95916 49.245 8.83325 51.0772 8.83325 53.1129V67.3631H38.2633V53.1129C38.2633 51.0772 37.1217 49.245 35.3077 48.3368ZM28.0519 25.7089C29.9597 27.2905 32.274 28.4649 34.8073 29.1383C34.5102 36.6235 28.4741 42.9343 23.517 42.9343C18.0907 42.9343 13.3682 36.6548 12.3986 30.7042C18.2002 30.579 23.689 28.7938 28.0519 25.7089ZM29.084 24.9416C30.3193 23.955 31.4609 22.8745 32.4773 21.6687C33.8065 23.3913 34.651 25.521 34.8073 27.8386C32.665 27.2278 30.7259 26.2413 29.084 24.9416ZM21.0931 43.8425C21.8907 44.0774 22.7038 44.187 23.517 44.187C24.3301 44.187 25.1433 44.0618 25.9408 43.8425V46.2854C25.5342 46.4733 24.7054 46.6926 23.5326 46.6926C22.3129 46.6926 21.4684 46.4577 21.0931 46.2697V43.8425ZM34.8542 43.1535C32.3679 43.545 29.8033 43.8112 27.1918 43.9365V43.3727C29.0996 42.5115 30.8979 41.0082 32.4461 38.9098C33.4312 37.5787 34.2444 36.0911 34.8542 34.5408V43.1535ZM23.5326 17.2528C26.7227 17.2528 29.6 18.5838 31.6485 20.7135C27.2075 26.0847 20.0298 29.3262 12.2579 29.4671C12.2423 29.1696 12.2266 28.8721 12.2266 28.5746C12.2266 22.3264 17.2932 17.2528 23.5326 17.2528ZM12.1797 43.1848V34.5565C12.7896 36.0911 13.6027 37.5787 14.5879 38.9255C16.136 41.0238 17.9343 42.5428 19.8421 43.3884V43.9522C17.2463 43.8269 14.6661 43.5607 12.1797 43.1848ZM37.0122 66.1103H10.0843V53.1129C10.0843 51.5627 10.9443 50.169 12.3361 49.4643C12.6176 49.3547 17.2776 47.5225 20.108 47.084C20.8273 47.7104 22.2972 47.9297 23.5639 47.9453C24.8305 47.9453 26.3005 47.7104 27.0198 47.084C29.8346 47.5225 34.4946 49.3547 34.7917 49.4643C36.1834 50.1533 37.0435 51.547 37.0435 53.1129V66.1103H37.0122Z" fill="#0022CD"/>
    <path d="M44.9792 31.0796C44.8554 31.0796 44.7494 31.0442 44.6434 30.9911C44.4489 30.8849 44.3075 30.6726 44.2899 30.4425L43.8834 26.5133H34.5159C33.102 26.5133 31.9531 25.3628 31.9531 23.9469V6.56637C31.9531 5.15044 33.102 4 34.5159 4H64.3326C65.7466 4 66.8954 5.15044 66.8954 6.56637V23.9646C66.8954 25.3805 65.7466 26.531 64.3326 26.531H54.488L45.2796 31.0265C45.1913 31.0619 45.0852 31.0796 44.9792 31.0796Z" fill="#CCFF69"/>
    <path d="M41.7987 13.0976V18.3011H40.0312V16.3896H38.4052V18.3011H36.6731V13.0976H38.4229V14.9383H40.0489V13.0976H41.7987Z" fill="#0022CD"/>
    <path d="M46.9598 16.9912V18.3187H42.6472V13.1151H46.8714V14.4425H44.3616V15.0443H46.5533V16.301H44.3616V16.9912H46.9598Z" fill="#0022CD"/>
    <path d="M47.6309 13.0976H49.3806V16.9383H51.7313V18.3011H47.6309V13.0976Z" fill="#0022CD"/>
    <path d="M52.209 13.0976H53.9587V16.9383H56.3094V18.3011H52.209V13.0976Z" fill="#0022CD"/>
    <path d="M57.9349 18.0708C57.4931 17.8407 57.1396 17.5221 56.8922 17.0974C56.6447 16.6903 56.521 16.2124 56.521 15.6991C56.521 15.1858 56.6447 14.708 56.8922 14.3009C57.1396 13.8938 57.4931 13.5575 57.9349 13.3274C58.3768 13.0973 58.8894 12.9734 59.4373 12.9734C59.9852 12.9734 60.4977 13.0973 60.9396 13.3274C61.3815 13.5575 61.735 13.8761 61.9824 14.3009C62.2298 14.708 62.3535 15.1858 62.3535 15.6991C62.3535 16.2124 62.2298 16.6903 61.9824 17.0974C61.735 17.5044 61.3815 17.8407 60.9396 18.0708C60.4977 18.3009 59.9852 18.4248 59.4373 18.4248C58.8894 18.4248 58.3768 18.3009 57.9349 18.0708ZM60.0382 16.8496C60.215 16.7434 60.3563 16.5841 60.4624 16.3894C60.5684 16.1947 60.6215 15.9646 60.6215 15.6991C60.6215 15.4336 60.5684 15.2035 60.4624 15.0089C60.3563 14.8142 60.215 14.6549 60.0382 14.5487C59.8615 14.4425 59.667 14.3894 59.4549 14.3894C59.2429 14.3894 59.0484 14.4425 58.8717 14.5487C58.695 14.6549 58.5536 14.8142 58.4475 15.0089C58.3415 15.2035 58.2884 15.4336 58.2884 15.6991C58.2884 15.9646 58.3415 16.1947 58.4475 16.3894C58.5536 16.5841 58.695 16.7434 58.8717 16.8496C59.0484 16.9558 59.2429 17.0089 59.4549 17.0089C59.667 17.0089 59.8615 16.9558 60.0382 16.8496Z" fill="#0022CD"/>
</svg>
