<svg viewBox="0 0 24 24" width="24" height="24" xmlns="http://www.w3.org/2000/svg">
    <path d="M16.352 3.887a4.51 4.51 0 0 0-3.686 1.886l-.772 1.115-.771-1.115a4.526 4.526 0 0 0-8.23 2.658c0 1.8.686 3.428 1.972 4.714l7.03 7.03 7.028-7.03c1.286-1.286 1.972-2.914 1.972-4.714 0-2.486-2.057-4.544-4.543-4.544z"/>
    <path d="m11.973 5.72.262-.35c.962-1.4 2.623-2.186 4.284-2.186 2.885 0 5.245 2.36 5.245 5.333 0 2.01-.787 3.846-2.186 5.245l-7.168 7.082a.686.686 0 0 1-.962 0l-7.169-7.17A7.344 7.344 0 0 1 2.094 8.43c0-1.748.787-3.322 2.185-4.283 2.448-1.749 5.77-1.224 7.431 1.224l.263.35zm6.731 7.08c1.224-1.223 1.836-2.71 1.836-4.37 0-2.186-1.836-4.022-3.934-4.022-1.311 0-2.448.612-3.235 1.661l-.786 1.136a.656.656 0 0 1-1.05 0L10.75 6.07c-1.224-1.749-3.76-2.186-5.595-.874-1.137.787-1.749 1.923-1.749 3.234 0 1.661.612 3.148 1.836 4.372l6.732 6.731 6.731-6.731z"/>
</svg>