<svg width="208" height="113" viewBox="0 0 208 113" fill="none" xmlns="http://www.w3.org/2000/svg">
    <g clip-path="url(#clip0_1_2175)">
        <path d="M183.965 80.7101C178.557 80.7101 173.6 82.4515 169.594 85.3871C168.643 83.0486 167.391 80.8096 165.989 78.7199V44.886H132.541V36.7758C132.541 36.129 132.04 35.6315 131.389 35.6315H87.4257C87.1253 35.6315 86.8249 35.731 86.5745 35.9798C86.3742 36.1788 86.224 36.4773 86.224 36.7758V62.8976V63.2956V64.6888C85.2226 64.44 84.2211 64.3405 83.1696 64.3405C81.0666 64.3405 79.0136 64.838 77.211 65.8331C73.0049 68.0224 70.4012 72.3511 70.4012 77.0779C70.4012 79.2174 70.952 81.3072 71.9534 83.1979L72.3039 83.8447L71.7531 84.2925C67.5971 87.6759 65.2437 92.7012 65.2437 98.0251C65.2437 104.245 68.5485 110.066 73.8562 113.3H70.8018C68.6987 111.608 66.9963 109.519 65.7945 107.23C63.8918 104.294 62.7902 100.861 62.7902 97.1295C62.7902 91.308 65.444 86.1335 69.6 82.7003C68.5485 80.7598 67.8976 78.5208 67.8976 76.1823C67.8976 70.958 70.8518 66.4302 75.2081 64.1415L72.8547 59.763V1.30005H6.40888V72.6497L0.600506 77.5755C0.500361 77.6252 0.450289 77.7247 0.400217 77.7745C0.400217 77.7745 0.400217 77.7745 0.400217 77.8243C0.350144 77.874 0.300072 77.9238 0.300072 77.9735C0.300072 77.9735 0.300072 77.9735 0.300072 78.0233C0.25 78.1228 0.25 78.2721 0.25 78.3716V82.7003C0.25 83.2476 0.70065 83.7452 1.30152 83.7452H4.20571V111.658V113.25H6.25867V83.7452H51.1735V113.25H111.46V92.2037C111.46 91.5568 110.96 91.0593 110.309 91.0593H97.4903C96.8393 91.0593 96.3386 91.5568 96.3386 92.2037V113.25H88.6776V63.5444V37.9202H130.187V42.448H100.144C99.4931 42.448 98.9924 42.9455 98.9924 43.5924C98.9924 44.2392 99.4931 44.7367 100.144 44.7367H130.187V49.1152H106.904C106.253 49.1152 105.752 49.6128 105.752 50.2596C105.752 50.9064 106.253 51.404 106.904 51.404H130.187V55.7825H110.259C109.608 55.7825 109.107 56.2801 109.107 56.9269C109.107 57.5737 109.608 58.0713 110.259 58.0713H130.187V62.3503H120.073C119.422 62.3503 118.921 62.8478 118.921 63.4946V113.101H121.275V64.639H153.321H153.471V78.8194C153.421 78.8691 153.371 78.8691 153.321 78.9189C151.919 79.8145 150.817 81.1081 150.216 82.6506C149.415 82.4018 148.614 82.2525 147.763 82.2525C143.356 82.2525 139.751 85.8349 139.751 90.2134C139.751 93.149 141.354 95.6865 143.707 97.0797C143.857 101.309 147.362 104.742 151.668 104.742C151.718 104.742 151.718 104.742 151.769 104.742L153.12 106.583C153.171 106.633 153.221 106.732 153.321 106.782V113.151H206.698C207.699 110.514 208.25 107.678 208.25 104.692C208.2 91.5071 197.334 80.7101 183.965 80.7101ZM28.5909 56.6284L53.1263 77.3765H52.3752H49.2707H4.05549L28.5909 56.6284ZM54.9789 81.7052H2.20282V79.4164L54.9789 79.4662V81.7052ZM98.5418 93.348H109.007V113.25H98.5418V93.348Z" fill="#EBF0F6"/>
        <path d="M34.4493 94.1442H22.7825C22.6823 94.1442 22.5321 94.1939 22.432 94.1939C22.0314 94.3432 21.731 94.6915 21.731 95.1393V113.25H23.7839V96.1344H33.3978V113.201H35.4507V95.0895C35.4507 94.592 35.0001 94.1442 34.4493 94.1442Z" fill="#EBF0F6"/>
        <path d="M147.713 75.436V70.1619C147.713 69.6643 147.312 69.2663 146.812 69.2663H141.504C141.003 69.2663 140.603 69.6643 140.603 70.1619V75.436C140.603 75.9336 141.003 76.3316 141.504 76.3316H146.812C147.312 76.3316 147.713 75.9336 147.713 75.436ZM145.96 74.5902H142.405V71.0575H145.96V74.5902Z" fill="#EBF0F6"/>
        <path d="M135.545 86.2331V80.959C135.545 80.4614 135.145 80.0634 134.644 80.0634H129.336C128.836 80.0634 128.435 80.4614 128.435 80.959V86.2331C128.435 86.7306 128.836 87.1287 129.336 87.1287H134.644C135.145 87.1287 135.545 86.7306 135.545 86.2331ZM133.793 85.3872H130.188V81.8546H133.743V85.3872H133.793Z" fill="#EBF0F6"/>
        <path d="M135.545 97.0799V91.8058C135.545 91.3082 135.145 90.9102 134.644 90.9102H129.336C128.836 90.9102 128.435 91.3082 128.435 91.8058V97.0799C128.435 97.5774 128.836 97.9755 129.336 97.9755H134.644C135.145 97.9257 135.545 97.5774 135.545 97.0799ZM133.793 96.1843H130.188V92.6516H133.743V96.1843H133.793Z" fill="#EBF0F6"/>
        <path d="M135.545 75.436V70.1619C135.545 69.6643 135.145 69.2663 134.644 69.2663H129.336C128.836 69.2663 128.435 69.6643 128.435 70.1619V75.436C128.435 75.9336 128.836 76.3316 129.336 76.3316H134.644C135.145 76.3316 135.545 75.9336 135.545 75.436ZM133.793 74.5902H130.188V71.0575H133.743V74.5902H133.793Z" fill="#EBF0F6"/>
        <path d="M69.3779 51.5081C69.3779 62.6609 89.5767 88.1739 89.5767 88.1739C89.5767 88.1739 109.775 62.6609 109.775 51.5081C109.775 40.3554 100.738 31.3247 89.5767 31.3247C78.4155 31.3247 69.3779 40.3554 69.3779 51.5081Z" fill="#65D78D"/>
        <path d="M89.6261 89.4085L89.0335 88.6683C88.1939 87.6319 68.6372 62.8098 68.6372 51.509C68.6372 39.9615 78.0699 30.536 89.6261 30.536C101.182 30.536 110.615 39.9615 110.615 51.509C110.615 62.8098 91.0583 87.6319 90.2188 88.6683L89.6261 89.4085ZM89.6261 32.0658C78.9094 32.0658 70.1682 40.8004 70.1682 51.509C70.1682 61.2306 86.3173 82.6478 89.6261 86.9904C92.935 82.6971 109.084 61.2306 109.084 51.509C109.084 40.8004 100.343 32.0658 89.6261 32.0658Z" fill="#133DBD"/>
        <path d="M100.625 62.3826C106.7 56.3121 106.7 46.4698 100.625 40.3993C94.5494 34.3287 84.6996 34.3287 78.6245 40.3993C72.5494 46.4698 72.5494 56.3121 78.6245 62.3826C84.6996 68.4531 94.5494 68.4531 100.625 62.3826Z" fill="white"/>
        <path d="M89.6264 67.6943C80.6382 67.6943 73.3291 60.3908 73.3291 51.4094C73.3291 42.428 80.6382 35.1245 89.6264 35.1245C98.6146 35.1245 105.924 42.428 105.924 51.4094C105.924 60.3908 98.6146 67.6943 89.6264 67.6943ZM89.6264 36.6049C81.4777 36.6049 74.8107 43.2176 74.8107 51.4094C74.8107 59.6012 81.4284 66.2139 89.6264 66.2139C97.8244 66.2139 104.442 59.6012 104.442 51.4094C104.442 43.2176 97.775 36.6049 89.6264 36.6049Z" fill="#133DBD"/>
        <path d="M88.1448 58.0221L82.1691 52.1003C81.5765 51.5081 81.5765 50.5705 82.1691 49.9783C82.7617 49.3862 83.7 49.3862 84.2927 49.9783L88.1448 53.7782L96.0958 45.7837C96.6885 45.1916 97.6268 45.1916 98.2194 45.7837C98.8121 46.3759 98.8121 47.3135 98.2194 47.9057L88.1448 58.0221Z" fill="#133DBD"/>
    </g>
    <defs>
        <clipPath id="clip0_1_2175">
            <rect width="208" height="113" fill="white"/>
        </clipPath>
    </defs>
</svg>
