<svg width="45" height="61" viewBox="0 0 45 61" fill="none" xmlns="http://www.w3.org/2000/svg">
    <path d="M2.37793 22.5081C2.37793 33.6609 22.5767 59.1739 22.5767 59.1739C22.5767 59.1739 42.7754 33.6609 42.7754 22.5081C42.7754 11.3554 33.7379 2.32471 22.5767 2.32471C11.4155 2.32471 2.37793 11.3554 2.37793 22.5081Z" fill="#CCFF69"/>
    <path d="M22.6261 60.4085L22.0335 59.6683C21.1939 58.6319 1.63721 33.8098 1.63721 22.509C1.63721 10.9615 11.0699 1.53601 22.6261 1.53601C34.1824 1.53601 43.6151 10.9615 43.6151 22.509C43.6151 33.8098 24.0583 58.6319 23.2188 59.6683L22.6261 60.4085ZM22.6261 3.06581C11.9094 3.06581 3.16816 11.8004 3.16816 22.509C3.16816 32.2306 19.3173 53.6478 22.6261 57.9904C25.935 53.6971 42.0841 32.2306 42.0841 22.509C42.0841 11.8004 33.3428 3.06581 22.6261 3.06581Z" fill="#0022CD"/>
    <path d="M33.6245 33.3826C39.6996 27.3121 39.6996 17.4698 33.6245 11.3993C27.5494 5.32875 17.6996 5.32875 11.6245 11.3993C5.54938 17.4698 5.54938 27.3121 11.6245 33.3826C17.6996 39.4531 27.5494 39.4531 33.6245 33.3826Z" fill="white"/>
    <path d="M22.6264 38.6943C13.6382 38.6943 6.3291 31.3908 6.3291 22.4094C6.3291 13.428 13.6382 6.12445 22.6264 6.12445C31.6146 6.12445 38.9237 13.428 38.9237 22.4094C38.9237 31.3908 31.6146 38.6943 22.6264 38.6943ZM22.6264 7.6049C14.4777 7.6049 7.81067 14.2176 7.81067 22.4094C7.81067 30.6012 14.4284 37.2139 22.6264 37.2139C30.8244 37.2139 37.4421 30.6012 37.4421 22.4094C37.4421 14.2176 30.775 7.6049 22.6264 7.6049Z" fill="#0022CD"/>
    <path d="M21.1448 29.0221L15.1691 23.1003C14.5765 22.5081 14.5765 21.5705 15.1691 20.9783C15.7617 20.3862 16.7 20.3862 17.2927 20.9783L21.1448 24.7782L29.0958 16.7837C29.6885 16.1916 30.6268 16.1916 31.2194 16.7837C31.8121 17.3759 31.8121 18.3135 31.2194 18.9057L21.1448 29.0221Z" fill="#0022CD"/>
</svg>
