<svg width="24" height="24" viewBox="0 0 24 24" fill="none" xmlns="http://www.w3.org/2000/svg">
    <path d="M6.13725 16.464C6.79858 16.464 7.29992 16.288 7.64125 15.936C7.99325 15.584 8.16925 15.1573 8.16925 14.656C8.16925 14.048 7.98792 13.6 7.62525 13.312C7.26258 13.024 6.69192 12.88 5.91325 12.88H4.76125V11.776L6.69725 9.136L7.60925 8.416L6.34525 8.56H3.65725V6.8H9.76925V7.936L7.51325 10.96L6.80925 11.392V11.472L7.48125 11.376C7.85458 11.408 8.20658 11.4933 8.53725 11.632C8.87858 11.7707 9.17192 11.9733 9.41725 12.24C9.67325 12.496 9.87592 12.816 10.0253 13.2C10.1746 13.584 10.2493 14.0267 10.2493 14.528C10.2493 15.1573 10.1426 15.7013 9.92925 16.16C9.72658 16.6187 9.43858 17.0027 9.06525 17.312C8.70258 17.6213 8.27592 17.8507 7.78525 18C7.29458 18.1493 6.76658 18.224 6.20125 18.224C5.73192 18.224 5.24658 18.1813 4.74525 18.096C4.24392 18.0107 3.83858 17.888 3.52925 17.728L4.08925 16C4.36658 16.1387 4.67058 16.2507 5.00125 16.336C5.34258 16.4213 5.72125 16.464 6.13725 16.464ZM12.3194 6.8C12.5434 6.768 12.794 6.74133 13.0714 6.72C13.3594 6.69867 13.6527 6.68267 13.9514 6.672C14.25 6.66133 14.538 6.656 14.8154 6.656C15.1034 6.64533 15.3594 6.64 15.5834 6.64C16.5754 6.64 17.4234 6.77867 18.1274 7.056C18.8314 7.33333 19.402 7.72267 19.8394 8.224C20.2767 8.72533 20.5967 9.32267 20.7994 10.016C21.002 10.7093 21.1034 11.472 21.1034 12.304C21.1034 13.0613 21.0074 13.792 20.8154 14.496C20.6234 15.2 20.3034 15.824 19.8554 16.368C19.4074 16.912 18.8154 17.3493 18.0794 17.68C17.354 18.0107 16.4527 18.176 15.3754 18.176C15.2047 18.176 14.9754 18.1707 14.6874 18.16C14.41 18.1493 14.1167 18.1333 13.8074 18.112C13.5087 18.1013 13.2207 18.0853 12.9434 18.064C12.666 18.0533 12.458 18.0373 12.3194 18.016V6.8ZM15.7594 8.592C15.5247 8.592 15.2847 8.59733 15.0394 8.608C14.8047 8.61867 14.6287 8.63467 14.5114 8.656V16.16C14.554 16.1707 14.6234 16.1813 14.7194 16.192C14.826 16.192 14.938 16.1973 15.0554 16.208C15.1727 16.208 15.2847 16.2133 15.3914 16.224C15.498 16.224 15.578 16.224 15.6314 16.224C16.25 16.224 16.762 16.1173 17.1674 15.904C17.5834 15.68 17.9087 15.3867 18.1434 15.024C18.3887 14.6613 18.5594 14.2453 18.6554 13.776C18.7514 13.296 18.7994 12.8053 18.7994 12.304C18.7994 11.8667 18.7567 11.4293 18.6714 10.992C18.586 10.544 18.426 10.144 18.1914 9.792C17.9674 9.44 17.658 9.152 17.2634 8.928C16.8687 8.704 16.3674 8.592 15.7594 8.592Z" fill="#133DBD"/>
</svg>
