<svg width="16" height="16" viewBox="0 0 16 16" fill="none" xmlns="http://www.w3.org/2000/svg">
    <path fill-rule="evenodd" clip-rule="evenodd" d="M0.5 8C0.5 3.86 3.86 0.5 8 0.5C12.14 0.5 15.5 3.86 15.5 8C15.5 12.14 12.14 15.5 8 15.5C3.86 15.5 0.5 12.14 0.5 8ZM3.275 8.525L5.9675 11.2175C6.26 11.51 6.74 11.51 7.025 11.2175L12.7175 5.525C13.01 5.2325 13.01 4.76 12.7175 4.4675C12.425 4.175 11.9525 4.175 11.66 4.4675L6.5 9.6275L4.3325 7.4675C4.04 7.175 3.5675 7.175 3.275 7.4675C3.13456 7.60762 3.05564 7.79786 3.05564 7.99625C3.05564 8.19464 3.13456 8.38488 3.275 8.525Z" fill="#0022CD"/>
</svg>
