<svg width="24" height="24" viewBox="0 0 24 24" fill="none" xmlns="http://www.w3.org/2000/svg">
    <path d="M4.17233 16.1402L4.17101 16.1442C3.77294 17.3574 2.97335 18.9309 2 19.8068V18.3471C2.47623 17.6882 2.93184 16.8032 3.24589 15.8466C3.57115 14.8542 4.11582 13.1942 4.83697 11.8473C5.81208 10.0262 6.8647 9.28047 7.96538 9.63496C9.53765 10.1404 8.97302 13.19 8.47479 15.881L8.47448 15.8827C8.42283 16.1614 8.37266 16.4322 8.32742 16.687C8.1344 17.7789 8.53224 18.7025 9.0096 18.8482C9.38837 18.9635 9.86063 18.5162 10.2418 17.6797L11.1285 18.078C10.2252 20.0583 9.05748 19.8783 8.72102 19.7762C7.69524 19.4635 7.10161 18.0343 7.36883 16.5233C7.41135 16.2807 7.45882 16.025 7.5078 15.7612L7.51716 15.7108L7.51772 15.7078C7.81281 14.1136 8.42543 10.8038 7.6624 10.5583C6.934 10.3236 6.19062 11.3767 5.6952 12.3014C5.01552 13.5704 4.48809 15.1778 4.17233 16.1402Z" stroke="#0022CD" stroke-width="1.21263"/>
    <path fill-rule="evenodd" clip-rule="evenodd" d="M18.7698 2.0715L21.6831 3.79954C21.9678 3.96846 22.0509 4.32857 21.8691 4.60522L20.7649 6.28473L16.8217 3.94582L17.9259 2.26632C18.1078 1.98966 18.4849 1.90258 18.7698 2.0715ZM16.8217 3.94582L15.6184 5.77557L11.8964 11.4363L15.8397 13.7752L20.7649 6.28473L16.8217 3.94582ZM11.1797 13.2507L11.231 15.7647C11.2345 15.949 11.3343 16.1173 11.4959 16.2132C11.6254 16.29 11.7814 16.3127 11.929 16.2786C11.9655 16.2702 12.0019 16.2584 12.0366 16.2425L14.4377 15.183L11.1797 13.2507Z" fill="#0022CD"/>
</svg>
