<svg width="24" height="24" viewBox="0 0 24 24" fill="none" xmlns="http://www.w3.org/2000/svg">
    <mask id="mask0_1_540" style="mask-type:alpha" maskUnits="userSpaceOnUse" x="0" y="0" width="24" height="24">
        <rect width="24" height="24" fill="#C4C4C4"/>
    </mask>
    <g mask="url(#mask0_1_540)">
        <path d="M4 11.2584V9.32584H6.33708C6.83146 7.72285 7.70786 6.43446 8.96629 5.46067C10.2247 4.48689 11.6554 4 13.2584 4C15.6405 4 17.5281 4.86142 18.9213 6.58427L17.3258 8.60674C16.6667 7.90262 16.0375 7.40824 15.4382 7.1236C14.8539 6.83895 14.1273 6.69663 13.2584 6.69663C12.3895 6.69663 11.603 6.92884 10.8989 7.39326C10.2097 7.8427 9.69288 8.48689 9.34832 9.32584H14.6966V11.2584H8.87641C8.86142 11.4382 8.85393 11.7154 8.85393 12.0899C8.85393 12.4494 8.8764 12.794 8.92135 13.1236H14.6966V15.0562H9.52809C10.3371 16.6142 11.5581 17.3933 13.191 17.3933C14 17.3933 14.6891 17.2434 15.2584 16.9438C15.8427 16.6292 16.4569 16.1423 17.1011 15.4831L18.6966 17.4157C17.3034 19.1386 15.4682 20 13.191 20C11.633 20 10.2472 19.5581 9.03371 18.6742C7.83521 17.7753 6.97378 16.5693 6.44944 15.0562H4V13.1236H6.02247C5.97753 12.764 5.95506 12.4045 5.95506 12.0449C5.95506 11.6854 5.96255 11.4232 5.97753 11.2584H4Z" fill="#0022CD"/>
    </g>
</svg>
