<svg width="24" height="24" viewBox="0 0 24 24" fill="none" xmlns="http://www.w3.org/2000/svg">
    <path d="M16.6459 7.05435L18.0859 8.49435L13.2059 13.3744L9.91588 10.0844C9.72905 9.8971 9.4754 9.79187 9.21088 9.79187C8.94636 9.79187 8.69271 9.8971 8.50588 10.0844L2.50588 16.0944C2.11588 16.4844 2.11588 17.1144 2.50588 17.5044C2.89588 17.8944 3.52588 17.8944 3.91588 17.5044L9.20588 12.2044L12.4959 15.4944C12.8859 15.8844 13.5159 15.8844 13.9059 15.4944L19.4959 9.91435L20.9359 11.3544C21.2459 11.6644 21.7859 11.4444 21.7859 11.0044V6.70435C21.7959 6.42435 21.5759 6.20435 21.2959 6.20435H17.0059C16.5559 6.20435 16.3359 6.74435 16.6459 7.05435Z" fill="#0022CD"/>
</svg>
