<svg width="24" height="24" viewBox="0 0 24 24" fill="none" xmlns="http://www.w3.org/2000/svg">
    <path d="M9.95455 21.9922C9.95455 21.9456 9.96238 21.899 9.96238 21.8524C9.96238 19.0483 9.96238 16.2442 9.96238 13.4323C9.96238 13.4012 9.96238 13.3624 9.96238 13.3236C9.91536 13.3236 9.87618 13.3236 9.84483 13.3236C8.94357 13.3236 8.04232 13.3236 7.13323 13.3236C7 13.3313 7 13.3313 7 13.2148C7 12.1662 7 11.1175 7 10.0611C7 9.96793 7.03135 9.94463 7.12539 9.94463C8.02665 9.94463 8.9279 9.94463 9.83699 9.94463C9.87618 9.94463 9.91536 9.94463 9.96238 9.94463C9.96238 9.90579 9.96238 9.87472 9.96238 9.84365C9.96238 8.97367 9.95455 8.09593 9.97022 7.22596C9.97806 6.52687 10.1191 5.84332 10.4248 5.20637C10.8401 4.3364 11.4984 3.72275 12.3918 3.34991C12.9953 3.10911 13.6223 2.9926 14.2649 3.00036C15.0016 3.00813 15.7461 3.04697 16.4828 3.07027C16.6238 3.07804 16.7571 3.10134 16.8981 3.10911C16.9765 3.10911 17 3.14018 17 3.21786C17 3.65285 17 4.08783 17 4.52282C17 5.03548 17 5.54815 17 6.06081C17 6.15402 16.9765 6.17733 16.8824 6.17733C16.3182 6.17733 15.7618 6.16956 15.1975 6.17733C14.9389 6.18509 14.6803 6.2084 14.4373 6.26277C13.9592 6.36375 13.6693 6.68222 13.5752 7.15605C13.5361 7.35024 13.5125 7.54443 13.5125 7.73862C13.5047 8.45324 13.5125 9.1601 13.5125 9.87472C13.5125 9.89802 13.5125 9.91356 13.5204 9.9524C13.5596 9.9524 13.6066 9.9524 13.6458 9.9524C14.6803 9.9524 15.7147 9.9524 16.7492 9.9524C16.8824 9.9524 16.8903 9.9524 16.8668 10.0767C16.7962 10.6359 16.7179 11.1952 16.6473 11.7545C16.5846 12.2205 16.5298 12.6866 16.4749 13.1604C16.4514 13.3391 16.4592 13.3391 16.279 13.3391C15.4013 13.3391 14.5235 13.3391 13.6458 13.3391C13.6066 13.3391 13.5752 13.3391 13.5204 13.3391C13.5204 13.3857 13.5204 13.4323 13.5204 13.4711C13.5204 16.2442 13.5204 19.0172 13.5204 21.798C13.5204 21.8679 13.5204 21.9379 13.5204 22C12.3213 21.9922 11.1379 21.9922 9.95455 21.9922Z" fill="#0022CD"/>
</svg>
