<svg width="24" height="24" viewBox="0 0 24 24" fill="none" xmlns="http://www.w3.org/2000/svg">
    <path fill-rule="evenodd" clip-rule="evenodd" d="M12.0556 4.21111V6.42222H20.9C22.1161 6.42222 23.1111 7.41722 23.1111 8.63333V19.6889C23.1111 20.905 22.1161 21.9 20.9 21.9H3.21111C1.995 21.9 1 20.905 1 19.6889V4.21111C1 2.995 1.995 2 3.21111 2H9.84444C11.0606 2 12.0556 2.995 12.0556 4.21111ZM3.21112 19.6888H5.42223V17.4777H3.21112V19.6888ZM5.42223 15.2667H3.21112V13.0556H5.42223V15.2667ZM3.21112 10.8445H5.42223V8.63334H3.21112V10.8445ZM5.42223 6.42215H3.21112V4.21104H5.42223V6.42215ZM7.63333 19.6888H9.84444V17.4777H7.63333V19.6888ZM9.84444 15.2667H7.63333V13.0556H9.84444V15.2667ZM7.63333 10.8445H9.84444V8.63334H7.63333V10.8445ZM9.84444 6.42215H7.63333V4.21104H9.84444V6.42215ZM12.0555 19.6889H19.7944C20.4025 19.6889 20.9 19.1914 20.9 18.5833V9.7389C20.9 9.13084 20.4025 8.63334 19.7944 8.63334H12.0555V10.8445H14.2667V13.0556H12.0555V15.2667H14.2667V17.4778H12.0555V19.6889ZM18.6889 10.8444H16.4778V13.0555H18.6889V10.8444ZM16.4778 15.2666H18.6889V17.4777H16.4778V15.2666Z" fill="#0022CD"/>
</svg>
