<svg width="24" height="24" viewBox="0 0 24 24" fill="none" xmlns="http://www.w3.org/2000/svg">
    <path fill-rule="evenodd" clip-rule="evenodd" d="M14.8084 8.87461L19.6484 9.29461C20.5284 9.36461 20.8784 10.4646 20.2084 11.0446L16.5384 14.2246L17.6384 18.9546C17.8384 19.8146 16.9084 20.4946 16.1484 20.0346L11.9984 17.5246L7.84836 20.0246C7.08836 20.4846 6.15836 19.8046 6.35836 18.9446L7.45836 14.2246L3.78836 11.0446C3.11836 10.4646 3.47836 9.36461 4.35836 9.29461L9.18836 8.88461L11.0784 4.42461C11.4184 3.61461 12.5784 3.61461 12.9184 4.42461L14.8084 8.87461ZM8.23836 17.9246L11.9984 15.6546L15.7684 17.9346L14.7684 13.6546L18.0884 10.7746L13.7084 10.3946L11.9984 6.35461L10.2984 10.3846L5.91836 10.7646L9.23836 13.6446L8.23836 17.9246Z" fill="#0022CD"/>
</svg>
