<svg width="24" height="24" viewBox="0 0 24 24" fill="none" xmlns="http://www.w3.org/2000/svg">
    <path d="M16.6464 16.9512L18.0864 15.5112L13.2064 10.6312L9.91635 13.9212C9.52635 14.3112 8.89635 14.3112 8.50635 13.9212L2.50635 7.91118C2.3191 7.72435 2.21387 7.4707 2.21387 7.20618C2.21387 6.94166 2.3191 6.68801 2.50635 6.50118C2.89635 6.11118 3.52635 6.11118 3.91635 6.50118L9.20635 11.8012L12.4964 8.51118C12.8864 8.12118 13.5164 8.12118 13.9064 8.51118L19.4964 14.0912L20.9364 12.6512C21.2464 12.3412 21.7864 12.5612 21.7864 13.0012V17.2912C21.7864 17.5712 21.5664 17.7912 21.2864 17.7912H16.9964C16.5564 17.8012 16.3364 17.2612 16.6464 16.9512Z" fill="#133DBD"/>
</svg>
