<svg width="24" height="24" viewBox="0 0 24 24" fill="none" xmlns="http://www.w3.org/2000/svg">
    <path fill-rule="evenodd" clip-rule="evenodd" d="M8.4302 13.445L18.3602 3.51499C19.1402 2.73499 20.4002 2.73499 21.1902 3.51499L22.5902 4.91499C23.3702 5.69499 23.3702 6.96499 22.5902 7.74499L9.8402 20.485C9.0602 21.265 7.7902 21.265 7.0102 20.485L1.4102 14.885C0.630195 14.105 0.630195 12.835 1.4102 12.055L2.8102 10.655C3.5902 9.87499 4.8602 9.87499 5.6402 10.655L8.4302 13.445ZM20.4702 7.03499C20.8602 6.64499 20.8602 6.02499 20.4702 5.63499C20.0802 5.24499 19.4602 5.24499 19.0702 5.63499L8.43019 16.275L4.9302 12.775C4.5402 12.385 3.9202 12.385 3.5302 12.775C3.34305 12.9598 3.23771 13.2119 3.23771 13.475C3.23771 13.738 3.34305 13.9901 3.5302 14.175L7.7302 18.375C8.1202 18.765 8.7402 18.765 9.1302 18.375L20.4702 7.03499Z" fill="#0022CD"/>
</svg>
