<svg width="56" height="56" viewBox="0 0 56 56" fill="none" xmlns="http://www.w3.org/2000/svg">
    <g filter="url(#filter0_d_5356_177757)">
        <rect x="8" y="6" width="40" height="40" rx="20" fill="white"/>
        <path d="M27.9621 19.6424V16.8524C27.9621 16.4024 27.4221 16.1824 27.1121 16.5024L23.3121 20.2924C23.1121 20.4924 23.1121 20.8024 23.3121 21.0024L27.1021 24.7924C27.4221 25.1024 27.9621 24.8824 27.9621 24.4324V21.6424C31.6921 21.6424 34.6421 25.0624 33.8221 28.9324C33.3521 31.2024 31.5121 33.0324 29.2521 33.5024C25.6821 34.2524 22.5021 31.8024 22.0221 28.4924C21.9521 28.0124 21.5321 27.6424 21.0421 27.6424C20.4421 27.6424 19.9621 28.1724 20.0421 28.7724C20.6621 33.1624 24.8421 36.4124 29.5721 35.4924C32.6921 34.8824 35.2021 32.3724 35.8121 29.2524C36.8021 24.1224 32.9021 19.6424 27.9621 19.6424Z" fill="#0022cd"/>
        <rect x="8.5" y="6.5" width="39" height="39" rx="19.5" stroke="#C4D3E4"/>
    </g>
    <defs>
        <filter id="filter0_d_5356_177757" x="0" y="0" width="56" height="56" filterUnits="userSpaceOnUse" color-interpolation-filters="sRGB">
            <feFlood flood-opacity="0" result="BackgroundImageFix"/>
            <feColorMatrix in="SourceAlpha" type="matrix" values="0 0 0 0 0 0 0 0 0 0 0 0 0 0 0 0 0 0 127 0" result="hardAlpha"/>
            <feOffset dy="2"/>
            <feGaussianBlur stdDeviation="4"/>
            <feColorMatrix type="matrix" values="0 0 0 0 0 0 0 0 0 0.0714722 0 0 0 0 0.152474 0 0 0 0.2 0"/>
            <feBlend mode="normal" in2="BackgroundImageFix" result="effect1_dropShadow_5356_177757"/>
            <feBlend mode="normal" in="SourceGraphic" in2="effect1_dropShadow_5356_177757" result="shape"/>
        </filter>
    </defs>
</svg>
