<svg width="24" height="24" viewBox="0 0 24 24" fill="none" xmlns="http://www.w3.org/2000/svg">
    <path d="M11.9619 5.64249V2.85249C11.9619 2.40249 11.4219 2.18249 11.1119 2.50249L7.31194 6.29249C7.11194 6.49249 7.11194 6.80249 7.31194 7.00249L11.1019 10.7925C11.4219 11.1025 11.9619 10.8825 11.9619 10.4325V7.64249C15.6919 7.64249 18.6419 11.0625 17.8219 14.9325C17.3519 17.2025 15.5119 19.0325 13.2519 19.5025C9.68194 20.2525 6.50194 17.8025 6.02194 14.4925C5.95194 14.0125 5.53194 13.6425 5.04194 13.6425C4.44194 13.6425 3.96194 14.1725 4.04194 14.7725C4.66194 19.1625 8.84194 22.4125 13.5719 21.4925C16.6919 20.8825 19.2019 18.3725 19.8119 15.2525C20.8019 10.1225 16.9019 5.64249 11.9619 5.64249Z" fill="#0022CD"/>
</svg>
