<svg width="24" height="24" viewBox="0 0 24 24" fill="none" xmlns="http://www.w3.org/2000/svg">
    <rect x="4.24463" y="5.68402" width="1.98492" height="7.9397" rx="0.992462" transform="rotate(-45 4.24463 5.68402)" fill="#0022CD"/>
    <rect x="12.666" y="14.1053" width="1.98492" height="7.9397" rx="0.992462" transform="rotate(-45 12.666 14.1053)" fill="#0022CD"/>
    <rect x="5.64844" y="19.7195" width="1.98492" height="7.9397" rx="0.992462" transform="rotate(-135 5.64844 19.7195)" fill="#0022CD"/>
    <rect x="14.0693" y="11.2982" width="1.98492" height="7.9397" rx="0.992462" transform="rotate(-135 14.0693 11.2982)" fill="#0022CD"/>
    <rect x="2.03955" y="12.9926" width="1.98492" height="5.43526" rx="0.992462" transform="rotate(-90 2.03955 12.9926)" fill="#0022CD"/>
    <rect x="16.4473" y="12.9926" width="1.98492" height="5.44156" rx="0.992462" transform="rotate(-90 16.4473 12.9926)" fill="#0022CD"/>
    <rect x="12.9565" y="21.9248" width="1.98492" height="5.43526" rx="0.992462" transform="rotate(180 12.9565 21.9248)" fill="#0022CD"/>
    <rect x="12.9565" y="7.51715" width="1.98492" height="5.44156" rx="0.992462" transform="rotate(180 12.9565 7.51715)" fill="#0022CD"/>
</svg>
