<svg width="90" height="84" viewBox="0 0 90 84" fill="none" xmlns="http://www.w3.org/2000/svg">
    <path d="M45.009 39H9.00903V44H45.009V39Z" fill="#EBF0F6"/>
    <path d="M33.009 61V68H42.009V44H12.009V61H33.009Z" fill="white"/>
    <path d="M36.009 34H31.009V39H36.009V34Z" fill="white"/>
    <path d="M20.009 48H12.009V55H20.009V48Z" fill="white"/>
    <path d="M33.009 51C30.809 51 29.009 52.8 29.009 55V61H33.109L33.009 68H37.009V55C37.009 52.8 35.209 51 33.009 51Z" fill="#315ED1"/>
    <path d="M76.009 79H14.009L1.00903 61H33.009V68H80.009L76.009 79Z" fill="white"/>
    <path d="M80.809 67.4C80.609 67.1 80.309 67 80.009 67H43.009V45H45.009C45.609 45 46.009 44.6 46.009 44V39C46.009 38.4 45.609 38 45.009 38H37.009V34C37.009 33.4 36.609 33 36.009 33H31.009C30.409 33 30.009 33.4 30.009 34V38H9.00902C8.40902 38 8.00902 38.4 8.00902 39V44C8.00902 44.6 8.40902 45 9.00902 45H11.009V48V54.4L0.509017 60.1C0.309017 60.2 0.209017 60.3 0.109017 60.5C-0.0909831 60.8 0.00901724 61.2 0.209017 61.5L13.209 79.5C13.409 79.8 13.709 79.9 14.009 79.9H76.009C76.409 79.9 76.809 79.6 76.909 79.2L80.909 68.2C81.009 68 81.009 67.7 80.809 67.4ZM32.009 35H35.009V38H32.009V35ZM10.009 40H31.009H36.009H44.009V43H42.009H12.009H10.009V40ZM41.009 45V67H38.009V55C38.009 52.2 35.809 50 33.009 50C30.209 50 28.009 52.2 28.009 55V60H13.009V56H20.009C20.609 56 21.009 55.6 21.009 55V48C21.009 47.4 20.609 47 20.009 47H13.009V45H41.009ZM34.009 61C34.009 60.7 33.909 60.5 33.709 60.3C33.509 60.1 33.309 60 33.009 60H29.909V55C29.909 53.3 31.209 52 32.909 52C34.609 52 35.909 53.3 35.909 55V67H33.909L34.009 61ZM4.90902 60L11.009 56.7V60H4.90902ZM13.009 49H19.009V54H13.009V49ZM75.309 78H14.509L2.90902 62H11.909H28.909H32.009L31.909 68C31.909 68.3 32.009 68.5 32.209 68.7C32.409 68.9 32.609 69 32.909 69H36.909H41.909H78.509L75.309 78Z" fill="#133DBD"/>
    <path d="M21.009 75C23.7705 75 26.009 72.7614 26.009 70C26.009 67.2386 23.7705 65 21.009 65C18.2476 65 16.009 67.2386 16.009 70C16.009 72.7614 18.2476 75 21.009 75Z" fill="white"/>
    <path d="M21.009 76.5C18.309 76.5 15.809 74.8 14.909 72.3L17.709 71.3C18.209 72.7 19.509 73.6 21.009 73.6C21.109 73.6 21.209 73.6 21.309 73.6L21.009 75V76.5ZM23.209 76.1L22.209 73.3C23.609 72.8 24.509 71.5 24.509 70L27.509 69.9V70C27.509 72.7 25.809 75.2 23.209 76.1ZM14.709 70H14.509C14.509 67.3 16.209 64.8 18.709 63.9L19.709 66.7C18.309 67.2 17.409 68.5 17.409 70H14.709ZM24.209 68.8C23.709 67.4 22.409 66.5 20.909 66.5V63.5C23.609 63.5 26.009 65.2 27.009 67.7L24.209 68.8Z" fill="#315ED1"/>
    <path d="M39.109 80C39.109 80 40.609 77.9 41.909 77.3C47.209 74.7 53.809 75.6 58.409 76.9C60.309 77.5 69.309 82.1 69.309 82.1L39.109 80Z" fill="#C4D3E4"/>
    <path d="M88.5001 75.5C88.5001 78 83.909 80.6 82.709 81C77.809 82.8 70.309 81.7 66.209 80.4C64.409 79.9 58.5001 77.0001 58.5001 77.0001C58.5001 77.0001 83.5001 77.5 88.5001 75.5Z" fill="white"/>
    <path d="M76.409 83.1C72.509 83.1 67.609 82.1 61.409 79.3C47.509 73 40.009 79.5 39.609 79.7C39.209 80.1 38.609 80 38.209 79.6C37.809 79.2 37.909 78.6 38.309 78.2C38.709 77.9 47.109 70.6 62.209 77.4C82.309 86.5 88.009 75.6 88.109 75.5C88.309 75 88.909 74.8 89.409 75.1C89.909 75.3 90.109 75.9 89.809 76.4C89.809 76.5 86.409 83.1 76.409 83.1Z" fill="#133DBD"/>
    <path d="M38.009 20C40.2182 20 42.009 18.2091 42.009 16C42.009 13.7909 40.2182 12 38.009 12C35.7999 12 34.009 13.7909 34.009 16C34.009 18.2091 35.7999 20 38.009 20Z" fill="#C4D3E4"/>
    <path d="M49.009 14C52.875 14 56.009 10.866 56.009 7C56.009 3.13401 52.875 0 49.009 0C45.143 0 42.009 3.13401 42.009 7C42.009 10.866 45.143 14 49.009 14Z" fill="#C4D3E4"/>
    <path d="M68.009 18C70.2182 18 72.009 16.2091 72.009 14C72.009 11.7909 70.2182 10 68.009 10C65.7999 10 64.009 11.7909 64.009 14C64.009 16.2091 65.7999 18 68.009 18Z" fill="#C4D3E4"/>
</svg>
