<svg width="57" height="78" viewBox="0 0 57 78" fill="none" xmlns="http://www.w3.org/2000/svg">
    <g clip-path="url(#clip0_1_5583)">
        <path d="M53.6 15.2001H3V34.0001H53.6V15.2001Z" fill="white"/>
        <path d="M50.6 1H6L3 15H53.6L50.6 1Z" fill="white"/>
        <path d="M53.6 34.2001H3L1 46.0001H55.6L53.6 34.2001Z" fill="#315ED1"/>
        <path d="M39 46H3V65H39V46Z" fill="#C4D3E4"/>
        <path d="M39.1 65H3V77H39.1V65Z" fill="white"/>
        <path d="M53.6 46.2001H39.1V77.0001H53.6V46.2001Z" fill="white"/>
        <path d="M53.6 73H39.1V77H53.6V73Z" fill="white"/>
        <path d="M13.1 74H7.09998C6.49998 74 6.09998 73.6 6.09998 73V69C6.09998 68.4 6.49998 68 7.09998 68H13.1C13.7 68 14.1 68.4 14.1 69V73C14.1 73.6 13.6 74 13.1 74ZM8.09998 72H12.1V70H8.09998V72Z" fill="#133DBD"/>
        <path d="M24.1 74H18.1C17.5 74 17.1 73.6 17.1 73V69C17.1 68.4 17.5 68 18.1 68H24.1C24.7 68 25.1 68.4 25.1 69V73C25.1 73.6 24.6 74 24.1 74ZM19.1 72H23.1V70H19.1V72Z" fill="#133DBD"/>
        <path d="M35.1 74H29.1C28.5 74 28.1 73.6 28.1 73V69C28.1 68.4 28.5 68 29.1 68H35.1C35.7 68 36.1 68.4 36.1 69V73C36.1 73.6 35.6 74 35.1 74ZM30.1 72H34.1V70H30.1V72Z" fill="#133DBD"/>
        <path d="M13.1 60C12.8 60 12.6 59.9 12.4 59.7L7.39998 54.7C6.99998 54.3 6.99998 53.7 7.39998 53.3C7.79998 52.9 8.39998 52.9 8.79998 53.3L13.8 58.3C14.2 58.7 14.2 59.3 13.8 59.7C13.6 59.9 13.3 60 13.1 60Z" fill="white"/>
        <path d="M9.59998 61.5C9.29998 61.5 9.09998 61.4 8.89998 61.2L6.39998 58.7C5.99998 58.3 5.99998 57.7 6.39998 57.3C6.79998 56.9 7.39998 56.9 7.79998 57.3L10.3 59.8C10.7 60.2 10.7 60.8 10.3 61.2C10.1 61.4 9.79998 61.5 9.59998 61.5Z" fill="white"/>
        <path d="M50 1H6L3 15H53.5L50 1Z" fill="#C4D3E4"/>
        <path d="M54.6 34V15.1V15C54.6 14.9 54.6 14.8 54.6 14.7L51.6 0.700024C51.5 0.200024 51.1 -0.0999756 50.6 -0.0999756H6C5.5 2.44156e-05 5.1 0.300024 5 0.800024L2 14.8C2 14.9 2 15 2 15.1V15.2V34L0 45.8C0 46.1 0 46.4 0.2 46.6C0.4 46.9 0.7 47 1 47H2V65V77C2 77.6 2.4 78 3 78H39.1H53.6C54.2 78 54.6 77.6 54.6 77V73V47H55.6C55.9 47 56.2 46.9 56.4 46.6C56.6 46.4 56.7 46.1 56.6 45.8L54.6 34ZM4.8 11.3C4.8 11.3 4.9 11.3 4.8 11.3H51.5C51.6 11.3 51.6 11.3 51.7 11.3L52.3 14.1H4.2L4.8 11.3ZM51.3 9.30002H5.2L5.8 6.30002H50.6L51.3 9.30002ZM4 33V16.2H52.6V33H4ZM12.8 35.2V45H8.9V35.2H12.8ZM14.8 35.2H18.7V45H14.8V35.2ZM20.7 35.2H24.6V45H20.7V35.2ZM26.5 35.2H30.4V45H26.5V35.2ZM32.4 35.2H36.3V45H32.4V35.2ZM38.2 35.2H42.1V45H38.2V35.2ZM44.1 35.2H48V45H44.1V35.2ZM3.8 35.2H6.9V45H2.2L3.8 35.2ZM49.9 45V35.2H52.7L54.4 45H49.9ZM49.8 2.00002L50.3 4.30002H6.3L6.8 2.00002H49.8ZM52.6 72H40.1V65V47.2H52.6V72ZM38.1 64H4V47.2H38.1V64ZM4 66H38.1V73V76H4V66ZM52.6 76H40.1V74H52.6V76Z" fill="#133DBD"/>
        <path d="M18.1 30H10.1V23C10.1 21.3 11.4 20 13.1 20H15.1C16.8 20 18.1 21.3 18.1 23V30Z" fill="#C4D3E4"/>
        <path d="M15.1 19H13.1C10.9 19 9.09998 20.8 9.09998 23V30C9.09998 30.6 9.49998 31 10.1 31H18.1C18.7 31 19.1 30.6 19.1 30V23C19.1 20.8 17.3 19 15.1 19ZM11.1 23C11.1 21.9 12 21 13.1 21V29H11.1V23ZM17.1 29H15.1V21C16.2 21 17.1 21.9 17.1 23V29Z" fill="#133DBD"/>
        <path d="M29.6 19H27.6C25.4 19 23.6 20.8 23.6 23V30C23.6 30.6 24 31 24.6 31H32.6C33.2 31 33.6 30.6 33.6 30V23C33.6 20.8 31.8 19 29.6 19ZM25.6 23C25.6 21.9 26.5 21 27.6 21V29H25.6V23ZM31.6 29H29.6V21C30.7 21 31.6 21.9 31.6 23V29Z" fill="#133DBD"/>
        <path d="M44.1 19H42.1C39.9 19 38.1 20.8 38.1 23V30C38.1 30.6 38.5 31 39.1 31H47.1C47.7 31 48.1 30.6 48.1 30V23C48.1 20.8 46.3 19 44.1 19ZM40.1 23C40.1 21.9 41 21 42.1 21V29H40.1V23ZM46.1 29H44.1V21C45.2 21 46.1 21.9 46.1 23V29Z" fill="#133DBD"/>
    </g>
    <defs>
        <clipPath id="clip0_1_5583">
            <rect width="56.6" height="78" fill="white"/>
        </clipPath>
    </defs>
</svg>
