<svg width="48" height="39" viewBox="0 0 48 39" fill="none" xmlns="http://www.w3.org/2000/svg">
    <path d="M7.68457 11.8249V37.8249H41.0746V12.8249L24.0046 1.06494L7.68457 11.8249Z" fill="white"/>
    <path d="M7.86458 29.355C9.9964 29.355 11.7246 27.6268 11.7246 25.495C11.7246 23.3632 9.9964 21.635 7.86458 21.635C5.73276 21.635 4.00458 23.3632 4.00458 25.495C4.00458 27.6268 5.73276 29.355 7.86458 29.355Z" fill="white"/>
    <path d="M7.86458 37.9949C9.9964 37.9949 11.7246 36.2667 11.7246 34.1349C11.7246 32.0031 9.9964 30.2749 7.86458 30.2749C5.73276 30.2749 4.00458 32.0031 4.00458 34.1349C4.00458 36.2667 5.73276 37.9949 7.86458 37.9949Z" fill="white"/>
    <path d="M39.8645 29.355C41.9963 29.355 43.7245 27.6268 43.7245 25.495C43.7245 23.3632 41.9963 21.635 39.8645 21.635C37.7327 21.635 36.0045 23.3632 36.0045 25.495C36.0045 27.6268 37.7327 29.355 39.8645 29.355Z" fill="white"/>
    <path d="M39.8645 37.9949C41.9963 37.9949 43.7245 36.2667 43.7245 34.1349C43.7245 32.0031 41.9963 30.2749 39.8645 30.2749C37.7327 30.2749 36.0045 32.0031 36.0045 34.1349C36.0045 36.2667 37.7327 37.9949 39.8645 37.9949Z" fill="white"/>
    <path d="M7.86458 20.7149C9.9964 20.7149 11.7246 18.9867 11.7246 16.8549C11.7246 14.7231 9.9964 12.9949 7.86458 12.9949C5.73276 12.9949 4.00458 14.7231 4.00458 16.8549C4.00458 18.9867 5.73276 20.7149 7.86458 20.7149Z" fill="white"/>
    <path d="M39.8645 20.7149C41.9963 20.7149 43.7245 18.9867 43.7245 16.8549C43.7245 14.7231 41.9963 12.9949 39.8645 12.9949C37.7327 12.9949 36.0045 14.7231 36.0045 16.8549C36.0045 18.9867 37.7327 20.7149 39.8645 20.7149Z" fill="white"/>
    <path d="M24.0046 13.9949C25.6615 13.9949 27.0046 12.6517 27.0046 10.9949C27.0046 9.33802 25.6615 7.99487 24.0046 7.99487C22.3478 7.99487 21.0046 9.33802 21.0046 10.9949C21.0046 12.6517 22.3478 13.9949 24.0046 13.9949Z" fill="white"/>
    <path d="M30.0046 19.9949H18.0046V36.9949H30.0046V19.9949Z" fill="#315ED1"/>
    <path d="M27.0046 31.9949C26.4546 31.9949 26.0046 31.5449 26.0046 30.9949V28.9949C26.0046 28.4449 26.4546 27.9949 27.0046 27.9949C27.5546 27.9949 28.0046 28.4449 28.0046 28.9949V30.9949C28.0046 31.5449 27.5546 31.9949 27.0046 31.9949Z" fill="#133DBD"/>
    <path d="M47.5546 15.465L24.5546 0.165C24.2146 -0.055 23.7846 -0.055 23.4446 0.165L0.444557 15.465C-0.0154426 15.775 -0.135441 16.395 0.164559 16.855C0.474559 17.315 1.09456 17.435 1.55456 17.135L3.07456 16.125C3.03456 16.365 3.00456 16.615 3.00456 16.865C3.00456 18.755 4.10456 20.385 5.68456 21.185C4.10456 21.985 3.00456 23.615 3.00456 25.505C3.00456 27.395 4.10456 29.025 5.68456 29.825C4.10456 30.625 3.00456 32.255 3.00456 34.145C3.00456 36.825 5.18456 39.005 7.86456 39.005C8.28456 39.005 8.69456 38.935 9.08456 38.835H38.6446C39.0346 38.935 39.4446 39.005 39.8646 39.005C42.5446 39.005 44.7246 36.825 44.7246 34.145C44.7246 32.255 43.6246 30.625 42.0446 29.825C43.6246 29.025 44.7246 27.395 44.7246 25.505C44.7246 23.615 43.6246 21.985 42.0446 21.185C43.6246 20.385 44.7246 18.755 44.7246 16.865C44.7246 16.545 44.6846 16.225 44.6246 15.925L46.4546 17.135C46.6246 17.245 46.8146 17.305 47.0046 17.305C47.3246 17.305 47.6446 17.145 47.8346 16.855C48.1446 16.385 48.0146 15.765 47.5546 15.465ZM24.0046 8.995C25.1046 8.995 26.0046 9.895 26.0046 10.995C26.0046 12.095 25.1046 12.995 24.0046 12.995C22.9046 12.995 22.0046 12.095 22.0046 10.995C22.0046 9.895 22.9046 8.995 24.0046 8.995ZM25.0046 7.135V2.855L37.0746 10.885H27.9946C27.9446 9.075 26.6946 7.575 25.0046 7.135ZM23.0046 2.865V7.145C21.3246 7.585 20.0646 9.085 20.0146 10.895H10.9346L23.0046 2.865ZM7.86456 36.995C6.28456 36.995 5.00456 35.715 5.00456 34.135C5.00456 32.555 6.28456 31.275 7.86456 31.275C9.44456 31.275 10.7246 32.555 10.7246 34.135C10.7246 35.715 9.43456 36.995 7.86456 36.995ZM7.86456 28.355C6.28456 28.355 5.00456 27.075 5.00456 25.495C5.00456 23.915 6.28456 22.635 7.86456 22.635C9.44456 22.635 10.7246 23.915 10.7246 25.495C10.7246 27.075 9.43456 28.355 7.86456 28.355ZM7.86456 19.715C6.28456 19.715 5.00456 18.435 5.00456 16.855C5.00456 15.275 6.28456 13.995 7.86456 13.995C9.44456 13.995 10.7246 15.275 10.7246 16.855C10.7246 18.425 9.43456 19.715 7.86456 19.715ZM17.0046 36.825H11.9046C12.4146 36.055 12.7146 35.135 12.7146 34.145C12.7146 32.945 12.2646 31.845 11.5346 31.005H16.9946V36.825H17.0046ZM17.0046 28.995H11.1946C12.1246 28.115 12.7146 26.875 12.7146 25.495C12.7146 24.135 12.1446 22.915 11.2346 22.035H17.0046V28.995ZM29.0046 35.995H19.0046V20.995H29.0046V35.995ZM30.0046 18.995H18.0046C17.4546 18.995 17.0046 19.445 17.0046 19.995V20.035H11.5046C12.2546 19.185 12.7246 18.075 12.7246 16.855C12.7246 15.205 11.8946 13.765 10.6346 12.895H20.5046C21.1846 14.145 22.4846 15.005 24.0046 15.005C25.5246 15.005 26.8246 14.145 27.5046 12.895H37.0846C35.8346 13.775 35.0046 15.215 35.0046 16.855C35.0046 18.085 35.4746 19.185 36.2246 20.035H31.0046V19.995C31.0046 19.445 30.5546 18.995 30.0046 18.995ZM35.8246 36.825H31.0146V30.995H36.1946C35.4646 31.835 35.0146 32.935 35.0146 34.135C35.0046 35.135 35.3046 36.055 35.8246 36.825ZM31.0046 28.995V22.035H36.4846C35.5746 22.915 35.0046 24.135 35.0046 25.495C35.0046 26.875 35.5946 28.115 36.5346 28.995H31.0046ZM42.7246 34.135C42.7246 35.715 41.4446 36.995 39.8646 36.995C38.2846 36.995 37.0046 35.715 37.0046 34.135C37.0046 32.555 38.2846 31.275 39.8646 31.275C41.4346 31.275 42.7246 32.565 42.7246 34.135ZM42.7246 25.495C42.7246 27.075 41.4446 28.355 39.8646 28.355C38.2846 28.355 37.0046 27.075 37.0046 25.495C37.0046 23.915 38.2846 22.635 39.8646 22.635C41.4346 22.635 42.7246 23.925 42.7246 25.495ZM39.8646 19.715C38.2846 19.715 37.0046 18.435 37.0046 16.855C37.0046 15.275 38.2846 13.995 39.8646 13.995C41.4446 13.995 42.7246 15.275 42.7246 16.855C42.7246 18.425 41.4346 19.715 39.8646 19.715Z" fill="#133DBD"/>
</svg>
