<svg width="21" height="32" viewBox="0 0 21 32" fill="none" xmlns="http://www.w3.org/2000/svg">
    <path d="M10.2 19.4C15.281 19.4 19.4 15.281 19.4 10.2C19.4 5.11898 15.281 1 10.2 1C5.11898 1 1 5.11898 1 10.2C1 15.281 5.11898 19.4 10.2 19.4Z" fill="white"/>
    <path d="M20.4 10.2C20.4 4.6 15.8 0 10.2 0C4.6 0 0 4.6 0 10.2C0 15.5 4.1 19.8 9.2 20.3V30.4C9.2 30.9 9.6 31.4 10.2 31.4C10.8 31.4 11.2 31 11.2 30.4V20.3C16.3 19.8 20.4 15.5 20.4 10.2ZM10.2 18.4C5.7 18.4 2 14.7 2 10.2C2 5.7 5.7 2 10.2 2C14.7 2 18.4 5.7 18.4 10.2C18.4 14.7 14.7 18.4 10.2 18.4Z" fill="#0022CD"/>
</svg>
