<svg width="32" height="32" viewBox="0 0 32 32" fill="none" xmlns="http://www.w3.org/2000/svg">
    <path d="M16 32C24.8366 32 32 24.8366 32 16C32 7.16344 24.8366 0 16 0C7.16344 0 0 7.16344 0 16C0 24.8366 7.16344 32 16 32Z" fill="white"/>
    <path d="M19.6759 8.41877C19.4084 8.15067 19.0452 8 18.6665 8C18.2878 8 17.9246 8.15067 17.6571 8.41877L11.0853 14.9906C10.5269 15.549 10.5269 16.451 11.0853 17.0094L17.6571 23.5812C18.2155 24.1396 19.1175 24.1396 19.6759 23.5812C20.2343 23.0228 20.2343 22.1208 19.6759 21.5624L14.1206 15.9928L19.6759 10.4376C20.2343 9.87918 20.22 8.96284 19.6759 8.41877Z" fill="#3D6CA9"/>
</svg>
