<svg width="32" height="32" viewBox="0 0 32 32" fill="none" xmlns="http://www.w3.org/2000/svg">
    <path d="M16 32C24.8366 32 32 24.8366 32 16C32 7.16344 24.8366 0 16 0C7.16344 0 0 7.16344 0 16C0 24.8366 7.16344 32 16 32Z" fill="white"/>
    <path d="M12.4191 8.42093C11.8603 8.97975 11.8603 9.88247 12.4191 10.4413L17.9787 16.0009L12.4191 21.5605C11.8603 22.1193 11.8603 23.0221 12.4191 23.5809C12.9779 24.1397 13.8807 24.1397 14.4395 23.5809L21.0164 17.0039C21.5753 16.4451 21.5753 15.5424 21.0164 14.9836L14.4395 8.4066C13.895 7.8621 12.9779 7.8621 12.4191 8.42093Z" fill="#3D6CA9"/>
</svg>
