<svg width="32" height="32" viewBox="0 0 32 32" fill="none" xmlns="http://www.w3.org/2000/svg">
    <path d="M16 32C24.8366 32 32 24.8366 32 16C32 7.16344 24.8366 0 16 0C7.16344 0 0 7.16344 0 16C0 24.8366 7.16344 32 16 32Z" fill="white"/>
    <path fill-rule="evenodd" clip-rule="evenodd" d="M16.0003 10.8283C17.6136 8.93996 20.6019 8.16996 23.0219 9.81996C24.3053 10.7 25.1119 12.185 25.1669 13.7433C25.2861 17.3 22.1419 20.1508 17.3294 24.5141L17.2286 24.6058C16.5319 25.2475 15.4594 25.2475 14.7628 24.615L14.6711 24.5325L14.6157 24.4822C9.83444 20.1381 6.70577 17.2955 6.83361 13.7525C6.88861 12.185 7.69528 10.7 8.97861 9.81996C11.3986 8.1608 14.3869 8.93996 16.0003 10.8283ZM16.0003 23.2583L16.0919 23.1666C20.4553 19.2158 23.3336 16.6033 23.3336 13.9541C23.3336 12.1208 21.9586 10.7458 20.1253 10.7458C18.7136 10.7458 17.3386 11.6533 16.8619 12.9091H15.1478C14.6619 11.6533 13.2869 10.7458 11.8753 10.7458C10.0419 10.7458 8.66694 12.1208 8.66694 13.9541C8.66694 16.6033 11.5453 19.2158 15.9086 23.1666L16.0003 23.2583Z" fill="#3D6CA9"/>
</svg>
