<svg width="32" height="32" viewBox="0 0 32 32" fill="none" xmlns="http://www.w3.org/2000/svg">
    <path d="M16 32C24.8366 32 32 24.8366 32 16C32 7.16344 24.8366 0 16 0C7.16344 0 0 7.16344 0 16C0 24.8366 7.16344 32 16 32Z" fill="white"/>
    <path fill-rule="evenodd" clip-rule="evenodd" d="M10 14C8.9 14 8 14.9 8 16C8 17.1 8.9 18 10 18C11.1 18 12 17.1 12 16C12 14.9 11.1 14 10 14ZM22 14C20.9 14 20 14.9 20 16C20 17.1 20.9 18 22 18C23.1 18 24 17.1 24 16C24 14.9 23.1 14 22 14ZM14 16C14 14.9 14.9 14 16 14C17.1 14 18 14.9 18 16C18 17.1 17.1 18 16 18C14.9 18 14 17.1 14 16Z" fill="#3D6CA9"/>
</svg>
