<svg width="104" height="104" viewBox="0 0 104 104" fill="none" xmlns="http://www.w3.org/2000/svg">
    <path d="M82.725 84.7087L82.432 84.4151H82.0172H81.0039C83.0261 81.6609 84.2178 78.2658 84.2178 74.6089C84.2178 65.4357 76.7821 58 67.6089 58C58.4357 58 51 65.4357 51 74.6089C51 83.7821 58.4357 91.2178 67.6089 91.2178C71.2658 91.2178 74.6609 90.0261 77.4151 88.0039V89.0172V89.432L77.7087 89.725L89.7156 101.708L90.4227 102.414L91.1291 101.707L94.7071 98.1291L95.4135 97.4227L94.7078 96.7156L82.725 84.7087ZM67.6089 82.8595C65.0932 82.8595 63.0454 82.0052 61.629 80.5888C60.2126 79.1724 59.3583 77.1246 59.3583 74.6089C59.3583 72.1012 60.234 70.0524 61.6662 68.6319C63.0995 67.2102 65.1506 66.3583 67.6089 66.3583C72.4426 66.3583 75.8332 69.7662 75.8596 74.6144C75.8858 79.4438 72.4529 82.8595 67.6089 82.8595Z" fill="#315ED1" stroke="#133DBD" stroke-width="2"/>
    <circle cx="67.5" cy="74.5" r="11.5" fill="white" stroke="#133DBD" stroke-width="2"/>
    <path d="M62.2568 79.7406C62.4274 79.9137 62.6523 80 62.876 80C63.0998 80 63.3247 79.9137 63.4953 79.7406L67.5 75.6907L71.5047 79.7406C71.6753 79.9137 71.9002 80 72.124 80C72.3477 80 72.5726 79.9137 72.7432 79.7406C73.0856 79.395 73.0856 78.8344 72.7432 78.4881L68.7385 74.4382L72.6202 70.5126C72.9626 70.1664 72.9626 69.6058 72.6202 69.2602C72.2785 68.9133 71.7235 68.9133 71.3817 69.2602L67.5 73.1857L63.6183 69.2602C63.2765 68.9133 62.7215 68.9133 62.3798 69.2602C62.0374 69.6058 62.0374 70.1664 62.3798 70.5126L66.2615 74.4382L62.2568 78.4881C61.9144 78.8344 61.9144 79.395 62.2568 79.7406Z" fill="#133DBD"/>
    <path d="M51.9698 24.4761L75.5457 45.7947H72.251C71.6382 45.7947 71.1388 46.2926 71.1388 46.9069V52.6819C71.1388 53.2947 71.6368 53.7941 72.251 53.7941C72.8652 53.7941 73.3632 53.296 73.3632 52.6819V48.0191H78.4333C79.0461 48.0191 79.5454 47.5212 79.5454 46.9069C79.5454 46.5918 79.4111 46.2927 79.1793 46.0818L79.179 46.0815L52.6976 22.1358C52.487 21.9448 52.2181 21.85 51.9518 21.85C51.6774 21.85 51.4001 21.9502 51.1877 22.1526C51.1876 22.1527 51.1875 22.1528 51.1875 22.1529L25.2114 46.7408C25.2113 46.7408 25.2113 46.7408 25.2113 46.7408C24.8772 47.0554 24.772 47.5346 24.9424 47.9596C25.1105 48.3863 25.517 48.6605 25.975 48.6605H32.0435V75.2547C32.0435 75.8675 32.5426 76.3681 33.1569 76.3681H44.7426L44.743 76.3681C45.3571 76.3667 45.8548 75.8674 45.8548 75.2534C45.8548 74.6406 45.3569 74.1412 44.7426 74.1412H34.2691V47.5471C34.2691 46.9343 33.7712 46.4349 33.1569 46.4349H28.7675L51.9698 24.4761Z" fill="#133DBD" stroke="#133DBD" stroke-width="0.3"/>
    <path d="M98.3766 70.3594C100.71 64.6406 102 58.436 102 52C102 24.3858 79.6142 2 52 2C24.3858 2 2 24.3858 2 52C2 79.6142 24.3858 102 52 102C53.8452 102 55.6701 101.895 57.4688 101.689" stroke="#C4D3E4" stroke-width="2.5"/>
</svg>
