<svg width="67" height="68" viewBox="0 0 67 68" fill="none" xmlns="http://www.w3.org/2000/svg">
    <path d="M53.8276 54.4513L53.6078 54.2311H53.2967H52.8544C54.0928 52.4741 54.8186 50.3339 54.8186 48.0343C54.8186 42.0781 49.9905 37.25 44.0343 37.25C38.0781 37.25 33.25 42.0781 33.25 48.0343C33.25 53.9905 38.0781 58.8186 44.0343 58.8186C46.3339 58.8186 48.4741 58.0928 50.2311 56.8544V57.2967V57.6078L50.4513 57.8276L58.17 65.5309L58.7004 66.0601L59.2302 65.5303L61.5303 63.2302L62.0601 62.7004L61.5309 62.17L53.8276 54.4513ZM44.0343 53.2311C42.4421 53.2311 41.154 52.6909 40.2659 51.8028C39.3777 50.9146 38.8375 49.6266 38.8375 48.0343C38.8375 46.4481 39.3909 45.1592 40.2894 44.268C41.1889 43.3759 42.4793 42.8375 44.0343 42.8375C47.082 42.8375 49.2145 44.9799 49.2311 48.0384C49.2477 51.0828 47.0896 53.2311 44.0343 53.2311Z" fill="#315ED1" stroke="#133DBD" stroke-width="1.5"/>
    <path d="M33.4812 15.681L48.6684 29.414H46.6632C46.2359 29.414 45.8877 29.7611 45.8877 30.1895V33.9432C45.8877 34.3705 46.2349 34.7186 46.6632 34.7186C47.0914 34.7186 47.4386 34.3714 47.4386 33.9432V30.9649H50.6816C51.1089 30.9649 51.457 30.6178 51.457 30.1895C51.457 29.9697 51.3633 29.7612 51.2019 29.6144L51.2015 29.6141L33.9887 14.0494C33.8416 13.916 33.6541 13.85 33.4686 13.85C33.2777 13.85 33.0843 13.9197 32.9359 14.0611C32.9358 14.0612 32.9357 14.0613 32.9356 14.0614L16.0514 30.0433C15.8185 30.2625 15.7451 30.5968 15.8637 30.8931C15.981 31.1906 16.2647 31.3818 16.5837 31.3818H20.4758V48.6155C20.4758 49.0428 20.8237 49.3917 21.252 49.3917H28.7827L28.783 49.3917C29.2112 49.3908 29.5581 49.0428 29.5581 48.6147C29.5581 48.1875 29.211 47.8393 28.7827 47.8393H22.0274V30.6056C22.0274 30.1783 21.6803 29.8302 21.252 29.8302H18.5307L33.4812 15.681Z" fill="#133DBD" stroke="#133DBD" stroke-width="0.3"/>
    <path d="M63.6448 45.4336C65.1614 41.7164 66 37.6834 66 33.5C66 15.5507 51.4493 1 33.5 1C15.5507 1 1 15.5507 1 33.5C1 51.4493 15.5507 66 33.5 66C34.6994 66 35.8855 65.9314 37.0547 65.7981" stroke="#C4D3E4" stroke-width="2"/>
    <circle cx="44" cy="48" r="7.2" fill="white" stroke="#133DBD" stroke-width="1.6"/>
    <path d="M41.4778 51.1C41.3302 51.1 41.1815 51.043 41.0689 50.9288C40.8436 50.7013 40.8437 50.3328 41.069 50.105L43.1838 47.9663L41.136 45.8954C40.9108 45.6676 40.9107 45.2992 41.136 45.0716C41.3616 44.8428 41.7283 44.8428 41.9539 45.0716L41.9538 45.0716L41.8827 45.1419L41.9539 45.0717L44 47.1409L46.0461 45.0717C46.0461 45.0717 46.0461 45.0717 46.0461 45.0717C46.2717 44.8428 46.6384 44.8428 46.864 45.0716C47.0893 45.2991 47.0892 45.6676 46.8639 45.8954L44.8162 47.9663L46.931 50.105C47.1563 50.3328 47.1564 50.7013 46.9311 50.9288C46.931 50.9288 46.931 50.9289 46.931 50.9289L46.8599 50.8585C46.7669 50.953 46.6442 51 46.5222 51C46.4001 51 46.2774 50.953 46.1844 50.8585L41.4778 51.1ZM41.4778 51.1C41.6255 51.1 41.7742 51.043 41.8868 50.9288C41.8868 50.9288 41.8868 50.9287 41.8868 50.9287L44 48.7917L46.1131 50.9287L41.4778 51.1Z" fill="#133DBD" stroke="#133DBD" stroke-width="0.2"/>
</svg>
