<svg width="82" height="82" viewBox="0 0 82 82" fill="none" xmlns="http://www.w3.org/2000/svg">
    <circle cx="41" cy="41" r="40" fill="white"/>
    <path fill-rule="evenodd" clip-rule="evenodd" d="M41 2C19.4609 2 2 19.4609 2 41C2 62.5391 19.4609 80 41 80C43.9936 80 46.9072 79.6629 49.7054 79.025C50.2439 78.9023 50.7799 79.2393 50.9026 79.7777C51.0254 80.3162 50.6884 80.8522 50.1499 80.975C47.2069 81.6459 44.1442 82 41 82C18.3563 82 0 63.6437 0 41C0 18.3563 18.3563 0 41 0C63.6437 0 82 18.3563 82 41C82 45.482 81.2804 49.798 79.9498 53.8375C79.777 54.3621 79.2117 54.6472 78.6871 54.4744C78.1626 54.3016 77.8774 53.7363 78.0502 53.2118C79.3152 49.3716 80 45.2668 80 41C80 19.4609 62.5391 2 41 2Z" fill="#C4D3E4"/>
    <path fill-rule="evenodd" clip-rule="evenodd" d="M61.1472 48.5464C61.6717 48.5464 62.097 48.9716 62.097 49.4961V52.9784C62.097 53.5029 61.6717 53.9281 61.1472 53.9281C60.6227 53.9281 60.1975 53.5029 60.1975 52.9784V49.4961C60.1975 48.9716 60.6227 48.5464 61.1472 48.5464Z" fill="#0022CD"/>
    <path fill-rule="evenodd" clip-rule="evenodd" d="M47.2307 63.181C47.2236 62.6565 47.6431 62.2256 48.1675 62.2186L51.6495 62.1718C52.174 62.1648 52.6049 62.5843 52.6119 63.1087C52.619 63.6332 52.1995 64.0641 51.675 64.0711L48.193 64.1179C47.6686 64.1249 47.2377 63.7055 47.2307 63.181Z" fill="#0022CD"/>
    <path fill-rule="evenodd" clip-rule="evenodd" d="M51.0497 52.7058C51.4175 52.3319 52.0188 52.3268 52.3928 52.6946L54.8756 55.1364C55.2496 55.5042 55.2546 56.1055 54.8868 56.4795C54.519 56.8534 53.9177 56.8584 53.5437 56.4906L51.0609 54.0489C50.6869 53.6811 50.6819 53.0798 51.0497 52.7058Z" fill="#0022CD"/>
    <path fill-rule="evenodd" clip-rule="evenodd" d="M71.3303 52.7019C71.7003 53.0737 71.6989 53.675 71.3271 54.045L68.8587 56.5014C68.4869 56.8714 67.8856 56.8699 67.5156 56.4981C67.1456 56.1263 67.1471 55.525 67.5189 55.155L69.9872 52.6986C70.359 52.3287 70.9603 52.3301 71.3303 52.7019Z" fill="#0022CD"/>
    <path fill-rule="evenodd" clip-rule="evenodd" d="M55.5015 68.5306C55.8715 68.9024 55.87 69.5037 55.4982 69.8737L53.0299 72.3301C52.6581 72.7001 52.0567 72.6986 51.6868 72.3268C51.3168 71.955 51.3182 71.3537 51.69 70.9837L54.1584 68.5273C54.5301 68.1573 55.1315 68.1588 55.5015 68.5306Z" fill="#0022CD"/>
    <mask id="path-8-inside-1_1_2048" fill="white">
        <path d="M54.9661 23.8809C54.7221 19.944 52.8308 16.257 49.7803 13.8199C46.7908 11.4452 43.1303 10.5704 39.5307 11.1953C36.9073 11.6952 34.5889 13.0075 32.6976 15.0072L32.5146 15.1947L32.2706 15.1322C32.1486 15.1322 31.9655 15.1322 31.8435 15.1322C31.0504 15.1322 30.3183 15.3822 29.6472 15.8196C28.549 16.5695 27.7559 17.8818 27.5118 19.3816C27.2068 21.7562 27.8169 23.8809 29.3421 25.9431L29.5862 26.2556L29.2811 26.568C28.488 27.4429 28.0609 28.6302 28.0609 29.8175C28.0609 32.3797 30.0742 34.5044 32.5146 34.5668H32.8197L32.9417 34.8793C33.6738 36.629 34.833 38.1288 36.3582 39.1287L36.6022 39.2537V43.0656C36.6022 43.378 36.4802 43.6905 36.2362 43.9405C35.9922 44.2529 35.6871 44.3779 35.3821 44.3779C26.9627 44.6279 20.0077 51.6893 20.0077 60.438C19.9467 61.3754 20.2517 62.2503 20.8618 62.9377C21.4719 63.6251 22.387 64 23.3632 64H42.2151V55.3138L42.5202 55.1888C49.0482 52.7517 50.6954 48.6898 51.1225 47.0025L51.3665 46.94H51.1225L51.1835 46.6901C51.2445 46.4401 51.2445 46.1901 51.3055 45.8777C51.3665 45.5652 51.3665 45.2528 51.3665 45.0653V45.0028C51.3055 45.0028 51.1835 44.9403 51.0615 44.9403C50.8175 44.8778 50.5124 44.8153 50.1464 44.8153C49.4142 44.6903 48.6211 44.6903 48.072 44.6903C47.767 44.6903 47.4619 44.5029 47.2179 44.2529C46.9739 44.0029 46.8518 43.6905 46.8518 43.378V39.5036L47.0349 39.3786C48.5601 38.2538 49.7803 36.754 50.4514 35.0043L50.5734 34.7543L50.8175 34.6918C53.0748 34.3169 54.7831 32.2547 54.7831 29.9425C54.7831 29.8175 54.7831 29.6926 54.7831 29.5051C54.7831 29.3176 54.7221 29.1926 54.7221 29.0052L54.7831 28.1928C55.0271 26.7555 55.0271 25.3182 54.9661 23.8809ZM31.5995 32.9421C30.3183 32.3797 29.5251 31.1923 29.5251 29.8175C29.5251 29.0052 29.7692 28.3178 30.2573 27.7553L30.5623 27.3804L30.9284 27.6929C31.1114 27.8803 31.2944 28.0053 31.4774 28.1303L31.5385 28.1928C31.7215 28.3803 31.9045 28.5052 32.0875 28.6302L32.2096 28.7552V31.2548C32.2096 31.6298 32.2096 32.0047 32.2706 32.3172L32.3926 33.2545L31.5995 32.9421ZM32.3926 26.8805L31.9045 26.443C29.6472 24.4433 28.671 22.1312 28.9761 19.5066C29.0981 18.5067 29.6472 17.6318 30.3793 17.1319C30.9284 16.757 31.4774 16.632 32.0265 16.6945H32.2706L32.3926 16.8819C32.8197 17.5693 33.7348 18.8192 35.077 20.3189L35.321 20.5689L32.3926 26.8805ZM40.6899 62.3752H23.3632C22.265 62.3752 21.4109 61.5004 21.4109 60.3755C21.4109 54.0015 25.6205 48.3773 31.6605 46.6276L32.1486 46.5026L32.2706 47.0025C32.5146 48.1898 33.9178 52.3767 40.3238 54.9388L40.6289 55.0638V62.3752H40.6899ZM48.011 46.1901C48.3771 46.1901 48.7431 46.1901 49.1092 46.2526L49.5973 46.3776L49.4753 46.8775C49.2312 47.9399 47.95 51.5018 41.8491 53.814L41.666 53.8765L41.483 53.814C35.6871 51.6268 34.1619 48.2523 33.7958 46.8775L33.6128 46.2526H35.321C36.7243 46.2526 38.0665 44.8778 38.0665 43.3156V40.316L38.6766 40.5035C40.6899 41.1284 42.6422 41.1284 44.6555 40.5035L45.2656 40.316V43.3156C45.3266 44.8153 46.6078 46.1901 48.011 46.1901ZM49.6583 31.3173C49.6583 35.8167 46.0587 39.4411 41.727 39.4411C37.3344 39.4411 33.7958 35.7542 33.7958 31.3173L33.8568 27.6304L36.5412 21.8812L37.0293 22.3186C39.5307 24.6308 43.6793 27.6304 49.3532 28.6302L49.7803 28.6927V31.3173H49.6583ZM51.8546 32.5046L51.1225 33.0046V32.0672C51.1225 31.9422 51.1225 31.7548 51.1835 31.6298C51.1835 31.5048 51.1835 31.3798 51.1835 31.2548V28.8177H51.6716C51.8546 28.8177 52.0987 28.8177 52.2817 28.8802C52.4647 28.8802 52.5867 28.8802 52.7698 28.8802H53.2578V29.3801V29.4426C53.2578 29.5676 53.3188 29.6926 53.3188 29.8175C53.3188 30.9424 52.7698 31.9422 51.8546 32.5046ZM53.4409 27.3179H52.9528C42.1541 27.1929 35.6871 18.9441 33.9178 16.4445L33.6738 16.1321L33.9788 15.8196C35.5651 14.1948 37.4564 13.195 39.7137 12.7576C42.8862 12.1326 46.1197 12.945 48.6821 15.0697C51.3665 17.1944 53.0748 20.4439 53.3188 24.0059C53.3799 25.1932 53.3799 26.1931 53.3799 26.8805V27.3179H53.4409Z"/>
    </mask>
    <path d="M54.9661 23.8809C54.7221 19.944 52.8308 16.257 49.7803 13.8199C46.7908 11.4452 43.1303 10.5704 39.5307 11.1953C36.9073 11.6952 34.5889 13.0075 32.6976 15.0072L32.5146 15.1947L32.2706 15.1322C32.1486 15.1322 31.9655 15.1322 31.8435 15.1322C31.0504 15.1322 30.3183 15.3822 29.6472 15.8196C28.549 16.5695 27.7559 17.8818 27.5118 19.3816C27.2068 21.7562 27.8169 23.8809 29.3421 25.9431L29.5862 26.2556L29.2811 26.568C28.488 27.4429 28.0609 28.6302 28.0609 29.8175C28.0609 32.3797 30.0742 34.5044 32.5146 34.5668H32.8197L32.9417 34.8793C33.6738 36.629 34.833 38.1288 36.3582 39.1287L36.6022 39.2537V43.0656C36.6022 43.378 36.4802 43.6905 36.2362 43.9405C35.9922 44.2529 35.6871 44.3779 35.3821 44.3779C26.9627 44.6279 20.0077 51.6893 20.0077 60.438C19.9467 61.3754 20.2517 62.2503 20.8618 62.9377C21.4719 63.6251 22.387 64 23.3632 64H42.2151V55.3138L42.5202 55.1888C49.0482 52.7517 50.6954 48.6898 51.1225 47.0025L51.3665 46.94H51.1225L51.1835 46.6901C51.2445 46.4401 51.2445 46.1901 51.3055 45.8777C51.3665 45.5652 51.3665 45.2528 51.3665 45.0653V45.0028C51.3055 45.0028 51.1835 44.9403 51.0615 44.9403C50.8175 44.8778 50.5124 44.8153 50.1464 44.8153C49.4142 44.6903 48.6211 44.6903 48.072 44.6903C47.767 44.6903 47.4619 44.5029 47.2179 44.2529C46.9739 44.0029 46.8518 43.6905 46.8518 43.378V39.5036L47.0349 39.3786C48.5601 38.2538 49.7803 36.754 50.4514 35.0043L50.5734 34.7543L50.8175 34.6918C53.0748 34.3169 54.7831 32.2547 54.7831 29.9425C54.7831 29.8175 54.7831 29.6926 54.7831 29.5051C54.7831 29.3176 54.7221 29.1926 54.7221 29.0052L54.7831 28.1928C55.0271 26.7555 55.0271 25.3182 54.9661 23.8809ZM31.5995 32.9421C30.3183 32.3797 29.5251 31.1923 29.5251 29.8175C29.5251 29.0052 29.7692 28.3178 30.2573 27.7553L30.5623 27.3804L30.9284 27.6929C31.1114 27.8803 31.2944 28.0053 31.4774 28.1303L31.5385 28.1928C31.7215 28.3803 31.9045 28.5052 32.0875 28.6302L32.2096 28.7552V31.2548C32.2096 31.6298 32.2096 32.0047 32.2706 32.3172L32.3926 33.2545L31.5995 32.9421ZM32.3926 26.8805L31.9045 26.443C29.6472 24.4433 28.671 22.1312 28.9761 19.5066C29.0981 18.5067 29.6472 17.6318 30.3793 17.1319C30.9284 16.757 31.4774 16.632 32.0265 16.6945H32.2706L32.3926 16.8819C32.8197 17.5693 33.7348 18.8192 35.077 20.3189L35.321 20.5689L32.3926 26.8805ZM40.6899 62.3752H23.3632C22.265 62.3752 21.4109 61.5004 21.4109 60.3755C21.4109 54.0015 25.6205 48.3773 31.6605 46.6276L32.1486 46.5026L32.2706 47.0025C32.5146 48.1898 33.9178 52.3767 40.3238 54.9388L40.6289 55.0638V62.3752H40.6899ZM48.011 46.1901C48.3771 46.1901 48.7431 46.1901 49.1092 46.2526L49.5973 46.3776L49.4753 46.8775C49.2312 47.9399 47.95 51.5018 41.8491 53.814L41.666 53.8765L41.483 53.814C35.6871 51.6268 34.1619 48.2523 33.7958 46.8775L33.6128 46.2526H35.321C36.7243 46.2526 38.0665 44.8778 38.0665 43.3156V40.316L38.6766 40.5035C40.6899 41.1284 42.6422 41.1284 44.6555 40.5035L45.2656 40.316V43.3156C45.3266 44.8153 46.6078 46.1901 48.011 46.1901ZM49.6583 31.3173C49.6583 35.8167 46.0587 39.4411 41.727 39.4411C37.3344 39.4411 33.7958 35.7542 33.7958 31.3173L33.8568 27.6304L36.5412 21.8812L37.0293 22.3186C39.5307 24.6308 43.6793 27.6304 49.3532 28.6302L49.7803 28.6927V31.3173H49.6583ZM51.8546 32.5046L51.1225 33.0046V32.0672C51.1225 31.9422 51.1225 31.7548 51.1835 31.6298C51.1835 31.5048 51.1835 31.3798 51.1835 31.2548V28.8177H51.6716C51.8546 28.8177 52.0987 28.8177 52.2817 28.8802C52.4647 28.8802 52.5867 28.8802 52.7698 28.8802H53.2578V29.3801V29.4426C53.2578 29.5676 53.3188 29.6926 53.3188 29.8175C53.3188 30.9424 52.7698 31.9422 51.8546 32.5046ZM53.4409 27.3179H52.9528C42.1541 27.1929 35.6871 18.9441 33.9178 16.4445L33.6738 16.1321L33.9788 15.8196C35.5651 14.1948 37.4564 13.195 39.7137 12.7576C42.8862 12.1326 46.1197 12.945 48.6821 15.0697C51.3665 17.1944 53.0748 20.4439 53.3188 24.0059C53.3799 25.1932 53.3799 26.1931 53.3799 26.8805V27.3179H53.4409Z" fill="#0022CD" stroke="#0022CD" mask="url(#path-8-inside-1_1_2048)"/>
    <g clip-path="url(#clip0_1_2048)">
        <path d="M74.5008 72.8399C73.4211 71.7292 72.4267 70.5322 71.5268 69.2599C72.0829 68.6556 74.1572 67.4731 76.2503 66.596C76.4481 66.5064 76.6161 66.3579 76.733 66.1693C76.8499 65.9806 76.9105 65.7602 76.9071 65.5358C76.9038 65.3114 76.8367 65.0931 76.7142 64.9083C76.5918 64.7235 76.4195 64.5805 76.219 64.4973L59.4683 58.0715C59.2835 57.9957 59.0824 57.9736 58.8865 58.0077C58.6905 58.0419 58.5073 58.1308 58.3563 58.2651C58.2054 58.3993 58.0924 58.5738 58.0297 58.7698C57.9669 58.9658 57.9566 59.1758 58 59.3774L61.7488 77.57C61.7958 77.7935 61.9066 77.9971 62.0666 78.1541C62.2267 78.3112 62.4286 78.4143 62.6459 78.4501C62.8632 78.4859 63.0859 78.4527 63.2848 78.3548C63.4836 78.2569 63.6495 78.0988 63.7606 77.9013C64.6459 76.2436 65.7041 74.6922 66.9158 73.2752C67.9836 74.3672 68.9793 75.5329 69.8961 76.7643C71.9142 79.3308 72.4765 80.013 73.2887 80.013C74.5383 80.013 76.9688 77.8364 76.9688 76.3745C77 75.6143 76.4377 74.9646 74.5008 72.8399ZM75.0694 76.8423L73.7386 78.0378C73.6446 78.1265 73.5219 78.1752 73.3949 78.1742H73.3575C73.2204 78.1644 73.0926 78.0991 73.0013 77.9923L68.1029 72.1447C67.9585 71.9663 67.7789 71.8223 67.5762 71.7225C67.3735 71.6227 67.1526 71.5695 66.9283 71.5664H66.8846C66.6518 71.5757 66.4238 71.6389 66.2174 71.7513C66.011 71.8637 65.8312 72.0225 65.6912 72.2162L62.9984 75.8677L59.8744 60.1051L74.4509 65.5109L70.6396 67.7785C70.438 67.8971 70.264 68.0605 70.1301 68.257C69.9962 68.4536 69.9056 68.6784 69.8649 68.9155C69.8292 69.153 69.845 69.3958 69.9109 69.6262C69.9768 69.8566 70.0913 70.0689 70.246 70.2475L75.1444 76.0951C75.2369 76.2065 75.2839 76.351 75.2756 76.4979C75.2519 76.636 75.1781 76.7593 75.0694 76.8423Z" fill="#0022CD"/>
        <path d="M70.2149 70.2475C70.0602 70.0689 69.9457 69.8566 69.8798 69.6262C69.8138 69.3958 69.7981 69.153 69.8337 68.9155C69.8745 68.6784 69.9651 68.4536 70.099 68.257C70.2329 68.0605 70.4069 67.8971 70.6085 67.7785L74.4197 65.5109L59.8745 60.1051L62.9985 75.8677L65.6664 72.2422C65.8064 72.0485 65.9861 71.8897 66.1925 71.7773C66.399 71.6649 66.6269 71.6017 66.8597 71.5924H66.9034C67.1277 71.5955 67.3486 71.6487 67.5513 71.7485C67.754 71.8483 67.9337 71.9923 68.0781 72.1707L72.9764 78.0183C73.0677 78.1251 73.1956 78.1904 73.3326 78.2002H73.3701C73.497 78.2012 73.6197 78.1525 73.7137 78.0638L75.0695 76.8423C75.1707 76.749 75.2334 76.6186 75.2445 76.4784C75.2528 76.3315 75.2057 76.187 75.1132 76.0756L70.2149 70.2475Z" fill="#CCFF69"/>
    </g>
    <defs>
        <clipPath id="clip0_1_2048">
            <rect width="19" height="22" fill="white" transform="translate(58 58)"/>
        </clipPath>
    </defs>
</svg>
