<svg width="130" height="130" viewBox="0 0 130 130" fill="none" xmlns="http://www.w3.org/2000/svg">
    <mask id="mask0_1_2113" style="mask-type:alpha" maskUnits="userSpaceOnUse" x="0" y="0" width="130" height="130">
        <circle cx="65" cy="65" r="65" fill="white"/>
    </mask>
    <g mask="url(#mask0_1_2113)">
        <circle cx="65" cy="65" r="63.5" fill="white" stroke="#C4D3E4" stroke-width="3"/>
        <path d="M102.724 91.3912L102.486 91.3264C101.141 90.9576 100.112 90.3185 99.3416 89.3683C98.1774 87.9296 97.9381 86.3079 98.5702 84.1076C99.3655 81.3724 101.029 78.8498 103.808 76.1681L103.941 76.04L104.072 76.1695C106.658 78.7414 108.29 81.1697 109.21 83.812C109.693 85.1873 109.8 86.3023 109.545 87.3186V87.32C109.021 89.3908 107.712 90.6549 105.423 91.2997L105.184 91.3672V85.0255C105.184 84.3469 104.632 83.7965 103.955 83.7965C103.276 83.7965 102.726 84.3469 102.726 85.0255V91.3912H102.724Z" fill="#EBF0F6"/>
        <path d="M83.2378 25.1481H51.6683C50.9898 25.1481 50.4379 25.7 50.4379 26.3785C50.4379 27.057 50.9898 27.6074 51.6683 27.6074H83.2378V32.236H58.7561C58.0776 32.236 57.5272 32.7878 57.5272 33.4649C57.5272 34.1421 58.079 34.6953 58.7561 34.6953H83.2378V39.3239H62.2966C61.618 39.3239 61.0676 39.8757 61.0676 40.5528C61.0676 41.2299 61.6195 41.7817 62.2966 41.7817H83.2336V46.2977H72.625C71.9465 46.2977 71.3961 46.8495 71.3961 47.5281V99.9783H63.4439V77.7335C63.4439 77.055 62.892 76.5046 62.2149 76.5046H48.729C48.0504 76.5046 47.4986 77.0564 47.4986 77.7335V99.9783H39.4619V20.3394H83.2378V25.1481Z" fill="#EBF0F6"/>
        <path d="M49.9614 78.9666H60.9839V99.981H49.9614V78.9666Z" fill="#EBF0F6"/>
        <path d="M95.4284 56.467H99.2349V60.2735H95.4284V56.467Z" fill="#EBF0F6"/>
        <path d="M82.4303 56.467H86.2368V60.2735H82.4303V56.467Z" fill="#EBF0F6"/>
        <path d="M82.4303 68.0822H86.2368V71.8887H82.4303V68.0822Z" fill="#EBF0F6"/>
        <path d="M37.3562 18.2461C37.5898 18.0111 37.9009 17.8829 38.2318 17.8829H84.4669C85.1454 17.8829 85.6958 18.4348 85.6958 19.1119V46.3006H108.941C109.62 46.3006 110.17 46.8524 110.17 47.5309V67.612C110.17 68.2906 109.619 68.8424 108.941 68.8424C108.264 68.8424 107.713 68.2906 107.713 67.612V48.7571H73.8625V99.9769H102.728V93.8125H102.408C102.307 93.8125 102.208 93.7998 102.11 93.7745C100.16 93.2973 98.5863 92.3358 97.432 90.9168C95.7484 88.8404 95.35 86.3882 96.2115 83.4221C97.1533 80.1703 99.1086 77.2211 102.363 74.1424L103.16 73.4386C103.64 73.0219 104.348 73.0318 104.807 73.4597C108.24 76.651 110.379 79.6818 111.535 83.0012C112.175 84.8313 112.305 86.4417 111.927 87.9226C111.157 90.9661 108.987 92.9468 105.476 93.8083L105.19 93.8027V99.9769H108.94C109.619 99.9769 110.169 100.529 110.169 101.207C110.169 101.886 109.617 102.438 108.94 102.438H38.229C37.5504 102.438 37 101.886 37 101.207V19.1091C37 18.7839 37.1253 18.477 37.3562 18.2461ZM103.954 83.798C104.632 83.798 105.183 84.3484 105.183 85.0269V91.3687L105.422 91.3011C107.711 90.6564 109.022 89.3923 109.544 87.3215V87.3201C109.799 86.3037 109.692 85.1888 109.209 83.8135C108.29 81.1712 106.657 78.7429 104.071 76.171L103.94 76.0415L103.808 76.1696C101.029 78.8513 99.3648 81.3739 98.5694 84.1091C97.9374 86.3094 98.1767 87.9311 99.3409 89.3698C100.111 90.3186 101.14 90.9591 102.486 91.3279L102.724 91.3926V85.0283C102.725 84.3484 103.277 83.798 103.954 83.798ZM49.9609 99.9811H60.9833V78.9667H49.9609V99.9811ZM39.4607 99.9811H47.4974V77.7364C47.4974 77.0578 48.0492 76.5074 48.7277 76.5074H62.2137C62.8922 76.5074 63.4426 77.0592 63.4426 77.7364V99.9811H71.3948V47.5309C71.3948 46.8524 71.9466 46.3006 72.6237 46.3006H83.2323V41.7846H62.2953C61.6168 41.7846 61.0664 41.2328 61.0664 40.5557C61.0664 39.8786 61.6182 39.3267 62.2953 39.3267H83.238V34.6982H58.7563C58.0778 34.6982 57.5274 34.1463 57.5274 33.4678C57.5274 32.7893 58.0792 32.2389 58.7563 32.2389H83.238V27.6103H51.6684C50.9899 27.6103 50.4381 27.0585 50.4381 26.3814C50.4381 25.7042 50.9899 25.151 51.6684 25.151H83.238V20.3451H39.4607V99.9811Z" fill="#EBF0F6"/>
        <path d="M100.177 62.1544H94.4896C93.9702 62.1544 93.5493 61.7335 93.5493 61.214V55.5268C93.5493 55.0074 93.9702 54.5865 94.4896 54.5865H100.177C100.696 54.5865 101.117 55.0074 101.117 55.5268V61.214C101.117 61.7335 100.696 62.1544 100.177 62.1544ZM99.2351 56.4672H95.4286V60.2737H99.2351V56.4672Z" fill="#EBF0F6"/>
        <path d="M88.1196 72.829C88.1196 73.3485 87.6987 73.7694 87.1793 73.7694H81.4921C80.9726 73.7694 80.5517 73.3485 80.5517 72.829V67.1418C80.5517 66.6224 80.9726 66.2015 81.4921 66.2015H87.1793C87.6987 66.2015 88.1196 66.6224 88.1196 67.1418V72.829ZM86.2375 68.0822H82.431V71.8886H86.2375V68.0822Z" fill="#EBF0F6"/>
        <path d="M87.1783 62.1544H81.4911C80.9717 62.1544 80.5508 61.7335 80.5508 61.214V55.5268C80.5508 55.0074 80.9717 54.5865 81.4911 54.5865H87.1783C87.6977 54.5865 88.1186 55.0074 88.1186 55.5268V61.214C88.1201 61.7335 87.6991 62.1544 87.1783 62.1544ZM86.2379 56.4672H82.4315V60.2737H86.2379V56.4672Z" fill="#EBF0F6"/>
        <path d="M7 109.794C7 97.5837 16.8789 87.65 29.0217 87.65H34.7139V84.1643C27.8701 79.4053 26.6505 72.2078 26.4586 69.1088H26.2411C24.5413 69.1088 23.0275 68.0227 22.4751 66.4066L21.3908 63.2394C20.8535 61.6716 21.3181 59.9631 22.5739 58.888L23.166 58.3803C22.4479 56.9573 21.7217 54.2358 22.1429 49.2207C22.6542 43.1456 17.7936 42.2886 17.2378 42.2113C16.7286 42.1409 16.2942 41.7945 16.1124 41.3115C15.9305 40.8271 16.0218 40.282 16.3574 39.8901C16.9153 39.2359 30.0929 24 43.5072 24C43.6026 24 43.6973 24 43.7934 24.0014C48.7637 24.0828 53.1006 26.2647 56.6951 30.4904C58.3784 30.4132 62.2851 30.685 65.3498 33.9627C69.5591 38.4617 70.4059 46.68 67.8675 58.3871C67.855 58.445 67.8126 58.4882 67.7932 58.5434L68.1942 58.8866C69.45 59.9645 69.9138 61.673 69.3765 63.2407L68.2923 66.4066C67.7392 68.0227 66.2261 69.1088 64.527 69.1088H64.3094C64.1198 72.1716 62.9208 79.2352 56.2861 83.9941V87.65H61.9776C74.1211 87.65 84 97.5837 84 109.794V141.587C84 142.368 83.3707 143 82.5946 143L8.40539 117.27C7.62927 117.27 7 116.638 7 115.857V109.794Z" fill="white"/>
        <path d="M81.189 140.174V109.794C81.189 99.1418 72.5707 90.4763 61.9774 90.4763H56.1946C55.5029 95.7882 50.9669 99.9022 45.4929 99.9022C40.0257 99.9022 35.496 95.7882 34.8049 90.4763H29.0214C18.4289 90.4763 9.81055 99.1418 9.81055 109.794V114.444L81.189 140.174Z" fill="#CCFF69"/>
        <path d="M29.0217 87.6117C16.8789 87.6117 7 97.5395 7 109.743V115.802C7 116.583 7.62927 117.214 8.40539 117.214L82.5946 144C83.3707 144 84 143.368 84 142.588V109.743C84 97.5395 74.1211 87.6117 61.9776 87.6117H56.2861V83.9581C62.9208 79.202 64.1198 72.1427 64.3094 69.0817H64.527C66.2261 69.0817 67.7392 67.9963 68.2923 66.3812L69.3765 63.2172C69.9138 61.6504 69.45 59.9429 68.1942 58.8657L67.7932 58.5226C67.8126 58.4675 67.855 58.4244 67.8675 58.3664C70.4059 46.6664 69.5591 38.453 65.3498 33.9567C62.2851 30.681 58.3784 30.4093 56.6951 30.4865C53.1006 26.2633 48.7637 24.0828 43.7934 24.0014C43.6973 24 43.6026 24 43.5072 24C30.0929 24 16.9153 39.2268 16.3574 39.8805C16.0218 40.2722 15.9305 40.817 16.1124 41.3011C16.2942 41.7839 16.7286 42.1301 17.2378 42.2004C17.7936 42.2776 22.6542 43.1341 22.1429 49.2055C21.7217 54.2177 22.4479 56.9375 23.166 58.3597L22.5739 58.8671C21.3181 59.9415 20.8535 61.649 21.3908 63.2158L22.4751 66.3812C23.0275 67.9963 24.5413 69.0817 26.2411 69.0817H26.4586C26.6505 72.1789 27.8701 79.372 34.7139 84.1281V87.6117H29.0217ZM45.384 87.4517C48.1598 87.4517 50.9345 86.8433 53.4753 85.6331V89.0241C53.4753 93.439 49.8946 97.0319 45.4931 97.0319C41.0992 97.0319 37.5247 93.439 37.5247 89.0241V85.7405C40.0021 86.8788 42.6919 87.4528 45.384 87.4517ZM81.1892 109.743V141.175L9.81078 114.39V109.743C9.81078 99.0966 18.4291 90.4364 29.0217 90.4364H34.8052C35.4962 95.7451 40.026 99.8566 45.4931 99.8566C50.9672 99.8566 55.5031 95.7451 56.1948 90.4364H61.9776C72.5709 90.4364 81.1892 99.0966 81.1892 109.743ZM19.9861 40.104C23.7165 36.2462 33.8191 26.8247 43.5065 26.8247C43.5889 26.8247 43.6712 26.8247 43.7529 26.8261C48.0692 26.8978 51.8483 28.9197 54.9836 32.8368C55.2952 33.2243 55.7927 33.4147 56.2875 33.3485C56.4549 33.3236 60.424 32.7871 63.3302 35.9207C66.716 39.5743 67.383 46.8815 65.2667 57.0782L64.5105 57.4272C66.9494 43.2321 56.3945 38.7799 56.2806 38.7344C56.1104 38.6654 55.9327 38.6323 55.7563 38.6323C55.3906 38.6323 55.031 38.7758 54.7627 39.0461C54.7133 39.0971 49.651 44.072 41.8129 43.3865C36.9174 42.9631 31.9066 45.2058 28.7252 49.2552C26.7475 51.7751 25.7662 54.6328 25.8691 57.4161C25.5404 56.9444 24.4802 54.957 24.9441 49.4428C25.395 44.0789 22.5938 41.3025 19.9861 40.104ZM29.2419 67.7466C29.2632 67.359 29.1246 66.9798 28.859 66.6984C28.5935 66.417 28.225 66.257 27.8386 66.257H26.2411C25.7408 66.257 25.2961 65.9384 25.1328 65.4626L24.0479 62.2959C23.8901 61.8352 24.0266 61.3332 24.3965 61.0173L25.2627 60.2758L27.1229 61.1732C27.3164 61.267 27.5243 61.3125 27.7309 61.3125C28.0664 61.3125 28.3979 61.1925 28.66 60.9594C29.0834 60.5842 29.2426 59.9912 29.0642 59.4533C28.1646 56.7417 28.8453 53.6618 30.9321 51.0054C33.5329 47.6939 37.605 45.8554 41.5679 46.2002C48.9126 46.847 54.0909 43.2872 55.9759 41.7328C58.2068 43.0155 64.3657 47.7367 61.1652 59.5291C61.0217 60.0574 61.196 60.6229 61.6126 60.9773C62.0284 61.3332 62.6145 61.4104 63.1079 61.1842L65.3546 60.1469L66.3709 61.0159C66.7407 61.3332 66.8773 61.8352 66.7195 62.2972L65.6352 65.4626C65.4719 65.937 65.0265 66.257 64.527 66.257H62.9294C62.5431 66.257 62.1746 66.417 61.909 66.6984C61.6435 66.9798 61.5048 67.359 61.5261 67.7466C61.5309 67.8363 61.9262 76.7944 54.2473 81.9583C49.1007 85.4206 42.2421 85.5115 36.9951 82.2518C36.8805 82.1578 36.7597 82.0738 36.6193 82.0196C36.5868 81.9981 36.5525 81.9801 36.5201 81.9583C28.8837 76.822 29.2241 68.1107 29.2419 67.7466Z" fill="#0022CD"/>
    </g>
</svg>
