<svg width="80" height="80" viewBox="0 0 80 80" fill="none" xmlns="http://www.w3.org/2000/svg">
    <mask id="mask0_1_2394" style="mask-type:alpha" maskUnits="userSpaceOnUse" x="0" y="0" width="80" height="80">
        <circle cx="40" cy="40" r="40" fill="white"/>
    </mask>
    <g mask="url(#mask0_1_2394)">
        <circle cx="40" cy="40" r="39" fill="white" stroke="#C4D3E4" stroke-width="2"/>
        <path d="M65.7384 56.2198L65.6054 56.1836C64.8532 55.9774 64.278 55.6202 63.8475 55.089C63.1968 54.2848 63.063 53.3783 63.4163 52.1485C63.8609 50.6196 64.791 49.2095 66.3443 47.7105L66.4183 47.6389L66.4915 47.7113C67.937 49.1489 68.8497 50.5062 69.3636 51.9832C69.6335 52.752 69.6933 53.3752 69.5508 53.9433V53.9441C69.2581 55.1016 68.5263 55.8082 67.2469 56.1686L67.1131 56.2064V52.6615C67.1131 52.2822 66.8046 51.9746 66.4261 51.9746C66.0469 51.9746 65.7392 52.2822 65.7392 52.6615V56.2198H65.7384Z" fill="#EBF0F6"/>
        <path d="M54.8457 19.1917H37.1992C36.8199 19.1917 36.5114 19.5001 36.5114 19.8794C36.5114 20.2587 36.8199 20.5663 37.1992 20.5663H54.8457V23.1536H41.1611C40.7818 23.1536 40.4742 23.462 40.4742 23.8405C40.4742 24.219 40.7826 24.5283 41.1611 24.5283H54.8457V27.1155H43.1401C42.7608 27.1155 42.4532 27.424 42.4532 27.8025C42.4532 28.1809 42.7616 28.4894 43.1401 28.4894H54.8433V31.0137H48.9134C48.5342 31.0137 48.2265 31.3222 48.2265 31.7014V61.0197H43.7814V48.5855C43.7814 48.2062 43.473 47.8985 43.0945 47.8985H35.5562C35.1769 47.8985 34.8684 48.207 34.8684 48.5855V61.0197H30.3762V16.5037H54.8457V19.1917Z" fill="#EBF0F6"/>
        <path d="M36.2455 49.2748H42.4067V61.0213H36.2455V49.2748Z" fill="#EBF0F6"/>
        <path d="M61.6604 36.6981H63.7881V38.8258H61.6604V36.6981Z" fill="#EBF0F6"/>
        <path d="M54.3947 36.6981H56.5225V38.8258H54.3947V36.6981Z" fill="#EBF0F6"/>
        <path d="M54.3947 43.1907H56.5225V45.3184H54.3947V43.1907Z" fill="#EBF0F6"/>
        <path d="M29.1991 15.3336C29.3297 15.2022 29.5036 15.1306 29.6885 15.1306H55.5327C55.912 15.1306 56.2197 15.4391 56.2197 15.8176V31.0153H69.2134C69.5927 31.0153 69.9004 31.3238 69.9004 31.7031V42.9279C69.9004 43.3072 69.5919 43.6156 69.2134 43.6156C68.8349 43.6156 68.5265 43.3072 68.5265 42.9279V32.3884H49.6052V61.019H65.7401V57.5733H65.5615C65.5049 57.5733 65.4498 57.5662 65.3947 57.552C64.3049 57.2853 63.4251 56.7478 62.7799 55.9546C61.8388 54.794 61.6161 53.4233 62.0977 51.7653C62.6241 49.9476 63.7171 48.2991 65.5363 46.5782L65.9817 46.1848C66.25 45.9519 66.6458 45.9574 66.9023 46.1966C68.8215 47.9804 70.0168 49.6746 70.6628 51.53C71.0209 52.553 71.0933 53.4532 70.8824 54.281C70.452 55.9822 69.2386 57.0893 67.2761 57.5709L67.1164 57.5677V61.019H69.2126C69.5919 61.019 69.8996 61.3275 69.8996 61.7067C69.8996 62.086 69.5911 62.3945 69.2126 62.3945H29.6869C29.3077 62.3945 29 62.086 29 61.7067V15.816C29 15.6342 29.07 15.4627 29.1991 15.3336ZM66.4255 51.9754C66.8048 51.9754 67.1124 52.2831 67.1124 52.6623V56.2072L67.2462 56.1695C68.5257 55.8091 69.2583 55.1025 69.5502 53.945V53.9442C69.6926 53.376 69.6328 52.7528 69.3629 51.9841C68.8491 50.5071 67.9363 49.1497 66.4908 47.7121L66.4176 47.6397L66.3437 47.7113C64.7904 49.2103 63.8603 50.6204 63.4157 52.1493C63.0624 53.3792 63.1962 54.2857 63.8469 55.0899C64.2773 55.6202 64.8525 55.9783 65.6048 56.1844L65.7378 56.2206V52.6631C65.7386 52.2831 66.047 51.9754 66.4255 51.9754ZM36.2448 61.0214H42.406V49.2748H36.2448V61.0214ZM30.3755 61.0214H34.8678V48.5871C34.8678 48.2078 35.1762 47.9002 35.5555 47.9002H43.0938C43.473 47.9002 43.7807 48.2086 43.7807 48.5871V61.0214H48.2258V31.7031C48.2258 31.3238 48.5343 31.0153 48.9127 31.0153H54.8427V28.491H43.1394C42.7601 28.491 42.4525 28.1826 42.4525 27.8041C42.4525 27.4256 42.7609 27.1171 43.1394 27.1171H54.8458V24.5299H41.1612C40.7819 24.5299 40.4743 24.2214 40.4743 23.8421C40.4743 23.4629 40.7827 23.1552 41.1612 23.1552H54.8458V20.5679H37.1993C36.82 20.5679 36.5115 20.2595 36.5115 19.881C36.5115 19.5025 36.82 19.1933 37.1993 19.1933H54.8458V16.5069H30.3755V61.0214Z" fill="#EBF0F6"/>
        <path d="M64.3142 39.8772H61.1352C60.8449 39.8772 60.6096 39.6419 60.6096 39.3515V36.1725C60.6096 35.8822 60.8449 35.6469 61.1352 35.6469H64.3142C64.6046 35.6469 64.8398 35.8822 64.8398 36.1725V39.3515C64.8398 39.6419 64.6046 39.8772 64.3142 39.8772ZM63.7878 36.6982H61.6601V38.8259H63.7878V36.6982Z" fill="#EBF0F6"/>
        <path d="M57.5747 45.844C57.5747 46.1344 57.3394 46.3696 57.0491 46.3696H53.8701C53.5797 46.3696 53.3444 46.1344 53.3444 45.844V42.665C53.3444 42.3747 53.5797 42.1394 53.8701 42.1394H57.0491C57.3394 42.1394 57.5747 42.3747 57.5747 42.665V45.844ZM56.5227 43.1907H54.3949V45.3184H56.5227V43.1907Z" fill="#EBF0F6"/>
        <path d="M57.0481 39.8772H53.8691C53.5787 39.8772 53.3435 39.6419 53.3435 39.3515V36.1725C53.3435 35.8822 53.5787 35.6469 53.8691 35.6469H57.0481C57.3385 35.6469 57.5737 35.8822 57.5737 36.1725V39.3515C57.5745 39.6419 57.3392 39.8772 57.0481 39.8772ZM56.5225 36.6982H54.3947V38.8259H56.5225V36.6982Z" fill="#EBF0F6"/>
        <path d="M36.4911 43.529V53.3043L29.3225 55.9111L22.154 53.3043V43.529L21.5024 47.4703C18.6879 48.0321 10.6222 45.3409 10.0845 44.8324L15.3113 37.0122C14.4424 35.4916 12.9001 31.538 13.6821 27.8886C14.6596 23.3268 17.918 13.8773 29.6484 13.5515C42.5509 14.5635 48.3821 26.379 43.4815 36.0347L49.1991 45.2014C44.8204 47.3825 43.3336 47.765 38.446 47.968C38.446 47.968 36.4911 45.225 36.4911 43.529Z" fill="white"/>
        <path d="M0.648926 88.4955H58.6489V71.8775C55.4806 61.1868 49 52.5 37 53C36.5 53.5 33.6711 55.5 29.5 55.5C23.2229 55.5 21 53 21 53C7.5 54.5 4.80388 60.0123 0.648926 70.9V88.4955Z" fill="#6288B9"/>
        <rect x="36" y="65" width="11" height="5" fill="white"/>
        <path d="M53.1315 58.9206C52.7304 58.4606 52.3112 58.0199 51.8764 57.5994C48.2944 54.1341 43.6128 52.0275 38.4919 52.0275H37.8829V48.3043L38.0572 48.3069C38.1129 48.3082 38.1699 48.3095 38.225 48.3095C40.6717 48.3095 42.7336 48.0017 44.4306 47.5721C45.2004 47.3771 45.8963 47.1587 46.5145 46.93C49.0188 46.0027 50.2915 44.9355 50.3828 44.8571C50.6129 44.6582 50.723 44.3491 50.6686 44.0497C50.6154 43.7504 50.4049 43.499 50.1185 43.3934C46.7503 42.1467 44.9334 37.1178 44.6029 36.1225L44.5919 36.0881L44.6055 36.0557C44.7708 35.6838 44.9166 35.3067 45.0526 34.9276C45.6889 33.1587 46.0162 31.3165 46.0162 29.4328C46.0162 20.982 39.5747 13.9963 31.2976 13.0243C30.7286 12.9576 30.1519 12.9194 29.5675 12.9103C29.4845 12.909 29.4029 12.9038 29.3199 12.9038C20.1136 12.9038 12.6237 20.3179 12.6237 29.4322C12.6237 29.729 12.6322 30.0245 12.6484 30.3193C12.7313 31.8349 13.0294 33.3213 13.5322 34.7637C13.7052 35.26 13.8989 35.7518 14.1212 36.2365L14.1348 36.2663L14.1102 36.3331C14.1069 36.348 13.8899 37.1327 13.4292 38.183C12.8136 39.5878 11.7587 41.4656 10.1926 42.6274C9.76878 42.9417 9.31002 43.208 8.80979 43.3927C8.52468 43.499 8.31344 43.7504 8.25966 44.0497C8.20588 44.3498 8.31539 44.6588 8.54542 44.8565C8.70935 44.9977 12.6626 48.3101 20.7046 48.3101L20.8853 48.3063V52.0269H20.4603L20.3683 52.0282C9.13701 52.0282 0 62.1391 0 74.5665V75.3058V77.0359V88.1375C0 88.6125 0.386838 89 0.863095 89H57.9919C58.4669 89 58.8544 88.6125 58.8544 88.1375V76.3607V74.558C58.8557 68.4885 56.6714 62.9763 53.1315 58.9206ZM47.9918 44.2098L48.1149 44.2947L47.984 44.3659C47.3108 44.734 46.289 45.2096 44.9256 45.625C44.2692 45.8252 43.5299 46.0092 42.7141 46.1628C41.411 46.4077 39.9097 46.5703 38.2023 46.5703C38.1265 46.5703 38.05 46.5697 37.9729 46.569L37.8816 46.5684V43.8605C37.8816 43.8275 37.8718 43.7944 37.8621 43.7569C37.8556 43.7348 37.8492 43.7128 37.8453 43.6901L37.8317 43.6253L37.888 43.5916C38.212 43.3985 38.5269 43.1918 38.8373 42.9774C39.3492 42.6236 39.8423 42.2426 40.3114 41.8343C41.5108 40.7917 42.5631 39.5826 43.4165 38.2504L43.5098 38.1046L43.5779 38.2627C44.3969 40.1542 45.827 42.7194 47.9918 44.2098ZM39.2151 18.4744L39.2766 18.4109L39.3434 18.4699C42.1951 21.0209 43.9316 24.4992 44.2317 28.2633L44.2414 28.3857L44.1208 28.3605C38.1958 27.1138 35.1504 23.8849 34.1162 22.554L34.0547 22.475L34.1382 22.4205C35.8819 21.2892 37.579 19.9783 39.1788 18.5243C39.1918 18.5049 39.2015 18.4893 39.2151 18.4744ZM14.8553 25.6843C16.5835 19.1761 22.5312 14.6307 29.3206 14.6307C29.4035 14.6307 29.4858 14.6384 29.5681 14.6397C30.15 14.6494 30.7273 14.6922 31.2982 14.768C33.6322 15.0752 35.8592 15.9182 37.8245 17.2653L37.9204 17.332L37.8336 17.4098C35.7575 19.2727 33.5719 20.8252 31.2982 22.0894C30.7273 22.4069 30.1506 22.7037 29.5681 22.9823C27.4279 24.0081 25.2164 24.7902 22.9355 25.291C20.6184 25.799 18.6563 25.9338 17.2295 25.9338C16.0936 25.9338 15.2979 25.8483 14.9318 25.799L14.8288 25.7854L14.8553 25.6843ZM15.3575 34.7637C14.8119 33.3706 14.4717 31.8776 14.3784 30.3193C14.3609 30.0257 14.3493 29.7303 14.3493 29.4328C14.3493 28.8691 14.3907 28.2775 14.4808 27.5712L14.4931 27.4766L14.5864 27.4915C15.0329 27.5615 15.9912 27.6801 17.3921 27.6801C20.3333 27.6801 24.65 27.1553 29.5688 24.9211C30.1383 24.6625 30.7144 24.3858 31.2988 24.0793C31.6967 23.8707 32.0971 23.6523 32.5008 23.4204L32.5721 23.3802L32.6207 23.4463C33.7799 25.0124 37.2252 28.7991 44.1779 30.1275L44.2569 30.1424L44.2524 30.2227C44.163 31.8835 43.7852 33.4606 43.193 34.927C42.2761 37.1962 40.8143 39.179 38.965 40.7276C38.4861 41.128 37.9911 41.5097 37.4643 41.8486C36.4094 42.5277 35.2586 43.0668 34.0443 43.4672C33.1624 43.7581 32.2449 43.9675 31.3001 44.0919C30.7319 44.1664 30.1558 44.215 29.5701 44.2247C29.4865 44.226 29.4061 44.2364 29.3225 44.2364C24.8366 44.2364 20.8082 42.273 18.0621 39.1725C17.7803 38.8543 17.5107 38.5245 17.2567 38.183C16.4779 37.1391 15.8383 35.9903 15.3575 34.7637ZM36.1573 44.5014V52.4053L35.8269 52.6055C35.2515 52.9554 34.6534 53.2483 34.043 53.4965C33.1527 53.858 32.2326 54.1127 31.2988 54.2585C30.7254 54.3479 30.1474 54.3984 29.5688 54.4069C29.5092 54.4075 29.4495 54.4127 29.3899 54.4127C27.1829 54.4133 24.9753 53.8218 23.0035 52.6373L22.6122 52.4027V44.5636L22.7398 44.618C24.8315 45.5096 27.0456 45.9612 29.3206 45.9612C29.4035 45.9612 29.4858 45.9561 29.5681 45.9548C30.1493 45.9464 30.726 45.9081 31.2982 45.8401C32.228 45.7299 33.1436 45.5414 34.0423 45.2757C34.7143 45.0774 35.3772 44.8416 36.0284 44.5571L36.1573 44.5014ZM20.7959 46.5684C20.7726 46.5684 20.7486 46.5684 20.7253 46.5684C15.7262 46.5684 12.4579 45.1921 10.9507 44.3685L10.8191 44.2973L10.9429 44.2124C11.5999 43.764 12.1727 43.2158 12.6853 42.6268C13.8477 41.2907 14.6629 39.7213 15.1826 38.4629L15.2487 38.3029L15.3439 38.4474C16.1066 39.6021 17.026 40.6583 18.0595 41.5952C18.92 42.3747 19.859 43.0726 20.8653 43.661L20.9184 43.6921L20.91 43.753C20.9067 43.7737 20.9015 43.7931 20.8964 43.8132C20.8912 43.8314 20.8866 43.8476 20.8866 43.8605V46.569H20.7959V46.5684ZM46.1179 87.2744V81.2237C46.1179 80.7488 45.7304 80.3613 45.2554 80.3613C44.7805 80.3613 44.393 80.7488 44.393 81.2237V87.2751H14.2475V81.2237C14.2475 80.7488 13.8607 80.3613 13.3851 80.3613C12.9095 80.3613 12.5226 80.7488 12.5226 81.2237V87.2751H1.72684V77.0359V75.3058V74.5652C1.72684 61.7088 11.4043 53.7518 20.3696 53.7518H21.51L22.1152 54.1159C24.3189 55.4391 26.8343 56.1383 29.3893 56.1383C29.4489 56.1383 29.5085 56.1331 29.5681 56.1318C30.148 56.1246 30.726 56.0858 31.2982 56.0067C32.2332 55.8784 33.152 55.6549 34.0423 55.3432C34.9722 55.0179 35.8703 54.5961 36.7217 54.0797L37.2595 53.7518H38.4907C42.7044 53.7524 47.0749 55.511 50.5241 58.7094C50.9666 59.1196 51.3943 59.5537 51.8045 60.0105C54.9964 63.5692 57.1301 68.5235 57.1301 74.558V76.3607V87.2744H46.1179Z" fill="#0022CD"/>
        <path d="M47.5005 70.1921V64.6598C47.5005 64.3364 47.3139 64.0643 47.0496 63.9166C46.9251 63.8472 46.7897 63.7973 46.6374 63.7973H44.3307H36.327C35.8514 63.7973 35.4639 64.1848 35.4639 64.6598V70.1921C35.4639 70.4507 35.5837 70.6755 35.7645 70.8336C35.9162 70.9665 36.1092 71.0546 36.327 71.0546H38.3603H46.6374C47.1137 71.0546 47.5005 70.6677 47.5005 70.1921ZM45.775 69.329H40.4604H37.5963H37.1894V65.5222H42.2306H45.0946H45.775V69.329Z" fill="#0022CD"/>
    </g>
</svg>
