<svg width="360" height="150" viewBox="0 0 360 150" fill="none" xmlns="http://www.w3.org/2000/svg">
    <path d="M26.0651 95.479V49.4383H37.7096V42.4787H50.2498V49.4383H53.0061V115.37L62.4803 104.045V71.0176L73.5388 57.7988H106.96L123.252 75.1354V14.2228H125.763L127.263 9.7312H156.093L157.76 14.2228H160.372V85.6554H166.387L166.351 81.1638L183.042 85.6554H185.729V144.478L7.70267 144.43V103.509L14.4206 95.479H26.0651Z" fill="#EBF0F6"/>
    <rect x="331.896" y="138.886" width="28.104" height="9.33585" fill="#EBF0F6"/>
    <rect y="135.328" width="30.7805" height="12.8924" fill="#EBF0F6"/>
    <rect x="317.931" y="128.009" width="27.7931" height="20.212" fill="#EBF0F6"/>
    <path d="M145.679 62.3048L145.94 57.1544H158.365L158.24 62.3048H160.281V6.83192L159.25 5.2989V0.996582H204.027V5.2989L202.997 7.02355V50.2419L221.638 37.2213L221.744 30.3625H246.522L246.944 20.0619H251.445L251.978 30.3625H260.203L266.689 38.0886L272.928 45.5201V83.3912L283.83 96.3772V20.7759H287.002V12.7955H301.432V20.7759H304.524V73.5692H307.874V57.65H314.574V73.5692H316.12V61.2552H321.274V73.5692H324.881L325.088 52.9679H328.747L328.623 78.9464L335.962 79.1721V129.7L141.41 129.754V62.3048H145.679Z" fill="#EBF0F6"/>
    <path fill-rule="evenodd" clip-rule="evenodd" d="M120.892 144.22V143.419V86.2815V62.0536L118.465 61.6067V48.8216L110.373 47.2202V40.8151V38.4133L100.809 45.3279L90.1428 43.2173V53.04L89.3332 53.6249V56.0267V59.3627L86.0967 58.7668V73.6407V143.419V144.22H120.892Z" fill="#EBF0F6"/>
    <path fill-rule="evenodd" clip-rule="evenodd" d="M210.386 57.0715V44.5973H189.134V49.8357H182.064V40.0579H177.696V49.8357H174.737V35.6922H175.451V32.1893H152.926V35.6922H153.64V49.8357H146.675V148.221H216.533V57.0715H210.386Z" fill="#C4D3E4"/>
    <path d="M172.787 98.0259L172.593 94.1931H163.334L163.427 98.0259H161.906V56.7438L162.674 55.603V52.4012H129.308V55.603L130.076 56.8864V89.0489L116.185 79.3592L116.106 74.255H97.6421L97.3272 66.5894H93.9734L93.5761 74.255H87.4473L82.6139 80.0046L77.9648 85.535V113.718L69.8407 123.382V67.1207H67.4773V61.1819H56.7242V67.1207H54.4199V106.409H51.9237V94.5619H46.9312V106.409H45.7791V97.2449H41.9387V106.409H39.2504L39.0962 91.0776H36.3701L36.4624 110.41L30.9935 110.578V148.18L175.968 148.221V98.0259H172.787Z" fill="#C4D3E4"/>
    <rect x="15.2197" y="128.009" width="30.7978" height="19.4634" fill="#C4D3E4"/>
    <rect x="307.424" y="133.249" width="30.7978" height="13.4747" fill="#C4D3E4"/>
    <path d="M311.852 102.216V58.9892H300.846V52.4549H288.994V58.9892H286.389V120.891L277.435 110.259V79.2497L266.983 66.8387H235.394L219.997 83.1159V25.9257H217.623L216.205 21.7086H188.956L187.381 25.9257H184.912V92.993H179.227L179.261 88.7759L163.486 92.993H160.946V148.221L329.207 148.176V109.756L322.858 102.216H311.852Z" fill="#C4D3E4"/>
    <path fill-rule="evenodd" clip-rule="evenodd" d="M269.335 117.036H276.224V129.591H289.37L291.503 124.103H304.22L309.726 136.926V149.748H242.376H233.867H124.093V104.175L133.179 93.6969H142.482V83.2257H149.18V57.8009H183.023V83.5106H213.721V91.2966H227.493V129.591H242.804V117.036H249.692V108.308L259.418 100.237L269.474 108.308C269.474 108.308 270.002 117.036 269.335 117.036Z" fill="#6288B9"/>
    <path fill-rule="evenodd" clip-rule="evenodd" d="M137.66 69.326V73.2374H138.453V89.0285H135.164V78.1114H130.309V89.0285H122.451V83.1802H98.8297V105.186H91.997V150H169.644V89.0285H161.903V73.2374H162.696V69.326H137.66Z" fill="#6288B9"/>
    <rect x="132.551" y="115.974" width="28.6359" height="34.0258" fill="#6288B9"/>
    <path d="M77.564 124.273L89.9545 115.974L102.345 124.273V150H77.564V124.273Z" fill="#6288B9"/>
    <path d="M51.1274 130.243H78.1112V150H43.9684V138.749L51.1274 130.243Z" fill="#6288B9"/>
    <path d="M266.323 104.05C265.49 104.05 264.697 104.17 263.934 104.37C262.409 100.07 258.305 96.99 253.469 96.99C248.722 96.99 244.688 99.95 243.093 104.12C242.712 104.07 242.33 104.04 241.939 104.04C236.892 104.04 232.798 108.12 232.798 113.15C232.798 118.18 236.892 122.26 241.939 122.26C245.04 122.26 247.769 120.72 249.425 118.37C250.679 118.86 252.044 119.14 253.469 119.14C255.295 119.14 257.021 118.69 258.546 117.91C260.151 120.51 263.031 122.26 266.323 122.26C271.37 122.26 275.464 118.18 275.464 113.15C275.464 108.13 271.37 104.05 266.323 104.05Z" fill="white"/>
    <path d="M266.323 103.05C265.741 103.05 265.149 103.1 264.547 103.21C262.62 98.86 258.275 96 253.469 96C248.742 96 244.407 98.81 242.451 103.07C242.27 103.06 242.1 103.05 241.939 103.05C236.34 103.05 231.794 107.59 231.794 113.16C231.794 118.73 236.35 123.27 241.939 123.27C243.635 123.27 245.28 122.83 246.735 122.04L252.365 126.45V147.7H254.372V126.08L259.499 120.62C261.346 122.31 263.744 123.28 266.333 123.28C271.932 123.28 276.477 118.74 276.477 113.17C276.477 107.6 271.922 103.05 266.323 103.05ZM248.471 120.87C248.933 120.48 249.375 120.05 249.776 119.58C250.629 119.85 251.492 120.02 252.365 120.1V123.92L248.471 120.87ZM254.372 120.11C255.616 120.02 256.85 119.73 258.024 119.26L254.372 123.15V120.11ZM266.323 121.28C263.483 121.28 260.894 119.83 259.399 117.41L258.907 116.62L258.084 117.04C255.516 118.36 252.515 118.52 249.786 117.46L249.053 117.17L248.602 117.81C247.077 119.98 244.588 121.27 241.939 121.27C237.454 121.27 233.801 117.63 233.801 113.16C233.801 108.69 237.454 105.05 241.939 105.05C242.25 105.05 242.571 105.07 242.963 105.12L243.745 105.22L244.026 104.49C245.511 100.61 249.304 98 253.469 98C257.733 98 261.556 100.7 262.991 104.71L263.302 105.58L264.195 105.34C264.908 105.15 265.63 105.05 266.323 105.05C270.808 105.05 274.46 108.69 274.46 113.16C274.46 117.63 270.808 121.28 266.323 121.28Z" fill="#0022CD"/>
    <path d="M306.049 132C302.165 132 299.025 128.87 299.025 125V94C299.025 90.13 302.165 87 306.049 87C309.932 87 313.073 90.13 313.073 94V125C313.073 128.87 309.932 132 306.049 132Z" fill="white"/>
    <path d="M306.049 86C301.624 86 298.021 89.59 298.021 94V125C298.021 129.07 301.092 132.44 305.045 132.93V148.31C305.045 148.86 305.497 149.31 306.049 149.31C306.601 149.31 307.052 148.86 307.052 148.31V132.93C311.006 132.44 314.076 129.07 314.076 125V94C314.076 89.59 310.474 86 306.049 86ZM312.069 125C312.069 127.97 309.892 130.43 307.052 130.91V124.06L309.772 120.62C310.113 120.19 310.042 119.56 309.601 119.22C309.169 118.88 308.537 118.95 308.196 119.39L307.052 120.84V111.07L309.772 107.63C310.113 107.2 310.042 106.57 309.601 106.23C309.169 105.89 308.537 105.96 308.196 106.4L307.052 107.85V99.02C307.052 98.47 306.601 98.02 306.049 98.02C305.497 98.02 305.045 98.47 305.045 99.02V102.04L303.751 100.4C303.41 99.97 302.778 99.89 302.346 100.23C301.915 100.57 301.834 101.2 302.175 101.63L305.045 105.26V115.03L303.751 113.39C303.41 112.96 302.778 112.88 302.346 113.22C301.915 113.56 301.834 114.19 302.175 114.62L305.045 118.25V130.91C302.206 130.43 300.028 127.97 300.028 125V94C300.028 90.69 302.727 88 306.049 88C309.37 88 312.069 90.69 312.069 94V125Z" fill="#0022CD"/>
    <path d="M290.004 97.77C289.03 97.77 288.077 97.87 287.154 98.07C285.057 96.76 282.578 96 279.919 96C275.504 96 271.591 98.09 269.092 101.33C268.942 101.33 268.801 101.32 268.651 101.32C258.827 101.32 250.86 109.26 250.86 119.05C250.86 128.84 258.827 136.78 268.651 136.78C276.658 136.78 283.431 131.51 285.659 124.26C287.024 124.72 288.479 124.97 289.994 124.97C297.53 124.97 303.63 118.89 303.63 111.38C303.63 103.87 297.529 97.77 290.004 97.77Z" fill="#CCFF69"/>
    <path d="M292.532 110.69C292.161 110.28 291.529 110.24 291.118 110.61L290.325 111.31L290.987 108.01C291.097 107.47 290.746 106.94 290.204 106.83C289.663 106.72 289.131 107.07 289.02 107.61L287.836 113.51L280.331 120.15V109.54C280.331 108.99 279.879 108.54 279.327 108.54C278.775 108.54 278.324 108.99 278.324 109.54V126.54L270.698 119.45L273.497 116.81C273.899 116.43 273.919 115.8 273.537 115.4C273.156 115 272.524 114.98 272.122 115.36L269.233 118.09L267.567 116.54C267.155 116.16 266.523 116.19 266.152 116.59C265.771 116.99 265.801 117.63 266.202 118L268.37 120.02L262.881 119.24C262.329 119.16 261.827 119.54 261.747 120.09C261.667 120.64 262.048 121.14 262.6 121.22L270.898 122.4C270.908 122.4 270.918 122.4 270.938 122.4L278.344 129.28V148C278.344 148.55 278.795 149 279.347 149C279.899 149 280.351 148.55 280.351 148V122.83L284.977 118.73C285.017 118.73 285.047 118.73 285.087 118.72L290.997 117.33C291.539 117.2 291.87 116.66 291.74 116.13C291.609 115.59 291.067 115.26 290.536 115.39L288.117 115.96L292.472 112.11C292.864 111.74 292.904 111.11 292.532 110.69Z" fill="#0022CD"/>
    <path d="M163.56 139.6C168.548 139.6 172.591 129.84 172.591 117.8C172.591 105.76 168.548 96 163.56 96C158.573 96 154.529 105.76 154.529 117.8C154.529 129.84 158.573 139.6 163.56 139.6Z" fill="white"/>
    <path d="M173.595 117.8C173.595 105 169.18 95 163.56 95C157.941 95 153.526 105 153.526 117.8C153.526 129.8 157.439 139.4 162.557 140.5V149C162.557 149.5 162.958 150 163.56 150C164.163 150 164.564 149.6 164.564 149V140.5C169.681 139.4 173.595 129.8 173.595 117.8ZM164.564 138.4V120.9C164.564 120.4 164.163 119.9 163.56 119.9C162.958 119.9 162.557 120.3 162.557 120.9V138.4C158.945 137.1 155.533 129.2 155.533 117.8C155.533 105.4 159.647 97 163.56 97C167.474 97 171.588 105.4 171.588 117.8C171.588 129.2 168.176 137.2 164.564 138.4Z" fill="#0022CD"/>
    <path d="M183.158 136.06C191.764 136.06 198.741 129.107 198.741 120.53C198.741 111.953 191.764 105 183.158 105C174.551 105 167.574 111.953 167.574 120.53C167.574 129.107 174.551 136.06 183.158 136.06Z" fill="#CCFF69"/>
    <path d="M187.864 127.94C187.392 127.65 186.77 127.79 186.479 128.26L184.061 132.11V116.46C184.061 115.91 183.609 115.46 183.057 115.46C182.505 115.46 182.054 115.91 182.054 116.46V122.94L178.732 119.81C178.331 119.43 177.699 119.45 177.318 119.85C176.936 120.25 176.956 120.88 177.358 121.26L182.054 125.7V146.98C182.054 147.53 182.505 147.98 183.057 147.98C183.609 147.98 184.061 147.53 184.061 146.98V135.72C184.171 135.64 184.271 135.55 184.342 135.43L188.175 129.32C188.476 128.85 188.335 128.23 187.864 127.94Z" fill="#0022CD"/>
    <path d="M82.5629 113.14C82.5629 106.44 77.1142 101 70.3812 101C69.0666 101 67.8023 101.21 66.6183 101.6C64.8121 97.15 60.4471 94 55.3296 94C48.6065 94 43.1478 99.43 43.1478 106.14C43.1478 109.48 44.5025 112.5 46.69 114.69C43.9205 116.91 42.1444 120.32 42.1444 124.14C42.1444 130.84 47.5931 136.28 54.3261 136.28C56.5538 136.28 58.6409 135.67 60.4471 134.63C61.6813 135.05 62.9958 135.28 64.3605 135.28C70.923 135.28 76.2613 130.1 76.5122 123.62C80.1246 121.51 82.5629 117.61 82.5629 113.14Z" fill="#CCFF69"/>
    <path d="M65.0529 128.7C64.5813 128.41 63.9592 128.55 63.6682 129.02L61.2499 132.87V109.07C61.2499 108.52 60.7983 108.07 60.2464 108.07C59.6946 108.07 59.243 108.52 59.243 109.07V123.55L55.9216 120.42C55.5203 120.04 54.8881 120.06 54.5068 120.46C54.1255 120.86 54.1455 121.49 54.5469 121.87L59.243 126.31V147.59C59.243 148.14 59.6946 148.59 60.2464 148.59C60.7983 148.59 61.2499 148.14 61.2499 147.59V136.48C61.3603 136.4 61.4606 136.31 61.5308 136.19L65.364 130.08C65.665 129.61 65.5245 128.99 65.0529 128.7Z" fill="#0022CD"/>
</svg>
