<svg width="200" height="200" viewBox="0 0 200 200" fill="none" xmlns="http://www.w3.org/2000/svg">
    <rect x="16.6667" y="25" width="158.333" height="136.111" rx="4" fill="white"/>
    <path d="M35.7639 38.5027C35.0278 38.5527 34.3667 38.8805 33.9556 39.4027C33.3195 40.0555 33.0583 40.6805 33.0583 41.5139C33.0583 42.3666 33.3278 43.0027 33.9612 43.6305C34.5945 44.2639 35.2305 44.5361 36.0777 44.5361C36.9277 44.5361 37.5611 44.2666 38.1945 43.6305C38.8167 43.0166 39.1 42.1027 39.1 41.5139C39.1 40.6639 38.8305 40.0277 38.1972 39.3972C37.5805 38.775 36.6556 38.4194 35.7639 38.5027Z" fill="#133DBD"/>
    <path d="M46.9667 38.7166C46.6084 38.8666 46.2666 39.0944 45.9638 39.3944C45.3305 40.0277 45.061 40.6638 45.061 41.5111C45.061 42.3638 45.3305 42.9972 45.9638 43.6249C46.6 44.2611 47.2333 44.5333 48.0833 44.5333C48.9305 44.5333 49.5639 44.2638 50.2 43.6277C50.8334 42.9999 51.1028 42.3638 51.1028 41.5111C51.1028 40.6611 50.8334 40.0277 50.2 39.3944C49.2917 38.4916 48.0445 38.2638 46.9667 38.7166Z" fill="#133DBD"/>
    <path d="M59.7639 38.5029C59.025 38.5529 58.3666 38.8806 57.9583 39.4028C57.3194 40.0556 57.061 40.6779 57.061 41.514C57.061 42.3251 57.3167 42.9556 57.8889 43.5556C58.3528 44.2973 59.3167 44.5362 60.0806 44.5362C60.9278 44.5362 61.5638 44.2667 62.1971 43.6306C62.8166 43.014 63.1 42.1001 63.1 41.514C63.1 40.6667 62.8305 40.0306 62.1944 39.3945C61.5805 38.7778 60.6722 38.4251 59.7639 38.5029Z" fill="#133DBD"/>
    <path d="M95.9529 78.9472C95.9529 77.9972 95.1807 77.2222 94.2307 77.2222H35.689C34.739 77.2222 33.9668 77.9972 33.9668 78.9472V88.8694C33.9668 89.8194 34.7418 90.5916 35.689 90.5916H94.2307C95.1807 90.5916 95.9529 89.8194 95.9529 88.8694V78.9472ZM92.5083 87.1416H37.4139V80.6722H92.5083V87.1416Z" fill="#133DBD"/>
    <path d="M95.9529 110.575V100.653C95.9529 99.7027 95.1807 98.9277 94.2307 98.9277H35.689C34.739 98.9277 33.9668 99.7027 33.9668 100.653V110.575C33.9668 111.525 34.7418 112.297 35.689 112.297H94.2307C95.1807 112.297 95.9529 111.525 95.9529 110.575ZM92.5083 108.847H37.4139V102.378H92.5083V108.847Z" fill="#133DBD"/>
    <path d="M55.4611 124.083H37.4138V130.553H55.4611V124.083Z" fill="#65D78D"/>
    <path d="M35.689 120.633C34.739 120.633 33.9668 121.408 33.9668 122.358V132.281C33.9668 133.231 34.7418 134.003 35.689 134.003H57.1861C58.1361 134.003 58.9085 133.231 58.9085 132.281V122.358C58.9085 121.408 58.1361 120.633 57.1861 120.633H35.689ZM55.4612 130.553H37.4139V124.083H55.4612V130.553Z" fill="#133DBD"/>
    <path d="M131.014 159.328H130.981H24.3834C21.1306 159.328 18.3806 156.58 18.3806 153.328V60.9888H174.092V100.517L174.097 100.65C174.097 101.836 175.058 102.797 176.244 102.797C177.431 102.797 178.392 101.836 178.392 100.65L178.397 100.53L178.394 32.9249C178.483 30.0805 177.453 27.4055 175.486 25.3749C173.547 23.3722 170.85 22.2222 168.086 22.2222H24.3834C18.6945 22.2222 13.8889 27.0277 13.8889 32.7166V153.142C13.8889 158.831 18.6945 163.636 24.3834 163.636H130.995L131.011 163.633C132.2 163.633 133.164 162.669 133.164 161.48C133.167 160.289 132.203 159.328 131.014 159.328ZM18.3806 32.8999C18.3806 29.4888 21.0751 26.7138 24.3834 26.7138H167.903C171.158 26.7138 173.906 29.4611 173.906 32.7166V56.3138H18.3779L18.3806 32.8999Z" fill="#133DBD"/>
    <circle cx="147.656" cy="142.469" r="41.4062" fill="#E4EAF5"/>
    <circle cx="150.781" cy="136.219" r="38.2812" fill="#65D78D"/>
    <circle cx="128.125" cy="124.5" r="20.3125" fill="white"/>
    <circle cx="181.25" cy="147.938" r="9.375" fill="white"/>
    <rect x="115.285" y="106.407" width="5.68598" height="22.7439" rx="1" transform="rotate(-45 115.285 106.407)" fill="#133DBD"/>
    <rect x="139.409" y="130.531" width="5.68598" height="22.7439" rx="1" transform="rotate(-45 139.409 130.531)" fill="#133DBD"/>
    <rect x="119.306" y="146.613" width="5.68598" height="22.7439" rx="1" transform="rotate(-135 119.306 146.613)" fill="#133DBD"/>
    <rect x="143.429" y="122.49" width="5.68598" height="22.7439" rx="1" transform="rotate(-135 143.429 122.49)" fill="#133DBD"/>
    <rect x="108.968" y="127.343" width="5.68598" height="15.5697" rx="1" transform="rotate(-90 108.968 127.343)" fill="#133DBD"/>
    <rect x="150.24" y="127.343" width="5.68598" height="15.5878" rx="1" transform="rotate(-90 150.24 127.343)" fill="#133DBD"/>
    <rect x="140.241" y="152.931" width="5.68598" height="15.5697" rx="1" transform="rotate(180 140.241 152.931)" fill="#133DBD"/>
    <rect x="140.241" y="111.658" width="5.68598" height="15.5878" rx="1" transform="rotate(180 140.241 111.658)" fill="#133DBD"/>
</svg>
