<svg width="400" height="400" viewBox="0 0 400 400" fill="none" xmlns="http://www.w3.org/2000/svg">
    <g clip-path="url(#clip0_1_4893)">
        <ellipse cx="195.854" cy="167.086" rx="186" ry="153.928" transform="rotate(29.5242 195.854 167.086)" fill="#C4D3E4"/>
        <path d="M164.63 60H132.63V112H144.385V76.98H164.63V60Z" fill="#CCFF69"/>
        <path d="M144.385 114.5H132.63C131.25 114.5 130.13 113.38 130.13 112V60C130.13 58.62 131.25 57.5 132.63 57.5H164.63C166.01 57.5 167.13 58.62 167.13 60V76.98C167.13 78.36 166.01 79.48 164.63 79.48H146.885V112C146.885 113.38 145.765 114.5 144.385 114.5ZM135.13 109.5H141.885V76.98C141.885 75.6 143.005 74.48 144.385 74.48H162.13V62.5H135.13V109.5Z" fill="#0022CD"/>
        <path d="M208.75 233H182.75V390.5H208.75V233Z" fill="#EBF0F6"/>
        <path d="M208.75 393H182.75C181.37 393 180.25 391.88 180.25 390.5V233C180.25 231.62 181.37 230.5 182.75 230.5H208.75C210.13 230.5 211.25 231.62 211.25 233V390.5C211.25 391.88 210.13 393 208.75 393ZM185.25 388H206.25V235.5H185.25V388Z" fill="#0022CD"/>
        <path d="M245.75 393H145.75C144.37 393 143.25 391.88 143.25 390.5C143.25 389.12 144.37 388 145.75 388H245.75C247.13 388 248.25 389.12 248.25 390.5C248.25 391.88 247.13 393 245.75 393Z" fill="#0022CD"/>
        <path d="M206.25 235H185.25V242.5H206.25V235Z" fill="#CCFF69"/>
        <path d="M250.75 103H142.75C112.925 103 88.75 127.175 88.75 157V233H304.75V157C304.75 127.175 280.575 103 250.75 103Z" fill="white"/>
        <path d="M304.75 235.5H88.75C87.37 235.5 86.25 234.38 86.25 233V157C86.25 125.845 111.595 100.5 142.75 100.5H250.75C281.905 100.5 307.25 125.845 307.25 157V233C307.25 234.38 306.13 235.5 304.75 235.5ZM91.25 230.5H302.25V157C302.25 128.605 279.145 105.5 250.75 105.5H142.75C114.355 105.5 91.25 128.605 91.25 157V230.5Z" fill="#0022CD"/>
        <path d="M232.75 160C235.511 160 237.75 157.761 237.75 155C237.75 152.239 235.511 150 232.75 150C229.989 150 227.75 152.239 227.75 155C227.75 157.761 229.989 160 232.75 160Z" fill="#0022CD"/>
        <path d="M265.75 160C268.511 160 270.75 157.761 270.75 155C270.75 152.239 268.511 150 265.75 150C262.989 150 260.75 152.239 260.75 155C260.75 157.761 262.989 160 265.75 160Z" fill="#0022CD"/>
        <path d="M249.75 207.25C236.79 207.25 226.25 196.71 226.25 183.75C226.25 182.37 227.37 181.25 228.75 181.25C230.13 181.25 231.25 182.37 231.25 183.75C231.25 193.95 239.55 202.25 249.75 202.25C259.95 202.25 268.25 193.95 268.25 183.75C268.25 182.37 269.37 181.25 270.75 181.25C272.13 181.25 273.25 182.37 273.25 183.75C273.25 196.71 262.71 207.25 249.75 207.25Z" fill="#0022CD"/>
        <path d="M142.75 103C172.575 103 196.75 127.175 196.75 157V233H88.75V157C88.75 127.175 112.925 103 142.75 103Z" fill="white"/>
        <path d="M196.75 235.5H88.75C87.37 235.5 86.25 234.38 86.25 233V157C86.25 125.845 111.595 100.5 142.75 100.5C173.905 100.5 199.25 125.845 199.25 157V233C199.25 234.38 198.13 235.5 196.75 235.5ZM91.25 230.5H194.25V157C194.25 128.605 171.145 105.5 142.75 105.5C114.355 105.5 91.25 128.605 91.25 157V230.5Z" fill="#0022CD"/>
    </g>
    <defs>
        <clipPath id="clip0_1_4893">
            <rect width="400" height="400" fill="white"/>
        </clipPath>
    </defs>
</svg>
