<svg width="273" height="70" viewBox="0 0 273 70" xmlns="http://www.w3.org/2000/svg">
    <path d="M8 66L272 66" stroke="#133DBD" stroke-width="1.8" stroke-linecap="round"/>
    <path d="M23 70C25.7614 70 28 67.7614 28 65C28 62.2386 25.7614 60 23 60C20.2386 60 18 62.2386 18 65C18 67.7614 20.2386 70 23 70Z" fill="#65D78D"/>
    <path d="M175.603 46.79C177.199 46.79 178.493 45.4595 178.493 43.8183C178.493 42.1771 177.199 40.8466 175.603 40.8466C174.007 40.8466 172.713 42.1771 172.713 43.8183C172.713 45.4595 174.007 46.79 175.603 46.79Z" fill="white"/>
    <path d="M175.603 47.0355C172.408 47.0355 169.823 49.7023 169.823 52.9873C169.823 56.2722 172.408 58.9306 175.603 58.9306C178.797 58.9306 181.383 56.2722 181.383 52.9873C181.383 49.7023 178.797 47.0355 175.603 47.0355Z" fill="white"/>
    <path d="M182.206 52.9873C182.206 50.1257 180.477 47.6789 178.04 46.6799C178.814 45.9772 179.316 44.9613 179.316 43.8183C179.316 41.7102 177.653 40 175.603 40C173.553 40 171.89 41.7102 171.89 43.8183C171.89 44.9613 172.392 45.9772 173.166 46.6799C170.729 47.6789 169 50.1257 169 52.9873C169 56.4416 171.528 59.3032 174.78 59.718V66.1101H176.426V59.718C179.678 59.2947 182.206 56.4416 182.206 52.9873ZM175.603 41.6933C176.739 41.6933 177.669 42.65 177.669 43.8183C177.669 44.9866 176.747 45.9433 175.603 45.9433C174.459 45.9433 173.536 44.9951 173.536 43.8183C173.536 42.6415 174.467 41.6933 175.603 41.6933ZM175.603 58.084C172.87 58.084 170.647 55.7981 170.647 52.9873C170.647 50.1765 172.87 47.8906 175.603 47.8906C178.336 47.8906 180.559 50.1765 180.559 52.9873C180.559 55.7981 178.336 58.084 175.603 58.084Z" fill="#133DBD"/>
    <path d="M153.004 35.8331C155.527 35.8331 157.573 33.8222 157.573 31.3426C157.573 28.863 155.527 26.8521 153.004 26.8521C150.482 26.8521 148.436 28.863 148.436 31.3426C148.436 33.8222 150.482 35.8331 153.004 35.8331Z" fill="#65D78D"/>
    <path d="M153.004 36.208C147.959 36.208 143.876 40.2213 143.876 45.1805C143.876 50.1396 147.959 54.153 153.004 54.153C158.05 54.153 162.133 50.1396 162.133 45.1805C162.133 40.2213 158.041 36.208 153.004 36.208Z" fill="#65D78D"/>
    <path d="M163 45.1805C163 40.7837 160.044 37.0516 155.987 35.799C157.46 34.8447 158.431 33.2001 158.431 31.3426C158.431 28.3944 155.995 26 153.004 26C150.005 26 147.569 28.3944 147.569 31.3426C147.569 33.2001 148.54 34.8447 150.013 35.799C145.956 37.0516 143 40.7837 143 45.1719C143 50.3015 147.023 54.5193 152.129 54.9539V64.9915H153.863V54.9624C158.977 54.5279 163 50.31 163 45.1805ZM153.004 27.7127C155.042 27.7127 156.697 29.3402 156.697 31.3511C156.697 33.3535 155.042 34.981 153.004 34.981C150.967 34.981 149.303 33.3535 149.303 31.3511C149.303 29.3487 150.958 27.7127 153.004 27.7127ZM153.004 53.3009C148.453 53.3009 144.743 49.6539 144.743 45.1805C144.743 40.707 148.453 37.0601 153.004 37.0601C157.556 37.0601 161.266 40.707 161.266 45.1805C161.266 49.6539 157.556 53.3009 153.004 53.3009Z" fill="#133DBD"/>
    <path d="M255.264 19L246.005 53.28H264.514L255.264 19Z" fill="white"/>
    <path d="M265.474 53.02L256.224 18.74C256.104 18.3 255.715 18 255.255 18C254.795 18 254.405 18.3 254.285 18.74L245.035 53.02C244.955 53.32 245.015 53.64 245.205 53.89C245.395 54.14 245.685 54.28 245.995 54.28H254.245V64.75C254.245 65.3 254.695 65.75 255.245 65.75C255.795 65.75 256.245 65.3 256.245 64.75V54.28H264.495C264.805 54.28 265.095 54.14 265.285 53.89C265.475 53.64 265.564 53.32 265.474 53.02ZM247.315 52.28L255.265 22.84L263.215 52.28H247.315Z" fill="#133DBD"/>
    <path d="M242 56.8478C248.627 56.8478 254 51.5093 254 44.9239C254 38.3385 248.627 33 242 33C235.373 33 230 38.3385 230 44.9239C230 51.5093 235.373 56.8478 242 56.8478Z" fill="#65D78D"/>
    <path d="M245.624 50.6133C245.261 50.3907 244.782 50.4982 244.558 50.859L242.695 53.815V41.799C242.695 41.3767 242.348 41.0312 241.923 41.0312C241.498 41.0312 241.15 41.3767 241.15 41.799V46.7743L238.592 44.3711C238.283 44.0794 237.797 44.0947 237.503 44.4018C237.209 44.7089 237.225 45.1927 237.534 45.4844L241.15 48.8934V65.2322C241.15 65.6545 241.498 66 241.923 66C242.348 66 242.695 65.6545 242.695 65.2322V56.5868C242.78 56.5254 242.858 56.4563 242.912 56.3641L245.863 51.6729C246.095 51.312 245.987 50.836 245.624 50.6133Z" fill="#133DBD"/>
    <path d="M43.1875 29.2691C42.4866 29.2691 41.8001 29.3408 41.1354 29.4842C39.6252 28.5449 37.8405 28 35.9256 28C32.7463 28 29.9283 29.4985 28.1291 31.8215C28.0207 31.8215 27.9196 31.8143 27.8112 31.8143C20.7372 31.8143 15 37.5072 15 44.5264C15 51.5457 20.7372 57.2385 27.8112 57.2385C33.5773 57.2385 38.4546 53.46 40.0588 48.2619C41.0415 48.5917 42.0892 48.7709 43.1803 48.7709C48.6068 48.7709 53 44.4117 53 39.0272C53 33.6426 48.6068 29.2691 43.1875 29.2691Z" fill="#65D78D"/>
    <path d="M45.0084 38.5325C44.741 38.2385 44.2858 38.2098 43.9896 38.4751L43.4187 38.977L43.8956 36.611C43.9751 36.2238 43.7222 35.8438 43.332 35.7649C42.9418 35.6861 42.5589 35.937 42.4794 36.3242L41.6268 40.5544L36.2219 45.3151V37.7079C36.2219 37.3136 35.8968 36.991 35.4993 36.991C35.1019 36.991 34.7768 37.3136 34.7768 37.7079V49.8966L29.2852 44.8132L31.3012 42.9204C31.5902 42.6479 31.6047 42.1962 31.3301 41.9094C31.0555 41.6227 30.6003 41.6083 30.3113 41.8808L28.2303 43.8381L27.0308 42.7268C26.7346 42.4544 26.2793 42.4759 26.012 42.7627C25.7374 43.0494 25.7591 43.5083 26.0481 43.7736L27.6089 45.2219L23.6564 44.6627C23.259 44.6053 22.8977 44.8778 22.8399 45.2721C22.7821 45.6664 23.0567 46.0249 23.4541 46.0823L29.4297 46.9283C29.437 46.9283 29.4442 46.9283 29.4586 46.9283L34.7912 51.8611V65.283C34.7912 65.6774 35.1164 66 35.5138 66C35.9112 66 36.2364 65.6774 36.2364 65.283V47.2366L39.5674 44.297C39.5963 44.297 39.618 44.297 39.6469 44.2898L43.9028 43.2932C44.293 43.2 44.5315 42.8128 44.4375 42.4328C44.3436 42.0457 43.9534 41.8091 43.5704 41.9023L41.8291 42.311L44.965 39.5506C45.2468 39.2853 45.2757 38.8336 45.0084 38.5325Z" fill="#133DBD"/>
    <path d="M215.771 4.80679V1.59326H207.466V4.80679H201.08V11.2255H203V19.5739H183.835V25.9926H185.755V65.7968H203H220.245V11.2255H222.157V4.80679H215.771Z" fill="white"/>
    <path d="M188.626 16.0416H186.072V19.2551H188.626V16.0416Z" fill="white"/>
    <path d="M198.526 48.4622H190.22V65.7968H198.526V48.4622Z" fill="#A8BEEA"/>
    <path d="M209.703 24.3817H206.506V29.5166H209.703V24.3817Z" fill="#A8BEEA"/>
    <path d="M206.506 21.0506H209.703C210.162 21.0506 210.537 20.6731 210.537 20.2116V15.0767C210.537 14.6152 210.162 14.2376 209.703 14.2376H206.506C206.047 14.2376 205.671 14.6152 205.671 15.0767V20.2116C205.671 20.6731 206.047 21.0506 206.506 21.0506ZM207.34 15.9157H208.868V19.3725H207.34V15.9157Z" fill="#133DBD"/>
    <path d="M212.9 21.0506H216.097C216.556 21.0506 216.932 20.6731 216.932 20.2116V15.0767C216.932 14.6152 216.556 14.2376 216.097 14.2376H212.9C212.441 14.2376 212.065 14.6152 212.065 15.0767V20.2116C212.065 20.6731 212.432 21.0506 212.9 21.0506ZM213.735 15.9157H215.262V19.3725H213.735V15.9157Z" fill="#133DBD"/>
    <path d="M206.506 30.364H209.703C210.162 30.364 210.537 29.9865 210.537 29.525V24.3901C210.537 23.9286 210.162 23.551 209.703 23.551H206.506C206.047 23.551 205.671 23.9286 205.671 24.3901V29.525C205.671 29.9865 206.047 30.364 206.506 30.364ZM207.34 25.2207H208.868V28.6776H207.34V25.2207Z" fill="#133DBD"/>
    <path d="M212.9 30.364H216.097C216.556 30.364 216.932 29.9865 216.932 29.525V24.3901C216.932 23.9286 216.556 23.551 216.097 23.551H212.9C212.441 23.551 212.065 23.9286 212.065 24.3901V29.525C212.065 29.9865 212.432 30.364 212.9 30.364ZM213.735 25.2207H215.262V28.6776H213.735V25.2207Z" fill="#133DBD"/>
    <path d="M206.506 39.669H209.703C210.162 39.669 210.537 39.2914 210.537 38.8299V33.695C210.537 33.2335 210.162 32.856 209.703 32.856H206.506C206.047 32.856 205.671 33.2335 205.671 33.695V38.8299C205.671 39.2914 206.047 39.669 206.506 39.669ZM207.34 34.534H208.868V37.9909H207.34V34.534Z" fill="#133DBD"/>
    <path d="M212.9 39.669H216.097C216.556 39.669 216.932 39.2914 216.932 38.8299V33.695C216.932 33.2335 216.556 32.856 216.097 32.856H212.9C212.441 32.856 212.065 33.2335 212.065 33.695V38.8299C212.065 39.2914 212.432 39.669 212.9 39.669ZM213.735 34.534H215.262V37.9909H213.735V34.534Z" fill="#133DBD"/>
    <path d="M206.506 48.9823H209.703C210.162 48.9823 210.537 48.6048 210.537 48.1433V43.0084C210.537 42.5469 210.162 42.1693 209.703 42.1693H206.506C206.047 42.1693 205.671 42.5469 205.671 43.0084V48.1433C205.671 48.6048 206.047 48.9823 206.506 48.9823ZM207.34 43.8474H208.868V47.3042H207.34V43.8474Z" fill="#133DBD"/>
    <path d="M212.9 48.9823H216.097C216.556 48.9823 216.932 48.6048 216.932 48.1433V43.0084C216.932 42.5469 216.556 42.1693 216.097 42.1693H212.9C212.441 42.1693 212.065 42.5469 212.065 43.0084V48.1433C212.065 48.6048 212.432 48.9823 212.9 48.9823ZM213.735 43.8474H215.262V47.3042H213.735V43.8474Z" fill="#133DBD"/>
    <path d="M206.506 58.2873H209.703C210.162 58.2873 210.537 57.9098 210.537 57.4483V52.3133C210.537 51.8519 210.162 51.4743 209.703 51.4743H206.506C206.047 51.4743 205.671 51.8519 205.671 52.3133V57.4483C205.671 57.9098 206.047 58.2873 206.506 58.2873ZM207.34 53.1524H208.868V56.6092H207.34V53.1524Z" fill="#133DBD"/>
    <path d="M212.9 58.2873H216.097C216.556 58.2873 216.932 57.9098 216.932 57.4483V52.3133C216.932 51.8519 216.556 51.4743 216.097 51.4743H212.9C212.441 51.4743 212.065 51.8519 212.065 52.3133V57.4483C212.065 57.9098 212.432 58.2873 212.9 58.2873ZM213.735 53.1524H215.262V56.6092H213.735V53.1524Z" fill="#133DBD"/>
    <path d="M222.157 3.9678H216.606V1.59331C216.606 1.13184 216.23 0.754272 215.771 0.754272H207.466C207.007 0.754272 206.631 1.13184 206.631 1.59331V3.9678H201.08C200.621 3.9678 200.245 4.34537 200.245 4.80685V11.2255C200.245 11.687 200.621 12.0646 201.08 12.0646H202.165V18.7349H189.461V16.0416C189.461 15.5801 189.085 15.2026 188.626 15.2026H186.072C185.613 15.2026 185.237 15.5801 185.237 16.0416V18.7349H183.835C183.376 18.7349 183 19.1125 183 19.574V25.9927C183 26.4541 183.376 26.8317 183.835 26.8317H184.912V65.7968C184.912 66.2583 185.287 66.6359 185.746 66.6359H190.22H198.526H203H220.245C220.705 66.6359 221.08 66.2583 221.08 65.7968V12.0646H222.165C222.624 12.0646 223 11.687 223 11.2255V4.80685C222.992 4.33698 222.616 3.9678 222.157 3.9678ZM186.907 16.8807H187.791V18.4161H186.907V16.8807ZM197.691 64.9578H191.055V49.3013H197.691V64.9578ZM202.165 64.9578H199.361V48.4622C199.361 48.0007 198.985 47.6232 198.526 47.6232H190.22C189.761 47.6232 189.386 48.0007 189.386 48.4622V64.9578H186.581V26.8317H202.157V64.9578H202.165ZM202.165 25.1536H185.746H184.669V20.413H202.165V25.1536ZM208.301 2.43236H214.937V3.9678H208.301V2.43236ZM219.411 64.9578H203.835V25.9927V19.574V12.0646H219.411V64.9578ZM221.322 10.3865H220.237H203H201.915V5.64589H207.466H215.771H221.322V10.3865Z" fill="#133DBD"/>
    <path d="M137.214 43.5781H63.2061V65.9263H137.214V43.5781Z" fill="white"/>
    <path d="M81.9576 30.6129H86.2819L81.6117 25.0123L79.709 22.7398L73.034 14.7511L66.3589 22.7398L64.4641 25.0123L59.786 30.6129H64.1181H81.9576Z" fill="white"/>
    <path d="M79.0329 33.5634H66.4532V40.4966H79.0329V33.5634Z" fill="white"/>
    <path d="M137.214 66.6966H63.2061C62.7737 66.6966 62.4199 66.3499 62.4199 65.9262V43.578C62.4199 43.1543 62.7737 42.8077 63.2061 42.8077H137.214C137.646 42.8077 138 43.1543 138 43.578V65.9262C138 66.3576 137.654 66.6966 137.214 66.6966ZM63.9923 65.1559H136.428V44.3484H63.9923V65.1559Z" fill="#133DBD"/>
    <path d="M129.226 32.793H71.2021L63.2061 43.5857H137.214L129.226 32.793Z" fill="#315ED1"/>
    <path d="M113.187 44.6566L108.603 37.7464L106.747 34.9423L100.214 25.0894L93.6803 34.9423L91.8169 37.7464L87.2411 44.6566H88.8135V67.4593H111.614V44.6566H113.187Z" fill="white"/>
    <path d="M104.9 48.2002H95.465V63.6074H104.9V48.2002Z" fill="#A8BEEA"/>
    <path d="M105.482 63.6075H94.8832V65.9186H105.482V63.6075Z" fill="white"/>
    <path d="M93.924 41.267C93.924 41.5366 93.9476 41.8216 93.9948 42.1452C94.0498 42.5227 94.38 42.8077 94.7731 42.8077H105.655C106.048 42.8077 106.378 42.5227 106.433 42.1452C106.48 41.8139 106.504 41.5366 106.504 41.267C106.504 37.8697 103.681 35.1041 100.214 35.1041C96.7466 35.1041 93.924 37.8697 93.924 41.267ZM104.931 41.267H95.4965C95.4965 38.7171 97.6114 36.6448 100.214 36.6448C102.816 36.6448 104.931 38.7171 104.931 41.267Z" fill="#133DBD"/>
    <path d="M85.4171 49.741H77.5548C77.1224 49.741 76.7686 50.0876 76.7686 50.5113V53.5928V60.526C76.7686 60.9497 77.1224 61.2964 77.5548 61.2964H85.4171C85.8495 61.2964 86.2033 60.9497 86.2033 60.526V53.5928V50.5113C86.2033 50.0876 85.8574 49.741 85.4171 49.741ZM84.6308 59.7557H78.341V54.3631H84.6308V59.7557ZM84.6308 52.8224H78.341V51.2817H84.6308V52.8224Z" fill="#133DBD"/>
    <path d="M74.3155 49.741H66.4532C66.0208 49.741 65.667 50.0876 65.667 50.5113V53.5928V60.526C65.667 60.9497 66.0208 61.2964 66.4532 61.2964H74.3155C74.7479 61.2964 75.1017 60.9497 75.1017 60.526V53.5928V50.5113C75.1017 50.0876 74.7558 49.741 74.3155 49.741ZM73.5293 59.7557H67.2394V54.3631H73.5293V59.7557ZM73.5293 52.8224H67.2394V51.2817H73.5293V52.8224Z" fill="#133DBD"/>
    <path d="M122.37 49.741H114.507C114.075 49.741 113.721 50.0876 113.721 50.5113V53.5928V60.526C113.721 60.9497 114.075 61.2964 114.507 61.2964H122.37C122.802 61.2964 123.156 60.9497 123.156 60.526V53.5928V50.5113C123.156 50.0876 122.81 49.741 122.37 49.741ZM121.584 59.7557H115.294V54.3631H121.584V59.7557ZM121.584 52.8224H115.294V51.2817H121.584V52.8224Z" fill="#133DBD"/>
    <path d="M133.283 49.741H125.42C124.988 49.741 124.634 50.0876 124.634 50.5113V53.5928V60.526C124.634 60.9497 124.988 61.2964 125.42 61.2964H133.283C133.715 61.2964 134.069 60.9497 134.069 60.526V53.5928V50.5113C134.069 50.0876 133.723 49.741 133.283 49.741ZM132.496 59.7557H126.207V54.3631H132.496V59.7557ZM132.496 52.8224H126.207V51.2817H132.496V52.8224Z" fill="#133DBD"/>
    <path d="M82.8618 27.4005H63.2061V43.5781H82.8618V27.4005Z" fill="white"/>
    <path d="M73.0339 26.6301C74.3366 26.6301 75.3926 25.5954 75.3926 24.319C75.3926 23.0426 74.3366 22.0079 73.0339 22.0079C71.7313 22.0079 70.6752 23.0426 70.6752 24.319C70.6752 25.5954 71.7313 26.6301 73.0339 26.6301Z" fill="#A8BEEA"/>
    <path d="M86.8952 30.1275L73.6472 14.2658C73.3484 13.9114 72.7273 13.9114 72.4286 14.2658L59.1806 30.1275C58.984 30.3586 58.9447 30.6745 59.0784 30.9441C59.2042 31.2137 59.4794 31.3832 59.786 31.3832H62.4199V43.5781C62.4199 44.0017 62.7737 44.3484 63.2061 44.3484H82.8618C83.2942 44.3484 83.648 44.0017 83.648 43.5781V31.3832H86.2819C86.5885 31.3832 86.8637 31.2137 86.9895 30.9441C87.1232 30.6745 87.0839 30.3586 86.8952 30.1275ZM81.9576 29.8425C81.5252 29.8425 81.1714 30.1892 81.1714 30.6129C81.1714 31.0366 81.5252 31.3832 81.9576 31.3832H82.0756V42.8077H63.9923V31.3832H64.1103C64.5427 31.3832 64.8965 31.0366 64.8965 30.6129C64.8965 30.1892 64.5427 29.8425 64.1103 29.8425H61.4371L73.0261 15.9683L84.623 29.8425H81.9576Z" fill="#133DBD"/>
    <path d="M69.889 24.319C69.889 26.0215 71.2964 27.4004 73.034 27.4004C74.7715 27.4004 76.1789 26.0215 76.1789 24.319C76.1789 22.6165 74.7715 21.2375 73.034 21.2375C71.2964 21.2375 69.889 22.6165 69.889 24.319ZM74.6064 24.319C74.6064 25.1664 73.8988 25.8597 73.034 25.8597C72.1691 25.8597 71.4615 25.1664 71.4615 24.319C71.4615 23.4716 72.1691 22.7783 73.034 22.7783C73.8988 22.7783 74.6064 23.4716 74.6064 24.319Z" fill="#133DBD"/>
    <path d="M65.667 33.5633V40.4966C65.667 40.9203 66.0208 41.267 66.4532 41.267H79.0329C79.4653 41.267 79.8191 40.9203 79.8191 40.4966V33.5633C79.8191 33.1396 79.4653 32.793 79.0329 32.793H66.4532C66.0208 32.793 65.667 33.1396 65.667 33.5633ZM67.2394 34.3337H78.2466V39.7262H67.2394V34.3337Z" fill="#133DBD"/>
    <path d="M129.91 41.2131L127.355 36.6063L126.317 34.742L122.669 28.1708L119.028 34.742L117.991 36.6063L115.435 41.2131H117.802L117.629 45.3884H127.716L127.543 41.2131H129.91Z" fill="white"/>
    <path d="M124.634 38.0699H120.703V42.3146H124.634V38.0699Z" fill="white"/>
    <path d="M130.602 40.8433L123.36 27.801C123.085 27.308 122.252 27.308 121.977 27.801L114.736 40.8433C114.602 41.0821 114.61 41.3748 114.751 41.6059C114.893 41.837 115.152 41.9834 115.427 41.9834H116.976L116.835 45.3576C116.827 45.5656 116.906 45.7736 117.055 45.92C117.204 46.074 117.409 46.1588 117.621 46.1588H127.708C127.921 46.1588 128.125 46.074 128.274 45.92C128.424 45.7659 128.502 45.5656 128.495 45.3576L128.353 41.9834H129.902C130.177 41.9834 130.437 41.837 130.578 41.6059C130.727 41.3748 130.735 41.0821 130.602 40.8433ZM127.543 40.4427C127.331 40.4427 127.126 40.5274 126.977 40.6815C126.828 40.8356 126.749 41.0359 126.757 41.2439L126.898 44.6181H118.447L118.588 41.2439C118.596 41.0359 118.517 40.8279 118.368 40.6815C118.219 40.5274 118.014 40.4427 117.802 40.4427H116.756L122.669 29.7886L128.581 40.4427H127.543Z" fill="#133DBD"/>
    <path d="M119.917 38.07V42.3147C119.917 42.7384 120.271 43.085 120.703 43.085H124.634C125.067 43.085 125.42 42.7384 125.42 42.3147V38.07C125.42 37.6463 125.067 37.2996 124.634 37.2996H120.703C120.271 37.2996 119.917 37.6463 119.917 38.07ZM121.489 38.8403H123.848V41.5443H121.489V38.8403Z" fill="#133DBD"/>
    <path d="M107.337 65.9186H93.0198V68.2297H107.337V65.9186Z" fill="white"/>
    <path d="M107.337 65.1482H106.26V63.6075C106.26 63.2531 106.008 62.9681 105.678 62.8756V48.2002C105.678 47.7765 105.324 47.4299 104.892 47.4299H95.4572C95.0247 47.4299 94.6709 47.7765 94.6709 48.2002V62.8756C94.3407 62.9681 94.0891 63.2531 94.0891 63.6075V65.1482H93.012C92.5796 65.1482 92.2258 65.4949 92.2258 65.9186V68.2296C92.2258 68.6533 92.5796 69 93.012 69H107.329C107.762 69 108.115 68.6533 108.115 68.2296V65.9186C108.123 65.4949 107.777 65.1482 107.337 65.1482ZM96.2513 48.9706H104.114V62.8371H96.2513V48.9706ZM95.6694 64.3778H104.695V65.1482H95.6694V64.3778ZM106.551 67.4593H93.8061V66.6889H94.8832H105.482H106.559V67.4593H106.551Z" fill="#133DBD"/>
    <path d="M137.851 43.1389L129.863 32.3384C129.713 32.1381 129.477 32.0226 129.226 32.0226H124.642L125.515 33.5633H128.825L129.965 35.104H126.387L127.26 36.6448H131.097L132.811 38.9558H128.565L129.438 40.4966H133.762C133.825 40.4966 133.872 40.4735 133.927 40.4657L135.673 42.8154H127.606L127.669 44.3561H137.214C137.513 44.3561 137.78 44.1943 137.914 43.9324C138.047 43.6705 138.024 43.37 137.851 43.1389Z" fill="#133DBD"/>
    <path d="M100.874 24.6733C100.733 24.4576 100.481 24.319 100.214 24.319C99.9465 24.319 99.7028 24.4499 99.5534 24.6733L94.6788 32.0226H82.8618V33.5633H93.6567L92.6346 35.104H82.8618V36.6448H91.6125L90.0794 38.9558H82.8618V40.4966H89.0573L87.5163 42.8154H82.8618V43.578H63.2061L63.214 42.2607L62.5693 43.1389C62.3963 43.37 62.3727 43.6859 62.5064 43.9401C62.64 44.1943 62.9073 44.3638 63.2061 44.3638H86.5178C86.4234 44.5795 86.4313 44.8183 86.5414 45.0263C86.675 45.2728 86.9423 45.4269 87.2332 45.4269H88.0195V67.4592C88.0195 67.8829 88.3733 68.2296 88.8057 68.2296H111.606C112.039 68.2296 112.393 67.8829 112.393 67.4592V45.4269H113.179C113.47 45.4269 113.729 45.2728 113.871 45.0263C113.989 44.8183 113.989 44.5718 113.894 44.3638H117.566L117.495 42.8231H112.896L111.355 40.5043H115.97L116.827 38.9636H110.333L108.799 36.6525H118.108L118.965 35.1117H107.793L106.771 33.571H119.838L120.695 32.0303H105.749L100.874 24.6733ZM110.875 44.2868C110.875 44.6026 110.828 45.4038 110.828 45.5116V66.6889H89.5998V45.5733C89.5998 45.4654 89.5762 44.6334 89.5683 44.333C89.5526 43.8785 88.6799 43.9093 88.6799 43.9093L100.222 26.5068L111.842 43.9324C111.834 43.9324 110.875 43.7321 110.875 44.2868Z" fill="#133DBD"/>
    <path d="M106.81 66.5117H93.6489V67.675H106.81V66.5117Z" fill="white"/>
    <path d="M62.4442 57.8C60.0736 57.8 58.0463 59.208 57.1717 61.216C56.7711 61.088 56.3461 61 55.9046 61C53.6485 61 51.8174 62.792 51.8174 65C51.8174 66.312 52.4714 67.472 53.4768 68.2H58.3406C58.5286 68.064 58.7003 67.92 58.8638 67.76C59.0681 67.92 59.2888 68.072 59.5177 68.2H65.3869C67.0545 67.224 68.1744 65.44 68.1744 63.4C68.1662 60.312 65.6076 57.8 62.4442 57.8Z" fill="#65D78D"/>
    <path d="M62.4441 57C60.0491 57 57.891 58.272 56.7466 60.288C56.4605 60.232 56.1826 60.2 55.9046 60.2C53.1989 60.2 51 62.352 51 65C51 66.52 51.7275 67.92 52.9864 68.84L53.2071 69H58.6104L58.8311 68.84C58.8638 68.816 58.8883 68.792 58.921 68.776C58.9782 68.816 59.0354 68.848 59.1008 68.888L59.297 69H65.624L65.8202 68.888C67.8147 67.72 69 65.664 69 63.4C68.9837 59.872 66.0491 57 62.4441 57ZM53.7629 67.4C53.0436 66.792 52.6349 65.928 52.6349 65C52.6349 63.232 54.0981 61.8 55.9046 61.8C55.97 61.8 56.0436 61.8 56.109 61.808C56.1008 61.848 56.0926 61.888 56.0845 61.936C56.0436 62.104 56.0109 62.272 55.9864 62.448C55.9782 62.52 55.9619 62.592 55.9537 62.672C55.9292 62.912 55.9046 63.16 55.9046 63.408C55.9046 63.624 55.921 63.84 55.9455 64.056C55.9537 64.12 55.9618 64.184 55.97 64.248C55.9945 64.408 56.0191 64.56 56.0518 64.712C56.0681 64.776 56.0763 64.84 56.0926 64.904C56.1417 65.088 56.1907 65.272 56.2561 65.448C56.2643 65.472 56.2725 65.496 56.2806 65.52C56.3542 65.72 56.436 65.912 56.5259 66.104C56.5504 66.16 56.5831 66.216 56.6076 66.264C56.6812 66.4 56.7548 66.536 56.8365 66.672C56.8692 66.728 56.9101 66.792 56.9428 66.848C57.0409 66.992 57.139 67.136 57.2452 67.272C57.2697 67.304 57.2943 67.336 57.3188 67.368C57.327 67.376 57.327 67.384 57.3352 67.392H53.7629V67.4ZM65.1499 67.4H59.7466C59.6158 67.32 59.4932 67.232 59.3706 67.136C58.2098 66.216 57.5395 64.856 57.5395 63.4C57.5395 62.752 57.6703 62.12 57.9237 61.528C58.6921 59.752 60.4659 58.6 62.4441 58.6C65.1499 58.6 67.3488 60.752 67.3488 63.4C67.3488 65.032 66.5313 66.512 65.1499 67.4Z" fill="#133DBD"/>
</svg>
