<svg width="417" height="200" viewBox="0 0 417 200" fill="none" xmlns="http://www.w3.org/2000/svg">
    <path d="M153.926 80.4795L116.37 198.014H279.11L244.062 80.4795H153.926Z" fill="#CCFF69"/>
    <path d="M200.452 19H195.932V31.6575H200.452V19Z" fill="#0022CD"/>
    <path d="M246.562 83.1918H151.63V80.7551C151.634 75.6478 153.614 70.7508 157.134 67.1394C160.654 63.5279 165.428 61.4972 170.406 61.4932H227.801C232.777 61.5013 237.546 63.5338 241.063 67.1448C244.58 70.7558 246.558 75.6505 246.562 80.7551V83.1918ZM156.531 78.3185H241.616C241.053 74.9766 239.359 71.9456 236.832 69.7592C234.305 67.5729 231.107 66.3715 227.801 66.3665H170.406C167.09 66.3569 163.877 67.5517 161.338 69.7394C158.798 71.927 157.095 74.9661 156.531 78.3185Z" fill="#0022CD"/>
    <path d="M230.242 63.3014H225.474V59.2931C225.149 52.6912 222.225 46.4642 217.308 41.9036C212.391 37.343 205.859 34.7988 199.066 34.7988C192.272 34.7988 185.74 37.343 180.823 41.9036C175.906 46.4642 172.982 52.6912 172.658 59.2931V63.3014H167.904V59.2931C167.904 51.2444 171.19 43.5252 177.04 37.8339C182.89 32.1426 190.823 28.9452 199.096 28.9452C207.368 28.9452 215.302 32.1426 221.152 37.8339C227.001 43.5252 230.288 51.2444 230.288 59.2931L230.242 63.3014Z" fill="#0022CD"/>
    <path d="M200.452 101.274H195.932V109.411H200.452V101.274Z" fill="white"/>
    <path d="M219.999 95.9552L215.683 97.9676L219.154 105.41L223.47 103.398L219.999 95.9552Z" fill="white"/>
    <path d="M177.462 95.9416L173.99 103.384L178.305 105.397L181.777 97.9547L177.462 95.9416Z" fill="white"/>
    <path d="M199.096 55.1644C202.841 55.1644 205.877 51.9261 205.877 47.9315C205.877 43.9369 202.841 40.6986 199.096 40.6986C195.351 40.6986 192.315 43.9369 192.315 47.9315C192.315 51.9261 195.351 55.1644 199.096 55.1644Z" fill="#CCFF69"/>
    <path d="M69.8082 129.301C67.2147 129.301 64.6795 128.506 62.5234 127.015C60.3672 125.524 58.6869 123.405 57.6951 120.926C56.7033 118.447 56.4446 115.719 56.9516 113.088C57.4586 110.457 58.7087 108.041 60.5436 106.145C62.3785 104.249 64.7158 102.958 67.2598 102.437C69.8037 101.915 72.4401 102.186 74.8353 103.215C77.2305 104.244 79.2769 105.984 80.7156 108.216C82.1543 110.449 82.9207 113.072 82.9178 115.755C82.9138 119.349 81.5309 122.795 79.0728 125.335C76.6147 127.875 73.2825 129.301 69.8082 129.301ZM69.8082 107.047C68.1433 107.047 66.5157 107.557 65.1314 108.514C63.747 109.471 62.6681 110.831 62.0309 112.423C61.3938 114.014 61.2271 115.765 61.5519 117.454C61.8767 119.143 62.6785 120.695 63.8557 121.913C65.033 123.131 66.533 123.96 68.1659 124.296C69.7988 124.632 71.4914 124.46 73.0296 123.801C74.5678 123.141 75.8826 122.025 76.8075 120.593C77.7325 119.161 78.2262 117.477 78.2262 115.755C78.2262 113.445 77.3393 111.23 75.7606 109.597C74.182 107.964 72.0408 107.047 69.8082 107.047Z" fill="#0022CD"/>
    <path d="M69.3562 173.603C64.5281 173.603 59.8085 172.171 55.7942 169.489C51.7798 166.806 48.651 162.994 46.8034 158.533C44.9558 154.073 44.4723 149.165 45.4143 144.429C46.3562 139.694 48.6811 135.345 52.095 131.931C55.5089 128.517 59.8586 126.192 64.5938 125.25C69.3291 124.308 74.2373 124.791 78.6978 126.639C83.1583 128.487 86.9708 131.615 89.6531 135.63C92.3354 139.644 93.7671 144.364 93.7671 149.192C93.7631 155.665 91.1899 161.871 86.6129 166.448C82.0358 171.026 75.8291 173.599 69.3562 173.603ZM69.3562 129.551C65.4775 129.551 61.686 130.701 58.461 132.856C55.236 135.01 52.7224 138.073 51.2381 141.657C49.7538 145.24 49.3655 149.183 50.1222 152.987C50.8789 156.791 52.7466 160.286 55.4892 163.028C58.2318 165.771 61.7262 167.639 65.5303 168.395C69.3344 169.152 73.2775 168.764 76.8609 167.279C80.4443 165.795 83.5071 163.282 85.6619 160.057C87.8168 156.832 88.9669 153.04 88.9669 149.161C88.9469 143.969 86.8734 138.996 83.1991 135.327C79.5248 131.659 74.5483 129.593 69.3562 129.581V129.551Z" fill="#0022CD"/>
    <path d="M72.0685 169.986H67.548V198.014H72.0685V169.986Z" fill="#0022CD"/>
    <path d="M299 195.301H35V199.822H299V195.301Z" fill="#0022CD"/>
</svg>
