<svg width="173" height="113" viewBox="0 0 173 113" xmlns="http://www.w3.org/2000/svg">
    <rect y="111" width="173" height="2" fill="#133DBD"/>
    <g clip-path="url(#clip0_1_6189)">
        <path d="M80.7 68.8173L96.1 57.8464V68.8173L114.4 58.0459V68.8173L132.7 58.3451V112.003L83 111.903L80.7 68.8173Z" fill="white" stroke="#133DBD" stroke-width="2" stroke-miterlimit="10" stroke-linecap="round" stroke-linejoin="round"/>
        <path d="M79 38.1986H70L66 112.003H83L79 38.1986Z" fill="white" stroke="#133DBD" stroke-width="2" stroke-miterlimit="10" stroke-linecap="round" stroke-linejoin="round"/>
        <path d="M89 76.7961V81.7829" stroke="#133DBD" stroke-width="2" stroke-miterlimit="10"/>
        <path d="M98 76.7961V81.7829" stroke="#133DBD" stroke-width="2" stroke-miterlimit="10"/>
        <path d="M107 76.7961V81.7829" stroke="#133DBD" stroke-width="2" stroke-miterlimit="10"/>
        <path d="M116 76.7961V81.7829" stroke="#133DBD" stroke-width="2" stroke-miterlimit="10"/>
        <path d="M125 76.7961V81.7829" stroke="#133DBD" stroke-width="2" stroke-miterlimit="10"/>
        <path d="M89 86.7697V91.7564" stroke="#133DBD" stroke-width="2" stroke-miterlimit="10"/>
        <path d="M98 86.7697V91.7564" stroke="#133DBD" stroke-width="2" stroke-miterlimit="10"/>
        <path d="M107 86.7697V91.7564" stroke="#133DBD" stroke-width="2" stroke-miterlimit="10"/>
        <path d="M116 86.7697V91.7564" stroke="#133DBD" stroke-width="2" stroke-miterlimit="10"/>
        <path d="M125 86.7697V91.7564" stroke="#133DBD" stroke-width="2" stroke-miterlimit="10"/>
        <path d="M89 96.7432V101.73" stroke="#133DBD" stroke-width="2" stroke-miterlimit="10"/>
        <path d="M98 96.7432V101.73" stroke="#133DBD" stroke-width="2" stroke-miterlimit="10"/>
        <path d="M107 96.7432V101.73" stroke="#133DBD" stroke-width="2" stroke-miterlimit="10"/>
        <path d="M116 96.7432V101.73" stroke="#133DBD" stroke-width="2" stroke-miterlimit="10"/>
        <path d="M125 96.7432V101.73" stroke="#133DBD" stroke-width="2" stroke-miterlimit="10"/>
        <path d="M80 30.9179C81.6569 30.9179 83 29.5783 83 27.9258C83 26.2734 81.6569 24.9338 80 24.9338C78.3431 24.9338 77 26.2734 77 27.9258C77 29.5783 78.3431 30.9179 80 30.9179Z" fill="#C4D3E4"/>
        <path d="M98 36.902C101.866 36.902 105 33.7763 105 29.9206C105 26.0648 101.866 22.9391 98 22.9391C94.134 22.9391 91 26.0648 91 29.9206C91 33.7763 94.134 36.902 98 36.902Z" fill="#C4D3E4"/>
        <path d="M115.5 21.9417C117.985 21.9417 120 19.9324 120 17.4537C120 14.975 117.985 12.9656 115.5 12.9656C113.015 12.9656 111 14.975 111 17.4537C111 19.9324 113.015 21.9417 115.5 21.9417Z" fill="#C4D3E4"/>
    </g>
    <path d="M156.264 65L147.005 99.28H165.514L156.264 65Z" fill="white"/>
    <path d="M166.474 99.02L157.224 64.74C157.104 64.3 156.715 64 156.255 64C155.795 64 155.405 64.3 155.285 64.74L146.035 99.02C145.955 99.32 146.015 99.64 146.205 99.89C146.395 100.14 146.685 100.28 146.995 100.28H155.245V110.75C155.245 111.3 155.695 111.75 156.245 111.75C156.795 111.75 157.245 111.3 157.245 110.75V100.28H165.495C165.805 100.28 166.095 100.14 166.285 99.89C166.475 99.64 166.564 99.32 166.474 99.02ZM148.315 98.28L156.265 68.84L164.215 98.28H148.315Z" fill="#133DBD"/>
    <path d="M39.6385 100.027L33.1585 87.0475H38.4385L30.5485 73.8775H38.4385L24.8085 58.9875L11.1785 73.8775H19.0685L11.1785 87.0475H16.4485L9.97852 100.027H39.6385Z" fill="#C4D3E4"/>
    <path d="M40.5285 99.5875L34.7785 88.0475H38.4385C38.7985 88.0475 39.1285 87.8575 39.3085 87.5375C39.4885 87.2175 39.4785 86.8375 39.2985 86.5275L32.3185 74.8675H38.4485C38.8485 74.8675 39.2085 74.6375 39.3685 74.2675C39.5285 73.9075 39.4585 73.4775 39.1885 73.1875L25.5485 58.3075C25.1685 57.8975 24.4485 57.8975 24.0785 58.3075L10.4485 73.1975C10.1785 73.4875 10.1085 73.9075 10.2685 74.2775C10.4285 74.6375 10.7885 74.8775 11.1885 74.8775H17.3185L10.3385 86.5375C10.1485 86.8475 10.1485 87.2275 10.3285 87.5475C10.5085 87.8675 10.8385 88.0575 11.1985 88.0575H14.8585L9.1085 99.5975C8.9485 99.9075 8.96848 100.278 9.14848 100.568C9.32848 100.858 9.64848 101.038 9.99848 101.038H23.8285V111.178H25.8285V101.028H39.6585C40.0085 101.028 40.3285 100.848 40.5085 100.558C40.6685 100.268 40.6785 99.8975 40.5285 99.5875ZM24.8085 60.4675L36.1685 72.8775H30.5485H19.0685H13.4485L24.8085 60.4675ZM19.6385 74.8775H29.9785L36.6685 86.0475H33.1585H16.4485H12.9385L19.6385 74.8775ZM11.5985 99.0275L17.0685 88.0475H32.5385L38.0085 99.0275H11.5985Z" fill="#133DBD"/>
    <path d="M54.8785 106.067L49.6685 95.6075H53.9185L47.5585 84.9875H53.9185L42.9285 72.9875L31.9485 84.9875H38.3085L31.9485 95.6075H36.1985L30.9885 106.067H54.8785Z" fill="white"/>
    <path d="M55.7785 105.618L51.2885 96.6075H53.9185C54.2785 96.6075 54.6085 96.4175 54.7885 96.0975C54.9685 95.7775 54.9585 95.3975 54.7785 95.0875L49.3285 85.9875H53.9185C54.3185 85.9875 54.6785 85.7575 54.8385 85.3875C54.9985 85.0275 54.9285 84.5975 54.6585 84.3075L43.6785 72.3075C43.2985 71.8975 42.5785 71.8975 42.2085 72.3075L31.2285 84.3075C30.9585 84.5975 30.8885 85.0175 31.0485 85.3875C31.2085 85.7475 31.5685 85.9875 31.9685 85.9875H36.5585L31.1085 95.0875C30.9185 95.3975 30.9185 95.7775 31.0985 96.0975C31.2785 96.4175 31.6085 96.6075 31.9685 96.6075H34.5985L30.1085 105.618C29.9485 105.928 29.9685 106.298 30.1485 106.588C30.3285 106.878 30.6485 107.057 30.9985 107.057H41.9485V111.057H43.9485V107.057H54.8985C55.2485 107.057 55.5685 106.878 55.7485 106.588C55.9085 106.298 55.9285 105.928 55.7785 105.618ZM42.9285 74.4675L51.6385 83.9875H47.5485H38.2985H34.2085L42.9285 74.4675ZM38.8785 85.9875H46.9985L52.1585 94.6075H49.6785H36.2085H33.7285L38.8785 85.9875ZM32.5985 105.068L36.8185 96.6075H49.0485L53.2685 105.068H32.5985Z" fill="#133DBD"/>
    <defs>
        <clipPath id="clip0_1_6189">
            <rect width="68.7" height="113" fill="white" transform="translate(65)"/>
        </clipPath>
    </defs>
</svg>
