<svg width="173" height="100" viewBox="0 0 173 100" xmlns="http://www.w3.org/2000/svg">
    <rect y="98" width="173" height="2" fill="#0022CD"/>
    <g clip-path="url(#clip0_1_6115)">
        <path d="M113 35.6L99.1 35.4L98.9 30.6L90 23.5L113 23.6V35.6Z" fill="#C4D3E4"/>
        <path d="M113 67.6H50V98.6H113V67.6Z" fill="white"/>
        <path d="M99 35.6L74.5 17L50 35.6V67.6H113V35.6H99Z" fill="white"/>
        <path d="M93 78.6H81V98.6H93V78.6Z" fill="#6288B9"/>
        <path d="M109 91.6H99C98.4 91.6 98 91.2 98 90.6V78.6C98 78 98.4 77.6 99 77.6H109C109.6 77.6 110 78 110 78.6V90.6C110 91.1 109.6 91.6 109 91.6ZM100 89.6H108V79.6H100V89.6Z" fill="#0022CD"/>
        <path d="M109 57.6H99C98.4 57.6 98 57.2 98 56.6V44.6C98 44 98.4 43.6 99 43.6H109C109.6 43.6 110 44 110 44.6V56.6C110 57.1 109.6 57.6 109 57.6ZM100 55.6H108V45.6H100V55.6Z" fill="#0022CD"/>
        <path d="M90 62.6H84C83.4 62.6 83 62.2 83 61.6V39.6C83 39 83.4 38.6 84 38.6H90C90.6 38.6 91 39 91 39.6V61.6C91 62.1 90.6 62.6 90 62.6ZM85 60.6H89V40.6H85V60.6Z" fill="#0022CD"/>
        <path d="M78 51.6H56V61.6H78V51.6Z" fill="#C4D3E4"/>
        <path d="M99 30.6L74.5 12L50 30.6V35.6L74.5 17L99 35.6V30.6Z" fill="#6288B9"/>
        <path d="M113 22.6L90 22.5L75.1 11.2C74.7 10.9 74.2 10.9 73.9 11.2L49.4 29.8C49.1 30 49 30.3 49 30.6V35.6V67.6V98.6C49 99.2 49.4 99.6 50 99.6H113C113.6 99.6 114 99.2 114 98.6V67.6V35.6V23.6C114 23 113.6 22.6 113 22.6ZM51 36.1L74.5 18.3L98.4 36.4C98.5 36.5 98.6 36.5 98.7 36.6C98.8 36.6 98.9 36.7 99 36.7H112V66.7H51V36.1ZM97.7 28.4H112V30.4H99.9C99.8 30.2 99.7 30 99.6 29.8L98.6 29L97.7 28.4ZM112 32.4V34.6L100 34.4V33.2V32.4H112ZM112 24.6V26.4H95.2L92.8 24.5L112 24.6ZM51 31.1L74.5 13.3L97.3 30.6L97.9 31.1L98 33.2V33.6L75.1 16.2C74.7 15.9 74.2 15.9 73.9 16.2L51 33.6V31.1ZM74 97.6H56V79.6H74V97.6ZM92 97.6H82V79.6H92V97.6ZM112 97.6H94V78.6C94 78 93.6 77.6 93 77.6H81C80.4 77.6 80 78 80 78.6V97.6H76V78.6C76 78 75.6 77.6 75 77.6H55C54.4 77.6 54 78 54 78.6V97.6H51V68.6H112V97.6Z" fill="#0022CD"/>
        <path d="M57 61.7C57 62.2 57.5 62.5999 58 62.5999H76C76.5 62.5999 76.9 62.2 77 61.7H57Z" fill="#0022CD"/>
        <path d="M78 50.6H77V39.6C77 39 76.6 38.6 76 38.6H58C57.4 38.6 57 39 57 39.6V50.6H56C55.4 50.6 55 51 55 51.6V61.6C55 62.2 55.4 62.6 56 62.6H78C78.6 62.6 79 62.2 79 61.6V51.6C79 51 78.6 50.6 78 50.6ZM59 40.6H75V50.6H59V40.6ZM77 60.6H57V52.6H77V60.6Z" fill="#0022CD"/>
    </g>
    <path d="M158.41 55.05C157.58 55.05 156.79 55.17 156.03 55.37C154.51 51.07 150.42 47.99 145.6 47.99C140.87 47.99 136.85 50.95 135.26 55.12C134.88 55.07 134.5 55.04 134.11 55.04C129.08 55.04 125 59.12 125 64.15C125 69.18 129.08 73.26 134.11 73.26C137.2 73.26 139.92 71.72 141.57 69.37C142.82 69.86 144.18 70.14 145.6 70.14C147.42 70.14 149.14 69.69 150.66 68.91C152.26 71.51 155.13 73.26 158.41 73.26C163.44 73.26 167.52 69.18 167.52 64.15C167.52 59.13 163.44 55.05 158.41 55.05Z" fill="white"/>
    <path d="M158.41 54.05C157.83 54.05 157.24 54.1 156.64 54.21C154.72 49.86 150.39 47 145.6 47C140.89 47 136.57 49.81 134.62 54.07C134.44 54.06 134.27 54.05 134.11 54.05C128.53 54.05 124 58.59 124 64.16C124 69.73 128.54 74.27 134.11 74.27C135.8 74.27 137.44 73.83 138.89 73.04L144.5 77.45V98.7H146.5V77.08L151.61 71.62C153.45 73.31 155.84 74.28 158.42 74.28C164 74.28 168.53 69.74 168.53 64.17C168.53 58.6 163.99 54.05 158.41 54.05ZM140.62 71.87C141.08 71.48 141.52 71.05 141.92 70.58C142.77 70.85 143.63 71.02 144.5 71.1V74.92L140.62 71.87ZM146.5 71.11C147.74 71.02 148.97 70.73 150.14 70.26L146.5 74.15V71.11ZM158.41 72.28C155.58 72.28 153 70.83 151.51 68.41L151.02 67.62L150.2 68.04C147.64 69.36 144.65 69.52 141.93 68.46L141.2 68.17L140.75 68.81C139.23 70.98 136.75 72.27 134.11 72.27C129.64 72.27 126 68.63 126 64.16C126 59.69 129.64 56.05 134.11 56.05C134.42 56.05 134.74 56.07 135.13 56.12L135.91 56.22L136.19 55.49C137.67 51.61 141.45 49 145.6 49C149.85 49 153.66 51.7 155.09 55.71L155.4 56.58L156.29 56.34C157 56.15 157.72 56.05 158.41 56.05C162.88 56.05 166.52 59.69 166.52 64.16C166.52 68.63 162.88 72.28 158.41 72.28Z" fill="#0022CD"/>
    <path d="M25.2645 52L16.0045 86.28H34.5145L25.2645 52Z" fill="white"/>
    <path d="M35.4745 86.02L26.2245 51.74C26.1045 51.3 25.7145 51 25.2545 51C24.7945 51 24.4045 51.3 24.2845 51.74L15.0345 86.02C14.9545 86.32 15.0145 86.64 15.2045 86.89C15.3945 87.14 15.6845 87.28 15.9945 87.28H24.2445V97.75C24.2445 98.3 24.6945 98.75 25.2445 98.75C25.7945 98.75 26.2445 98.3 26.2445 97.75V87.28H34.4945C34.8045 87.28 35.0945 87.14 35.2845 86.89C35.4745 86.64 35.5645 86.32 35.4745 86.02ZM17.3145 85.28L25.2645 55.84L33.2145 85.28H17.3145Z" fill="#0022CD"/>
    <defs>
        <clipPath id="clip0_1_6115">
            <rect width="65" height="88.6" fill="white" transform="translate(49 11)"/>
        </clipPath>
    </defs>
</svg>