<svg width="65" height="93" viewBox="0 0 65 93" fill="none" xmlns="http://www.w3.org/2000/svg">
    <path d="M53 1H11.7V6.8H53V1Z" fill="#315ED1"/>
    <path d="M58 37H6.69995V92H58V37Z" fill="white"/>
    <path d="M50 7H14.7V31.2H50V7Z" fill="white"/>
    <path d="M40.2 42H35.2V50H40.2V42Z" fill="white"/>
    <path d="M50.2 42H45.2V50H50.2V42Z" fill="white"/>
    <path d="M40.2 56.5H35.2V64.5H40.2V56.5Z" fill="white"/>
    <path d="M50.2 56.5H45.2V64.5H50.2V56.5Z" fill="white"/>
    <path d="M50.2 71H45.2V79H50.2V71Z" fill="white"/>
    <path d="M45 11.2H40V17.2H45V11.2Z" fill="white"/>
    <path d="M25 11.2H20V17.2H25V11.2Z" fill="white"/>
    <path d="M35 11.2H30V17.2H35V11.2Z" fill="white"/>
    <path d="M45 21.2H40V27.2H45V21.2Z" fill="white"/>
    <path d="M25 21.2H20V27.2H25V21.2Z" fill="white"/>
    <path d="M35 21.2H30V27.2H35V21.2Z" fill="white"/>
    <path d="M20.2 42H15.2V50H20.2V42Z" fill="white"/>
    <path d="M30.2 42H25.2V50H30.2V42Z" fill="white"/>
    <path d="M20.2 56.5H15.2V64.5H20.2V56.5Z" fill="white"/>
    <path d="M30.2 56.5H25.2V64.5H30.2V56.5Z" fill="white"/>
    <path d="M20.2 71H15.2V79H20.2V71Z" fill="white"/>
    <path d="M40 71.2H25V91.2H40V71.2Z" fill="#C4D3E4"/>
    <path d="M63.7 31.2H1V37H63.7V31.2Z" fill="#315ED1"/>
    <path d="M35.2 50.8H40.2C40.8 50.8 41.2 50.4 41.2 49.8V41.8C41.2 41.2 40.8 40.8 40.2 40.8H35.2C34.6 40.8 34.2 41.2 34.2 41.8V49.8C34.2 50.4 34.7 50.8 35.2 50.8ZM36.2 42.8H39.2V48.8H36.2V42.8Z" fill="#133DBD"/>
    <path d="M45.2 50.8H50.2C50.8 50.8 51.2 50.4 51.2 49.8V41.8C51.2 41.2 50.8 40.8 50.2 40.8H45.2C44.6 40.8 44.2 41.2 44.2 41.8V49.8C44.2 50.4 44.7 50.8 45.2 50.8ZM46.2 42.8H49.2V48.8H46.2V42.8Z" fill="#133DBD"/>
    <path d="M35.2 65.3001H40.2C40.8 65.3001 41.2 64.9001 41.2 64.3001V56.3C41.2 55.7 40.8 55.3 40.2 55.3H35.2C34.6 55.3 34.2 55.7 34.2 56.3V64.3001C34.2 64.9001 34.7 65.3001 35.2 65.3001ZM36.2 57.3H39.2V63.3H36.2V57.3Z" fill="#133DBD"/>
    <path d="M45.2 65.3001H50.2C50.8 65.3001 51.2 64.9001 51.2 64.3001V56.3C51.2 55.7 50.8 55.3 50.2 55.3H45.2C44.6 55.3 44.2 55.7 44.2 56.3V64.3001C44.2 64.9001 44.7 65.3001 45.2 65.3001ZM46.2 57.3H49.2V63.3H46.2V57.3Z" fill="#133DBD"/>
    <path d="M45.2 79.8H50.2C50.8 79.8 51.2 79.4 51.2 78.8V70.8C51.2 70.2 50.8 69.8 50.2 69.8H45.2C44.6 69.8 44.2 70.2 44.2 70.8V78.8C44.2 79.4 44.7 79.8 45.2 79.8ZM46.2 71.8H49.2V77.8H46.2V71.8Z" fill="#133DBD"/>
    <path d="M45 10H40C39.4 10 39 10.4 39 11V17C39 17.6 39.4 18 40 18H45C45.6 18 46 17.6 46 17V11C46 10.4 45.6 10 45 10ZM44 16H41V12H44V16Z" fill="#133DBD"/>
    <path d="M25 10H20C19.4 10 19 10.4 19 11V17C19 17.6 19.4 18 20 18H25C25.6 18 26 17.6 26 17V11C26 10.4 25.6 10 25 10ZM24 16H21V12H24V16Z" fill="#133DBD"/>
    <path d="M35 10H30C29.4 10 29 10.4 29 11V17C29 17.6 29.4 18 30 18H35C35.6 18 36 17.6 36 17V11C36 10.4 35.6 10 35 10ZM34 16H31V12H34V16Z" fill="#133DBD"/>
    <path d="M45 20H40C39.4 20 39 20.4 39 21V27C39 27.6 39.4 28 40 28H45C45.6 28 46 27.6 46 27V21C46 20.4 45.6 20 45 20ZM44 26H41V22H44V26Z" fill="#133DBD"/>
    <path d="M25 20H20C19.4 20 19 20.4 19 21V27C19 27.6 19.4 28 20 28H25C25.6 28 26 27.6 26 27V21C26 20.4 25.6 20 25 20ZM24 26H21V22H24V26Z" fill="#133DBD"/>
    <path d="M35 20H30C29.4 20 29 20.4 29 21V27C29 27.6 29.4 28 30 28H35C35.6 28 36 27.6 36 27V21C36 20.4 35.6 20 35 20ZM34 26H31V22H34V26Z" fill="#133DBD"/>
    <path d="M15.2 50.8H20.2C20.8 50.8 21.2 50.4 21.2 49.8V41.8C21.2 41.2 20.8 40.8 20.2 40.8H15.2C14.6 40.8 14.2 41.2 14.2 41.8V49.8C14.2 50.4 14.7 50.8 15.2 50.8ZM16.2 42.8H19.2V48.8H16.2V42.8Z" fill="#133DBD"/>
    <path d="M25.2 50.8H30.2C30.8 50.8 31.2 50.4 31.2 49.8V41.8C31.2 41.2 30.8 40.8 30.2 40.8H25.2C24.6 40.8 24.2 41.2 24.2 41.8V49.8C24.2 50.4 24.7 50.8 25.2 50.8ZM26.2 42.8H29.2V48.8H26.2V42.8Z" fill="#133DBD"/>
    <path d="M15.2 65.3001H20.2C20.8 65.3001 21.2 64.9001 21.2 64.3001V56.3C21.2 55.7 20.8 55.3 20.2 55.3H15.2C14.6 55.3 14.2 55.7 14.2 56.3V64.3001C14.2 64.9001 14.7 65.3001 15.2 65.3001ZM16.2 57.3H19.2V63.3H16.2V57.3Z" fill="#133DBD"/>
    <path d="M25.2 65.3001H30.2C30.8 65.3001 31.2 64.9001 31.2 64.3001V56.3C31.2 55.7 30.8 55.3 30.2 55.3H25.2C24.6 55.3 24.2 55.7 24.2 56.3V64.3001C24.2 64.9001 24.7 65.3001 25.2 65.3001ZM26.2 57.3H29.2V63.3H26.2V57.3Z" fill="#133DBD"/>
    <path d="M15.2 79.8H20.2C20.8 79.8 21.2 79.4 21.2 78.8V70.8C21.2 70.2 20.8 69.8 20.2 69.8H15.2C14.6 69.8 14.2 70.2 14.2 70.8V78.8C14.2 79.4 14.7 79.8 15.2 79.8ZM16.2 71.8H19.2V77.8H16.2V71.8Z" fill="#133DBD"/>
    <path d="M63.7 30H50.9V7.8H53C53.6 7.8 54 7.4 54 6.8V1C54 0.4 53.6 0 53 0H11.7C11.1 0 10.7 0.4 10.7 1V6.8C10.7 7.4 11.1 7.8 11.7 7.8H13.8V30H1C0.4 30 0 30.4 0 31V36.8C0 37.4 0.4 37.8 1 37.8H5.7V91.8C5.7 92.3 6.1 92.8 6.7 92.8H58C58.5 92.8 59 92.4 59 91.8V37.8H63.7C64.3 37.8 64.7 37.4 64.7 36.8V31C64.7 30.4 64.3 30 63.7 30ZM12.7 2H52V5.8H12.7V2ZM15.6 7.8H49.1V30H15.6V7.8ZM33.5 72H39V90H33.5V72ZM31.5 90H26V72H31.5V90ZM57 90.8H41V71C41 70.4 40.6 70 40 70H25C24.4 70 24 70.4 24 71V90.8H7.7V37.8H57V90.8ZM62.7 35.8H2V32H62.7V35.8Z" fill="#133DBD"/>
</svg>
