<svg width="53" height="88" viewBox="0 0 53 88" fill="none" xmlns="http://www.w3.org/2000/svg">
    <path d="M43.422 6.018V1.78198H32.4172V6.018H23.9562V14.479H26.5V25.4838H1.10602V33.9448H3.64984V86.4139H26.5H49.3502V14.479H51.8829V6.018H43.422Z" fill="white"/>
    <path d="M7.45452 20.8274H4.07013V25.0634H7.45452V20.8274Z" fill="white"/>
    <path d="M20.5717 63.5637H9.56689V86.4139H20.5717V63.5637Z" fill="#C4D3E4"/>
    <path d="M35.3812 31.8213H31.1451V38.5901H35.3812V31.8213Z" fill="#C4D3E4"/>
    <path d="M31.1451 27.4303H35.3812C35.9895 27.4303 36.4872 26.9326 36.4872 26.3243V19.5555C36.4872 18.9472 35.9895 18.4495 35.3812 18.4495H31.1451C30.5368 18.4495 30.0391 18.9472 30.0391 19.5555V26.3243C30.0391 26.9326 30.5368 27.4303 31.1451 27.4303ZM32.2511 20.6615H34.2751V25.2182H32.2511V20.6615Z" fill="#0022CD"/>
    <path d="M39.6174 27.4303H43.8534C44.4617 27.4303 44.9594 26.9326 44.9594 26.3243V19.5555C44.9594 18.9472 44.4617 18.4495 43.8534 18.4495H39.6174C39.0091 18.4495 38.5114 18.9472 38.5114 19.5555V26.3243C38.5114 26.9326 38.998 27.4303 39.6174 27.4303ZM40.7234 20.6615H42.7474V25.2182H40.7234V20.6615Z" fill="#0022CD"/>
    <path d="M31.1451 39.7071H35.3812C35.9895 39.7071 36.4872 39.2094 36.4872 38.6011V31.8323C36.4872 31.224 35.9895 30.7263 35.3812 30.7263H31.1451C30.5368 30.7263 30.0391 31.224 30.0391 31.8323V38.6011C30.0391 39.2094 30.5368 39.7071 31.1451 39.7071ZM32.2511 32.9273H34.2751V37.484H32.2511V32.9273Z" fill="#0022CD"/>
    <path d="M39.6174 39.7071H43.8534C44.4617 39.7071 44.9594 39.2094 44.9594 38.6011V31.8323C44.9594 31.224 44.4617 30.7263 43.8534 30.7263H39.6174C39.0091 30.7263 38.5114 31.224 38.5114 31.8323V38.6011C38.5114 39.2094 38.998 39.7071 39.6174 39.7071ZM40.7234 32.9273H42.7474V37.484H40.7234V32.9273Z" fill="#0022CD"/>
    <path d="M31.1451 51.9727H35.3812C35.9895 51.9727 36.4872 51.475 36.4872 50.8667V44.098C36.4872 43.4896 35.9895 42.9919 35.3812 42.9919H31.1451C30.5368 42.9919 30.0391 43.4896 30.0391 44.098V50.8667C30.0391 51.475 30.5368 51.9727 31.1451 51.9727ZM32.2511 45.204H34.2751V49.7607H32.2511V45.204Z" fill="#0022CD"/>
    <path d="M39.6174 51.9727H43.8534C44.4617 51.9727 44.9594 51.475 44.9594 50.8667V44.098C44.9594 43.4896 44.4617 42.9919 43.8534 42.9919H39.6174C39.0091 42.9919 38.5114 43.4896 38.5114 44.098V50.8667C38.5114 51.475 38.998 51.9727 39.6174 51.9727ZM40.7234 45.204H42.7474V49.7607H40.7234V45.204Z" fill="#0022CD"/>
    <path d="M31.1451 64.2494H35.3812C35.9895 64.2494 36.4872 63.7517 36.4872 63.1433V56.3746C36.4872 55.7663 35.9895 55.2686 35.3812 55.2686H31.1451C30.5368 55.2686 30.0391 55.7663 30.0391 56.3746V63.1433C30.0391 63.7517 30.5368 64.2494 31.1451 64.2494ZM32.2511 57.4806H34.2751V62.0373H32.2511V57.4806Z" fill="#0022CD"/>
    <path d="M39.6174 64.2494H43.8534C44.4617 64.2494 44.9594 63.7517 44.9594 63.1433V56.3746C44.9594 55.7663 44.4617 55.2686 43.8534 55.2686H39.6174C39.0091 55.2686 38.5114 55.7663 38.5114 56.3746V63.1433C38.5114 63.7517 38.998 64.2494 39.6174 64.2494ZM40.7234 57.4806H42.7474V62.0373H40.7234V57.4806Z" fill="#0022CD"/>
    <path d="M31.1451 76.515H35.3812C35.9895 76.515 36.4872 76.0173 36.4872 75.409V68.6402C36.4872 68.0319 35.9895 67.5342 35.3812 67.5342H31.1451C30.5368 67.5342 30.0391 68.0319 30.0391 68.6402V75.409C30.0391 76.0173 30.5368 76.515 31.1451 76.515ZM32.2511 69.7462H34.2751V74.303H32.2511V69.7462Z" fill="#0022CD"/>
    <path d="M39.6174 76.515H43.8534C44.4617 76.515 44.9594 76.0173 44.9594 75.409V68.6402C44.9594 68.0319 44.4617 67.5342 43.8534 67.5342H39.6174C39.0091 67.5342 38.5114 68.0319 38.5114 68.6402V75.409C38.5114 76.0173 38.998 76.515 39.6174 76.515ZM40.7234 69.7462H42.7474V74.303H40.7234V69.7462Z" fill="#0022CD"/>
    <path d="M51.8829 4.91204H44.528V1.78204C44.528 1.17373 44.0303 0.676025 43.422 0.676025H32.4172C31.8088 0.676025 31.3111 1.17373 31.3111 1.78204V4.91204H23.9562C23.3479 4.91204 22.8502 5.40975 22.8502 6.01805V14.479C22.8502 15.0873 23.3479 15.585 23.9562 15.585H25.394V24.3778H8.56052V20.8275C8.56052 20.2192 8.06281 19.7215 7.45451 19.7215H4.07012C3.46181 19.7215 2.96411 20.2192 2.96411 20.8275V24.3778H1.10601C0.497705 24.3778 0 24.8755 0 25.4838V33.9448C0 34.5531 0.497705 35.0508 1.10601 35.0508H2.53276V86.4139C2.53276 87.0222 3.03047 87.5199 3.63877 87.5199H9.56699H20.5718H26.5H49.3502C49.9585 87.5199 50.4562 87.0222 50.4562 86.4139V15.585H51.894C52.5023 15.585 53 15.0873 53 14.479V6.01805C52.9889 5.39869 52.4912 4.91204 51.8829 4.91204ZM5.17613 21.9335H6.3485V23.9575H5.17613V21.9335ZM19.4658 85.3079H10.673V64.6698H19.4658V85.3079ZM25.394 85.3079H21.6778V63.5638C21.6778 62.9554 21.1801 62.4577 20.5718 62.4577H9.56699C8.95868 62.4577 8.46098 62.9554 8.46098 63.5638V85.3079H4.74478V35.0508H25.3829V85.3079H25.394ZM25.394 32.8388H3.63877H2.21202V26.5898H25.394V32.8388ZM33.5232 2.88805H42.3159V4.91204H33.5232V2.88805ZM48.2442 85.3079H27.606V33.9448V25.4838V15.585H48.2442V85.3079ZM50.7769 13.373H49.3391H26.5H25.0622V7.12406H32.4172H43.422H50.7769V13.373Z" fill="#0022CD"/>
</svg>
