<svg width="88" height="94" viewBox="0 0 88 94" fill="none" xmlns="http://www.w3.org/2000/svg">
    <g clip-path="url(#clip0_1_5604)">
        <path d="M27 32.009H1V93.009H27V32.009Z" fill="white"/>
        <path d="M27 94.009H1C0.4 94.009 0 93.609 0 93.009V32.009C0 31.409 0.4 31.009 1 31.009H27C27.6 31.009 28 31.409 28 32.009V93.009C28 93.609 27.6 94.009 27 94.009ZM2 92.009H26V33.009H2V92.009Z" fill="#0022CD"/>
        <path d="M57.2 93.009H31.2V1.00903L57.2 21.009V93.009Z" fill="white"/>
        <path d="M57.2 94.009H31.2C30.6 94.009 30.2 93.609 30.2 93.009V1.00902C30.2 0.609017 30.4 0.309017 30.8 0.109017C31.1 -0.0909831 31.5 0.00901724 31.9 0.209017L57.9 20.209C58.1 20.409 58.3 20.709 58.3 21.009V93.009C58.2 93.609 57.8 94.009 57.2 94.009ZM32.2 92.009H56.2V21.509L32.2 3.00902V92.009Z" fill="#0022CD"/>
        <path d="M87.2 93.009H61.2V50.009L87.2 19.009V93.009Z" fill="white"/>
        <path d="M87.2 94.009H61.2C60.6 94.009 60.2 93.609 60.2 93.009V50.009C60.2 49.809 60.3 49.509 60.4 49.409L86.4 18.409C86.7 18.109 87.1 18.009 87.5 18.109C87.9 18.209 88.2 18.609 88.2 19.009V93.009C88.2 93.609 87.8 94.009 87.2 94.009ZM62.2 92.009H86.2V21.809L62.2 50.409V92.009Z" fill="#0022CD"/>
        <path d="M7.20001 38.009H5.20001V44.009H7.20001V38.009Z" fill="#0022CD"/>
        <path d="M12.2 38.009H10.2V44.009H12.2V38.009Z" fill="#0022CD"/>
        <path d="M17.2 38.009H15.2V44.009H17.2V38.009Z" fill="#0022CD"/>
        <path d="M22.2 38.009H20.2V44.009H22.2V38.009Z" fill="#0022CD"/>
        <path d="M7.20001 47.009H5.20001V53.009H7.20001V47.009Z" fill="#0022CD"/>
        <path d="M12.2 47.009H10.2V53.009H12.2V47.009Z" fill="#0022CD"/>
        <path d="M17.2 47.009H15.2V53.009H17.2V47.009Z" fill="#0022CD"/>
        <path d="M22.2 47.009H20.2V53.009H22.2V47.009Z" fill="#0022CD"/>
        <path d="M7.20001 56.009H5.20001V62.009H7.20001V56.009Z" fill="#0022CD"/>
        <path d="M12.2 56.009H10.2V62.009H12.2V56.009Z" fill="#0022CD"/>
        <path d="M17.2 56.009H15.2V62.009H17.2V56.009Z" fill="#0022CD"/>
        <path d="M22.2 56.009H20.2V62.009H22.2V56.009Z" fill="#0022CD"/>
        <path d="M7.20001 65.009H5.20001V71.009H7.20001V65.009Z" fill="#0022CD"/>
        <path d="M12.2 65.009H10.2V71.009H12.2V65.009Z" fill="#0022CD"/>
        <path d="M17.2 65.009H15.2V71.009H17.2V65.009Z" fill="#0022CD"/>
        <path d="M22.2 65.009H20.2V71.009H22.2V65.009Z" fill="#0022CD"/>
        <path d="M7.20001 74.009H5.20001V80.009H7.20001V74.009Z" fill="#0022CD"/>
        <path d="M12.2 74.009H10.2V80.009H12.2V74.009Z" fill="#0022CD"/>
        <path d="M17.2 74.009H15.2V80.009H17.2V74.009Z" fill="#0022CD"/>
        <path d="M22.2 74.009H20.2V80.009H22.2V74.009Z" fill="#0022CD"/>
        <path d="M7.20001 83.009H5.20001V89.009H7.20001V83.009Z" fill="#0022CD"/>
        <path d="M12.2 83.009H10.2V89.009H12.2V83.009Z" fill="#0022CD"/>
        <path d="M17.2 83.009H15.2V89.009H17.2V83.009Z" fill="#0022CD"/>
        <path d="M22.2 83.009H20.2V89.009H22.2V83.009Z" fill="#0022CD"/>
        <path d="M37.2 40.009H35.2V45.809H37.2V40.009Z" fill="#0022CD"/>
        <path d="M42.2 40.009H40.2V45.809H42.2V40.009Z" fill="#0022CD"/>
        <path d="M47.2 40.009H45.2V45.809H47.2V40.009Z" fill="#0022CD"/>
        <path d="M52.2 40.009H50.2V45.809H52.2V40.009Z" fill="#0022CD"/>
        <path d="M37.2 31.309H35.2V37.109H37.2V31.309Z" fill="#0022CD"/>
        <path d="M42.2 31.309H40.2V37.109H42.2V31.309Z" fill="#0022CD"/>
        <path d="M47.2 31.309H45.2V37.109H47.2V31.309Z" fill="#0022CD"/>
        <path d="M52.2 31.309H50.2V37.109H52.2V31.309Z" fill="#0022CD"/>
        <path d="M37.2 22.709H35.2V28.509H37.2V22.709Z" fill="#0022CD"/>
        <path d="M42.2 22.709H40.2V28.509H42.2V22.709Z" fill="#0022CD"/>
        <path d="M47.2 22.709H45.2V28.509H47.2V22.709Z" fill="#0022CD"/>
        <path d="M52.2 22.709H50.2V28.509H52.2V22.709Z" fill="#0022CD"/>
        <path d="M37.2 14.009H35.2V19.809H37.2V14.009Z" fill="#0022CD"/>
        <path d="M42.2 14.009H40.2V19.809H42.2V14.009Z" fill="#0022CD"/>
        <path d="M37.2 48.609H35.2V54.409H37.2V48.609Z" fill="#0022CD"/>
        <path d="M42.2 48.609H40.2V54.409H42.2V48.609Z" fill="#0022CD"/>
        <path d="M47.2 48.609H45.2V54.409H47.2V48.609Z" fill="#0022CD"/>
        <path d="M52.2 48.609H50.2V54.409H52.2V48.609Z" fill="#0022CD"/>
        <path d="M37.2 57.309H35.2V63.109H37.2V57.309Z" fill="#0022CD"/>
        <path d="M42.2 57.309H40.2V63.109H42.2V57.309Z" fill="#0022CD"/>
        <path d="M47.2 57.309H45.2V63.109H47.2V57.309Z" fill="#0022CD"/>
        <path d="M52.2 57.309H50.2V63.109H52.2V57.309Z" fill="#0022CD"/>
        <path d="M37.2 66.009H35.2V71.809H37.2V66.009Z" fill="#0022CD"/>
        <path d="M42.2 66.009H40.2V71.809H42.2V66.009Z" fill="#0022CD"/>
        <path d="M47.2 66.009H45.2V71.809H47.2V66.009Z" fill="#0022CD"/>
        <path d="M52.2 66.009H50.2V71.809H52.2V66.009Z" fill="#0022CD"/>
        <path d="M37.2 74.609H35.2V80.409H37.2V74.609Z" fill="#0022CD"/>
        <path d="M42.2 74.609H40.2V80.409H42.2V74.609Z" fill="#0022CD"/>
        <path d="M47.2 74.609H45.2V80.409H47.2V74.609Z" fill="#0022CD"/>
        <path d="M52.2 74.609H50.2V80.409H52.2V74.609Z" fill="#0022CD"/>
        <path d="M37.2 83.309H35.2V89.109H37.2V83.309Z" fill="#0022CD"/>
        <path d="M42.2 83.309H40.2V89.109H42.2V83.309Z" fill="#0022CD"/>
        <path d="M47.2 83.309H45.2V89.109H47.2V83.309Z" fill="#0022CD"/>
        <path d="M52.2 83.309H50.2V89.109H52.2V83.309Z" fill="#0022CD"/>
        <path d="M77.2 40.009H75.2V45.809H77.2V40.009Z" fill="#0022CD"/>
        <path d="M82.2 40.009H80.2V45.809H82.2V40.009Z" fill="#0022CD"/>
        <path d="M82.2 31.309H80.2V37.109H82.2V31.309Z" fill="#0022CD"/>
        <path d="M67.2 48.609H65.2V54.409H67.2V48.609Z" fill="#0022CD"/>
        <path d="M72.2 48.609H70.2V54.409H72.2V48.609Z" fill="#0022CD"/>
        <path d="M77.2 48.609H75.2V54.409H77.2V48.609Z" fill="#0022CD"/>
        <path d="M82.2 48.609H80.2V54.409H82.2V48.609Z" fill="#0022CD"/>
        <path d="M67.2 57.309H65.2V63.109H67.2V57.309Z" fill="#0022CD"/>
        <path d="M72.2 57.309H70.2V63.109H72.2V57.309Z" fill="#0022CD"/>
        <path d="M77.2 57.309H75.2V63.109H77.2V57.309Z" fill="#0022CD"/>
        <path d="M82.2 57.309H80.2V63.109H82.2V57.309Z" fill="#0022CD"/>
        <path d="M67.2 66.009H65.2V71.809H67.2V66.009Z" fill="#0022CD"/>
        <path d="M72.2 66.009H70.2V71.809H72.2V66.009Z" fill="#0022CD"/>
        <path d="M77.2 66.009H75.2V71.809H77.2V66.009Z" fill="#0022CD"/>
        <path d="M82.2 66.009H80.2V71.809H82.2V66.009Z" fill="#0022CD"/>
        <path d="M67.2 74.609H65.2V80.409H67.2V74.609Z" fill="#0022CD"/>
        <path d="M72.2 74.609H70.2V80.409H72.2V74.609Z" fill="#0022CD"/>
        <path d="M77.2 74.609H75.2V80.409H77.2V74.609Z" fill="#0022CD"/>
        <path d="M82.2 74.609H80.2V80.409H82.2V74.609Z" fill="#0022CD"/>
        <path d="M67.2 83.309H65.2V89.109H67.2V83.309Z" fill="#0022CD"/>
        <path d="M72.2 83.309H70.2V89.109H72.2V83.309Z" fill="#0022CD"/>
        <path d="M77.2 83.309H75.2V89.109H77.2V83.309Z" fill="#0022CD"/>
        <path d="M82.2 83.309H80.2V89.109H82.2V83.309Z" fill="#0022CD"/>
    </g>
    <defs>
        <clipPath id="clip0_1_5604">
            <rect width="88" height="94" fill="white"/>
        </clipPath>
    </defs>
</svg>
