<svg width="101" height="72" viewBox="0 0 101 72" fill="none" xmlns="http://www.w3.org/2000/svg">
    <path d="M99.4797 38.395H5.34967V67.405H99.4797V38.395Z" fill="white"/>
    <path d="M29.1997 21.5651H34.6997L28.7597 14.2951L26.3397 11.3451L17.8497 0.975098L9.3597 11.3451L6.9497 14.2951L0.999695 21.5651H6.5097H29.1997Z" fill="white"/>
    <path d="M25.4797 25.395H9.47968V34.395H25.4797V25.395Z" fill="white"/>
    <path d="M99.4797 68.405H5.34973C4.79973 68.405 4.34973 67.955 4.34973 67.405V38.395C4.34973 37.845 4.79973 37.395 5.34973 37.395H99.4797C100.03 37.395 100.48 37.845 100.48 38.395V67.405C100.48 67.965 100.04 68.405 99.4797 68.405ZM6.34973 66.405H98.4797V39.395H6.34973V66.405Z" fill="#0022CD"/>
    <path d="M89.3197 24.395H15.5197L5.34973 38.405H99.4797L89.3197 24.395Z" fill="#6288B9"/>
    <path d="M68.9197 39.795L63.0897 30.825L60.7297 27.185L52.4197 14.395L44.1097 27.185L41.7397 30.825L35.9197 39.795H37.9197V69.395H66.9197V39.795H68.9197Z" fill="white"/>
    <path d="M58.3797 44.395H46.3797V64.395H58.3797V44.395Z" fill="#C4D3E4"/>
    <path d="M59.1197 64.395H45.6397V67.395H59.1197V64.395Z" fill="white"/>
    <path d="M44.4197 35.395C44.4197 35.745 44.4497 36.115 44.5097 36.535C44.5797 37.025 44.9997 37.395 45.4997 37.395H59.3397C59.8397 37.395 60.2597 37.025 60.3297 36.535C60.3897 36.105 60.4197 35.745 60.4197 35.395C60.4197 30.985 56.8297 27.395 52.4197 27.395C48.0097 27.395 44.4197 30.985 44.4197 35.395ZM58.4197 35.395H46.4197C46.4197 32.085 49.1097 29.395 52.4197 29.395C55.7297 29.395 58.4197 32.085 58.4197 35.395Z" fill="#0022CD"/>
    <path d="M33.5997 46.395H23.5997C23.0497 46.395 22.5997 46.845 22.5997 47.395V51.395V60.395C22.5997 60.945 23.0497 61.395 23.5997 61.395H33.5997C34.1497 61.395 34.5997 60.945 34.5997 60.395V51.395V47.395C34.5997 46.845 34.1597 46.395 33.5997 46.395ZM32.5997 59.395H24.5997V52.395H32.5997V59.395ZM32.5997 50.395H24.5997V48.395H32.5997V50.395Z" fill="#0022CD"/>
    <path d="M19.4797 46.395H9.47974C8.92974 46.395 8.47974 46.845 8.47974 47.395V51.395V60.395C8.47974 60.945 8.92974 61.395 9.47974 61.395H19.4797C20.0297 61.395 20.4797 60.945 20.4797 60.395V51.395V47.395C20.4797 46.845 20.0397 46.395 19.4797 46.395ZM18.4797 59.395H10.4797V52.395H18.4797V59.395ZM18.4797 50.395H10.4797V48.395H18.4797V50.395Z" fill="#0022CD"/>
    <path d="M80.5997 46.395H70.5997C70.0497 46.395 69.5997 46.845 69.5997 47.395V51.395V60.395C69.5997 60.945 70.0497 61.395 70.5997 61.395H80.5997C81.1497 61.395 81.5997 60.945 81.5997 60.395V51.395V47.395C81.5997 46.845 81.1597 46.395 80.5997 46.395ZM79.5997 59.395H71.5997V52.395H79.5997V59.395ZM79.5997 50.395H71.5997V48.395H79.5997V50.395Z" fill="#0022CD"/>
    <path d="M94.4797 46.395H84.4797C83.9297 46.395 83.4797 46.845 83.4797 47.395V51.395V60.395C83.4797 60.945 83.9297 61.395 84.4797 61.395H94.4797C95.0297 61.395 95.4797 60.945 95.4797 60.395V51.395V47.395C95.4797 46.845 95.0397 46.395 94.4797 46.395ZM93.4797 59.395H85.4797V52.395H93.4797V59.395ZM93.4797 50.395H85.4797V48.395H93.4797V50.395Z" fill="#0022CD"/>
    <path d="M30.3497 17.395H5.34973V38.395H30.3497V17.395Z" fill="white"/>
    <path d="M17.8497 16.395C19.5066 16.395 20.8497 15.0519 20.8497 13.395C20.8497 11.7382 19.5066 10.395 17.8497 10.395C16.1929 10.395 14.8497 11.7382 14.8497 13.395C14.8497 15.0519 16.1929 16.395 17.8497 16.395Z" fill="#C4D3E4"/>
    <path d="M35.4797 20.935L18.6297 0.345C18.2497 -0.115 17.4597 -0.115 17.0797 0.345L0.229708 20.935C-0.0202924 21.235 -0.0702922 21.645 0.0997078 21.995C0.259708 22.345 0.609708 22.565 0.999708 22.565H4.34971V38.395C4.34971 38.945 4.79971 39.395 5.34971 39.395H30.3497C30.8997 39.395 31.3497 38.945 31.3497 38.395V22.565H34.6997C35.0897 22.565 35.4397 22.345 35.5997 21.995C35.7697 21.645 35.7197 21.235 35.4797 20.935ZM29.1997 20.565C28.6497 20.565 28.1997 21.015 28.1997 21.565C28.1997 22.115 28.6497 22.565 29.1997 22.565H29.3497V37.395H6.34971V22.565H6.49971C7.04971 22.565 7.49971 22.115 7.49971 21.565C7.49971 21.015 7.04971 20.565 6.49971 20.565H3.09971L17.8397 2.555L32.5897 20.565H29.1997Z" fill="#0022CD"/>
    <path d="M13.8497 13.395C13.8497 15.605 15.6397 17.395 17.8497 17.395C20.0597 17.395 21.8497 15.605 21.8497 13.395C21.8497 11.185 20.0597 9.39502 17.8497 9.39502C15.6397 9.39502 13.8497 11.185 13.8497 13.395ZM19.8497 13.395C19.8497 14.495 18.9497 15.395 17.8497 15.395C16.7497 15.395 15.8497 14.495 15.8497 13.395C15.8497 12.295 16.7497 11.395 17.8497 11.395C18.9497 11.395 19.8497 12.295 19.8497 13.395Z" fill="#0022CD"/>
    <path d="M8.47974 25.395V34.395C8.47974 34.945 8.92974 35.395 9.47974 35.395H25.4797C26.0297 35.395 26.4797 34.945 26.4797 34.395V25.395C26.4797 24.845 26.0297 24.395 25.4797 24.395H9.47974C8.92974 24.395 8.47974 24.845 8.47974 25.395ZM10.4797 26.395H24.4797V33.395H10.4797V26.395Z" fill="#0022CD"/>
    <path d="M90.1897 35.325L86.9397 29.345L85.6197 26.925L80.9797 18.395L76.3497 26.925L75.0297 29.345L71.7797 35.325H74.7897L74.5697 40.745H87.3997L87.1797 35.325H90.1897Z" fill="white"/>
    <path d="M83.4797 31.2451H78.4797V36.7551H83.4797V31.2451Z" fill="white"/>
    <path d="M91.0697 34.8451L81.8597 17.9151C81.5097 17.2751 80.4497 17.2751 80.0997 17.9151L70.8897 34.8451C70.7197 35.1551 70.7297 35.5351 70.9097 35.8351C71.0897 36.1351 71.4197 36.3251 71.7697 36.3251H73.7397L73.5597 40.7051C73.5497 40.9751 73.6497 41.2451 73.8397 41.4351C74.0297 41.6351 74.2897 41.7451 74.5597 41.7451H87.3897C87.6597 41.7451 87.9197 41.6351 88.1097 41.4351C88.2997 41.2351 88.3997 40.9751 88.3897 40.7051L88.2097 36.3251H90.1797C90.5297 36.3251 90.8597 36.1351 91.0397 35.8351C91.2297 35.5351 91.2397 35.1551 91.0697 34.8451ZM87.1797 34.3251C86.9097 34.3251 86.6497 34.4351 86.4597 34.6351C86.2697 34.8351 86.1697 35.0951 86.1797 35.3651L86.3597 39.7451H75.6097L75.7897 35.3651C75.7997 35.0951 75.6997 34.8251 75.5097 34.6351C75.3197 34.4351 75.0597 34.3251 74.7897 34.3251H73.4597L80.9797 20.4951L88.4997 34.3251H87.1797Z" fill="#0022CD"/>
    <path d="M77.4797 31.2451V36.7551C77.4797 37.3051 77.9297 37.7551 78.4797 37.7551H83.4797C84.0297 37.7551 84.4797 37.3051 84.4797 36.7551V31.2451C84.4797 30.6951 84.0297 30.2451 83.4797 30.2451H78.4797C77.9297 30.2451 77.4797 30.6951 77.4797 31.2451ZM79.4797 32.2451H82.4797V35.7551H79.4797V32.2451Z" fill="#0022CD"/>
    <path d="M61.4797 67.395H43.2697V70.395H61.4797V67.395Z" fill="white"/>
    <path d="M61.4797 66.395H60.1097V64.395C60.1097 63.935 59.7897 63.565 59.3697 63.445V44.395C59.3697 43.845 58.9197 43.395 58.3697 43.395H46.3697C45.8197 43.395 45.3697 43.845 45.3697 44.395V63.445C44.9497 63.565 44.6297 63.935 44.6297 64.395V66.395H43.2597C42.7097 66.395 42.2597 66.845 42.2597 67.395V70.395C42.2597 70.945 42.7097 71.395 43.2597 71.395H61.4697C62.0197 71.395 62.4697 70.945 62.4697 70.395V67.395C62.4797 66.845 62.0397 66.395 61.4797 66.395ZM47.3797 45.395H57.3797V63.395H47.3797V45.395ZM46.6397 65.395H58.1197V66.395H46.6397V65.395ZM60.4797 69.395H44.2697V68.395H45.6397H59.1197H60.4897V69.395H60.4797Z" fill="#0022CD"/>
    <path d="M100.29 37.825L90.1297 23.805C89.9397 23.545 89.6397 23.395 89.3197 23.395H83.4897L84.5997 25.395H88.8097L90.2597 27.395H85.7097L86.8197 29.395H91.6997L93.8797 32.395H88.4797L89.5897 34.395H95.0897C95.1697 34.395 95.2297 34.365 95.2997 34.355L97.5197 37.405H87.2597L87.3397 39.405H99.4797C99.8597 39.405 100.2 39.195 100.37 38.855C100.54 38.515 100.51 38.125 100.29 37.825Z" fill="#0022CD"/>
    <path d="M53.2597 13.855C53.0797 13.575 52.7597 13.395 52.4197 13.395C52.0797 13.395 51.7697 13.565 51.5797 13.855L45.3797 23.395H30.3497V25.395H44.0797L42.7797 27.395H30.3497V29.395H41.4797L39.5297 32.395H30.3497V34.395H38.2297L36.2697 37.405H30.3497V38.395H5.34968L5.35968 36.685L4.53968 37.825C4.31968 38.125 4.28968 38.535 4.45968 38.865C4.62968 39.195 4.96968 39.415 5.34968 39.415H34.9997C34.8797 39.695 34.8897 40.005 35.0297 40.275C35.1997 40.595 35.5397 40.795 35.9097 40.795H36.9097V69.395C36.9097 69.945 37.3597 70.395 37.9097 70.395H66.9097C67.4597 70.395 67.9097 69.945 67.9097 69.395V40.795H68.9097C69.2797 40.795 69.6097 40.595 69.7897 40.275C69.9397 40.005 69.9397 39.685 69.8197 39.415H74.4897L74.3997 37.415H68.5497L66.5897 34.405H72.4597L73.5497 32.405H65.2897L63.3397 29.405H75.1797L76.2697 27.405H62.0597L60.7597 25.405H77.3797L78.4697 23.405H59.4597L53.2597 13.855ZM65.9797 39.315C65.9797 39.725 65.9197 40.765 65.9197 40.905V68.395H38.9197V40.985C38.9197 40.845 38.8897 39.765 38.8797 39.375C38.8597 38.785 37.7497 38.825 37.7497 38.825L52.4297 16.235L67.2097 38.855C67.1997 38.855 65.9797 38.595 65.9797 39.315Z" fill="#0022CD"/>
    <path d="M60.8097 68.165H44.0697V69.675H60.8097V68.165Z" fill="white"/>
</svg>
