<svg width="74" height="58" viewBox="0 0 74 58" fill="none" xmlns="http://www.w3.org/2000/svg">
    <rect x="4" y="25" width="66" height="28" fill="white"/>
    <path d="M62.5 11H11.5L4.5 24.5H69.5L62.5 11Z" fill="#C4D3E4"/>
    <path d="M47.3968 17.1514L45.0685 13.5551L36.8386 0.922119L28.6317 13.5551L26.2803 17.1514L20.5171 26.0037H22.4996V55.2579H27.8018V56.2492H45.8062V55.2579H51.1775V26.0037H53.1601L47.3968 17.1514Z" fill="white"/>
    <rect x="31" y="30" width="12" height="20" fill="#EBF0F6"/>
    <path d="M74 52.3533H70.4729V24.6206V24.5975C70.4729 24.5514 70.4729 24.5284 70.4729 24.4822C70.4729 24.4361 70.4498 24.367 70.4268 24.3209C70.4037 24.2517 70.3807 24.2056 70.3576 24.1595L63.3034 10.3738C63.1421 10.0741 62.8193 9.86667 62.4735 9.86667H48.0885V0.922118C48.0885 0.414953 47.6735 0 47.1664 0H42.21C41.7028 0 41.2878 0.414953 41.2878 0.922118V6.08598L37.5994 0.414954C37.438 0.161371 37.1383 0 36.8156 0C36.4928 0 36.2162 0.161371 36.0318 0.414954L29.8766 9.86667H11.2037C10.8579 9.86667 10.5352 10.0511 10.3738 10.3738L3.34268 24.1595C3.31963 24.2056 3.29657 24.2748 3.27352 24.3209C3.25047 24.367 3.25047 24.4361 3.22741 24.4822C3.22741 24.5284 3.22741 24.5514 3.22741 24.5975V24.6206V52.3533H0V54.1975H4.03427C4.08037 54.1975 4.10343 54.1975 4.14953 54.1975H21.6006V55.2349C21.6006 55.7421 22.0156 56.157 22.5227 56.157H26.9028V56.2262C26.9028 56.7333 27.3178 57.1483 27.8249 57.1483H45.8293C46.3364 57.1483 46.7514 56.7333 46.7514 56.2262V56.157H51.1776C51.6847 56.157 52.0997 55.7421 52.0997 55.2349V54.1975H69.5508C69.5969 54.1975 69.6199 54.1975 69.666 54.1975H74V52.3533ZM68.0293 23.6984H52.7682L50.7626 20.6093H66.4617L68.0293 23.6984ZM48.0885 11.7109H61.9202L63.0037 13.8087H48.1115V11.7109H48.0885ZM63.9489 15.676L65.5396 18.7651H49.5639L48.1115 16.529V15.676H63.9489ZM46.2442 13.6935L44.9533 11.734H46.2442V13.6935ZM43.1551 1.84424H46.2673V9.88972H43.7776L43.1551 8.94455V1.84424ZM11.7801 11.7109H28.724L27.3639 13.8087H10.6966L11.7801 11.7109ZM9.77446 15.6299C9.84361 15.653 9.91277 15.653 9.98193 15.653H26.1421L24.1364 18.7421H8.1838L9.77446 15.6299ZM7.26168 20.5402C7.37695 20.5863 7.49221 20.6093 7.63053 20.6093H22.9377L20.9321 23.6984H5.64797L7.26168 20.5402ZM18.4424 52.3763H5.07165V25.5657H19.7333C19.572 25.8424 19.572 26.1651 19.7333 26.4417C19.8947 26.7414 20.1944 26.9259 20.5402 26.9259H21.6006V52.3533H18.4424V52.3763ZM44.8841 55.3271H28.724V54.1975H30.1302H43.4548H44.8611V55.3271H44.8841ZM41.8181 49.3794H31.79V31.4673H41.8181V49.3794ZM31.0523 51.2237H42.5327V52.3533H31.0523V51.2237ZM50.2555 26.0037V54.3358H46.7283V53.2754C46.7283 52.7682 46.3134 52.3533 45.8062 52.3533H44.4V50.3016C44.4 49.8636 44.0773 49.4947 43.6623 49.4025V30.5452C43.6623 30.038 43.2473 29.6231 42.7402 29.6231H30.8679C30.3607 29.6231 29.9458 30.038 29.9458 30.5452V49.4025C29.5308 49.4947 29.2081 49.8636 29.2081 50.3016V52.3533H27.8019C27.2947 52.3533 26.8798 52.7682 26.8798 53.2754V54.3358H23.4218V26.0037C23.4218 25.4966 23.0069 25.0816 22.4997 25.0816H22.2231L36.8386 2.60498L51.4542 25.0816H51.1776C50.6704 25.0816 50.2555 25.4966 50.2555 26.0037ZM52.0997 26.9259H53.1601C53.5059 26.9259 53.8056 26.7414 53.967 26.4417C54.1283 26.1651 54.1053 25.8193 53.967 25.5657H68.6287V52.3533H55.5576H52.0997V26.9259Z" fill="#0022CD"/>
    <path d="M46.2382 1.95386H42.9819V8.85707L46.2382 13.6763V1.95386Z" fill="white"/>
    <path d="M18.2357 32.5967H8.34595C7.83878 32.5967 7.42383 33.0116 7.42383 33.5188V45.368C7.42383 45.8752 7.83878 46.2901 8.34595 46.2901H18.2357C18.7428 46.2901 19.1578 45.8752 19.1578 45.368V33.5188C19.1578 33.0116 18.7428 32.5967 18.2357 32.5967ZM17.3135 44.4459H9.26806V34.4409H17.3135V44.4459Z" fill="#0022CD"/>
    <path d="M64.7322 46.2901C65.2394 46.2901 65.6544 45.8752 65.6544 45.368V33.5188C65.6544 33.0116 65.2394 32.5967 64.7322 32.5967H54.8425C54.3354 32.5967 53.9204 33.0116 53.9204 33.5188V45.368C53.9204 45.8752 54.3354 46.2901 54.8425 46.2901H64.7322ZM55.7646 34.4409H63.8101V44.4459H55.7646V34.4409Z" fill="#0022CD"/>
</svg>
