<svg width="21" height="48" viewBox="0 0 21 48" fill="none" xmlns="http://www.w3.org/2000/svg">
    <path d="M10.2645 1L1.00452 35.28H19.5145L10.2645 1Z" fill="white"/>
    <path d="M20.4745 35.02L11.2245 0.740005C11.1045 0.300005 10.7145 0 10.2545 0C9.79453 0 9.40453 0.300005 9.28453 0.740005L0.034526 35.02C-0.045474 35.32 0.014509 35.64 0.204509 35.89C0.394509 36.14 0.684518 36.28 0.994518 36.28H9.24452V46.75C9.24452 47.3 9.69452 47.75 10.2445 47.75C10.7945 47.75 11.2445 47.3 11.2445 46.75V36.28H19.4945C19.8045 36.28 20.0945 36.14 20.2845 35.89C20.4745 35.64 20.5645 35.32 20.4745 35.02ZM2.31452 34.28L10.2645 4.84001L18.2145 34.28H2.31452Z" fill="#0022CD"/>
</svg>
