<svg width="24" height="46" viewBox="0 0 24 46" fill="none" xmlns="http://www.w3.org/2000/svg">
    <path d="M11.54 11.54C14.45 11.54 16.81 9.18 16.81 6.27C16.81 3.36 14.45 1 11.54 1C8.63001 1 6.27002 3.36 6.27002 6.27C6.27002 9.18 8.63001 11.54 11.54 11.54Z" fill="#CCFF69"/>
    <path d="M11.54 11.98C5.72001 11.98 1.01001 16.69 1.01001 22.51C1.01001 28.33 5.72001 33.04 11.54 33.04C17.36 33.04 22.07 28.33 22.07 22.51C22.07 16.69 17.35 11.98 11.54 11.98Z" fill="#CCFF69"/>
    <path d="M23.07 22.51C23.07 17.35 19.66 12.97 14.98 11.5C16.68 10.38 17.8 8.45 17.8 6.27C17.8 2.81 14.99 0 11.54 0C8.08001 0 5.27002 2.81 5.27002 6.27C5.27002 8.45 6.39 10.38 8.09 11.5C3.41 12.97 0 17.35 0 22.5C0 28.52 4.64 33.47 10.53 33.98V45.76H12.53V33.99C18.43 33.48 23.07 28.53 23.07 22.51ZM11.54 2.01C13.89 2.01 15.8 3.92 15.8 6.28C15.8 8.63 13.89 10.54 11.54 10.54C9.19001 10.54 7.27002 8.63 7.27002 6.28C7.27002 3.93 9.18001 2.01 11.54 2.01ZM11.54 32.04C6.29001 32.04 2.01001 27.76 2.01001 22.51C2.01001 17.26 6.29001 12.98 11.54 12.98C16.79 12.98 21.07 17.26 21.07 22.51C21.07 27.76 16.79 32.04 11.54 32.04Z" fill="#0022CD"/>
</svg>
