<svg width="23" height="29" viewBox="0 0 23 29" fill="none" xmlns="http://www.w3.org/2000/svg">
    <path d="M22.18 11.09C22.18 4.97 17.2 0 11.09 0C4.98 0 0 4.98 0 11.09C0 16.87 4.44 21.63 10.09 22.13V27.8C10.09 28.35 10.54 28.8 11.09 28.8C11.64 28.8 12.09 28.35 12.09 27.8V22.13C17.74 21.62 22.18 16.86 22.18 11.09ZM12.09 20.12V11.4C12.09 10.85 11.64 10.4 11.09 10.4C10.54 10.4 10.09 10.85 10.09 11.4V20.12C5.54 19.62 2 15.76 2 11.08C2 6.07 6.08 1.98999 11.09 1.98999C16.1 1.98999 20.18 6.07 20.18 11.08C20.18 15.76 16.64 19.62 12.09 20.12Z" fill="#0022CD"/>
</svg>
