<svg width="26" height="40" viewBox="0 0 26 40" fill="none" xmlns="http://www.w3.org/2000/svg">
    <path d="M24.8785 34.0676L19.6685 23.6076H23.9185L17.5585 12.9875H23.9185L12.9285 0.987549L1.94852 12.9875H8.3085L1.94852 23.6076H6.19852L0.988525 34.0676H24.8785Z" fill="#65D78D"/>
    <path d="M25.7785 33.6175L21.2885 24.6075H23.9185C24.2785 24.6075 24.6085 24.4175 24.7885 24.0975C24.9685 23.7775 24.9585 23.3975 24.7785 23.0875L19.3285 13.9875H23.9185C24.3185 13.9875 24.6785 13.7575 24.8385 13.3875C24.9985 13.0275 24.9285 12.5975 24.6585 12.3075L13.6785 0.3075C13.2985 -0.1025 12.5785 -0.1025 12.2085 0.3075L1.22848 12.3075C0.958482 12.5975 0.88849 13.0175 1.04849 13.3875C1.20849 13.7475 1.56847 13.9875 1.96847 13.9875H6.55847L1.10849 23.0875C0.918487 23.3975 0.918477 23.7775 1.09848 24.0975C1.27848 24.4175 1.60847 24.6075 1.96847 24.6075H4.59848L0.108487 33.6175C-0.0515128 33.9275 -0.0315042 34.2975 0.148496 34.5875C0.328496 34.8775 0.648471 35.0575 0.998471 35.0575H11.9485V39.0575H13.9485V35.0575H24.8985C25.2485 35.0575 25.5685 34.8775 25.7485 34.5875C25.9085 34.2975 25.9285 33.9275 25.7785 33.6175ZM12.9285 2.4675L21.6385 11.9875H17.5485H8.29849H4.20849L12.9285 2.4675ZM8.87848 13.9875H16.9985L22.1585 22.6075H19.6785H6.20849H3.72848L8.87848 13.9875ZM2.59848 33.0675L6.81848 24.6075H19.0485L23.2685 33.0675H2.59848Z" fill="#133DBD"/>
</svg>
