<svg width="16" height="64" viewBox="0 0 16 64" fill="none" xmlns="http://www.w3.org/2000/svg">
    <path d="M8 46C4.13 46 1 42.87 1 39V8C1 4.13 4.13 1 8 1C11.87 1 15 4.13 15 8V39C15 42.87 11.87 46 8 46Z" fill="white"/>
    <path d="M8 0C3.59 0 0 3.59 0 8V39C0 43.07 3.06 46.44 7 46.93V62.31C7 62.86 7.45 63.31 8 63.31C8.55 63.31 9 62.86 9 62.31V46.93C12.94 46.44 16 43.07 16 39V8C16 3.59 12.41 0 8 0ZM14 39C14 41.97 11.83 44.43 9 44.91V38.06L11.71 34.62C12.05 34.19 11.98 33.56 11.54 33.22C11.11 32.88 10.48 32.95 10.14 33.39L9 34.84V25.07L11.71 21.63C12.05 21.2 11.98 20.57 11.54 20.23C11.11 19.89 10.48 19.96 10.14 20.4L9 21.85V13.02C9 12.47 8.55 12.02 8 12.02C7.45 12.02 7 12.47 7 13.02V16.04L5.70999 14.4C5.36999 13.97 4.74 13.89 4.31 14.23C3.88 14.57 3.79998 15.2 4.13998 15.63L7 19.26V29.03L5.70999 27.39C5.36999 26.96 4.74 26.88 4.31 27.22C3.88 27.56 3.79998 28.19 4.13998 28.62L7 32.25V44.91C4.17 44.43 2 41.97 2 39V8C2 4.69 4.69 2 8 2C11.31 2 14 4.69 14 8V39Z" fill="#133DBD"/>
</svg>
