<svg width="56" height="56" viewBox="0 0 56 56" fill="none" xmlns="http://www.w3.org/2000/svg">
    <path d="M42.2996 28.5107H35.8122C29.894 28.5107 25 33.2909 25 39.323H52.998C53.1118 33.4047 48.3317 28.5107 42.2996 28.5107Z" fill="#CCFF69" stroke="#0022CD" stroke-width="2" stroke-miterlimit="10" stroke-linecap="round" stroke-linejoin="round"/>
    <path d="M39.1127 22.0233C43.2613 22.0233 46.6244 18.6602 46.6244 14.5117C46.6244 10.3631 43.2613 7 39.1127 7C34.9642 7 31.6011 10.3631 31.6011 14.5117C31.6011 18.6602 34.9642 22.0233 39.1127 22.0233Z" stroke="#0022CD" stroke-width="2" stroke-miterlimit="10" stroke-linecap="round" stroke-linejoin="round"/>
    <path d="M20.2996 38.4336H13.8122C7.89396 38.4336 3 43.2137 3 49.2458H30.998C31.1118 43.3276 26.3317 38.4336 20.2996 38.4336Z" fill="#CCFF69" stroke="#0022CD" stroke-width="2" stroke-miterlimit="10" stroke-linecap="round" stroke-linejoin="round"/>
    <path d="M17.1127 31.9462C21.2613 31.9462 24.6244 28.5831 24.6244 24.4345C24.6244 20.2859 21.2613 16.9229 17.1127 16.9229C12.9642 16.9229 9.60107 20.2859 9.60107 24.4345C9.60107 28.5831 12.9642 31.9462 17.1127 31.9462Z" stroke="#0022CD" stroke-width="2" stroke-miterlimit="10" stroke-linecap="round" stroke-linejoin="round"/>
</svg>
