<svg width="400" height="400" viewBox="0 0 400 400" fill="none" xmlns="http://www.w3.org/2000/svg">
    <ellipse cx="196" cy="183" rx="178" ry="182" transform="rotate(90 196 183)" fill="#C4D3E4"/>
    <path d="M208.75 233H182.75V390.5H208.75V233Z" fill="#EBF0F6"/>
    <path d="M208.75 393H182.75C181.37 393 180.25 391.88 180.25 390.5V233C180.25 231.62 181.37 230.5 182.75 230.5H208.75C210.13 230.5 211.25 231.62 211.25 233V390.5C211.25 391.88 210.13 393 208.75 393ZM185.25 388H206.25V235.5H185.25V388Z" fill="#0022CD"/>
    <path d="M245.75 393H145.75C144.37 393 143.25 391.88 143.25 390.5C143.25 389.12 144.37 388 145.75 388H245.75C247.13 388 248.25 389.12 248.25 390.5C248.25 391.88 247.13 393 245.75 393Z" fill="#0022CD"/>
    <path d="M206.25 235H185.25V242.5H206.25V235Z" fill="#CCFF69"/>
    <path d="M250.75 103H142.75C112.925 103 88.75 127.175 88.75 157V233H304.75V157C304.75 127.175 280.575 103 250.75 103Z" fill="white"/>
    <path d="M304.75 235.5H88.75C87.37 235.5 86.25 234.38 86.25 233V157C86.25 125.845 111.595 100.5 142.75 100.5H250.75C281.905 100.5 307.25 125.845 307.25 157V233C307.25 234.38 306.13 235.5 304.75 235.5ZM91.25 230.5H302.25V157C302.25 128.605 279.145 105.5 250.75 105.5H142.75C114.355 105.5 91.25 128.605 91.25 157V230.5Z" fill="#0022CD"/>
    <path d="M249.75 207.25C236.79 207.25 226.25 196.71 226.25 183.75C226.25 182.37 227.37 181.25 228.75 181.25C230.13 181.25 231.25 182.37 231.25 183.75C231.25 193.95 239.55 202.25 249.75 202.25C259.95 202.25 268.25 193.95 268.25 183.75C268.25 182.37 269.37 181.25 270.75 181.25C272.13 181.25 273.25 182.37 273.25 183.75C273.25 196.71 262.71 207.25 249.75 207.25Z" fill="#0022CD"/>
    <path d="M142.75 103C172.575 103 196.75 127.175 196.75 157V233H88.75V157C88.75 127.175 112.925 103 142.75 103Z" fill="white"/>
    <path d="M196.75 235.5H88.75C87.37 235.5 86.25 234.38 86.25 233V157C86.25 125.845 111.595 100.5 142.75 100.5C173.905 100.5 199.25 125.845 199.25 157V233C199.25 234.38 198.13 235.5 196.75 235.5ZM91.25 230.5H194.25V157C194.25 128.605 171.145 105.5 142.75 105.5C114.355 105.5 91.25 128.605 91.25 157V230.5Z" fill="#0022CD"/>
    <path d="M131.6 179.125L120.4 167.875L112 176.312L131.6 196L168 159.438L159.6 151L131.6 179.125Z" fill="#CCFF69"/>
    <path fill-rule="evenodd" clip-rule="evenodd" d="M159.6 148.75C160.198 148.75 160.772 148.988 161.195 149.413L169.595 157.85C170.468 158.728 170.468 160.147 169.595 161.025L133.195 197.587C132.772 198.012 132.198 198.25 131.6 198.25C131.002 198.25 130.428 198.012 130.005 197.587L110.405 177.9C109.532 177.022 109.532 175.603 110.405 174.725L118.805 166.288C119.228 165.863 119.802 165.625 120.4 165.625C120.998 165.625 121.572 165.863 121.995 166.288L131.6 175.936L158.005 149.413C158.428 148.988 159.002 148.75 159.6 148.75ZM159.6 154.189L133.195 180.712C132.772 181.137 132.198 181.375 131.6 181.375C131.002 181.375 130.428 181.137 130.005 180.712L120.4 171.064L115.175 176.312L131.6 192.811L164.825 159.438L159.6 154.189Z" fill="#0022CD"/>
    <path fill-rule="evenodd" clip-rule="evenodd" d="M232.728 147.242C230.385 144.899 226.586 144.899 224.243 147.243C221.9 149.586 221.9 153.385 224.243 155.728L224.243 155.728L232.728 164.213L241.213 155.728L241.213 155.728C243.556 153.385 243.556 149.586 241.213 147.243C238.87 144.899 235.071 144.899 232.728 147.242Z" fill="#0022CD"/>
    <path fill-rule="evenodd" clip-rule="evenodd" d="M265.728 147.242C263.385 144.899 259.586 144.899 257.243 147.243C254.9 149.586 254.9 153.385 257.243 155.728L257.243 155.728L265.728 164.213L274.213 155.728L274.213 155.728C276.556 153.385 276.556 149.586 274.213 147.243C271.87 144.899 268.071 144.899 265.728 147.242Z" fill="#0022CD"/>
</svg>
