<svg width="328" height="230" viewBox="0 0 328 230" fill="none" xmlns="http://www.w3.org/2000/svg">
    <g clip-path="url(#clip0_1_4873)">
        <path d="M223.5 151.8C222.9 151.8 222.3 151.6 221.8 151.2L200.7 135.3L170 152.3C169.9 152.4 169.7 152.4 169.6 152.5C169.5 152.5 169.5 152.6 169.4 152.6C169.2 152.7 169 152.7 168.7 152.7C168.5 152.7 168.4 152.7 168.2 152.7C168.1 152.7 168.1 152.7 168 152.7C167.9 152.7 167.8 152.7 167.8 152.6C167.8 152.6 167.8 152.6 167.7 152.6C167.6 152.6 167.6 152.6 167.5 152.5C167.4 152.5 167.3 152.4 167.2 152.4C167.1 152.4 167.1 152.3 167 152.3C166.9 152.2 166.8 152.2 166.7 152.1C166.7 152.1 166.6 152.1 166.6 152C166.6 152 166.6 152 166.5 151.9C166.4 151.8 166.4 151.8 166.3 151.7C166.3 151.6 166.2 151.6 166.2 151.5C166.2 151.4 166.1 151.4 166.1 151.3C166.1 151.2 166 151.2 166 151.1C166 151 165.9 151 165.9 150.9C165.9 150.8 165.8 150.8 165.8 150.7C165.8 150.6 165.8 150.5 165.7 150.5C165.7 150.4 165.7 150.4 165.7 150.3C165.7 150.2 165.7 150.1 165.7 150.1C165.7 150 165.7 150 165.7 149.9V149.8L166.8 109.7L141 89.9C140.1 89.2 139.7 88.1 140 87C140.3 85.9 141.2 85.1 142.3 85L263.6 68.4C251.6 35.5 220.1 12 183 12C148.8 12 119.3 32 105.6 60.9C101.9 60.1 98 59.7 94.1 59.7C65.3 59.7 41.7 81.7 39 109.8C16.6 116.6 0 137.7 0 162.7C0 192.9 24.2 217.4 54.2 218H271.1C299.1 215.3 321 191.4 321 162.7C321 135.6 301.5 113 275.7 108.3L225.2 151.1C224.8 151.6 224.1 151.8 223.5 151.8ZM103.9 156L149.5 136.1C150.9 135.5 152.5 136.1 153.1 137.5C153.7 138.9 153.1 140.5 151.7 141.1L106.1 161C105.7 161.2 105.4 161.2 105 161.2C103.9 161.2 102.9 160.6 102.5 159.5C101.9 158.2 102.5 156.6 103.9 156ZM125.4 170.7L69.7 195C69.3 195.2 69 195.2 68.6 195.2C67.5 195.2 66.5 194.6 66.1 193.5C65.5 192.1 66.1 190.5 67.5 189.9L123.2 165.6C124.6 165 126.2 165.6 126.8 167C127.5 168.4 126.8 170.1 125.4 170.7ZM158.4 156.3L143.2 162.9C142.8 163.1 142.5 163.1 142.1 163.1C141 163.1 140 162.5 139.6 161.4C139 160 139.6 158.4 141 157.8L156.2 151.2C157.6 150.6 159.2 151.2 159.8 152.6C160.4 154.1 159.8 155.7 158.4 156.3Z" fill="#CCFF69"/>
        <path d="M323.5 63.5L143 88L168.5 108.5V148.5L200.5 132.5L223 148.5L323.5 63.5Z" fill="white"/>
        <path d="M327.8 61.7C327.3 60.6 326.1 59.9 324.9 60.1L263.9 68.4L142.5 85C141.4 85.2 140.5 86 140.2 87C139.9 88.1 140.3 89.2 141.2 89.9L167 109.7L165.9 149.8V149.9C165.9 150 165.9 150 165.9 150.1C165.9 150.2 165.9 150.3 165.9 150.3C165.9 150.4 165.9 150.4 165.9 150.5C165.9 150.6 165.9 150.7 166 150.7C166 150.8 166 150.8 166.1 150.9C166.1 151 166.2 151 166.2 151.1C166.2 151.2 166.3 151.2 166.3 151.3C166.3 151.4 166.4 151.4 166.4 151.5C166.4 151.6 166.5 151.6 166.5 151.7C166.6 151.8 166.6 151.8 166.7 151.9C166.7 151.9 166.7 151.9 166.8 152C166.8 152 166.9 152 166.9 152.1C167 152.2 167.1 152.2 167.2 152.3C167.3 152.3 167.3 152.4 167.4 152.4C167.5 152.5 167.6 152.5 167.7 152.5C167.8 152.5 167.8 152.6 167.9 152.6C167.9 152.6 167.9 152.6 168 152.6C168.1 152.6 168.2 152.6 168.2 152.7C168.3 152.7 168.3 152.7 168.4 152.7C168.6 152.7 168.7 152.7 168.9 152.7C169.1 152.7 169.3 152.7 169.6 152.6C169.7 152.6 169.7 152.5 169.8 152.5C169.9 152.5 170.1 152.4 170.2 152.3L200.9 135.3L222 151.2C222.5 151.6 223.1 151.8 223.7 151.8C224.3 151.8 225 151.6 225.5 151.1L276 108.3L327 64.9C328 64.1 328.3 62.8 327.8 61.7ZM223.4 145.5L206 132.4L203.6 130.6L201.2 128.8L193.7 123.2L268.6 90.8L273.9 88.5L299.8 77.3L308.3 73.6L301 79.7L268.2 107.5L223.4 145.5ZM178 141.6L188.9 126.4L195.9 131.7L178 141.6ZM285.7 71L297.7 69.4L266.7 78.3L181.6 102.8L171 105.9L170.9 105.8L168.3 103.8L149.8 89.5L265.5 73.7L285.7 71ZM171.7 140.9L171.8 136.3L172.5 111.2L252.9 88L267.8 83.7L271.3 82.7L267.9 84.2L250.6 91.9L200.8 113.9L187.2 119.9C187.1 119.9 187.1 120 187 120C186.9 120.1 186.7 120.1 186.6 120.2C186.5 120.3 186.5 120.3 186.4 120.4C186.3 120.5 186.2 120.6 186.1 120.7L183.2 124.8L174.8 136.6L171.7 140.9Z" fill="#0022CD"/>
    </g>
    <defs>
        <clipPath id="clip0_1_4873">
            <rect width="328" height="230" fill="white"/>
        </clipPath>
    </defs>
</svg>
