<svg width="584" height="70" viewBox="0 0 584 70" xmlns="http://www.w3.org/2000/svg">
    <path d="M321.11 60.5206L316.479 51.1496H320.256L314.604 41.6353H320.256L310.49 30.8847L300.732 41.6353H306.384L300.732 51.1496H304.509L299.878 60.5206H321.11Z" fill="#CCFF69"/>
    <path d="M321.909 60.1174L317.919 52.0455H320.256C320.576 52.0455 320.87 51.8753 321.03 51.5886C321.19 51.3019 321.181 50.9615 321.021 50.6838L316.177 42.5312H320.256C320.612 42.5312 320.932 42.3251 321.074 41.9937C321.216 41.6711 321.154 41.2859 320.914 41.0261L311.156 30.2755C310.818 29.9082 310.179 29.9082 309.85 30.2755L300.092 41.0261C299.852 41.2859 299.79 41.6622 299.932 41.9937C300.074 42.3162 300.394 42.5312 300.749 42.5312H304.829L299.985 50.6838C299.816 50.9615 299.816 51.3019 299.976 51.5886C300.136 51.8753 300.429 52.0455 300.749 52.0455H303.087L299.096 60.1174C298.954 60.3951 298.972 60.7266 299.132 60.9864C299.292 61.2462 299.576 61.4075 299.887 61.4075H309.619V64.991H311.396V61.4075H321.127C321.438 61.4075 321.723 61.2462 321.883 60.9864C322.025 60.7266 322.043 60.3951 321.909 60.1174ZM310.49 32.2106L318.23 40.7394H314.595H306.375H302.74L310.49 32.2106ZM306.89 42.5312H314.107L318.692 50.2537H316.488H304.517H302.314L306.89 42.5312ZM301.309 59.6247L305.06 52.0455H315.928L319.679 59.6247H301.309Z" fill="#0022CD"/>
    <path d="M1 66H582.5" stroke="#0022CD" stroke-width="1.8" stroke-linecap="round"/>
    <path d="M24 70C26.7614 70 29 67.7614 29 65C29 62.2386 26.7614 60 24 60C21.2386 60 19 62.2386 19 65C19 67.7614 21.2386 70 24 70Z" fill="#CCFF69"/>
    <path d="M338.118 57.1453L332.383 45.6731H337.056L330.072 34.0331H337.056L324.992 20.8728L312.928 34.0331H319.912L312.928 45.6731H317.593L311.866 57.1453H338.118Z" fill="#CCFF69"/>
    <path d="M338.906 56.7564L333.816 46.557H337.056C337.375 46.557 337.667 46.389 337.826 46.1062C337.985 45.8234 337.976 45.4875 337.817 45.2135L331.639 34.908H337.065C337.419 34.908 337.737 34.7048 337.879 34.3777C338.021 34.0596 337.959 33.6795 337.72 33.4232L325.647 20.2718C325.311 19.9094 324.673 19.9094 324.346 20.2718L312.282 33.432C312.043 33.6884 311.981 34.0596 312.123 34.3866C312.264 34.7048 312.583 34.9169 312.937 34.9169H318.363L312.185 45.2224C312.017 45.4964 312.017 45.8322 312.176 46.115C312.335 46.3979 312.627 46.5658 312.946 46.5658H316.185L311.096 56.7652C310.954 57.0392 310.972 57.3662 311.131 57.6225C311.291 57.8788 311.574 58.0379 311.884 58.0379H324.125V67H325.895V58.0291H338.136C338.445 58.0291 338.729 57.87 338.888 57.6137C339.03 57.3574 339.038 57.0304 338.906 56.7564ZM324.992 22.1809L335.047 33.1492H330.072H319.912H314.937L324.992 22.1809ZM320.416 34.9169H329.568L335.489 44.7893H332.383H317.593H314.486L320.416 34.9169ZM313.3 56.2614L318.141 46.557H331.834L336.675 56.2614H313.3Z" fill="#0022CD"/>
    <path d="M185.603 46.79C187.199 46.79 188.493 45.4595 188.493 43.8183C188.493 42.1771 187.199 40.8466 185.603 40.8466C184.007 40.8466 182.713 42.1771 182.713 43.8183C182.713 45.4595 184.007 46.79 185.603 46.79Z" fill="white"/>
    <path d="M185.603 47.0355C182.408 47.0355 179.823 49.7023 179.823 52.9873C179.823 56.2722 182.408 58.9306 185.603 58.9306C188.797 58.9306 191.383 56.2722 191.383 52.9873C191.383 49.7023 188.797 47.0355 185.603 47.0355Z" fill="white"/>
    <path d="M192.206 52.9873C192.206 50.1257 190.477 47.6789 188.04 46.6799C188.814 45.9772 189.316 44.9613 189.316 43.8183C189.316 41.7102 187.653 40 185.603 40C183.553 40 181.89 41.7102 181.89 43.8183C181.89 44.9613 182.392 45.9772 183.166 46.6799C180.729 47.6789 179 50.1257 179 52.9873C179 56.4416 181.528 59.3032 184.78 59.718V66.1101H186.426V59.718C189.678 59.2947 192.206 56.4416 192.206 52.9873ZM185.603 41.6933C186.739 41.6933 187.669 42.65 187.669 43.8183C187.669 44.9866 186.747 45.9433 185.603 45.9433C184.459 45.9433 183.536 44.9951 183.536 43.8183C183.536 42.6415 184.467 41.6933 185.603 41.6933ZM185.603 58.084C182.87 58.084 180.647 55.7981 180.647 52.9873C180.647 50.1765 182.87 47.8906 185.603 47.8906C188.336 47.8906 190.559 50.1765 190.559 52.9873C190.559 55.7981 188.336 58.084 185.603 58.084Z" fill="#0022CD"/>
    <path d="M157.004 35.8331C159.527 35.8331 161.573 33.8222 161.573 31.3426C161.573 28.863 159.527 26.8521 157.004 26.8521C154.482 26.8521 152.436 28.863 152.436 31.3426C152.436 33.8222 154.482 35.8331 157.004 35.8331Z" fill="#CCFF69"/>
    <path d="M157.004 36.208C151.959 36.208 147.876 40.2213 147.876 45.1805C147.876 50.1396 151.959 54.153 157.004 54.153C162.05 54.153 166.133 50.1396 166.133 45.1805C166.133 40.2213 162.041 36.208 157.004 36.208Z" fill="#CCFF69"/>
    <path d="M167 45.1805C167 40.7837 164.044 37.0516 159.987 35.799C161.46 34.8447 162.431 33.2001 162.431 31.3426C162.431 28.3944 159.995 26 157.004 26C154.005 26 151.569 28.3944 151.569 31.3426C151.569 33.2001 152.54 34.8447 154.013 35.799C149.956 37.0516 147 40.7837 147 45.1719C147 50.3015 151.023 54.5193 156.129 54.9539V64.9915H157.863V54.9624C162.977 54.5279 167 50.31 167 45.1805ZM157.004 27.7127C159.042 27.7127 160.697 29.3402 160.697 31.3511C160.697 33.3535 159.042 34.981 157.004 34.981C154.967 34.981 153.303 33.3535 153.303 31.3511C153.303 29.3487 154.958 27.7127 157.004 27.7127ZM157.004 53.3009C152.453 53.3009 148.743 49.6539 148.743 45.1805C148.743 40.707 152.453 37.0601 157.004 37.0601C161.556 37.0601 165.266 40.707 165.266 45.1805C165.266 49.6539 161.556 53.3009 157.004 53.3009Z" fill="#0022CD"/>
    <path d="M390 52.2417C390 47.1417 385.734 43 380.5 43C375.266 43 371 47.15 371 52.2417C371 57.0583 374.803 61.025 379.643 61.4417V66.1667C379.643 66.625 380.029 67 380.5 67C380.971 67 381.357 66.625 381.357 66.1667V61.4417C386.197 61.0167 390 57.05 390 52.2417ZM381.357 59.7667V52.5C381.357 52.0417 380.971 51.6667 380.5 51.6667C380.029 51.6667 379.643 52.0417 379.643 52.5V59.7667C375.746 59.35 372.713 56.1333 372.713 52.2333C372.713 48.0583 376.208 44.6583 380.5 44.6583C384.792 44.6583 388.287 48.0583 388.287 52.2333C388.287 56.1333 385.254 59.35 381.357 59.7667Z" fill="#0022CD"/>
    <path d="M278.264 19L269.005 53.28H287.514L278.264 19Z" fill="white"/>
    <path d="M288.474 53.02L279.224 18.74C279.104 18.3 278.715 18 278.255 18C277.795 18 277.405 18.3 277.285 18.74L268.035 53.02C267.955 53.32 268.015 53.64 268.205 53.89C268.395 54.14 268.685 54.28 268.995 54.28H277.245V64.75C277.245 65.3 277.695 65.75 278.245 65.75C278.795 65.75 279.245 65.3 279.245 64.75V54.28H287.495C287.805 54.28 288.095 54.14 288.285 53.89C288.475 53.64 288.564 53.32 288.474 53.02ZM270.315 52.28L278.265 22.84L286.215 52.28H270.315Z" fill="#0022CD"/>
    <path d="M398.5 51.5089C395.356 51.5089 392.812 48.8887 392.812 45.6489V19.6972C392.812 16.4574 395.356 13.8372 398.5 13.8372C401.644 13.8372 404.188 16.4574 404.188 19.6972V45.6489C404.188 48.8887 401.644 51.5089 398.5 51.5089Z" fill="white"/>
    <path d="M398.5 13C394.917 13 392 16.0054 392 19.6972V45.6489C392 49.0561 394.486 51.8773 397.688 52.2875V65.1628C397.688 65.6233 398.053 66 398.5 66C398.947 66 399.312 65.6233 399.312 65.1628V52.2875C402.514 51.8773 405 49.0561 405 45.6489V19.6972C405 16.0054 402.083 13 398.5 13ZM403.375 45.6489C403.375 48.1352 401.612 50.1946 399.312 50.5964V44.8619L401.514 41.9821C401.791 41.6222 401.734 41.0948 401.376 40.8101C401.027 40.5255 400.515 40.5841 400.239 40.9525L399.312 42.1663V33.9874L401.514 31.1076C401.791 30.7476 401.734 30.2202 401.376 29.9356C401.027 29.6509 400.515 29.7095 400.239 30.0779L399.312 31.2917V23.8997C399.312 23.4393 398.947 23.0625 398.5 23.0625C398.053 23.0625 397.688 23.4393 397.688 23.8997V26.4279L396.639 25.055C396.363 24.695 395.851 24.628 395.502 24.9126C395.152 25.1973 395.087 25.7247 395.364 26.0847L397.688 29.1235V37.3025L396.639 35.9296C396.363 35.5696 395.851 35.5026 395.502 35.7872C395.152 36.0719 395.087 36.5993 395.364 36.9592L397.688 39.9981V50.5964C395.388 50.1946 393.625 48.1352 393.625 45.6489V19.6972C393.625 16.9262 395.811 14.6743 398.5 14.6743C401.189 14.6743 403.375 16.9262 403.375 19.6972V45.6489Z" fill="#0022CD"/>
    <path d="M548.046 31.3839C547.393 31.3839 546.773 31.4791 546.175 31.6377C544.98 28.2277 541.766 25.7851 537.977 25.7851C534.26 25.7851 531.1 28.1325 529.85 31.4395C529.552 31.3998 529.253 31.376 528.946 31.376C524.993 31.376 521.786 34.6116 521.786 38.6006C521.786 42.5895 524.993 45.8251 528.946 45.8251C531.375 45.8251 533.513 44.6039 534.81 42.7402C535.792 43.1288 536.861 43.3509 537.977 43.3509C539.408 43.3509 540.76 42.994 541.954 42.3754C543.212 44.4373 545.468 45.8251 548.046 45.8251C551.999 45.8251 555.206 42.5895 555.206 38.6006C555.206 34.6195 551.999 31.3839 548.046 31.3839Z" fill="white"/>
    <path d="M548.046 30.5909C547.59 30.5909 547.126 30.6306 546.655 30.7178C545.146 27.2681 541.742 25 537.977 25C534.275 25 530.88 27.2284 529.347 30.6068C529.206 30.5988 529.072 30.5909 528.946 30.5909C524.561 30.5909 521 34.1913 521 38.6085C521 43.0257 524.568 46.6261 528.946 46.6261C530.275 46.6261 531.564 46.2772 532.703 45.6507L537.113 49.148V66H538.685V48.8545L542.701 44.5246C544.147 45.8648 546.026 46.634 548.054 46.634C552.439 46.634 556 43.0337 556 38.6164C556 34.1992 552.432 30.5909 548.046 30.5909ZM534.063 44.7228C534.425 44.4135 534.771 44.0725 535.085 43.6998C535.753 43.9139 536.429 44.0487 537.113 44.1122V47.1416L534.063 44.7228ZM538.685 44.1201C539.659 44.0487 540.626 43.8188 541.546 43.446L538.685 46.5309V44.1201ZM548.046 45.048C545.821 45.048 543.794 43.8981 542.623 41.9789L542.237 41.3524L541.593 41.6855C539.581 42.7323 537.231 42.8592 535.093 42.0186L534.519 41.7886L534.165 42.2961C532.971 44.017 531.021 45.04 528.946 45.04C525.433 45.04 522.572 42.1534 522.572 38.6085C522.572 35.0636 525.433 32.177 528.946 32.177C529.19 32.177 529.442 32.1928 529.748 32.2325L530.361 32.3118L530.581 31.7329C531.744 28.6559 534.715 26.5861 537.977 26.5861C541.318 26.5861 544.312 28.7273 545.436 31.9073L545.68 32.5973L546.38 32.407C546.938 32.2563 547.503 32.177 548.046 32.177C551.559 32.177 554.42 35.0636 554.42 38.6085C554.42 42.1534 551.559 45.048 548.046 45.048Z" fill="#0022CD"/>
    <path d="M555 56.5139C561.745 56.5139 567.214 50.9806 567.214 44.1549C567.214 37.3292 561.745 31.7958 555 31.7958C548.255 31.7958 542.786 37.3292 542.786 44.1549C542.786 50.9806 548.255 56.5139 555 56.5139Z" fill="#CCFF69"/>
    <path d="M568 44.1548C568 36.897 562.165 31 555 31C547.835 31 542 36.905 542 44.1548C542 51.1182 547.371 56.8163 554.143 57.2699V65.2042C554.143 65.6419 554.497 66 554.929 66C555.362 66 555.716 65.6419 555.716 65.2042V57.2779C562.542 56.8959 568 51.166 568 44.1548ZM555.739 55.6783L558.468 51.2615C558.696 50.8875 558.586 50.394 558.217 50.1633C557.847 49.9325 557.359 50.0439 557.131 50.4179L555.7 52.7337V40.9159C555.7 40.4782 555.346 40.1201 554.914 40.1201C554.481 40.1201 554.127 40.4782 554.127 40.9159V46.0728L551.524 43.5819C551.209 43.2794 550.714 43.2954 550.415 43.6137C550.116 43.932 550.132 44.4334 550.446 44.7358L554.127 48.2692V55.2883V55.2963C554.048 55.4156 554.025 55.5509 554.017 55.6862C548.166 55.1849 543.557 50.219 543.557 44.1708C543.557 37.7963 548.685 32.6076 554.984 32.6076C561.284 32.6076 566.411 37.7963 566.411 44.1708C566.427 50.2747 561.693 55.2883 555.739 55.6783Z" fill="#0022CD"/>
    <path d="M255 56.8478C261.627 56.8478 267 51.5093 267 44.9239C267 38.3385 261.627 33 255 33C248.373 33 243 38.3385 243 44.9239C243 51.5093 248.373 56.8478 255 56.8478Z" fill="#CCFF69"/>
    <path d="M258.624 50.6133C258.261 50.3907 257.782 50.4982 257.558 50.859L255.695 53.815V41.799C255.695 41.3767 255.348 41.0312 254.923 41.0312C254.498 41.0312 254.15 41.3767 254.15 41.799V46.7743L251.592 44.3711C251.283 44.0794 250.797 44.0947 250.503 44.4018C250.209 44.7089 250.225 45.1927 250.534 45.4844L254.15 48.8934V65.2322C254.15 65.6545 254.498 66 254.923 66C255.348 66 255.695 65.6545 255.695 65.2322V56.5868C255.78 56.5254 255.858 56.4563 255.912 56.3641L258.863 51.6729C259.095 51.312 258.987 50.836 258.624 50.6133Z" fill="#0022CD"/>
    <path d="M448 37.1282C448 31.4825 443.551 26.8985 438.054 26.8985C436.981 26.8985 435.949 27.0755 434.982 27.4041C433.507 23.6543 429.943 21 425.765 21C420.276 21 415.819 25.5756 415.819 31.2297C415.819 34.0442 416.925 36.5889 418.711 38.4343C416.45 40.305 415 43.1784 415 46.3973C415 52.0431 419.449 56.627 424.946 56.627C426.765 56.627 428.469 56.113 429.943 55.2367C430.951 55.5906 432.024 55.7844 433.139 55.7844C438.497 55.7844 442.855 51.4195 443.06 45.9592C446.009 44.1812 448 40.8949 448 37.1282Z" fill="#CCFF69"/>
    <path d="M433.704 50.2398C433.319 49.9954 432.811 50.1134 432.573 50.5094L430.599 53.7536V33.6987C430.599 33.2352 430.23 32.856 429.78 32.856C429.329 32.856 428.96 33.2352 428.96 33.6987V45.9002L426.249 43.2627C425.921 42.9425 425.405 42.9593 425.093 43.2964C424.782 43.6334 424.798 44.1643 425.126 44.4845L428.96 48.2259V66.1573C428.96 66.6208 429.329 67 429.78 67C430.23 67 430.599 66.6208 430.599 66.1573V56.7956C430.689 56.7282 430.771 56.6523 430.828 56.5512L433.958 51.4026C434.204 51.0066 434.089 50.4841 433.704 50.2398Z" fill="#0022CD"/>
    <path d="M334.083 45.3982V66.0622H360.515V46.1929L347.002 36.8464L334.083 45.3982Z" fill="white"/>
    <path d="M334.226 59.3305C335.913 59.3305 337.281 57.9569 337.281 56.2626C337.281 54.5683 335.913 53.1948 334.226 53.1948C332.538 53.1948 331.17 54.5683 331.17 56.2626C331.17 57.9569 332.538 59.3305 334.226 59.3305Z" fill="white"/>
    <path d="M334.226 66.1973C335.913 66.1973 337.281 64.8238 337.281 63.1295C337.281 61.4352 335.913 60.0616 334.226 60.0616C332.538 60.0616 331.17 61.4352 331.17 63.1295C331.17 64.8238 332.538 66.1973 334.226 66.1973Z" fill="white"/>
    <path d="M359.557 59.3305C361.245 59.3305 362.613 57.9569 362.613 56.2626C362.613 54.5683 361.245 53.1948 359.557 53.1948C357.87 53.1948 356.502 54.5683 356.502 56.2626C356.502 57.9569 357.87 59.3305 359.557 59.3305Z" fill="white"/>
    <path d="M359.557 66.1973C361.245 66.1973 362.613 64.8238 362.613 63.1295C362.613 61.4352 361.245 60.0616 359.557 60.0616C357.87 60.0616 356.502 61.4352 356.502 63.1295C356.502 64.8238 357.87 66.1973 359.557 66.1973Z" fill="white"/>
    <path d="M334.226 52.4637C335.913 52.4637 337.281 51.0902 337.281 49.3959C337.281 47.7016 335.913 46.3281 334.226 46.3281C332.538 46.3281 331.17 47.7016 331.17 49.3959C331.17 51.0902 332.538 52.4637 334.226 52.4637Z" fill="white"/>
    <path d="M359.557 52.4637C361.245 52.4637 362.613 51.0902 362.613 49.3959C362.613 47.7016 361.245 46.3281 359.557 46.3281C357.87 46.3281 356.502 47.7016 356.502 49.3959C356.502 51.0902 357.87 52.4637 359.557 52.4637Z" fill="white"/>
    <path d="M347.002 47.1228C348.314 47.1228 349.377 46.0553 349.377 44.7385C349.377 43.4217 348.314 42.3542 347.002 42.3542C345.691 42.3542 344.627 43.4217 344.627 44.7385C344.627 46.0553 345.691 47.1228 347.002 47.1228Z" fill="white"/>
    <path d="M351.752 51.8914H342.253V65.4025H351.752V51.8914Z" fill="#6288B9"/>
    <path d="M349.377 61.4287C348.942 61.4287 348.585 61.071 348.585 60.6339V59.0443C348.585 58.6072 348.942 58.2496 349.377 58.2496C349.812 58.2496 350.169 58.6072 350.169 59.0443V60.6339C350.169 61.071 349.812 61.4287 349.377 61.4287Z" fill="#0022CD"/>
    <path d="M365.645 48.2911L347.438 36.1311C347.168 35.9563 346.828 35.9563 346.559 36.1311L328.352 48.2911C327.988 48.5375 327.893 49.0303 328.13 49.3959C328.376 49.7614 328.866 49.8568 329.231 49.6184L330.434 48.8157C330.402 49.0064 330.378 49.2051 330.378 49.4038C330.378 50.9059 331.249 52.2014 332.5 52.8372C331.249 53.473 330.378 54.7685 330.378 56.2706C330.378 57.7727 331.249 59.0682 332.5 59.704C331.249 60.3398 330.378 61.6353 330.378 63.1374C330.378 65.2674 332.104 67 334.226 67C334.558 67 334.883 66.9444 335.191 66.8649H358.591C358.9 66.9444 359.225 67 359.557 67C361.679 67 363.404 65.2674 363.404 63.1374C363.404 61.6353 362.534 60.3398 361.283 59.704C362.534 59.0682 363.404 57.7727 363.404 56.2706C363.404 54.7685 362.534 53.473 361.283 52.8372C362.534 52.2014 363.404 50.9059 363.404 49.4038C363.404 49.1495 363.373 48.8952 363.325 48.6567L364.774 49.6184C364.908 49.7058 365.059 49.7535 365.209 49.7535C365.463 49.7535 365.716 49.6263 365.866 49.3959C366.112 49.0223 366.009 48.5296 365.645 48.2911ZM347.002 43.149C347.873 43.149 348.585 43.8643 348.585 44.7385C348.585 45.6127 347.873 46.328 347.002 46.328C346.131 46.328 345.419 45.6127 345.419 44.7385C345.419 43.8643 346.131 43.149 347.002 43.149ZM347.794 41.6707V38.2691L357.349 44.6511H350.161C350.121 43.2125 349.132 42.0204 347.794 41.6707ZM346.211 38.277V41.6786C344.881 42.0283 343.883 43.2205 343.844 44.659H336.656L346.211 38.277ZM334.226 65.4025C332.975 65.4025 331.962 64.3852 331.962 63.1295C331.962 61.8737 332.975 60.8564 334.226 60.8564C335.476 60.8564 336.49 61.8737 336.49 63.1295C336.49 64.3852 335.468 65.4025 334.226 65.4025ZM334.226 58.5357C332.975 58.5357 331.962 57.5184 331.962 56.2627C331.962 55.0069 332.975 53.9896 334.226 53.9896C335.476 53.9896 336.49 55.0069 336.49 56.2627C336.49 57.5184 335.468 58.5357 334.226 58.5357ZM334.226 51.6689C332.975 51.6689 331.962 50.6516 331.962 49.3959C331.962 48.1401 332.975 47.1228 334.226 47.1228C335.476 47.1228 336.49 48.1401 336.49 49.3959C336.49 50.6436 335.468 51.6689 334.226 51.6689ZM341.461 65.2674H337.424C337.827 64.6554 338.065 63.9242 338.065 63.1374C338.065 62.1837 337.709 61.3094 337.131 60.6418H341.453V65.2674H341.461ZM341.461 59.0444H336.862C337.598 58.345 338.065 57.3594 338.065 56.2627C338.065 55.1818 337.614 54.2122 336.893 53.5128H341.461V59.0444ZM350.96 64.6077H343.044V52.6862H350.96V64.6077ZM351.752 51.0967H342.253C341.817 51.0967 341.461 51.4543 341.461 51.8914V51.9232H337.107C337.701 51.2477 338.073 50.3655 338.073 49.3959C338.073 48.0845 337.416 46.94 336.418 46.2486H344.232C344.77 47.242 345.799 47.9255 347.002 47.9255C348.205 47.9255 349.235 47.242 349.773 46.2486H357.356C356.367 46.948 355.71 48.0924 355.71 49.3959C355.71 50.3734 356.082 51.2477 356.676 51.9232H352.543V51.8914C352.543 51.4543 352.187 51.0967 351.752 51.0967ZM356.359 65.2674H352.551V60.6339H356.652C356.074 61.3015 355.718 62.1757 355.718 63.1295C355.71 63.9242 355.947 64.6554 356.359 65.2674ZM352.543 59.0444V53.5128H356.881C356.161 54.2122 355.71 55.1818 355.71 56.2627C355.71 57.3594 356.177 58.345 356.921 59.0444H352.543ZM361.821 63.1295C361.821 64.3852 360.808 65.4025 359.557 65.4025C358.306 65.4025 357.293 64.3852 357.293 63.1295C357.293 61.8737 358.306 60.8564 359.557 60.8564C360.8 60.8564 361.821 61.8817 361.821 63.1295ZM361.821 56.2627C361.821 57.5184 360.808 58.5357 359.557 58.5357C358.306 58.5357 357.293 57.5184 357.293 56.2627C357.293 55.0069 358.306 53.9896 359.557 53.9896C360.8 53.9896 361.821 55.0149 361.821 56.2627ZM359.557 51.6689C358.306 51.6689 357.293 50.6516 357.293 49.3959C357.293 48.1401 358.306 47.1228 359.557 47.1228C360.808 47.1228 361.821 48.1401 361.821 49.3959C361.821 50.6436 360.8 51.6689 359.557 51.6689Z" fill="#0022CD"/>
    <path d="M43.9293 28.3025C43.2099 28.3025 42.5054 28.376 41.8232 28.5232C40.2732 27.5592 38.4415 27 36.4763 27C33.2133 27 30.3212 28.5379 28.4746 30.9221C28.3634 30.9221 28.2596 30.9147 28.1483 30.9147C20.8882 30.9147 15 36.7574 15 43.9613C15 51.1653 20.8882 57.0079 28.1483 57.0079C34.0662 57.0079 39.0719 53.13 40.7182 47.7951C41.7268 48.1336 42.8021 48.3175 43.9219 48.3175C49.4912 48.3175 54 43.8436 54 38.3174C54 32.7911 49.4911 28.3025 43.9293 28.3025Z" fill="#CCFF69"/>
    <path d="M45.7981 37.8096C45.5237 37.5079 45.0565 37.4785 44.7524 37.7507L44.1666 38.2658L44.656 35.8375C44.7376 35.4402 44.478 35.0502 44.0776 34.9692C43.6771 34.8883 43.2841 35.1458 43.2025 35.5432L42.3275 39.8847L36.7804 44.7707V36.9634C36.7804 36.5587 36.4467 36.2275 36.0388 36.2275C35.6309 36.2275 35.2972 36.5587 35.2972 36.9634V49.4728L29.6612 44.2556L31.7302 42.313C32.0268 42.0334 32.0417 41.5698 31.7599 41.2754C31.478 40.9811 31.0108 40.9664 30.7142 41.246L28.5785 43.2549L27.3474 42.1143C27.0434 41.8347 26.5762 41.8568 26.3018 42.1511C26.02 42.4454 26.0422 42.9164 26.3389 43.1887L27.9407 44.6751L23.8842 44.1011C23.4763 44.0422 23.1055 44.3219 23.0462 44.7266C22.9869 45.1313 23.2687 45.4992 23.6766 45.5581L29.8095 46.4264C29.8169 46.4264 29.8243 46.4264 29.8391 46.4264L35.3121 51.489V65.2641C35.3121 65.6688 35.6458 66 36.0536 66C36.4615 66 36.7952 65.6688 36.7952 65.2641V46.7428L40.2139 43.7258C40.2436 43.7258 40.2658 43.7258 40.2955 43.7185L44.6635 42.6956C45.0639 42.6 45.3086 42.2026 45.2122 41.8126C45.1158 41.4153 44.7153 41.1724 44.3223 41.2681L42.5351 41.6875L45.7536 38.8545C46.0428 38.5822 46.0725 38.1187 45.7981 37.8096Z" fill="#0022CD"/>
    <path d="M225.771 4.80679V1.59326H217.466V4.80679H211.08V11.2255H213V19.5739H193.835V25.9926H195.755V65.7968H213H230.245V11.2255H232.157V4.80679H225.771Z" fill="white"/>
    <path d="M198.626 16.0416H196.072V19.2551H198.626V16.0416Z" fill="white"/>
    <path d="M208.526 48.4622H200.22V65.7968H208.526V48.4622Z" fill="#C4D3E4"/>
    <path d="M219.703 24.3817H216.506V29.5166H219.703V24.3817Z" fill="#C4D3E4"/>
    <path d="M216.506 21.0506H219.703C220.162 21.0506 220.537 20.6731 220.537 20.2116V15.0767C220.537 14.6152 220.162 14.2376 219.703 14.2376H216.506C216.047 14.2376 215.671 14.6152 215.671 15.0767V20.2116C215.671 20.6731 216.047 21.0506 216.506 21.0506ZM217.34 15.9157H218.868V19.3725H217.34V15.9157Z" fill="#0022CD"/>
    <path d="M222.9 21.0506H226.097C226.556 21.0506 226.932 20.6731 226.932 20.2116V15.0767C226.932 14.6152 226.556 14.2376 226.097 14.2376H222.9C222.441 14.2376 222.065 14.6152 222.065 15.0767V20.2116C222.065 20.6731 222.432 21.0506 222.9 21.0506ZM223.735 15.9157H225.262V19.3725H223.735V15.9157Z" fill="#0022CD"/>
    <path d="M216.506 30.364H219.703C220.162 30.364 220.537 29.9865 220.537 29.525V24.3901C220.537 23.9286 220.162 23.551 219.703 23.551H216.506C216.047 23.551 215.671 23.9286 215.671 24.3901V29.525C215.671 29.9865 216.047 30.364 216.506 30.364ZM217.34 25.2207H218.868V28.6776H217.34V25.2207Z" fill="#0022CD"/>
    <path d="M222.9 30.364H226.097C226.556 30.364 226.932 29.9865 226.932 29.525V24.3901C226.932 23.9286 226.556 23.551 226.097 23.551H222.9C222.441 23.551 222.065 23.9286 222.065 24.3901V29.525C222.065 29.9865 222.432 30.364 222.9 30.364ZM223.735 25.2207H225.262V28.6776H223.735V25.2207Z" fill="#0022CD"/>
    <path d="M216.506 39.669H219.703C220.162 39.669 220.537 39.2914 220.537 38.8299V33.695C220.537 33.2335 220.162 32.856 219.703 32.856H216.506C216.047 32.856 215.671 33.2335 215.671 33.695V38.8299C215.671 39.2914 216.047 39.669 216.506 39.669ZM217.34 34.534H218.868V37.9909H217.34V34.534Z" fill="#0022CD"/>
    <path d="M222.9 39.669H226.097C226.556 39.669 226.932 39.2914 226.932 38.8299V33.695C226.932 33.2335 226.556 32.856 226.097 32.856H222.9C222.441 32.856 222.065 33.2335 222.065 33.695V38.8299C222.065 39.2914 222.432 39.669 222.9 39.669ZM223.735 34.534H225.262V37.9909H223.735V34.534Z" fill="#0022CD"/>
    <path d="M216.506 48.9823H219.703C220.162 48.9823 220.537 48.6048 220.537 48.1433V43.0084C220.537 42.5469 220.162 42.1693 219.703 42.1693H216.506C216.047 42.1693 215.671 42.5469 215.671 43.0084V48.1433C215.671 48.6048 216.047 48.9823 216.506 48.9823ZM217.34 43.8474H218.868V47.3042H217.34V43.8474Z" fill="#0022CD"/>
    <path d="M222.9 48.9823H226.097C226.556 48.9823 226.932 48.6048 226.932 48.1433V43.0084C226.932 42.5469 226.556 42.1693 226.097 42.1693H222.9C222.441 42.1693 222.065 42.5469 222.065 43.0084V48.1433C222.065 48.6048 222.432 48.9823 222.9 48.9823ZM223.735 43.8474H225.262V47.3042H223.735V43.8474Z" fill="#0022CD"/>
    <path d="M216.506 58.2873H219.703C220.162 58.2873 220.537 57.9098 220.537 57.4483V52.3133C220.537 51.8519 220.162 51.4743 219.703 51.4743H216.506C216.047 51.4743 215.671 51.8519 215.671 52.3133V57.4483C215.671 57.9098 216.047 58.2873 216.506 58.2873ZM217.34 53.1524H218.868V56.6092H217.34V53.1524Z" fill="#0022CD"/>
    <path d="M222.9 58.2873H226.097C226.556 58.2873 226.932 57.9098 226.932 57.4483V52.3133C226.932 51.8519 226.556 51.4743 226.097 51.4743H222.9C222.441 51.4743 222.065 51.8519 222.065 52.3133V57.4483C222.065 57.9098 222.432 58.2873 222.9 58.2873ZM223.735 53.1524H225.262V56.6092H223.735V53.1524Z" fill="#0022CD"/>
    <path d="M232.157 3.9678H226.606V1.59331C226.606 1.13184 226.23 0.754272 225.771 0.754272H217.466C217.007 0.754272 216.631 1.13184 216.631 1.59331V3.9678H211.08C210.621 3.9678 210.245 4.34537 210.245 4.80685V11.2255C210.245 11.687 210.621 12.0646 211.08 12.0646H212.165V18.7349H199.461V16.0416C199.461 15.5801 199.085 15.2026 198.626 15.2026H196.072C195.613 15.2026 195.237 15.5801 195.237 16.0416V18.7349H193.835C193.376 18.7349 193 19.1125 193 19.574V25.9927C193 26.4541 193.376 26.8317 193.835 26.8317H194.912V65.7968C194.912 66.2583 195.287 66.6359 195.746 66.6359H200.22H208.526H213H230.245C230.705 66.6359 231.08 66.2583 231.08 65.7968V12.0646H232.165C232.624 12.0646 233 11.687 233 11.2255V4.80685C232.992 4.33698 232.616 3.9678 232.157 3.9678ZM196.907 16.8807H197.791V18.4161H196.907V16.8807ZM207.691 64.9578H201.055V49.3013H207.691V64.9578ZM212.165 64.9578H209.361V48.4622C209.361 48.0007 208.985 47.6232 208.526 47.6232H200.22C199.761 47.6232 199.386 48.0007 199.386 48.4622V64.9578H196.581V26.8317H212.157V64.9578H212.165ZM212.165 25.1536H195.746H194.669V20.413H212.165V25.1536ZM218.301 2.43236H224.937V3.9678H218.301V2.43236ZM229.411 64.9578H213.835V25.9927V19.574V12.0646H229.411V64.9578ZM231.322 10.3865H230.237H213H211.915V5.64589H217.466H225.771H231.322V10.3865Z" fill="#0022CD"/>
    <path d="M510.071 22.8052H458.818L456.792 40.1658H512.097L510.071 22.8052Z" fill="#C4D3E4"/>
    <path d="M509.912 40.3H459.76V62.7684H509.912V40.3Z" fill="white"/>
    <path d="M509.912 41.0263H460.212V42.4868H509.912V41.0263Z" fill="#6288B9"/>
    <path d="M505.234 31.8447H509.176L504.917 23.3421L503.191 19.8921L497.119 7.75787L491.047 19.8921L489.313 23.3421L485.054 31.8447H488.997L488.712 39.5658L487.247 43.2131V62.7605H506.983V43.2131L505.519 39.5658L505.234 31.8447Z" fill="white"/>
    <path d="M482.133 49.7737H474.826V62.1605H482.133V49.7737Z" fill="white"/>
    <path d="M501.141 49.7737H493.098V59.2474H501.141V49.7737Z" fill="white"/>
    <path d="M501.141 49.7737H493.098V53.421H501.141V49.7737Z" fill="white"/>
    <path d="M471.176 49.7737H464.598V56.3342H471.176V49.7737Z" fill="white"/>
    <path d="M485.054 31.8447H488.997L489.313 23.3421L485.054 31.8447Z" fill="white"/>
    <path d="M488.997 32.6342H485.054C484.777 32.6342 484.524 32.4921 484.381 32.2631C484.239 32.0342 484.223 31.7421 484.35 31.4974L488.609 22.9947C488.775 22.6631 489.155 22.4895 489.511 22.5842C489.875 22.6789 490.121 23.0105 490.105 23.3816L489.788 31.8842C489.772 32.3026 489.424 32.6342 488.997 32.6342ZM486.337 31.0552H488.237L488.387 26.9579L486.337 31.0552Z" fill="#0022CD"/>
    <path d="M509.176 31.8447L504.917 23.3421L505.234 31.8447H509.176Z" fill="white"/>
    <path d="M509.176 32.6342H505.234C504.806 32.6342 504.458 32.2947 504.442 31.8763L504.125 23.3737C504.11 23.0026 504.363 22.6711 504.719 22.5763C505.075 22.4816 505.455 22.6553 505.622 22.9868L509.881 31.4895C510.007 31.7342 509.992 32.0263 509.849 32.2553C509.707 32.4921 509.453 32.6342 509.176 32.6342ZM506.002 31.0553H507.902L505.851 26.9579L506.002 31.0553Z" fill="#0022CD"/>
    <path d="M505.519 39.5658L505.234 31.8447L504.917 23.3421L503.191 19.8921L497.119 7.75787L491.047 19.8921L489.313 23.3421L488.997 31.8447L488.712 39.5658" fill="white"/>
    <path d="M485.79 17.7053H482.133V22.8053H485.79V17.7053Z" fill="white"/>
    <path d="M499.676 23.5316H494.562V35.9184H499.676V23.5316Z" fill="white"/>
    <path d="M499.676 23.5316H494.562V28.3H499.676V23.5316Z" fill="white"/>
    <path d="M466.268 29.6895H468.469L468.643 24.9448L466.268 29.6895Z" fill="white"/>
    <path d="M479.726 29.6895L477.351 24.9448L477.525 29.6895H479.726Z" fill="white"/>
    <path d="M477.525 29.6895L477.351 24.9447L476.385 23.0105L472.997 16.2448L469.609 23.0105L468.643 24.9447L468.469 29.6895L468.31 33.9921H477.692L477.525 29.6895Z" fill="white"/>
    <path d="M474.826 26.4448H471.168V30.8184H474.826V26.4448Z" fill="white"/>
    <path d="M511.369 62.7605H458.296V65.8H511.369V62.7605Z" fill="white"/>
    <path d="M471.168 48.9842H464.59C464.154 48.9842 463.798 49.3395 463.798 49.7737V56.3342C463.798 56.7684 464.154 57.1237 464.59 57.1237H471.168C471.604 57.1237 471.96 56.7684 471.96 56.3342V49.7737C471.96 49.3316 471.612 48.9842 471.168 48.9842ZM470.377 55.5447H465.381V50.5631H470.377V55.5447Z" fill="#0022CD"/>
    <path d="M474.826 25.6553H471.168C470.733 25.6553 470.377 26.0105 470.377 26.4447V30.8184C470.377 31.2526 470.733 31.6079 471.168 31.6079H474.826C475.261 31.6079 475.618 31.2526 475.618 30.8184V26.4447C475.618 26.0105 475.261 25.6553 474.826 25.6553ZM474.034 30.029H471.96V27.2342H474.034V30.029Z" fill="#0022CD"/>
    <path d="M494.562 36.7158H499.676C500.112 36.7158 500.468 36.3605 500.468 35.9263V28.3V23.5316C500.468 23.0974 500.112 22.7421 499.676 22.7421H494.562C494.127 22.7421 493.77 23.0974 493.77 23.5316V28.3V35.9263C493.77 36.3605 494.119 36.7158 494.562 36.7158ZM495.354 24.3211H498.885V27.5105H495.354V24.3211ZM495.354 29.0895H498.885V35.1369H495.354V29.0895Z" fill="#0022CD"/>
    <path d="M512.097 40.9553C512.327 40.9553 512.541 40.8605 512.691 40.6947C512.842 40.5289 512.913 40.3 512.889 40.0789L510.862 22.7105C510.815 22.3158 510.475 22.0158 510.079 22.0158H505.147L497.824 7.40263C497.555 6.86579 496.676 6.86579 496.407 7.40263L489.092 22.0158H486.574V17.7053C486.574 17.2711 486.218 16.9158 485.782 16.9158H482.125C481.69 16.9158 481.333 17.2711 481.333 17.7053V22.0158H476.765L473.702 15.8895C473.432 15.3526 472.554 15.3526 472.285 15.8895L469.221 22.0158H458.818C458.415 22.0158 458.082 22.3158 458.035 22.7105L456.008 40.0789C455.984 40.3 456.055 40.5289 456.206 40.6947C456.356 40.8605 456.57 40.9553 456.8 40.9553H458.977V61.9711H458.296C457.86 61.9711 457.504 62.3263 457.504 62.7605V65.8C457.504 66.2342 457.86 66.5895 458.296 66.5895H473.369H483.597H511.369C511.805 66.5895 512.161 66.2342 512.161 65.8V62.7605C512.161 62.3263 511.805 61.9711 511.369 61.9711H510.696V40.9553H512.097ZM479.726 30.4789C480.003 30.4789 480.257 30.3368 480.399 30.1079C480.526 29.9026 480.542 29.6579 480.462 29.4289H485.379L484.706 30.7632H478.349L478.341 30.4789H479.726ZM479.022 26.5079H486.843L486.178 27.8421H479.695L479.022 26.5079ZM484.445 32.3421C484.595 32.5237 484.817 32.6421 485.054 32.6421H488.173L488.134 33.6842H478.467L478.42 32.35H484.445V32.3421ZM488.039 44.0026H506.192V61.979H488.039V44.0026ZM511.211 39.3763H506.31L506.263 38.1684H511.068L511.211 39.3763ZM510.641 35.2553C510.672 35.2553 510.696 35.2395 510.728 35.2395L510.886 36.5974H506.207L506.16 35.2632H510.641V35.2553ZM510.546 33.6763H506.097L506.057 32.6342H509.176C509.414 32.6342 509.635 32.5237 509.786 32.3342H510.387L510.546 33.6763ZM510.205 30.7632H509.517L508.844 29.4289H510.047L510.205 30.7632ZM509.865 27.8421H508.06L507.395 26.5079H509.715L509.865 27.8421ZM509.366 23.5947L509.525 24.9289H506.595L505.93 23.5947H509.366ZM507.894 31.0553H505.994L505.843 26.9579L507.894 31.0553ZM489.432 39.9053C489.432 39.9053 489.432 39.8974 489.44 39.8974L489.456 39.8579C489.487 39.7711 489.511 39.6842 489.511 39.5974L490.105 23.5474L497.119 9.52632L504.133 23.5474L504.442 31.8763L504.727 39.5974C504.727 39.6842 504.751 39.7789 504.782 39.8579L505.812 42.4158H488.419L489.432 39.9053ZM488.237 31.0553H486.337L488.387 26.9579L488.237 31.0553ZM482.925 18.4947H484.999V22.0158H482.925V18.4947ZM482.133 23.5947H485.79H488.308L487.643 24.9289H478.23L478.056 24.5895L477.557 23.5947H482.133ZM469.427 25.1421L472.997 18.0132L476.567 25.1421L476.868 33.2026H469.134L469.427 25.1421ZM459.523 23.5947H468.437L467.938 24.5895L467.764 24.9289H459.365L459.523 23.5947ZM459.182 26.5079H466.972L466.307 27.8421H459.024L459.182 26.5079ZM458.842 29.4211H465.532C465.452 29.6421 465.468 29.8947 465.595 30.1C465.737 30.3289 465.991 30.4711 466.268 30.4711H467.645L467.637 30.7632H458.684L458.842 29.4211ZM458.502 32.3421H467.582L467.535 33.6763H458.343L458.502 32.3421ZM458.161 35.2395C458.193 35.2395 458.217 35.2553 458.248 35.2553H488.078L488.031 36.5895H458.003L458.161 35.2395ZM457.821 38.1684H487.967L487.92 39.3763H457.678L457.821 38.1684ZM460.552 41.0895H487.255L486.527 42.9053L486.519 42.9211C486.487 43.0079 486.471 43.0947 486.471 43.1816C486.471 43.1895 486.463 43.1974 486.463 43.2132V61.979H482.932V49.7737C482.932 49.3395 482.576 48.9842 482.141 48.9842H474.834C474.398 48.9842 474.042 49.3395 474.042 49.7737V61.979H460.552V41.0895ZM475.617 61.3711V50.5632H481.341V61.3711H475.617ZM459.087 63.55H459.76H473.575L472.87 65.0105H459.087V63.55ZM474.62 65.0184L475.325 63.5579H481.634L482.339 65.0184H474.62ZM510.577 65.0184H484.096L483.392 63.5579H487.247H506.983H509.905H510.577V65.0184ZM507.775 61.9711V43.2132C507.775 43.2053 507.767 43.1974 507.767 43.1816C507.767 43.0947 507.751 43 507.72 42.9211L507.712 42.9053L506.983 41.0895H509.113V61.979H507.775V61.9711Z" fill="#0022CD"/>
    <path d="M501.133 48.9842H493.097C492.662 48.9842 492.306 49.3395 492.306 49.7737V53.421V59.2552C492.306 59.6895 492.662 60.0447 493.097 60.0447H501.141C501.576 60.0447 501.932 59.6895 501.932 59.2552V53.421V49.7737C501.925 49.3316 501.576 48.9842 501.133 48.9842ZM500.341 58.4579H493.881V54.2026H500.341V58.4579ZM500.341 52.6237H493.881V50.5552H500.341V52.6237Z" fill="#0022CD"/>
    <path d="M138.214 43.5781H64.2061V65.9263H138.214V43.5781Z" fill="white"/>
    <path d="M82.9576 30.6129H87.2819L82.6117 25.0123L80.709 22.7398L74.034 14.7511L67.3589 22.7398L65.4641 25.0123L60.786 30.6129H65.1181H82.9576Z" fill="white"/>
    <path d="M80.0329 33.5634H67.4532V40.4966H80.0329V33.5634Z" fill="white"/>
    <path d="M138.214 66.6966H64.2061C63.7737 66.6966 63.4199 66.3499 63.4199 65.9262V43.578C63.4199 43.1543 63.7737 42.8077 64.2061 42.8077H138.214C138.646 42.8077 139 43.1543 139 43.578V65.9262C139 66.3576 138.654 66.6966 138.214 66.6966ZM64.9923 65.1559H137.428V44.3484H64.9923V65.1559Z" fill="#0022CD"/>
    <path d="M130.226 32.793H72.2021L64.2061 43.5857H138.214L130.226 32.793Z" fill="#6288B9"/>
    <path d="M114.187 44.6566L109.603 37.7464L107.747 34.9423L101.214 25.0894L94.6803 34.9423L92.8169 37.7464L88.2411 44.6566H89.8135V67.4593H112.614V44.6566H114.187Z" fill="white"/>
    <path d="M105.9 48.2002H96.465V63.6074H105.9V48.2002Z" fill="#C4D3E4"/>
    <path d="M106.482 63.6075H95.8832V65.9186H106.482V63.6075Z" fill="white"/>
    <path d="M94.924 41.267C94.924 41.5366 94.9476 41.8216 94.9948 42.1452C95.0498 42.5227 95.38 42.8077 95.7731 42.8077H106.655C107.048 42.8077 107.378 42.5227 107.433 42.1452C107.48 41.8139 107.504 41.5366 107.504 41.267C107.504 37.8697 104.681 35.1041 101.214 35.1041C97.7466 35.1041 94.924 37.8697 94.924 41.267ZM105.931 41.267H96.4965C96.4965 38.7171 98.6114 36.6448 101.214 36.6448C103.816 36.6448 105.931 38.7171 105.931 41.267Z" fill="#0022CD"/>
    <path d="M86.4171 49.741H78.5548C78.1224 49.741 77.7686 50.0876 77.7686 50.5113V53.5928V60.526C77.7686 60.9497 78.1224 61.2964 78.5548 61.2964H86.4171C86.8495 61.2964 87.2033 60.9497 87.2033 60.526V53.5928V50.5113C87.2033 50.0876 86.8574 49.741 86.4171 49.741ZM85.6308 59.7557H79.341V54.3631H85.6308V59.7557ZM85.6308 52.8224H79.341V51.2817H85.6308V52.8224Z" fill="#0022CD"/>
    <path d="M75.3155 49.741H67.4532C67.0208 49.741 66.667 50.0876 66.667 50.5113V53.5928V60.526C66.667 60.9497 67.0208 61.2964 67.4532 61.2964H75.3155C75.7479 61.2964 76.1017 60.9497 76.1017 60.526V53.5928V50.5113C76.1017 50.0876 75.7558 49.741 75.3155 49.741ZM74.5293 59.7557H68.2394V54.3631H74.5293V59.7557ZM74.5293 52.8224H68.2394V51.2817H74.5293V52.8224Z" fill="#0022CD"/>
    <path d="M123.37 49.741H115.507C115.075 49.741 114.721 50.0876 114.721 50.5113V53.5928V60.526C114.721 60.9497 115.075 61.2964 115.507 61.2964H123.37C123.802 61.2964 124.156 60.9497 124.156 60.526V53.5928V50.5113C124.156 50.0876 123.81 49.741 123.37 49.741ZM122.584 59.7557H116.294V54.3631H122.584V59.7557ZM122.584 52.8224H116.294V51.2817H122.584V52.8224Z" fill="#0022CD"/>
    <path d="M134.283 49.741H126.42C125.988 49.741 125.634 50.0876 125.634 50.5113V53.5928V60.526C125.634 60.9497 125.988 61.2964 126.42 61.2964H134.283C134.715 61.2964 135.069 60.9497 135.069 60.526V53.5928V50.5113C135.069 50.0876 134.723 49.741 134.283 49.741ZM133.496 59.7557H127.207V54.3631H133.496V59.7557ZM133.496 52.8224H127.207V51.2817H133.496V52.8224Z" fill="#0022CD"/>
    <path d="M83.8618 27.4005H64.2061V43.5781H83.8618V27.4005Z" fill="white"/>
    <path d="M74.0339 26.6301C75.3366 26.6301 76.3926 25.5954 76.3926 24.319C76.3926 23.0426 75.3366 22.0079 74.0339 22.0079C72.7313 22.0079 71.6752 23.0426 71.6752 24.319C71.6752 25.5954 72.7313 26.6301 74.0339 26.6301Z" fill="#C4D3E4"/>
    <path d="M87.8952 30.1275L74.6472 14.2658C74.3484 13.9114 73.7273 13.9114 73.4286 14.2658L60.1806 30.1275C59.984 30.3586 59.9447 30.6745 60.0784 30.9441C60.2042 31.2137 60.4794 31.3832 60.786 31.3832H63.4199V43.5781C63.4199 44.0017 63.7737 44.3484 64.2061 44.3484H83.8618C84.2942 44.3484 84.648 44.0017 84.648 43.5781V31.3832H87.2819C87.5885 31.3832 87.8637 31.2137 87.9895 30.9441C88.1232 30.6745 88.0839 30.3586 87.8952 30.1275ZM82.9576 29.8425C82.5252 29.8425 82.1714 30.1892 82.1714 30.6129C82.1714 31.0366 82.5252 31.3832 82.9576 31.3832H83.0756V42.8077H64.9923V31.3832H65.1103C65.5427 31.3832 65.8965 31.0366 65.8965 30.6129C65.8965 30.1892 65.5427 29.8425 65.1103 29.8425H62.4371L74.0261 15.9683L85.623 29.8425H82.9576Z" fill="#0022CD"/>
    <path d="M70.889 24.319C70.889 26.0215 72.2964 27.4004 74.034 27.4004C75.7715 27.4004 77.1789 26.0215 77.1789 24.319C77.1789 22.6165 75.7715 21.2375 74.034 21.2375C72.2964 21.2375 70.889 22.6165 70.889 24.319ZM75.6064 24.319C75.6064 25.1664 74.8988 25.8597 74.034 25.8597C73.1691 25.8597 72.4615 25.1664 72.4615 24.319C72.4615 23.4716 73.1691 22.7783 74.034 22.7783C74.8988 22.7783 75.6064 23.4716 75.6064 24.319Z" fill="#0022CD"/>
    <path d="M66.667 33.5633V40.4966C66.667 40.9203 67.0208 41.267 67.4532 41.267H80.0329C80.4653 41.267 80.8191 40.9203 80.8191 40.4966V33.5633C80.8191 33.1396 80.4653 32.793 80.0329 32.793H67.4532C67.0208 32.793 66.667 33.1396 66.667 33.5633ZM68.2394 34.3337H79.2466V39.7262H68.2394V34.3337Z" fill="#0022CD"/>
    <path d="M130.91 41.2131L128.355 36.6063L127.317 34.742L123.669 28.1708L120.028 34.742L118.991 36.6063L116.435 41.2131H118.802L118.629 45.3884H128.716L128.543 41.2131H130.91Z" fill="white"/>
    <path d="M125.634 38.0699H121.703V42.3146H125.634V38.0699Z" fill="white"/>
    <path d="M131.602 40.8433L124.36 27.801C124.085 27.308 123.252 27.308 122.977 27.801L115.736 40.8433C115.602 41.0821 115.61 41.3748 115.751 41.6059C115.893 41.837 116.152 41.9834 116.427 41.9834H117.976L117.835 45.3576C117.827 45.5656 117.906 45.7736 118.055 45.92C118.204 46.074 118.409 46.1588 118.621 46.1588H128.708C128.921 46.1588 129.125 46.074 129.274 45.92C129.424 45.7659 129.502 45.5656 129.495 45.3576L129.353 41.9834H130.902C131.177 41.9834 131.437 41.837 131.578 41.6059C131.727 41.3748 131.735 41.0821 131.602 40.8433ZM128.543 40.4427C128.331 40.4427 128.126 40.5274 127.977 40.6815C127.828 40.8356 127.749 41.0359 127.757 41.2439L127.898 44.6181H119.447L119.588 41.2439C119.596 41.0359 119.517 40.8279 119.368 40.6815C119.219 40.5274 119.014 40.4427 118.802 40.4427H117.756L123.669 29.7886L129.581 40.4427H128.543Z" fill="#0022CD"/>
    <path d="M120.917 38.07V42.3147C120.917 42.7384 121.271 43.085 121.703 43.085H125.634C126.067 43.085 126.42 42.7384 126.42 42.3147V38.07C126.42 37.6463 126.067 37.2996 125.634 37.2996H121.703C121.271 37.2996 120.917 37.6463 120.917 38.07ZM122.489 38.8403H124.848V41.5443H122.489V38.8403Z" fill="#0022CD"/>
    <path d="M108.337 65.9186H94.0198V68.2297H108.337V65.9186Z" fill="white"/>
    <path d="M108.337 65.1482H107.26V63.6075C107.26 63.2531 107.008 62.9681 106.678 62.8756V48.2002C106.678 47.7765 106.324 47.4299 105.892 47.4299H96.4572C96.0247 47.4299 95.6709 47.7765 95.6709 48.2002V62.8756C95.3407 62.9681 95.0891 63.2531 95.0891 63.6075V65.1482H94.012C93.5796 65.1482 93.2258 65.4949 93.2258 65.9186V68.2296C93.2258 68.6533 93.5796 69 94.012 69H108.329C108.762 69 109.115 68.6533 109.115 68.2296V65.9186C109.123 65.4949 108.777 65.1482 108.337 65.1482ZM97.2513 48.9706H105.114V62.8371H97.2513V48.9706ZM96.6694 64.3778H105.695V65.1482H96.6694V64.3778ZM107.551 67.4593H94.8061V66.6889H95.8832H106.482H107.559V67.4593H107.551Z" fill="#0022CD"/>
    <path d="M138.851 43.1389L130.863 32.3384C130.713 32.1381 130.477 32.0226 130.226 32.0226H125.642L126.515 33.5633H129.825L130.965 35.104H127.387L128.26 36.6448H132.097L133.811 38.9558H129.565L130.438 40.4966H134.762C134.825 40.4966 134.872 40.4735 134.927 40.4657L136.673 42.8154H128.606L128.669 44.3561H138.214C138.513 44.3561 138.78 44.1943 138.914 43.9324C139.047 43.6705 139.024 43.37 138.851 43.1389Z" fill="#0022CD"/>
    <path d="M101.874 24.6733C101.733 24.4576 101.481 24.319 101.214 24.319C100.947 24.319 100.703 24.4499 100.553 24.6733L95.6788 32.0226H83.8618V33.5633H94.6567L93.6346 35.104H83.8618V36.6448H92.6125L91.0794 38.9558H83.8618V40.4966H90.0573L88.5163 42.8154H83.8618V43.578H64.2061L64.214 42.2607L63.5693 43.1389C63.3963 43.37 63.3727 43.6859 63.5064 43.9401C63.64 44.1943 63.9073 44.3638 64.2061 44.3638H87.5178C87.4234 44.5795 87.4313 44.8183 87.5414 45.0263C87.675 45.2728 87.9423 45.4269 88.2332 45.4269H89.0195V67.4592C89.0195 67.8829 89.3733 68.2296 89.8057 68.2296H112.606C113.039 68.2296 113.393 67.8829 113.393 67.4592V45.4269H114.179C114.47 45.4269 114.729 45.2728 114.871 45.0263C114.989 44.8183 114.989 44.5718 114.894 44.3638H118.566L118.495 42.8231H113.896L112.355 40.5043H116.97L117.827 38.9636H111.333L109.799 36.6525H119.108L119.965 35.1117H108.793L107.771 33.571H120.838L121.695 32.0303H106.749L101.874 24.6733ZM111.875 44.2868C111.875 44.6026 111.828 45.4038 111.828 45.5116V66.6889H90.5998V45.5733C90.5998 45.4654 90.5762 44.6334 90.5683 44.333C90.5526 43.8785 89.6799 43.9093 89.6799 43.9093L101.222 26.5068L112.842 43.9324C112.834 43.9324 111.875 43.7321 111.875 44.2868Z" fill="#0022CD"/>
    <path d="M107.81 66.5117H94.6489V67.675H107.81V66.5117Z" fill="white"/>
    <path d="M63.4442 57.8C61.0736 57.8 59.0463 59.208 58.1717 61.216C57.7711 61.088 57.3461 61 56.9046 61C54.6485 61 52.8174 62.792 52.8174 65C52.8174 66.312 53.4714 67.472 54.4768 68.2H59.3406C59.5286 68.064 59.7003 67.92 59.8638 67.76C60.0681 67.92 60.2888 68.072 60.5177 68.2H66.3869C68.0545 67.224 69.1744 65.44 69.1744 63.4C69.1662 60.312 66.6076 57.8 63.4442 57.8Z" fill="#CCFF69"/>
    <path d="M63.4441 57C61.0491 57 58.891 58.272 57.7466 60.288C57.4605 60.232 57.1826 60.2 56.9046 60.2C54.1989 60.2 52 62.352 52 65C52 66.52 52.7275 67.92 53.9864 68.84L54.2071 69H59.6104L59.8311 68.84C59.8638 68.816 59.8883 68.792 59.921 68.776C59.9782 68.816 60.0354 68.848 60.1008 68.888L60.297 69H66.624L66.8202 68.888C68.8147 67.72 70 65.664 70 63.4C69.9837 59.872 67.0491 57 63.4441 57ZM54.7629 67.4C54.0436 66.792 53.6349 65.928 53.6349 65C53.6349 63.232 55.0981 61.8 56.9046 61.8C56.97 61.8 57.0436 61.8 57.109 61.808C57.1008 61.848 57.0926 61.888 57.0845 61.936C57.0436 62.104 57.0109 62.272 56.9864 62.448C56.9782 62.52 56.9619 62.592 56.9537 62.672C56.9292 62.912 56.9046 63.16 56.9046 63.408C56.9046 63.624 56.921 63.84 56.9455 64.056C56.9537 64.12 56.9618 64.184 56.97 64.248C56.9945 64.408 57.0191 64.56 57.0518 64.712C57.0681 64.776 57.0763 64.84 57.0926 64.904C57.1417 65.088 57.1907 65.272 57.2561 65.448C57.2643 65.472 57.2725 65.496 57.2806 65.52C57.3542 65.72 57.436 65.912 57.5259 66.104C57.5504 66.16 57.5831 66.216 57.6076 66.264C57.6812 66.4 57.7548 66.536 57.8365 66.672C57.8692 66.728 57.9101 66.792 57.9428 66.848C58.0409 66.992 58.139 67.136 58.2452 67.272C58.2697 67.304 58.2943 67.336 58.3188 67.368C58.327 67.376 58.327 67.384 58.3352 67.392H54.7629V67.4ZM66.1499 67.4H60.7466C60.6158 67.32 60.4932 67.232 60.3706 67.136C59.2098 66.216 58.5395 64.856 58.5395 63.4C58.5395 62.752 58.6703 62.12 58.9237 61.528C59.6921 59.752 61.4659 58.6 63.4441 58.6C66.1499 58.6 68.3488 60.752 68.3488 63.4C68.3488 65.032 67.5313 66.512 66.1499 67.4Z" fill="#0022CD"/>
</svg>