<svg width="48" height="54" viewBox="0 0 48 54" fill="none" xmlns="http://www.w3.org/2000/svg">
    <g filter="url(#filter0_f_1_2391)">
        <path fill-rule="evenodd" clip-rule="evenodd" d="M12.1953 40.707C12.2025 38.0838 17.4544 35.9581 23.935 35.9552C30.4157 35.9581 35.6675 38.0838 35.6747 40.707C35.6747 43.2676 24.8701 47.4433 24.4101 47.6182C24.1437 47.7205 23.7263 47.7205 23.4599 47.6182C23 47.4433 12.1953 43.2676 12.1953 40.707ZM18.4104 40.4438C18.4104 41.3973 20.2655 42.1703 22.5538 42.1703C24.8411 42.1691 26.6946 41.3968 26.6973 40.4438C26.6973 39.4903 24.8422 38.7174 22.5538 38.7174C20.2655 38.7174 18.4104 39.4903 18.4104 40.4438Z" fill="#4D4D4D" fill-opacity="0.16"/>
    </g>
    <path fill-rule="evenodd" clip-rule="evenodd" d="M10 18.53C10 10.79 16.26 4.53003 24 4.53003C31.74 4.53003 38 10.79 38 18.53C38 26.87 29.16 38.37 25.54 42.75C24.74 43.71 23.28 43.71 22.48 42.75C18.84 38.37 10 26.87 10 18.53ZM19 18.53C19 21.29 21.24 23.53 24 23.53C26.76 23.53 29 21.29 29 18.53C29 15.77 26.76 13.53 24 13.53C21.24 13.53 19 15.77 19 18.53Z" fill="#0022CD"/>
    <defs>
        <filter id="filter0_f_1_2391" x="6.75875" y="30.5186" width="34.3526" height="22.6129" filterUnits="userSpaceOnUse" color-interpolation-filters="sRGB">
            <feFlood flood-opacity="0" result="BackgroundImageFix"/>
            <feBlend mode="normal" in="SourceGraphic" in2="BackgroundImageFix" result="shape"/>
            <feGaussianBlur stdDeviation="2.71828" result="effect1_foregroundBlur_1_2391"/>
        </filter>
    </defs>
</svg>
