<svg width="237" height="108" viewBox="0 0 237 108" fill="none" xmlns="http://www.w3.org/2000/svg">
    <rect y="94" width="237" height="2" rx="1" fill="#133DBD"/>
    <path d="M126.422 14.0181V9.7821H115.417V14.0181H106.956V22.4791H109.5V33.4839H84.106V41.9449H86.6498V94.414H109.5H132.35V22.4791H134.883V14.0181H126.422Z" fill="white"/>
    <path d="M90.4545 28.8275H87.0701V33.0635H90.4545V28.8275Z" fill="white"/>
    <path d="M103.572 71.5638H92.5669V94.414H103.572V71.5638Z" fill="#A8BEEA"/>
    <path d="M118.381 39.8214H114.145V46.5902H118.381V39.8214Z" fill="#A8BEEA"/>
    <path d="M114.145 35.4304H118.381C118.989 35.4304 119.487 34.9327 119.487 34.3244V27.5556C119.487 26.9473 118.989 26.4496 118.381 26.4496H114.145C113.537 26.4496 113.039 26.9473 113.039 27.5556V34.3244C113.039 34.9327 113.537 35.4304 114.145 35.4304ZM115.251 28.6616H117.275V33.2184H115.251V28.6616Z" fill="#133DBD"/>
    <path d="M122.617 35.4304H126.853C127.462 35.4304 127.959 34.9327 127.959 34.3244V27.5556C127.959 26.9473 127.462 26.4496 126.853 26.4496H122.617C122.009 26.4496 121.511 26.9473 121.511 27.5556V34.3244C121.511 34.9327 121.998 35.4304 122.617 35.4304ZM123.723 28.6616H125.747V33.2184H123.723V28.6616Z" fill="#133DBD"/>
    <path d="M114.145 47.7072H118.381C118.989 47.7072 119.487 47.2095 119.487 46.6012V39.8325C119.487 39.2241 118.989 38.7264 118.381 38.7264H114.145C113.537 38.7264 113.039 39.2241 113.039 39.8325V46.6012C113.039 47.2095 113.537 47.7072 114.145 47.7072ZM115.251 40.9274H117.275V45.4842H115.251V40.9274Z" fill="#133DBD"/>
    <path d="M122.617 47.7072H126.853C127.462 47.7072 127.959 47.2095 127.959 46.6012V39.8325C127.959 39.2241 127.462 38.7264 126.853 38.7264H122.617C122.009 38.7264 121.511 39.2241 121.511 39.8325V46.6012C121.511 47.2095 121.998 47.7072 122.617 47.7072ZM123.723 40.9274H125.747V45.4842H123.723V40.9274Z" fill="#133DBD"/>
    <path d="M114.145 59.9729H118.381C118.989 59.9729 119.487 59.4752 119.487 58.8669V52.0981C119.487 51.4898 118.989 50.9921 118.381 50.9921H114.145C113.537 50.9921 113.039 51.4898 113.039 52.0981V58.8669C113.039 59.4752 113.537 59.9729 114.145 59.9729ZM115.251 53.2041H117.275V57.7608H115.251V53.2041Z" fill="#133DBD"/>
    <path d="M122.617 59.9729H126.853C127.462 59.9729 127.959 59.4752 127.959 58.8669V52.0981C127.959 51.4898 127.462 50.9921 126.853 50.9921H122.617C122.009 50.9921 121.511 51.4898 121.511 52.0981V58.8669C121.511 59.4752 121.998 59.9729 122.617 59.9729ZM123.723 53.2041H125.747V57.7608H123.723V53.2041Z" fill="#133DBD"/>
    <path d="M114.145 72.2495H118.381C118.989 72.2495 119.487 71.7518 119.487 71.1435V64.3747C119.487 63.7664 118.989 63.2687 118.381 63.2687H114.145C113.537 63.2687 113.039 63.7664 113.039 64.3747V71.1435C113.039 71.7518 113.537 72.2495 114.145 72.2495ZM115.251 65.4807H117.275V70.0375H115.251V65.4807Z" fill="#133DBD"/>
    <path d="M122.617 72.2495H126.853C127.462 72.2495 127.959 71.7518 127.959 71.1435V64.3747C127.959 63.7664 127.462 63.2687 126.853 63.2687H122.617C122.009 63.2687 121.511 63.7664 121.511 64.3747V71.1435C121.511 71.7518 121.998 72.2495 122.617 72.2495ZM123.723 65.4807H125.747V70.0375H123.723V65.4807Z" fill="#133DBD"/>
    <path d="M114.145 84.5151H118.381C118.989 84.5151 119.487 84.0174 119.487 83.4091V76.6403C119.487 76.032 118.989 75.5343 118.381 75.5343H114.145C113.537 75.5343 113.039 76.032 113.039 76.6403V83.4091C113.039 84.0174 113.537 84.5151 114.145 84.5151ZM115.251 77.7463H117.275V82.3031H115.251V77.7463Z" fill="#133DBD"/>
    <path d="M122.617 84.5151H126.853C127.462 84.5151 127.959 84.0174 127.959 83.4091V76.6403C127.959 76.032 127.462 75.5343 126.853 75.5343H122.617C122.009 75.5343 121.511 76.032 121.511 76.6403V83.4091C121.511 84.0174 121.998 84.5151 122.617 84.5151ZM123.723 77.7463H125.747V82.3031H123.723V77.7463Z" fill="#133DBD"/>
    <path d="M134.883 12.9122H127.528V9.78216C127.528 9.17385 127.03 8.67615 126.422 8.67615H115.417C114.809 8.67615 114.311 9.17385 114.311 9.78216V12.9122H106.956C106.348 12.9122 105.85 13.4099 105.85 14.0182V22.4792C105.85 23.0875 106.348 23.5852 106.956 23.5852H108.394V32.3779H91.5605V28.8276C91.5605 28.2193 91.0628 27.7216 90.4545 27.7216H87.0701C86.4618 27.7216 85.9641 28.2193 85.9641 28.8276V32.3779H84.106C83.4977 32.3779 83 32.8756 83 33.484V41.9449C83 42.5532 83.4977 43.0509 84.106 43.0509H85.5328V94.414C85.5328 95.0223 86.0305 95.52 86.6388 95.52H92.567H103.572H109.5H132.35C132.958 95.52 133.456 95.0223 133.456 94.414V23.5852H134.894C135.502 23.5852 136 23.0875 136 22.4792V14.0182C135.989 13.3988 135.491 12.9122 134.883 12.9122ZM88.1761 29.9337H89.3485V31.9577H88.1761V29.9337ZM102.466 93.308H93.673V72.6699H102.466V93.308ZM108.394 93.308H104.678V71.5639C104.678 70.9556 104.18 70.4579 103.572 70.4579H92.567C91.9587 70.4579 91.461 70.9556 91.461 71.5639V93.308H87.7448V43.0509H108.383V93.308H108.394ZM108.394 40.8389H86.6388H85.212V34.59H108.394V40.8389ZM116.523 10.8882H125.316V12.9122H116.523V10.8882ZM131.244 93.308H110.606V41.9449V33.484V23.5852H131.244V93.308ZM133.777 21.3731H132.339H109.5H108.062V15.1242H115.417H126.422H133.777V21.3731Z" fill="#133DBD"/>
    <path d="M29.3 57.45L31.7 53.85L33.5 51.05H23.5L18.9 65.05H24.4L29.3 57.45Z" fill="#315ED1"/>
    <path d="M48.3 53.85L50.6 57.45L55.6 65.05H61L56.5 51.05H46.5L48.3 53.85Z" fill="#315ED1"/>
    <path d="M25.5 66.4499H23.5L24.4 65.0499H18.9V94.0499H25.5V66.4499Z" fill="white"/>
    <path d="M55.6 65.0499L56.5 66.4499H54.5V94.0499H61V65.0499H55.6Z" fill="white"/>
    <path d="M62 64.85C62 64.75 62 64.75 62 64.85V64.65L57.5 50.75C57.4 50.35 57 50.05 56.5 50.05H47L40.8 40.55C40.4 39.95 39.5 39.95 39.1 40.55L32.9 50.05H23.5C23.1 50.05 22.7 50.35 22.5 50.75L18 64.65V64.75V64.85C18 64.95 18 64.95 18 65.05V94.05C18 94.65 18.4 95.05 19 95.05H24.6V96.05C24.6 96.65 25 97.05 25.6 97.05H54.6C55.2 97.05 55.6 96.65 55.6 96.05V95.05H61.2C61.8 95.05 62.2 94.65 62.2 94.05V65.05C62 64.95 62 64.85 62 64.85ZM58 59.05H52.9L50.9 56.05H57.1L58 59.05ZM56.1 64.05L54.2 61.05H58.7L59.7 64.05H56.1ZM55.8 52.05L56.4 54.05H49.6L49.1 53.25L48.3 52.05H55.8ZM21.3 61.05H25.8L23.9 64.05H20.3L21.3 61.05ZM22.9 56.05H29.1L27.1 59.15C26.9 59.05 26.8 59.05 26.7 59.05H21.9L22.9 56.05ZM31.6 52.05L30.3 54.05C30.2 54.05 30.1 53.95 30 53.95H23.5L24.1 51.95H31.6V52.05ZM19.9 93.05V66.05H22.5C22.5 66.15 22.4 66.25 22.4 66.45C22.4 66.45 22.4 66.45 22.4 66.55C22.4 66.65 22.4 66.85 22.5 66.95C22.7 67.25 23 67.45 23.4 67.45H24.4V93.05H19.9ZM53.5 95.05H26.5V94.05V66.45C26.5 65.85 26.1 65.45 25.5 65.45H25.3L30.1 58.05L34.3 51.65L40 42.95L54.7 65.55H54.5C53.9 65.55 53.5 65.95 53.5 66.55V94.05V95.05ZM55.5 93.05V67.45H56.5C56.9 67.45 57.2 67.25 57.4 66.95C57.5 66.85 57.5 66.65 57.5 66.55C57.5 66.55 57.5 66.55 57.5 66.45C57.5 66.35 57.5 66.15 57.4 66.05H60V93.05H55.5Z" fill="#133DBD"/>
    <path d="M56.5 66.45L50.6 57.45L48.3 53.85L40 41.05L31.7 53.85L29.3 57.45L23.5 66.45H25.5V96.05H54.5V66.45H56.5Z" fill="white"/>
    <path d="M56.5 66.45L50.6 57.45L48.3 53.85L40 41.05L31.7 53.85L29.3 57.45L23.5 66.45H25.5V96.05H54.5V66.45H56.5Z" fill="white"/>
    <path d="M54.5 97.05H25.5C24.9 97.05 24.5 96.65 24.5 96.05V67.45H23.5C23.1 67.45 22.8 67.25 22.6 66.95C22.4 66.65 22.4 66.25 22.6 65.95L39.1 40.45C39.5 39.85 40.4 39.85 40.8 40.45L57.3 65.85C57.5 66.15 57.5 66.55 57.3 66.85C57.1 67.15 56.8 67.35 56.4 67.35H55.4V96.05C55.5 96.55 55 97.05 54.5 97.05ZM26.5 95.05H53.5V66.45C53.5 65.85 53.9 65.45 54.5 65.45H54.7L40 42.85L25.3 65.45H25.5C26.1 65.45 26.5 65.85 26.5 66.45V95.05Z" fill="#133DBD"/>
    <path d="M45.9 71.05H33.9V91.05H45.9V71.05Z" fill="#A8BEEA"/>
    <path d="M45.9 92.05H33.9C33.3 92.05 32.9 91.65 32.9 91.05V71.05C32.9 70.45 33.3 70.05 33.9 70.05H45.9C46.5 70.05 46.9 70.45 46.9 71.05V91.05C46.9 91.55 46.5 92.05 45.9 92.05ZM34.9 90.05H44.9V72.05H34.9V90.05Z" fill="#133DBD"/>
    <path d="M40 64.05C42.2091 64.05 44 62.2592 44 60.05C44 57.8409 42.2091 56.05 40 56.05C37.7909 56.05 36 57.8409 36 60.05C36 62.2592 37.7909 64.05 40 64.05Z" fill="#E4EAF5"/>
    <path d="M40 65.05C37.2 65.05 35 62.85 35 60.05C35 57.25 37.2 55.05 40 55.05C42.8 55.05 45 57.25 45 60.05C45 62.85 42.8 65.05 40 65.05ZM40 57.05C38.3 57.05 37 58.35 37 60.05C37 61.75 38.3 63.05 40 63.05C41.7 63.05 43 61.75 43 60.05C43 58.35 41.7 57.05 40 57.05Z" fill="#133DBD"/>
    <path d="M46.7 91.05H33.2V94.05H46.7V91.05Z" fill="white"/>
    <path d="M46.7 95.05H33.2C32.6 95.05 32.2 94.65 32.2 94.05V91.05C32.2 90.45 32.6 90.05 33.2 90.05H46.7C47.3 90.05 47.7 90.45 47.7 91.05V94.05C47.7 94.55 47.2 95.05 46.7 95.05ZM34.2 93.05H45.7V92.05H34.2V93.05Z" fill="#133DBD"/>
    <path d="M49 94.05H30.8V97.05H49V94.05Z" fill="white"/>
    <path d="M49 98.05H30.8C30.2 98.05 29.8 97.65 29.8 97.05V94.05C29.8 93.45 30.2 93.05 30.8 93.05H49C49.6 93.05 50 93.45 50 94.05V97.05C50 97.55 49.6 98.05 49 98.05ZM31.8 96.05H48V95.05H31.8V96.05Z" fill="#133DBD"/>
    <path d="M209.18 77.09C209.18 70.97 204.2 66 198.09 66C191.98 66 187 70.98 187 77.09C187 82.87 191.44 87.63 197.09 88.13V93.8C197.09 94.35 197.54 94.8 198.09 94.8C198.64 94.8 199.09 94.35 199.09 93.8V88.13C204.74 87.62 209.18 82.86 209.18 77.09ZM199.09 86.12V77.4C199.09 76.85 198.64 76.4 198.09 76.4C197.54 76.4 197.09 76.85 197.09 77.4V86.12C192.54 85.62 189 81.76 189 77.08C189 72.07 193.08 67.99 198.09 67.99C203.1 67.99 207.18 72.07 207.18 77.08C207.18 81.76 203.64 85.62 199.09 86.12Z" fill="#133DBD"/>
    <g clip-path="url(#clip0_1_6301)">
        <path d="M192.6 32.2001H142V51.0001H192.6V32.2001Z" fill="white"/>
        <path d="M189.6 18H145L142 32H192.6L189.6 18Z" fill="white"/>
        <path d="M192.6 51.2001H142L140 63.0001H194.6L192.6 51.2001Z" fill="#315ED1"/>
        <path d="M178 63H142V82H178V63Z" fill="#A8BEEA"/>
        <path d="M178.1 82H142V94H178.1V82Z" fill="white"/>
        <path d="M192.6 63.2001H178.1V94.0001H192.6V63.2001Z" fill="white"/>
        <path d="M192.6 90H178.1V94H192.6V90Z" fill="white"/>
        <path d="M152.1 91H146.1C145.5 91 145.1 90.6 145.1 90V86C145.1 85.4 145.5 85 146.1 85H152.1C152.7 85 153.1 85.4 153.1 86V90C153.1 90.6 152.6 91 152.1 91ZM147.1 89H151.1V87H147.1V89Z" fill="#133DBD"/>
        <path d="M163.1 91H157.1C156.5 91 156.1 90.6 156.1 90V86C156.1 85.4 156.5 85 157.1 85H163.1C163.7 85 164.1 85.4 164.1 86V90C164.1 90.6 163.6 91 163.1 91ZM158.1 89H162.1V87H158.1V89Z" fill="#133DBD"/>
        <path d="M174.1 91H168.1C167.5 91 167.1 90.6 167.1 90V86C167.1 85.4 167.5 85 168.1 85H174.1C174.7 85 175.1 85.4 175.1 86V90C175.1 90.6 174.6 91 174.1 91ZM169.1 89H173.1V87H169.1V89Z" fill="#133DBD"/>
        <path d="M152.1 77C151.8 77 151.6 76.9 151.4 76.7L146.4 71.7C146 71.3 146 70.7 146.4 70.3C146.8 69.9 147.4 69.9 147.8 70.3L152.8 75.3C153.2 75.7 153.2 76.3 152.8 76.7C152.6 76.9 152.3 77 152.1 77Z" fill="white"/>
        <path d="M148.6 78.5C148.3 78.5 148.1 78.4 147.9 78.2L145.4 75.7C145 75.3 145 74.7 145.4 74.3C145.8 73.9 146.4 73.9 146.8 74.3L149.3 76.8C149.7 77.2 149.7 77.8 149.3 78.2C149.1 78.4 148.8 78.5 148.6 78.5Z" fill="white"/>
        <path d="M189 18H145L142 32H192.5L189 18Z" fill="#A8BEEA"/>
        <path d="M193.6 51V32.1V32C193.6 31.9 193.6 31.8 193.6 31.7L190.6 17.7C190.5 17.2 190.1 16.9 189.6 16.9H145C144.5 17 144.1 17.3 144 17.8L141 31.8C141 31.9 141 32 141 32.1V32.2V51L139 62.8C139 63.1 139 63.4 139.2 63.6C139.4 63.9 139.7 64 140 64H141V82V94C141 94.6 141.4 95 142 95H178.1H192.6C193.2 95 193.6 94.6 193.6 94V90V64H194.6C194.9 64 195.2 63.9 195.4 63.6C195.6 63.4 195.7 63.1 195.6 62.8L193.6 51ZM143.8 28.3C143.8 28.3 143.9 28.3 143.8 28.3H190.5C190.6 28.3 190.6 28.3 190.7 28.3L191.3 31.1H143.2L143.8 28.3ZM190.3 26.3H144.2L144.8 23.3H189.6L190.3 26.3ZM143 50V33.2H191.6V50H143ZM151.8 52.2V62H147.9V52.2H151.8ZM153.8 52.2H157.7V62H153.8V52.2ZM159.7 52.2H163.6V62H159.7V52.2ZM165.5 52.2H169.4V62H165.5V52.2ZM171.4 52.2H175.3V62H171.4V52.2ZM177.2 52.2H181.1V62H177.2V52.2ZM183.1 52.2H187V62H183.1V52.2ZM142.8 52.2H145.9V62H141.2L142.8 52.2ZM188.9 62V52.2H191.7L193.4 62H188.9ZM188.8 19L189.3 21.3H145.3L145.8 19H188.8ZM191.6 89H179.1V82V64.2H191.6V89ZM177.1 81H143V64.2H177.1V81ZM143 83H177.1V90V93H143V83ZM191.6 93H179.1V91H191.6V93Z" fill="#133DBD"/>
        <path d="M157.1 47H149.1V40C149.1 38.3 150.4 37 152.1 37H154.1C155.8 37 157.1 38.3 157.1 40V47Z" fill="#A8BEEA"/>
        <path d="M154.1 36H152.1C149.9 36 148.1 37.8 148.1 40V47C148.1 47.6 148.5 48 149.1 48H157.1C157.7 48 158.1 47.6 158.1 47V40C158.1 37.8 156.3 36 154.1 36ZM150.1 40C150.1 38.9 151 38 152.1 38V46H150.1V40ZM156.1 46H154.1V38C155.2 38 156.1 38.9 156.1 40V46Z" fill="#133DBD"/>
        <path d="M168.6 36H166.6C164.4 36 162.6 37.8 162.6 40V47C162.6 47.6 163 48 163.6 48H171.6C172.2 48 172.6 47.6 172.6 47V40C172.6 37.8 170.8 36 168.6 36ZM164.6 40C164.6 38.9 165.5 38 166.6 38V46H164.6V40ZM170.6 46H168.6V38C169.7 38 170.6 38.9 170.6 40V46Z" fill="#133DBD"/>
        <path d="M183.1 36H181.1C178.9 36 177.1 37.8 177.1 40V47C177.1 47.6 177.5 48 178.1 48H186.1C186.7 48 187.1 47.6 187.1 47V40C187.1 37.8 185.3 36 183.1 36ZM179.1 40C179.1 38.9 180 38 181.1 38V46H179.1V40ZM185.1 46H183.1V38C184.2 38 185.1 38.9 185.1 40V46Z" fill="#133DBD"/>
    </g>
    <path d="M73 78C69.13 78 66 74.87 66 71V40C66 36.13 69.13 33 73 33C76.87 33 80 36.13 80 40V71C80 74.87 76.87 78 73 78Z" fill="white"/>
    <path d="M73 32C68.59 32 65 35.59 65 40V71C65 75.07 68.06 78.44 72 78.93V94.31C72 94.86 72.45 95.31 73 95.31C73.55 95.31 74 94.86 74 94.31V78.93C77.94 78.44 81 75.07 81 71V40C81 35.59 77.41 32 73 32ZM79 71C79 73.97 76.83 76.43 74 76.91V70.06L76.71 66.62C77.05 66.19 76.98 65.56 76.54 65.22C76.11 64.88 75.48 64.95 75.14 65.39L74 66.84V57.07L76.71 53.63C77.05 53.2 76.98 52.57 76.54 52.23C76.11 51.89 75.48 51.96 75.14 52.4L74 53.85V45.02C74 44.47 73.55 44.02 73 44.02C72.45 44.02 72 44.47 72 45.02V48.04L70.71 46.4C70.37 45.97 69.74 45.89 69.31 46.23C68.88 46.57 68.8 47.2 69.14 47.63L72 51.26V61.03L70.71 59.39C70.37 58.96 69.74 58.88 69.31 59.22C68.88 59.56 68.8 60.19 69.14 60.62L72 64.25V76.91C69.17 76.43 67 73.97 67 71V40C67 36.69 69.69 34 73 34C76.31 34 79 36.69 79 40V71Z" fill="#133DBD"/>
    <path d="M226.41 51.05C225.58 51.05 224.79 51.17 224.03 51.37C222.51 47.07 218.42 43.99 213.6 43.99C208.87 43.99 204.85 46.95 203.26 51.12C202.88 51.07 202.5 51.04 202.11 51.04C197.08 51.04 193 55.12 193 60.15C193 65.18 197.08 69.26 202.11 69.26C205.2 69.26 207.92 67.72 209.57 65.37C210.82 65.86 212.18 66.14 213.6 66.14C215.42 66.14 217.14 65.69 218.66 64.91C220.26 67.51 223.13 69.26 226.41 69.26C231.44 69.26 235.52 65.18 235.52 60.15C235.52 55.13 231.44 51.05 226.41 51.05Z" fill="white"/>
    <path d="M226.41 50.05C225.83 50.05 225.24 50.1 224.64 50.21C222.72 45.86 218.39 43 213.6 43C208.89 43 204.57 45.81 202.62 50.07C202.44 50.06 202.27 50.05 202.11 50.05C196.53 50.05 192 54.59 192 60.16C192 65.73 196.54 70.27 202.11 70.27C203.8 70.27 205.44 69.83 206.89 69.04L212.5 73.45V94.7H214.5V73.08L219.61 67.62C221.45 69.31 223.84 70.28 226.42 70.28C232 70.28 236.53 65.74 236.53 60.17C236.53 54.6 231.99 50.05 226.41 50.05ZM208.62 67.87C209.08 67.48 209.52 67.05 209.92 66.58C210.77 66.85 211.63 67.02 212.5 67.1V70.92L208.62 67.87ZM214.5 67.11C215.74 67.02 216.97 66.73 218.14 66.26L214.5 70.15V67.11ZM226.41 68.28C223.58 68.28 221 66.83 219.51 64.41L219.02 63.62L218.2 64.04C215.64 65.36 212.65 65.52 209.93 64.46L209.2 64.17L208.75 64.81C207.23 66.98 204.75 68.27 202.11 68.27C197.64 68.27 194 64.63 194 60.16C194 55.69 197.64 52.05 202.11 52.05C202.42 52.05 202.74 52.07 203.13 52.12L203.91 52.22L204.19 51.49C205.67 47.61 209.45 45 213.6 45C217.85 45 221.66 47.7 223.09 51.71L223.4 52.58L224.29 52.34C225 52.15 225.72 52.05 226.41 52.05C230.88 52.05 234.52 55.69 234.52 60.16C234.52 64.63 230.88 68.28 226.41 68.28Z" fill="#133DBD"/>
    <path d="M137.53 83.06C146.107 83.06 153.06 76.107 153.06 67.53C153.06 58.953 146.107 52 137.53 52C128.953 52 122 58.953 122 67.53C122 76.107 128.953 83.06 137.53 83.06Z" fill="#65D78D"/>
    <path d="M154.06 67.53C154.06 58.41 146.64 51 137.53 51C128.42 51 121 58.42 121 67.53C121 76.28 127.83 83.44 136.44 84.01V93.98C136.44 94.53 136.89 94.98 137.44 94.98C137.99 94.98 138.44 94.53 138.44 93.98V84.02C147.12 83.54 154.06 76.34 154.06 67.53ZM138.47 82.01L141.94 76.46C142.23 75.99 142.09 75.37 141.62 75.08C141.15 74.79 140.53 74.93 140.24 75.4L138.42 78.31V63.46C138.42 62.91 137.97 62.46 137.42 62.46C136.87 62.46 136.42 62.91 136.42 63.46V69.94L133.11 66.81C132.71 66.43 132.08 66.45 131.7 66.85C131.32 67.25 131.34 67.88 131.74 68.26L136.42 72.7V81.52V81.53C136.32 81.68 136.29 81.85 136.28 82.02C128.84 81.39 122.98 75.15 122.98 67.55C122.98 59.54 129.5 53.02 137.51 53.02C145.52 53.02 152.04 59.54 152.04 67.55C152.06 75.22 146.04 81.52 138.47 82.01Z" fill="#133DBD"/>
    <path d="M11.54 61.54C14.45 61.54 16.81 59.18 16.81 56.27C16.81 53.36 14.45 51 11.54 51C8.63001 51 6.27002 53.36 6.27002 56.27C6.27002 59.18 8.63001 61.54 11.54 61.54Z" fill="#65D78D"/>
    <path d="M11.54 61.98C5.72001 61.98 1.01001 66.69 1.01001 72.51C1.01001 78.33 5.72001 83.04 11.54 83.04C17.36 83.04 22.07 78.33 22.07 72.51C22.07 66.69 17.35 61.98 11.54 61.98Z" fill="#65D78D"/>
    <path d="M23.07 72.51C23.07 67.35 19.66 62.97 14.98 61.5C16.68 60.38 17.8 58.45 17.8 56.27C17.8 52.81 14.99 50 11.54 50C8.08001 50 5.27002 52.81 5.27002 56.27C5.27002 58.45 6.39 60.38 8.09 61.5C3.41 62.97 0 67.35 0 72.5C0 78.52 4.64 83.47 10.53 83.98V95.76H12.53V83.99C18.43 83.48 23.07 78.53 23.07 72.51ZM11.54 52.01C13.89 52.01 15.8 53.92 15.8 56.28C15.8 58.63 13.89 60.54 11.54 60.54C9.19001 60.54 7.27002 58.63 7.27002 56.28C7.27002 53.93 9.18001 52.01 11.54 52.01ZM11.54 82.04C6.29001 82.04 2.01001 77.76 2.01001 72.51C2.01001 67.26 6.29001 62.98 11.54 62.98C16.79 62.98 21.07 67.26 21.07 72.51C21.07 77.76 16.79 82.04 11.54 82.04Z" fill="#133DBD"/>
    <defs>
        <clipPath id="clip0_1_6301">
            <rect width="56.6" height="78" fill="white" transform="translate(139 17)"/>
        </clipPath>
    </defs>
</svg>
