<svg width="236" height="110" viewBox="0 0 236 110" fill="none" xmlns="http://www.w3.org/2000/svg">
    <path d="M17 1L84 23.4051V109L17 86.5949V1Z" fill="#EBF0F6" stroke="#0022CD" stroke-width="2" stroke-linejoin="round"/>
    <path d="M84 23.4051L151 1V86.5949L84 109V23.4051Z" fill="#EBF0F6" stroke="#0022CD" stroke-width="2" stroke-linejoin="round"/>
    <path d="M151 1L218 23.4051V109L151 86.5949V1Z" fill="#EBF0F6" stroke="#0022CD" stroke-width="2" stroke-linejoin="round"/>
    <path d="M166.5 54.0001C168 52.0001 171 55.0001 176.5 54.0001C181.459 53.0984 182.76 56.2616 182.968 56.8926C182.992 56.9644 183.006 57.0292 183.02 57.1036C183.454 59.395 190.899 98.9711 187.5 98.0001C184.577 97.1649 172.237 92.8419 168.249 91.4397C167.488 91.1723 166.971 90.4923 166.928 89.6872C166.582 83.3064 165.175 55.7675 166.5 54.0001Z" fill="#CCFF69"/>
    <path d="M211.506 54.6947C210.9 55.3817 209.96 54.1581 207.985 54.3269C206.115 54.4866 205.839 53.1325 205.815 52.9871C205.813 52.9782 205.813 52.9783 205.812 52.9693C205.777 52.6831 204.35 40.8066 206.725 40.146C208.2 39.7357 210.138 40.1305 211.416 40.4969C212.235 40.7316 212.736 41.5116 212.689 42.362C212.5 45.7613 211.988 54.148 211.506 54.6947Z" fill="#CCFF69"/>
    <path d="M80.3959 38.9803C79.9586 39.3248 79.2251 38.6628 77.7494 38.7037C76.4038 38.7411 76.1321 38.0795 76.0947 37.9626C76.0909 37.9508 76.0884 37.9392 76.0858 37.9271C76.0057 37.5561 74.7367 31.5455 76.4661 31.2626C77.4025 31.1094 78.6072 31.272 79.5408 31.4612C80.4186 31.6391 80.9938 32.4426 80.9585 33.3376C80.8784 35.3651 80.7004 38.7404 80.3959 38.9803Z" fill="#CCFF69"/>
    <path d="M80.0415 50.3702C79.5858 50.8911 78.88 49.9645 77.395 50.0937C76.004 50.2146 75.7869 49.2111 75.765 49.0836C75.7635 49.0747 75.7632 49.0724 75.7621 49.0635C75.7285 48.7815 74.6783 39.8494 76.4569 39.3493C77.4423 39.0721 78.7028 39.2766 79.6453 39.5198C80.4688 39.7323 80.9677 40.5176 80.9192 41.3666C80.7619 44.1212 80.3891 49.9729 80.0415 50.3702Z" fill="#CCFF69"/>
    <path d="M174.375 66.2346C178.154 66.3329 177.636 63.5672 177.71 61.6552C177.783 59.7432 177.232 58.1055 174.686 58.1663C170.176 58.2741 170.344 59.1073 170.197 62.903C170.109 65.2009 170.596 66.1363 174.375 66.2346Z" fill="#C4D3E4"/>
    <path d="M191.311 33.4271C191.127 35.2182 194.79 34.5097 197.316 34.2227C199.841 33.9357 202.014 33.4012 201.969 32.216C201.891 30.1164 200.787 30.335 195.773 30.9048C192.738 31.2497 191.495 31.6359 191.311 33.4271Z" fill="#C4D3E4"/>
    <path d="M206.306 31.4453C206.636 32.7809 205.546 32.8172 204.827 32.9958C204.107 33.1744 203.442 33.1088 203.268 32.199C202.958 30.5871 203.288 30.5801 204.717 30.2256C205.582 30.011 205.975 30.1096 206.306 31.4453Z" fill="#C4D3E4"/>
    <path d="M43.4483 87.9153C46.1396 87.8621 45.6853 85.934 45.6785 84.5871C45.6717 83.2402 45.2286 82.1063 43.4196 82.2315C40.2149 82.4532 40.3596 83.0337 40.3732 85.7076C40.3813 87.3264 40.757 87.9684 43.4483 87.9153Z" fill="#C4D3E4"/>
    <path d="M142.212 37.3009C143.212 44.3009 132.212 44.8009 123.712 46.3009C121.546 46.3009 105.713 48.3009 104.712 46.3009C100.962 38.8009 112.712 31.999 123.712 29.3009C128.495 28.1278 141.212 30.3009 142.212 37.3009Z" fill="#C4D3E4"/>
    <path d="M56.9834 83.5635C57.2446 87.4118 54.3708 87.6867 52.1501 88.5113C51.584 88.5113 47.4474 89.6108 47.1861 88.5113C46.2063 84.3881 49.2762 80.6487 52.1501 79.1654C53.3996 78.5205 56.7221 79.7152 56.9834 83.5635Z" fill="#C4D3E4"/>
    <path d="M179.382 90.4514C185.97 90.981 182.101 86.0666 183 78C182.873 75.9662 181.93 68 177.5 68C169.653 68.0001 170 70.3511 170 80.9999C170 87.4468 172.793 89.9219 179.382 90.4514Z" fill="#C4D3E4"/>
    <path d="M104.048 61.3274C99.0485 59.8274 97.0485 63.8274 95.0485 66.3274C90.5486 68.3274 92.5485 74.3274 92.0485 77.3274C91.5485 80.3274 95.0485 84.3274 96.5485 86.3274C98.0485 88.3274 103.048 86.8274 105.548 86.3274C108.048 85.8274 112.048 80.3274 114.548 79.3274C117.048 78.3274 114.548 70.3274 114.548 68.3274C114.548 66.3274 109.048 62.8274 104.048 61.3274Z" fill="#CCFF69"/>
    <path d="M60.1053 50.1499C61.0875 47.4414 56.5936 47.6674 53.6932 47.4664C51.0184 45.9824 44.8889 48.6029 41.6407 49.2287C38.3926 49.8545 34.5712 52.5902 32.6299 53.8439C30.6886 55.0977 32.8935 56.9522 33.7303 57.9507C34.5671 58.9491 40.8991 59.2087 42.2671 60.0648C43.6351 60.9209 51.8281 57.503 53.9527 56.9337C56.0774 56.3644 59.1231 52.8584 60.1053 50.1499Z" fill="#CCFF69"/>
    <path d="M125.065 85.8273C125.065 87.7603 125.065 89.3273 121.565 89.3273C119.632 89.3273 118.065 87.7603 118.065 85.8273C118.065 83.8943 115.565 82.3273 121.565 82.3273C124.116 82.3273 125.065 83.8943 125.065 85.8273Z" fill="#CCFF69"/>
    <path d="M108.548 90.8274C108.548 92.7604 106.981 94.3274 105.048 94.3274C103.115 94.3274 101.548 92.7604 101.548 90.8274C101.548 88.8944 103.115 87.3274 105.048 87.3274C106.981 87.3274 110.048 87.3274 108.548 90.8274Z" fill="#CCFF69"/>
    <path d="M111 2C105.474 2 101 6.59912 101 12.0925C101 19.7577 111 31 111 31C111 31 121 19.7577 121 12.2203C121 6.59912 116.526 2 111 2ZM111 15.7974C109.026 15.7974 107.447 14.1366 107.447 12.2203C107.447 10.304 109.026 8.64317 111 8.64317C112.974 8.64317 114.553 10.304 114.553 12.2203C114.553 14.1366 112.974 15.7974 111 15.7974Z" fill="#6288B9" stroke="#0022CD" stroke-width="2" stroke-miterlimit="10" stroke-linecap="round" stroke-linejoin="round"/>
    <path d="M99 15C93.4737 15 89 19.5991 89 25.0925C89 32.7577 99 44 99 44C99 44 109 32.7577 109 25.2203C109 19.5991 104.526 15 99 15ZM99 28.7974C97.0263 28.7974 95.4474 27.1366 95.4474 25.2203C95.4474 23.304 97.0263 21.6432 99 21.6432C100.974 21.6432 102.553 23.304 102.553 25.2203C102.553 27.1366 100.974 28.7974 99 28.7974Z" fill="#6288B9" stroke="#0022CD" stroke-width="2" stroke-miterlimit="10" stroke-linecap="round" stroke-linejoin="round"/>
    <path d="M134 48C128.474 48 124 52.5991 124 58.0925C124 65.7577 134 77 134 77C134 77 144 65.7577 144 58.2203C144 52.5991 139.526 48 134 48ZM134 61.7974C132.026 61.7974 130.447 60.1366 130.447 58.2203C130.447 56.304 132.026 54.6432 134 54.6432C135.974 54.6432 137.553 56.304 137.553 58.2203C137.553 60.1366 135.974 61.7974 134 61.7974Z" fill="#6288B9" stroke="#0022CD" stroke-width="2" stroke-miterlimit="10" stroke-linecap="round" stroke-linejoin="round"/>
    <path d="M176 15C170.474 15 166 19.5991 166 25.0925C166 32.7577 176 44 176 44C176 44 186 32.7577 186 25.2203C186 19.5991 181.526 15 176 15ZM176 28.7974C174.026 28.7974 172.447 27.1366 172.447 25.2203C172.447 23.304 174.026 21.6432 176 21.6432C177.974 21.6432 179.553 23.304 179.553 25.2203C179.553 27.1366 177.974 28.7974 176 28.7974Z" fill="#6288B9" stroke="#0022CD" stroke-width="2" stroke-miterlimit="10" stroke-linecap="round" stroke-linejoin="round"/>
    <path d="M205 62C199.474 62 195 66.5991 195 72.0925C195 79.7577 205 91 205 91C205 91 215 79.7577 215 72.2203C215 66.5991 210.526 62 205 62ZM205 75.7974C203.026 75.7974 201.447 74.1366 201.447 72.2203C201.447 70.304 203.026 68.6432 205 68.6432C206.974 68.6432 208.553 70.304 208.553 72.2203C208.553 74.1366 206.974 75.7974 205 75.7974Z" fill="#6288B9" stroke="#0022CD" stroke-width="2" stroke-miterlimit="10" stroke-linecap="round" stroke-linejoin="round"/>
    <path d="M193 67C187.474 67 183 71.5991 183 77.0925C183 84.7577 193 96 193 96C193 96 203 84.7577 203 77.2203C203 71.5991 198.526 67 193 67ZM193 80.7974C191.026 80.7974 189.447 79.1366 189.447 77.2203C189.447 75.304 191.026 73.6432 193 73.6432C194.974 73.6432 196.553 75.304 196.553 77.2203C196.553 79.1366 194.974 80.7974 193 80.7974Z" fill="#6288B9" stroke="#0022CD" stroke-width="2" stroke-miterlimit="10" stroke-linecap="round" stroke-linejoin="round"/>
    <path d="M72 67C66.4737 67 62 71.5991 62 77.0925C62 84.7577 72 96 72 96C72 96 82 84.7577 82 77.2203C82 71.5991 77.5263 67 72 67ZM72 80.7974C70.0263 80.7974 68.4474 79.1366 68.4474 77.2203C68.4474 75.304 70.0263 73.6432 72 73.6432C73.9737 73.6432 75.5526 75.304 75.5526 77.2203C75.5526 79.1366 73.9737 80.7974 72 80.7974Z" fill="#6288B9" stroke="#0022CD" stroke-width="2" stroke-miterlimit="10" stroke-linecap="round" stroke-linejoin="round"/>
    <path d="M32 19C26.4737 19 22 23.5991 22 29.0925C22 36.7577 32 48 32 48C32 48 42 36.7577 42 29.2203C42 23.5991 37.5263 19 32 19ZM32 32.7974C30.0263 32.7974 28.4474 31.1366 28.4474 29.2203C28.4474 27.304 30.0263 25.6432 32 25.6432C33.9737 25.6432 35.5526 27.304 35.5526 29.2203C35.5526 31.1366 33.9737 32.7974 32 32.7974Z" fill="#6288B9" stroke="#0022CD" stroke-width="2" stroke-miterlimit="10" stroke-linecap="round" stroke-linejoin="round"/>
</svg>
