<svg width="18" height="18" viewBox="0 0 18 18" fill="none" xmlns="http://www.w3.org/2000/svg">
    <path fill-rule="evenodd" clip-rule="evenodd" d="M3.75 13.5C3.75 13.9125 4.0875 14.25 4.5 14.25H13.5C13.9125 14.25 14.25 13.9125 14.25 13.5V9.75C14.25 9.3375 14.5875 9 15 9C15.4125 9 15.75 9.3375 15.75 9.75V14.25C15.75 15.075 15.075 15.75 14.25 15.75H3.75C2.925 15.75 2.25 15.075 2.25 14.25V3.75C2.25 2.925 2.9175 2.25 3.75 2.25H8.25C8.6625 2.25 9 2.5875 9 3C9 3.4125 8.6625 3.75 8.25 3.75H4.5C4.0875 3.75 3.75 4.0875 3.75 4.5V13.5ZM11.25 3.75C10.8375 3.75 10.5 3.4125 10.5 3C10.5 2.5875 10.8375 2.25 11.25 2.25H15C15.4125 2.25 15.75 2.5875 15.75 3V6.75C15.75 7.1625 15.4125 7.5 15 7.5C14.5875 7.5 14.25 7.1625 14.25 6.75V4.8075L7.4025 11.655C7.11 11.9475 6.63751 11.9475 6.34501 11.655C6.05251 11.3625 6.05251 10.89 6.34501 10.5975L13.1925 3.75H11.25Z" fill="#133DBD"/>
</svg>
