<svg width="24" height="24" viewBox="0 0 24 24" fill="none" xmlns="http://www.w3.org/2000/svg">
    <path fill-rule="evenodd" clip-rule="evenodd" d="M4.14407 12.0017C4.14407 6.95172 8.31407 2.86172 13.4041 3.00172C18.0941 3.13172 22.0141 7.05172 22.1441 11.7417C22.2841 16.8317 18.1941 21.0017 13.1441 21.0017C11.0541 21.0017 9.14407 20.2917 7.62407 19.0917C7.15407 18.7317 7.12407 18.0217 7.54407 17.6017C7.90407 17.2417 8.46407 17.2117 8.86407 17.5217C10.0441 18.4517 11.5341 19.0017 13.1441 19.0017C17.0441 19.0017 20.1941 15.8117 20.1441 11.9017C20.0941 8.18172 16.9641 5.05172 13.2441 5.00172C9.32407 4.95172 6.14407 8.10172 6.14407 12.0017H7.93407C8.38407 12.0017 8.60407 12.5417 8.29407 12.8517L5.50407 15.6517C5.30407 15.8517 4.99407 15.8517 4.79407 15.6517L2.00407 12.8517C1.68407 12.5417 1.90407 12.0017 2.35407 12.0017H4.14407ZM12.1441 8.75172C12.1441 8.34172 12.4841 8.00172 12.8941 8.00172C13.3041 8.00172 13.6441 8.34172 13.6441 8.74172V12.1417L16.5241 13.8517C16.8741 14.0617 16.9941 14.5217 16.7841 14.8817C16.5741 15.2317 16.1141 15.3517 15.7541 15.1417L12.6341 13.2917C12.3341 13.1117 12.1441 12.7817 12.1441 12.4317V8.75172Z" fill="#133DBD"/>
</svg>
