<svg width="24" height="24" viewBox="0 0 24 24" fill="none" xmlns="http://www.w3.org/2000/svg">
    <path fill-rule="evenodd" clip-rule="evenodd" d="M18.566 2.81464C20.2259 2.12638 21.8457 3.79952 21.1983 5.42784L21.1949 5.43645L15.0413 20.115L15.0405 20.1169C14.3421 21.7731 11.9695 21.7409 11.3256 20.057C11.3252 20.0561 11.3249 20.0553 11.3246 20.0544L9.26691 14.7305L3.92931 12.6614C3.92914 12.6614 3.92948 12.6615 3.92931 12.6614C2.2525 12.0145 2.22926 9.65325 3.88049 8.95695L3.88318 8.95582L18.5632 2.81582L18.566 2.81464ZM19.3294 4.66325L4.65892 10.7993L9.98802 12.865C9.9884 12.8652 9.98878 12.8653 9.98915 12.8655C10.5125 13.0671 10.9306 13.4854 11.1321 14.0088C11.1321 14.0086 11.1322 14.009 11.1321 14.0088L13.1925 19.3397C13.193 19.3397 13.1936 19.3398 13.1942 19.3398C13.1954 19.3398 13.1966 19.3398 13.1977 19.3397L19.3413 4.68488C19.342 4.68277 19.3425 4.68112 19.3428 4.67991C19.3425 4.67931 19.3422 4.67858 19.3417 4.67773C19.3398 4.67448 19.337 4.67055 19.3332 4.66674C19.3319 4.66541 19.3306 4.66425 19.3294 4.66325Z" fill="#0022CD"/>
</svg>
