<svg width="24" height="24" viewBox="0 0 24 24" fill="none" xmlns="http://www.w3.org/2000/svg">
    <path d="M18.1841 8.56716C18.0035 8.53958 17.8186 8.5795 17.6678 8.67864C17.5172 8.77779 17.4124 8.92852 17.3752 9.09953C17.3379 9.27055 17.3711 9.44868 17.4679 9.59692C17.5648 9.74515 17.7176 9.8521 17.8948 9.89552C20.678 10.444 21.5771 11.2164 21.5771 11.5C21.5771 12.1343 18.3209 13.6269 12 13.6269C5.67911 13.6269 2.42289 12.1343 2.42289 11.5C2.42289 11.2276 3.2047 10.556 5.50321 10.0224L4.7214 11.1306L6.12865 10.8694L7.45772 8.98507L5.48366 7.70896L4.07641 7.97015L5.21003 8.69403C3.10306 9.1791 1 10.0261 1 11.5C1 13.8955 6.69937 14.9851 11.9961 14.9851C17.2928 14.9851 23 13.8955 23 11.5C23 9.86194 20.3809 9 18.1841 8.56716ZM14.5878 16.2164C14.6796 16.2326 14.7673 16.2659 14.8458 16.3144C14.9242 16.3628 14.9918 16.4256 15.0449 16.4991C15.0978 16.5725 15.1352 16.6552 15.1546 16.7425C15.1741 16.8297 15.1754 16.9198 15.1585 17.0075C14.7129 19.2836 13.8021 22 12 22C10.1667 22 9.25587 19.1978 8.81025 16.847C8.78938 16.7576 8.78769 16.665 8.80525 16.575C8.82283 16.4849 8.8593 16.3993 8.91248 16.323C8.96566 16.2468 9.03444 16.1816 9.11469 16.1315C9.19495 16.0812 9.28501 16.047 9.37948 16.0308C9.47393 16.0148 9.57083 16.017 9.66434 16.0376C9.75785 16.0582 9.84604 16.0965 9.92359 16.1505C10.0011 16.2045 10.0665 16.2728 10.1156 16.3515C10.1648 16.4301 10.1968 16.5174 10.2097 16.6082C10.7804 19.6269 11.6795 20.6418 12 20.6418C12.3245 20.6418 13.1844 19.694 13.7591 16.7537C13.7764 16.6659 13.8117 16.5823 13.863 16.5076C13.9142 16.433 13.9804 16.3687 14.0578 16.3184C14.1351 16.268 14.2221 16.2328 14.3137 16.2148C14.4053 16.1966 14.4998 16.1959 14.5917 16.2127L14.5878 16.2164ZM9.06433 12.1754C8.87632 12.1744 8.69636 12.1024 8.56379 11.9751C8.43121 11.8479 8.3568 11.6757 8.3568 11.4963C8.3568 6.4403 9.49823 1 12.0039 1C14.7011 1 15.4008 7.02612 15.5494 8.87313C15.565 9.04851 15.5689 9.23881 15.5807 9.41791L16.511 8.46269L16.5657 9.82836L14.9435 11.4963L13.1962 9.94776L13.1414 8.58209L14.1617 9.48881L14.1343 8.97761C13.7551 4.35821 12.5395 2.35821 12 2.35821C11.3355 2.35821 9.77187 5.47015 9.77187 11.5C9.77187 11.8731 9.45524 12.1791 9.06042 12.1791L9.06433 12.1754Z" fill="#0022CD"/>
</svg>
