<svg width="24" height="24" viewBox="0 0 24 24" fill="none" xmlns="http://www.w3.org/2000/svg">
    <path fill-rule="evenodd" clip-rule="evenodd" d="M14.8084 8.87461L19.6484 9.29461C20.5284 9.36461 20.8784 10.4646 20.2084 11.0446L16.5384 14.2246L17.6384 18.9546C17.8384 19.8146 16.9084 20.4946 16.1484 20.0346L11.9984 17.5246L7.84836 20.0246C7.08836 20.4846 6.15836 19.8046 6.35836 18.9446L7.45836 14.2246L3.78836 11.0446C3.11836 10.4646 3.47836 9.36461 4.35836 9.29461L9.18836 8.88461L11.0784 4.42461C11.4184 3.61461 12.5784 3.61461 12.9184 4.42461L14.8084 8.87461ZM8.23836 17.9246L11.9984 15.6546L15.7684 17.9346L14.7684 13.6546L18.0884 10.7746L13.7084 10.3946L11.9984 6.35461L10.2984 10.3846L5.91836 10.7646L9.23836 13.6446L8.23836 17.9246Z" fill="#0022CD"/>
    <mask id="mask0_1_662" style="mask-type:alpha" maskUnits="userSpaceOnUse" x="3" y="4" width="9" height="16">
        <rect x="3" y="4" width="9" height="16" fill="#C4C4C4"/>
    </mask>
    <g mask="url(#mask0_1_662)">
        <path d="M11.9998 17.5196L16.1498 20.0296C16.9098 20.4896 17.8398 19.8096 17.6398 18.9496L16.5398 14.2296L20.2098 11.0496C20.8798 10.4696 20.5198 9.36958 19.6398 9.29958L14.8098 8.88958L12.9198 4.42958C12.5798 3.61958 11.4198 3.61958 11.0798 4.42958L9.18983 8.87958L4.35983 9.28958C3.47983 9.35958 3.11983 10.4596 3.78983 11.0396L7.45983 14.2196L6.35983 18.9396C6.15983 19.7996 7.08983 20.4796 7.84983 20.0196L11.9998 17.5196Z" fill="#0022CD"/>
    </g>
</svg>
