<svg width="24" height="24" viewBox="0 0 24 24" fill="none" xmlns="http://www.w3.org/2000/svg">
    <path d="M22 5.89046C21.2607 6.21538 20.4715 6.432 19.6424 6.53046C20.4915 6.02831 21.1409 5.24062 21.4406 4.29538C20.6513 4.75815 19.7722 5.09292 18.8332 5.28C18.0839 4.49231 17.025 4 15.8362 4C13.5684 4 11.7403 5.81169 11.7403 8.03692C11.7403 8.352 11.7802 8.65723 11.8502 8.96246C8.44356 8.79508 5.42657 7.19015 3.3986 4.73846C3.04895 5.33908 2.83916 6.02831 2.83916 6.76677C2.83916 8.16492 3.55844 9.40554 4.66733 10.1342C3.998 10.1145 3.35864 9.92738 2.80919 9.632C2.80919 9.65169 2.80919 9.66154 2.80919 9.68123C2.80919 11.6406 4.21778 13.2751 6.0959 13.6394C5.75624 13.728 5.38661 13.7772 5.01698 13.7772C4.75724 13.7772 4.4975 13.7477 4.24775 13.7083C4.76723 15.3132 6.28571 16.4849 8.07393 16.5145C6.67532 17.5975 4.90709 18.2474 2.97902 18.2474C2.64935 18.2474 2.31968 18.2277 2 18.1883C3.81818 19.3305 5.96603 20 8.28372 20C15.8262 20 19.9421 13.8462 19.9421 8.50954C19.9421 8.33231 19.9421 8.16492 19.9321 7.98769C20.7512 7.41662 21.4506 6.70769 22 5.89046Z" fill="#0022CD"/>
</svg>
