<svg width="24" height="24" viewBox="0 0 24 24" fill="none" xmlns="http://www.w3.org/2000/svg">
    <path d="M18.5455 9H14.9018C14.5091 9 14.1818 9.3 14.1818 9.66C14.1818 10.0267 14.5091 10.32 14.9018 10.32H17.8182C18.2182 10.32 18.5455 10.62 18.5455 10.9867V19.0067C18.5455 19.3733 18.2182 19.6733 17.8182 19.6733H6.18182C5.78182 19.6733 5.45455 19.3733 5.45455 19.0067V10.9933C5.45455 10.6267 5.78182 10.3267 6.18182 10.3267H9.09818C9.49091 10.3267 9.81818 10.0267 9.81818 9.66667C9.81818 9.3 9.49091 9 9.09818 9H5.45455C4.65455 9 4 9.6 4 10.3333V19.6667C4 20.4 4.65455 21 5.45455 21H18.5455C19.3455 21 20 20.4 20 19.6667V10.3333C20 9.6 19.3455 9 18.5455 9Z" fill="#0022CD" stroke="#0022CD" stroke-width="0.5"/>
    <path d="M12.7195 14.2038L12.7195 3.71719L14.7812 6.01038C15.0604 6.32092 15.5114 6.32092 15.7906 6.01038C15.9247 5.86162 16 5.65965 16 5.44903C16 5.2384 15.9247 5.03644 15.7906 4.88767L12.5047 1.2329C12.2255 0.922366 11.7745 0.922366 11.4953 1.2329L8.2094 4.88767C7.9302 5.19821 7.9302 5.69984 8.2094 6.01038C8.48859 6.32091 8.9396 6.32091 9.21879 6.01038L11.2877 3.71719L11.2877 14.2038C11.2877 14.6417 11.6098 15 12.0036 15C12.3973 15 12.7195 14.6417 12.7195 14.2038Z" fill="#0022CD" stroke="#0022CD" stroke-width="0.5"/>
</svg>
