<svg width="24" height="24" viewBox="0 0 24 24" fill="none" xmlns="http://www.w3.org/2000/svg">
    <path d="M9.64976 3.43337C9.47521 3.73587 9.57739 4.12481 9.87539 4.30199L14.1369 6.82574C14.4349 7.00292 14.818 6.89921 14.9926 6.5967C15.1629 6.2942 15.0649 5.90526 14.7669 5.7324L10.5055 3.20433C10.2075 3.02715 9.8243 3.13086 9.64976 3.43337Z" fill="#133DBD"/>
    <path d="M4.25181 12.7764C4.07726 13.079 4.17944 13.4679 4.47744 13.6451L8.98158 16.2941C9.27959 16.4713 9.66274 16.3676 9.83729 16.0651C10.0118 15.7626 9.90966 15.3737 9.61165 15.2008L5.10751 12.5517C4.80951 12.3702 4.42635 12.4739 4.25181 12.7764Z" fill="#133DBD"/>
    <path d="M12.2041 12.7332L20.0374 17.3745C20.659 17.7418 21.4551 17.5301 21.8212 16.8991C21.8212 16.8991 21.8212 16.8948 21.8254 16.8948C22.183 16.2639 21.9744 15.4601 21.3529 15.0928L13.5153 10.4515C13.3493 10.862 13.162 11.2726 12.9449 11.6529C12.7363 12.0115 12.4808 12.3789 12.2041 12.7332Z" fill="#133DBD"/>
    <path d="M5.23535 12.3486L9.73523 14.9804C9.73523 14.9804 11.7744 13.1827 12.7323 11.5059C13.7711 9.69092 14.2096 7.12827 14.2096 7.12827L9.70118 4.48352C9.70118 4.48352 7.78117 5.94419 6.66152 7.90614C5.57167 9.82489 5.23535 12.3486 5.23535 12.3486Z" fill="#133DBD"/>
    <path d="M3 21.0002H13.0683C13.0683 21.0002 12.9108 18.0746 10.978 18.0746C9.47949 18.0746 6.59735 18.0746 5.23504 18.0746C3.35761 18.0746 3 21.0002 3 21.0002Z" fill="#133DBD"/>
</svg>
