<svg width="18" height="18" viewBox="0 0 18 18" fill="none" xmlns="http://www.w3.org/2000/svg">
    <path fill-rule="evenodd" clip-rule="evenodd" d="M15.75 8.5924V3.6499C15.75 2.8249 15.075 2.1499 14.25 2.1499H3.75C2.925 2.1499 2.25 2.8249 2.25 3.6499V7.0849L4.5 9.3424L6.975 6.8749C7.11512 6.73446 7.30536 6.65554 7.50375 6.65554C7.70214 6.65554 7.89238 6.73446 8.0325 6.8749L10.5 9.3424L12.9675 6.8674C13.26 6.5749 13.74 6.5749 14.0325 6.8674L15.75 8.5924ZM15.75 10.7224L13.5 8.46489L11.025 10.9249C10.7325 11.2174 10.26 11.2174 9.9675 10.9249L7.5 8.45739L5.025 10.9324C4.7325 11.2249 4.26 11.2249 3.9675 10.9324L2.25 9.21489V14.1499C2.25 14.9749 2.925 15.6499 3.75 15.6499H14.25C15.075 15.6499 15.75 14.9749 15.75 14.1499V10.7224Z" fill="#133DBD"/>
</svg>
