<svg width="32" height="32" viewBox="0 0 32 32" fill="none" xmlns="http://www.w3.org/2000/svg">
    <path d="M16 32C24.8366 32 32 24.8366 32 16C32 7.16344 24.8366 0 16 0C7.16344 0 0 7.16344 0 16C0 24.8366 7.16344 32 16 32Z" fill="white"/>
    <path d="M20.3333 19.7229C19.6578 19.7229 19.0533 19.994 18.5911 20.4187L12.2533 16.6687C12.2978 16.4608 12.3333 16.253 12.3333 16.0361C12.3333 15.8193 12.2978 15.6114 12.2533 15.4036L18.52 11.6898C19 12.1416 19.6311 12.4217 20.3333 12.4217C21.8089 12.4217 23 11.2108 23 9.71084C23 8.21084 21.8089 7 20.3333 7C18.8578 7 17.6667 8.21084 17.6667 9.71084C17.6667 9.92771 17.7022 10.1355 17.7467 10.3434L11.48 14.0572C11 13.6054 10.3689 13.3253 9.66667 13.3253C8.19111 13.3253 7 14.5361 7 16.0361C7 17.5361 8.19111 18.747 9.66667 18.747C10.3689 18.747 11 18.4669 11.48 18.0151L17.8089 21.7741C17.7644 21.9639 17.7378 22.1627 17.7378 22.3614C17.7378 23.8163 18.9022 25 20.3333 25C21.7644 25 22.9289 23.8163 22.9289 22.3614C22.9289 20.9066 21.7644 19.7229 20.3333 19.7229Z" fill="#3D6CA9"/>
</svg>
