<svg width="173" height="100" viewBox="0 0 173 100" xmlns="http://www.w3.org/2000/svg">
    <rect y="98" width="173" height="2" fill="#133DBD"/>
    <path d="M106.7 50H43.9V99H106.7V50Z" fill="white"/>
    <path d="M62.9 93.8V99H54.7V93.8" fill="#C4D3E4"/>
    <path d="M95.9 93.8V99H87.7V93.8" fill="#C4D3E4"/>
    <path d="M95.9 93.8H54.7V86.4C54.7 85.9 54.9 85.3 55.3 84.9L58.8 81.4H91.8L95.3 84.9C95.7 85.3 95.9 85.8 95.9 86.4V93.8Z" fill="#315ED1"/>
    <path d="M110.6 44H40V50H110.6V44Z" fill="#C4D3E4"/>
    <path d="M65 86.7H60.9C60.3 86.7 59.9 87.1 59.9 87.7C59.9 88.3 60.3 88.7 60.9 88.7H65C65.6 88.7 66 88.3 66 87.7C66 87.1 65.5 86.7 65 86.7Z" fill="#133DBD"/>
    <path d="M89.7 86.7H85.6C85 86.7 84.6 87.1 84.6 87.7C84.6 88.3 85 88.7 85.6 88.7H89.7C90.3 88.7 90.7 88.3 90.7 87.7C90.7 87.1 90.3 86.7 89.7 86.7Z" fill="#133DBD"/>
    <path d="M63.5 69H87.5L91 81H59L63.5 69Z" fill="#EBF0F6"/>
    <path d="M110.6 43H40C39.4 43 39 43.4 39 44V50C39 50.6 39.4 51 40 51H42.9V99C42.9 99.6 43.3 100 43.9 100H106.7C107.3 100 107.7 99.6 107.7 99V51H110.6C111.2 51 111.6 50.6 111.6 50V44C111.6 43.4 111.2 43 110.6 43ZM61.9 98H55.7V94.8H61.9V98ZM86.7 98H63.9V94.8H86.6V98H86.7ZM94.9 98H88.7V94.8H94.9V98ZM94.9 92.8H55.7V86.4C55.7 86.1 55.8 85.8 56 85.6L59.2 82.4H91.4L94.6 85.6C94.8 85.8 94.9 86.1 94.9 86.4V92.8ZM60.2 80.5L63.4 70.9C63.5 70.5 63.9 70.2 64.4 70.2H86.2C86.7 70.2 87.1 70.5 87.2 70.9L90.4 80.5H60.2ZM105.7 98H96.9V93.8V86.4C96.9 85.6 96.6 84.8 96 84.2L92.6 80.8L89 70.1C88.6 68.8 87.4 68 86.1 68H64.4C63.1 68 61.9 68.8 61.5 70.1L57.9 80.8L54.5 84.2C53.9 84.8 53.6 85.5 53.6 86.4V93.8V98H44.9V51H105.7V98ZM109.6 49H106.7H43.9H41V45H109.6V49Z" fill="#133DBD"/>
    <path d="M48.6 55H101.6C102.2 55 102.6 54.6 102.6 54C102.6 53.4 102.2 53 101.6 53H48.6C48 53 47.6 53.4 47.6 54C47.6 54.6 48 55 48.6 55Z" fill="#133DBD"/>
    <path d="M48.6 59H101.6C102.2 59 102.6 58.6 102.6 58C102.6 57.4 102.2 57 101.6 57H48.6C48 57 47.6 57.4 47.6 58C47.6 58.6 48 59 48.6 59Z" fill="#133DBD"/>
    <path d="M48.6 63H101.6C102.2 63 102.6 62.6 102.6 62C102.6 61.4 102.2 61 101.6 61H48.6C48 61 47.6 61.4 47.6 62C47.6 62.6 48 63 48.6 63Z" fill="#133DBD"/>
    <path d="M19 88.6C23.9706 88.6 28 78.8398 28 66.8C28 54.7602 23.9706 45 19 45C14.0294 45 10 54.7602 10 66.8C10 78.8398 14.0294 88.6 19 88.6Z" fill="white"/>
    <path d="M29 66.8C29 54 24.6 44 19 44C13.4 44 9 54 9 66.8C9 78.8 12.9 88.4 18 89.5V98C18 98.5 18.4 99 19 99C19.6 99 20 98.6 20 98V89.5C25.1 88.4 29 78.8 29 66.8ZM20 87.4V69.9C20 69.4 19.6 68.9 19 68.9C18.4 68.9 18 69.3 18 69.9V87.4C14.4 86.1 11 78.2 11 66.8C11 54.4 15.1 46 19 46C22.9 46 27 54.4 27 66.8C27 78.2 23.6 86.2 20 87.4Z" fill="#133DBD"/>
    <path d="M131 82C127.13 82 124 78.87 124 75V44C124 40.13 127.13 37 131 37C134.87 37 138 40.13 138 44V75C138 78.87 134.87 82 131 82Z" fill="white"/>
    <path d="M131 36C126.59 36 123 39.59 123 44V75C123 79.07 126.06 82.44 130 82.93V98.31C130 98.86 130.45 99.31 131 99.31C131.55 99.31 132 98.86 132 98.31V82.93C135.94 82.44 139 79.07 139 75V44C139 39.59 135.41 36 131 36ZM137 75C137 77.97 134.83 80.43 132 80.91V74.06L134.71 70.62C135.05 70.19 134.98 69.56 134.54 69.22C134.11 68.88 133.48 68.95 133.14 69.39L132 70.84V61.07L134.71 57.63C135.05 57.2 134.98 56.57 134.54 56.23C134.11 55.89 133.48 55.96 133.14 56.4L132 57.85V49.02C132 48.47 131.55 48.02 131 48.02C130.45 48.02 130 48.47 130 49.02V52.04L128.71 50.4C128.37 49.97 127.74 49.89 127.31 50.23C126.88 50.57 126.8 51.2 127.14 51.63L130 55.26V65.03L128.71 63.39C128.37 62.96 127.74 62.88 127.31 63.22C126.88 63.56 126.8 64.19 127.14 64.62L130 68.25V80.91C127.17 80.43 125 77.97 125 75V44C125 40.69 127.69 38 131 38C134.31 38 137 40.69 137 44V75Z" fill="#133DBD"/>
    <path d="M165.18 81.09C165.18 74.97 160.2 70 154.09 70C147.98 70 143 74.98 143 81.09C143 86.87 147.44 91.63 153.09 92.13V97.8C153.09 98.35 153.54 98.8 154.09 98.8C154.64 98.8 155.09 98.35 155.09 97.8V92.13C160.74 91.62 165.18 86.86 165.18 81.09ZM155.09 90.12V81.4C155.09 80.85 154.64 80.4 154.09 80.4C153.54 80.4 153.09 80.85 153.09 81.4V90.12C148.54 89.62 145 85.76 145 81.08C145 76.07 149.08 71.99 154.09 71.99C159.1 71.99 163.18 76.07 163.18 81.08C163.18 85.76 159.64 89.62 155.09 90.12Z" fill="#133DBD"/>
</svg>
