<svg width="173" height="100" viewBox="0 0 173 100" xmlns="http://www.w3.org/2000/svg">
    <rect y="98" width="173" height="2" fill="#133DBD"/>
    <path d="M124 8H82.7V13.8H124V8Z" fill="#315ED1"/>
    <path d="M129 44H77.7V99H129V44Z" fill="white"/>
    <path d="M121 14H85.7V38.2H121V14Z" fill="white"/>
    <path d="M111.2 49H106.2V57H111.2V49Z" fill="white"/>
    <path d="M121.2 49H116.2V57H121.2V49Z" fill="white"/>
    <path d="M111.2 63.5H106.2V71.5H111.2V63.5Z" fill="white"/>
    <path d="M121.2 63.5H116.2V71.5H121.2V63.5Z" fill="white"/>
    <path d="M121.2 78H116.2V86H121.2V78Z" fill="white"/>
    <path d="M116 18.2H111V24.2H116V18.2Z" fill="white"/>
    <path d="M96 18.2H91V24.2H96V18.2Z" fill="white"/>
    <path d="M106 18.2H101V24.2H106V18.2Z" fill="white"/>
    <path d="M116 28.2H111V34.2H116V28.2Z" fill="white"/>
    <path d="M96 28.2H91V34.2H96V28.2Z" fill="white"/>
    <path d="M106 28.2H101V34.2H106V28.2Z" fill="white"/>
    <path d="M91.2 49H86.2V57H91.2V49Z" fill="white"/>
    <path d="M101.2 49H96.2V57H101.2V49Z" fill="white"/>
    <path d="M91.2 63.5H86.2V71.5H91.2V63.5Z" fill="white"/>
    <path d="M101.2 63.5H96.2V71.5H101.2V63.5Z" fill="white"/>
    <path d="M91.2 78H86.2V86H91.2V78Z" fill="white"/>
    <path d="M111 78.2H96V98.2H111V78.2Z" fill="#C4D3E4"/>
    <path d="M134.7 38.2H72V44H134.7V38.2Z" fill="#315ED1"/>
    <path d="M106.2 57.8H111.2C111.8 57.8 112.2 57.4 112.2 56.8V48.8C112.2 48.2 111.8 47.8 111.2 47.8H106.2C105.6 47.8 105.2 48.2 105.2 48.8V56.8C105.2 57.4 105.7 57.8 106.2 57.8ZM107.2 49.8H110.2V55.8H107.2V49.8Z" fill="#133DBD"/>
    <path d="M116.2 57.8H121.2C121.8 57.8 122.2 57.4 122.2 56.8V48.8C122.2 48.2 121.8 47.8 121.2 47.8H116.2C115.6 47.8 115.2 48.2 115.2 48.8V56.8C115.2 57.4 115.7 57.8 116.2 57.8ZM117.2 49.8H120.2V55.8H117.2V49.8Z" fill="#133DBD"/>
    <path d="M106.2 72.3H111.2C111.8 72.3 112.2 71.9 112.2 71.3V63.3C112.2 62.7 111.8 62.3 111.2 62.3H106.2C105.6 62.3 105.2 62.7 105.2 63.3V71.3C105.2 71.9 105.7 72.3 106.2 72.3ZM107.2 64.3H110.2V70.3H107.2V64.3Z" fill="#133DBD"/>
    <path d="M116.2 72.3H121.2C121.8 72.3 122.2 71.9 122.2 71.3V63.3C122.2 62.7 121.8 62.3 121.2 62.3H116.2C115.6 62.3 115.2 62.7 115.2 63.3V71.3C115.2 71.9 115.7 72.3 116.2 72.3ZM117.2 64.3H120.2V70.3H117.2V64.3Z" fill="#133DBD"/>
    <path d="M116.2 86.8H121.2C121.8 86.8 122.2 86.4 122.2 85.8V77.8C122.2 77.2 121.8 76.8 121.2 76.8H116.2C115.6 76.8 115.2 77.2 115.2 77.8V85.8C115.2 86.4 115.7 86.8 116.2 86.8ZM117.2 78.8H120.2V84.8H117.2V78.8Z" fill="#133DBD"/>
    <path d="M116 17H111C110.4 17 110 17.4 110 18V24C110 24.6 110.4 25 111 25H116C116.6 25 117 24.6 117 24V18C117 17.4 116.6 17 116 17ZM115 23H112V19H115V23Z" fill="#133DBD"/>
    <path d="M96 17H91C90.4 17 90 17.4 90 18V24C90 24.6 90.4 25 91 25H96C96.6 25 97 24.6 97 24V18C97 17.4 96.6 17 96 17ZM95 23H92V19H95V23Z" fill="#133DBD"/>
    <path d="M106 17H101C100.4 17 100 17.4 100 18V24C100 24.6 100.4 25 101 25H106C106.6 25 107 24.6 107 24V18C107 17.4 106.6 17 106 17ZM105 23H102V19H105V23Z" fill="#133DBD"/>
    <path d="M116 27H111C110.4 27 110 27.4 110 28V34C110 34.6 110.4 35 111 35H116C116.6 35 117 34.6 117 34V28C117 27.4 116.6 27 116 27ZM115 33H112V29H115V33Z" fill="#133DBD"/>
    <path d="M96 27H91C90.4 27 90 27.4 90 28V34C90 34.6 90.4 35 91 35H96C96.6 35 97 34.6 97 34V28C97 27.4 96.6 27 96 27ZM95 33H92V29H95V33Z" fill="#133DBD"/>
    <path d="M106 27H101C100.4 27 100 27.4 100 28V34C100 34.6 100.4 35 101 35H106C106.6 35 107 34.6 107 34V28C107 27.4 106.6 27 106 27ZM105 33H102V29H105V33Z" fill="#133DBD"/>
    <path d="M86.2 57.8H91.2C91.8 57.8 92.2 57.4 92.2 56.8V48.8C92.2 48.2 91.8 47.8 91.2 47.8H86.2C85.6 47.8 85.2 48.2 85.2 48.8V56.8C85.2 57.4 85.7 57.8 86.2 57.8ZM87.2 49.8H90.2V55.8H87.2V49.8Z" fill="#133DBD"/>
    <path d="M96.2 57.8H101.2C101.8 57.8 102.2 57.4 102.2 56.8V48.8C102.2 48.2 101.8 47.8 101.2 47.8H96.2C95.6 47.8 95.2 48.2 95.2 48.8V56.8C95.2 57.4 95.7 57.8 96.2 57.8ZM97.2 49.8H100.2V55.8H97.2V49.8Z" fill="#133DBD"/>
    <path d="M86.2 72.3H91.2C91.8 72.3 92.2 71.9 92.2 71.3V63.3C92.2 62.7 91.8 62.3 91.2 62.3H86.2C85.6 62.3 85.2 62.7 85.2 63.3V71.3C85.2 71.9 85.7 72.3 86.2 72.3ZM87.2 64.3H90.2V70.3H87.2V64.3Z" fill="#133DBD"/>
    <path d="M96.2 72.3H101.2C101.8 72.3 102.2 71.9 102.2 71.3V63.3C102.2 62.7 101.8 62.3 101.2 62.3H96.2C95.6 62.3 95.2 62.7 95.2 63.3V71.3C95.2 71.9 95.7 72.3 96.2 72.3ZM97.2 64.3H100.2V70.3H97.2V64.3Z" fill="#133DBD"/>
    <path d="M86.2 86.8H91.2C91.8 86.8 92.2 86.4 92.2 85.8V77.8C92.2 77.2 91.8 76.8 91.2 76.8H86.2C85.6 76.8 85.2 77.2 85.2 77.8V85.8C85.2 86.4 85.7 86.8 86.2 86.8ZM87.2 78.8H90.2V84.8H87.2V78.8Z" fill="#133DBD"/>
    <path d="M134.7 37H121.9V14.8H124C124.6 14.8 125 14.4 125 13.8V8C125 7.4 124.6 7 124 7H82.7C82.1 7 81.7 7.4 81.7 8V13.8C81.7 14.4 82.1 14.8 82.7 14.8H84.8V37H72C71.4 37 71 37.4 71 38V43.8C71 44.4 71.4 44.8 72 44.8H76.7V98.8C76.7 99.3 77.1 99.8 77.7 99.8H129C129.5 99.8 130 99.4 130 98.8V44.8H134.7C135.3 44.8 135.7 44.4 135.7 43.8V38C135.7 37.4 135.3 37 134.7 37ZM83.7 9H123V12.8H83.7V9ZM86.6 14.8H120.1V37H86.6V14.8ZM104.5 79H110V97H104.5V79ZM102.5 97H97V79H102.5V97ZM128 97.8H112V78C112 77.4 111.6 77 111 77H96C95.4 77 95 77.4 95 78V97.8H78.7V44.8H128V97.8ZM133.7 42.8H73V39H133.7V42.8Z" fill="#133DBD"/>
    <rect x="16" y="96" width="46" height="3" fill="white" stroke="#133DBD" stroke-width="2" stroke-linejoin="round"/>
    <path d="M28.3 59.435L30.7 55.8381L32.5 53.0405H22.5L17.9 67.0284H23.4L28.3 59.435Z" fill="#315ED1"/>
    <path d="M47.3 55.8381L49.6 59.435L54.6 67.0284H60L55.5 53.0405H45.5L47.3 55.8381Z" fill="#315ED1"/>
    <path d="M24.5 68.4272H22.5L23.4 67.0284H17.9V96.0034H24.5V68.4272Z" fill="white"/>
    <path d="M54.6 67.0284L55.5 68.4272H53.5V96.0034H60V67.0284H54.6Z" fill="white"/>
    <path d="M61 66.8287C61 66.7287 61 66.7287 61 66.8287V66.6288L56.5 52.7408C56.4 52.3411 56 52.0414 55.5 52.0414H46L39.8 42.5496C39.4 41.9501 38.5 41.9501 38.1 42.5496L31.9 52.0414H22.5C22.1 52.0414 21.7 52.3411 21.5 52.7408L17 66.6288V66.7287V66.8287C17 66.9286 17 66.9286 17 67.0285V96.0035C17 96.603 17.4 97.0026 18 97.0026H23.6V98.0018C23.6 98.6013 24 99.0009 24.6 99.0009H53.6C54.2 99.0009 54.6 98.6013 54.6 98.0018V97.0026H60.2C60.8 97.0026 61.2 96.603 61.2 96.0035V67.0285C61 66.9286 61 66.8287 61 66.8287ZM57 61.0337H51.9L49.9 58.0362H56.1L57 61.0337ZM55.1 66.0293L53.2 63.0319H57.7L58.7 66.0293H55.1ZM54.8 54.0397L55.4 56.038H48.6L48.1 55.2386L47.3 54.0397H54.8ZM20.3 63.0319H24.8L22.9 66.0293H19.3L20.3 63.0319ZM21.9 58.0362H28.1L26.1 61.1336C25.9 61.0337 25.8 61.0337 25.7 61.0337H20.9L21.9 58.0362ZM30.6 54.0397L29.3 56.038C29.2 56.038 29.1 55.938 29 55.938H22.5L23.1 53.9398H30.6V54.0397ZM18.9 95.0044V68.0276H21.5C21.5 68.1275 21.4 68.2275 21.4 68.4273C21.4 68.4273 21.4 68.4273 21.4 68.5272C21.4 68.6271 21.4 68.8269 21.5 68.9268C21.7 69.2266 22 69.4264 22.4 69.4264H23.4V95.0044H18.9ZM52.5 97.0026H25.5V96.0035V68.4273C25.5 67.8278 25.1 67.4281 24.5 67.4281H24.3L29.1 60.0345L33.3 53.64L39 44.9475L53.7 67.5281H53.5C52.9 67.5281 52.5 67.9277 52.5 68.5272V96.0035V97.0026ZM54.5 95.0044V69.4264H55.5C55.9 69.4264 56.2 69.2266 56.4 68.9268C56.5 68.8269 56.5 68.6271 56.5 68.5272C56.5 68.5272 56.5 68.5272 56.5 68.4273C56.5 68.3274 56.5 68.1275 56.4 68.0276H59V95.0044H54.5Z" fill="#133DBD"/>
    <path d="M55.5 68.4272L49.6 59.4349L47.3 55.838L39 43.0491L30.7 55.838L28.3 59.4349L22.5 68.4272H24.5V98.0017H53.5V68.4272H55.5Z" fill="white"/>
    <path d="M55.5 68.4272L49.6 59.4349L47.3 55.838L39 43.0491L30.7 55.838L28.3 59.4349L22.5 68.4272H24.5V98.0017H53.5V68.4272H55.5Z" fill="white"/>
    <path d="M53.5 99.0009H24.5C23.9 99.0009 23.5 98.6012 23.5 98.0017V69.4264H22.5C22.1 69.4264 21.8 69.2265 21.6 68.9268C21.4 68.627 21.4 68.2274 21.6 67.9276L38.1 42.4496C38.5 41.8501 39.4 41.8501 39.8 42.4496L56.3 67.8277C56.5 68.1275 56.5 68.5271 56.3 68.8269C56.1 69.1266 55.8 69.3264 55.4 69.3264H54.4V98.0017C54.5 98.5013 54 99.0009 53.5 99.0009ZM25.5 97.0026H52.5V68.4272C52.5 67.8277 52.9 67.4281 53.5 67.4281H53.7L39 44.8475L24.3 67.4281H24.5C25.1 67.4281 25.5 67.8277 25.5 68.4272V97.0026Z" fill="#133DBD"/>
    <path d="M44.8999 73.0233H32.8999V93.006H44.8999V73.0233Z" fill="#C4D3E4"/>
    <path d="M44.8999 94.0052H32.8999C32.2999 94.0052 31.8999 93.6055 31.8999 93.006V73.0232C31.8999 72.4238 32.2999 72.0241 32.8999 72.0241H44.8999C45.4999 72.0241 45.8999 72.4238 45.8999 73.0232V93.006C45.8999 93.5056 45.4999 94.0052 44.8999 94.0052ZM33.8999 92.0069H43.8999V74.0224H33.8999V92.0069Z" fill="#133DBD"/>
    <path d="M39 66.0293C41.2091 66.0293 43 64.24 43 62.0327C43 59.8255 41.2091 58.0362 39 58.0362C36.7909 58.0362 35 59.8255 35 62.0327C35 64.24 36.7909 66.0293 39 66.0293Z" fill="#EBF0F6"/>
    <path d="M39 67.0284C36.2 67.0284 34 64.8303 34 62.0327C34 59.2352 36.2 57.037 39 57.037C41.8 57.037 44 59.2352 44 62.0327C44 64.8303 41.8 67.0284 39 67.0284ZM39 59.0353C37.3 59.0353 36 60.3342 36 62.0327C36 63.7313 37.3 65.0302 39 65.0302C40.7 65.0302 42 63.7313 42 62.0327C42 60.3342 40.7 59.0353 39 59.0353Z" fill="#133DBD"/>
    <path d="M45.7 93.006H32.2V96.0035H45.7V93.006Z" fill="white"/>
    <path d="M45.7 97.0026H32.2C31.6 97.0026 31.2 96.6029 31.2 96.0035V93.006C31.2 92.4066 31.6 92.0069 32.2 92.0069H45.7C46.3 92.0069 46.7 92.4066 46.7 93.006V96.0035C46.7 96.503 46.2 97.0026 45.7 97.0026ZM33.2 95.0043H44.7V94.0052H33.2V95.0043Z" fill="#133DBD"/>
    <path d="M47.9999 96.0035H29.7999V99.0009H47.9999V96.0035Z" fill="white"/>
    <path d="M47.9999 100H29.7999C29.1999 100 28.7999 99.6004 28.7999 99.0009V96.0035C28.7999 95.404 29.1999 95.0043 29.7999 95.0043H47.9999C48.5999 95.0043 48.9999 95.404 48.9999 96.0035V99.0009C48.9999 99.5005 48.5999 100 47.9999 100ZM30.7999 98.0017H46.9999V97.0026H30.7999V98.0017Z" fill="#133DBD"/>
    <path d="M158.18 81.09C158.18 74.97 153.2 70 147.09 70C140.98 70 136 74.98 136 81.09C136 86.87 140.44 91.63 146.09 92.13V97.8C146.09 98.35 146.54 98.8 147.09 98.8C147.64 98.8 148.09 98.35 148.09 97.8V92.13C153.74 91.62 158.18 86.86 158.18 81.09ZM148.09 90.12V81.4C148.09 80.85 147.64 80.4 147.09 80.4C146.54 80.4 146.09 80.85 146.09 81.4V90.12C141.54 89.62 138 85.76 138 81.08C138 76.07 142.08 71.99 147.09 71.99C152.1 71.99 156.18 76.07 156.18 81.08C156.18 85.76 152.64 89.62 148.09 90.12Z" fill="#133DBD"/>
</svg>
