<svg width="173" height="100" viewBox="0 0 173 100" xmlns="http://www.w3.org/2000/svg">
    <rect y="98" width="173" height="2" fill="#133DBD"/>
    <rect x="40" y="96" width="97" height="3" fill="white" stroke="#133DBD" stroke-width="2" stroke-linejoin="round"/>
    <path d="M135.48 66.7204H41.3497V95.9762H135.48V66.7204Z" fill="white"/>
    <path d="M65.1998 49.7478H70.6998L64.7598 42.4161L62.3398 39.4412L53.8498 28.9833L45.3598 39.4412L42.9498 42.4161L36.9998 49.7478H42.5098H65.1998Z" fill="white"/>
    <path d="M61.4797 53.6102H45.4797V62.6865H61.4797V53.6102Z" fill="white"/>
    <path d="M135.48 96.9847H41.3497C40.7997 96.9847 40.3497 96.5309 40.3497 95.9762V66.7204C40.3497 66.1657 40.7997 65.7119 41.3497 65.7119H135.48C136.03 65.7119 136.48 66.1657 136.48 66.7204V95.9762C136.48 96.541 136.04 96.9847 135.48 96.9847ZM42.3497 94.9677H134.48V67.7289H42.3497V94.9677Z" fill="#133DBD"/>
    <path d="M125.32 52.6017H51.5197L41.3497 66.7305H135.48L125.32 52.6017Z" fill="#315ED1"/>
    <path d="M104.92 68.1322L99.0897 59.0862L96.7297 55.4153L88.4197 42.517L80.1097 55.4153L77.7397 59.0862L71.9197 68.1322H73.9197V97.983H102.92V68.1322H104.92Z" fill="white"/>
    <path d="M94.3798 72.7712H82.3798V92.9407H94.3798V72.7712Z" fill="#C4D3E4"/>
    <path d="M95.1196 92.9407H81.6396V95.9661H95.1196V92.9407Z" fill="white"/>
    <path d="M80.4197 63.6949C80.4197 64.0479 80.4497 64.421 80.5097 64.8446C80.5797 65.3387 80.9997 65.7119 81.4997 65.7119H95.3397C95.8397 65.7119 96.2597 65.3387 96.3297 64.8446C96.3897 64.4109 96.4197 64.0479 96.4197 63.6949C96.4197 59.2476 92.8297 55.6271 88.4197 55.6271C84.0097 55.6271 80.4197 59.2476 80.4197 63.6949ZM94.4197 63.6949H82.4197C82.4197 60.3569 85.1097 57.6441 88.4197 57.6441C91.7297 57.6441 94.4197 60.3569 94.4197 63.6949Z" fill="#133DBD"/>
    <path d="M69.5997 74.7881H59.5997C59.0497 74.7881 58.5997 75.242 58.5997 75.7966V79.8305V88.9068C58.5997 89.4614 59.0497 89.9153 59.5997 89.9153H69.5997C70.1497 89.9153 70.5997 89.4614 70.5997 88.9068V79.8305V75.7966C70.5997 75.242 70.1597 74.7881 69.5997 74.7881ZM68.5997 87.8983H60.5997V80.839H68.5997V87.8983ZM68.5997 78.822H60.5997V76.8051H68.5997V78.822Z" fill="#133DBD"/>
    <path d="M55.4797 74.7881H45.4797C44.9297 74.7881 44.4797 75.242 44.4797 75.7966V79.8305V88.9068C44.4797 89.4614 44.9297 89.9153 45.4797 89.9153H55.4797C56.0297 89.9153 56.4797 89.4614 56.4797 88.9068V79.8305V75.7966C56.4797 75.242 56.0397 74.7881 55.4797 74.7881ZM54.4797 87.8983H46.4797V80.839H54.4797V87.8983ZM54.4797 78.822H46.4797V76.8051H54.4797V78.822Z" fill="#133DBD"/>
    <path d="M116.6 74.7881H106.6C106.05 74.7881 105.6 75.242 105.6 75.7966V79.8305V88.9068C105.6 89.4614 106.05 89.9153 106.6 89.9153H116.6C117.15 89.9153 117.6 89.4614 117.6 88.9068V79.8305V75.7966C117.6 75.242 117.16 74.7881 116.6 74.7881ZM115.6 87.8983H107.6V80.839H115.6V87.8983ZM115.6 78.822H107.6V76.8051H115.6V78.822Z" fill="#133DBD"/>
    <path d="M130.48 74.7881H120.48C119.93 74.7881 119.48 75.242 119.48 75.7966V79.8305V88.9068C119.48 89.4614 119.93 89.9153 120.48 89.9153H130.48C131.03 89.9153 131.48 89.4614 131.48 88.9068V79.8305V75.7966C131.48 75.242 131.04 74.7881 130.48 74.7881ZM129.48 87.8983H121.48V80.839H129.48V87.8983ZM129.48 78.822H121.48V76.8051H129.48V78.822Z" fill="#133DBD"/>
    <path d="M66.3497 45.5424H41.3497V66.7204H66.3497V45.5424Z" fill="white"/>
    <path d="M53.8497 44.5339C55.5066 44.5339 56.8497 43.1794 56.8497 41.5085C56.8497 39.8376 55.5066 38.4831 53.8497 38.4831C52.1929 38.4831 50.8497 39.8376 50.8497 41.5085C50.8497 43.1794 52.1929 44.5339 53.8497 44.5339Z" fill="#C4D3E4"/>
    <path d="M71.4797 49.1124L54.6297 28.3479C54.2497 27.884 53.4597 27.884 53.0797 28.3479L36.2297 49.1124C35.9797 49.4149 35.9297 49.8284 36.0997 50.1814C36.2597 50.5344 36.6097 50.7562 36.9997 50.7562H40.3497V66.7204C40.3497 67.275 40.7997 67.7288 41.3497 67.7288H66.3497C66.8997 67.7288 67.3497 67.275 67.3497 66.7204V50.7562H70.6997C71.0897 50.7562 71.4397 50.5344 71.5997 50.1814C71.7697 49.8284 71.7197 49.4149 71.4797 49.1124ZM65.1997 48.7393C64.6497 48.7393 64.1997 49.1931 64.1997 49.7477C64.1997 50.3024 64.6497 50.7562 65.1997 50.7562H65.3497V65.7119H42.3497V50.7562H42.4997C43.0497 50.7562 43.4997 50.3024 43.4997 49.7477C43.4997 49.1931 43.0497 48.7393 42.4997 48.7393H39.0997L53.8397 30.5767L68.5897 48.7393H65.1997Z" fill="#133DBD"/>
    <path d="M49.8497 41.5085C49.8497 43.7372 51.6397 45.5424 53.8497 45.5424C56.0597 45.5424 57.8497 43.7372 57.8497 41.5085C57.8497 39.2798 56.0597 37.4746 53.8497 37.4746C51.6397 37.4746 49.8497 39.2798 49.8497 41.5085ZM55.8497 41.5085C55.8497 42.6178 54.9497 43.5255 53.8497 43.5255C52.7497 43.5255 51.8497 42.6178 51.8497 41.5085C51.8497 40.3992 52.7497 39.4916 53.8497 39.4916C54.9497 39.4916 55.8497 40.3992 55.8497 41.5085Z" fill="#133DBD"/>
    <path d="M44.4797 53.6102V62.6865C44.4797 63.2411 44.9297 63.695 45.4797 63.695H61.4797C62.0297 63.695 62.4797 63.2411 62.4797 62.6865V53.6102C62.4797 53.0556 62.0297 52.6017 61.4797 52.6017H45.4797C44.9297 52.6017 44.4797 53.0556 44.4797 53.6102ZM46.4797 54.6187H60.4797V61.678H46.4797V54.6187Z" fill="#133DBD"/>
    <path d="M126.19 63.6244L122.94 57.5937L121.62 55.1532L116.98 46.5509L112.35 55.1532L111.03 57.5937L107.78 63.6244H110.79L110.57 69.0903H123.4L123.18 63.6244H126.19Z" fill="white"/>
    <path d="M119.48 59.5098H114.48V65.0665H119.48V59.5098Z" fill="white"/>
    <path d="M127.07 63.1403L117.86 46.0668C117.51 45.4214 116.45 45.4214 116.1 46.0668L106.89 63.1403C106.72 63.4529 106.73 63.8361 106.91 64.1387C107.09 64.4412 107.42 64.6328 107.77 64.6328H109.74L109.56 69.0499C109.55 69.3222 109.65 69.5945 109.84 69.7861C110.03 69.9878 110.29 70.0988 110.56 70.0988H123.39C123.66 70.0988 123.92 69.9878 124.11 69.7861C124.3 69.5844 124.4 69.3222 124.39 69.0499L124.21 64.6328H126.18C126.53 64.6328 126.86 64.4412 127.04 64.1387C127.23 63.8361 127.24 63.4529 127.07 63.1403ZM123.18 62.6159C122.91 62.6159 122.65 62.7268 122.46 62.9285C122.27 63.1302 122.17 63.3924 122.18 63.6647L122.36 68.0818H111.61L111.79 63.6647C111.8 63.3924 111.7 63.1201 111.51 62.9285C111.32 62.7268 111.06 62.6159 110.79 62.6159H109.46L116.98 48.6687L124.5 62.6159H123.18Z" fill="#133DBD"/>
    <path d="M113.48 59.5098V65.0665C113.48 65.6212 113.93 66.075 114.48 66.075H119.48C120.03 66.075 120.48 65.6212 120.48 65.0665V59.5098C120.48 58.9552 120.03 58.5013 119.48 58.5013H114.48C113.93 58.5013 113.48 58.9552 113.48 59.5098ZM115.48 60.5183H118.48V64.058H115.48V60.5183Z" fill="#133DBD"/>
    <path d="M97.4798 95.9661H79.2698V98.9915H97.4798V95.9661Z" fill="white"/>
    <path d="M97.4798 94.9577H96.1098V92.9407C96.1098 92.4768 95.7898 92.1037 95.3698 91.9827V72.7712C95.3698 72.2166 94.9198 71.7628 94.3698 71.7628H82.3698C81.8198 71.7628 81.3698 72.2166 81.3698 72.7712V91.9827C80.9498 92.1037 80.6298 92.4768 80.6298 92.9407V94.9577H79.2598C78.7098 94.9577 78.2598 95.4115 78.2598 95.9661V98.9916C78.2598 99.5462 78.7098 100 79.2598 100H97.4698C98.0198 100 98.4698 99.5462 98.4698 98.9916V95.9661C98.4798 95.4115 98.0398 94.9577 97.4798 94.9577ZM83.3798 73.7797H93.3798V91.9322H83.3798V73.7797ZM82.6398 93.9492H94.1198V94.9577H82.6398V93.9492ZM96.4798 97.9831H80.2698V96.9746H81.6398H95.1198H96.4898V97.9831H96.4798Z" fill="#133DBD"/>
    <path d="M136.29 66.1455L126.13 52.0067C125.94 51.7445 125.64 51.5932 125.32 51.5932H119.49L120.6 53.6101H124.81L126.26 55.6271H121.71L122.82 57.644H127.7L129.88 60.6695H124.48L125.59 62.6864H131.09C131.17 62.6864 131.23 62.6562 131.3 62.6461L133.52 65.7219H123.26L123.34 67.7389H135.48C135.86 67.7389 136.2 67.5271 136.37 67.1842C136.54 66.8413 136.51 66.448 136.29 66.1455Z" fill="#133DBD"/>
    <path d="M89.2597 41.9724C89.0797 41.69 88.7597 41.5085 88.4197 41.5085C88.0797 41.5085 87.7697 41.6799 87.5797 41.9724L81.3797 51.5932H66.3497V53.6102H80.0797L78.7797 55.6271H66.3497V57.6441H77.4797L75.5297 60.6695H66.3497V62.6864H74.2297L72.2697 65.7219H66.3497V66.7203H41.3497L41.3597 64.9958L40.5397 66.1455C40.3197 66.448 40.2897 66.8615 40.4597 67.1943C40.6297 67.5271 40.9697 67.749 41.3497 67.749H70.9997C70.8797 68.0313 70.8897 68.344 71.0297 68.6163C71.1997 68.939 71.5397 69.1407 71.9097 69.1407H72.9097V97.983C72.9097 98.5377 73.3597 98.9915 73.9097 98.9915H102.91C103.46 98.9915 103.91 98.5377 103.91 97.983V69.1407H104.91C105.28 69.1407 105.61 68.939 105.79 68.6163C105.94 68.344 105.94 68.0213 105.82 67.749H110.49L110.4 65.732H104.55L102.59 62.6965H108.46L109.55 60.6796H101.29L99.3397 57.6542H111.18L112.27 55.6372H98.0597L96.7597 53.6203H113.38L114.47 51.6033H95.4597L89.2597 41.9724ZM101.98 67.6481C101.98 68.0616 101.92 69.1104 101.92 69.2516V96.9746H74.9197V69.3323C74.9197 69.1911 74.8897 68.1019 74.8797 67.7086C74.8597 67.1136 73.7497 67.154 73.7497 67.154L88.4297 44.3726L103.21 67.1842C103.2 67.1842 101.98 66.922 101.98 67.6481Z" fill="#133DBD"/>
    <path d="M96.8097 96.7426H80.0697V98.2654H96.8097V96.7426Z" fill="white"/>
    <path d="M23 86C20.1 86 17.62 87.76 16.55 90.27C16.06 90.11 15.54 90 15 90C12.24 90 10 92.24 10 95C10 96.64 10.8 98.09 12.03 99H17.98C18.21 98.83 18.42 98.65 18.62 98.45C18.87 98.65 19.14 98.84 19.42 99H26.6C28.64 97.78 30.01 95.55 30.01 93C30 89.14 26.87 86 23 86Z" fill="white"/>
    <path d="M23 85C20.07 85 17.43 86.59 16.03 89.11C15.68 89.04 15.34 89 15 89C11.69 89 9 91.69 9 95C9 96.9 9.88999 98.65 11.43 99.8L11.7 100H18.31L18.58 99.8C18.62 99.77 18.65 99.74 18.69 99.72C18.76 99.77 18.83 99.81 18.91 99.86L19.15 100H26.89L27.13 99.86C29.57 98.4 31.02 95.83 31.02 93C31 88.59 27.41 85 23 85ZM12.38 98C11.5 97.24 11 96.16 11 95C11 92.79 12.79 91 15 91C15.08 91 15.17 91 15.25 91.01C15.24 91.06 15.23 91.11 15.22 91.17C15.17 91.38 15.13 91.59 15.1 91.81C15.09 91.9 15.07 91.99 15.06 92.09C15.03 92.39 15 92.7 15 93.01C15 93.28 15.02 93.55 15.05 93.82C15.06 93.9 15.07 93.98 15.08 94.06C15.11 94.26 15.14 94.45 15.18 94.64C15.2 94.72 15.21 94.8 15.23 94.88C15.29 95.11 15.35 95.34 15.43 95.56C15.44 95.59 15.45 95.62 15.46 95.65C15.55 95.9 15.65 96.14 15.76 96.38C15.79 96.45 15.83 96.52 15.86 96.58C15.95 96.75 16.04 96.92 16.14 97.09C16.18 97.16 16.23 97.24 16.27 97.31C16.39 97.49 16.51 97.67 16.64 97.84C16.67 97.88 16.7 97.92 16.73 97.96C16.74 97.97 16.74 97.98 16.75 97.99H12.38V98ZM26.31 98H19.7C19.54 97.9 19.39 97.79 19.24 97.67C17.82 96.52 17 94.82 17 93C17 92.19 17.16 91.4 17.47 90.66C18.41 88.44 20.58 87 23 87C26.31 87 29 89.69 29 93C29 95.04 28 96.89 26.31 98Z" fill="#133DBD"/>
    <path d="M155 86C152.1 86 149.6 87.8 148.6 90.3C148.2 91.1 148 92 148 93C148 95.2 149 97.2 150.6 98.4C150.9 98.6 151.1 98.8 151.4 99H158.6C160.6 97.8 162 95.6 162 93C162 89.1 158.9 86 155 86Z" fill="#EBF0F6"/>
    <path fill-rule="evenodd" clip-rule="evenodd" d="M147.687 89.8903C148.845 87.0392 151.697 85 155 85C159.452 85 163 88.5477 163 93C163 95.973 161.397 98.4883 159.114 99.8575L158.877 100H151.097L150.845 99.8321C150.659 99.7078 150.505 99.5848 150.384 99.488L150.375 99.4809C150.248 99.3788 150.154 99.3047 150.045 99.232L150.022 99.2167L150 99.2C148.135 97.8015 147 95.4984 147 93C147 91.8782 147.222 90.835 147.687 89.8903ZM155 87C152.518 87 150.38 88.5425 149.528 90.6714L149.513 90.71L149.494 90.7472C149.172 91.3927 149 92.1367 149 93C149 94.8922 149.856 96.5817 151.18 97.5851C151.355 97.7035 151.5 97.8196 151.616 97.912L151.625 97.9191C151.661 97.9481 151.694 97.9749 151.726 98H158.311C159.907 96.9435 161 95.1279 161 93C161 89.6523 158.348 87 155 87Z" fill="#133DBD"/>
</svg>
