<svg width="173" height="100" viewBox="0 0 173 100" xmlns="http://www.w3.org/2000/svg">
    <rect y="98" width="173" height="2" fill="#133DBD"/>
    <path d="M55.7 6.5C53.5 2.6 49.4 0 44.6 0C40.1 0 36.1 2.3 33.9 5.9C33.7 5.9 33.4 5.9 33.2 5.9C30 5.9 27.4 8.3 26.9 11.3C23.5 11.9 21 14.8 21 18.4C21 22.3 24.1 25.4 27.9 25.6H44.9C47.6 25.5 50 24.7 52.1 23.2C52.8 23.4 53.5 23.5 54.2 23.5C58.9 23.5 62.7 19.7 62.7 15C62.6 10.7 59.6 7.2 55.7 6.5Z" fill="#C4D3E4"/>
    <path d="M149.3 49.3C152.7 49 155.4 46 155.4 42.5C155.4 38.9 152.5 35.9 149 35.7C149 35.3 149.1 34.9 149.1 34.5C149.1 28.7 144.4 24 138.6 24C134.4 24 130.8 26.4 129.1 30C128.6 30 128.1 30 127.7 30C124.2 30 121.3 32.7 121 36.1C118.2 36.9 116.2 39.5 116.2 42.6C116.2 46.3 119.2 49.3 122.8 49.4H149.3V49.3Z" fill="#C4D3E4"/>
    <g clip-path="url(#clip0_1_6226)">
        <path d="M69 38.009H43V99.009H69V38.009Z" fill="white"/>
        <path d="M69 100.009H43C42.4 100.009 42 99.609 42 99.009V38.009C42 37.409 42.4 37.009 43 37.009H69C69.6 37.009 70 37.409 70 38.009V99.009C70 99.609 69.6 100.009 69 100.009ZM44 98.009H68V39.009H44V98.009Z" fill="#133DBD"/>
        <path d="M99.2 99.009H73.2V7.00903L99.2 27.009V99.009Z" fill="white"/>
        <path d="M99.2 100.009H73.2C72.6 100.009 72.2 99.609 72.2 99.009V7.00902C72.2 6.60902 72.3999 6.30902 72.7999 6.10902C73.0999 5.90902 73.5 6.00902 73.9 6.20902L99.9 26.209C100.1 26.409 100.3 26.709 100.3 27.009V99.009C100.2 99.609 99.8 100.009 99.2 100.009ZM74.2 98.009H98.2V27.509L74.2 9.00902V98.009Z" fill="#133DBD"/>
        <path d="M129.2 99.009H103.2V56.009L129.2 25.009V99.009Z" fill="white"/>
        <path d="M129.2 100.009H103.2C102.6 100.009 102.2 99.609 102.2 99.009V56.009C102.2 55.809 102.3 55.509 102.4 55.409L128.4 24.409C128.7 24.109 129.1 24.009 129.5 24.109C129.9 24.209 130.2 24.609 130.2 25.009V99.009C130.2 99.609 129.8 100.009 129.2 100.009ZM104.2 98.009H128.2V27.809L104.2 56.409V98.009Z" fill="#133DBD"/>
        <path d="M49.2 44.009H47.2V50.009H49.2V44.009Z" fill="#133DBD"/>
        <path d="M54.2 44.009H52.2V50.009H54.2V44.009Z" fill="#133DBD"/>
        <path d="M59.2 44.009H57.2V50.009H59.2V44.009Z" fill="#133DBD"/>
        <path d="M64.2 44.009H62.2V50.009H64.2V44.009Z" fill="#133DBD"/>
        <path d="M49.2 53.009H47.2V59.009H49.2V53.009Z" fill="#133DBD"/>
        <path d="M54.2 53.009H52.2V59.009H54.2V53.009Z" fill="#133DBD"/>
        <path d="M59.2 53.009H57.2V59.009H59.2V53.009Z" fill="#133DBD"/>
        <path d="M64.2 53.009H62.2V59.009H64.2V53.009Z" fill="#133DBD"/>
        <path d="M49.2 62.009H47.2V68.009H49.2V62.009Z" fill="#133DBD"/>
        <path d="M54.2 62.009H52.2V68.009H54.2V62.009Z" fill="#133DBD"/>
        <path d="M59.2 62.009H57.2V68.009H59.2V62.009Z" fill="#133DBD"/>
        <path d="M64.2 62.009H62.2V68.009H64.2V62.009Z" fill="#133DBD"/>
        <path d="M49.2 71.009H47.2V77.009H49.2V71.009Z" fill="#133DBD"/>
        <path d="M54.2 71.009H52.2V77.009H54.2V71.009Z" fill="#133DBD"/>
        <path d="M59.2 71.009H57.2V77.009H59.2V71.009Z" fill="#133DBD"/>
        <path d="M64.2 71.009H62.2V77.009H64.2V71.009Z" fill="#133DBD"/>
        <path d="M49.2 80.009H47.2V86.009H49.2V80.009Z" fill="#133DBD"/>
        <path d="M54.2 80.009H52.2V86.009H54.2V80.009Z" fill="#133DBD"/>
        <path d="M59.2 80.009H57.2V86.009H59.2V80.009Z" fill="#133DBD"/>
        <path d="M64.2 80.009H62.2V86.009H64.2V80.009Z" fill="#133DBD"/>
        <path d="M49.2 89.009H47.2V95.009H49.2V89.009Z" fill="#133DBD"/>
        <path d="M54.2 89.009H52.2V95.009H54.2V89.009Z" fill="#133DBD"/>
        <path d="M59.2 89.009H57.2V95.009H59.2V89.009Z" fill="#133DBD"/>
        <path d="M64.2 89.009H62.2V95.009H64.2V89.009Z" fill="#133DBD"/>
        <path d="M79.2 46.009H77.2V51.809H79.2V46.009Z" fill="#133DBD"/>
        <path d="M84.2 46.009H82.2V51.809H84.2V46.009Z" fill="#133DBD"/>
        <path d="M89.2 46.009H87.2V51.809H89.2V46.009Z" fill="#133DBD"/>
        <path d="M94.2 46.009H92.2V51.809H94.2V46.009Z" fill="#133DBD"/>
        <path d="M79.2 37.309H77.2V43.109H79.2V37.309Z" fill="#133DBD"/>
        <path d="M84.2 37.309H82.2V43.109H84.2V37.309Z" fill="#133DBD"/>
        <path d="M89.2 37.309H87.2V43.109H89.2V37.309Z" fill="#133DBD"/>
        <path d="M94.2 37.309H92.2V43.109H94.2V37.309Z" fill="#133DBD"/>
        <path d="M79.2 28.709H77.2V34.509H79.2V28.709Z" fill="#133DBD"/>
        <path d="M84.2 28.709H82.2V34.509H84.2V28.709Z" fill="#133DBD"/>
        <path d="M89.2 28.709H87.2V34.509H89.2V28.709Z" fill="#133DBD"/>
        <path d="M94.2 28.709H92.2V34.509H94.2V28.709Z" fill="#133DBD"/>
        <path d="M79.2 20.009H77.2V25.809H79.2V20.009Z" fill="#133DBD"/>
        <path d="M84.2 20.009H82.2V25.809H84.2V20.009Z" fill="#133DBD"/>
        <path d="M79.2 54.609H77.2V60.409H79.2V54.609Z" fill="#133DBD"/>
        <path d="M84.2 54.609H82.2V60.409H84.2V54.609Z" fill="#133DBD"/>
        <path d="M89.2 54.609H87.2V60.409H89.2V54.609Z" fill="#133DBD"/>
        <path d="M94.2 54.609H92.2V60.409H94.2V54.609Z" fill="#133DBD"/>
        <path d="M79.2 63.309H77.2V69.109H79.2V63.309Z" fill="#133DBD"/>
        <path d="M84.2 63.309H82.2V69.109H84.2V63.309Z" fill="#133DBD"/>
        <path d="M89.2 63.309H87.2V69.109H89.2V63.309Z" fill="#133DBD"/>
        <path d="M94.2 63.309H92.2V69.109H94.2V63.309Z" fill="#133DBD"/>
        <path d="M79.2 72.009H77.2V77.809H79.2V72.009Z" fill="#133DBD"/>
        <path d="M84.2 72.009H82.2V77.809H84.2V72.009Z" fill="#133DBD"/>
        <path d="M89.2 72.009H87.2V77.809H89.2V72.009Z" fill="#133DBD"/>
        <path d="M94.2 72.009H92.2V77.809H94.2V72.009Z" fill="#133DBD"/>
        <path d="M79.2 80.609H77.2V86.409H79.2V80.609Z" fill="#133DBD"/>
        <path d="M84.2 80.609H82.2V86.409H84.2V80.609Z" fill="#133DBD"/>
        <path d="M89.2 80.609H87.2V86.409H89.2V80.609Z" fill="#133DBD"/>
        <path d="M94.2 80.609H92.2V86.409H94.2V80.609Z" fill="#133DBD"/>
        <path d="M79.2 89.309H77.2V95.109H79.2V89.309Z" fill="#133DBD"/>
        <path d="M84.2 89.309H82.2V95.109H84.2V89.309Z" fill="#133DBD"/>
        <path d="M89.2 89.309H87.2V95.109H89.2V89.309Z" fill="#133DBD"/>
        <path d="M94.2 89.309H92.2V95.109H94.2V89.309Z" fill="#133DBD"/>
        <path d="M119.2 46.009H117.2V51.809H119.2V46.009Z" fill="#133DBD"/>
        <path d="M124.2 46.009H122.2V51.809H124.2V46.009Z" fill="#133DBD"/>
        <path d="M124.2 37.309H122.2V43.109H124.2V37.309Z" fill="#133DBD"/>
        <path d="M109.2 54.609H107.2V60.409H109.2V54.609Z" fill="#133DBD"/>
        <path d="M114.2 54.609H112.2V60.409H114.2V54.609Z" fill="#133DBD"/>
        <path d="M119.2 54.609H117.2V60.409H119.2V54.609Z" fill="#133DBD"/>
        <path d="M124.2 54.609H122.2V60.409H124.2V54.609Z" fill="#133DBD"/>
        <path d="M109.2 63.309H107.2V69.109H109.2V63.309Z" fill="#133DBD"/>
        <path d="M114.2 63.309H112.2V69.109H114.2V63.309Z" fill="#133DBD"/>
        <path d="M119.2 63.309H117.2V69.109H119.2V63.309Z" fill="#133DBD"/>
        <path d="M124.2 63.309H122.2V69.109H124.2V63.309Z" fill="#133DBD"/>
        <path d="M109.2 72.009H107.2V77.809H109.2V72.009Z" fill="#133DBD"/>
        <path d="M114.2 72.009H112.2V77.809H114.2V72.009Z" fill="#133DBD"/>
        <path d="M119.2 72.009H117.2V77.809H119.2V72.009Z" fill="#133DBD"/>
        <path d="M124.2 72.009H122.2V77.809H124.2V72.009Z" fill="#133DBD"/>
        <path d="M109.2 80.609H107.2V86.409H109.2V80.609Z" fill="#133DBD"/>
        <path d="M114.2 80.609H112.2V86.409H114.2V80.609Z" fill="#133DBD"/>
        <path d="M119.2 80.609H117.2V86.409H119.2V80.609Z" fill="#133DBD"/>
        <path d="M124.2 80.609H122.2V86.409H124.2V80.609Z" fill="#133DBD"/>
        <path d="M109.2 89.309H107.2V95.109H109.2V89.309Z" fill="#133DBD"/>
        <path d="M114.2 89.309H112.2V95.109H114.2V89.309Z" fill="#133DBD"/>
        <path d="M119.2 89.309H117.2V95.109H119.2V89.309Z" fill="#133DBD"/>
        <path d="M124.2 89.309H122.2V95.109H124.2V89.309Z" fill="#133DBD"/>
    </g>
    <path d="M153 86C150.1 86 147.62 87.76 146.55 90.27C146.06 90.11 145.54 90 145 90C142.24 90 140 92.24 140 95C140 96.64 140.8 98.09 142.03 99H147.98C148.21 98.83 148.42 98.65 148.62 98.45C148.87 98.65 149.14 98.84 149.42 99H156.6C158.64 97.78 160.01 95.55 160.01 93C160 89.14 156.87 86 153 86Z" fill="white"/>
    <path d="M153 85C150.07 85 147.43 86.59 146.03 89.11C145.68 89.04 145.34 89 145 89C141.69 89 139 91.69 139 95C139 96.9 139.89 98.65 141.43 99.8L141.7 100H148.31L148.58 99.8C148.62 99.77 148.65 99.74 148.69 99.72C148.76 99.77 148.83 99.81 148.91 99.86L149.15 100H156.89L157.13 99.86C159.57 98.4 161.02 95.83 161.02 93C161 88.59 157.41 85 153 85ZM142.38 98C141.5 97.24 141 96.16 141 95C141 92.79 142.79 91 145 91C145.08 91 145.17 91 145.25 91.01C145.24 91.06 145.23 91.11 145.22 91.17C145.17 91.38 145.13 91.59 145.1 91.81C145.09 91.9 145.07 91.99 145.06 92.09C145.03 92.39 145 92.7 145 93.01C145 93.28 145.02 93.55 145.05 93.82C145.06 93.9 145.07 93.98 145.08 94.06C145.11 94.26 145.14 94.45 145.18 94.64C145.2 94.72 145.21 94.8 145.23 94.88C145.29 95.11 145.35 95.34 145.43 95.56C145.44 95.59 145.45 95.62 145.46 95.65C145.55 95.9 145.65 96.14 145.76 96.38C145.79 96.45 145.83 96.52 145.86 96.58C145.95 96.75 146.04 96.92 146.14 97.09C146.18 97.16 146.23 97.24 146.27 97.31C146.39 97.49 146.51 97.67 146.64 97.84C146.67 97.88 146.7 97.92 146.73 97.96C146.74 97.97 146.74 97.98 146.75 97.99H142.38V98ZM156.31 98H149.7C149.54 97.9 149.39 97.79 149.24 97.67C147.82 96.52 147 94.82 147 93C147 92.19 147.16 91.4 147.47 90.66C148.41 88.44 150.58 87 153 87C156.31 87 159 89.69 159 93C159 95.04 158 96.89 156.31 98Z" fill="#133DBD"/>
    <path d="M35.18 81.09C35.18 74.97 30.2 70 24.09 70C17.98 70 13 74.98 13 81.09C13 86.87 17.44 91.63 23.09 92.13V97.8C23.09 98.35 23.54 98.8 24.09 98.8C24.64 98.8 25.09 98.35 25.09 97.8V92.13C30.74 91.62 35.18 86.86 35.18 81.09ZM25.09 90.12V81.4C25.09 80.85 24.64 80.4 24.09 80.4C23.54 80.4 23.09 80.85 23.09 81.4V90.12C18.54 89.62 15 85.76 15 81.08C15 76.07 19.08 71.99 24.09 71.99C29.1 71.99 33.18 76.07 33.18 81.08C33.18 85.76 29.64 89.62 25.09 90.12Z" fill="#133DBD"/>
    <defs>
        <clipPath id="clip0_1_6226">
            <rect width="88" height="94" fill="white" transform="translate(42 6)"/>
        </clipPath>
    </defs>
</svg>
