<svg width="1141" height="395" viewBox="0 0 1141 395" fill="none" xmlns="http://www.w3.org/2000/svg">
<g opacity="0.7">
<rect x="1049.18" y="357.631" width="91.8193" height="31.2927" fill="#EBF0F6"/>
<rect x="961.734" y="317.397" width="91.8193" height="71.5262" fill="#EBF0F6"/>
<rect y="342.333" width="122.616" height="46.5898" fill="#EBF0F6"/>
<path d="M120.487 242.214V116.962H150.78V98.0288H183.404V116.962H190.574V296.325L215.221 265.516V175.668L243.989 139.706H330.935L373.317 186.87V21.1597H379.851L383.753 8.94067H458.754L463.089 21.1597H469.886V215.489H485.534L485.439 203.27L528.86 215.489H535.85V375.512L72.7178 375.383V264.06L90.1945 242.214H120.487Z" fill="#F7F9FB"/>
<path d="M507.513 153.967L508.14 141.033H537.991L537.692 153.967H542.594V14.6547L540.118 10.8047V0H647.697V10.8047L645.221 15.1359V123.673L690.008 90.9735L690.261 73.7487H749.792L750.807 47.8801H761.62L762.901 73.7487H782.661L798.245 93.1518L813.234 111.815V206.923L839.427 239.536V49.673H847.047V29.6315H881.717V49.673H889.146V182.256H897.195V142.278H913.291V182.256H917.006V151.332H929.388V182.256H938.055L938.552 130.519H947.342L947.044 195.761L964.677 196.328V323.221L497.256 323.358V153.967H507.513Z" fill="#F7F9FB"/>
<path fill-rule="evenodd" clip-rule="evenodd" d="M352.885 375.513V372.829V181.31V100.101L345.107 98.6035V55.7493L319.177 50.3815V28.9126V20.8621L288.533 44.0387L254.355 36.9643V69.8888L251.76 71.8494V79.9V91.0817L241.39 89.0845V138.94V372.829V375.513H352.885Z" fill="#F7F9FB"/>
<path fill-rule="evenodd" clip-rule="evenodd" d="M603.96 137.25V102.807H547.863V117.271H529.203V90.273H517.673V117.271H509.862V78.2187H511.747V68.5469H452.291V78.2187H454.175V117.271H435.791V388.925H620.186V137.25H603.96Z" fill="#EBF0F6"/>
<path d="M471.288 243.733L470.75 232.647H445.098L445.355 243.733H441.142V124.322L443.27 121.022V111.761H350.824V121.022L352.952 124.735V217.767L314.466 189.739L314.248 174.974H263.092L262.219 152.801H252.927L251.827 174.974H234.846L221.455 191.606L208.574 207.603V289.124L186.065 317.078V154.338H179.517V137.16H149.725V154.338H143.34V267.981H136.424V233.713H122.592V267.981H119.4V241.474H108.76V267.981H101.312L100.885 223.635H93.3316L93.5874 279.556L78.4353 280.042V388.808L480.103 388.925V243.733H471.288Z" fill="#EBF0F6"/>
<path d="M929.804 272.424V162.956H903.157V146.408H874.461V162.956H868.154V319.717L846.474 292.79V214.264L821.168 182.834H744.688L707.408 224.054V79.2261H701.66L698.228 68.5469H632.255L628.442 79.2261H622.463V249.067H608.699L608.781 238.388L570.588 249.067H564.438V388.925L971.824 388.811V291.517L956.451 272.424H929.804Z" fill="#EBF0F6"/>
</g>
<path d="M252.382 240.386V232.397H232.422V240.386H217.075V256.343H221.689V277.098H175.63V293.055H180.244V392.009H221.689H263.135V256.343H267.729V240.386H252.382Z" fill="white"/>
<path d="M187.145 268.316H181.006V276.305H187.145V268.316Z" fill="white"/>
<path d="M210.937 348.915H190.976V392.009H210.937V348.915Z" fill="white"/>
<path d="M237.798 289.05H230.115V301.816H237.798V289.05Z" fill="white"/>
<path d="M230.115 280.769H237.798C238.901 280.769 239.804 279.83 239.804 278.683V265.917C239.804 264.77 238.901 263.832 237.798 263.832H230.115C229.011 263.832 228.109 264.77 228.109 265.917V278.683C228.109 279.83 229.011 280.769 230.115 280.769ZM232.121 268.003H235.792V276.597H232.121V268.003Z" fill="#EBF0F6"/>
<path d="M245.482 280.769H253.165C254.268 280.769 255.171 279.83 255.171 278.683V265.917C255.171 264.77 254.268 263.832 253.165 263.832H245.482C244.378 263.832 243.475 264.77 243.475 265.917V278.683C243.475 279.83 244.358 280.769 245.482 280.769ZM247.488 268.003H251.159V276.597H247.488V268.003Z" fill="#EBF0F6"/>
<path d="M230.115 303.922H237.798C238.901 303.922 239.804 302.984 239.804 301.836V289.071C239.804 287.924 238.901 286.985 237.798 286.985H230.115C229.011 286.985 228.109 287.924 228.109 289.071V301.836C228.109 302.984 229.011 303.922 230.115 303.922ZM232.121 291.136H235.792V299.73H232.121V291.136Z" fill="#EBF0F6"/>
<path d="M245.482 303.922H253.165C254.268 303.922 255.171 302.984 255.171 301.836V289.071C255.171 287.924 254.268 286.985 253.165 286.985H245.482C244.378 286.985 243.475 287.924 243.475 289.071V301.836C243.475 302.984 244.358 303.922 245.482 303.922ZM247.488 291.136H251.159V299.73H247.488V291.136Z" fill="#EBF0F6"/>
<path d="M230.115 327.054H237.798C238.901 327.054 239.804 326.116 239.804 324.969V312.203C239.804 311.056 238.901 310.117 237.798 310.117H230.115C229.011 310.117 228.109 311.056 228.109 312.203V324.969C228.109 326.116 229.011 327.054 230.115 327.054ZM232.121 314.289H235.792V322.883H232.121V314.289Z" fill="#EBF0F6"/>
<path d="M245.482 327.054H253.165C254.268 327.054 255.171 326.116 255.171 324.969V312.203C255.171 311.056 254.268 310.117 253.165 310.117H245.482C244.378 310.117 243.475 311.056 243.475 312.203V324.969C243.475 326.116 244.358 327.054 245.482 327.054ZM247.488 314.289H251.159V322.883H247.488V314.289Z" fill="#EBF0F6"/>
<path d="M230.115 350.208H237.798C238.901 350.208 239.804 349.269 239.804 348.122V335.356C239.804 334.209 238.901 333.271 237.798 333.271H230.115C229.011 333.271 228.109 334.209 228.109 335.356V348.122C228.109 349.269 229.011 350.208 230.115 350.208ZM232.121 337.442H235.792V346.036H232.121V337.442Z" fill="#EBF0F6"/>
<path d="M245.482 350.208H253.165C254.268 350.208 255.171 349.269 255.171 348.122V335.356C255.171 334.209 254.268 333.271 253.165 333.271H245.482C244.378 333.271 243.475 334.209 243.475 335.356V348.122C243.475 349.269 244.358 350.208 245.482 350.208ZM247.488 337.442H251.159V346.036H247.488V337.442Z" fill="#EBF0F6"/>
<path d="M230.115 373.34H237.798C238.901 373.34 239.804 372.401 239.804 371.254V358.488C239.804 357.341 238.901 356.403 237.798 356.403H230.115C229.011 356.403 228.109 357.341 228.109 358.488V371.254C228.109 372.401 229.011 373.34 230.115 373.34ZM232.121 360.574H235.792V369.168H232.121V360.574Z" fill="#EBF0F6"/>
<path d="M245.482 373.34H253.165C254.268 373.34 255.171 372.401 255.171 371.254V358.488C255.171 357.341 254.268 356.403 253.165 356.403H245.482C244.378 356.403 243.475 357.341 243.475 358.488V371.254C243.475 372.401 244.358 373.34 245.482 373.34ZM247.488 360.574H251.159V369.168H247.488V360.574Z" fill="#EBF0F6"/>
<path d="M267.729 238.301H254.388V232.398C254.388 231.25 253.486 230.312 252.382 230.312H232.422C231.319 230.312 230.416 231.25 230.416 232.398V238.301H217.075C215.972 238.301 215.069 239.239 215.069 240.387V256.343C215.069 257.491 215.972 258.429 217.075 258.429H219.683V275.012H189.151V268.316C189.151 267.169 188.248 266.231 187.145 266.231H181.006C179.903 266.231 179 267.169 179 268.316V275.012H175.63C174.527 275.012 173.624 275.951 173.624 277.098V293.055C173.624 294.202 174.527 295.141 175.63 295.141H178.218V392.009C178.218 393.156 179.121 394.095 180.224 394.095H190.977H210.937H221.689H263.135C264.238 394.095 265.141 393.156 265.141 392.009V258.429H267.749C268.852 258.429 269.755 257.491 269.755 256.343V240.387C269.735 239.218 268.832 238.301 267.729 238.301ZM183.012 270.402H185.139V274.219H183.012V270.402ZM208.931 389.923H192.983V351H208.931V389.923ZM219.683 389.923H212.943V348.915C212.943 347.767 212.04 346.829 210.937 346.829H190.977C189.873 346.829 188.97 347.767 188.97 348.915V389.923H182.23V295.141H219.663V389.923H219.683ZM219.683 290.969H180.224H177.636V279.184H219.683V290.969ZM234.428 234.484H250.376V238.301H234.428V234.484ZM261.129 389.923H223.695V293.055V277.098V258.429H261.129V389.923ZM265.723 254.258H263.115H221.689H219.082V242.472H232.422H252.382H265.723V254.258Z" fill="#EBF0F6"/>
<path d="M357.317 310.704L362.164 303.23L365.799 297.416H345.603L336.313 326.484H347.421L357.317 310.704Z" fill="white"/>
<path d="M395.688 303.23L400.333 310.704L410.431 326.484H421.337L412.249 297.416H392.053L395.688 303.23Z" fill="white"/>
<path d="M349.643 329.39H345.603L347.421 326.484H336.313V386.695H349.643V329.39Z" fill="white"/>
<path d="M410.431 326.484L412.249 329.39H408.21V386.695H421.337V326.484H410.431Z" fill="white"/>
<path d="M423.356 326.068C423.356 325.861 423.356 325.861 423.356 326.068V325.653L414.268 296.793C414.066 295.963 413.258 295.34 412.249 295.34H393.063L380.542 275.616C379.734 274.37 377.916 274.37 377.108 275.616L364.587 295.34H345.603C344.796 295.34 343.988 295.963 343.584 296.793L334.496 325.653V325.861V326.068C334.496 326.276 334.496 326.276 334.496 326.484V386.695C334.496 387.94 335.304 388.771 336.515 388.771H347.825V390.847C347.825 392.093 348.633 392.923 349.844 392.923H408.412C409.623 392.923 410.431 392.093 410.431 390.847V388.771H421.741C422.952 388.771 423.76 387.94 423.76 386.695V326.484C423.356 326.276 423.356 326.068 423.356 326.068ZM415.278 314.026H404.978L400.939 307.797H413.46L415.278 314.026ZM411.441 324.407L407.604 318.179H416.692L418.711 324.407H411.441ZM410.835 299.492L412.047 303.645H398.314L397.304 301.984L395.688 299.492H410.835ZM341.16 318.179H350.248L346.411 324.407H339.141L341.16 318.179ZM344.392 307.797H356.913L352.874 314.234C352.47 314.026 352.268 314.026 352.066 314.026H342.372L344.392 307.797ZM361.962 299.492L359.336 303.645C359.134 303.645 358.932 303.437 358.73 303.437H345.603L346.815 299.285H361.962V299.492ZM338.333 384.618V328.56H343.584C343.584 328.768 343.382 328.975 343.382 329.39C343.382 329.39 343.382 329.39 343.382 329.598C343.382 329.806 343.382 330.221 343.584 330.429C343.988 331.051 344.594 331.467 345.401 331.467H347.421V384.618H338.333ZM406.19 388.771H351.662V386.695V329.39C351.662 328.145 350.854 327.314 349.643 327.314H349.239L358.932 311.95L367.415 298.662L378.926 280.599L408.613 327.522H408.21C406.998 327.522 406.19 328.352 406.19 329.598V386.695V388.771ZM410.229 384.618V331.467H412.249C413.057 331.467 413.662 331.051 414.066 330.429C414.268 330.221 414.268 329.806 414.268 329.598C414.268 329.598 414.268 329.598 414.268 329.39C414.268 329.183 414.268 328.768 414.066 328.56H419.317V384.618H410.229Z" fill="#EBF0F6"/>
<path d="M412.249 329.391L400.333 310.704L395.688 303.23L378.926 276.654L362.164 303.23L357.317 310.704L345.603 329.391H349.643V390.847H408.21V329.391H412.249Z" fill="white"/>
<path d="M412.249 329.391L400.333 310.704L395.688 303.23L378.926 276.654L362.164 303.23L357.317 310.704L345.603 329.391H349.643V390.847H408.21V329.391H412.249Z" fill="white"/>
<path d="M408.21 392.923H349.642C348.431 392.923 347.623 392.093 347.623 390.847V331.467H345.603C344.796 331.467 344.19 331.051 343.786 330.429C343.382 329.806 343.382 328.975 343.786 328.352L377.108 275.408C377.916 274.162 379.734 274.162 380.542 275.408L413.864 328.145C414.268 328.768 414.268 329.598 413.864 330.221C413.46 330.844 412.855 331.259 412.047 331.259H410.027V390.847C410.229 391.885 409.219 392.923 408.21 392.923ZM351.662 388.771H406.19V329.39C406.19 328.145 406.998 327.314 408.21 327.314H408.613L378.926 280.391L349.239 327.314H349.642C350.854 327.314 351.662 328.145 351.662 329.39V388.771Z" fill="#EBF0F6"/>
<path d="M390.841 338.941H366.607V380.466H390.841V338.941Z" fill="white"/>
<path d="M390.841 382.542H366.607C365.395 382.542 364.587 381.712 364.587 380.466V338.941C364.587 337.695 365.395 336.865 366.607 336.865H390.841C392.053 336.865 392.861 337.695 392.861 338.941V380.466C392.861 381.504 392.053 382.542 390.841 382.542ZM368.626 378.39H388.822V341.017H368.626V378.39Z" fill="#EBF0F6"/>
<path d="M378.926 324.408C383.387 324.408 387.004 320.689 387.004 316.103C387.004 311.516 383.387 307.798 378.926 307.798C374.465 307.798 370.848 311.516 370.848 316.103C370.848 320.689 374.465 324.408 378.926 324.408Z" fill="#EBF0F6"/>
<path d="M378.926 326.484C373.271 326.484 368.828 321.916 368.828 316.103C368.828 310.289 373.271 305.721 378.926 305.721C384.581 305.721 389.024 310.289 389.024 316.103C389.024 321.916 384.581 326.484 378.926 326.484ZM378.926 309.874C375.493 309.874 372.867 312.573 372.867 316.103C372.867 319.632 375.493 322.331 378.926 322.331C382.359 322.331 384.985 319.632 384.985 316.103C384.985 312.573 382.359 309.874 378.926 309.874Z" fill="#EBF0F6"/>
<path d="M392.457 380.466H365.193V386.695H392.457V380.466Z" fill="white"/>
<path d="M392.457 388.771H365.193C363.981 388.771 363.173 387.941 363.173 386.695V380.466C363.173 379.22 363.981 378.39 365.193 378.39H392.457C393.669 378.39 394.477 379.22 394.477 380.466V386.695C394.477 387.733 393.467 388.771 392.457 388.771ZM367.213 384.619H390.437V382.542H367.213V384.619Z" fill="#EBF0F6"/>
<path d="M397.102 386.695H360.346V392.924H397.102V386.695Z" fill="white"/>
<path d="M397.102 395H360.346C359.134 395 358.327 394.169 358.327 392.924V386.695C358.327 385.449 359.134 384.619 360.346 384.619H397.102C398.314 384.619 399.122 385.449 399.122 386.695V392.924C399.122 393.962 398.314 395 397.102 395ZM362.366 390.847H395.082V388.771H362.366V390.847Z" fill="#EBF0F6"/>
<g clip-path="url(#clip0_1_6439)">
<g clip-path="url(#clip1_1_6439)">
<path d="M778.505 271.009H728.238V389.157H778.505V271.009Z" fill="white"/>
<path d="M778.505 391.094H728.238C727.078 391.094 726.305 390.32 726.305 389.157V271.009C726.305 269.847 727.078 269.072 728.238 269.072H778.505C779.665 269.072 780.439 269.847 780.439 271.009V389.157C780.439 390.32 779.665 391.094 778.505 391.094ZM730.171 387.221H776.572V272.946H730.171V387.221Z" fill="#EBF0F6"/>
<path d="M836.893 389.158H786.625V210.966L836.893 249.704V389.158Z" fill="white"/>
<path d="M836.893 391.094H786.625C785.465 391.094 784.692 390.32 784.692 389.158V210.966C784.692 210.192 785.079 209.61 785.852 209.223C786.432 208.836 787.206 209.029 787.979 209.417L838.246 248.154C838.633 248.541 839.02 249.122 839.02 249.704V389.158C838.826 390.32 838.053 391.094 836.893 391.094ZM788.559 387.221H834.96V250.672L788.559 214.84V387.221Z" fill="#EBF0F6"/>
<path d="M894.894 389.158H844.626V305.873L894.894 245.83V389.158Z" fill="white"/>
<path d="M894.894 391.094H844.626C843.466 391.094 842.693 390.32 842.693 389.157V305.872C842.693 305.485 842.886 304.904 843.08 304.71L893.347 244.668C893.927 244.087 894.7 243.893 895.474 244.087C896.247 244.28 896.827 245.055 896.827 245.83V389.157C896.827 390.32 896.054 391.094 894.894 391.094ZM846.56 387.221H892.96V251.253L846.56 306.647V387.221Z" fill="#EBF0F6"/>
<path d="M740.225 282.63H736.358V294.251H740.225V282.63Z" fill="#EBF0F6"/>
<path d="M749.892 282.63H746.025V294.251H749.892V282.63Z" fill="#EBF0F6"/>
<path d="M759.558 282.63H755.692V294.251H759.558V282.63Z" fill="#EBF0F6"/>
<path d="M769.225 282.63H765.359V294.251H769.225V282.63Z" fill="#EBF0F6"/>
<path d="M740.225 300.062H736.358V311.683H740.225V300.062Z" fill="#EBF0F6"/>
<path d="M749.892 300.062H746.025V311.683H749.892V300.062Z" fill="#EBF0F6"/>
<path d="M759.558 300.062H755.692V311.683H759.558V300.062Z" fill="#EBF0F6"/>
<path d="M769.225 300.062H765.359V311.683H769.225V300.062Z" fill="#EBF0F6"/>
<path d="M740.225 317.494H736.358V329.115H740.225V317.494Z" fill="#EBF0F6"/>
<path d="M749.892 317.494H746.025V329.115H749.892V317.494Z" fill="#EBF0F6"/>
<path d="M759.558 317.494H755.692V329.115H759.558V317.494Z" fill="#EBF0F6"/>
<path d="M769.225 317.494H765.359V329.115H769.225V317.494Z" fill="#EBF0F6"/>
<path d="M740.225 334.925H736.358V346.546H740.225V334.925Z" fill="#EBF0F6"/>
<path d="M749.892 334.925H746.025V346.546H749.892V334.925Z" fill="#EBF0F6"/>
<path d="M759.558 334.925H755.692V346.546H759.558V334.925Z" fill="#EBF0F6"/>
<path d="M769.225 334.925H765.359V346.546H769.225V334.925Z" fill="#EBF0F6"/>
<path d="M740.225 352.357H736.358V363.978H740.225V352.357Z" fill="#EBF0F6"/>
<path d="M749.892 352.357H746.025V363.978H749.892V352.357Z" fill="#EBF0F6"/>
<path d="M759.558 352.357H755.692V363.978H759.558V352.357Z" fill="#EBF0F6"/>
<path d="M769.225 352.357H765.359V363.978H769.225V352.357Z" fill="#EBF0F6"/>
<path d="M740.225 369.789H736.358V381.41H740.225V369.789Z" fill="#EBF0F6"/>
<path d="M749.892 369.789H746.025V381.41H749.892V369.789Z" fill="#EBF0F6"/>
<path d="M759.558 369.789H755.692V381.41H759.558V369.789Z" fill="#EBF0F6"/>
<path d="M769.225 369.789H765.359V381.41H769.225V369.789Z" fill="#EBF0F6"/>
<path d="M798.226 286.504H794.359V297.738H798.226V286.504Z" fill="#EBF0F6"/>
<path d="M807.892 286.504H804.026V297.738H807.892V286.504Z" fill="#EBF0F6"/>
<path d="M817.559 286.504H813.693V297.738H817.559V286.504Z" fill="#EBF0F6"/>
<path d="M827.226 286.504H823.359V297.738H827.226V286.504Z" fill="#EBF0F6"/>
<path d="M798.226 269.653H794.359V280.887H798.226V269.653Z" fill="#EBF0F6"/>
<path d="M807.892 269.653H804.026V280.887H807.892V269.653Z" fill="#EBF0F6"/>
<path d="M817.559 269.653H813.693V280.887H817.559V269.653Z" fill="#EBF0F6"/>
<path d="M827.226 269.653H823.359V280.887H827.226V269.653Z" fill="#EBF0F6"/>
<path d="M798.226 252.996H794.359V264.23H798.226V252.996Z" fill="#EBF0F6"/>
<path d="M807.892 252.996H804.026V264.23H807.892V252.996Z" fill="#EBF0F6"/>
<path d="M817.559 252.996H813.693V264.23H817.559V252.996Z" fill="#EBF0F6"/>
<path d="M827.226 252.996H823.359V264.23H827.226V252.996Z" fill="#EBF0F6"/>
<path d="M798.226 236.146H794.359V247.379H798.226V236.146Z" fill="#EBF0F6"/>
<path d="M807.892 236.146H804.026V247.379H807.892V236.146Z" fill="#EBF0F6"/>
<path d="M798.226 303.161H794.359V314.395H798.226V303.161Z" fill="#EBF0F6"/>
<path d="M807.892 303.161H804.026V314.395H807.892V303.161Z" fill="#EBF0F6"/>
<path d="M817.559 303.161H813.693V314.395H817.559V303.161Z" fill="#EBF0F6"/>
<path d="M827.226 303.161H823.359V314.395H827.226V303.161Z" fill="#EBF0F6"/>
<path d="M798.226 320.011H794.359V331.245H798.226V320.011Z" fill="#EBF0F6"/>
<path d="M807.892 320.011H804.026V331.245H807.892V320.011Z" fill="#EBF0F6"/>
<path d="M817.559 320.011H813.693V331.245H817.559V320.011Z" fill="#EBF0F6"/>
<path d="M827.226 320.011H823.359V331.245H827.226V320.011Z" fill="#EBF0F6"/>
<path d="M798.226 336.862H794.359V348.096H798.226V336.862Z" fill="#EBF0F6"/>
<path d="M807.892 336.862H804.026V348.096H807.892V336.862Z" fill="#EBF0F6"/>
<path d="M817.559 336.862H813.693V348.096H817.559V336.862Z" fill="#EBF0F6"/>
<path d="M827.226 336.862H823.359V348.096H827.226V336.862Z" fill="#EBF0F6"/>
<path d="M798.226 353.519H794.359V364.753H798.226V353.519Z" fill="#EBF0F6"/>
<path d="M807.892 353.519H804.026V364.753H807.892V353.519Z" fill="#EBF0F6"/>
<path d="M817.559 353.519H813.693V364.753H817.559V353.519Z" fill="#EBF0F6"/>
<path d="M827.226 353.519H823.359V364.753H827.226V353.519Z" fill="#EBF0F6"/>
<path d="M798.226 370.37H794.359V381.604H798.226V370.37Z" fill="#EBF0F6"/>
<path d="M807.892 370.37H804.026V381.604H807.892V370.37Z" fill="#EBF0F6"/>
<path d="M817.559 370.37H813.693V381.604H817.559V370.37Z" fill="#EBF0F6"/>
<path d="M827.226 370.37H823.359V381.604H827.226V370.37Z" fill="#EBF0F6"/>
<path d="M875.56 286.504H871.693V297.738H875.56V286.504Z" fill="#EBF0F6"/>
<path d="M885.227 286.504H881.36V297.738H885.227V286.504Z" fill="#EBF0F6"/>
<path d="M885.227 269.653H881.36V280.887H885.227V269.653Z" fill="#EBF0F6"/>
<path d="M856.227 303.161H852.36V314.395H856.227V303.161Z" fill="#EBF0F6"/>
<path d="M865.893 303.161H862.027V314.395H865.893V303.161Z" fill="#EBF0F6"/>
<path d="M875.56 303.161H871.693V314.395H875.56V303.161Z" fill="#EBF0F6"/>
<path d="M885.227 303.161H881.36V314.395H885.227V303.161Z" fill="#EBF0F6"/>
<path d="M856.227 320.011H852.36V331.245H856.227V320.011Z" fill="#EBF0F6"/>
<path d="M865.893 320.011H862.027V331.245H865.893V320.011Z" fill="#EBF0F6"/>
<path d="M875.56 320.011H871.693V331.245H875.56V320.011Z" fill="#EBF0F6"/>
<path d="M885.227 320.011H881.36V331.245H885.227V320.011Z" fill="#EBF0F6"/>
<path d="M856.227 336.862H852.36V348.096H856.227V336.862Z" fill="#EBF0F6"/>
<path d="M865.893 336.862H862.027V348.096H865.893V336.862Z" fill="#EBF0F6"/>
<path d="M875.56 336.862H871.693V348.096H875.56V336.862Z" fill="#EBF0F6"/>
<path d="M885.227 336.862H881.36V348.096H885.227V336.862Z" fill="#EBF0F6"/>
<path d="M856.227 353.519H852.36V364.753H856.227V353.519Z" fill="#EBF0F6"/>
<path d="M865.893 353.519H862.027V364.753H865.893V353.519Z" fill="#EBF0F6"/>
<path d="M875.56 353.519H871.693V364.753H875.56V353.519Z" fill="#EBF0F6"/>
<path d="M885.227 353.519H881.36V364.753H885.227V353.519Z" fill="#EBF0F6"/>
<path d="M856.227 370.37H852.36V381.604H856.227V370.37Z" fill="#EBF0F6"/>
<path d="M865.893 370.37H862.027V381.604H865.893V370.37Z" fill="#EBF0F6"/>
<path d="M875.56 370.37H871.693V381.604H875.56V370.37Z" fill="#EBF0F6"/>
<path d="M885.227 370.37H881.36V381.604H885.227V370.37Z" fill="#EBF0F6"/>
</g>
<path d="M728.828 377.344C725.984 377.344 723.551 379.07 722.501 381.532C722.021 381.375 721.511 381.267 720.981 381.267C718.273 381.267 716.076 383.464 716.076 386.172C716.076 387.781 716.861 389.203 718.067 390.096H723.904C724.13 389.929 724.336 389.752 724.532 389.556C724.777 389.752 725.042 389.939 725.316 390.096H732.36C734.361 388.899 735.704 386.711 735.704 384.21C735.695 380.424 732.624 377.344 728.828 377.344Z" fill="white"/>
<path d="M728.828 376.363C725.954 376.363 723.364 377.922 721.991 380.394C721.648 380.325 721.314 380.286 720.981 380.286C717.734 380.286 715.095 382.925 715.095 386.172C715.095 388.036 715.968 389.752 717.479 390.88L717.744 391.076H724.228L724.492 390.88C724.532 390.851 724.561 390.821 724.6 390.802C724.669 390.851 724.738 390.89 724.816 390.939L725.052 391.076H732.644L732.879 390.939C735.273 389.507 736.695 386.986 736.695 384.21C736.676 379.884 733.154 376.363 728.828 376.363ZM718.411 389.115C717.548 388.369 717.057 387.31 717.057 386.172C717.057 384.004 718.813 382.248 720.981 382.248C721.059 382.248 721.148 382.248 721.226 382.258C721.216 382.307 721.206 382.356 721.197 382.415C721.148 382.621 721.108 382.827 721.079 383.043C721.069 383.131 721.049 383.219 721.04 383.317C721.01 383.612 720.981 383.916 720.981 384.22C720.981 384.485 721 384.749 721.03 385.014C721.04 385.093 721.049 385.171 721.059 385.25C721.089 385.446 721.118 385.632 721.157 385.819C721.177 385.897 721.187 385.976 721.206 386.054C721.265 386.28 721.324 386.505 721.403 386.721C721.412 386.751 721.422 386.78 721.432 386.809C721.52 387.055 721.618 387.29 721.726 387.525C721.756 387.594 721.795 387.663 721.824 387.722C721.913 387.888 722.001 388.055 722.099 388.222C722.138 388.291 722.187 388.369 722.227 388.438C722.344 388.614 722.462 388.791 722.589 388.958C722.619 388.997 722.648 389.036 722.678 389.075C722.688 389.085 722.688 389.095 722.697 389.105H718.411V389.115ZM732.075 389.115H725.591C725.434 389.017 725.287 388.909 725.14 388.791C723.747 387.663 722.943 385.995 722.943 384.21C722.943 383.415 723.1 382.64 723.404 381.915C724.326 379.737 726.454 378.324 728.828 378.324C732.075 378.324 734.714 380.963 734.714 384.21C734.714 386.211 733.733 388.026 732.075 389.115Z" fill="#EBF0F6"/>
<path d="M639.564 376.363C636.719 376.363 634.286 378.089 633.237 380.552C632.756 380.395 632.246 380.287 631.716 380.287C629.009 380.287 626.812 382.484 626.812 385.191C626.812 386.8 627.597 388.222 628.803 389.115H634.64C634.865 388.948 635.071 388.772 635.267 388.576C635.513 388.772 635.777 388.958 636.052 389.115H643.095C645.096 387.918 646.44 385.731 646.44 383.23C646.43 379.443 643.36 376.363 639.564 376.363Z" fill="white"/>
<path d="M639.564 375.382C636.69 375.382 634.1 376.942 632.727 379.414C632.383 379.345 632.05 379.306 631.716 379.306C628.47 379.306 625.831 381.944 625.831 385.191C625.831 387.055 626.704 388.772 628.214 389.9L628.479 390.096H634.963L635.228 389.9C635.267 389.87 635.297 389.841 635.336 389.821C635.405 389.87 635.473 389.91 635.552 389.959L635.787 390.096H643.38L643.615 389.959C646.008 388.526 647.431 386.006 647.431 383.229C647.411 378.904 643.89 375.382 639.564 375.382ZM629.146 388.134C628.283 387.389 627.793 386.329 627.793 385.191C627.793 383.023 629.549 381.268 631.716 381.268C631.795 381.268 631.883 381.268 631.962 381.277C631.952 381.326 631.942 381.376 631.932 381.434C631.883 381.64 631.844 381.846 631.814 382.062C631.805 382.15 631.785 382.239 631.775 382.337C631.746 382.631 631.716 382.935 631.716 383.239C631.716 383.504 631.736 383.769 631.765 384.034C631.775 384.112 631.785 384.191 631.795 384.269C631.824 384.465 631.854 384.652 631.893 384.838C631.913 384.917 631.922 384.995 631.942 385.074C632.001 385.299 632.06 385.525 632.138 385.741C632.148 385.77 632.158 385.8 632.168 385.829C632.256 386.074 632.354 386.31 632.462 386.545C632.491 386.614 632.531 386.682 632.56 386.741C632.648 386.908 632.737 387.075 632.835 387.241C632.874 387.31 632.923 387.389 632.962 387.457C633.08 387.634 633.198 387.81 633.325 387.977C633.355 388.016 633.384 388.056 633.413 388.095C633.423 388.105 633.423 388.115 633.433 388.124H629.146V388.134ZM642.811 388.134H636.327C636.17 388.036 636.023 387.928 635.875 387.81C634.483 386.682 633.678 385.015 633.678 383.229C633.678 382.435 633.835 381.66 634.139 380.934C635.061 378.756 637.19 377.344 639.564 377.344C642.811 377.344 645.449 379.983 645.449 383.229C645.449 385.231 644.468 387.045 642.811 388.134Z" fill="#EBF0F6"/>
<path d="M903.433 376.363C900.589 376.363 898.156 378.089 897.106 380.552C896.626 380.395 896.115 380.287 895.586 380.287C892.878 380.287 890.681 382.484 890.681 385.191C890.681 386.8 891.466 388.222 892.672 389.115H898.509C898.735 388.948 898.941 388.772 899.137 388.576C899.382 388.772 899.647 388.958 899.921 389.115H906.964C908.966 387.918 910.309 385.731 910.309 383.23C910.3 379.443 907.229 376.363 903.433 376.363Z" fill="white"/>
<path d="M903.433 375.382C900.559 375.382 897.969 376.942 896.596 379.414C896.253 379.345 895.919 379.306 895.586 379.306C892.339 379.306 889.7 381.944 889.7 385.191C889.7 387.055 890.573 388.772 892.084 389.9L892.349 390.096H898.833L899.097 389.9C899.137 389.87 899.166 389.841 899.205 389.821C899.274 389.87 899.343 389.91 899.421 389.959L899.657 390.096H907.249L907.484 389.959C909.878 388.526 911.3 386.006 911.3 383.229C911.281 378.904 907.759 375.382 903.433 375.382ZM893.016 388.134C892.153 387.389 891.662 386.329 891.662 385.191C891.662 383.023 893.418 381.268 895.586 381.268C895.664 381.268 895.753 381.268 895.831 381.277C895.821 381.326 895.811 381.376 895.802 381.434C895.753 381.64 895.713 381.846 895.684 382.062C895.674 382.15 895.654 382.239 895.645 382.337C895.615 382.631 895.586 382.935 895.586 383.239C895.586 383.504 895.605 383.769 895.635 384.034C895.645 384.112 895.654 384.191 895.664 384.269C895.694 384.465 895.723 384.652 895.762 384.838C895.782 384.917 895.792 384.995 895.811 385.074C895.87 385.299 895.929 385.525 896.008 385.741C896.017 385.77 896.027 385.8 896.037 385.829C896.125 386.074 896.223 386.31 896.331 386.545C896.361 386.614 896.4 386.682 896.429 386.741C896.518 386.908 896.606 387.075 896.704 387.241C896.743 387.31 896.792 387.389 896.832 387.457C896.949 387.634 897.067 387.81 897.194 387.977C897.224 388.016 897.253 388.056 897.283 388.095C897.293 388.105 897.293 388.115 897.302 388.124H893.016V388.134ZM906.68 388.134H900.196C900.039 388.036 899.892 387.928 899.745 387.81C898.352 386.682 897.548 385.015 897.548 383.229C897.548 382.435 897.705 381.66 898.009 380.934C898.931 378.756 901.059 377.344 903.433 377.344C906.68 377.344 909.319 379.983 909.319 383.229C909.319 385.231 908.338 387.045 906.68 388.134Z" fill="#EBF0F6"/>
</g>
<path d="M335.477 376.769C332.632 376.769 330.199 378.552 329.15 381.094C328.669 380.932 328.159 380.821 327.629 380.821C324.922 380.821 322.725 383.089 322.725 385.885C322.725 387.546 323.51 389.014 324.716 389.936H330.553C330.778 389.764 330.984 389.581 331.18 389.379C331.426 389.581 331.69 389.774 331.965 389.936H339.008C341.009 388.7 342.353 386.442 342.353 383.859C342.343 379.95 339.273 376.769 335.477 376.769Z" fill="white"/>
<path d="M335.477 375.756C332.603 375.756 330.013 377.367 328.64 379.919C328.296 379.848 327.963 379.808 327.629 379.808C324.383 379.808 321.744 382.532 321.744 385.885C321.744 387.809 322.617 389.581 324.128 390.746L324.392 390.949H330.876L331.141 390.746C331.18 390.716 331.21 390.685 331.249 390.665C331.318 390.716 331.386 390.756 331.465 390.807L331.7 390.949H339.293L339.528 390.807C341.922 389.328 343.344 386.725 343.344 383.859C343.324 379.392 339.803 375.756 335.477 375.756ZM325.059 388.923C324.196 388.153 323.706 387.059 323.706 385.885C323.706 383.646 325.462 381.833 327.629 381.833C327.708 381.833 327.796 381.833 327.875 381.843C327.865 381.894 327.855 381.945 327.845 382.005C327.796 382.218 327.757 382.431 327.728 382.654C327.718 382.745 327.698 382.836 327.688 382.937C327.659 383.241 327.629 383.555 327.629 383.869C327.629 384.143 327.649 384.416 327.678 384.689C327.688 384.77 327.698 384.851 327.708 384.933C327.737 385.135 327.767 385.328 327.806 385.52C327.826 385.601 327.835 385.682 327.855 385.763C327.914 385.996 327.973 386.229 328.051 386.452C328.061 386.482 328.071 386.513 328.081 386.543C328.169 386.796 328.267 387.039 328.375 387.282C328.404 387.353 328.444 387.424 328.473 387.485C328.561 387.657 328.65 387.829 328.748 388.001C328.787 388.072 328.836 388.153 328.875 388.224C328.993 388.406 329.111 388.589 329.238 388.761C329.268 388.801 329.297 388.842 329.326 388.883C329.336 388.893 329.336 388.903 329.346 388.913H325.059V388.923ZM338.724 388.923H332.24C332.083 388.822 331.936 388.71 331.789 388.589C330.396 387.424 329.591 385.702 329.591 383.859C329.591 383.039 329.748 382.238 330.052 381.489C330.974 379.24 333.103 377.782 335.477 377.782C338.724 377.782 341.362 380.506 341.362 383.859C341.362 385.925 340.381 387.799 338.724 388.923Z" fill="#EBF0F6"/>
<g clip-path="url(#clip2_1_6439)">
<path d="M499.004 300.434H427.972V327.53H499.004V300.434Z" fill="white"/>
<path d="M494.793 279.967H432.183L427.972 300.145H499.004L494.793 279.967Z" fill="white"/>
<path d="M499.004 327.819H427.972L425.164 344.826H501.811L499.004 327.819Z" fill="white"/>
<path d="M478.508 344.826H427.972V372.212H478.508V344.826Z" fill="white"/>
<path d="M478.649 372.211H427.972V389.507H478.649V372.211Z" fill="white"/>
<path d="M499.004 345.115H478.649V389.508H499.004V345.115Z" fill="white"/>
<path d="M499.004 383.742H478.649V389.507H499.004V383.742Z" fill="white"/>
<path d="M442.15 385.184H433.727C432.885 385.184 432.323 384.607 432.323 383.742V377.977C432.323 377.112 432.885 376.536 433.727 376.536H442.15C442.992 376.536 443.554 377.112 443.554 377.977V383.742C443.554 384.607 442.852 385.184 442.15 385.184ZM435.131 382.301H440.746V379.418H435.131V382.301Z" fill="#EBF0F6"/>
<path d="M457.592 385.184H449.169C448.327 385.184 447.765 384.607 447.765 383.742V377.977C447.765 377.112 448.327 376.536 449.169 376.536H457.592C458.434 376.536 458.996 377.112 458.996 377.977V383.742C458.996 384.607 458.294 385.184 457.592 385.184ZM450.573 382.301H456.188V379.418H450.573V382.301Z" fill="#EBF0F6"/>
<path d="M473.034 385.184H464.611C463.769 385.184 463.207 384.607 463.207 383.742V377.977C463.207 377.112 463.769 376.536 464.611 376.536H473.034C473.876 376.536 474.437 377.112 474.437 377.977V383.742C474.437 384.607 473.736 385.184 473.034 385.184ZM466.015 382.301H471.63V379.418H466.015V382.301Z" fill="#EBF0F6"/>
<path d="M442.15 365.005C441.729 365.005 441.448 364.861 441.167 364.573L434.148 357.366C433.587 356.789 433.587 355.925 434.148 355.348C434.71 354.772 435.552 354.772 436.114 355.348L443.133 362.555C443.694 363.131 443.694 363.996 443.133 364.573C442.852 364.861 442.431 365.005 442.15 365.005Z" fill="white"/>
<path d="M437.237 367.167C436.816 367.167 436.535 367.023 436.254 366.734L432.745 363.131C432.183 362.555 432.183 361.69 432.745 361.113C433.306 360.537 434.148 360.537 434.71 361.113L438.219 364.717C438.781 365.293 438.781 366.158 438.219 366.734C437.939 367.023 437.518 367.167 437.237 367.167Z" fill="white"/>
<path d="M493.95 279.967H432.183L427.972 300.145H498.864L493.95 279.967Z" fill="white"/>
<path d="M500.408 327.53V300.289V300.145C500.408 300.001 500.408 299.857 500.408 299.713L496.196 279.534C496.056 278.814 495.494 278.381 494.792 278.381H432.183C431.481 278.525 430.92 278.958 430.779 279.679L426.568 299.857C426.568 300.001 426.568 300.145 426.568 300.289V300.434V327.53L423.76 344.538C423.76 344.971 423.76 345.403 424.041 345.691C424.322 346.124 424.743 346.268 425.164 346.268H426.568V372.212V389.507C426.568 390.372 427.129 390.949 427.972 390.949H478.649H499.004C499.846 390.949 500.408 390.372 500.408 389.507V383.742V346.268H501.811C502.233 346.268 502.654 346.124 502.935 345.691C503.215 345.403 503.356 344.971 503.215 344.538L500.408 327.53ZM430.498 294.812C430.498 294.812 430.639 294.812 430.498 294.812H496.056C496.196 294.812 496.196 294.812 496.337 294.812L497.179 298.848H429.656L430.498 294.812ZM495.775 291.93H431.06L431.902 287.606H494.792L495.775 291.93ZM429.375 326.089V301.875H497.6V326.089H429.375ZM441.729 329.26V343.385H436.254V329.26H441.729ZM444.536 329.26H450.011V343.385H444.536V329.26ZM452.819 329.26H458.294V343.385H452.819V329.26ZM460.961 329.26H466.436V343.385H460.961V329.26ZM469.243 329.26H474.718V343.385H469.243V329.26ZM477.385 329.26H482.86V343.385H477.385V329.26ZM485.668 329.26H491.143V343.385H485.668V329.26ZM429.095 329.26H433.446V343.385H426.849L429.095 329.26ZM493.81 343.385V329.26H497.74L500.127 343.385H493.81ZM493.669 281.408L494.371 284.723H432.604L433.306 281.408H493.669ZM497.6 382.301H480.053V372.212V346.556H497.6V382.301ZM477.245 370.77H429.375V346.556H477.245V370.77ZM429.375 373.653H477.245V383.742V388.066H429.375V373.653ZM497.6 388.066H480.053V385.183H497.6V388.066Z" fill="#EBF0F6"/>
<path d="M449.169 321.765H437.939V311.676C437.939 309.226 439.764 307.352 442.15 307.352H444.958C447.344 307.352 449.169 309.226 449.169 311.676V321.765Z" fill="white"/>
<path d="M444.958 305.911H442.15C439.062 305.911 436.535 308.505 436.535 311.676V321.765C436.535 322.63 437.096 323.207 437.939 323.207H449.169C450.011 323.207 450.573 322.63 450.573 321.765V311.676C450.573 308.505 448.046 305.911 444.958 305.911ZM439.342 311.676C439.342 310.09 440.606 308.793 442.15 308.793V320.324H439.342V311.676ZM447.765 320.324H444.958V308.793C446.502 308.793 447.765 310.09 447.765 311.676V320.324Z" fill="#EBF0F6"/>
<path d="M465.313 305.911H462.505C459.417 305.911 456.89 308.505 456.89 311.676V321.765C456.89 322.63 457.451 323.207 458.294 323.207H469.524C470.366 323.207 470.928 322.63 470.928 321.765V311.676C470.928 308.505 468.401 305.911 465.313 305.911ZM459.697 311.676C459.697 310.09 460.961 308.793 462.505 308.793V320.324H459.697V311.676ZM468.12 320.324H465.313V308.793C466.857 308.793 468.12 310.09 468.12 311.676V320.324Z" fill="#EBF0F6"/>
<path d="M485.668 305.911H482.86C479.772 305.911 477.245 308.505 477.245 311.676V321.765C477.245 322.63 477.807 323.207 478.649 323.207H489.879C490.721 323.207 491.283 322.63 491.283 321.765V311.676C491.283 308.505 488.756 305.911 485.668 305.911ZM480.053 311.676C480.053 310.09 481.316 308.793 482.86 308.793V320.324H480.053V311.676ZM488.475 320.324H485.668V308.793C487.212 308.793 488.475 310.09 488.475 311.676V320.324Z" fill="#EBF0F6"/>
</g>
<path d="M935.821 218.786L1007.06 262.714L996.174 356.699L1009.04 389.39H935.821V218.786Z" fill="white"/>
<rect x="959.566" y="359.764" width="13.8517" height="26.5611" fill="white"/>
<path d="M1010.22 386.631L998.549 355.779L1008.64 263.02C1008.64 262.202 1008.44 261.385 1007.65 260.977L936.81 217.049C936.216 216.64 935.425 216.64 934.831 217.049C934.238 217.457 933.842 218.07 933.842 218.888V387.652C933.842 388.878 934.633 389.696 935.821 389.696H1008.44C1009.04 389.696 1009.63 389.287 1010.03 388.878C1010.42 388.061 1010.42 387.244 1010.22 386.631ZM960.952 383.975V361.704H970.846V383.77H960.952V383.975ZM974.803 385.405V359.661C974.803 358.435 974.012 357.618 972.824 357.618H958.973C957.785 357.618 956.994 358.435 956.994 359.661V385.405H937.799V222.361L1004.49 263.837L994.591 355.779C994.591 356.188 994.591 356.392 994.789 356.801L1005.67 385.405H974.803Z" fill="#EBF0F6"/>
<path d="M953.63 269.763C952.443 269.763 951.651 270.581 951.651 271.807V283.657C951.651 284.883 952.443 285.7 953.63 285.7C954.817 285.7 955.609 284.883 955.609 283.657V271.807C955.609 270.581 954.817 269.763 953.63 269.763Z" fill="#EBF0F6"/>
<path d="M966.097 269.763C964.909 269.763 964.118 270.581 964.118 271.807V283.657C964.118 284.883 964.909 285.7 966.097 285.7C967.284 285.7 968.076 284.883 968.076 283.657V271.807C968.076 270.581 967.284 269.763 966.097 269.763Z" fill="#EBF0F6"/>
<path d="M978.563 269.763C977.376 269.763 976.584 270.581 976.584 271.807V283.657C976.584 284.883 977.376 285.7 978.563 285.7C979.751 285.7 980.542 284.883 980.542 283.657V271.807C980.542 270.581 979.553 269.763 978.563 269.763Z" fill="#EBF0F6"/>
<path d="M953.63 295.914C952.443 295.914 951.651 296.732 951.651 297.957V309.808C951.651 311.034 952.443 311.851 953.63 311.851C954.817 311.851 955.609 311.034 955.609 309.808V297.957C955.609 296.936 954.817 295.914 953.63 295.914Z" fill="#EBF0F6"/>
<path d="M966.097 295.914C964.909 295.914 964.118 296.732 964.118 297.957V309.808C964.118 311.034 964.909 311.851 966.097 311.851C967.284 311.851 968.076 311.034 968.076 309.808V297.957C968.076 296.936 967.284 295.914 966.097 295.914Z" fill="#EBF0F6"/>
<path d="M978.563 295.914C977.376 295.914 976.584 296.732 976.584 297.957V309.808C976.584 311.034 977.376 311.851 978.563 311.851C979.751 311.851 980.542 311.034 980.542 309.808V297.957C980.542 296.936 979.553 295.914 978.563 295.914Z" fill="#EBF0F6"/>
<path d="M953.63 322.273C952.443 322.273 951.651 323.09 951.651 324.316V336.166C951.651 337.392 952.443 338.209 953.63 338.209C954.817 338.209 955.609 337.392 955.609 336.166V324.316C955.609 323.294 954.817 322.273 953.63 322.273Z" fill="#EBF0F6"/>
<path d="M966.097 322.273C964.909 322.273 964.118 323.09 964.118 324.316V336.166C964.118 337.392 964.909 338.209 966.097 338.209C967.284 338.209 968.076 337.392 968.076 336.166V324.316C968.076 323.294 967.284 322.273 966.097 322.273Z" fill="#EBF0F6"/>
<path d="M978.563 322.273C977.376 322.273 976.584 323.09 976.584 324.316V336.166C976.584 337.392 977.376 338.209 978.563 338.209C979.751 338.209 980.542 337.392 980.542 336.166V324.316C980.542 323.294 979.553 322.273 978.563 322.273Z" fill="#EBF0F6"/>
<path d="M679.484 301.837C681.09 301.837 682.662 302.009 684.186 302.354C687.646 300.093 691.735 298.782 696.123 298.782C703.407 298.782 709.864 302.389 713.987 307.981C714.235 307.981 714.467 307.964 714.715 307.964C730.924 307.964 744.069 321.668 744.069 338.564C744.069 355.461 730.924 369.165 714.715 369.165C701.503 369.165 690.328 360.07 686.652 347.557C684.401 348.35 682 348.782 679.5 348.782C667.067 348.782 657 338.288 657 325.327C657 312.365 667.067 301.837 679.484 301.837Z" fill="#EBF0F6"/>
<path d="M675.311 324.136C675.924 323.428 676.967 323.359 677.646 323.998L678.954 325.206L677.861 319.51C677.679 318.578 678.258 317.663 679.152 317.474C680.047 317.284 680.924 317.888 681.106 318.82L683.06 329.003L695.444 340.463V322.151C695.444 321.202 696.189 320.425 697.099 320.425C698.01 320.425 698.755 321.202 698.755 322.151V351.492L711.338 339.255L706.718 334.698C706.056 334.043 706.023 332.955 706.652 332.265C707.281 331.574 708.324 331.54 708.987 332.196L713.755 336.908L716.503 334.232C717.182 333.577 718.225 333.628 718.838 334.319C719.467 335.009 719.417 336.114 718.755 336.752L715.179 340.239L724.235 338.892C725.145 338.754 725.973 339.41 726.106 340.359C726.238 341.309 725.609 342.172 724.698 342.31L711.007 344.346C710.99 344.346 710.973 344.346 710.94 344.346L698.722 356.221V388.53C698.722 389.479 697.977 390.256 697.066 390.256C696.156 390.256 695.411 389.479 695.411 388.53V345.088L687.778 338.012C687.712 338.012 687.662 338.012 687.596 337.995L677.845 335.596C676.951 335.372 676.404 334.44 676.619 333.525C676.835 332.593 677.729 332.023 678.606 332.248L682.596 333.231L675.411 326.587C674.765 325.948 674.699 324.861 675.311 324.136Z" fill="white"/>
<path d="M841.515 371.708C849.744 371.708 856.416 354.862 856.416 334.082C856.416 313.302 849.744 296.457 841.515 296.457C833.286 296.457 826.615 313.302 826.615 334.082C826.615 354.862 833.286 371.708 841.515 371.708Z" fill="#EBF0F6"/>
<path d="M858.071 334.082C858.071 311.99 850.787 294.731 841.515 294.731C832.244 294.731 824.959 311.99 824.959 334.082C824.959 354.794 831.416 371.362 839.859 373.261V387.931C839.859 388.794 840.522 389.657 841.515 389.657C842.508 389.657 843.171 388.967 843.171 387.931V373.261C851.614 371.362 858.071 354.794 858.071 334.082ZM843.171 369.637V339.433C843.171 338.57 842.508 337.707 841.515 337.707C840.522 337.707 839.859 338.397 839.859 339.433V369.637C833.899 367.393 828.27 353.758 828.27 334.082C828.27 312.681 835.058 298.183 841.515 298.183C847.972 298.183 854.76 312.681 854.76 334.082C854.76 353.758 849.131 367.565 843.171 369.637Z" fill="white"/>
<path d="M421.368 368.334C435.568 368.334 447.079 356.333 447.079 341.53C447.079 326.727 435.568 314.726 421.368 314.726C407.167 314.726 395.656 326.727 395.656 341.53C395.656 356.333 407.167 368.334 421.368 368.334Z" fill="#EBF0F6"/>
<path d="M448.735 341.53C448.735 325.79 436.45 313 421.368 313C406.285 313 394 325.807 394 341.53C394 356.632 405.308 368.99 419.563 369.973V387.181C419.563 388.13 420.308 388.907 421.219 388.907C422.129 388.907 422.874 388.13 422.874 387.181V369.991C437.245 369.162 448.735 356.736 448.735 341.53ZM422.924 366.522L428.669 356.943C429.149 356.131 428.917 355.061 428.139 354.561C427.361 354.06 426.334 354.302 425.854 355.113L422.841 360.136V334.506C422.841 333.556 422.096 332.78 421.185 332.78C420.275 332.78 419.53 333.556 419.53 334.506V345.69L414.05 340.287C413.388 339.632 412.344 339.666 411.715 340.356C411.086 341.047 411.119 342.134 411.782 342.79L419.53 350.453V365.676V365.693C419.364 365.952 419.315 366.245 419.298 366.539C406.98 365.451 397.278 354.682 397.278 341.565C397.278 327.74 408.073 316.487 421.334 316.487C434.596 316.487 445.391 327.74 445.391 341.565C445.424 354.802 435.457 365.676 422.924 366.522Z" fill="white"/>
<path d="M330.97 313.689C329.596 313.689 328.288 313.896 327.03 314.242C324.513 306.82 317.742 301.504 309.762 301.504C301.93 301.504 295.275 306.613 292.642 313.81C292.013 313.724 291.384 313.672 290.739 313.672C282.411 313.672 275.656 320.714 275.656 329.395C275.656 338.077 282.411 345.118 290.739 345.118C295.854 345.118 300.358 342.46 303.089 338.405C305.159 339.25 307.411 339.734 309.762 339.734C312.775 339.734 315.622 338.957 318.139 337.611C320.788 342.098 325.54 345.118 330.97 345.118C339.298 345.118 346.053 338.077 346.053 329.395C346.053 320.731 339.298 313.689 330.97 313.689Z" fill="#EBF0F6"/>
<path d="M330.97 311.963C330.01 311.963 329.033 312.049 328.039 312.239C324.861 304.732 317.692 299.795 309.761 299.795C301.964 299.795 294.811 304.645 291.583 311.998C291.285 311.98 291.003 311.963 290.739 311.963C281.5 311.963 274 319.799 274 329.412C274 339.026 281.517 346.862 290.739 346.862C293.537 346.862 296.252 346.102 298.652 344.739L307.94 352.35V389.026H311.252V351.711L319.712 342.288C322.758 345.205 326.715 346.879 330.986 346.879C340.225 346.879 347.725 339.043 347.725 329.43C347.725 319.816 340.208 311.963 330.97 311.963ZM301.517 342.719C302.278 342.046 303.007 341.304 303.669 340.493C305.076 340.959 306.5 341.252 307.94 341.39V347.983L301.517 342.719ZM311.252 341.408C313.304 341.252 315.341 340.752 317.278 339.941L311.252 346.654V341.408ZM330.97 343.427C326.285 343.427 322.013 340.924 319.546 336.748L318.735 335.384L317.377 336.109C313.139 338.387 308.189 338.663 303.685 336.834L302.477 336.333L301.732 337.438C299.215 341.183 295.109 343.41 290.739 343.41C283.338 343.41 277.311 337.127 277.311 329.412C277.311 321.697 283.338 315.415 290.739 315.415C291.252 315.415 291.782 315.45 292.427 315.536L293.719 315.708L294.182 314.449C296.632 307.752 302.891 303.247 309.761 303.247C316.798 303.247 323.106 307.907 325.473 314.828L325.986 316.33L327.46 315.916C328.635 315.588 329.828 315.415 330.97 315.415C338.37 315.415 344.397 321.697 344.397 329.412C344.397 337.127 338.37 343.427 330.97 343.427Z" fill="white"/>
<path d="M605.724 359.944C599.317 359.944 594.135 354.542 594.135 347.862V294.359C594.135 287.679 599.317 282.277 605.724 282.277C612.132 282.277 617.314 287.679 617.314 294.359V347.862C617.314 354.542 612.132 359.944 605.724 359.944Z" fill="#EBF0F6"/>
<path d="M605.724 280.551C598.423 280.551 592.479 286.747 592.479 294.359V347.863C592.479 354.887 597.546 360.703 604.069 361.549V388.094C604.069 389.043 604.814 389.82 605.724 389.82C606.635 389.82 607.38 389.043 607.38 388.094V361.549C613.903 360.703 618.969 354.887 618.969 347.863V294.359C618.969 286.747 613.026 280.551 605.724 280.551ZM615.658 347.863C615.658 352.989 612.065 357.234 607.38 358.063V346.24L611.867 340.303C612.43 339.561 612.314 338.473 611.585 337.887C610.873 337.3 609.83 337.421 609.267 338.18L607.38 340.683V323.82L611.867 317.883C612.43 317.141 612.314 316.054 611.585 315.467C610.873 314.88 609.83 315.001 609.267 315.76L607.38 318.263V303.023C607.38 302.074 606.635 301.297 605.724 301.297C604.814 301.297 604.069 302.074 604.069 303.023V308.235L601.933 305.405C601.37 304.662 600.327 304.524 599.615 305.111C598.903 305.698 598.771 306.785 599.334 307.528L604.069 313.793V330.655L601.933 327.824C601.37 327.082 600.327 326.944 599.615 327.531C598.903 328.118 598.771 329.205 599.334 329.947L604.069 336.213V358.063C599.383 357.234 595.791 352.989 595.791 347.863V294.359C595.791 288.646 600.244 284.003 605.724 284.003C611.204 284.003 615.658 288.646 615.658 294.359V347.863Z" fill="white"/>
<path d="M201.075 327.766C201.075 316.202 192.085 306.813 180.976 306.813C178.807 306.813 176.721 307.175 174.767 307.848C171.787 300.168 164.585 294.731 156.142 294.731C145.049 294.731 136.043 304.103 136.043 315.684C136.043 321.449 138.278 326.661 141.887 330.441C137.317 334.272 134.387 340.158 134.387 346.751C134.387 358.314 143.377 367.704 154.486 367.704C158.162 367.704 161.605 366.651 164.585 364.856C166.622 365.581 168.791 365.978 171.042 365.978C181.87 365.978 190.678 357.037 191.092 345.853C197.052 342.212 201.075 335.48 201.075 327.766Z" fill="#EBF0F6"/>
<path d="M172.185 354.621C171.407 354.121 170.38 354.362 169.9 355.173L165.91 361.818V320.741C165.91 319.792 165.165 319.015 164.254 319.015C163.344 319.015 162.599 319.792 162.599 320.741V345.733L157.119 340.33C156.456 339.675 155.413 339.709 154.784 340.399C154.155 341.09 154.188 342.177 154.85 342.833L162.599 350.496V387.224C162.599 388.173 163.344 388.95 164.254 388.95C165.165 388.95 165.91 388.173 165.91 387.224V368.049C166.092 367.911 166.258 367.755 166.373 367.548L172.698 357.003C173.195 356.192 172.963 355.122 172.185 354.621Z" fill="white"/>
<path d="M924.24 369.607C938.44 369.607 949.952 357.607 949.952 342.803C949.952 328 938.44 316 924.24 316C910.04 316 898.529 328 898.529 342.803C898.529 357.607 910.04 369.607 924.24 369.607Z" fill="#EBF0F6"/>
<path d="M932.005 355.593C931.227 355.092 930.2 355.334 929.72 356.145L925.73 362.79V335.779C925.73 334.83 924.985 334.053 924.075 334.053C923.164 334.053 922.419 334.83 922.419 335.779V346.963L916.939 341.561C916.277 340.905 915.234 340.939 914.605 341.63C913.975 342.32 914.009 343.408 914.671 344.063L922.419 351.726V388.454C922.419 389.404 923.164 390.18 924.075 390.18C924.985 390.18 925.73 389.404 925.73 388.454V369.02C925.912 368.882 926.078 368.727 926.194 368.52L932.518 357.974C933.015 357.163 932.783 356.093 932.005 355.593Z" fill="white"/>
<path d="M169.72 376.769C172.565 376.769 174.997 378.552 176.047 381.094C176.528 380.932 177.038 380.821 177.567 380.821C180.275 380.821 182.472 383.089 182.472 385.885C182.472 387.546 181.687 389.014 180.481 389.936H174.644C174.419 389.764 174.213 389.581 174.016 389.379C173.771 389.581 173.506 389.774 173.232 389.936H166.189C164.188 388.7 162.844 386.442 162.844 383.859C162.853 379.95 165.924 376.769 169.72 376.769Z" fill="white"/>
<path d="M169.72 375.756C172.594 375.756 175.184 377.367 176.557 379.919C176.9 379.848 177.234 379.808 177.567 379.808C180.814 379.808 183.453 382.532 183.453 385.885C183.453 387.809 182.58 389.581 181.069 390.746L180.804 390.949H174.32L174.056 390.746C174.016 390.716 173.987 390.685 173.948 390.665C173.879 390.716 173.81 390.756 173.732 390.807L173.496 390.949H165.904L165.669 390.807C163.275 389.328 161.853 386.725 161.853 383.859C161.873 379.392 165.394 375.756 169.72 375.756ZM180.137 388.923C181.001 388.153 181.491 387.059 181.491 385.885C181.491 383.646 179.735 381.833 177.567 381.833C177.489 381.833 177.401 381.833 177.322 381.843C177.332 381.894 177.342 381.945 177.352 382.005C177.401 382.218 177.44 382.431 177.469 382.654C177.479 382.745 177.499 382.836 177.508 382.937C177.538 383.241 177.567 383.555 177.567 383.869C177.567 384.143 177.548 384.416 177.518 384.689C177.508 384.77 177.499 384.851 177.489 384.933C177.459 385.135 177.43 385.328 177.391 385.52C177.371 385.601 177.361 385.682 177.342 385.763C177.283 385.996 177.224 386.229 177.146 386.452C177.136 386.482 177.126 386.513 177.116 386.543C177.028 386.796 176.93 387.039 176.822 387.282C176.792 387.353 176.753 387.424 176.724 387.485C176.635 387.657 176.547 387.829 176.449 388.001C176.41 388.072 176.361 388.153 176.322 388.224C176.204 388.406 176.086 388.589 175.959 388.761C175.929 388.801 175.9 388.842 175.87 388.883C175.861 388.893 175.861 388.903 175.851 388.913H180.137V388.923ZM166.473 388.923H172.957C173.114 388.822 173.261 388.71 173.408 388.589C174.801 387.424 175.605 385.702 175.605 383.859C175.605 383.039 175.449 382.238 175.144 381.489C174.222 379.24 172.094 377.782 169.72 377.782C166.473 377.782 163.834 380.506 163.834 383.859C163.834 385.925 164.815 387.799 166.473 388.923Z" fill="#EBF0F6"/>
<defs>
<clipPath id="clip0_1_6439">
<rect width="465.94" height="313.975" fill="white" transform="translate(488.501 76.9739)"/>
</clipPath>
<clipPath id="clip1_1_6439">
<rect width="170.136" height="182.065" fill="white" transform="translate(726.305 209.012)"/>
</clipPath>
<clipPath id="clip2_1_6439">
<rect width="79.455" height="112.423" fill="white" transform="translate(423.76 278.525)"/>
</clipPath>
</defs>
</svg>
