<svg width="237" height="108" viewBox="0 0 237 108" fill="none" xmlns="http://www.w3.org/2000/svg">
    <path d="M170.535 28.2018C111.084 55.6144 76.1939 31.1221 76.1939 31.1221C56.1001 19.2067 2.9288 59.1046 38.4473 59.1046C62.5719 62.7372 65.7723 90.2109 76.1939 94.7491C96.9054 103.775 99.407 70.8165 121.982 71.539C144.557 72.2614 179.954 90.2109 179.954 66.8074C179.954 44.5537 224.517 70.7555 204.858 49.0106L170.535 28.2018Z" fill="#C4D3E4"/>
    <path d="M82.9492 97.8425C80.4223 97.7882 77.9335 97.2133 75.6368 96.1534C71.2616 94.2811 68.2637 89.1934 64.7899 83.3323C59.1081 73.7369 52.6364 62.8593 38.3257 60.6309C30.9324 60.6309 26.5571 58.8706 25.3317 55.4414C23.9745 51.6663 26.8103 46.599 33.3226 41.1958C43.8657 32.4144 65.0228 22.7376 76.9636 29.8095C94.4848 40.1986 119.136 47.9523 169.046 26.7569C169.231 26.6694 169.432 26.6204 169.636 26.6128C169.841 26.6051 170.044 26.6389 170.235 26.7123C170.426 26.7856 170.601 26.8969 170.748 27.0396C170.895 27.1822 171.012 27.3532 171.092 27.5423C171.171 27.7314 171.212 27.9348 171.212 28.1402C171.212 28.3456 171.17 28.5489 171.09 28.7378C171.01 28.9266 170.892 29.0973 170.745 29.2395C170.597 29.3817 170.422 29.4925 170.231 29.5653C129.537 46.8635 101.179 47.7183 75.4242 32.4551C65.2051 26.3499 45.5368 35.0092 35.2671 43.5565C30.0513 47.8913 27.337 52.0632 28.1776 54.4239C28.8967 56.459 32.644 57.5986 38.4371 57.5986H38.66C54.5101 60 61.6502 72.0681 67.3927 81.7755C70.5729 87.1583 73.3682 91.8492 76.8015 93.3449C86.6458 97.639 91.7199 91.7067 98.1511 84.187C103.985 77.3695 110.608 69.626 122.033 70.0127C128.96 70.2365 137.022 72.0477 144.81 73.7674C157.136 76.5249 169.887 79.3741 175.336 74.9783C177.361 73.3197 178.374 70.6334 178.374 66.7769C178.374 63.1951 179.458 60.4172 181.574 58.5246C186.122 54.4544 194.265 55.472 200.817 56.286C203.451 56.6014 207.39 57.0899 208.292 56.5811C208.292 56.2046 207.866 54.6477 203.684 50.0077C203.529 49.8636 203.406 49.6887 203.322 49.4941C203.239 49.2995 203.196 49.0896 203.198 48.8777C203.2 48.6658 203.245 48.4566 203.331 48.2633C203.418 48.07 203.544 47.8969 203.7 47.7551C203.857 47.6132 204.041 47.5057 204.242 47.4394C204.442 47.3731 204.654 47.3494 204.864 47.3699C205.074 47.3904 205.277 47.4545 205.461 47.5583C205.645 47.6621 205.805 47.8032 205.932 47.9727C210.631 53.1723 212.059 55.9909 210.996 58.0158C209.73 60.4681 205.831 59.9899 200.433 59.3284C194.487 58.5958 187.094 57.6902 183.58 60.8242C182.111 62.1267 181.402 64.0702 181.402 66.787C181.402 71.5593 179.994 75.1207 177.199 77.3695C170.606 82.6811 157.744 79.8014 144.111 76.759C136.455 75.0495 128.535 73.279 121.901 73.0755C111.955 72.7397 106.101 79.5674 100.46 86.1407C95.528 91.9305 90.4742 97.8425 82.9492 97.8425Z" fill="#0022CD"/>
    <path d="M134.885 16.9478C132.191 16.9719 129.615 18.0643 127.718 19.9871C125.821 21.9099 124.757 24.5076 124.757 27.2148C124.757 35.0193 134.885 46.4565 134.885 46.4565C134.885 46.4565 145.013 35.0193 145.013 27.3471C145.04 24.6194 143.989 21.9925 142.09 20.0428C140.191 18.0931 137.6 16.98 134.885 16.9478ZM134.885 30.9899C134.167 30.9959 133.463 30.7874 132.862 30.3908C132.262 29.9942 131.793 29.4275 131.514 28.7624C131.234 28.0973 131.158 27.3639 131.295 26.6553C131.431 25.9466 131.774 25.2947 132.28 24.7822C132.786 24.2697 133.432 23.9197 134.136 23.7766C134.84 23.6336 135.571 23.7039 136.235 23.9787C136.899 24.2535 137.467 24.7204 137.867 25.3201C138.267 25.9198 138.48 26.6253 138.48 27.3471C138.475 28.3063 138.096 29.2252 137.423 29.9064C136.751 30.5875 135.84 30.9765 134.885 30.9899Z" fill="#6288B9"/>
    <path d="M134.885 47.4741C134.741 47.4739 134.599 47.443 134.468 47.3833C134.337 47.3237 134.22 47.2367 134.125 47.1281C133.7 46.6499 123.744 35.3145 123.744 27.2148C123.753 25.7449 124.05 24.2911 124.617 22.9365C125.185 21.5818 126.013 20.3528 127.054 19.3195C128.094 18.2863 129.327 17.4691 130.682 16.9147C132.037 16.3602 133.488 16.0793 134.951 16.088C136.414 16.0966 137.861 16.3948 139.209 16.9653C140.557 17.5358 141.781 18.3676 142.809 19.4131C143.838 20.4586 144.651 21.6974 145.203 23.0587C145.755 24.42 146.034 25.8772 146.026 27.3471C146.026 35.3145 136.07 46.6804 135.645 47.1281C135.55 47.2367 135.433 47.3237 135.302 47.3833C135.171 47.443 135.029 47.4739 134.885 47.4741ZM134.885 17.9653C132.457 17.9815 130.134 18.9641 128.425 20.6978C126.717 22.4316 125.762 24.775 125.77 27.2148C125.77 33.3201 132.576 42.0913 134.885 44.8895C137.194 42.0913 144 33.3506 144 27.3471C144.024 24.8901 143.079 22.5235 141.371 20.7652C139.662 19.0069 137.33 18.0002 134.885 17.9653ZM134.885 32.0074C133.966 32.0135 133.066 31.7453 132.3 31.2369C131.533 30.7285 130.934 30.0028 130.578 29.1518C130.222 28.3008 130.126 27.3628 130.301 26.4568C130.477 25.5507 130.916 24.7175 131.564 24.0627C132.211 23.4078 133.038 22.961 133.938 22.7786C134.839 22.5963 135.773 22.6868 136.623 23.0386C137.472 23.3905 138.198 23.9878 138.709 24.7548C139.22 25.5218 139.493 26.4241 139.493 27.3471C139.496 28.5786 139.012 29.761 138.148 30.6347C137.284 31.5083 136.111 32.0021 134.885 32.0074ZM134.885 24.7218C134.367 24.7158 133.859 24.8646 133.425 25.1493C132.991 25.4341 132.652 25.842 132.449 26.3211C132.247 26.8002 132.191 27.329 132.288 27.8403C132.385 28.3515 132.632 28.8222 132.996 29.1924C133.36 29.5626 133.826 29.8157 134.333 29.9194C134.841 30.0232 135.368 29.9731 135.847 29.7753C136.327 29.5775 136.736 29.2411 137.025 28.8087C137.313 28.3764 137.467 27.8676 137.468 27.3471C137.462 26.6577 137.19 25.9975 136.707 25.5072C136.225 25.0169 135.571 24.7351 134.885 24.7218Z" fill="#0022CD"/>
    <path d="M124.757 33.2284C122.063 33.2525 119.487 34.3449 117.59 36.2677C115.693 38.1905 114.629 40.7882 114.629 43.4954C114.629 51.3 124.757 62.7372 124.757 62.7372C124.757 62.7372 134.885 51.3 134.885 43.6277C134.912 40.9001 133.861 38.2731 131.962 36.3234C130.063 34.3737 127.472 33.2606 124.757 33.2284ZM124.757 47.2705C124.039 47.2765 123.335 47.0681 122.734 46.6715C122.134 46.2749 121.665 45.7081 121.386 45.043C121.107 44.3779 121.03 43.6445 121.167 42.9359C121.303 42.2273 121.646 41.5753 122.152 41.0628C122.658 40.5503 123.304 40.2003 124.008 40.0573C124.712 39.9142 125.443 39.9846 126.107 40.2594C126.771 40.5342 127.339 41.001 127.739 41.6007C128.139 42.2004 128.352 42.9059 128.352 43.6277C128.347 44.5869 127.968 45.5059 127.295 46.187C126.623 46.8682 125.712 47.2572 124.757 47.2705Z" fill="#6288B9"/>
    <path d="M124.757 63.7547C124.614 63.7558 124.472 63.7265 124.341 63.6686C124.21 63.6107 124.093 63.5256 123.997 63.419C123.572 62.9305 113.616 51.5951 113.616 43.4954C113.625 42.0256 113.922 40.5718 114.49 39.2171C115.057 37.8624 115.885 36.6334 116.926 35.6002C117.967 34.567 119.2 33.7498 120.554 33.1953C121.909 32.6408 123.36 32.3599 124.823 32.3686C126.286 32.3773 127.733 32.6754 129.081 33.2459C130.429 33.8165 131.653 34.6482 132.681 35.6937C133.71 36.7392 134.523 37.978 135.075 39.3393C135.627 40.7006 135.906 42.1578 135.898 43.6277C135.898 51.5951 125.942 62.9611 125.517 63.419C125.421 63.5256 125.304 63.6107 125.173 63.6686C125.042 63.7265 124.9 63.7558 124.757 63.7547ZM124.757 34.246C122.329 34.2621 120.006 35.2447 118.297 36.9785C116.589 38.7122 115.634 41.0557 115.642 43.4954C115.642 49.6007 122.448 58.3719 124.757 61.1702C127.066 58.3719 133.872 49.6312 133.872 43.6277C133.896 41.1708 132.951 38.8041 131.243 37.0459C129.534 35.2876 127.202 34.2808 124.757 34.246ZM124.757 48.2881C123.838 48.2941 122.939 48.0259 122.172 47.5176C121.405 47.0092 120.806 46.2834 120.45 45.4324C120.094 44.5814 119.998 43.6434 120.173 42.7374C120.349 41.8314 120.788 40.9981 121.436 40.3433C122.083 39.6885 122.91 39.2416 123.81 39.0593C124.711 38.877 125.645 38.9675 126.495 39.3193C127.344 39.6711 128.07 40.2684 128.581 41.0354C129.092 41.8025 129.365 42.7047 129.365 43.6277C129.368 44.8593 128.884 46.0416 128.02 46.9153C127.156 47.789 125.983 48.2827 124.757 48.2881ZM124.757 41.0025C124.239 40.9964 123.731 41.1452 123.297 41.43C122.863 41.7147 122.524 42.1226 122.321 42.6017C122.119 43.0809 122.063 43.6097 122.16 44.1209C122.258 44.6322 122.504 45.1028 122.868 45.473C123.232 45.8432 123.698 46.0963 124.206 46.2001C124.713 46.3039 125.24 46.2537 125.719 46.0559C126.199 45.8582 126.609 45.5217 126.897 45.0894C127.186 44.657 127.34 44.1482 127.34 43.6277C127.334 42.9383 127.062 42.2782 126.579 41.7878C126.097 41.2975 125.443 41.0157 124.757 41.0025Z" fill="#0022CD"/>
    <path d="M91.335 18.9828C88.6406 19.0069 86.0647 20.0993 84.1679 22.0221C82.2712 23.9449 81.207 26.5426 81.2072 29.2498C81.2072 37.0544 91.335 48.4916 91.335 48.4916C91.335 48.4916 101.463 37.0544 101.463 29.3821C101.49 26.6545 100.439 24.0275 98.5399 22.0778C96.641 20.1281 94.0499 19.015 91.335 18.9828ZM91.335 33.0249C90.6167 33.0309 89.9127 32.8224 89.3124 32.4259C88.7122 32.0293 88.2428 31.4625 87.9637 30.7974C87.6846 30.1323 87.6084 29.3989 87.7449 28.6903C87.8813 27.9817 88.2242 27.3297 88.7301 26.8172C89.2359 26.3047 89.8819 25.9547 90.586 25.8117C91.2902 25.6686 92.0208 25.739 92.6851 26.0137C93.3494 26.2885 93.9174 26.7554 94.3172 27.3551C94.717 27.9548 94.9304 28.6603 94.9304 29.3821C94.9252 30.3413 94.5457 31.2603 93.8734 31.9414C93.2011 32.6226 92.2897 33.0116 91.335 33.0249Z" fill="#6288B9"/>
    <path d="M91.335 49.5091C91.1912 49.509 91.0491 49.478 90.9181 49.4184C90.7871 49.3587 90.6703 49.2717 90.5754 49.1632C90.15 48.6849 80.1943 37.3495 80.1943 29.2498C80.2118 26.2813 81.4023 23.4413 83.5039 21.3546C85.6055 19.2679 88.4461 18.1055 91.4008 18.123C94.3555 18.1405 97.1823 19.3366 99.2592 21.4481C101.336 23.5596 102.493 26.4136 102.476 29.3821C102.476 37.3495 92.52 48.7155 92.0946 49.1632C91.9997 49.2717 91.8829 49.3587 91.7519 49.4184C91.6209 49.478 91.4788 49.509 91.335 49.5091ZM91.335 20.0004C88.9067 20.0165 86.5838 20.9991 84.8752 22.7328C83.1667 24.4666 82.2118 26.8101 82.2199 29.2498C82.2199 35.3551 89.0258 44.1263 91.335 46.9246C93.6442 44.1263 100.45 35.3856 100.45 29.3821C100.474 26.9251 99.529 24.5585 97.8207 22.8003C96.1124 21.042 93.7804 20.0352 91.335 20.0004ZM91.335 34.0425C90.4163 34.0485 89.5165 33.7803 88.7497 33.2719C87.9829 32.7635 87.3837 32.0378 87.0279 31.1868C86.6722 30.3358 86.576 29.3978 86.7515 28.4918C86.927 27.5858 87.3664 26.7525 88.0139 26.0977C88.6614 25.4429 89.4878 24.996 90.3884 24.8137C91.2891 24.6314 92.2233 24.7219 93.0726 25.0737C93.922 25.4255 94.6482 26.0228 95.1593 26.7898C95.6703 27.5569 95.9432 28.4591 95.9432 29.3821C95.9459 30.6137 95.4622 31.796 94.5983 32.6697C93.7344 33.5434 92.5608 34.0371 91.335 34.0425ZM91.335 26.7569C90.8169 26.7508 90.3088 26.8996 89.8751 27.1844C89.4414 27.4691 89.1018 27.877 88.8994 28.3561C88.6969 28.8353 88.6408 29.3641 88.7382 29.8753C88.8355 30.3866 89.082 30.8572 89.4462 31.2274C89.8104 31.5976 90.2759 31.8507 90.7836 31.9545C91.2912 32.0583 91.8182 32.0081 92.2974 31.8103C92.7767 31.6126 93.1866 31.2761 93.475 30.8438C93.7635 30.4114 93.9176 29.9026 93.9176 29.3821C93.9125 28.6927 93.6397 28.0326 93.1573 27.5422C92.6749 27.0519 92.0211 26.7701 91.335 26.7569Z" fill="#0022CD"/>
    <path d="M66.0153 11.86C63.3209 11.8841 60.745 12.9765 58.8482 14.8993C56.9515 16.8221 55.8873 19.4198 55.8875 22.127C55.8875 29.9316 66.0153 41.3688 66.0153 41.3688C66.0153 41.3688 76.1432 29.9316 76.1432 22.2593C76.1702 19.5317 75.119 16.9047 73.2202 14.955C71.3213 13.0053 68.7302 11.8922 66.0153 11.86ZM66.0153 25.9021C65.297 25.9081 64.593 25.6996 63.9927 25.3031C63.3925 24.9065 62.9231 24.3397 62.644 23.6746C62.3649 23.0095 62.2887 22.2761 62.4252 21.5675C62.5616 20.8589 62.9045 20.2069 63.4104 19.6944C63.9162 19.1819 64.5622 18.8319 65.2663 18.6889C65.9705 18.5458 66.7011 18.6162 67.3654 18.8909C68.0297 19.1657 68.5977 19.6326 68.9975 20.2323C69.3973 20.832 69.6107 21.5375 69.6107 22.2593C69.6055 23.2185 69.226 24.1375 68.5537 24.8186C67.8814 25.4998 66.97 25.8888 66.0153 25.9021Z" fill="#6288B9"/>
    <path d="M66.0154 42.3863C65.8716 42.3862 65.7294 42.3552 65.5985 42.2955C65.4675 42.2359 65.3507 42.1489 65.2558 42.0404C64.8304 41.5621 54.8747 30.2267 54.8747 22.127C54.8833 20.6572 55.1801 19.2034 55.7479 17.8487C56.3158 16.494 57.1437 15.265 58.1843 14.2318C59.2249 13.1986 60.4579 12.3814 61.8128 11.8269C63.1678 11.2724 64.6182 10.9915 66.0812 11.0002C67.5442 11.0089 68.9912 11.307 70.3395 11.8775C71.6879 12.448 72.9112 13.2798 73.9395 14.3253C74.9679 15.3708 75.7813 16.6096 76.3332 17.9709C76.8851 19.3322 77.1647 20.7894 77.156 22.2593C77.156 30.2267 67.2003 41.5926 66.775 42.0404C66.68 42.1489 66.5632 42.2359 66.4322 42.2955C66.3013 42.3552 66.1592 42.3862 66.0154 42.3863ZM66.0154 12.8776C63.587 12.8937 61.2641 13.8763 59.5556 15.61C57.847 17.3438 56.8922 19.6873 56.9003 22.127C56.9003 28.2323 63.7062 37.0035 66.0154 39.8018C68.3245 37.0035 75.1304 28.2628 75.1304 22.2593C75.1548 19.8023 74.2094 17.4357 72.5011 15.6775C70.7928 13.9192 68.4607 12.9124 66.0154 12.8776ZM66.0154 26.9197C65.0967 26.9257 64.1969 26.6575 63.4301 26.1491C62.6633 25.6407 62.064 24.915 61.7083 24.064C61.3525 23.213 61.2563 22.275 61.4319 21.369C61.6074 20.463 62.0468 19.6297 62.6943 18.9749C63.3417 18.3201 64.1682 17.8732 65.0688 17.6909C65.9694 17.5086 66.9036 17.5991 67.753 17.9509C68.6023 18.3027 69.3286 18.9 69.8396 19.667C70.3507 20.4341 70.6235 21.3363 70.6235 22.2593C70.6262 23.4909 70.1426 24.6732 69.2787 25.5469C68.4147 26.4206 67.2411 26.9143 66.0154 26.9197ZM66.0154 19.6341C65.4973 19.628 64.9892 19.7768 64.5555 20.0616C64.1218 20.3463 63.7822 20.7542 63.5797 21.2333C63.3773 21.7125 63.3212 22.2413 63.4185 22.7525C63.5159 23.2638 63.7623 23.7344 64.1265 24.1046C64.4907 24.4748 64.9562 24.7279 65.4639 24.8317C65.9716 24.9355 66.4985 24.8853 66.9778 24.6875C67.457 24.4898 67.8669 24.1533 68.1554 23.721C68.4439 23.2886 68.5979 22.7798 68.598 22.2593C68.5928 21.5699 68.32 20.9098 67.8376 20.4194C67.3553 19.9291 66.7014 19.6473 66.0154 19.6341Z" fill="#0022CD"/>
    <path d="M164.256 17.9653C161.561 17.9895 158.985 19.0818 157.089 21.0047C155.192 22.9275 154.128 25.5252 154.128 28.2324C154.128 36.0369 164.256 47.4741 164.256 47.4741C164.256 47.4741 174.384 36.0369 174.384 28.3646C174.411 25.637 173.359 23.01 171.461 21.0603C169.562 19.1107 166.971 17.9975 164.256 17.9653ZM164.256 32.0074C163.537 32.0135 162.833 31.805 162.233 31.4084C161.633 31.0118 161.163 30.445 160.884 29.78C160.605 29.1149 160.529 28.3815 160.666 27.6729C160.802 26.9642 161.145 26.3123 161.651 25.7998C162.157 25.2873 162.803 24.9373 163.507 24.7942C164.211 24.6512 164.941 24.7215 165.606 24.9963C166.27 25.2711 166.838 25.738 167.238 26.3377C167.638 26.9374 167.851 27.6429 167.851 28.3646C167.846 29.3239 167.466 30.2428 166.794 30.924C166.122 31.6051 165.21 31.9941 164.256 32.0074Z" fill="#6288B9"/>
    <path d="M164.256 48.4916C164.112 48.4914 163.97 48.4604 163.839 48.4008C163.708 48.3411 163.591 48.2541 163.496 48.1456C163.071 47.6673 153.115 36.3319 153.115 28.2323C153.132 25.2637 154.323 22.4237 156.425 20.337C158.526 18.2503 161.367 17.0879 164.321 17.1054C167.276 17.123 170.103 18.319 172.18 20.4305C174.257 22.542 175.414 25.396 175.396 28.3645C175.396 36.3319 165.441 47.6979 165.015 48.1456C164.92 48.2541 164.804 48.3411 164.673 48.4008C164.542 48.4604 164.399 48.4914 164.256 48.4916ZM164.256 18.9828C161.827 18.9989 159.504 19.9815 157.796 21.7153C156.087 23.449 155.132 25.7925 155.141 28.2323C155.141 34.3375 161.947 43.1088 164.256 45.907C166.565 43.1088 173.371 34.368 173.371 28.3645C173.395 25.9076 172.45 23.541 170.741 21.7827C169.033 20.0244 166.701 19.0177 164.256 18.9828ZM164.256 33.0249C163.337 33.0309 162.437 32.7628 161.67 32.2544C160.904 31.746 160.304 31.0203 159.949 30.1692C159.593 29.3182 159.497 28.3802 159.672 27.4742C159.848 26.5682 160.287 25.7349 160.935 25.0801C161.582 24.4253 162.408 23.9784 163.309 23.7961C164.21 23.6138 165.144 23.7043 165.993 24.0561C166.843 24.4079 167.569 25.0052 168.08 25.7722C168.591 26.5393 168.864 27.4415 168.864 28.3645C168.867 29.5961 168.383 30.7784 167.519 31.6521C166.655 32.5258 165.481 33.0195 164.256 33.0249ZM164.256 25.7393C163.738 25.7332 163.229 25.882 162.796 26.1668C162.362 26.4516 162.022 26.8594 161.82 27.3386C161.618 27.8177 161.561 28.3465 161.659 28.8577C161.756 29.369 162.003 29.8396 162.367 30.2098C162.731 30.58 163.197 30.8331 163.704 30.9369C164.212 31.0407 164.739 30.9905 165.218 30.7928C165.697 30.595 166.107 30.2585 166.396 29.8262C166.684 29.3938 166.838 28.8851 166.838 28.3645C166.833 27.6751 166.56 27.015 166.078 26.5246C165.596 26.0343 164.942 25.7525 164.256 25.7393Z" fill="#0022CD"/>
    <path d="M157.166 42.3864C154.472 42.4105 151.896 43.5028 149.999 45.4257C148.102 47.3485 147.038 49.9462 147.038 52.6534C147.038 60.4579 157.166 71.8951 157.166 71.8951C157.166 71.8951 167.294 60.4579 167.294 52.7857C167.321 50.058 166.27 47.4311 164.371 45.4814C162.472 43.5317 159.881 42.4186 157.166 42.3864ZM157.166 56.4285C156.448 56.4345 155.744 56.226 155.144 55.8294C154.543 55.4328 154.074 54.8661 153.795 54.201C153.516 53.5359 153.44 52.8025 153.576 52.0939C153.712 51.3852 154.055 50.7333 154.561 50.2208C155.067 49.7083 155.713 49.3583 156.417 49.2152C157.121 49.0722 157.852 49.1425 158.516 49.4173C159.181 49.6921 159.749 50.159 160.148 50.7587C160.548 51.3584 160.762 52.0639 160.762 52.7857C160.756 53.7449 160.377 54.6638 159.705 55.345C159.032 56.0261 158.121 56.4151 157.166 56.4285Z" fill="#6288B9"/>
    <path d="M157.166 72.9127C157.023 72.9138 156.881 72.8844 156.751 72.8266C156.62 72.7687 156.502 72.6836 156.407 72.5769C155.981 72.0885 146.026 60.7531 146.026 52.6534C146.034 51.1835 146.331 49.7297 146.899 48.3751C147.467 47.0204 148.294 45.7914 149.335 44.7581C150.376 43.7249 151.609 42.9077 152.964 42.3533C154.319 41.7988 155.769 41.5179 157.232 41.5266C158.695 41.5352 160.142 41.8334 161.49 42.4039C162.839 42.9744 164.062 43.8062 165.09 44.8517C166.119 45.8972 166.932 47.136 167.484 48.4973C168.036 49.8586 168.315 51.3158 168.307 52.7857C168.307 60.7531 158.351 72.119 157.926 72.5769C157.83 72.6836 157.713 72.7687 157.582 72.8266C157.451 72.8844 157.309 72.9138 157.166 72.9127ZM157.166 43.4039C154.738 43.4201 152.415 44.4027 150.706 46.1364C148.998 47.8702 148.043 50.2136 148.051 52.6534C148.051 58.7587 154.857 67.5299 157.166 70.3281C159.475 67.5299 166.281 58.7892 166.281 52.7857C166.306 50.3287 165.36 47.9621 163.652 46.2038C161.944 44.4455 159.612 43.4388 157.166 43.4039ZM157.166 57.446C156.247 57.4521 155.348 57.1839 154.581 56.6755C153.814 56.1671 153.215 55.4414 152.859 54.5904C152.503 53.7394 152.407 52.8014 152.583 51.8954C152.758 50.9893 153.198 50.1561 153.845 49.5013C154.493 48.8464 155.319 48.3996 156.22 48.2172C157.12 48.0349 158.054 48.1254 158.904 48.4772C159.753 48.8291 160.479 49.4264 160.99 50.1934C161.502 50.9604 161.774 51.8627 161.774 52.7857C161.777 54.0172 161.293 55.1996 160.429 56.0733C159.566 56.9469 158.392 57.4406 157.166 57.446ZM157.166 50.1604C156.648 50.1544 156.14 50.3032 155.706 50.5879C155.273 50.8727 154.933 51.2806 154.731 51.7597C154.528 52.2388 154.472 52.7676 154.569 53.2789C154.667 53.7901 154.913 54.2608 155.277 54.631C155.642 55.0012 156.107 55.2543 156.615 55.358C157.122 55.4618 157.649 55.4117 158.129 55.2139C158.608 55.0161 159.018 54.6797 159.306 54.2473C159.595 53.815 159.749 53.3062 159.749 52.7857C159.744 52.0963 159.471 51.4361 158.988 50.9458C158.506 50.4555 157.852 50.1737 157.166 50.1604Z" fill="#0022CD"/>
    <path d="M178.435 28.1407C175.74 28.1649 173.164 29.2572 171.268 31.1801C169.371 33.1029 168.307 35.7006 168.307 38.4078C168.307 46.2123 178.435 57.6495 178.435 57.6495C178.435 57.6495 188.563 46.2123 188.563 38.54C188.59 35.8124 187.538 33.1855 185.64 31.2358C183.741 29.2861 181.15 28.173 178.435 28.1407ZM178.435 42.1829C177.716 42.1889 177.012 41.9804 176.412 41.5838C175.812 41.1872 175.342 40.6205 175.063 39.9554C174.784 39.2903 174.708 38.5569 174.845 37.8483C174.981 37.1396 175.324 36.4877 175.83 35.9752C176.336 35.4627 176.982 35.1127 177.686 34.9696C178.39 34.8266 179.121 34.8969 179.785 35.1717C180.449 35.4465 181.017 35.9134 181.417 36.5131C181.817 37.1128 182.03 37.8183 182.03 38.54C182.025 39.4993 181.645 40.4182 180.973 41.0994C180.301 41.7805 179.389 42.1695 178.435 42.1829Z" fill="#6288B9"/>
    <path d="M178.435 58.6671C178.292 58.6682 178.15 58.6388 178.019 58.581C177.888 58.5231 177.771 58.438 177.675 58.3313C177.25 57.8429 167.294 46.5074 167.294 38.4078C167.312 35.4392 168.502 32.5992 170.604 30.5125C172.705 28.4259 175.546 27.2634 178.501 27.281C181.455 27.2985 184.282 28.4946 186.359 30.6061C188.436 32.7176 189.593 35.5715 189.575 38.5401C189.575 46.5074 179.62 57.8734 179.194 58.3313C179.098 58.438 178.981 58.5231 178.85 58.581C178.719 58.6388 178.578 58.6682 178.435 58.6671ZM178.435 29.1583C176.006 29.1745 173.683 30.1571 171.975 31.8908C170.266 33.6245 169.312 35.968 169.32 38.4078C169.32 44.5131 176.126 53.2843 178.435 56.0825C180.744 53.2843 187.55 44.5436 187.55 38.5401C187.574 36.0831 186.629 33.7165 184.92 31.9582C183.212 30.1999 180.88 29.1932 178.435 29.1583ZM178.435 43.2004C177.516 43.2065 176.616 42.9383 175.849 42.4299C175.083 41.9215 174.483 41.1958 174.128 40.3448C173.772 39.4938 173.676 38.5558 173.851 37.6497C174.027 36.7437 174.466 35.9105 175.114 35.2557C175.761 34.6008 176.588 34.1539 177.488 33.9716C178.389 33.7893 179.323 33.8798 180.172 34.2316C181.022 34.5834 181.748 35.1807 182.259 35.9478C182.77 36.7148 183.043 37.6171 183.043 38.5401C183.046 39.7716 182.562 40.954 181.698 41.8276C180.834 42.7013 179.661 43.195 178.435 43.2004ZM178.435 35.9148C177.917 35.9088 177.409 36.0576 176.975 36.3423C176.541 36.6271 176.202 37.035 175.999 37.5141C175.797 37.9932 175.741 38.522 175.838 39.0333C175.935 39.5445 176.182 40.0151 176.546 40.3854C176.91 40.7556 177.376 41.0086 177.883 41.1124C178.391 41.2162 178.918 41.1661 179.397 40.9683C179.876 40.7705 180.286 40.4341 180.575 40.0017C180.863 39.5694 181.017 39.0606 181.017 38.5401C181.012 37.8507 180.739 37.1905 180.257 36.7002C179.775 36.2098 179.121 35.9281 178.435 35.9148Z" fill="#0022CD"/>
    <path d="M110.578 41.3688C107.884 41.3929 105.308 42.4853 103.411 44.4081C101.514 46.3309 100.45 48.9286 100.45 51.6358C100.45 59.4404 110.578 70.8775 110.578 70.8775C110.578 70.8775 120.706 59.4404 120.706 51.7681C120.733 49.0404 119.682 46.4135 117.783 44.4638C115.884 42.5141 113.293 41.401 110.578 41.3688ZM110.578 55.4109C109.86 55.4169 109.156 55.2084 108.555 54.8119C107.955 54.4153 107.486 53.8485 107.207 53.1834C106.927 52.5183 106.851 51.7849 106.988 51.0763C107.124 50.3677 107.467 49.7157 107.973 49.2032C108.479 48.6907 109.125 48.3407 109.829 48.1977C110.533 48.0546 111.264 48.1249 111.928 48.3997C112.592 48.6745 113.16 49.1414 113.56 49.7411C113.96 50.3408 114.173 51.0463 114.173 51.7681C114.168 52.7273 113.789 53.6462 113.116 54.3274C112.444 55.0085 111.533 55.3976 110.578 55.4109Z" fill="#6288B9"/>
    <path d="M110.578 71.8951C110.435 71.8962 110.293 71.8669 110.162 71.809C110.031 71.7511 109.914 71.666 109.818 71.5593C109.393 71.0709 99.4373 59.7355 99.4373 51.6358C99.446 50.1659 99.7427 48.7122 100.311 47.3575C100.878 46.0028 101.706 44.7738 102.747 43.7406C103.788 42.7073 105.02 41.8902 106.375 41.3357C107.73 40.7812 109.181 40.5003 110.644 40.509C112.107 40.5177 113.554 40.8158 114.902 41.3863C116.25 41.9568 117.474 42.7886 118.502 43.8341C119.531 44.8796 120.344 46.1184 120.896 47.4797C121.448 48.841 121.727 50.2982 121.719 51.7681C121.719 59.7355 111.763 71.1014 111.338 71.5593C111.242 71.666 111.125 71.7511 110.994 71.809C110.863 71.8669 110.721 71.8962 110.578 71.8951ZM110.578 42.3864C108.15 42.4025 105.827 43.3851 104.118 45.1188C102.41 46.8526 101.455 49.1961 101.463 51.6358C101.463 57.7411 108.269 66.5123 110.578 69.3106C112.887 66.5123 119.693 57.7716 119.693 51.7681C119.717 49.3111 118.772 46.9445 117.064 45.1862C115.355 43.428 113.023 42.4212 110.578 42.3864ZM110.578 56.4285C109.659 56.4345 108.76 56.1663 107.993 55.6579C107.226 55.1495 106.627 54.4238 106.271 53.5728C105.915 52.7218 105.819 51.7838 105.994 50.8778C106.17 49.9718 106.609 49.1385 107.257 48.4837C107.904 47.8289 108.731 47.382 109.631 47.1997C110.532 47.0174 111.466 47.1078 112.316 47.4597C113.165 47.8115 113.891 48.4088 114.402 49.1758C114.913 49.9429 115.186 50.8451 115.186 51.7681C115.189 52.9997 114.705 54.182 113.841 55.0557C112.977 55.9294 111.804 56.4231 110.578 56.4285ZM110.578 49.1428C110.06 49.1368 109.552 49.2856 109.118 49.5704C108.684 49.8551 108.345 50.263 108.142 50.7421C107.94 51.2213 107.884 51.7501 107.981 52.2613C108.079 52.7726 108.325 53.2432 108.689 53.6134C109.053 53.9836 109.519 54.2367 110.027 54.3405C110.534 54.4443 111.061 54.3941 111.54 54.1963C112.02 53.9985 112.43 53.6621 112.718 53.2298C113.007 52.7974 113.161 52.2886 113.161 51.7681C113.155 51.0787 112.883 50.4186 112.4 49.9282C111.918 49.4379 111.264 49.1561 110.578 49.1428Z" fill="#0022CD"/>
    <path d="M37.6573 21.0179C34.9629 21.0421 32.387 22.1344 30.4902 24.0573C28.5934 25.9801 27.5293 28.5778 27.5294 31.285C27.5294 39.0895 37.6573 50.5267 37.6573 50.5267C37.6573 50.5267 47.7852 39.0895 47.7852 31.4172C47.8122 28.6896 46.7609 26.0627 44.8621 24.113C42.9633 22.1633 40.3721 21.0502 37.6573 21.0179ZM37.6573 35.06C36.9389 35.0661 36.235 34.8576 35.6347 34.461C35.0345 34.0644 34.565 33.4976 34.2859 32.8326C34.0068 32.1675 33.9307 31.4341 34.0671 30.7255C34.2036 30.0168 34.5465 29.3649 35.0523 28.8524C35.5582 28.3399 36.2042 27.9899 36.9083 27.8468C37.6125 27.7038 38.343 27.7741 39.0073 28.0489C39.6716 28.3237 40.2397 28.7906 40.6395 29.3903C41.0392 29.99 41.2527 30.6955 41.2527 31.4172C41.2475 32.3765 40.868 33.2954 40.1957 33.9766C39.5234 34.6577 38.612 35.0467 37.6573 35.06Z" fill="#6288B9"/>
    <path d="M37.6572 51.5442C37.5134 51.544 37.3713 51.5131 37.2404 51.4534C37.1094 51.3938 36.9926 51.3068 36.8977 51.1983C36.4723 50.72 26.5166 39.3846 26.5166 31.2849C26.5085 28.3054 27.6767 25.4443 29.7652 23.3289C31.8536 21.2135 34.6917 20.0165 37.6572 20.0004C40.6407 20.0326 43.4895 21.2529 45.5782 23.3934C47.6669 25.5339 48.8249 28.4197 48.7979 31.4172C48.7979 39.3846 38.8422 50.7505 38.4168 51.1983C38.3219 51.3068 38.2051 51.3938 38.0741 51.4534C37.9432 51.5131 37.801 51.544 37.6572 51.5442ZM37.6572 22.0355C35.2289 22.0516 32.906 23.0342 31.1975 24.7679C29.4889 26.5017 28.5341 28.8452 28.5422 31.2849C28.5422 37.3902 35.3481 46.1614 37.6572 48.9597C39.9664 46.1614 46.7723 37.4207 46.7723 31.4172C46.7967 28.9602 45.8513 26.5936 44.143 24.8353C42.4346 23.0771 40.1026 22.0703 37.6572 22.0355ZM37.6572 36.0776C36.7386 36.0836 35.8388 35.8154 35.072 35.307C34.3052 34.7986 33.7059 34.0729 33.3502 33.2219C32.9944 32.3709 32.8982 31.4329 33.0738 30.5269C33.2493 29.6209 33.6887 28.7876 34.3361 28.1328C34.9836 27.478 35.8101 27.0311 36.7107 26.8488C37.6113 26.6665 38.5455 26.7569 39.3949 27.1088C40.2442 27.4606 40.9705 28.0579 41.4815 28.8249C41.9926 29.592 42.2654 30.4942 42.2654 31.4172C42.2681 32.6488 41.7845 33.8311 40.9205 34.7048C40.0566 35.5785 38.883 36.0722 37.6572 36.0776ZM37.6572 28.7919C37.1392 28.7859 36.631 28.9347 36.1974 29.2195C35.7637 29.5042 35.424 29.9121 35.2216 30.3912C35.0192 30.8704 34.9631 31.3992 35.0604 31.9104C35.1578 32.4216 35.4042 32.8923 35.7684 33.2625C36.1326 33.6327 36.5981 33.8858 37.1058 33.9896C37.6135 34.0934 38.1404 34.0432 38.6197 33.8454C39.0989 33.6476 39.5088 33.3112 39.7973 32.8788C40.0858 32.4465 40.2398 31.9377 40.2399 31.4172C40.2347 30.7278 39.9619 30.0677 39.4795 29.5773C38.9972 29.087 38.3433 28.8052 37.6572 28.7919Z" fill="#0022CD"/>
    <path d="M57.913 34.246C55.2186 34.2701 52.6427 35.3625 50.7459 37.2853C48.8492 39.2081 47.785 41.8058 47.7852 44.513C47.7852 52.3176 57.913 63.7547 57.913 63.7547C57.913 63.7547 68.0409 52.3176 68.0409 44.6453C68.0679 41.9176 67.0167 39.2907 65.1179 37.341C63.219 35.3913 60.6279 34.2782 57.913 34.246ZM57.913 48.2881C57.1947 48.2941 56.4907 48.0856 55.8904 47.689C55.2902 47.2925 54.8208 46.7257 54.5417 46.0606C54.2626 45.3955 54.1864 44.6621 54.3229 43.9535C54.4593 43.2449 54.8022 42.5929 55.3081 42.0804C55.8139 41.5679 56.4599 41.2179 57.164 41.0749C57.8682 40.9318 58.5988 41.0021 59.2631 41.2769C59.9274 41.5517 60.4954 42.0186 60.8952 42.6183C61.295 43.218 61.5084 43.9235 61.5084 44.6453C61.5032 45.6045 61.1237 46.5234 60.4514 47.2046C59.7791 47.8857 58.8677 48.2748 57.913 48.2881Z" fill="#6288B9"/>
    <path d="M57.913 64.7723C57.77 64.7734 57.6283 64.7441 57.4974 64.6862C57.3665 64.6283 57.2492 64.5432 57.1534 64.4365C56.728 63.9481 46.7723 52.6127 46.7723 44.513C46.781 43.0431 47.0777 41.5894 47.6456 40.2347C48.2134 38.88 49.0413 37.651 50.0819 36.6178C51.1225 35.5845 52.3555 34.7674 53.7105 34.2129C55.0654 33.6584 56.5158 33.3775 57.9788 33.3862C59.4418 33.3949 60.8888 33.693 62.2372 34.2635C63.5855 34.834 64.8088 35.6658 65.8372 36.7113C66.8656 37.7568 67.6789 38.9956 68.2308 40.3569C68.7827 41.7182 69.0623 43.1754 69.0537 44.6453C69.0537 52.6127 59.098 63.9786 58.6726 64.4365C58.5768 64.5432 58.4595 64.6283 58.3286 64.6862C58.1977 64.7441 58.056 64.7734 57.913 64.7723ZM57.913 35.2635C55.4847 35.2797 53.1618 36.2623 51.4532 37.996C49.7447 39.7298 48.7898 42.0733 48.7979 44.513C48.7979 50.6183 55.6038 59.3895 57.913 62.1878C60.2222 59.3895 67.0281 50.6488 67.0281 44.6453C67.0525 42.1883 66.107 39.8217 64.3987 38.0634C62.6904 36.3052 60.3584 35.2984 57.913 35.2635ZM57.913 49.3057C56.9943 49.3117 56.0945 49.0435 55.3277 48.5351C54.5609 48.0267 53.9617 47.301 53.6059 46.45C53.2502 45.599 53.154 44.661 53.3295 43.755C53.505 42.8489 53.9444 42.0157 54.5919 41.3609C55.2394 40.7061 56.0658 40.2592 56.9664 40.0769C57.8671 39.8946 58.8013 39.985 59.6506 40.3369C60.5 40.6887 61.2262 41.286 61.7373 42.053C62.2483 42.82 62.5212 43.7223 62.5212 44.6453C62.5239 45.8769 62.0402 47.0592 61.1763 47.9329C60.3124 48.8066 59.1388 49.3003 57.913 49.3057ZM57.913 42.02C57.395 42.014 56.8868 42.1628 56.4531 42.4476C56.0194 42.7323 55.6798 43.1402 55.4774 43.6193C55.2749 44.0985 55.2188 44.6273 55.3162 45.1385C55.4136 45.6497 55.66 46.1204 56.0242 46.4906C56.3884 46.8608 56.8539 47.1139 57.3616 47.2177C57.8693 47.3215 58.3962 47.2713 58.8754 47.0735C59.3547 46.8757 59.7646 46.5393 60.053 46.1069C60.3415 45.6746 60.4956 45.1658 60.4956 44.6453C60.4905 43.9559 60.2177 43.2957 59.7353 42.8054C59.2529 42.3151 58.5991 42.0333 57.913 42.02Z" fill="#0022CD"/>
    <path d="M85.2583 43.4039C82.5639 43.4281 79.988 44.5204 78.0912 46.4433C76.1944 48.3661 75.1303 50.9638 75.1304 53.6709C75.1304 61.4755 85.2583 72.9127 85.2583 72.9127C85.2583 72.9127 95.3862 61.4755 95.3862 53.8032C95.4132 51.0756 94.3619 48.4486 92.4631 46.4989C90.5643 44.5493 87.9731 43.4361 85.2583 43.4039ZM85.2583 57.446C84.5399 57.4521 83.836 57.2436 83.2357 56.847C82.6355 56.4504 82.166 55.8836 81.8869 55.2186C81.6079 54.5535 81.5317 53.8201 81.6681 53.1115C81.8046 52.4028 82.1475 51.7509 82.6533 51.2384C83.1592 50.7258 83.8052 50.3759 84.5093 50.2328C85.2135 50.0898 85.944 50.1601 86.6083 50.4349C87.2726 50.7097 87.8407 51.1766 88.2405 51.7763C88.6402 52.376 88.8537 53.0815 88.8537 53.8032C88.8485 54.7625 88.469 55.6814 87.7967 56.3626C87.1244 57.0437 86.213 57.4327 85.2583 57.446Z" fill="#6288B9"/>
    <path d="M85.2583 73.9302C85.1152 73.9313 84.9736 73.9019 84.8427 73.844C84.7118 73.7861 84.5945 73.7011 84.4987 73.5944C84.0733 73.1059 74.1176 61.7705 74.1176 53.6709C74.1351 50.7023 75.3256 47.8623 77.4272 45.7756C79.5288 43.6889 82.3694 42.5265 85.3241 42.544C88.2788 42.5616 91.1055 43.7576 93.1825 45.8691C95.2594 47.9806 96.4164 50.8346 96.3989 53.8031C96.3989 61.7705 86.4432 73.1365 86.0179 73.5944C85.922 73.7011 85.8048 73.7861 85.6739 73.844C85.543 73.9019 85.4013 73.9313 85.2583 73.9302ZM85.2583 44.4214C82.83 44.4375 80.507 45.4201 78.7985 47.1539C77.0899 48.8876 76.1351 51.2311 76.1432 53.6709C76.1432 59.7761 82.9491 68.5473 85.2583 71.3456C87.5674 68.5473 94.3734 59.8067 94.3734 53.8031C94.3977 51.3462 93.4523 48.9796 91.744 47.2213C90.0357 45.463 87.7036 44.4563 85.2583 44.4214ZM85.2583 58.4635C84.3396 58.4695 83.4398 58.2014 82.673 57.693C81.9062 57.1846 81.3069 56.4588 80.9512 55.6078C80.5955 54.7568 80.4992 53.8188 80.6748 52.9128C80.8503 52.0068 81.2897 51.1735 81.9372 50.5187C82.5847 49.8639 83.4111 49.417 84.3117 49.2347C85.2123 49.0524 86.1465 49.1429 86.9959 49.4947C87.8453 49.8465 88.5715 50.4438 89.0826 51.2108C89.5936 51.9779 89.8664 52.8801 89.8665 53.8031C89.8692 55.0347 89.3855 56.217 88.5216 57.0907C87.6577 57.9644 86.4841 58.4581 85.2583 58.4635ZM85.2583 51.1779C84.7402 51.1718 84.2321 51.3206 83.7984 51.6054C83.3647 51.8902 83.0251 52.298 82.8226 52.7772C82.6202 53.2563 82.5641 53.7851 82.6615 54.2963C82.7588 54.8076 83.0053 55.2782 83.3695 55.6484C83.7337 56.0186 84.1992 56.2717 84.7068 56.3755C85.2145 56.4793 85.7415 56.4291 86.2207 56.2314C86.6999 56.0336 87.1098 55.6971 87.3983 55.2648C87.6868 54.8324 87.8409 54.3237 87.8409 53.8031C87.8357 53.1137 87.5629 52.4536 87.0806 51.9632C86.5982 51.4729 85.9444 51.1911 85.2583 51.1779Z" fill="#0022CD"/>
    <path d="M81.2072 63.7548C78.5127 63.7789 75.9368 64.8713 74.0401 66.7941C72.1433 68.7169 71.0792 71.3146 71.0793 74.0218C71.0793 81.8263 81.2072 93.2635 81.2072 93.2635C81.2072 93.2635 91.335 81.8263 91.335 74.1541C91.3621 71.4264 90.3108 68.7995 88.412 66.8498C86.5132 64.9001 83.922 63.787 81.2072 63.7548ZM81.2072 77.7969C80.4888 77.8029 79.7848 77.5944 79.1846 77.1978C78.5843 76.8013 78.1149 76.2345 77.8358 75.5694C77.5567 74.9043 77.4806 74.1709 77.617 73.4623C77.7535 72.7536 78.0964 72.1017 78.6022 71.5892C79.108 71.0767 79.754 70.7267 80.4582 70.5836C81.1623 70.4406 81.8929 70.5109 82.5572 70.7857C83.2215 71.0605 83.7896 71.5274 84.1893 72.1271C84.5891 72.7268 84.8025 73.4323 84.8026 74.1541C84.7973 75.1133 84.4178 76.0322 83.7455 76.7134C83.0733 77.3945 82.1619 77.7836 81.2072 77.7969Z" fill="#6288B9"/>
    <path d="M81.2071 94.2811C81.0641 94.2822 80.9225 94.2529 80.7915 94.195C80.6606 94.1371 80.5434 94.052 80.4475 93.9453C80.0222 93.4569 70.0665 82.1215 70.0665 74.0218C70.0751 72.5519 70.3718 71.0982 70.9397 69.7435C71.5075 68.3888 72.3354 67.1598 73.376 66.1266C74.4167 65.0933 75.6496 64.2762 77.0046 63.7217C78.3596 63.1672 79.8099 62.8863 81.273 62.895C82.736 62.9037 84.183 63.2018 85.5313 63.7723C86.8796 64.3428 88.1029 65.1746 89.1313 66.2201C90.1597 67.2656 90.9731 68.5044 91.525 69.8657C92.0768 71.227 92.3564 72.6842 92.3478 74.1541C92.3478 82.1215 82.3921 93.4874 81.9667 93.9453C81.8709 94.052 81.7537 94.1371 81.6227 94.195C81.4918 94.2529 81.3502 94.2822 81.2071 94.2811ZM81.2071 64.7723C78.7788 64.7885 76.4559 65.7711 74.7473 67.5048C73.0388 69.2386 72.0839 71.5821 72.092 74.0218C72.092 80.1271 78.898 88.8983 81.2071 91.6966C83.5163 88.8983 90.3222 80.1576 90.3222 74.1541C90.3466 71.6971 89.4011 69.3305 87.6928 67.5722C85.9845 65.8139 83.6525 64.8072 81.2071 64.7723ZM81.2071 78.8144C80.2884 78.8205 79.3886 78.5523 78.6219 78.0439C77.8551 77.5355 77.2558 76.8098 76.9001 75.9588C76.5443 75.1078 76.4481 74.1698 76.6236 73.2638C76.7992 72.3577 77.2385 71.5245 77.886 70.8697C78.5335 70.2149 79.36 69.768 80.2606 69.5857C81.1612 69.4033 82.0954 69.4938 82.9448 69.8456C83.7941 70.1975 84.5204 70.7948 85.0314 71.5618C85.5425 72.3288 85.8153 73.2311 85.8153 74.1541C85.818 75.3856 85.3343 76.568 84.4704 77.4417C83.6065 78.3154 82.4329 78.8091 81.2071 78.8144ZM81.2071 71.5288C80.6891 71.5228 80.1809 71.6716 79.7472 71.9564C79.3136 72.2411 78.9739 72.649 78.7715 73.1281C78.569 73.6073 78.5129 74.136 78.6103 74.6473C78.7077 75.1585 78.9541 75.6292 79.3183 75.9994C79.6825 76.3696 80.148 76.6227 80.6557 76.7265C81.1634 76.8302 81.6903 76.7801 82.1696 76.5823C82.6488 76.3845 83.0587 76.0481 83.3472 75.6157C83.6357 75.1834 83.7897 74.6746 83.7897 74.1541C83.7846 73.4647 83.5118 72.8045 83.0294 72.3142C82.547 71.8239 81.8932 71.5421 81.2071 71.5288Z" fill="#0022CD"/>
    <path fill-rule="evenodd" clip-rule="evenodd" d="M217.295 21.1706L222.491 24.2232C222.609 24.293 222.712 24.3862 222.793 24.4971C222.875 24.6081 222.933 24.7345 222.964 24.8686C222.995 25.0028 222.999 25.1419 222.975 25.2776C222.951 25.4133 222.9 25.5427 222.825 25.6579L220.86 28.6393L213.822 24.4877L215.786 21.4962C215.952 21.2625 216.199 21.0996 216.478 21.0393C216.757 20.9791 217.049 21.0259 217.295 21.1706ZM213.822 24.5081L211.674 27.7541L205.031 37.8176L212.12 41.9793L220.911 28.6597L213.822 24.5081ZM203.754 41.0432L203.846 45.5204C203.85 45.6826 203.897 45.8408 203.98 45.9798C204.064 46.1188 204.181 46.2339 204.322 46.3141C204.555 46.4467 204.83 46.4866 205.091 46.426C205.158 46.415 205.223 46.3944 205.284 46.3649L209.568 44.4825L203.754 41.0432Z" fill="#0022CD"/>
</svg>
