<svg width="400" height="400" viewBox="0 0 400 400" fill="none" xmlns="http://www.w3.org/2000/svg">
    <path d="M330.69 249C363.77 245.78 389.63 217.58 389.63 183.655C389.63 148.625 362.065 120.04 327.445 118.39C327.88 114.575 328.13 110.705 328.13 106.78C328.13 50.8751 282.81 5.56006 226.91 5.56006C186.545 5.56006 151.715 29.1901 135.46 63.3651C131.07 62.4351 126.515 61.9351 121.845 61.9351C87.84 61.9351 59.91 87.9101 56.8 121.105C29.94 129.22 10.375 154.15 10.375 183.655C10.375 219.315 38.945 248.315 74.44 249H330.69Z" fill="#A8BEEA"/>
    <path d="M207.63 233H181.63V390.5H207.63V233Z" fill="#E4EAF5"/>
    <path d="M207.63 393H181.63C180.25 393 179.13 391.88 179.13 390.5V233C179.13 231.62 180.25 230.5 181.63 230.5H207.63C209.01 230.5 210.13 231.62 210.13 233V390.5C210.13 391.88 209.01 393 207.63 393ZM184.13 388H205.13V235.5H184.13V388Z" fill="#133DBD"/>
    <path d="M244.63 393H144.63C143.25 393 142.13 391.88 142.13 390.5C142.13 389.12 143.25 388 144.63 388H244.63C246.01 388 247.13 389.12 247.13 390.5C247.13 391.88 246.01 393 244.63 393Z" fill="#133DBD"/>
    <path d="M205.13 235H184.13V242.5H205.13V235Z" fill="#65D78D"/>
    <path d="M165.63 56H133.63V108H145.385V72.98H165.63V56Z" fill="#65D78D"/>
    <path d="M145.385 110.5H133.63C132.25 110.5 131.13 109.38 131.13 108V56C131.13 54.62 132.25 53.5 133.63 53.5H165.63C167.01 53.5 168.13 54.62 168.13 56V72.98C168.13 74.36 167.01 75.48 165.63 75.48H147.885V108C147.885 109.38 146.765 110.5 145.385 110.5ZM136.13 105.5H142.885V72.98C142.885 71.6 144.005 70.48 145.385 70.48H163.13V58.5H136.13V105.5Z" fill="#133DBD"/>
    <path d="M141.63 103C111.805 103 87.63 127.175 87.63 157V233H195.63V157C195.63 127.175 171.45 103 141.63 103Z" fill="#315ED1"/>
    <path d="M195.63 235.5H87.63C86.25 235.5 85.13 234.38 85.13 233V157C85.13 125.845 110.475 100.5 141.63 100.5C172.785 100.5 198.13 125.845 198.13 157V233C198.13 234.38 197.01 235.5 195.63 235.5ZM90.13 230.5H193.13V157C193.13 128.605 170.025 105.5 141.63 105.5C113.235 105.5 90.13 128.605 90.13 157V230.5Z" fill="#133DBD"/>
    <path d="M141.63 363C171.455 363 195.63 338.825 195.63 309V233H87.63V309C87.63 338.825 111.805 363 141.63 363Z" fill="white"/>
    <path d="M141.63 365.5C110.475 365.5 85.13 340.155 85.13 309V233C85.13 231.62 86.25 230.5 87.63 230.5H195.63C197.01 230.5 198.13 231.62 198.13 233V309C198.13 340.155 172.785 365.5 141.63 365.5ZM90.13 235.5V309C90.13 337.395 113.235 360.5 141.63 360.5C170.025 360.5 193.13 337.395 193.13 309V235.5H90.13Z" fill="#133DBD"/>
    <path d="M133.63 365C132.25 365 131.13 363.88 131.13 362.5C131.13 361.12 132.25 360 133.63 360C147.425 360 160.36 354.73 170.055 345.155C179.775 335.56 185.13 322.72 185.13 309V233C185.13 231.62 186.25 230.5 187.63 230.5C189.01 230.5 190.13 231.62 190.13 233V309C190.13 324.065 184.25 338.17 173.57 348.715C162.93 359.215 148.745 365 133.63 365Z" fill="#133DBD"/>
    <path d="M184.13 121.5H85.63V186H184.13V121.5Z" fill="white"/>
    <path d="M184.13 188.5H85.63C84.25 188.5 83.13 187.38 83.13 186V121.5C83.13 120.12 84.25 119 85.63 119H184.13C185.51 119 186.63 120.12 186.63 121.5V186C186.63 187.38 185.51 188.5 184.13 188.5ZM88.13 183.5H181.63V124H88.13V183.5Z" fill="#133DBD"/>
    <path d="M135.13 162.5C134.59 162.5 134.045 162.325 133.595 161.975L84.0951 123.475C83.0051 122.625 82.8101 121.055 83.6551 119.965C84.5051 118.875 86.0751 118.68 87.1651 119.525L135.12 156.825L182.585 119.535C183.67 118.68 185.245 118.87 186.095 119.955C186.95 121.04 186.76 122.61 185.675 123.465L136.675 161.965C136.22 162.32 135.675 162.5 135.13 162.5Z" fill="#133DBD"/>
    <path d="M85.63 187.5C84.89 187.5 84.155 187.17 83.66 186.545C82.805 185.46 82.995 183.89 84.08 183.035L124.695 151.125C125.78 150.27 127.355 150.46 128.205 151.545C129.06 152.63 128.87 154.2 127.785 155.055L87.17 186.965C86.715 187.325 86.17 187.5 85.63 187.5Z" fill="#133DBD"/>
    <path d="M184.125 187.5C183.59 187.5 183.05 187.33 182.59 186.975L141.975 155.385C140.885 154.535 140.69 152.965 141.535 151.875C142.385 150.785 143.955 150.59 145.045 151.435L185.66 183.025C186.75 183.875 186.945 185.445 186.1 186.535C185.61 187.17 184.87 187.5 184.125 187.5Z" fill="#133DBD"/>
    <path d="M147.63 148H49.13V212.5H147.63V148Z" fill="white"/>
    <path d="M147.63 215H49.13C47.75 215 46.63 213.88 46.63 212.5V148C46.63 146.62 47.75 145.5 49.13 145.5H147.63C149.01 145.5 150.13 146.62 150.13 148V212.5C150.13 213.88 149.01 215 147.63 215ZM51.63 210H145.13V150.5H51.63V210Z" fill="#133DBD"/>
    <path d="M98.6301 189C98.0901 189 97.5451 188.825 97.0951 188.475L47.5951 149.975C46.5051 149.125 46.3101 147.555 47.1551 146.465C48.0051 145.375 49.5751 145.18 50.6651 146.025L98.6201 183.325L146.085 146.035C147.17 145.18 148.745 145.37 149.595 146.455C150.45 147.54 150.26 149.11 149.175 149.965L100.175 188.465C99.7201 188.82 99.1751 189 98.6301 189Z" fill="#133DBD"/>
    <path d="M49.13 214C48.39 214 47.655 213.67 47.16 213.045C46.305 211.96 46.495 210.39 47.58 209.535L88.195 177.625C89.28 176.77 90.855 176.96 91.705 178.045C92.56 179.13 92.37 180.7 91.285 181.555L50.67 213.465C50.215 213.825 49.67 214 49.13 214Z" fill="#133DBD"/>
    <path d="M147.625 214C147.09 214 146.55 213.83 146.09 213.475L105.475 181.885C104.385 181.035 104.19 179.465 105.035 178.375C105.88 177.285 107.455 177.09 108.545 177.935L149.16 209.525C150.25 210.375 150.445 211.945 149.6 213.035C149.11 213.67 148.37 214 147.625 214Z" fill="#133DBD"/>
    <path d="M236.13 137.5H137.63V202H236.13V137.5Z" fill="white"/>
    <path d="M236.13 204.5H137.63C136.25 204.5 135.13 203.38 135.13 202V137.5C135.13 136.12 136.25 135 137.63 135H236.13C237.51 135 238.63 136.12 238.63 137.5V202C238.63 203.38 237.51 204.5 236.13 204.5ZM140.13 199.5H233.63V140H140.13V199.5Z" fill="#133DBD"/>
    <path d="M187.13 178.5C186.59 178.5 186.045 178.325 185.595 177.975L136.095 139.475C135.005 138.625 134.81 137.055 135.655 135.965C136.505 134.875 138.075 134.68 139.165 135.525L187.12 172.825L234.585 135.535C235.67 134.68 237.24 134.87 238.095 135.955C238.95 137.04 238.76 138.61 237.675 139.465L188.675 177.965C188.22 178.32 187.675 178.5 187.13 178.5Z" fill="#133DBD"/>
    <path d="M137.63 203.5C136.89 203.5 136.155 203.17 135.66 202.545C134.805 201.46 134.995 199.89 136.08 199.035L176.695 167.125C177.78 166.27 179.35 166.46 180.205 167.545C181.06 168.63 180.87 170.2 179.785 171.055L139.17 202.965C138.715 203.325 138.17 203.5 137.63 203.5Z" fill="#133DBD"/>
    <path d="M236.125 203.5C235.59 203.5 235.05 203.33 234.59 202.975L193.975 171.385C192.885 170.535 192.69 168.965 193.535 167.875C194.38 166.785 195.955 166.59 197.045 167.435L237.66 199.025C238.75 199.875 238.945 201.445 238.1 202.535C237.61 203.17 236.87 203.5 236.125 203.5Z" fill="#133DBD"/>
    <path d="M208.13 160H109.63V224.5H208.13V160Z" fill="white"/>
    <path d="M208.13 227H109.63C108.25 227 107.13 225.88 107.13 224.5V160C107.13 158.62 108.25 157.5 109.63 157.5H208.13C209.51 157.5 210.63 158.62 210.63 160V224.5C210.63 225.88 209.51 227 208.13 227ZM112.13 222H205.63V162.5H112.13V222Z" fill="#133DBD"/>
    <path d="M159.13 201C158.59 201 158.045 200.825 157.595 200.475L108.095 161.975C107.005 161.125 106.81 159.555 107.655 158.465C108.505 157.375 110.075 157.18 111.165 158.025L159.12 195.325L206.585 158.035C207.67 157.18 209.245 157.37 210.095 158.455C210.95 159.54 210.76 161.11 209.675 161.965L160.675 200.465C160.22 200.82 159.675 201 159.13 201Z" fill="#133DBD"/>
    <path d="M109.63 226C108.89 226 108.155 225.67 107.66 225.045C106.805 223.96 106.995 222.39 108.08 221.535L148.695 189.625C149.78 188.77 151.355 188.96 152.205 190.045C153.06 191.13 152.87 192.7 151.785 193.555L111.17 225.465C110.715 225.825 110.17 226 109.63 226Z" fill="#133DBD"/>
    <path d="M208.125 226C207.59 226 207.05 225.83 206.59 225.475L165.975 193.885C164.885 193.035 164.69 191.465 165.535 190.375C166.385 189.285 167.955 189.09 169.045 189.935L209.66 221.525C210.75 222.375 210.945 223.945 210.1 225.035C209.61 225.67 208.87 226 208.125 226Z" fill="#133DBD"/>
    <path d="M249.63 103H141.63C171.455 103 195.63 127.175 195.63 157V233H303.63V157C303.63 127.175 279.45 103 249.63 103Z" fill="white"/>
    <path d="M303.63 235.5H195.63C194.25 235.5 193.13 234.38 193.13 233V157C193.13 128.605 170.025 105.5 141.63 105.5C140.25 105.5 139.13 104.38 139.13 103C139.13 101.62 140.25 100.5 141.63 100.5H249.63C280.785 100.5 306.13 125.845 306.13 157V233C306.13 234.38 305.01 235.5 303.63 235.5ZM198.13 230.5H301.13V157C301.13 128.605 278.025 105.5 249.63 105.5H164.86C184.46 114.375 198.125 134.125 198.125 157V230.5H198.13Z" fill="#133DBD"/>
    <path d="M231.63 160C234.391 160 236.63 157.761 236.63 155C236.63 152.239 234.391 150 231.63 150C228.869 150 226.63 152.239 226.63 155C226.63 157.761 228.869 160 231.63 160Z" fill="#133DBD"/>
    <path d="M264.63 160C267.391 160 269.63 157.761 269.63 155C269.63 152.239 267.391 150 264.63 150C261.869 150 259.63 152.239 259.63 155C259.63 157.761 261.869 160 264.63 160Z" fill="#133DBD"/>
    <path d="M269.63 207.25C268.25 207.25 267.13 206.13 267.13 204.75C267.13 194.55 258.83 186.25 248.63 186.25C238.43 186.25 230.13 194.55 230.13 204.75C230.13 206.13 229.01 207.25 227.63 207.25C226.25 207.25 225.13 206.13 225.13 204.75C225.13 191.79 235.67 181.25 248.63 181.25C261.59 181.25 272.13 191.79 272.13 204.75C272.13 206.13 271.01 207.25 269.63 207.25Z" fill="#133DBD"/>
</svg>
