<svg width="313" height="173" viewBox="0 0 313 173" fill="none" xmlns="http://www.w3.org/2000/svg">
    <path d="M221.022 59.0715C218.99 59.0715 217.026 59.1395 214.994 59.2754C196.841 24.0637 160.265 0 118.067 0C57.8516 0 9.01562 49.011 9.01562 109.442C9.01562 132.078 17.2114 155.53 28.9971 173C82.8454 173 242.697 172.796 293.768 172.796C298.442 162.6 301.016 151.316 301.016 139.352C301.016 95.031 265.185 59.0715 221.022 59.0715Z" fill="#EBF0F6"/>
    <path d="M147.854 98.2997L124.417 171.759H225.974L204.103 98.2997H147.854Z" fill="#CCFF69"/>
    <path d="M176.888 59.875H174.067V67.786H176.888V59.875Z" fill="#0022CD"/>
    <path d="M205.663 99.9949H146.421V98.472C146.423 95.2799 147.659 92.2193 149.855 89.9621C152.052 87.705 155.031 86.4358 158.138 86.4332H193.955C197.06 86.4383 200.037 87.7086 202.232 89.9655C204.426 92.2224 205.66 95.2815 205.663 98.472V99.9949ZM149.479 96.949H202.577C202.225 94.8604 201.168 92.966 199.591 91.5995C198.014 90.2331 196.018 89.4822 193.955 89.4791H158.138C156.069 89.4731 154.064 90.2198 152.479 91.5871C150.894 92.9544 149.831 94.8538 149.479 96.949Z" fill="#0022CD"/>
    <path d="M195.479 87.5634H192.503V85.0582C192.301 80.932 190.476 77.0401 187.408 74.1897C184.339 71.3394 180.262 69.7493 176.023 69.7493C171.784 69.7493 167.707 71.3394 164.639 74.1897C161.57 77.0401 159.746 80.932 159.543 85.0582V87.5634H156.577V85.0582C156.577 80.0277 158.628 75.2033 162.278 71.6462C165.928 68.0891 170.88 66.0908 176.042 66.0908C181.205 66.0908 186.156 68.0891 189.806 71.6462C193.456 75.2033 195.507 80.0277 195.507 85.0582L195.479 87.5634Z" fill="#0022CD"/>
    <path d="M176.888 111.296H174.067V116.382H176.888V111.296Z" fill="white"/>
    <path d="M189.086 107.972L186.393 109.23L188.559 113.882L191.252 112.624L189.086 107.972Z" fill="white"/>
    <path d="M162.541 107.964L160.375 112.615L163.068 113.873L165.234 109.222L162.541 107.964Z" fill="white"/>
    <path d="M176.042 82.4777C178.379 82.4777 180.274 80.4538 180.274 77.9572C180.274 75.4606 178.379 73.4366 176.042 73.4366C173.705 73.4366 171.81 75.4606 171.81 77.9572C171.81 80.4538 173.705 82.4777 176.042 82.4777Z" fill="#CCFF69"/>
    <path d="M95.36 128.813C93.7415 128.813 92.1595 128.316 90.8139 127.384C89.4683 126.452 88.4197 125.128 87.8008 123.579C87.1819 122.029 87.0204 120.325 87.3368 118.68C87.6533 117.036 88.4333 115.526 89.5784 114.341C90.7235 113.155 92.1821 112.349 93.7696 112.023C95.3572 111.697 97.0024 111.866 98.4972 112.509C99.9919 113.152 101.269 114.24 102.167 115.635C103.065 117.03 103.543 118.67 103.541 120.347C103.539 122.593 102.676 124.747 101.142 126.334C99.6076 127.922 97.5281 128.813 95.36 128.813ZM95.36 114.904C94.321 114.904 93.3053 115.223 92.4414 115.822C91.5775 116.42 90.9042 117.27 90.5066 118.264C90.109 119.259 90.005 120.353 90.2077 121.409C90.4104 122.465 90.9107 123.434 91.6454 124.196C92.38 124.957 93.3161 125.475 94.3351 125.685C95.3542 125.895 96.4104 125.787 97.3703 125.375C98.3302 124.963 99.1507 124.266 99.7279 123.371C100.305 122.476 100.613 121.423 100.613 120.347C100.613 118.903 100.06 117.519 99.0746 116.498C98.0894 115.478 96.7532 114.904 95.36 114.904Z" fill="#0022CD"/>
    <path d="M95.0779 156.502C92.065 156.502 89.1197 155.607 86.6145 153.93C84.1094 152.254 82.1568 149.871 81.0038 147.083C79.8508 144.296 79.5492 141.228 80.137 138.268C80.7247 135.309 82.1756 132.59 84.3061 130.457C86.4365 128.323 89.1509 126.87 92.106 126.281C95.061 125.693 98.124 125.995 100.908 127.149C103.691 128.304 106.07 130.26 107.744 132.769C109.418 135.278 110.312 138.227 110.312 141.245C110.309 145.29 108.703 149.17 105.847 152.03C102.991 154.891 99.1174 156.499 95.0779 156.502ZM95.0779 128.969C92.6574 128.969 90.2913 129.688 88.2788 131.035C86.2662 132.382 84.6976 134.296 83.7714 136.535C82.8451 138.775 82.6027 141.24 83.0749 143.617C83.5471 145.995 84.7127 148.179 86.4242 149.893C88.1358 151.607 90.3164 152.774 92.6904 153.247C95.0643 153.72 97.525 153.477 99.7612 152.55C101.997 151.622 103.909 150.051 105.254 148.035C106.598 146.02 107.316 143.65 107.316 141.226C107.303 137.981 106.01 134.873 103.717 132.58C101.424 130.287 98.3181 128.996 95.0779 128.988V128.969Z" fill="#0022CD"/>
    <path d="M96.7705 154.241H93.9495V171.759H96.7705V154.241Z" fill="#0022CD"/>
    <path d="M238.387 170.063H73.6379V172.889H238.387V170.063Z" fill="#0022CD"/>
</svg>
