<svg xmlns="http://www.w3.org/2000/svg" width="400" height="120" viewBox="0 0 400 120">
    <path fill="#CCFF69" d="M191.32 40.91l-25 77.95h108.33l-23.33-77.95h-60z"/>
    <path fill="#0022CD" d="M219.74 0h3.16v8.18h-3.16zm33.15 42.49h-63.15v-1.58a12.5 12.5 0 0112.49-12.49h38.18a12.5 12.5 0 0112.48 12.49zM193 39.33h56.6a9.34 9.34 0 00-9.19-7.75h-38.18a9.34 9.34 0 00-9.23 7.75z"/>
    <path d="M242 30h-3.16v-2.73a17.52 17.52 0 00-35 0V30h-3.15v-2.73a20.67 20.67 0 0141.34 0z" fill="#0022CD"/>
    <path fill="#fff" d="M219.74 54.54h3.16V60h-3.16zm12.823-2.134l2.864-1.336 2.303 4.94-2.864 1.335zM204.893 56l2.304-4.939 2.864 1.336-2.305 4.94z"/>
    <circle cx="221.32" cy="19.09" r="4.59" fill="#CCFF69"/>
    <path d="M135.77 72.91a8.83 8.83 0 118.83-8.82 8.83 8.83 0 01-8.83 8.82zm0-14.49a5.67 5.67 0 105.67 5.67 5.67 5.67 0 00-5.67-5.67z" fill="#0022CD"/>
    <path d="M135.77 102.49a16.07 16.07 0 1116.07-16.07 16.08 16.08 0 01-16.07 16.07zm0-29a12.91 12.91 0 1012.91 12.91 12.94 12.94 0 00-12.91-12.89z" fill="#0022CD"/>
    <path fill="#0022CD" d="M134.19 100.31h3.16v18.11h-3.16z"/>
    <path fill="#0022CD" d="M112.37 116.84h175.26V120H112.37z"/>
</svg>