<svg width="72" height="72" viewBox="0 0 72 72" fill="none" xmlns="http://www.w3.org/2000/svg">
    <path d="M12.87 51L6 69.43H65.5L58.5 51H51.67V59.85C51.67 60.26 51.33 60.6 50.92 60.6H39.58H31.85H20.49C20.29 60.6 20.1 60.52 19.96 60.38C19.82 60.24 19.74 60.05 19.74 59.85L19.75 51H12.87Z" fill="#CCFF69"/>
    <path d="M15 31.5611L36.0496 14L57 31.5611V35.3766H53.9674V59.6173H17.8344V35.2775H15V31.5611Z" fill="white" stroke="#0022CD" stroke-width="2" stroke-linejoin="round"/>
    <path d="M24.7723 45.24H26.9963V38.92L27.2363 37.832L26.4683 38.776L25.0443 39.752L24.1643 38.552L27.8123 35.608H28.9803V45.24H31.1562V47H24.7723V45.24ZM37.5624 35.608L39.1304 36.312L33.4184 49.24L31.8504 48.504L37.5624 35.608ZM47.0856 43.528C47.0856 44.0507 46.995 44.536 46.8136 44.984C46.643 45.432 46.3976 45.8213 46.0776 46.152C45.7576 46.4827 45.3683 46.744 44.9096 46.936C44.4616 47.128 43.9656 47.224 43.4216 47.224C42.867 47.224 42.355 47.1387 41.8856 46.968C41.427 46.7867 41.027 46.52 40.6856 46.168C40.3443 45.816 40.0776 45.3733 39.8856 44.84C39.6936 44.3067 39.5976 43.688 39.5976 42.984C39.5976 41.928 39.747 40.9733 40.0456 40.12C40.355 39.2667 40.7656 38.5253 41.2776 37.896C41.8003 37.256 42.403 36.744 43.0856 36.36C43.779 35.9653 44.5096 35.704 45.2776 35.576L45.7416 37.224C45.2083 37.3093 44.7176 37.4747 44.2696 37.72C43.8216 37.9653 43.4216 38.2587 43.0696 38.6C42.7283 38.9413 42.435 39.3253 42.1896 39.752C41.955 40.168 41.7896 40.6 41.6936 41.048C41.907 40.7813 42.1843 40.5573 42.5256 40.376C42.867 40.184 43.2936 40.088 43.8056 40.088C44.2856 40.088 44.7283 40.1627 45.1336 40.312C45.539 40.4613 45.8856 40.6853 46.1736 40.984C46.4616 41.272 46.6856 41.6293 46.8456 42.056C47.0056 42.4827 47.0856 42.9733 47.0856 43.528ZM45.0696 43.64C45.0696 42.4453 44.483 41.848 43.3096 41.848C42.883 41.848 42.5203 41.944 42.2216 42.136C41.9336 42.328 41.731 42.552 41.6136 42.808C41.5923 42.9253 41.5816 43.0267 41.5816 43.112C41.5816 43.1973 41.5816 43.2827 41.5816 43.368C41.5816 43.624 41.619 43.88 41.6936 44.136C41.7683 44.3813 41.875 44.6053 42.0136 44.808C42.163 45 42.3496 45.16 42.5736 45.288C42.7976 45.4053 43.0643 45.464 43.3736 45.464C43.875 45.464 44.2803 45.2933 44.5896 44.952C44.9096 44.6107 45.0696 44.1733 45.0696 43.64Z" fill="#0022CD"/>
</svg>
