<svg width="241" height="149" viewBox="0 0 241 149" xmlns="http://www.w3.org/2000/svg">
    <path d="M145.689 67.1941C144.436 67.1941 143.225 67.2358 141.973 67.3191C130.783 45.7442 108.236 31 82.2234 31C45.1044 31 15 61.0299 15 98.057C15 111.927 20.0522 126.296 27.3173 137C60.5115 137 159.05 136.875 190.532 136.875C193.413 130.628 195 123.714 195 116.383C195 89.2271 172.912 67.1941 145.689 67.1941Z" fill="#EBF0F6"/>
    <path d="M215.28 100.14C215.28 93.44 209.85 88 203.14 88C201.83 88 200.57 88.21 199.39 88.6C197.59 84.15 193.24 81 188.14 81C181.44 81 176 86.43 176 93.14C176 96.48 177.35 99.5 179.53 101.69C176.77 103.91 175 107.32 175 111.14C175 117.84 180.43 123.28 187.14 123.28C189.36 123.28 191.44 122.67 193.24 121.63C194.47 122.05 195.78 122.28 197.14 122.28C203.68 122.28 209 117.1 209.25 110.62C212.85 108.51 215.28 104.61 215.28 100.14Z" fill="#65D78D"/>
    <path d="M197.83 115.7C197.36 115.41 196.74 115.55 196.45 116.02L194.04 119.87V96.0701C194.04 95.5201 193.59 95.0701 193.04 95.0701C192.49 95.0701 192.04 95.5201 192.04 96.0701V110.55L188.73 107.42C188.33 107.04 187.7 107.06 187.32 107.46C186.94 107.86 186.96 108.49 187.36 108.87L192.04 113.31V134.59C192.04 135.14 192.49 135.59 193.04 135.59C193.59 135.59 194.04 135.14 194.04 134.59V123.48C194.15 123.4 194.25 123.31 194.32 123.19L198.14 117.08C198.44 116.61 198.3 115.99 197.83 115.7Z" fill="#133DBD"/>
    <path d="M209.163 62.2042C210.865 62.0326 212.439 61.2246 213.57 59.942C214.701 58.6594 215.306 56.9969 215.263 55.2873C215.221 53.5777 214.534 51.9472 213.341 50.7224C212.147 49.4976 210.535 48.7687 208.827 48.6819C209.112 46.2158 208.512 43.7287 207.135 41.6636C205.757 39.5985 203.691 38.0896 201.304 37.4056C198.918 36.7216 196.366 36.907 194.104 37.9288C191.841 38.9506 190.015 40.7423 188.95 42.9849C188.017 42.7864 187.053 42.7875 186.12 42.988C185.187 43.1886 184.308 43.5841 183.539 44.1486C182.77 44.7131 182.129 45.4338 181.658 46.2635C181.187 47.0931 180.897 48.013 180.807 48.9627C179.264 49.4294 177.939 50.4313 177.07 51.788C176.2 53.1447 175.843 54.7672 176.063 56.3635C176.284 57.9598 177.066 59.4252 178.27 60.4959C179.475 61.5666 181.022 62.1724 182.633 62.2042H209.163Z" fill="#EBF0F6"/>
    <path d="M6 136H240" stroke="#133DBD" stroke-width="2" stroke-linecap="round"/>
    <path d="M199 53L235 74.5L229.5 120.5L236 136.5H199V53Z" fill="white"/>
    <rect x="211" y="122" width="7" height="13" fill="#A8BEEA"/>
    <path d="M236.6 135.15L230.7 120.05L235.8 74.65C235.8 74.25 235.7 73.85 235.3 73.65L199.5 52.15C199.2 51.95 198.8 51.95 198.5 52.15C198.2 52.35 198 52.65 198 53.05V135.65C198 136.25 198.4 136.65 199 136.65H235.7C236 136.65 236.3 136.45 236.5 136.25C236.7 135.85 236.7 135.45 236.6 135.15ZM211.7 133.85V122.95H216.7V133.75H211.7V133.85ZM218.7 134.55V121.95C218.7 121.35 218.3 120.95 217.7 120.95H210.7C210.1 120.95 209.7 121.35 209.7 121.95V134.55H200V54.75L233.7 75.05L228.7 120.05C228.7 120.25 228.7 120.35 228.8 120.55L234.3 134.55H218.7Z" fill="#133DBD"/>
    <path d="M208 77.95C207.4 77.95 207 78.35 207 78.95V84.75C207 85.35 207.4 85.75 208 85.75C208.6 85.75 209 85.35 209 84.75V78.95C209 78.35 208.6 77.95 208 77.95Z" fill="#133DBD"/>
    <path d="M214.3 77.95C213.7 77.95 213.3 78.35 213.3 78.95V84.75C213.3 85.35 213.7 85.75 214.3 85.75C214.9 85.75 215.3 85.35 215.3 84.75V78.95C215.3 78.35 214.9 77.95 214.3 77.95Z" fill="#133DBD"/>
    <path d="M220.6 77.95C220 77.95 219.6 78.35 219.6 78.95V84.75C219.6 85.35 220 85.75 220.6 85.75C221.2 85.75 221.6 85.35 221.6 84.75V78.95C221.6 78.35 221.1 77.95 220.6 77.95Z" fill="#133DBD"/>
    <path d="M208 90.75C207.4 90.75 207 91.15 207 91.75V97.55C207 98.15 207.4 98.55 208 98.55C208.6 98.55 209 98.15 209 97.55V91.75C209 91.25 208.6 90.75 208 90.75Z" fill="#133DBD"/>
    <path d="M214.3 90.75C213.7 90.75 213.3 91.15 213.3 91.75V97.55C213.3 98.15 213.7 98.55 214.3 98.55C214.9 98.55 215.3 98.15 215.3 97.55V91.75C215.3 91.25 214.9 90.75 214.3 90.75Z" fill="#133DBD"/>
    <path d="M220.6 90.75C220 90.75 219.6 91.15 219.6 91.75V97.55C219.6 98.15 220 98.55 220.6 98.55C221.2 98.55 221.6 98.15 221.6 97.55V91.75C221.6 91.25 221.1 90.75 220.6 90.75Z" fill="#133DBD"/>
    <path d="M208 103.65C207.4 103.65 207 104.05 207 104.65V110.45C207 111.05 207.4 111.45 208 111.45C208.6 111.45 209 111.05 209 110.45V104.65C209 104.15 208.6 103.65 208 103.65Z" fill="#133DBD"/>
    <path d="M214.3 103.65C213.7 103.65 213.3 104.05 213.3 104.65V110.45C213.3 111.05 213.7 111.45 214.3 111.45C214.9 111.45 215.3 111.05 215.3 110.45V104.65C215.3 104.15 214.9 103.65 214.3 103.65Z" fill="#133DBD"/>
    <path d="M220.6 103.65C220 103.65 219.6 104.05 219.6 104.65V110.45C219.6 111.05 220 111.45 220.6 111.45C221.2 111.45 221.6 111.05 221.6 110.45V104.65C221.6 104.15 221.1 103.65 220.6 103.65Z" fill="#133DBD"/>
    <path d="M61.3255 62.5567V58.7102H51.3589V62.5567H43.6961V70.2397H46V80.2325H23.0016V87.9155H25.3055V135.56H46H66.6945V70.2397H68.9883V62.5567H61.3255Z" fill="white"/>
    <path d="M28.7512 76.0044H25.6861V79.8509H28.7512V76.0044Z" fill="white"/>
    <path d="M40.631 114.811H30.6644V135.56H40.631V114.811Z" fill="#A8BEEA"/>
    <path d="M54.0433 85.9872H50.2069V92.1335H54.0433V85.9872Z" fill="#A8BEEA"/>
    <path d="M50.2069 82.0001H54.0433C54.5942 82.0001 55.045 81.5481 55.045 80.9958V74.8494C55.045 74.297 54.5942 73.8451 54.0433 73.8451H50.2069C49.656 73.8451 49.2053 74.297 49.2053 74.8494V80.9958C49.2053 81.5481 49.656 82.0001 50.2069 82.0001ZM51.2086 75.8537H53.0417V79.9915H51.2086V75.8537Z" fill="#133DBD"/>
    <path d="M57.8798 82.0001H61.7162C62.2672 82.0001 62.7179 81.5481 62.7179 80.9958V74.8494C62.7179 74.297 62.2672 73.8451 61.7162 73.8451H57.8798C57.3289 73.8451 56.8782 74.297 56.8782 74.8494V80.9958C56.8782 81.5481 57.3189 82.0001 57.8798 82.0001ZM58.8815 75.8537H60.7146V79.9915H58.8815V75.8537Z" fill="#133DBD"/>
    <path d="M50.2069 93.1479H54.0433C54.5942 93.1479 55.045 92.696 55.045 92.1436V85.9972C55.045 85.4449 54.5942 84.9929 54.0433 84.9929H50.2069C49.656 84.9929 49.2053 85.4449 49.2053 85.9972V92.1436C49.2053 92.696 49.656 93.1479 50.2069 93.1479ZM51.2086 86.9915H53.0417V91.1292H51.2086V86.9915Z" fill="#133DBD"/>
    <path d="M57.8798 93.1479H61.7162C62.2672 93.1479 62.7179 92.696 62.7179 92.1436V85.9972C62.7179 85.4449 62.2672 84.9929 61.7162 84.9929H57.8798C57.3289 84.9929 56.8782 85.4449 56.8782 85.9972V92.1436C56.8782 92.696 57.3189 93.1479 57.8798 93.1479ZM58.8815 86.9915H60.7146V91.1292H58.8815V86.9915Z" fill="#133DBD"/>
    <path d="M50.2069 104.286H54.0433C54.5942 104.286 55.045 103.834 55.045 103.281V97.135C55.045 96.5827 54.5942 96.1307 54.0433 96.1307H50.2069C49.656 96.1307 49.2053 96.5827 49.2053 97.135V103.281C49.2053 103.834 49.656 104.286 50.2069 104.286ZM51.2086 98.1394H53.0417V102.277H51.2086V98.1394Z" fill="#133DBD"/>
    <path d="M57.8798 104.286H61.7162C62.2672 104.286 62.7179 103.834 62.7179 103.281V97.135C62.7179 96.5827 62.2672 96.1307 61.7162 96.1307H57.8798C57.3289 96.1307 56.8782 96.5827 56.8782 97.135V103.281C56.8782 103.834 57.3189 104.286 57.8798 104.286ZM58.8815 98.1394H60.7146V102.277H58.8815V98.1394Z" fill="#133DBD"/>
    <path d="M50.2069 115.434H54.0433C54.5942 115.434 55.045 114.982 55.045 114.429V108.283C55.045 107.731 54.5942 107.279 54.0433 107.279H50.2069C49.656 107.279 49.2053 107.731 49.2053 108.283V114.429C49.2053 114.982 49.656 115.434 50.2069 115.434ZM51.2086 109.287H53.0417V113.425H51.2086V109.287Z" fill="#133DBD"/>
    <path d="M57.8798 115.434H61.7162C62.2672 115.434 62.7179 114.982 62.7179 114.429V108.283C62.7179 107.731 62.2672 107.279 61.7162 107.279H57.8798C57.3289 107.279 56.8782 107.731 56.8782 108.283V114.429C56.8782 114.982 57.3189 115.434 57.8798 115.434ZM58.8815 109.287H60.7146V113.425H58.8815V109.287Z" fill="#133DBD"/>
    <path d="M50.2069 126.571H54.0433C54.5942 126.571 55.045 126.119 55.045 125.567V119.421C55.045 118.868 54.5942 118.416 54.0433 118.416H50.2069C49.656 118.416 49.2053 118.868 49.2053 119.421V125.567C49.2053 126.119 49.656 126.571 50.2069 126.571ZM51.2086 120.425H53.0417V124.563H51.2086V120.425Z" fill="#133DBD"/>
    <path d="M57.8798 126.571H61.7162C62.2672 126.571 62.7179 126.119 62.7179 125.567V119.421C62.7179 118.868 62.2672 118.416 61.7162 118.416H57.8798C57.3289 118.416 56.8782 118.868 56.8782 119.421V125.567C56.8782 126.119 57.3189 126.571 57.8798 126.571ZM58.8815 120.425H60.7146V124.563H58.8815V120.425Z" fill="#133DBD"/>
    <path d="M68.9883 61.5524H62.3272V58.7102C62.3272 58.1579 61.8765 57.7059 61.3255 57.7059H51.3589C50.808 57.7059 50.3573 58.1579 50.3573 58.7102V61.5524H43.6962C43.1452 61.5524 42.6945 62.0044 42.6945 62.5567V70.2397C42.6945 70.7921 43.1452 71.244 43.6962 71.244H44.9983V79.2283H29.7529V76.0044C29.7529 75.4521 29.3022 75.0001 28.7513 75.0001H25.6861C25.1352 75.0001 24.6845 75.4521 24.6845 76.0044V79.2283H23.0017C22.4508 79.2283 22 79.6802 22 80.2326V87.9155C22 88.4679 22.4508 88.9198 23.0017 88.9198H24.2938V135.56C24.2938 136.112 24.7446 136.564 25.2955 136.564H30.6644H40.6311H46H66.6945C67.2454 136.564 67.6962 136.112 67.6962 135.56V71.244H68.9983C69.5493 71.244 70 70.7921 70 70.2397V62.5567C69.99 61.9943 69.5392 61.5524 68.9883 61.5524ZM26.6878 77.0087H27.7496V78.8466H26.6878V77.0087ZM39.6294 134.556H31.6661V115.815H39.6294V134.556ZM44.9983 134.556H41.6327V114.811C41.6327 114.259 41.182 113.807 40.6311 113.807H30.6644C30.1135 113.807 29.6628 114.259 29.6628 114.811V134.556H26.2972V88.9198H44.9883V134.556H44.9983ZM44.9983 86.9112H25.2955H24.0033V81.2369H44.9983V86.9112ZM52.3606 59.7145H60.3239V61.5524H52.3606V59.7145ZM65.6928 134.556H47.0017V87.9155V80.2326V71.244H65.6928V134.556ZM67.9866 69.2354H66.6845H46H44.6978V63.561H51.3589H61.3255H67.9866V69.2354Z" fill="#133DBD"/>
    <path d="M81.3 97.45L83.7 93.85L85.5 91.05H75.5L70.9 105.05H76.4L81.3 97.45Z" fill="#315ED1"/>
    <path d="M100.3 93.85L102.6 97.45L107.6 105.05H113L108.5 91.05H98.5L100.3 93.85Z" fill="#315ED1"/>
    <path d="M77.5 106.45H75.5L76.4 105.05H70.9V134.05H77.5V106.45Z" fill="white"/>
    <path d="M107.6 105.05L108.5 106.45H106.5V134.05H113V105.05H107.6Z" fill="white"/>
    <path d="M114 104.85C114 104.75 114 104.75 114 104.85V104.65L109.5 90.75C109.4 90.35 109 90.05 108.5 90.05H99L92.8 80.55C92.4 79.95 91.5 79.95 91.1 80.55L84.9 90.05H75.5C75.1 90.05 74.7 90.35 74.5 90.75L70 104.65V104.75V104.85C70 104.95 70 104.95 70 105.05V134.05C70 134.65 70.4 135.05 71 135.05H76.6V136.05C76.6 136.65 77 137.05 77.6 137.05H106.6C107.2 137.05 107.6 136.65 107.6 136.05V135.05H113.2C113.8 135.05 114.2 134.65 114.2 134.05V105.05C114 104.95 114 104.85 114 104.85ZM110 99.05H104.9L102.9 96.05H109.1L110 99.05ZM108.1 104.05L106.2 101.05H110.7L111.7 104.05H108.1ZM107.8 92.05L108.4 94.05H101.6L101.1 93.25L100.3 92.05H107.8ZM73.3 101.05H77.8L75.9 104.05H72.3L73.3 101.05ZM74.9 96.05H81.1L79.1 99.15C78.9 99.05 78.8 99.05 78.7 99.05H73.9L74.9 96.05ZM83.6 92.05L82.3 94.05C82.2 94.05 82.1 93.95 82 93.95H75.5L76.1 91.95H83.6V92.05ZM71.9 133.05V106.05H74.5C74.5 106.15 74.4 106.25 74.4 106.45C74.4 106.45 74.4 106.45 74.4 106.55C74.4 106.65 74.4 106.85 74.5 106.95C74.7 107.25 75 107.45 75.4 107.45H76.4V133.05H71.9ZM105.5 135.05H78.5V134.05V106.45C78.5 105.85 78.1 105.45 77.5 105.45H77.3L82.1 98.05L86.3 91.65L92 82.95L106.7 105.55H106.5C105.9 105.55 105.5 105.95 105.5 106.55V134.05V135.05ZM107.5 133.05V107.45H108.5C108.9 107.45 109.2 107.25 109.4 106.95C109.5 106.85 109.5 106.65 109.5 106.55C109.5 106.55 109.5 106.55 109.5 106.45C109.5 106.35 109.5 106.15 109.4 106.05H112V133.05H107.5Z" fill="#133DBD"/>
    <path d="M108.5 106.45L102.6 97.45L100.3 93.85L92 81.05L83.7 93.85L81.3 97.45L75.5 106.45H77.5V136.05H106.5V106.45H108.5Z" fill="white"/>
    <path d="M108.5 106.45L102.6 97.45L100.3 93.85L92 81.05L83.7 93.85L81.3 97.45L75.5 106.45H77.5V136.05H106.5V106.45H108.5Z" fill="white"/>
    <path d="M106.5 137.05H77.5C76.9 137.05 76.5 136.65 76.5 136.05V107.45H75.5C75.1 107.45 74.8 107.25 74.6 106.95C74.4 106.65 74.4 106.25 74.6 105.95L91.1 80.45C91.5 79.85 92.4 79.85 92.8 80.45L109.3 105.85C109.5 106.15 109.5 106.55 109.3 106.85C109.1 107.15 108.8 107.35 108.4 107.35H107.4V136.05C107.5 136.55 107 137.05 106.5 137.05ZM78.5 135.05H105.5V106.45C105.5 105.85 105.9 105.45 106.5 105.45H106.7L92 82.85L77.3 105.45H77.5C78.1 105.45 78.5 105.85 78.5 106.45V135.05Z" fill="#133DBD"/>
    <path d="M97.9 111.05H85.9V131.05H97.9V111.05Z" fill="#C4D3E4"/>
    <path d="M97.9 132.05H85.9C85.3 132.05 84.9 131.65 84.9 131.05V111.05C84.9 110.45 85.3 110.05 85.9 110.05H97.9C98.5 110.05 98.9 110.45 98.9 111.05V131.05C98.9 131.55 98.5 132.05 97.9 132.05ZM86.9 130.05H96.9V112.05H86.9V130.05Z" fill="#133DBD"/>
    <path d="M92 104.05C94.2091 104.05 96 102.259 96 100.05C96 97.8409 94.2091 96.05 92 96.05C89.7909 96.05 88 97.8409 88 100.05C88 102.259 89.7909 104.05 92 104.05Z" fill="#EBF0F6"/>
    <path d="M92 105.05C89.2 105.05 87 102.85 87 100.05C87 97.25 89.2 95.05 92 95.05C94.8 95.05 97 97.25 97 100.05C97 102.85 94.8 105.05 92 105.05ZM92 97.05C90.3 97.05 89 98.35 89 100.05C89 101.75 90.3 103.05 92 103.05C93.7 103.05 95 101.75 95 100.05C95 98.35 93.7 97.05 92 97.05Z" fill="#133DBD"/>
    <path d="M98.7 131.05H85.2V134.05H98.7V131.05Z" fill="white"/>
    <path d="M98.7 135.05H85.2C84.6 135.05 84.2 134.65 84.2 134.05V131.05C84.2 130.45 84.6 130.05 85.2 130.05H98.7C99.3 130.05 99.7 130.45 99.7 131.05V134.05C99.7 134.55 99.2 135.05 98.7 135.05ZM86.2 133.05H97.7V132.05H86.2V133.05Z" fill="#133DBD"/>
    <path d="M101 134.05H82.8V137.05H101V134.05Z" fill="white"/>
    <path d="M101 138.05H82.8C82.2 138.05 81.8 137.65 81.8 137.05V134.05C81.8 133.45 82.2 133.05 82.8 133.05H101C101.6 133.05 102 133.45 102 134.05V137.05C102 137.55 101.6 138.05 101 138.05ZM83.8 136.05H100V135.05H83.8V136.05Z" fill="#133DBD"/>
    <g clip-path="url(#clip0_1_6019)">
    <path d="M182.6 74.2001H132V93.0001H182.6V74.2001Z" fill="white"/>
    <path d="M179.6 60H135L132 74H182.6L179.6 60Z" fill="white"/>
    <path d="M182.6 93.2001H132L130 105H184.6L182.6 93.2001Z" fill="#315ED1"/>
    <path d="M168 105H132V124H168V105Z" fill="#C4D3E4"/>
    <path d="M168.1 124H132V136H168.1V124Z" fill="white"/>
    <path d="M182.6 105.2H168.1V136H182.6V105.2Z" fill="white"/>
    <path d="M182.6 132H168.1V136H182.6V132Z" fill="white"/>
    <path d="M142.1 133H136.1C135.5 133 135.1 132.6 135.1 132V128C135.1 127.4 135.5 127 136.1 127H142.1C142.7 127 143.1 127.4 143.1 128V132C143.1 132.6 142.6 133 142.1 133ZM137.1 131H141.1V129H137.1V131Z" fill="#133DBD"/>
    <path d="M153.1 133H147.1C146.5 133 146.1 132.6 146.1 132V128C146.1 127.4 146.5 127 147.1 127H153.1C153.7 127 154.1 127.4 154.1 128V132C154.1 132.6 153.6 133 153.1 133ZM148.1 131H152.1V129H148.1V131Z" fill="#133DBD"/>
    <path d="M164.1 133H158.1C157.5 133 157.1 132.6 157.1 132V128C157.1 127.4 157.5 127 158.1 127H164.1C164.7 127 165.1 127.4 165.1 128V132C165.1 132.6 164.6 133 164.1 133ZM159.1 131H163.1V129H159.1V131Z" fill="#133DBD"/>
    <path d="M142.1 119C141.8 119 141.6 118.9 141.4 118.7L136.4 113.7C136 113.3 136 112.7 136.4 112.3C136.8 111.9 137.4 111.9 137.8 112.3L142.8 117.3C143.2 117.7 143.2 118.3 142.8 118.7C142.6 118.9 142.3 119 142.1 119Z" fill="white"/>
    <path d="M138.6 120.5C138.3 120.5 138.1 120.4 137.9 120.2L135.4 117.7C135 117.3 135 116.7 135.4 116.3C135.8 115.9 136.4 115.9 136.8 116.3L139.3 118.8C139.7 119.2 139.7 119.8 139.3 120.2C139.1 120.4 138.8 120.5 138.6 120.5Z" fill="white"/>
    <path d="M179 60H135L132 74H182.5L179 60Z" fill="#C4D3E4"/>
    <path d="M183.6 93V74.1V74C183.6 73.9 183.6 73.8 183.6 73.7L180.6 59.7C180.5 59.2 180.1 58.9 179.6 58.9H135C134.5 59 134.1 59.3 134 59.8L131 73.8C131 73.9 131 74 131 74.1V74.2V93L129 104.8C129 105.1 129 105.4 129.2 105.6C129.4 105.9 129.7 106 130 106H131V124V136C131 136.6 131.4 137 132 137H168.1H182.6C183.2 137 183.6 136.6 183.6 136V132V106H184.6C184.9 106 185.2 105.9 185.4 105.6C185.6 105.4 185.7 105.1 185.6 104.8L183.6 93ZM133.8 70.3C133.8 70.3 133.9 70.3 133.8 70.3H180.5C180.6 70.3 180.6 70.3 180.7 70.3L181.3 73.1H133.2L133.8 70.3ZM180.3 68.3H134.2L134.8 65.3H179.6L180.3 68.3ZM133 92V75.2H181.6V92H133ZM141.8 94.2V104H137.9V94.2H141.8ZM143.8 94.2H147.7V104H143.8V94.2ZM149.7 94.2H153.6V104H149.7V94.2ZM155.5 94.2H159.4V104H155.5V94.2ZM161.4 94.2H165.3V104H161.4V94.2ZM167.2 94.2H171.1V104H167.2V94.2ZM173.1 94.2H177V104H173.1V94.2ZM132.8 94.2H135.9V104H131.2L132.8 94.2ZM178.9 104V94.2H181.7L183.4 104H178.9ZM178.8 61L179.3 63.3H135.3L135.8 61H178.8ZM181.6 131H169.1V124V106.2H181.6V131ZM167.1 123H133V106.2H167.1V123ZM133 125H167.1V132V135H133V125ZM181.6 135H169.1V133H181.6V135Z" fill="#133DBD"/>
    <path d="M147.1 89H139.1V82C139.1 80.3 140.4 79 142.1 79H144.1C145.8 79 147.1 80.3 147.1 82V89Z" fill="#C4D3E4"/>
    <path d="M144.1 78H142.1C139.9 78 138.1 79.8 138.1 82V89C138.1 89.6 138.5 90 139.1 90H147.1C147.7 90 148.1 89.6 148.1 89V82C148.1 79.8 146.3 78 144.1 78ZM140.1 82C140.1 80.9 141 80 142.1 80V88H140.1V82ZM146.1 88H144.1V80C145.2 80 146.1 80.9 146.1 82V88Z" fill="#133DBD"/>
    <path d="M158.6 78H156.6C154.4 78 152.6 79.8 152.6 82V89C152.6 89.6 153 90 153.6 90H161.6C162.2 90 162.6 89.6 162.6 89V82C162.6 79.8 160.8 78 158.6 78ZM154.6 82C154.6 80.9 155.5 80 156.6 80V88H154.6V82ZM160.6 88H158.6V80C159.7 80 160.6 80.9 160.6 82V88Z" fill="#133DBD"/>
    <path d="M173.1 78H171.1C168.9 78 167.1 79.8 167.1 82V89C167.1 89.6 167.5 90 168.1 90H176.1C176.7 90 177.1 89.6 177.1 89V82C177.1 79.8 175.3 78 173.1 78ZM169.1 82C169.1 80.9 170 80 171.1 80V88H169.1V82ZM175.1 88H173.1V80C174.2 80 175.1 80.9 175.1 82V88Z" fill="#133DBD"/>
    </g>
    <path d="M127.02 113.02C128.959 113.02 130.53 111.449 130.53 109.51C130.53 107.571 128.959 106 127.02 106C125.081 106 123.51 107.571 123.51 109.51C123.51 111.449 125.081 113.02 127.02 113.02Z" fill="white"/>
    <path d="M127.02 113.31C123.14 113.31 120 116.46 120 120.34C120 124.22 123.14 127.36 127.02 127.36C130.9 127.36 134.04 124.22 134.04 120.34C134.04 116.46 130.9 113.31 127.02 113.31Z" fill="white"/>
    <path d="M135.04 120.34C135.04 116.96 132.94 114.07 129.98 112.89C130.92 112.06 131.53 110.86 131.53 109.51C131.53 107.02 129.51 105 127.02 105C124.53 105 122.51 107.02 122.51 109.51C122.51 110.86 123.12 112.06 124.06 112.89C121.1 114.07 119 116.96 119 120.34C119 124.42 122.07 127.8 126.02 128.29V135.84H128.02V128.29C131.97 127.79 135.04 124.42 135.04 120.34ZM127.02 107C128.4 107 129.53 108.13 129.53 109.51C129.53 110.89 128.41 112.02 127.02 112.02C125.63 112.02 124.51 110.9 124.51 109.51C124.51 108.12 125.64 107 127.02 107ZM127.02 126.36C123.7 126.36 121 123.66 121 120.34C121 117.02 123.7 114.32 127.02 114.32C130.34 114.32 133.04 117.02 133.04 120.34C133.04 123.66 130.34 126.36 127.02 126.36Z" fill="#133DBD"/>
    <path d="M18.53 125.06C27.107 125.06 34.06 118.107 34.06 109.53C34.06 100.953 27.107 94 18.53 94C9.95302 94 3 100.953 3 109.53C3 118.107 9.95302 125.06 18.53 125.06Z" fill="white"/>
    <path d="M35.06 109.53C35.06 100.41 27.64 93 18.53 93C9.42 93 2 100.42 2 109.53C2 118.28 8.83 125.44 17.44 126.01V135.98C17.44 136.53 17.89 136.98 18.44 136.98C18.99 136.98 19.44 136.53 19.44 135.98V126.02C28.12 125.54 35.06 118.34 35.06 109.53ZM19.47 124.01L22.94 118.46C23.23 117.99 23.09 117.37 22.62 117.08C22.15 116.79 21.53 116.93 21.24 117.4L19.42 120.31V105.46C19.42 104.91 18.97 104.46 18.42 104.46C17.87 104.46 17.42 104.91 17.42 105.46V111.94L14.11 108.81C13.71 108.43 13.08 108.45 12.7 108.85C12.32 109.25 12.34 109.88 12.74 110.26L17.42 114.7V123.52V123.53C17.32 123.68 17.29 123.85 17.28 124.02C9.84 123.39 3.98001 117.15 3.98001 109.55C3.98001 101.54 10.5 95.02 18.51 95.02C26.52 95.02 33.04 101.54 33.04 109.55C33.06 117.22 27.04 123.52 19.47 124.01Z" fill="#133DBD"/>
    <path d="M73 123C70.1 123 67.62 124.76 66.55 127.27C66.06 127.11 65.54 127 65 127C62.24 127 60 129.24 60 132C60 133.64 60.8 135.09 62.03 136H67.98C68.21 135.83 68.42 135.65 68.62 135.45C68.87 135.65 69.14 135.84 69.42 136H76.6C78.64 134.78 80.01 132.55 80.01 130C80 126.14 76.87 123 73 123Z" fill="#65D78D"/>
    <path d="M73 122C70.07 122 67.43 123.59 66.03 126.11C65.68 126.04 65.34 126 65 126C61.69 126 59 128.69 59 132C59 133.9 59.89 135.65 61.43 136.8L61.7 137H68.31L68.58 136.8C68.62 136.77 68.65 136.74 68.69 136.72C68.76 136.77 68.83 136.81 68.91 136.86L69.15 137H76.89L77.13 136.86C79.57 135.4 81.02 132.83 81.02 130C81 125.59 77.41 122 73 122ZM62.38 135C61.5 134.24 61 133.16 61 132C61 129.79 62.79 128 65 128C65.08 128 65.17 128 65.25 128.01C65.24 128.06 65.23 128.11 65.22 128.17C65.17 128.38 65.13 128.59 65.1 128.81C65.09 128.9 65.07 128.99 65.06 129.09C65.03 129.39 65 129.7 65 130.01C65 130.28 65.02 130.55 65.05 130.82C65.06 130.9 65.07 130.98 65.08 131.06C65.11 131.26 65.14 131.45 65.18 131.64C65.2 131.72 65.21 131.8 65.23 131.88C65.29 132.11 65.35 132.34 65.43 132.56C65.44 132.59 65.45 132.62 65.46 132.65C65.55 132.9 65.65 133.14 65.76 133.38C65.79 133.45 65.83 133.52 65.86 133.58C65.95 133.75 66.04 133.92 66.14 134.09C66.18 134.16 66.23 134.24 66.27 134.31C66.39 134.49 66.51 134.67 66.64 134.84C66.67 134.88 66.7 134.92 66.73 134.96C66.74 134.97 66.74 134.98 66.75 134.99H62.38V135ZM76.31 135H69.7C69.54 134.9 69.39 134.79 69.24 134.67C67.82 133.52 67 131.82 67 130C67 129.19 67.16 128.4 67.47 127.66C68.41 125.44 70.58 124 73 124C76.31 124 79 126.69 79 130C79 132.04 78 133.89 76.31 135Z" fill="#133DBD"/>
    <defs>
        <clipPath id="clip0_1_6019">
            <rect width="56.6" height="78" fill="white" transform="translate(129 59)"/>
        </clipPath>
    </defs>
</svg>
