<svg width="320" height="158" viewBox="0 0 320 158" xmlns="http://www.w3.org/2000/svg">
    <path d="M233.7 54.5C231.5 50.6 227.4 48 222.6 48C218.1 48 214.1 50.3 211.9 53.9C211.7 53.9 211.4 53.9 211.2 53.9C208 53.9 205.4 56.3 204.9 59.3C201.5 59.9 199 62.8 199 66.4C199 70.3 202.1 73.4 205.9 73.6H222.9C225.6 73.5 228 72.7 230.1 71.2C230.8 71.4 231.5 71.5 232.2 71.5C236.9 71.5 240.7 67.7 240.7 63C240.6 58.7 237.6 55.2 233.7 54.5Z" fill="#EBF0F6"/>
    <path d="M305.3 106.3C308.7 106 311.4 103 311.4 99.5C311.4 95.9 308.5 92.9 305 92.7C305 92.3 305.1 91.9 305.1 91.5C305.1 85.7 300.4 81 294.6 81C290.4 81 286.8 83.4 285.1 87C284.6 87 284.1 87 283.7 87C280.2 87 277.3 89.7 277 93.1C274.2 93.9 272.2 96.5 272.2 99.6C272.2 103.3 275.2 106.3 278.8 106.4H305.3V106.3Z" fill="#EBF0F6"/>
    <path d="M185.649 99.2728V45.9701H172.109V37.9128H157.528V45.9701H154.323V122.301L143.307 109.19V70.9531L130.449 55.6493H91.5882L72.6453 75.7204V5.2H69.7248L67.9809 0H34.4588L32.5212 5.2H29.4832V87.8997H22.4894L22.5315 82.6997L3.12453 87.8997L0 90.8997V156L207 155.945V108.57L199.189 99.2728H185.649Z" fill="#EBF0F6"/>
    <path d="M2 157L319 157" stroke="#133DBD" stroke-width="2" stroke-linecap="round"/>
    <g clip-path="url(#clip0_1_6002)">
        <path d="M170.6 94.2H120V113H170.6V94.2Z" fill="white"/>
        <path d="M167.6 80H123L120 94H170.6L167.6 80Z" fill="white"/>
        <path d="M170.6 113.2H120L118 125H172.6L170.6 113.2Z" fill="#315ED1"/>
        <path d="M156 125H120V144H156V125Z" fill="#A8BEEA"/>
        <path d="M156.1 144H120V156H156.1V144Z" fill="white"/>
        <path d="M170.6 125.2H156.1V156H170.6V125.2Z" fill="white"/>
        <path d="M170.6 152H156.1V156H170.6V152Z" fill="white"/>
        <path d="M130.1 153H124.1C123.5 153 123.1 152.6 123.1 152V148C123.1 147.4 123.5 147 124.1 147H130.1C130.7 147 131.1 147.4 131.1 148V152C131.1 152.6 130.6 153 130.1 153ZM125.1 151H129.1V149H125.1V151Z" fill="#133DBD"/>
        <path d="M141.1 153H135.1C134.5 153 134.1 152.6 134.1 152V148C134.1 147.4 134.5 147 135.1 147H141.1C141.7 147 142.1 147.4 142.1 148V152C142.1 152.6 141.6 153 141.1 153ZM136.1 151H140.1V149H136.1V151Z" fill="#133DBD"/>
        <path d="M152.1 153H146.1C145.5 153 145.1 152.6 145.1 152V148C145.1 147.4 145.5 147 146.1 147H152.1C152.7 147 153.1 147.4 153.1 148V152C153.1 152.6 152.6 153 152.1 153ZM147.1 151H151.1V149H147.1V151Z" fill="#133DBD"/>
        <path d="M130.1 139C129.8 139 129.6 138.9 129.4 138.7L124.4 133.7C124 133.3 124 132.7 124.4 132.3C124.8 131.9 125.4 131.9 125.8 132.3L130.8 137.3C131.2 137.7 131.2 138.3 130.8 138.7C130.6 138.9 130.3 139 130.1 139Z" fill="white"/>
        <path d="M126.6 140.5C126.3 140.5 126.1 140.4 125.9 140.2L123.4 137.7C123 137.3 123 136.7 123.4 136.3C123.8 135.9 124.4 135.9 124.8 136.3L127.3 138.8C127.7 139.2 127.7 139.8 127.3 140.2C127.1 140.4 126.8 140.5 126.6 140.5Z" fill="white"/>
        <path d="M167 80H123L120 94H170.5L167 80Z" fill="#A8BEEA"/>
        <path d="M171.6 113V94.1V94C171.6 93.9 171.6 93.8 171.6 93.7L168.6 79.7C168.5 79.2 168.1 78.9 167.6 78.9H123C122.5 79 122.1 79.3 122 79.8L119 93.8C119 93.9 119 94 119 94.1V94.2V113L117 124.8C117 125.1 117 125.4 117.2 125.6C117.4 125.9 117.7 126 118 126H119V144V156C119 156.6 119.4 157 120 157H156.1H170.6C171.2 157 171.6 156.6 171.6 156V152V126H172.6C172.9 126 173.2 125.9 173.4 125.6C173.6 125.4 173.7 125.1 173.6 124.8L171.6 113ZM121.8 90.3C121.8 90.3 121.9 90.3 121.8 90.3H168.5C168.6 90.3 168.6 90.3 168.7 90.3L169.3 93.1H121.2L121.8 90.3ZM168.3 88.3H122.2L122.8 85.3H167.6L168.3 88.3ZM121 112V95.2H169.6V112H121ZM129.8 114.2V124H125.9V114.2H129.8ZM131.8 114.2H135.7V124H131.8V114.2ZM137.7 114.2H141.6V124H137.7V114.2ZM143.5 114.2H147.4V124H143.5V114.2ZM149.4 114.2H153.3V124H149.4V114.2ZM155.2 114.2H159.1V124H155.2V114.2ZM161.1 114.2H165V124H161.1V114.2ZM120.8 114.2H123.9V124H119.2L120.8 114.2ZM166.9 124V114.2H169.7L171.4 124H166.9ZM166.8 81L167.3 83.3H123.3L123.8 81H166.8ZM169.6 151H157.1V144V126.2H169.6V151ZM155.1 143H121V126.2H155.1V143ZM121 145H155.1V152V155H121V145ZM169.6 155H157.1V153H169.6V155Z" fill="#133DBD"/>
        <path d="M135.1 109H127.1V102C127.1 100.3 128.4 99 130.1 99H132.1C133.8 99 135.1 100.3 135.1 102V109Z" fill="#A8BEEA"/>
        <path d="M132.1 98H130.1C127.9 98 126.1 99.8 126.1 102V109C126.1 109.6 126.5 110 127.1 110H135.1C135.7 110 136.1 109.6 136.1 109V102C136.1 99.8 134.3 98 132.1 98ZM128.1 102C128.1 100.9 129 100 130.1 100V108H128.1V102ZM134.1 108H132.1V100C133.2 100 134.1 100.9 134.1 102V108Z" fill="#133DBD"/>
        <path d="M146.6 98H144.6C142.4 98 140.6 99.8 140.6 102V109C140.6 109.6 141 110 141.6 110H149.6C150.2 110 150.6 109.6 150.6 109V102C150.6 99.8 148.8 98 146.6 98ZM142.6 102C142.6 100.9 143.5 100 144.6 100V108H142.6V102ZM148.6 108H146.6V100C147.7 100 148.6 100.9 148.6 102V108Z" fill="#133DBD"/>
        <path d="M161.1 98H159.1C156.9 98 155.1 99.8 155.1 102V109C155.1 109.6 155.5 110 156.1 110H164.1C164.7 110 165.1 109.6 165.1 109V102C165.1 99.8 163.3 98 161.1 98ZM157.1 102C157.1 100.9 158 100 159.1 100V108H157.1V102ZM163.1 108H161.1V100C162.2 100 163.1 100.9 163.1 102V108Z" fill="#133DBD"/>
    </g>
    <g clip-path="url(#clip1_1_6002)">
        <path d="M33.0538 107.17L50.7627 94.549V107.17L71.8064 94.7785V107.17L92.8501 95.1227V156.853L35.6987 156.738L33.0538 107.17Z" fill="white" stroke="#133DBD" stroke-width="2" stroke-miterlimit="10" stroke-linecap="round" stroke-linejoin="round"/>
        <path d="M31.099 71.9453H20.7496L16.1499 156.853H35.6987L31.099 71.9453Z" fill="white" stroke="#133DBD" stroke-width="2" stroke-miterlimit="10" stroke-linecap="round" stroke-linejoin="round"/>
        <path d="M42.5982 116.35V122.087" stroke="#133DBD" stroke-width="2" stroke-miterlimit="10"/>
        <path d="M52.9476 116.35V122.087" stroke="#133DBD" stroke-width="2" stroke-miterlimit="10"/>
        <path d="M63.2969 116.35V122.087" stroke="#133DBD" stroke-width="2" stroke-miterlimit="10"/>
        <path d="M73.6462 116.35V122.087" stroke="#133DBD" stroke-width="2" stroke-miterlimit="10"/>
        <path d="M83.9956 116.35V122.087" stroke="#133DBD" stroke-width="2" stroke-miterlimit="10"/>
        <path d="M42.5982 127.823V133.56" stroke="#133DBD" stroke-width="2" stroke-miterlimit="10"/>
        <path d="M52.9476 127.823V133.56" stroke="#133DBD" stroke-width="2" stroke-miterlimit="10"/>
        <path d="M63.2969 127.823V133.56" stroke="#133DBD" stroke-width="2" stroke-miterlimit="10"/>
        <path d="M73.6462 127.823V133.56" stroke="#133DBD" stroke-width="2" stroke-miterlimit="10"/>
        <path d="M83.9956 127.823V133.56" stroke="#133DBD" stroke-width="2" stroke-miterlimit="10"/>
        <path d="M42.5982 139.297V145.034" stroke="#133DBD" stroke-width="2" stroke-miterlimit="10"/>
        <path d="M52.9476 139.297V145.034" stroke="#133DBD" stroke-width="2" stroke-miterlimit="10"/>
        <path d="M63.2969 139.297V145.034" stroke="#133DBD" stroke-width="2" stroke-miterlimit="10"/>
        <path d="M73.6462 139.297V145.034" stroke="#133DBD" stroke-width="2" stroke-miterlimit="10"/>
        <path d="M83.9956 139.297V145.034" stroke="#133DBD" stroke-width="2" stroke-miterlimit="10"/>
        <path d="M32.2489 63.5693C34.1541 63.5693 35.6986 62.0282 35.6986 60.1271C35.6986 58.226 34.1541 56.6849 32.2489 56.6849C30.3436 56.6849 28.7991 58.226 28.7991 60.1271C28.7991 62.0282 30.3436 63.5693 32.2489 63.5693Z" fill="#A8BEEA"/>
        <path d="M52.9476 68.1589C57.3932 68.1589 60.9971 64.5629 60.9971 60.1271C60.9971 55.6913 57.3932 52.0953 52.9476 52.0953C48.502 52.0953 44.8981 55.6913 44.8981 60.1271C44.8981 64.5629 48.502 68.1589 52.9476 68.1589Z" fill="#A8BEEA"/>
        <path d="M73.0713 52.0953C75.9292 52.0953 78.2459 49.7837 78.2459 46.9321C78.2459 44.0804 75.9292 41.7688 73.0713 41.7688C70.2134 41.7688 67.8966 44.0804 67.8966 46.9321C67.8966 49.7837 70.2134 52.0953 73.0713 52.0953Z" fill="#C4D3E4"/>
        <path d="M78.246 32.5896C79.5161 32.5896 80.5458 31.5622 80.5458 30.2948C80.5458 29.0274 79.5161 28 78.246 28C76.9758 28 75.9461 29.0274 75.9461 30.2948C75.9461 31.5622 76.9758 32.5896 78.246 32.5896Z" fill="#C4D3E4"/>
    </g>
    <g clip-path="url(#clip2_1_6002)">
        <path d="M223 95.009H197V156.009H223V95.009Z" fill="white"/>
        <path d="M223 157.009H197C196.4 157.009 196 156.609 196 156.009V95.009C196 94.409 196.4 94.009 197 94.009H223C223.6 94.009 224 94.409 224 95.009V156.009C224 156.609 223.6 157.009 223 157.009ZM198 155.009H222V96.009H198V155.009Z" fill="#133DBD"/>
        <path d="M253.2 156.009H227.2V64.009L253.2 84.009V156.009Z" fill="white"/>
        <path d="M253.2 157.009H227.2C226.6 157.009 226.2 156.609 226.2 156.009V64.009C226.2 63.609 226.4 63.309 226.8 63.109C227.1 62.909 227.5 63.009 227.9 63.209L253.9 83.209C254.1 83.409 254.3 83.709 254.3 84.009V156.009C254.2 156.609 253.8 157.009 253.2 157.009ZM228.2 155.009H252.2V84.509L228.2 66.009V155.009Z" fill="#133DBD"/>
        <path d="M283.2 156.009H257.2V113.009L283.2 82.009V156.009Z" fill="white"/>
        <path d="M283.2 157.009H257.2C256.6 157.009 256.2 156.609 256.2 156.009V113.009C256.2 112.809 256.3 112.509 256.4 112.409L282.4 81.409C282.7 81.109 283.1 81.009 283.5 81.109C283.9 81.209 284.2 81.609 284.2 82.009V156.009C284.2 156.609 283.8 157.009 283.2 157.009ZM258.2 155.009H282.2V84.809L258.2 113.409V155.009Z" fill="#133DBD"/>
        <path d="M203.2 101.009H201.2V107.009H203.2V101.009Z" fill="#133DBD"/>
        <path d="M208.2 101.009H206.2V107.009H208.2V101.009Z" fill="#133DBD"/>
        <path d="M213.2 101.009H211.2V107.009H213.2V101.009Z" fill="#133DBD"/>
        <path d="M218.2 101.009H216.2V107.009H218.2V101.009Z" fill="#133DBD"/>
        <path d="M203.2 110.009H201.2V116.009H203.2V110.009Z" fill="#133DBD"/>
        <path d="M208.2 110.009H206.2V116.009H208.2V110.009Z" fill="#133DBD"/>
        <path d="M213.2 110.009H211.2V116.009H213.2V110.009Z" fill="#133DBD"/>
        <path d="M218.2 110.009H216.2V116.009H218.2V110.009Z" fill="#133DBD"/>
        <path d="M203.2 119.009H201.2V125.009H203.2V119.009Z" fill="#133DBD"/>
        <path d="M208.2 119.009H206.2V125.009H208.2V119.009Z" fill="#133DBD"/>
        <path d="M213.2 119.009H211.2V125.009H213.2V119.009Z" fill="#133DBD"/>
        <path d="M218.2 119.009H216.2V125.009H218.2V119.009Z" fill="#133DBD"/>
        <path d="M203.2 128.009H201.2V134.009H203.2V128.009Z" fill="#133DBD"/>
        <path d="M208.2 128.009H206.2V134.009H208.2V128.009Z" fill="#133DBD"/>
        <path d="M213.2 128.009H211.2V134.009H213.2V128.009Z" fill="#133DBD"/>
        <path d="M218.2 128.009H216.2V134.009H218.2V128.009Z" fill="#133DBD"/>
        <path d="M203.2 137.009H201.2V143.009H203.2V137.009Z" fill="#133DBD"/>
        <path d="M208.2 137.009H206.2V143.009H208.2V137.009Z" fill="#133DBD"/>
        <path d="M213.2 137.009H211.2V143.009H213.2V137.009Z" fill="#133DBD"/>
        <path d="M218.2 137.009H216.2V143.009H218.2V137.009Z" fill="#133DBD"/>
        <path d="M203.2 146.009H201.2V152.009H203.2V146.009Z" fill="#133DBD"/>
        <path d="M208.2 146.009H206.2V152.009H208.2V146.009Z" fill="#133DBD"/>
        <path d="M213.2 146.009H211.2V152.009H213.2V146.009Z" fill="#133DBD"/>
        <path d="M218.2 146.009H216.2V152.009H218.2V146.009Z" fill="#133DBD"/>
        <path d="M233.2 103.009H231.2V108.809H233.2V103.009Z" fill="#133DBD"/>
        <path d="M238.2 103.009H236.2V108.809H238.2V103.009Z" fill="#133DBD"/>
        <path d="M243.2 103.009H241.2V108.809H243.2V103.009Z" fill="#133DBD"/>
        <path d="M248.2 103.009H246.2V108.809H248.2V103.009Z" fill="#133DBD"/>
        <path d="M233.2 94.309H231.2V100.109H233.2V94.309Z" fill="#133DBD"/>
        <path d="M238.2 94.309H236.2V100.109H238.2V94.309Z" fill="#133DBD"/>
        <path d="M243.2 94.309H241.2V100.109H243.2V94.309Z" fill="#133DBD"/>
        <path d="M248.2 94.309H246.2V100.109H248.2V94.309Z" fill="#133DBD"/>
        <path d="M233.2 85.709H231.2V91.509H233.2V85.709Z" fill="#133DBD"/>
        <path d="M238.2 85.709H236.2V91.509H238.2V85.709Z" fill="#133DBD"/>
        <path d="M243.2 85.709H241.2V91.509H243.2V85.709Z" fill="#133DBD"/>
        <path d="M248.2 85.709H246.2V91.509H248.2V85.709Z" fill="#133DBD"/>
        <path d="M233.2 77.009H231.2V82.809H233.2V77.009Z" fill="#133DBD"/>
        <path d="M238.2 77.009H236.2V82.809H238.2V77.009Z" fill="#133DBD"/>
        <path d="M233.2 111.609H231.2V117.409H233.2V111.609Z" fill="#133DBD"/>
        <path d="M238.2 111.609H236.2V117.409H238.2V111.609Z" fill="#133DBD"/>
        <path d="M243.2 111.609H241.2V117.409H243.2V111.609Z" fill="#133DBD"/>
        <path d="M248.2 111.609H246.2V117.409H248.2V111.609Z" fill="#133DBD"/>
        <path d="M233.2 120.309H231.2V126.109H233.2V120.309Z" fill="#133DBD"/>
        <path d="M238.2 120.309H236.2V126.109H238.2V120.309Z" fill="#133DBD"/>
        <path d="M243.2 120.309H241.2V126.109H243.2V120.309Z" fill="#133DBD"/>
        <path d="M248.2 120.309H246.2V126.109H248.2V120.309Z" fill="#133DBD"/>
        <path d="M233.2 129.009H231.2V134.809H233.2V129.009Z" fill="#133DBD"/>
        <path d="M238.2 129.009H236.2V134.809H238.2V129.009Z" fill="#133DBD"/>
        <path d="M243.2 129.009H241.2V134.809H243.2V129.009Z" fill="#133DBD"/>
        <path d="M248.2 129.009H246.2V134.809H248.2V129.009Z" fill="#133DBD"/>
        <path d="M233.2 137.609H231.2V143.409H233.2V137.609Z" fill="#133DBD"/>
        <path d="M238.2 137.609H236.2V143.409H238.2V137.609Z" fill="#133DBD"/>
        <path d="M243.2 137.609H241.2V143.409H243.2V137.609Z" fill="#133DBD"/>
        <path d="M248.2 137.609H246.2V143.409H248.2V137.609Z" fill="#133DBD"/>
        <path d="M233.2 146.309H231.2V152.109H233.2V146.309Z" fill="#133DBD"/>
        <path d="M238.2 146.309H236.2V152.109H238.2V146.309Z" fill="#133DBD"/>
        <path d="M243.2 146.309H241.2V152.109H243.2V146.309Z" fill="#133DBD"/>
        <path d="M248.2 146.309H246.2V152.109H248.2V146.309Z" fill="#133DBD"/>
        <path d="M273.2 103.009H271.2V108.809H273.2V103.009Z" fill="#133DBD"/>
        <path d="M278.2 103.009H276.2V108.809H278.2V103.009Z" fill="#133DBD"/>
        <path d="M278.2 94.309H276.2V100.109H278.2V94.309Z" fill="#133DBD"/>
        <path d="M263.2 111.609H261.2V117.409H263.2V111.609Z" fill="#133DBD"/>
        <path d="M268.2 111.609H266.2V117.409H268.2V111.609Z" fill="#133DBD"/>
        <path d="M273.2 111.609H271.2V117.409H273.2V111.609Z" fill="#133DBD"/>
        <path d="M278.2 111.609H276.2V117.409H278.2V111.609Z" fill="#133DBD"/>
        <path d="M263.2 120.309H261.2V126.109H263.2V120.309Z" fill="#133DBD"/>
        <path d="M268.2 120.309H266.2V126.109H268.2V120.309Z" fill="#133DBD"/>
        <path d="M273.2 120.309H271.2V126.109H273.2V120.309Z" fill="#133DBD"/>
        <path d="M278.2 120.309H276.2V126.109H278.2V120.309Z" fill="#133DBD"/>
        <path d="M263.2 129.009H261.2V134.809H263.2V129.009Z" fill="#133DBD"/>
        <path d="M268.2 129.009H266.2V134.809H268.2V129.009Z" fill="#133DBD"/>
        <path d="M273.2 129.009H271.2V134.809H273.2V129.009Z" fill="#133DBD"/>
        <path d="M278.2 129.009H276.2V134.809H278.2V129.009Z" fill="#133DBD"/>
        <path d="M263.2 137.609H261.2V143.409H263.2V137.609Z" fill="#133DBD"/>
        <path d="M268.2 137.609H266.2V143.409H268.2V137.609Z" fill="#133DBD"/>
        <path d="M273.2 137.609H271.2V143.409H273.2V137.609Z" fill="#133DBD"/>
        <path d="M278.2 137.609H276.2V143.409H278.2V137.609Z" fill="#133DBD"/>
        <path d="M263.2 146.309H261.2V152.109H263.2V146.309Z" fill="#133DBD"/>
        <path d="M268.2 146.309H266.2V152.109H268.2V146.309Z" fill="#133DBD"/>
        <path d="M273.2 146.309H271.2V152.109H273.2V146.309Z" fill="#133DBD"/>
        <path d="M278.2 146.309H276.2V152.109H278.2V146.309Z" fill="#133DBD"/>
    </g>
    <path d="M305.005 124.842C307.78 124.842 310.03 122.624 310.03 119.891C310.03 117.157 307.78 114.939 305.005 114.939C302.23 114.939 299.979 117.157 299.979 119.891C299.979 122.624 302.23 124.842 305.005 124.842Z" fill="#65D78D"/>
    <path d="M305.005 125.255C299.455 125.255 294.963 129.68 294.963 135.148C294.963 140.615 299.455 145.04 305.005 145.04C310.555 145.04 315.046 140.615 315.046 135.148C315.046 129.68 310.545 125.255 305.005 125.255Z" fill="#65D78D"/>
    <path d="M316 135.148C316 130.3 312.748 126.185 308.285 124.804C309.906 123.752 310.974 121.939 310.974 119.891C310.974 116.64 308.295 114 305.005 114C301.705 114 299.026 116.64 299.026 119.891C299.026 121.939 300.094 123.752 301.715 124.804C297.252 126.185 294 130.3 294 135.138C294 140.794 298.425 145.444 304.042 145.924V156.991H305.949V145.933C311.575 145.454 316 140.803 316 135.148ZM305.005 115.888C307.246 115.888 309.067 117.683 309.067 119.9C309.067 122.108 307.246 123.902 305.005 123.902C302.764 123.902 300.933 122.108 300.933 119.9C300.933 117.692 302.754 115.888 305.005 115.888ZM305.005 144.101C299.998 144.101 295.917 140.08 295.917 135.148C295.917 130.215 299.998 126.194 305.005 126.194C310.011 126.194 314.093 130.215 314.093 135.148C314.093 140.08 310.011 144.101 305.005 144.101Z" fill="#133DBD"/>
    <defs>
        <clipPath id="clip0_1_6002">
            <rect width="56.6" height="78" fill="white" transform="translate(117 79)"/>
        </clipPath>
        <clipPath id="clip1_1_6002">
            <rect width="79" height="130" fill="white" transform="translate(15 28)"/>
        </clipPath>
        <clipPath id="clip2_1_6002">
           <rect width="88" height="94" fill="white" transform="translate(196 63)"/>
        </clipPath>
    </defs>
</svg>
