<svg width="131" height="131" viewBox="0 0 131 131" fill="none" xmlns="http://www.w3.org/2000/svg">
    <circle cx="66" cy="66" r="63" fill="white"/>
    <g clip-path="url(#clip0_1_2031)">
        <path d="M116.41 117.84C114.682 116.13 113.091 114.288 111.65 112.33C112.54 111.4 115.86 109.58 119.21 108.23C119.527 108.092 119.796 107.864 119.983 107.573C120.17 107.283 120.267 106.944 120.262 106.598C120.256 106.253 120.149 105.917 119.953 105.632C119.757 105.348 119.481 105.128 119.16 105L92.3502 95.11C92.0545 94.9933 91.7326 94.9594 91.419 95.0119C91.1055 95.0644 90.8121 95.2014 90.5705 95.408C90.3289 95.6146 90.1482 95.8832 90.0477 96.1848C89.9472 96.4865 89.9308 96.8098 90.0002 97.12L96.0002 125.12C96.0755 125.464 96.2528 125.777 96.5089 126.019C96.7651 126.261 97.0882 126.42 97.4361 126.475C97.7839 126.53 98.1403 126.479 98.4586 126.328C98.7769 126.177 99.0424 125.934 99.2202 125.63C100.637 123.079 102.331 120.691 104.27 118.51C105.979 120.191 107.573 121.985 109.04 123.88C112.27 127.83 113.17 128.88 114.47 128.88C116.47 128.88 120.36 125.53 120.36 123.28C120.41 122.11 119.51 121.11 116.41 117.84ZM117.32 124L115.19 125.84C115.04 125.977 114.843 126.051 114.64 126.05H114.58C114.361 126.035 114.156 125.934 114.01 125.77L106.17 116.77C105.939 116.495 105.652 116.274 105.327 116.12C105.003 115.967 104.649 115.885 104.29 115.88H104.22C103.848 115.894 103.483 115.992 103.152 116.164C102.822 116.337 102.534 116.582 102.31 116.88L98.0002 122.5L93.0002 98.24L116.33 106.56L110.23 110.05C109.908 110.233 109.629 110.484 109.415 110.786C109.2 111.089 109.055 111.435 108.99 111.8C108.933 112.166 108.958 112.539 109.064 112.894C109.169 113.248 109.353 113.575 109.6 113.85L117.44 122.85C117.588 123.021 117.664 123.244 117.65 123.47C117.612 123.683 117.494 123.872 117.32 124Z" fill="#0022CD"/>
        <path d="M109.55 113.85C109.302 113.575 109.119 113.248 109.014 112.894C108.908 112.539 108.883 112.166 108.94 111.8C109.005 111.435 109.15 111.089 109.365 110.787C109.579 110.484 109.857 110.233 110.18 110.05L116.28 106.56L93 98.24L98 122.5L102.27 116.92C102.494 116.622 102.782 116.377 103.112 116.204C103.443 116.032 103.807 115.934 104.18 115.92H104.25C104.609 115.925 104.963 116.007 105.287 116.16C105.611 116.314 105.899 116.535 106.13 116.81L113.97 125.81C114.116 125.974 114.321 126.075 114.54 126.09H114.6C114.803 126.091 114.999 126.017 115.15 125.88L117.32 124C117.482 123.856 117.582 123.656 117.6 123.44C117.613 123.214 117.538 122.991 117.39 122.82L109.55 113.85Z" fill="#CCFF69"/>
    </g>
    <path fill-rule="evenodd" clip-rule="evenodd" d="M65.5 3C30.9822 3 3 30.9822 3 65.5C3 100.018 30.9822 128 65.5 128C67.8047 128 70.0837 127.868 72.3301 127.612C73.1532 127.518 73.8965 128.109 73.9903 128.933C74.0842 129.756 73.493 130.499 72.6699 130.593C70.3116 130.862 67.9191 131 65.5 131C29.3253 131 0 101.675 0 65.5C0 29.3253 29.3253 0 65.5 0C101.675 0 131 29.3253 131 65.5C131 73.9399 129.308 82.0738 126.251 89.5666C125.938 90.3337 125.062 90.7018 124.295 90.3889C123.528 90.0759 123.16 89.2004 123.473 88.4334C126.389 81.2861 128 73.5363 128 65.5C128 30.9822 100.018 3 65.5 3Z" fill="#C4D3E4"/>
    <path d="M95.77 57.38L95.35 57.28C94.94 57.19 94.5 57.12 94.02 57.04C93.55 56.97 93.02 56.88 92.53 56.77L91.53 56.55V43.89C91.5009 37.0048 88.7419 30.4122 83.8583 25.5586C78.9747 20.705 72.3653 17.9867 65.48 18H64.56C57.6644 18 51.0512 20.7393 46.1752 25.6152C41.2993 30.4912 38.56 37.1044 38.56 44V56.64L37.56 56.87C37.07 56.98 36.56 57.06 36.08 57.13C35.59 57.21 35.16 57.28 34.75 57.37L34.32 57.48C32.828 57.7475 31.4775 58.5312 30.505 59.6938C29.5324 60.8565 28.9997 62.3242 29 63.84V98.46C29.0104 99.9636 29.5395 101.418 30.4978 102.576C31.4562 103.735 32.785 104.528 34.26 104.82L37.26 105.42C46.4124 107.151 55.7053 108.032 65.02 108.05C65.378 108.05 65.7214 107.908 65.9746 107.655C66.2278 107.401 66.37 107.058 66.37 106.7C66.37 106.342 66.2278 105.999 65.9746 105.745C65.7214 105.492 65.378 105.35 65.02 105.35C55.8988 105.372 46.7967 104.515 37.84 102.79L34.84 102.18C34.0156 102.01 33.2687 101.576 32.7115 100.945C32.1544 100.314 31.817 99.5192 31.75 98.68V63.74C31.7565 62.8736 32.0676 62.0371 32.6289 61.3771C33.1902 60.717 33.9659 60.2756 34.82 60.13L35.22 60.03C54.9624 56.34 75.2176 56.34 94.96 60.03L95.37 60.13C96.2104 60.2919 96.9687 60.7402 97.5157 61.3984C98.0627 62.0566 98.3646 62.8842 98.37 63.74V71.28C98.37 71.638 98.5122 71.9814 98.7654 72.2346C99.0186 72.4878 99.362 72.63 99.72 72.63C100.078 72.63 100.421 72.4878 100.675 72.2346C100.928 71.9814 101.07 71.638 101.07 71.28V63.74C101.056 62.2312 100.52 60.7738 99.5545 59.6146C98.5885 58.4555 97.2515 57.666 95.77 57.38ZM77.16 55L75.77 54.91C68.6458 54.4 61.4942 54.4 54.37 54.91L53 55V44.09C53.0105 40.998 54.2414 38.0353 56.4249 35.8461C58.6085 33.6569 61.5681 32.4184 64.66 32.4H65.48C68.5754 32.4132 71.5401 33.6493 73.728 35.8391C75.9158 38.0288 77.1495 40.9946 77.16 44.09V55ZM88.77 56.23L87.29 56C85.18 55.7 83.08 55.5 80.93 55.29L79.76 55.18V44C79.76 40.1835 78.2439 36.5234 75.5453 33.8247C72.8466 31.1261 69.1865 29.61 65.37 29.61H64.56C60.7509 29.631 57.104 31.1542 54.4115 33.8486C51.719 36.543 50.1984 40.1909 50.18 44V55.15L49 55.26C47.95 55.36 46.9 55.49 45.83 55.61C44.76 55.73 43.68 55.86 42.6 55.96L41.17 56.1V44C41.1806 37.8237 43.6388 31.9034 48.0061 27.5361C52.3734 23.1688 58.2937 20.7106 64.47 20.7H65.38C71.5703 20.692 77.5106 23.1414 81.8962 27.5102C86.2818 31.8789 88.7541 37.8097 88.77 44V56.23Z" fill="#0022CD"/>
    <path fill-rule="evenodd" clip-rule="evenodd" d="M94 77.5C94.8284 77.5 95.5 78.1716 95.5 79V84.5C95.5 85.3284 94.8284 86 94 86C93.1716 86 92.5 85.3284 92.5 84.5V79C92.5 78.1716 93.1716 77.5 94 77.5Z" fill="#0022CD"/>
    <path fill-rule="evenodd" clip-rule="evenodd" d="M72.0204 100.614C72.0093 99.7857 72.6718 99.1051 73.5001 99.094L78.9996 99.0202C79.828 99.009 80.5085 99.6715 80.5196 100.5C80.5307 101.328 79.8682 102.009 79.0399 102.02L73.5404 102.094C72.712 102.105 72.0315 101.442 72.0204 100.614Z" fill="#0022CD"/>
    <path fill-rule="evenodd" clip-rule="evenodd" d="M78.0518 84.0695C78.6327 83.4788 79.5824 83.4709 80.173 84.0518L84.0944 87.9083C84.685 88.4892 84.693 89.4389 84.1121 90.0296C83.5312 90.6202 82.5815 90.6281 81.9908 90.0472L78.0695 86.1907C77.4788 85.6098 77.4709 84.6601 78.0518 84.0695Z" fill="#0022CD"/>
    <path fill-rule="evenodd" clip-rule="evenodd" d="M110.083 84.0632C110.667 84.6504 110.665 85.6002 110.078 86.1845L106.179 90.0642C105.592 90.6485 104.642 90.6462 104.058 90.059C103.474 89.4718 103.476 88.5221 104.063 87.9377L107.962 84.0581C108.549 83.4737 109.499 83.476 110.083 84.0632Z" fill="#0022CD"/>
    <path fill-rule="evenodd" clip-rule="evenodd" d="M85.083 109.063C85.6673 109.65 85.665 110.6 85.0778 111.185L81.1793 115.064C80.5921 115.649 79.6424 115.646 79.058 115.059C78.4736 114.472 78.4759 113.522 79.0632 112.938L82.9617 109.058C83.5489 108.474 84.4986 108.476 85.083 109.063Z" fill="#0022CD"/>
    <defs>
        <clipPath id="clip0_1_2031">
            <rect width="30.41" height="33.86" fill="white" transform="translate(90 95)"/>
        </clipPath>
    </defs>
</svg>
