<svg width="128" height="128" viewBox="0 0 128 128" fill="none" xmlns="http://www.w3.org/2000/svg">
    <mask id="mask0_1_2419" style="mask-type:alpha" maskUnits="userSpaceOnUse" x="0" y="0" width="128" height="128">
        <circle cx="64" cy="64" r="64" fill="white"/>
    </mask>
    <g mask="url(#mask0_1_2419)">
        <circle cx="64" cy="64" r="62.5" fill="white" stroke="#A8BEEA" stroke-width="3"/>
        <path d="M105.182 89.9516L104.969 89.8937C103.765 89.5638 102.845 88.9923 102.156 88.1424C101.115 86.8557 100.901 85.4054 101.466 83.4375C102.178 80.9913 103.666 78.7351 106.151 76.3367L106.269 76.2222L106.387 76.338C108.699 78.6382 110.16 80.81 110.982 83.1731C111.414 84.4032 111.509 85.4003 111.282 86.3093V86.3106C110.813 88.1626 109.642 89.2932 107.595 89.8698L107.381 89.9302V84.2584C107.381 83.6516 106.888 83.1593 106.282 83.1593C105.675 83.1593 105.183 83.6516 105.183 84.2584V89.9516H105.182Z" fill="#E4EAF5"/>
        <path d="M87.7534 30.7066H59.519C58.9121 30.7066 58.4186 31.2002 58.4186 31.807C58.4186 32.4139 58.9121 32.9061 59.519 32.9061H87.7534V37.0457H65.8581C65.2512 37.0457 64.7589 37.5393 64.7589 38.1448C64.7589 38.7504 65.2525 39.2452 65.8581 39.2452H87.7534V43.3848H69.0245C68.4176 43.3848 67.9253 43.8784 67.9253 44.4839C67.9253 45.0895 68.4189 45.583 69.0245 45.583H87.7496V49.6219H78.2618C77.6549 49.6219 77.1627 50.1155 77.1627 50.7223V97.6316H70.0505V77.7368C70.0505 77.1299 69.557 76.6377 68.9514 76.6377H56.8902C56.2833 76.6377 55.7898 77.1312 55.7898 77.7368V97.6316H48.6021V26.4059H87.7534V30.7066Z" fill="#E4EAF5"/>
        <path d="M57.9926 78.8396H67.8506V97.634H57.9926V78.8396Z" fill="#E4EAF5"/>
        <path d="M98.6562 58.7169H102.061V62.1213H98.6562V58.7169Z" fill="#E4EAF5"/>
        <path d="M87.0317 58.7169H90.436V62.1213H87.0317V58.7169Z" fill="#E4EAF5"/>
        <path d="M87.0317 69.1051H90.436V72.5095H87.0317V69.1051Z" fill="#E4EAF5"/>
        <path d="M46.7186 24.5338C46.9276 24.3236 47.2059 24.209 47.5017 24.209H88.8525C89.4593 24.209 89.9516 24.7025 89.9516 25.3081V49.6245H110.742C111.348 49.6245 111.841 50.1181 111.841 50.7249V68.6846C111.841 69.2914 111.347 69.785 110.742 69.785C110.136 69.785 109.642 69.2914 109.642 68.6846V51.8215H79.3684V97.6304H105.184V92.1172H104.899C104.808 92.1172 104.72 92.1059 104.632 92.0832C102.888 91.6564 101.48 90.7965 100.448 89.5274C98.9422 87.6704 98.5859 85.4772 99.3564 82.8245C100.199 79.9162 101.947 77.2786 104.858 74.5251L105.571 73.8956C106 73.523 106.633 73.5318 107.044 73.9145C110.115 76.7687 112.027 79.4793 113.061 82.4481C113.633 84.0848 113.749 85.5251 113.412 86.8495C112.723 89.5715 110.782 91.3429 107.642 92.1134L107.386 92.1084V97.6304H110.74C111.347 97.6304 111.839 98.1239 111.839 98.7308C111.839 99.3376 111.346 99.8311 110.74 99.8311H47.4992C46.8924 99.8311 46.4001 99.3376 46.4001 98.7308V25.3056C46.4001 25.0148 46.5122 24.7403 46.7186 24.5338ZM106.281 83.1607C106.888 83.1607 107.38 83.6529 107.38 84.2598V89.9316L107.594 89.8711C109.641 89.2945 110.813 88.1639 111.28 86.3119V86.3107C111.508 85.4017 111.413 84.4045 110.981 83.1745C110.159 80.8113 108.698 78.6396 106.385 76.3394L106.268 76.2235L106.15 76.3381C103.665 78.7365 102.177 80.9926 101.465 83.4389C100.9 85.4067 101.114 86.8571 102.155 88.1438C102.844 88.9924 103.764 89.5652 104.968 89.8951L105.181 89.953V84.261C105.182 83.6529 105.675 83.1607 106.281 83.1607ZM57.9918 97.6342H67.8498V78.8397H57.9918V97.6342ZM48.6008 97.6342H55.7885V77.7394C55.7885 77.1325 56.282 76.6403 56.8889 76.6403H68.9501C69.557 76.6403 70.0493 77.1338 70.0493 77.7394V97.6342H77.1614V50.7249C77.1614 50.1181 77.6549 49.6245 78.2605 49.6245H87.7483V45.5856H69.0232C68.4163 45.5856 67.9241 45.0921 67.9241 44.4865C67.9241 43.8809 68.4176 43.3874 69.0232 43.3874H87.7534V39.2478H65.858C65.2512 39.2478 64.7589 38.7543 64.7589 38.1474C64.7589 37.5406 65.2524 37.0483 65.858 37.0483H87.7534V32.9087H59.5189C58.9121 32.9087 58.4186 32.4152 58.4186 31.8096C58.4186 31.204 58.9121 30.7092 59.5189 30.7092H87.7534V26.411H48.6008V97.6342Z" fill="#EBF0F6"/>
        <path d="M102.903 63.8035H97.8163C97.3517 63.8035 96.9752 63.427 96.9752 62.9625V57.8761C96.9752 57.4115 97.3517 57.0351 97.8163 57.0351H102.903C103.367 57.0351 103.744 57.4115 103.744 57.8761V62.9625C103.744 63.427 103.367 63.8035 102.903 63.8035ZM102.06 58.7171H98.656V62.1214H102.06V58.7171Z" fill="#EBF0F6"/>
        <path d="M92.1196 73.3504C92.1196 73.815 91.7432 74.1914 91.2786 74.1914H86.1922C85.7277 74.1914 85.3512 73.815 85.3512 73.3504V68.264C85.3512 67.7995 85.7277 67.423 86.1922 67.423H91.2786C91.7432 67.423 92.1196 67.7995 92.1196 68.264V73.3504ZM90.4363 69.1051H87.032V72.5094H90.4363V69.1051Z" fill="#EBF0F6"/>
        <path d="M91.2771 63.8035H86.1908C85.7262 63.8035 85.3498 63.427 85.3498 62.9625V57.8761C85.3498 57.4115 85.7262 57.0351 86.1908 57.0351H91.2771C91.7417 57.0351 92.1182 57.4115 92.1182 57.8761V62.9625C92.1194 63.427 91.743 63.8035 91.2771 63.8035ZM90.4361 58.7171H87.0318V62.1214H90.4361V58.7171Z" fill="#EBF0F6"/>
        <path d="M58.3858 69.6465V85.2869L46.9161 89.4577L35.4465 85.2869V69.6465L34.4039 75.9524C29.9007 76.8514 16.9956 72.5455 16.1353 71.7318L24.4982 59.2195C23.1079 56.7865 20.6402 50.4608 21.8915 44.6217C23.4555 37.3229 28.6689 22.2036 47.4375 21.6824C68.0816 23.3016 77.4114 42.2064 69.5705 57.6554L78.7186 72.3222C71.7127 75.812 69.3339 76.424 61.5137 76.7488C61.5137 76.7488 58.3858 72.36 58.3858 69.6465Z" fill="white"/>
        <path d="M1.03809 141.593H93.8381V115.004C88.7688 97.8988 78.3998 83.9999 59.1998 84.8C58.3998 85.6 53.8736 88.8 47.1998 88.8C37.1565 88.8 33.5998 84.8001 33.5998 84.8001C11.9998 87.2001 7.68602 96.0197 1.03809 113.44V141.593Z" fill="#315ED1"/>
        <rect x="57.6001" y="104" width="17.6" height="8" fill="white"/>
        <path d="M85.0104 94.273C84.3687 93.5369 83.6979 92.8319 83.0022 92.159C77.2711 86.6145 69.7806 83.244 61.5871 83.244H60.6126V77.2869L60.8915 77.291C60.9806 77.2931 61.0718 77.2952 61.16 77.2952C65.0747 77.2952 68.3737 76.8027 71.0889 76.1154C72.3206 75.8033 73.4341 75.4539 74.4231 75.0879C78.4302 73.6043 80.4663 71.8968 80.6125 71.7714C80.9806 71.4531 81.1568 70.9586 81.0697 70.4796C80.9847 70.0006 80.6478 69.5983 80.1895 69.4294C74.8005 67.4346 71.8934 59.3884 71.3647 57.796L71.3471 57.741L71.3689 57.6892C71.6332 57.0941 71.8665 56.4907 72.0842 55.8842C73.1023 53.0539 73.6259 50.1064 73.6259 47.0926C73.6259 33.5713 63.3195 22.3941 50.0761 20.8389C49.1658 20.7321 48.2431 20.671 47.3079 20.6565C47.1752 20.6544 47.0446 20.6461 46.9119 20.6461C32.1818 20.6461 20.198 32.5086 20.198 47.0915C20.198 47.5663 20.2115 48.0391 20.2374 48.5108C20.3701 50.9358 20.847 53.3141 21.6515 55.6219C21.9283 56.416 22.2383 57.2029 22.5939 57.9784L22.6157 58.0261L22.5763 58.1329C22.5711 58.1568 22.2238 59.4123 21.4867 61.0928C20.5017 63.3405 18.8139 66.345 16.3081 68.2039C15.63 68.7067 14.896 69.1328 14.0957 69.4283C13.6395 69.5983 13.3015 70.0006 13.2155 70.4796C13.1294 70.9596 13.3046 71.4541 13.6727 71.7703C13.935 71.9963 20.2602 77.2962 33.1273 77.2962L33.4165 77.29V83.243H32.7364L32.5892 83.2451C14.6192 83.2451 0 99.4225 0 119.306V120.489V123.257V141.02C0 141.78 0.618941 142.4 1.38095 142.4H92.7871C93.547 142.4 94.167 141.78 94.167 141.02V122.177V119.293C94.1691 109.582 90.6742 100.762 85.0104 94.273ZM76.7869 70.7356L76.9839 70.8715L76.7745 70.9855C75.6973 71.5744 74.0623 72.3354 71.881 72.9999C70.8308 73.3203 69.6479 73.6147 68.3426 73.8604C66.2577 74.2523 63.8555 74.5125 61.1237 74.5125C61.0024 74.5125 60.8801 74.5115 60.7567 74.5105L60.6105 74.5094V70.1768C60.6105 70.124 60.5949 70.0711 60.5794 70.011C60.569 69.9757 60.5587 69.9404 60.5524 69.9042L60.5307 69.8005L60.6209 69.7466C61.1392 69.4376 61.6431 69.1069 62.1397 68.7638C62.9587 68.1977 63.7477 67.5881 64.4983 66.9349C66.4173 65.2668 68.101 63.3322 69.4664 61.2007L69.6157 60.9674L69.7246 61.2204C71.035 64.2466 73.3231 68.3511 76.7869 70.7356ZM62.7441 29.559L62.8426 29.4574L62.9494 29.5518C67.5121 33.6335 70.2906 39.1987 70.7707 45.2212L70.7862 45.4172L70.5934 45.3767C61.1133 43.382 56.2406 38.2159 54.5859 36.0864L54.4874 35.9599L54.6212 35.8729C57.4111 34.0627 60.1263 31.9653 62.6861 29.6389C62.7068 29.6078 62.7224 29.5829 62.7441 29.559ZM23.7685 41.0949C26.5336 30.6818 36.0499 23.409 46.913 23.409C47.0457 23.409 47.1773 23.4215 47.309 23.4235C48.24 23.4391 49.1637 23.5075 50.0771 23.6288C53.8115 24.1203 57.3748 25.4691 60.5193 27.6245L60.6727 27.7313L60.5338 27.8557C57.212 30.8363 53.7151 33.3204 50.0771 35.3431C49.1637 35.8511 48.241 36.3259 47.309 36.7717C43.8846 38.4129 40.3462 39.6642 36.6968 40.4656C32.9894 41.2785 29.8501 41.4941 27.5672 41.4941C25.7498 41.4941 24.4766 41.3573 23.8909 41.2785L23.726 41.2567L23.7685 41.0949ZM24.572 55.6219C23.6991 53.3929 23.1548 51.0042 23.0055 48.5108C22.9775 48.0412 22.9588 47.5684 22.9588 47.0926C22.9588 46.1906 23.0252 45.244 23.1693 44.114L23.189 43.9626L23.3383 43.9864C24.0526 44.0984 25.586 44.2882 27.8274 44.2882C32.5332 44.2882 39.4401 43.4484 47.31 39.8737C48.2213 39.46 49.143 39.0173 50.0782 38.5269C50.7147 38.1931 51.3554 37.8437 52.0013 37.4726L52.1154 37.4083L52.1931 37.514C54.0479 40.0198 59.5603 46.0786 70.6846 48.2039L70.8111 48.2278L70.8038 48.3563C70.6608 51.0135 70.0563 53.537 69.1087 55.8832C67.6417 59.5139 65.3028 62.6863 62.3439 65.1642C61.5778 65.8049 60.7857 66.4155 59.9428 66.9577C58.255 68.0443 56.4137 68.9068 54.4709 69.5475C53.0598 70.013 51.5918 70.3479 50.0802 70.547C49.171 70.6662 48.2493 70.7439 47.3121 70.7595C47.1784 70.7616 47.0498 70.7782 46.9161 70.7782C39.7386 70.7782 33.2932 67.6368 28.8994 62.676C28.4484 62.1669 28.0171 61.6392 27.6107 61.0928C26.3646 59.4226 25.3413 57.5845 24.572 55.6219ZM57.8517 71.2022V83.8485L57.323 84.1688C56.4023 84.7287 55.4454 85.1973 54.4688 85.5943C53.0443 86.1729 51.5721 86.5803 50.0782 86.8136C49.1606 86.9567 48.2358 87.0375 47.31 87.051C47.2146 87.052 47.1193 87.0603 47.0239 87.0603C43.4927 87.0613 39.9605 86.1148 36.8057 84.2196L36.1795 83.8443V71.3017L36.3837 71.3888C39.7303 72.8154 43.2729 73.538 46.913 73.538C47.0457 73.538 47.1773 73.5297 47.309 73.5276C48.239 73.5142 49.1617 73.453 50.0771 73.3441C51.5649 73.1679 53.0298 72.8662 54.4678 72.4411C55.5429 72.1239 56.6035 71.7465 57.6454 71.2913L57.8517 71.2022ZM33.2735 74.5094C33.2361 74.5094 33.1978 74.5094 33.1605 74.5094C25.1619 74.5094 19.9326 72.3074 17.5211 70.9897L17.3106 70.8756L17.5086 70.7398C18.5599 70.0224 19.4764 69.1453 20.2965 68.2029C22.1564 66.0651 23.4606 63.5541 24.2921 61.5407L24.3978 61.2846L24.5502 61.5158C25.7705 63.3633 27.2417 65.0532 28.8953 66.5524C30.2721 67.7996 31.7743 68.9162 33.3844 69.8575L33.4694 69.9073L33.4559 70.0047C33.4508 70.0379 33.4425 70.069 33.4342 70.1011C33.4259 70.1302 33.4186 70.1561 33.4186 70.1768V74.5105H33.2735V74.5094ZM73.7886 139.639V129.958C73.7886 129.198 73.1686 128.578 72.4087 128.578C71.6488 128.578 71.0288 129.198 71.0288 129.958V139.64H22.7961V129.958C22.7961 129.198 22.1771 128.578 21.4162 128.578C20.6552 128.578 20.0362 129.198 20.0362 129.958V139.64H2.76294V123.257V120.489V119.304C2.76294 98.7341 18.2468 86.0028 32.5913 86.0028H34.416L35.3843 86.5855C38.9103 88.7025 42.9349 89.8212 47.0228 89.8212C47.1182 89.8212 47.2136 89.8129 47.309 89.8108C48.2369 89.7994 49.1617 89.7372 50.0771 89.6107C51.5731 89.4055 53.0433 89.0478 54.4678 88.5491C55.9555 88.0286 57.3924 87.3537 58.7547 86.5274L59.6152 86.0028H61.585C68.327 86.0039 75.3199 88.8176 80.8385 93.935C81.5466 94.5913 82.2309 95.2859 82.8871 96.0168C87.9942 101.711 91.4082 109.638 91.4082 119.293V122.177V139.639H73.7886Z" fill="#133DBD"/>
        <path d="M76.0014 112.307V103.456C76.0014 102.938 75.7028 102.503 75.2798 102.266C75.0807 102.156 74.864 102.076 74.6204 102.076H70.9296H58.1236C57.3627 102.076 56.7427 102.696 56.7427 103.456V112.307C56.7427 112.721 56.9345 113.081 57.2237 113.334C57.4663 113.546 57.7753 113.687 58.1236 113.687H61.377H74.6204C75.3824 113.687 76.0014 113.068 76.0014 112.307ZM73.2405 110.926H64.7371H60.1546H59.5035V104.836H67.5695H72.1519H73.2405V110.926Z" fill="#133DBD"/>
    </g>
</svg>
