<svg width="100" height="100" viewBox="0 0 100 100" fill="none" xmlns="http://www.w3.org/2000/svg">
    <mask id="mask0_1_2325" style="mask-type:alpha" maskUnits="userSpaceOnUse" x="0" y="0" width="100" height="100">
        <circle cx="50" cy="50" r="49.7656" fill="white"/>
    </mask>
    <g mask="url(#mask0_1_2325)">
        <circle cx="50" cy="50" r="48.2656" fill="white" stroke="#C4D3E4" stroke-width="3"/>
        <path d="M78.8831 70.2057L78.7009 70.1561C77.6706 69.8737 76.8827 69.3844 76.2932 68.6569C75.4018 67.5554 75.2186 66.3138 75.7025 64.6292C76.3115 62.5351 77.5854 60.6037 79.713 58.5505L79.8143 58.4525L79.9145 58.5516C81.8944 60.5207 83.1446 62.3799 83.8484 64.4029C84.2181 65.4559 84.3 66.3095 84.1049 67.0877V67.0887C83.704 68.6742 82.7017 69.642 80.9492 70.1356L80.766 70.1874V65.332C80.766 64.8125 80.3435 64.391 79.8251 64.391C79.3056 64.391 78.8842 64.8125 78.8842 65.332V70.2057H78.8831Z" fill="#EBF0F6"/>
        <path d="M63.9634 19.4884H39.793C39.2735 19.4884 38.851 19.9109 38.851 20.4304C38.851 20.9499 39.2735 21.3713 39.793 21.3713H63.9634V24.9151H45.2196C44.7001 24.9151 44.2787 25.3376 44.2787 25.856C44.2787 26.3744 44.7012 26.798 45.2196 26.798H63.9634V30.3417H47.9302C47.4108 30.3417 46.9893 30.7642 46.9893 31.2826C46.9893 31.801 47.4118 32.2235 47.9302 32.2235H63.9601V35.6811H55.838C55.3185 35.6811 54.897 36.1035 54.897 36.623V76.7802H48.8086V59.7491C48.8086 59.2296 48.3861 58.8082 47.8677 58.8082H37.5426C37.0231 58.8082 36.6006 59.2307 36.6006 59.7491V76.7802H30.4475V15.8067H63.9634V19.4884Z" fill="#EBF0F6"/>
        <path d="M38.4862 60.6932H46.9253V76.7824H38.4862V60.6932Z" fill="#EBF0F6"/>
        <path d="M73.2966 43.4669H76.2109V46.3813H73.2966V43.4669Z" fill="#EBF0F6"/>
        <path d="M63.3454 43.4669H66.2598V46.3813H63.3454V43.4669Z" fill="#EBF0F6"/>
        <path d="M63.3454 52.3598H66.2598V55.2741H63.3454V52.3598Z" fill="#EBF0F6"/>
        <path d="M28.8352 14.2041C29.0141 14.0241 29.2523 13.926 29.5056 13.926H64.9044C65.4239 13.926 65.8453 14.3485 65.8453 14.8669V35.6832H83.6428C84.1622 35.6832 84.5837 36.1057 84.5837 36.6252V51.9998C84.5837 52.5193 84.1612 52.9418 83.6428 52.9418C83.1243 52.9418 82.7018 52.5193 82.7018 51.9998V37.564H56.7854V76.7792H78.8854V72.0596H78.6408C78.5632 72.0596 78.4877 72.0499 78.4123 72.0305C76.9195 71.6651 75.7146 70.929 74.8308 69.8426C73.5418 68.2528 73.2367 66.3753 73.8963 64.1044C74.6174 61.6147 76.1144 59.3568 78.6063 56.9997L79.2163 56.4608C79.5838 56.1418 80.1259 56.1493 80.4773 56.4769C83.106 58.9203 84.7432 61.2408 85.628 63.7822C86.1184 65.1833 86.2176 66.4163 85.9287 67.5501C85.3392 69.8803 83.6772 71.3967 80.9892 72.0563L80.7705 72.052V76.7792H83.6417C84.1612 76.7792 84.5826 77.2017 84.5826 77.7212C84.5826 78.2407 84.1601 78.6632 83.6417 78.6632H29.5035C28.984 78.6632 28.5626 78.2407 28.5626 77.7212V14.8647C28.5626 14.6158 28.6585 14.3808 28.8352 14.2041ZM79.8242 64.3922C80.3437 64.3922 80.7651 64.8136 80.7651 65.3331V70.1885L80.9483 70.1368C82.7008 69.6432 83.7042 68.6753 84.104 67.0899V67.0888C84.2991 66.3107 84.2172 65.4571 83.8475 64.4041C83.1437 62.3811 81.8935 60.5219 79.9136 58.5528L79.8134 58.4536L79.7121 58.5517C77.5845 60.6049 76.3106 62.5363 75.7016 64.6304C75.2177 66.315 75.4009 67.5566 76.2923 68.6581C76.8818 69.3845 77.6697 69.8749 78.7 70.1573L78.8822 70.2069V65.3342C78.8833 64.8136 79.3057 64.3922 79.8242 64.3922ZM38.4857 76.7824H46.9248V60.6932H38.4857V76.7824ZM30.4465 76.7824H36.5996V59.7513C36.5996 59.2318 37.0221 58.8104 37.5416 58.8104H47.8668C48.3863 58.8104 48.8077 59.2328 48.8077 59.7513V76.7824H54.8961V36.6252C54.8961 36.1057 55.3186 35.6832 55.837 35.6832H63.9592V32.2257H47.9293C47.4098 32.2257 46.9884 31.8032 46.9884 31.2848C46.9884 30.7664 47.4109 30.3439 47.9293 30.3439H63.9635V26.8001H45.2197C44.7002 26.8001 44.2788 26.3776 44.2788 25.8582C44.2788 25.3387 44.7013 24.9172 45.2197 24.9172H63.9635V21.3735H39.7931C39.2736 21.3735 38.8511 20.951 38.8511 20.4326C38.8511 19.9142 39.2736 19.4906 39.7931 19.4906H63.9635V15.811H30.4465V76.7824Z" fill="#EBF0F6"/>
        <path d="M76.9324 47.8213H72.5781C72.1804 47.8213 71.8582 47.499 71.8582 47.1013V42.7471C71.8582 42.3494 72.1804 42.0271 72.5781 42.0271H76.9324C77.3301 42.0271 77.6523 42.3494 77.6523 42.7471V47.1013C77.6523 47.499 77.3301 47.8213 76.9324 47.8213ZM76.2113 43.467H73.297V46.3814H76.2113V43.467Z" fill="#EBF0F6"/>
        <path d="M67.7012 55.9941C67.7012 56.3918 67.3789 56.714 66.9812 56.714H62.627C62.2293 56.714 61.907 56.3918 61.907 55.9941V51.6398C61.907 51.2421 62.2293 50.9199 62.627 50.9199H66.9812C67.3789 50.9199 67.7012 51.2421 67.7012 51.6398V55.9941ZM66.2602 52.3598H63.3458V55.2741H66.2602V52.3598Z" fill="#EBF0F6"/>
        <path d="M66.9802 47.8213H62.626C62.2283 47.8213 61.906 47.499 61.906 47.1013V42.7471C61.906 42.3494 62.2283 42.0271 62.626 42.0271H66.9802C67.3779 42.0271 67.7002 42.3494 67.7002 42.7471V47.1013C67.7013 47.499 67.379 47.8213 66.9802 47.8213ZM66.2603 43.467H63.3459V46.3814H66.2603V43.467Z" fill="#EBF0F6"/>
        <path d="M5.59375 84.2958C5.59375 74.9469 13.1573 67.3414 22.4541 67.3414H26.8122V64.6726C21.5724 61.029 20.6387 55.5185 20.4918 53.1458H20.3252C19.0238 53.1458 17.8648 52.3142 17.4419 51.0769L16.6117 48.652C16.2004 47.4517 16.556 46.1436 17.5175 45.3205L17.9709 44.9318C17.421 43.8423 16.865 41.7587 17.1876 37.919C17.579 33.2678 13.8576 32.6116 13.4321 32.5524C13.0422 32.4985 12.7097 32.2333 12.5704 31.8635C12.4312 31.4926 12.5011 31.0753 12.758 30.7752C13.1851 30.2744 23.2742 18.6094 33.5446 18.6094C33.6176 18.6094 33.6901 18.6094 33.7637 18.6104C37.5691 18.6728 40.8896 20.3433 43.6416 23.5786C44.9303 23.5195 47.9214 23.7276 50.2678 26.2371C53.4905 29.6816 54.1389 35.9737 52.1954 44.937C52.1859 44.9813 52.1534 45.0144 52.1386 45.0566L52.4455 45.3195C53.407 46.1447 53.7622 47.4528 53.3508 48.6531L52.5207 51.0769C52.0972 52.3142 50.9387 53.1458 49.6378 53.1458H49.4713C49.3261 55.4907 48.4081 60.8988 43.3284 64.5423V67.3414H47.686C56.9833 67.3414 64.5469 74.9469 64.5469 84.2958V108.637C64.5469 109.235 64.0651 109.719 63.4709 109.719L6.66975 90.0194C6.07553 90.0194 5.59375 89.5355 5.59375 88.9375V84.2958Z" fill="white"/>
        <path d="M62.3947 107.555V84.2958C62.3947 76.1398 55.7963 69.5053 47.6859 69.5053H43.2584C42.7288 73.5722 39.256 76.722 35.0649 76.722C30.8791 76.722 27.411 73.5722 26.8819 69.5053H22.4539C14.344 69.5053 7.74561 76.1398 7.74561 84.2958V87.8555L62.3947 107.555Z" fill="#CCFF69"/>
        <path d="M22.4541 67.3121C13.1573 67.3121 5.59375 74.913 5.59375 84.2563V88.8952C5.59375 89.4929 6.07553 89.9766 6.66975 89.9766L63.4709 110.484C64.0651 110.484 64.5469 110.001 64.5469 109.403V84.2563C64.5469 74.913 56.9833 67.3121 47.686 67.3121H43.3284V64.5148C48.4081 60.8734 49.3261 55.4686 49.4713 53.1251H49.6378C50.9387 53.1251 52.0972 52.294 52.5207 51.0575L53.3508 48.635C53.7622 47.4355 53.407 46.1282 52.4455 45.3034L52.1386 45.0408C52.1534 44.9985 52.1859 44.9655 52.1954 44.9212C54.1389 35.9633 53.4905 29.675 50.2678 26.2325C47.9214 23.7245 44.9303 23.5165 43.6416 23.5756C40.8895 20.3422 37.5691 18.6727 33.7637 18.6104C33.6901 18.6094 33.6176 18.6094 33.5446 18.6094C23.2742 18.6094 13.1851 30.2674 12.758 30.7679C12.5011 31.0678 12.4312 31.4849 12.5704 31.8556C12.7097 32.2252 13.0422 32.4902 13.4321 32.5441C13.8576 32.6032 17.579 33.259 17.1876 37.9074C16.865 41.7448 17.421 43.8272 17.9709 44.916L17.5175 45.3045C16.556 46.1271 16.2004 47.4344 16.6117 48.634L17.4419 51.0575C17.8648 52.294 19.0238 53.1251 20.3252 53.1251H20.4918C20.6387 55.4963 21.5724 61.0036 26.8122 64.645V67.3121H22.4541ZM34.9815 67.1896C37.1067 67.1896 39.2311 66.7238 41.1764 65.7972V68.3934C41.1764 71.7736 38.4349 74.5244 35.0651 74.5244C31.701 74.5244 28.9642 71.7736 28.9642 68.3934V65.8794C30.861 66.7509 32.9203 67.1904 34.9815 67.1896ZM62.3949 84.2563V108.322L7.74575 87.8139V84.2563C7.74575 76.1052 14.3441 69.4748 22.4541 69.4748H26.8821C27.4112 73.5392 30.8793 76.6871 35.0651 76.6871C39.2561 76.6871 42.7289 73.5392 43.2585 69.4748H47.686C55.7965 69.4748 62.3949 76.1052 62.3949 84.2563ZM15.5363 30.939C18.3923 27.9854 26.1271 20.772 33.5441 20.772C33.6071 20.772 33.6701 20.772 33.7327 20.7731C37.0374 20.828 39.9307 22.376 42.3312 25.375C42.5698 25.6718 42.9507 25.8175 43.3295 25.7668C43.4577 25.7478 46.4965 25.337 48.7216 27.7362C51.3138 30.5335 51.8245 36.128 50.2042 43.9349L49.6252 44.202C51.4925 33.3339 43.4114 29.9252 43.3242 29.8904C43.1939 29.8376 43.0578 29.8122 42.9228 29.8122C42.6428 29.8122 42.3675 29.9221 42.162 30.129C42.1242 30.1681 38.2484 33.977 32.2474 33.4522C28.4992 33.128 24.6628 34.845 22.2271 37.9454C20.7129 39.8747 19.9616 42.0626 20.0404 44.1936C19.7888 43.8325 18.977 42.3108 19.3322 38.089C19.6774 33.9823 17.5327 31.8566 15.5363 30.939ZM22.6227 52.1029C22.639 51.8061 22.5329 51.5157 22.3296 51.3003C22.1262 51.0849 21.8441 50.9624 21.5483 50.9624H20.3252C19.9422 50.9624 19.6017 50.7185 19.4767 50.3542L18.646 47.9296C18.5252 47.577 18.6298 47.1926 18.9129 46.9508L19.5761 46.383L21.0003 47.0701C21.1485 47.1419 21.3077 47.1767 21.4658 47.1767C21.7227 47.1767 21.9765 47.0849 22.1772 46.9064C22.5014 46.6192 22.6233 46.1651 22.4867 45.7533C21.7979 43.6772 22.3191 41.3192 23.9168 39.2854C25.908 36.75 29.0257 35.3424 32.0598 35.6064C37.6831 36.1016 41.6477 33.3762 43.0909 32.1861C44.799 33.1681 49.5144 36.7827 47.0639 45.8114C46.9541 46.2158 47.0876 46.6487 47.4065 46.9201C47.7249 47.1926 48.1736 47.2517 48.5513 47.0785L50.2715 46.2844L51.0496 46.9497C51.3328 47.1926 51.4373 47.577 51.3165 47.9307L50.4863 50.3542C50.3613 50.7174 50.0203 50.9624 49.6378 50.9624H48.4147C48.1189 50.9624 47.8368 51.0849 47.6335 51.3003C47.4301 51.5157 47.324 51.8061 47.3403 52.1029C47.344 52.1715 47.6466 59.0301 41.7675 62.9837C37.8271 65.6345 32.576 65.7041 28.5587 63.2084C28.471 63.1365 28.3785 63.0721 28.271 63.0307C28.2461 63.0142 28.2199 63.0004 28.195 62.9837C22.3485 59.0512 22.6091 52.3817 22.6227 52.1029Z" fill="#0022CD"/>
    </g>
</svg>
