<svg width="68" height="68" viewBox="0 0 68 68" fill="none" xmlns="http://www.w3.org/2000/svg">
    <mask id="mask0_1_2326" style="mask-type:alpha" maskUnits="userSpaceOnUse" x="0" y="0" width="68" height="68">
        <circle cx="34" cy="34" r="33.5156" fill="white"/>
    </mask>
    <g mask="url(#mask0_1_2326)">
        <circle cx="34" cy="34" r="32.5156" fill="white" stroke="#C4D3E4" stroke-width="2"/>
        <path d="M53.4517 47.6079L53.3291 47.5745C52.6352 47.3844 52.1046 47.0548 51.7075 46.5649C51.1072 45.8231 50.9838 44.9869 51.3097 43.8524C51.7199 42.442 52.5778 41.1413 54.0107 39.7585L54.0789 39.6925L54.1464 39.7593C55.4798 41.0854 56.3218 42.3375 56.7958 43.6999C57.0447 44.4091 57.0999 44.984 56.9685 45.508V45.5088C56.6985 46.5765 56.0235 47.2283 54.8432 47.5607L54.7198 47.5956V44.3256C54.7198 43.9757 54.4353 43.6919 54.0861 43.6919C53.7363 43.6919 53.4525 43.9757 53.4525 44.3256V47.6079H53.4517Z" fill="#EBF0F6"/>
        <path d="M43.4038 13.4514H27.1258C26.7759 13.4514 26.4914 13.7359 26.4914 14.0858C26.4914 14.4356 26.7759 14.7195 27.1258 14.7195H43.4038V17.1061H30.7805C30.4306 17.1061 30.1468 17.3906 30.1468 17.7397C30.1468 18.0889 30.4313 18.3741 30.7805 18.3741H43.4038V20.7607H32.606C32.2561 20.7607 31.9723 21.0453 31.9723 21.3944C31.9723 21.7436 32.2569 22.0281 32.606 22.0281H43.4016V24.3566H37.9316C37.5817 24.3566 37.2979 24.6412 37.2979 24.991V52.0357H33.1976V40.5657C33.1976 40.2158 32.913 39.932 32.5639 39.932H25.6102C25.2603 39.932 24.9758 40.2166 24.9758 40.5657V52.0357H20.8319V10.9719H43.4038V13.4514Z" fill="#EBF0F6"/>
        <path d="M26.2458 41.2015H31.9292V52.0371H26.2458V41.2015Z" fill="#EBF0F6"/>
        <path d="M49.6896 29.6002H51.6523V31.5629H49.6896V29.6002Z" fill="#EBF0F6"/>
        <path d="M42.9875 29.6002H44.9502V31.5629H42.9875V29.6002Z" fill="#EBF0F6"/>
        <path d="M42.9875 35.5893H44.9502V37.552H42.9875V35.5893Z" fill="#EBF0F6"/>
        <path d="M19.7462 9.89253C19.8667 9.77132 20.0271 9.70526 20.1977 9.70526H44.0377C44.3875 9.70526 44.6713 9.9898 44.6713 10.3389V24.3581H56.6574C57.0072 24.3581 57.2911 24.6426 57.2911 24.9925V35.3468C57.2911 35.6967 57.0065 35.9812 56.6574 35.9812C56.3082 35.9812 56.0237 35.6967 56.0237 35.3468V25.6247H38.5698V52.035H53.4535V48.8564H53.2887C53.2364 48.8564 53.1856 48.8499 53.1348 48.8368C52.1295 48.5908 51.318 48.095 50.7228 47.3634C49.8547 46.2927 49.6492 45.0283 50.0935 43.4989C50.5791 41.8222 51.5873 40.3015 53.2655 38.7141L53.6763 38.3511C53.9238 38.1363 54.2889 38.1414 54.5255 38.362C56.2959 40.0075 57.3985 41.5703 57.9944 43.2819C58.3247 44.2255 58.3914 45.0559 58.1969 45.8195C57.7999 47.3888 56.6806 48.41 54.8703 48.8543L54.723 48.8514V52.035H56.6567C57.0065 52.035 57.2903 52.3195 57.2903 52.6694C57.2903 53.0192 57.0058 53.3038 56.6567 53.3038H20.1962C19.8464 53.3038 19.5625 53.0192 19.5625 52.6694V10.3375C19.5625 10.1698 19.6272 10.0116 19.7462 9.89253ZM54.0857 43.6927C54.4355 43.6927 54.7193 43.9765 54.7193 44.3264V47.5964L54.8427 47.5615C56.023 47.2291 56.6988 46.5773 56.968 45.5095V45.5088C57.0994 44.9847 57.0443 44.4099 56.7953 43.7007C56.3213 42.3383 55.4793 41.0862 54.1459 39.76L54.0784 39.6932L54.0102 39.7593C52.5773 41.1421 51.7194 42.4428 51.3093 43.8531C50.9834 44.9876 51.1068 45.8238 51.707 46.5656C52.1041 47.0549 52.6347 47.3851 53.3286 47.5753L53.4513 47.6087V44.3271C53.452 43.9765 53.7365 43.6927 54.0857 43.6927ZM26.2455 52.0371H31.9289V41.2016H26.2455V52.0371ZM20.8313 52.0371H24.9753V40.5672C24.9753 40.2173 25.2598 39.9335 25.6097 39.9335H32.5633C32.9132 39.9335 33.197 40.218 33.197 40.5672V52.0371H37.2974V24.9925C37.2974 24.6426 37.5819 24.3581 37.931 24.3581H43.4011V22.0296H32.6054C32.2556 22.0296 31.9718 21.745 31.9718 21.3959C31.9718 21.0468 32.2563 20.7622 32.6054 20.7622H43.404V18.3756H30.7806C30.4308 18.3756 30.147 18.0911 30.147 17.7412C30.147 17.3913 30.4315 17.1075 30.7806 17.1075H43.404V14.7209H27.126C26.7761 14.7209 26.4916 14.4364 26.4916 14.0873C26.4916 13.7381 26.7761 13.4529 27.126 13.4529H43.404V10.9748H20.8313V52.0371Z" fill="#EBF0F6"/>
        <path d="M52.1382 32.5327H49.2057C48.9379 32.5327 48.7208 32.3157 48.7208 32.0479V29.1154C48.7208 28.8476 48.9379 28.6305 49.2057 28.6305H52.1382C52.406 28.6305 52.623 28.8476 52.623 29.1154V32.0479C52.623 32.3157 52.406 32.5327 52.1382 32.5327ZM51.6526 29.6003H49.6899V31.563H51.6526V29.6003Z" fill="#EBF0F6"/>
        <path d="M45.9209 38.0368C45.9209 38.3047 45.7039 38.5217 45.436 38.5217H42.5036C42.2357 38.5217 42.0187 38.3047 42.0187 38.0368V35.1044C42.0187 34.8365 42.2357 34.6195 42.5036 34.6195H45.436C45.7039 34.6195 45.9209 34.8365 45.9209 35.1044V38.0368ZM44.9504 35.5892H42.9877V37.552H44.9504V35.5892Z" fill="#EBF0F6"/>
        <path d="M45.4355 32.5327H42.5031C42.2352 32.5327 42.0182 32.3157 42.0182 32.0479V29.1154C42.0182 28.8476 42.2352 28.6305 42.5031 28.6305H45.4355C45.7034 28.6305 45.9204 28.8476 45.9204 29.1154V32.0479C45.9211 32.3157 45.7041 32.5327 45.4355 32.5327ZM44.9507 29.6003H42.988V31.563H44.9507V29.6003Z" fill="#EBF0F6"/>
        <path d="M4.09375 57.0972C4.09375 50.801 9.18756 45.6789 15.4487 45.6789H18.3837V43.8816C14.8549 41.4277 14.226 37.7165 14.1271 36.1186H14.0149C13.1385 36.1186 12.3579 35.5586 12.0731 34.7253L11.514 33.0922C11.237 32.2838 11.4765 31.4028 12.124 30.8485L12.4294 30.5867C12.0591 29.853 11.6846 28.4497 11.9018 25.8638C12.1654 22.7313 9.65922 22.2894 9.37262 22.2496C9.11007 22.2133 8.88609 22.0347 8.79233 21.7856C8.69856 21.5359 8.74562 21.2548 8.91864 21.0527C9.20631 20.7154 16.001 12.8594 22.9178 12.8594C22.967 12.8594 23.0158 12.8594 23.0653 12.8601C25.6282 12.9021 27.8644 14.0271 29.7178 16.206C30.5857 16.1662 32.6001 16.3063 34.1803 17.9964C36.3508 20.3162 36.7874 24.5537 35.4786 30.5902C35.4721 30.6201 35.4503 30.6423 35.4403 30.6708L35.647 30.8478C36.2945 31.4036 36.5337 32.2845 36.2566 33.0929L35.6976 34.7253C35.4124 35.5586 34.6322 36.1186 33.7561 36.1186H33.6439C33.5461 37.6978 32.9279 41.34 29.5069 43.7938V45.6789H32.4416C38.7031 45.6789 43.7969 50.801 43.7969 57.0972V73.4901C43.7969 73.8928 43.4724 74.2188 43.0722 74.2188L4.8184 60.9519C4.41822 60.9519 4.09375 60.626 4.09375 60.2232V57.0972Z" fill="white"/>
        <path d="M42.3475 72.7614V57.0972C42.3475 51.6043 37.9037 47.1362 32.4415 47.1362H29.4597C29.1031 49.8752 26.7642 51.9964 23.9417 51.9964C21.1227 51.9964 18.787 49.8752 18.4307 47.1362H15.4486C9.98678 47.1362 5.54297 51.6043 5.54297 57.0972V59.4945L42.3475 72.7614Z" fill="#CCFF69"/>
        <path d="M15.4487 45.6592C9.18756 45.6592 4.09375 50.7782 4.09375 57.0706V60.1948C4.09375 60.5973 4.41822 60.923 4.8184 60.923L43.0722 74.7344C43.4724 74.7344 43.7969 74.4087 43.7969 74.0061V57.0706C43.7969 50.7782 38.7031 45.6592 32.4416 45.6592H29.5069V43.7753C32.9279 41.3229 33.5461 37.6829 33.6439 36.1046H33.7561C34.6322 36.1046 35.4124 35.5449 35.6976 34.7122L36.2566 33.0807C36.5337 32.2729 36.2945 31.3924 35.647 30.837L35.4403 30.6601C35.4503 30.6317 35.4721 30.6094 35.4786 30.5796C36.7874 24.5467 36.3508 20.3117 34.1803 17.9933C32.6001 16.3043 30.5857 16.1642 29.7178 16.204C27.8644 14.0264 25.6282 12.902 23.0653 12.8601C23.0158 12.8594 22.967 12.8594 22.9178 12.8594C16.001 12.8594 9.20631 20.7107 8.91864 21.0478C8.74562 21.2497 8.69856 21.5307 8.79233 21.7803C8.88609 22.0292 9.11007 22.2077 9.37262 22.244C9.65922 22.2838 12.1654 22.7254 11.9018 25.856C11.6846 28.4404 12.0591 29.8428 12.4294 30.5761L12.124 30.8377C11.4765 31.3917 11.237 32.2721 11.514 33.08L12.0731 34.7122C12.3579 35.5449 13.1385 36.1046 14.0149 36.1046H14.1271C14.226 37.7016 14.8549 41.4106 18.3837 43.8629V45.6592H15.4487ZM23.8855 45.5767C25.3168 45.5767 26.7475 45.263 28.0576 44.6389V46.3874C28.0576 48.6639 26.2113 50.5165 23.9418 50.5165C21.6762 50.5165 19.833 48.6639 19.833 46.3874V44.6943C21.1105 45.2812 22.4974 45.5772 23.8855 45.5767ZM42.3476 57.0706V73.2779L5.54306 59.4665V57.0706C5.54306 51.5811 9.98687 47.1157 15.4487 47.1157H18.4308C18.7871 49.8529 21.1228 51.9729 23.9418 51.9729C26.7643 51.9729 29.1032 49.8529 29.4598 47.1157H32.4416C37.9038 47.1157 42.3476 51.5811 42.3476 57.0706ZM10.7897 21.163C12.7132 19.1738 17.9223 14.3158 22.9174 14.3158C22.9599 14.3158 23.0023 14.3158 23.0445 14.3166C25.2701 14.3535 27.2186 15.3961 28.8353 17.4158C28.996 17.6157 29.2525 17.7138 29.5076 17.6797C29.5939 17.6669 31.6405 17.3902 33.139 19.006C34.8848 20.8899 35.2288 24.6577 34.1375 29.9153L33.7476 30.0953C35.0051 22.7759 29.5628 20.4803 29.5041 20.4568C29.4163 20.4212 29.3247 20.4042 29.2337 20.4042C29.0451 20.4042 28.8597 20.4781 28.7214 20.6175C28.6959 20.6438 26.0857 23.209 22.0442 22.8556C19.5199 22.6372 16.9362 23.7936 15.2958 25.8816C14.2761 27.1809 13.7701 28.6544 13.8232 30.0896C13.6537 29.8463 13.107 28.8216 13.3462 25.9783C13.5787 23.2126 12.1343 21.781 10.7897 21.163ZM15.5623 35.4162C15.5732 35.2164 15.5017 35.0208 15.3648 34.8757C15.2279 34.7307 15.0379 34.6482 14.8387 34.6482H14.0149C13.757 34.6482 13.5277 34.4839 13.4435 34.2385L12.8841 32.6057C12.8027 32.3682 12.8731 32.1093 13.0638 31.9464L13.5105 31.5641L14.4696 32.0268C14.5694 32.0751 14.6766 32.0986 14.7831 32.0986C14.9561 32.0986 15.127 32.0367 15.2622 31.9166C15.4805 31.7231 15.5626 31.4173 15.4706 31.14C15.0067 29.7418 15.3577 28.1538 16.4337 26.7841C17.7748 25.0765 19.8744 24.1286 21.9178 24.3063C25.7049 24.6399 28.375 22.8044 29.347 22.0029C30.4973 22.6643 33.6729 25.0986 32.0227 31.1791C31.9487 31.4515 32.0386 31.743 32.2534 31.9258C32.4678 32.1093 32.77 32.1491 33.0244 32.0325L34.1829 31.4976L34.7069 31.9457C34.8976 32.1093 34.968 32.3682 34.8866 32.6064L34.3275 34.2385C34.2433 34.4832 34.0137 34.6482 33.7561 34.6482H32.9324C32.7332 34.6482 32.5432 34.7307 32.4062 34.8757C32.2693 35.0208 32.1978 35.2164 32.2088 35.4162C32.2113 35.4624 32.4151 40.0815 28.4556 42.7441C25.8019 44.5294 22.2655 44.5763 19.56 42.8954C19.5009 42.847 19.4386 42.8037 19.3662 42.7757C19.3494 42.7646 19.3317 42.7553 19.315 42.7441C15.3776 40.0957 15.5531 35.604 15.5623 35.4162Z" fill="#0022CD"/>
    </g>
</svg>
