<svg width="132" height="132" viewBox="0 0 132 132" fill="none" xmlns="http://www.w3.org/2000/svg">
    <circle cx="66" cy="66" r="63" fill="white"/>
    <path fill-rule="evenodd" clip-rule="evenodd" d="M66 3.5C31.4822 3.5 3.5 31.4822 3.5 66C3.5 100.518 31.4822 128.5 66 128.5C68.3047 128.5 70.5837 128.368 72.8301 128.112C73.6532 128.018 74.3965 128.609 74.4903 129.433C74.5842 130.256 73.993 130.999 73.1699 131.093C70.8116 131.362 68.4191 131.5 66 131.5C29.8253 131.5 0.5 102.175 0.5 66C0.5 29.8253 29.8253 0.5 66 0.5C102.175 0.5 131.5 29.8253 131.5 66C131.5 74.4399 129.808 82.5738 126.751 90.0666C126.438 90.8337 125.562 91.2018 124.795 90.8889C124.028 90.5759 123.66 89.7004 123.973 88.9334C126.889 81.7861 128.5 74.0363 128.5 66C128.5 31.4822 100.518 3.5 66 3.5Z" fill="#C4D3E4"/>
    <path fill-rule="evenodd" clip-rule="evenodd" d="M96 80.4999C96.8284 80.4999 97.5 81.1715 97.5 81.9999V87.4999C97.5 88.3284 96.8284 88.9999 96 88.9999C95.1716 88.9999 94.5 88.3284 94.5 87.4999V81.9999C94.5 81.1715 95.1716 80.4999 96 80.4999Z" fill="#0022CD"/>
    <path fill-rule="evenodd" clip-rule="evenodd" d="M74.0201 103.614C74.009 102.786 74.6715 102.105 75.4999 102.094L80.9994 102.02C81.8277 102.009 82.5082 102.671 82.5194 103.5C82.5305 104.328 81.868 105.009 81.0397 105.02L75.5401 105.094C74.7118 105.105 74.0313 104.442 74.0201 103.614Z" fill="#0022CD"/>
    <path fill-rule="evenodd" clip-rule="evenodd" d="M80.0518 87.0694C80.6327 86.4788 81.5824 86.4708 82.173 87.0517L86.0944 90.9083C86.685 91.4891 86.693 92.4389 86.1121 93.0295C85.5312 93.6202 84.5815 93.6281 83.9908 93.0472L80.0695 89.1906C79.4788 88.6098 79.4709 87.66 80.0518 87.0694Z" fill="#0022CD"/>
    <path fill-rule="evenodd" clip-rule="evenodd" d="M112.083 87.0632C112.667 87.6504 112.665 88.6001 112.078 89.1845L108.179 93.0641C107.592 93.6485 106.642 93.6462 106.058 93.059C105.474 92.4718 105.476 91.522 106.063 90.9377L109.962 87.058C110.549 86.4737 111.499 86.476 112.083 87.0632Z" fill="#0022CD"/>
    <path fill-rule="evenodd" clip-rule="evenodd" d="M87.083 112.063C87.6673 112.65 87.665 113.6 87.0778 114.184L83.1793 118.064C82.5921 118.648 81.6424 118.646 81.058 118.059C80.4736 117.472 80.4759 116.522 81.0632 115.938L84.9617 112.058C85.5489 111.474 86.4986 111.476 87.083 112.063Z" fill="#0022CD"/>
    <path d="M89.3001 37.6C88.9001 31.3 85.8001 25.4 80.8001 21.5C75.9001 17.7 69.9001 16.3 64.0001 17.3C59.7001 18.1 55.9001 20.2 52.8001 23.4L52.5001 23.7L52.1001 23.6C51.9001 23.6 51.6001 23.6 51.4001 23.6C50.1001 23.6 48.9001 24 47.8001 24.7C46.0001 25.9 44.7001 28 44.3001 30.4C43.8001 34.2 44.8001 37.6 47.3001 40.9L47.7001 41.4L47.2001 41.9C45.9001 43.3 45.2001 45.2 45.2001 47.1C45.2001 51.2 48.5001 54.6 52.5001 54.7H53.0001L53.2001 55.2C54.4001 58 56.3001 60.4 58.8001 62L59.2001 62.2V68.3C59.2001 68.8 59.0001 69.3 58.6001 69.7C58.2001 70.2 57.7001 70.4 57.2001 70.4C43.4001 70.8 32.0001 82.1 32.0001 96.1C31.9001 97.6 32.4001 99 33.4001 100.1C34.4001 101.2 35.9001 101.8 37.5001 101.8H68.4001V87.9L68.9001 87.7C79.6001 83.8 82.3001 77.3 83.0001 74.6L83.4001 74.5H83.0001L83.1001 74.1C83.2001 73.7 83.2001 73.3 83.3001 72.8C83.4001 72.3 83.4001 71.8 83.4001 71.5V71.4C83.3001 71.4 83.1001 71.3 82.9001 71.3C82.5001 71.2 82.0001 71.1 81.4001 71.1C80.2001 70.9 78.9001 70.9 78.0001 70.9C77.5001 70.9 77.0001 70.6 76.6001 70.2C76.2001 69.8 76.0001 69.3 76.0001 68.8V62.6L76.3001 62.4C78.8001 60.6 80.8001 58.2 81.9001 55.4L82.1001 55L82.5001 54.9C86.2001 54.3 89.0001 51 89.0001 47.3C89.0001 47.1 89.0001 46.9 89.0001 46.6C89.0001 46.3 88.9001 46.1 88.9001 45.8L89.0001 44.5C89.4001 42.2 89.4001 39.9 89.3001 37.6ZM51.0001 52.1C48.9001 51.2 47.6001 49.3 47.6001 47.1C47.6001 45.8 48.0001 44.7 48.8001 43.8L49.3001 43.2L49.9001 43.7C50.2001 44 50.5001 44.2 50.8001 44.4L50.9001 44.5C51.2001 44.8 51.5001 45 51.8001 45.2L52.0001 45.4V49.4C52.0001 50 52.0001 50.6 52.1001 51.1L52.3001 52.6L51.0001 52.1ZM52.3001 42.4L51.5001 41.7C47.8001 38.5 46.2001 34.8 46.7001 30.6C46.9001 29 47.8001 27.6 49.0001 26.8C49.9001 26.2 50.8001 26 51.7001 26.1H52.1001L52.3001 26.4C53.0001 27.5 54.5001 29.5 56.7001 31.9L57.1001 32.3L52.3001 42.4ZM65.9001 99.2H37.5001C35.7001 99.2 34.3001 97.8 34.3001 96C34.3001 85.8 41.2001 76.8 51.1001 74L51.9001 73.8L52.1001 74.6C52.5001 76.5 54.8001 83.2 65.3001 87.3L65.8001 87.5V99.2H65.9001ZM77.9001 73.3C78.5001 73.3 79.1001 73.3 79.7001 73.4L80.5001 73.6L80.3001 74.4C79.9001 76.1 77.8001 81.8 67.8001 85.5L67.5001 85.6L67.2001 85.5C57.7001 82 55.2001 76.6 54.6001 74.4L54.3001 73.4H57.1001C59.4001 73.4 61.6001 71.2 61.6001 68.7V63.9L62.6001 64.2C65.9001 65.2 69.1001 65.2 72.4001 64.2L73.4001 63.9V68.7C73.5001 71.1 75.6001 73.3 77.9001 73.3ZM80.6001 49.5C80.6001 56.7 74.7001 62.5 67.6001 62.5C60.4001 62.5 54.6001 56.6 54.6001 49.5L54.7001 43.6L59.1001 34.4L59.9001 35.1C64.0001 38.8 70.8001 43.6 80.1001 45.2L80.8001 45.3V49.5H80.6001ZM84.2001 51.4L83.0001 52.2V50.7C83.0001 50.5 83.0001 50.2 83.1001 50C83.1001 49.8 83.1001 49.6 83.1001 49.4V45.5H83.9001C84.2001 45.5 84.6001 45.5 84.9001 45.6C85.2001 45.6 85.4001 45.6 85.7001 45.6H86.5001V46.4V46.5C86.5001 46.7 86.6001 46.9 86.6001 47.1C86.6001 48.9 85.7001 50.5 84.2001 51.4ZM86.8001 43.1H86.0001C68.3001 42.9 57.7001 29.7 54.8001 25.7L54.4001 25.2L54.9001 24.7C57.5001 22.1 60.6001 20.5 64.3001 19.8C69.5001 18.8 74.8001 20.1 79.0001 23.5C83.4001 26.9 86.2001 32.1 86.6001 37.8C86.7001 39.7 86.7001 41.3 86.7001 42.4V43.1H86.8001Z" fill="#0022CD"/>
    <g clip-path="url(#clip0_1_2079)">
        <path d="M117.41 118.84C115.682 117.13 114.09 115.288 112.65 113.33C113.54 112.4 116.86 110.58 120.21 109.23C120.527 109.092 120.796 108.864 120.983 108.573C121.17 108.283 121.267 107.944 121.261 107.598C121.256 107.253 121.149 106.917 120.953 106.632C120.757 106.348 120.481 106.128 120.16 106L93.35 96.11C93.0543 95.9933 92.7323 95.9594 92.4188 96.0119C92.1052 96.0644 91.8119 96.2014 91.5703 96.408C91.3287 96.6146 91.1479 96.8832 91.0475 97.1848C90.947 97.4865 90.9306 97.8098 91 98.12L97 126.12C97.0752 126.464 97.2525 126.777 97.5087 127.019C97.7649 127.261 98.088 127.42 98.4358 127.475C98.7837 127.53 99.14 127.479 99.4584 127.328C99.7767 127.177 100.042 126.934 100.22 126.63C101.637 124.079 103.331 121.691 105.27 119.51C106.979 121.191 108.573 122.985 110.04 124.88C113.27 128.83 114.17 129.88 115.47 129.88C117.47 129.88 121.36 126.53 121.36 124.28C121.41 123.11 120.51 122.11 117.41 118.84ZM118.32 125L116.19 126.84C116.039 126.977 115.843 127.051 115.64 127.05H115.58C115.361 127.035 115.156 126.934 115.01 126.77L107.17 117.77C106.939 117.495 106.651 117.274 106.327 117.12C106.003 116.967 105.649 116.885 105.29 116.88H105.22C104.847 116.894 104.483 116.992 104.152 117.164C103.822 117.337 103.534 117.582 103.31 117.88L99 123.5L94 99.24L117.33 107.56L111.23 111.05C110.907 111.233 110.629 111.484 110.415 111.786C110.2 112.089 110.055 112.435 109.99 112.8C109.933 113.166 109.958 113.539 110.064 113.894C110.169 114.248 110.352 114.575 110.6 114.85L118.44 123.85C118.588 124.021 118.663 124.244 118.65 124.47C118.612 124.683 118.494 124.872 118.32 125Z" fill="#0022CD"/>
        <path d="M110.55 114.85C110.302 114.575 110.119 114.248 110.014 113.894C109.908 113.539 109.883 113.166 109.94 112.8C110.005 112.435 110.15 112.089 110.365 111.787C110.579 111.484 110.857 111.233 111.18 111.05L117.28 107.56L94 99.24L99 123.5L103.27 117.92C103.494 117.622 103.782 117.377 104.112 117.204C104.443 117.032 104.807 116.934 105.18 116.92H105.25C105.609 116.925 105.963 117.007 106.287 117.16C106.611 117.314 106.899 117.535 107.13 117.81L114.97 126.81C115.116 126.974 115.321 127.075 115.54 127.09H115.6C115.803 127.091 115.999 127.017 116.15 126.88L118.32 125C118.482 124.856 118.582 124.656 118.6 124.44C118.613 124.214 118.538 123.991 118.39 123.82L110.55 114.85Z" fill="#CCFF69"/>
    </g>
    <defs>
        <clipPath id="clip0_1_2079">
            <rect width="30.41" height="33.86" fill="white" transform="translate(91 96)"/>
        </clipPath>
    </defs>
</svg>
