<svg width="417" height="168" viewBox="0 0 417 168" fill="none" xmlns="http://www.w3.org/2000/svg">
    <ellipse cx="165.887" cy="80.5298" rx="85.3857" ry="80.5298" fill="#E4EAF5"/>
    <ellipse cx="256.733" cy="92.3869" rx="65.0321" ry="60.7679" fill="#E4EAF5"/>
    <ellipse cx="321.765" cy="113.137" rx="42.6929" ry="40.0179" fill="#E4EAF5"/>
    <ellipse cx="94.4009" cy="112.149" rx="42.6929" ry="40.0179" fill="#E4EAF5"/>
    <path d="M209.076 166C285.036 166 346.614 156.364 346.614 144.478C346.614 132.592 285.036 122.956 209.076 122.956C133.116 122.956 71.5377 132.592 71.5377 144.478C71.5377 156.364 133.116 166 209.076 166Z" fill="#A8BEEA"/>
    <path d="M244.81 86.32H179.697L171.804 111.22H252.702L244.81 86.32Z" fill="white"/>
    <path d="M250.923 104.954V109.123H249.624V112.149H253.969V101.928H250.818L251.371 104.954H250.923Z" fill="#133DBD"/>
    <path d="M174.326 109.123V104.954H173.879L174.432 101.928H171.281V112.149H175.631V109.123H174.326Z" fill="#133DBD"/>
    <path d="M178.671 115.669V165.469C185.675 165.716 192.879 165.883 200.244 165.957V164.296C200.247 161.111 201.522 158.058 203.788 155.806C206.054 153.554 209.127 152.287 212.333 152.284H212.917C216.122 152.287 219.195 153.554 221.461 155.806C223.727 158.058 225.002 161.111 225.005 164.296V165.858C232.389 165.722 239.599 165.5 246.579 165.191V115.669H178.671ZM204.01 148.091H185.041V132.936C185.041 130.436 186.04 128.039 187.819 126.272C189.598 124.505 192.01 123.512 194.526 123.512C197.041 123.512 199.454 124.505 201.232 126.272C203.011 128.039 204.01 130.436 204.01 132.936V148.091ZM219.791 148.091V132.936C219.791 130.436 220.79 128.039 222.569 126.272C224.348 124.505 226.76 123.512 229.275 123.512C231.791 123.512 234.203 124.505 235.982 126.272C237.761 128.039 238.76 130.436 238.76 132.936V148.091H219.791Z" fill="white"/>
    <path d="M212.917 155.31H212.333C209.934 155.312 207.634 156.259 205.938 157.943C204.241 159.628 203.286 161.912 203.283 164.296V166C205.21 166 207.137 166 209.076 166C213.422 166 217.719 165.969 221.966 165.907V164.296C221.963 161.912 221.008 159.628 219.312 157.943C217.615 156.259 215.315 155.312 212.917 155.31Z" fill="#A8BEEA"/>
    <path d="M195.843 131.262C193.817 131.262 192.17 130.114 192.17 128.706C192.209 128.246 192.376 127.807 192.653 127.437C192.929 127.067 193.305 126.781 193.736 126.612C192.181 126.801 190.748 127.548 189.706 128.713C188.665 129.877 188.087 131.378 188.081 132.936V145.089H200.996V132.936C200.989 131.464 200.466 130.04 199.517 128.909C199.336 130.219 197.776 131.262 195.843 131.262Z" fill="white"/>
    <path d="M231.861 131.262C229.835 131.262 228.188 130.114 228.188 128.706C228.226 128.236 228.398 127.787 228.685 127.412C228.971 127.037 229.359 126.751 229.804 126.587C229.624 126.587 229.456 126.532 229.275 126.532C227.568 126.535 225.931 127.211 224.724 128.411C223.517 129.612 222.838 131.239 222.836 132.936V145.089H235.721V132.936C235.714 131.924 235.462 130.928 234.987 130.033C234.581 130.443 234.093 130.764 233.555 130.975C233.016 131.187 232.439 131.285 231.861 131.262Z" fill="white"/>
    <path d="M246.579 112.149H178.671V115.675H246.579V112.149Z" fill="#65D78D"/>
    <path d="M247.374 112.149V165.154L249.624 165.049V112.149H247.374Z" fill="#133DBD"/>
    <path d="M177.875 112.149H175.625V165.382L177.875 165.469V112.149Z" fill="#133DBD"/>
    <path d="M247.374 109.123V111.352V112.149H249.624V109.123H247.374Z" fill="#133DBD"/>
    <path d="M177.875 111.352V109.123H175.631V112.149H177.875V111.352Z" fill="#133DBD"/>
    <path d="M177.875 115.669V165.444H178.671V115.669H177.875Z" fill="#133DBD"/>
    <path d="M246.579 115.669V165.191L247.374 165.154V115.669H246.579Z" fill="#133DBD"/>
    <path d="M247.381 109.123H177.875V111.352H247.381V109.123Z" fill="#133DBD"/>
    <path d="M178.671 112.149H177.875V115.675H178.671V112.149Z" fill="#133DBD"/>
    <path d="M247.374 112.149H246.579V115.675H247.374V112.149Z" fill="#133DBD"/>
    <path d="M177.875 111.352V112.149H178.671H246.579H247.374V111.352H177.875Z" fill="#133DBD"/>
    <path d="M212.917 152.284H212.333C209.128 152.287 206.055 153.554 203.788 155.806C201.522 158.058 200.247 161.111 200.244 164.296V165.957H203.283V164.271C203.286 161.888 204.241 159.603 205.938 157.919C207.634 156.234 209.934 155.287 212.333 155.285H212.917C215.315 155.287 217.615 156.234 219.312 157.919C221.008 159.603 221.963 161.888 221.966 164.271V165.883L225.006 165.833V164.271C224.996 161.09 223.718 158.044 221.452 155.797C219.187 153.55 216.118 152.287 212.917 152.284Z" fill="#133DBD"/>
    <path d="M177.894 99.9211H177.297V96.8951H178.447L178.944 94.1655H178.745V91.1394H179.497L179.864 89.1262H227.753V86.1063H177.328L174.432 101.928H177.527L177.894 99.9211Z" fill="#133DBD"/>
    <path d="M245.386 89.1262L245.752 91.1394H247.374V94.1655H246.305L246.803 96.8951H247.374V99.9211H247.356L247.729 101.928H250.818L247.921 86.1063H239.487V89.1262H245.386Z" fill="#133DBD"/>
    <path d="M174.326 104.954H227.753V101.928H177.527H174.432L173.879 104.954H174.326Z" fill="#133DBD"/>
    <path d="M239.487 101.928V104.954H250.923H251.371L250.818 101.928H247.729H239.487Z" fill="#133DBD"/>
    <path d="M236.442 84.8094H230.798V86.1002H236.442V84.8094Z" fill="white"/>
    <path d="M236.442 89.1262H230.798V101.928H236.442V89.1262Z" fill="white"/>
    <path d="M236.442 86.1063H230.798V89.1324H236.442V86.1063Z" fill="white"/>
    <path d="M229.275 83.2964H237.964V86.1063H239.487V81.7896H227.753V86.1063H229.275V83.2964Z" fill="#133DBD"/>
    <path d="M229.275 89.1262H227.753V91.1395H228.554V94.1655H227.753V96.8951H228.554V99.9212H227.753V101.928H229.275V89.1262Z" fill="#133DBD"/>
    <path d="M239.487 101.928V99.9212H238.114V96.8951H239.487V94.1655H238.114V91.1395H239.487V89.1262H237.964V101.928H239.487Z" fill="#133DBD"/>
    <path d="M229.275 86.1063H227.753V89.1324H229.275V86.1063Z" fill="#133DBD"/>
    <path d="M239.487 86.1063H237.964V89.1324H239.487V86.1063Z" fill="#133DBD"/>
    <path d="M239.487 101.928H237.964V103.441H229.275V101.928H227.753V104.954H239.487V101.928Z" fill="#133DBD"/>
    <path d="M230.798 84.8095H236.442V86.1063H237.964V83.2964H229.275V86.1063H230.798V84.8095Z" fill="#133DBD"/>
    <path d="M230.798 89.1262H229.275V101.928H230.798V89.1262Z" fill="#133DBD"/>
    <path d="M237.964 89.1262H236.442V101.928H237.964V89.1262Z" fill="#133DBD"/>
    <path d="M237.964 86.1063H236.442V89.1324H237.964V86.1063Z" fill="#133DBD"/>
    <path d="M230.798 86.1063H229.275V89.1324H230.798V86.1063Z" fill="#133DBD"/>
    <path d="M230.798 101.928H229.275V103.441H237.964V101.928H236.442H230.798Z" fill="#133DBD"/>
    <path d="M227.753 91.1394H179.497L178.944 94.1654H227.753V91.1394Z" fill="#133DBD"/>
    <path d="M178.745 91.1394V94.1654H178.944L179.497 91.1394H178.745Z" fill="#133DBD"/>
    <path d="M228.548 91.1394H227.753V94.1654H228.548V91.1394Z" fill="#133DBD"/>
    <path d="M227.753 96.8951H178.447L177.894 99.9211H227.753V96.8951Z" fill="#133DBD"/>
    <path d="M177.297 96.8951V99.9211H177.894L178.447 96.8951H177.297Z" fill="#133DBD"/>
    <path d="M228.548 96.8951H227.753V99.9211H228.548V96.8951Z" fill="#133DBD"/>
    <path d="M239.487 94.1654H246.305L245.752 91.1394H239.487V94.1654Z" fill="#133DBD"/>
    <path d="M247.374 94.1654V91.1394H245.752L246.305 94.1654H247.374Z" fill="#133DBD"/>
    <path d="M239.487 91.1394H238.114V94.1654H239.487V91.1394Z" fill="#133DBD"/>
    <path d="M239.487 99.9211H247.356L246.803 96.8951H239.487V99.9211Z" fill="#133DBD"/>
    <path d="M247.374 99.9211V96.8951H246.803L247.356 99.9211H247.374Z" fill="#133DBD"/>
    <path d="M239.487 96.8951H238.114V99.9211H239.487V96.8951Z" fill="#133DBD"/>
    <path d="M192.17 128.706C192.17 130.114 193.817 131.262 195.843 131.262C197.776 131.262 199.336 130.219 199.492 128.909C198.894 128.17 198.137 127.572 197.277 127.161C196.416 126.75 195.474 126.535 194.52 126.532C194.255 126.543 193.991 126.57 193.73 126.612C193.3 126.782 192.926 127.068 192.65 127.438C192.374 127.808 192.208 128.247 192.17 128.706Z" fill="#65D78D"/>
    <path d="M228.188 128.706C228.188 130.114 229.835 131.262 231.861 131.262C232.437 131.281 233.01 131.181 233.545 130.969C234.08 130.756 234.565 130.435 234.969 130.027C234.471 129.062 233.734 128.238 232.827 127.635C231.92 127.032 230.873 126.669 229.785 126.581C229.343 126.748 228.958 127.036 228.675 127.412C228.392 127.789 228.223 128.237 228.188 128.706Z" fill="#65D78D"/>
    <path d="M229.275 123.512C226.761 123.515 224.35 124.509 222.572 126.276C220.795 128.042 219.794 130.437 219.791 132.936V148.091H238.76V132.936C238.758 130.437 237.759 128.041 235.98 126.274C234.202 124.507 231.79 123.514 229.275 123.512ZM235.721 145.089H222.836V132.936C222.838 131.239 223.517 129.612 224.724 128.411C225.931 127.211 227.568 126.535 229.275 126.532C229.456 126.532 229.623 126.575 229.804 126.587C230.448 126.292 231.151 126.142 231.861 126.149C233.893 126.149 235.54 127.291 235.54 128.706C235.526 129.2 235.329 129.673 234.987 130.033C235.462 130.929 235.714 131.924 235.721 132.936V145.089Z" fill="#133DBD"/>
    <path d="M234.987 130.033C235.329 129.673 235.526 129.2 235.54 128.706C235.54 127.291 233.893 126.149 231.861 126.149C231.151 126.142 230.448 126.292 229.804 126.587C230.892 126.676 231.939 127.038 232.846 127.641C233.753 128.245 234.49 129.068 234.987 130.033Z" fill="#133DBD"/>
    <path d="M194.526 123.512C192.011 123.514 189.599 124.507 187.821 126.274C186.043 128.041 185.043 130.437 185.041 132.936V148.091H204.01V132.936C204.007 130.437 203.007 128.042 201.229 126.276C199.451 124.509 197.04 123.515 194.526 123.512ZM200.996 145.089H188.081V132.936C188.087 131.378 188.665 129.877 189.706 128.713C190.748 127.548 192.181 126.801 193.736 126.612C194.395 126.302 195.115 126.143 195.843 126.149C197.876 126.149 199.523 127.291 199.523 128.706C199.523 128.774 199.523 128.835 199.523 128.909C200.472 130.04 200.995 131.464 201.002 132.936L200.996 145.089Z" fill="#133DBD"/>
    <path d="M199.492 128.909C199.492 128.835 199.492 128.774 199.492 128.706C199.492 127.291 197.845 126.149 195.812 126.149C195.084 126.143 194.363 126.302 193.705 126.612C193.967 126.57 194.23 126.543 194.495 126.532C195.454 126.531 196.401 126.744 197.265 127.156C198.13 127.567 198.891 128.166 199.492 128.909Z" fill="#133DBD"/>
    <path d="M244.36 80.4742C243.956 80.4742 243.569 80.3148 243.283 80.031C242.998 79.7473 242.837 79.3624 242.837 78.9612V49.1577C242.837 48.7565 242.998 48.3716 243.283 48.0879C243.569 47.8041 243.956 47.6447 244.36 47.6447C244.764 47.6447 245.151 47.8041 245.437 48.0879C245.722 48.3716 245.883 48.7565 245.883 49.1577V78.9612C245.883 79.3624 245.722 79.7473 245.437 80.031C245.151 80.3148 244.764 80.4742 244.36 80.4742Z" fill="#133DBD"/>
    <path d="M252.446 89.6449C252.042 89.6449 251.655 89.4855 251.369 89.2018C251.084 88.918 250.923 88.5332 250.923 88.1319V64.0471C250.923 63.6458 251.084 63.261 251.369 62.9772C251.655 62.6935 252.042 62.5341 252.446 62.5341C252.85 62.5341 253.237 62.6935 253.523 62.9772C253.808 63.261 253.969 63.6458 253.969 64.0471V88.1319C253.969 88.5332 253.808 88.918 253.523 89.2018C253.237 89.4855 252.85 89.6449 252.446 89.6449Z" fill="#133DBD"/>
    <path d="M253.092 59.2672C252.893 59.2672 252.695 59.228 252.511 59.1519C252.326 59.0758 252.159 58.9642 252.018 58.8237C251.877 58.6831 251.765 58.5162 251.69 58.3327C251.614 58.1492 251.575 57.9526 251.576 57.7542V44.0011C251.563 43.7947 251.592 43.5878 251.662 43.3931C251.733 43.1985 251.843 43.0202 251.985 42.8694C252.127 42.7185 252.299 42.5983 252.49 42.5161C252.681 42.4339 252.887 42.3915 253.096 42.3915C253.304 42.3915 253.51 42.4339 253.701 42.5161C253.892 42.5983 254.064 42.7185 254.206 42.8694C254.349 43.0202 254.458 43.1985 254.529 43.3931C254.599 43.5878 254.628 43.7947 254.615 44.0011V57.7542C254.616 57.9531 254.577 58.1502 254.501 58.3341C254.425 58.5181 254.313 58.6852 254.171 58.8259C254.029 58.9665 253.861 59.0779 253.676 59.1537C253.491 59.2294 253.293 59.268 253.092 59.2672Z" fill="#133DBD"/>
    <path d="M261.284 99.3838C260.881 99.3838 260.495 99.2253 260.21 98.9429C259.924 98.6604 259.763 98.2772 259.761 97.877V53.7462C259.761 53.3449 259.922 52.9601 260.207 52.6763C260.493 52.3926 260.88 52.2332 261.284 52.2332C261.688 52.2332 262.075 52.3926 262.361 52.6763C262.647 52.9601 262.807 53.3449 262.807 53.7462V97.877C262.805 98.2772 262.644 98.6604 262.359 98.9429C262.073 99.2253 261.687 99.3838 261.284 99.3838Z" fill="#133DBD"/>
    <path d="M181.958 83.3397C181.556 83.338 181.17 83.1779 180.886 82.8943C180.602 82.6108 180.442 82.2269 180.442 81.8267V57.7418C180.429 57.5354 180.458 57.3285 180.528 57.1338C180.599 56.9392 180.709 56.7609 180.851 56.6101C180.993 56.4592 181.165 56.339 181.356 56.2568C181.547 56.1746 181.753 56.1322 181.962 56.1322C182.17 56.1322 182.376 56.1746 182.567 56.2568C182.758 56.339 182.93 56.4592 183.072 56.6101C183.215 56.7609 183.324 56.9392 183.395 57.1338C183.465 57.3285 183.494 57.5354 183.481 57.7418V81.8267C183.481 82.0253 183.442 82.2221 183.365 82.4057C183.289 82.5892 183.177 82.756 183.035 82.8965C182.894 83.037 182.726 83.1485 182.541 83.2245C182.356 83.3005 182.158 83.3397 181.958 83.3397Z" fill="#133DBD"/>
    <path d="M171.585 91.9361C171.385 91.9361 171.188 91.8969 171.003 91.8208C170.819 91.7447 170.652 91.6331 170.511 91.4926C170.37 91.352 170.258 91.1851 170.182 91.0016C170.106 90.8181 170.068 90.6215 170.069 90.4231V64.0595C170.055 63.8531 170.085 63.6461 170.155 63.4515C170.226 63.2568 170.335 63.0786 170.478 62.9277C170.62 62.7769 170.792 62.6566 170.983 62.5744C171.174 62.4922 171.38 62.4498 171.588 62.4498C171.796 62.4498 172.002 62.4922 172.193 62.5744C172.384 62.6566 172.556 62.7769 172.699 62.9277C172.841 63.0786 172.951 63.2568 173.021 63.4515C173.092 63.6461 173.121 63.8531 173.108 64.0595V90.4231C173.109 90.622 173.07 90.8191 172.994 91.003C172.917 91.187 172.805 91.3541 172.664 91.4948C172.522 91.6354 172.354 91.7468 172.169 91.8226C171.984 91.8983 171.785 91.9369 171.585 91.9361Z" fill="#133DBD"/>
    <path d="M163.499 102.824C163.097 102.824 162.711 102.665 162.427 102.382C162.142 102.1 161.983 101.716 161.983 101.317V75.5214C161.969 75.315 161.999 75.108 162.069 74.9134C162.139 74.7187 162.249 74.5405 162.392 74.3896C162.534 74.2388 162.706 74.1185 162.897 74.0363C163.088 73.9541 163.294 73.9117 163.502 73.9117C163.71 73.9117 163.916 73.9541 164.107 74.0363C164.298 74.1185 164.47 74.2388 164.613 74.3896C164.755 74.5405 164.865 74.7187 164.935 74.9134C165.006 75.108 165.035 75.315 165.022 75.5214V101.317C165.022 101.515 164.982 101.712 164.906 101.895C164.829 102.078 164.717 102.245 164.575 102.385C164.434 102.525 164.266 102.635 164.081 102.711C163.897 102.786 163.699 102.825 163.499 102.824Z" fill="#133DBD"/>
    <path d="M171.585 57.5442C171.183 57.5442 170.797 57.3854 170.513 57.1029C170.228 56.8203 170.069 56.437 170.069 56.0374V44.0011C170.055 43.7947 170.085 43.5878 170.155 43.3931C170.226 43.1985 170.335 43.0202 170.478 42.8694C170.62 42.7185 170.792 42.5983 170.983 42.5161C171.174 42.4339 171.38 42.3915 171.588 42.3915C171.796 42.3915 172.002 42.4339 172.193 42.5161C172.384 42.5983 172.556 42.7185 172.699 42.8694C172.841 43.0202 172.951 43.1985 173.021 43.3931C173.092 43.5878 173.121 43.7947 173.108 44.0011V56.0374C173.108 56.2358 173.068 56.4322 172.992 56.6154C172.915 56.7986 172.803 56.965 172.662 57.105C172.52 57.245 172.352 57.3559 172.167 57.4313C171.983 57.5066 171.785 57.545 171.585 57.5442Z" fill="#133DBD"/>
</svg>
