<svg width="316" height="150" viewBox="0 0 316 150" xmlns="http://www.w3.org/2000/svg">
    <path d="M191.238 51.5352C189.492 51.5352 187.803 51.5933 186.056 51.7096C170.453 21.5862 139.012 1 102.739 1C50.9786 1 8.99976 42.9285 8.99976 94.6267C8.99976 113.992 16.0448 134.055 26.1756 149C72.463 149 209.87 148.826 253.77 148.826C257.787 140.103 260 130.449 260 120.214C260 82.2982 229.2 51.5352 191.238 51.5352Z" fill="#EBF0F6"/>
    <path d="M305.163 61.2042C306.865 61.0326 308.438 60.2246 309.57 58.942C310.701 57.6594 311.306 55.9969 311.263 54.2873C311.221 52.5777 310.534 50.9472 309.341 49.7224C308.147 48.4976 306.535 47.7687 304.827 47.6819C305.112 45.2158 304.512 42.7287 303.134 40.6636C301.757 38.5985 299.691 37.0896 297.304 36.4056C294.918 35.7216 292.366 35.907 290.104 36.9288C287.841 37.9506 286.015 39.7423 284.95 41.9849C284.017 41.7864 283.053 41.7875 282.12 41.988C281.187 42.1886 280.308 42.5841 279.538 43.1486C278.769 43.7131 278.128 44.4338 277.658 45.2635C277.187 46.0931 276.897 47.013 276.806 47.9627C275.264 48.4294 273.939 49.4313 273.069 50.788C272.2 52.1447 271.843 53.7672 272.063 55.3635C272.283 56.9598 273.066 58.4252 274.27 59.4959C275.475 60.5666 277.021 61.1724 278.633 61.2042H305.163Z" fill="#EBF0F6"/>
    <path d="M164.422 68.0181V63.782H153.417V68.0181H144.956V76.479H147.5V87.4838H122.106V95.9448H124.65V148.414H147.5H170.35V76.479H172.883V68.0181H164.422Z" fill="white"/>
    <path d="M128.454 82.8275H125.07V87.0635H128.454V82.8275Z" fill="white"/>
    <path d="M141.571 125.564H130.567V148.414H141.571V125.564Z" fill="#A8BEEA"/>
    <path d="M156.381 93.8213H152.145V100.59H156.381V93.8213Z" fill="#A8BEEA"/>
    <path d="M152.145 89.4304H156.381C156.989 89.4304 157.487 88.9327 157.487 88.3243V81.5556C157.487 80.9473 156.989 80.4496 156.381 80.4496H152.145C151.537 80.4496 151.039 80.9473 151.039 81.5556V88.3243C151.039 88.9327 151.537 89.4304 152.145 89.4304ZM153.251 82.6616H155.275V87.2183H153.251V82.6616Z" fill="#133DBD"/>
    <path d="M160.617 89.4304H164.853C165.461 89.4304 165.959 88.9327 165.959 88.3243V81.5556C165.959 80.9473 165.461 80.4496 164.853 80.4496H160.617C160.009 80.4496 159.511 80.9473 159.511 81.5556V88.3243C159.511 88.9327 159.998 89.4304 160.617 89.4304ZM161.723 82.6616H163.747V87.2183H161.723V82.6616Z" fill="#133DBD"/>
    <path d="M152.145 101.707H156.381C156.989 101.707 157.487 101.209 157.487 100.601V93.8324C157.487 93.2241 156.989 92.7264 156.381 92.7264H152.145C151.537 92.7264 151.039 93.2241 151.039 93.8324V100.601C151.039 101.209 151.537 101.707 152.145 101.707ZM153.251 94.9273H155.275V99.4841H153.251V94.9273Z" fill="#133DBD"/>
    <path d="M160.617 101.707H164.853C165.461 101.707 165.959 101.209 165.959 100.601V93.8324C165.959 93.2241 165.461 92.7264 164.853 92.7264H160.617C160.009 92.7264 159.511 93.2241 159.511 93.8324V100.601C159.511 101.209 159.998 101.707 160.617 101.707ZM161.723 94.9273H163.747V99.4841H161.723V94.9273Z" fill="#133DBD"/>
    <path d="M152.145 113.973H156.381C156.989 113.973 157.487 113.475 157.487 112.867V106.098C157.487 105.49 156.989 104.992 156.381 104.992H152.145C151.537 104.992 151.039 105.49 151.039 106.098V112.867C151.039 113.475 151.537 113.973 152.145 113.973ZM153.251 107.204H155.275V111.761H153.251V107.204Z" fill="#133DBD"/>
    <path d="M160.617 113.973H164.853C165.461 113.973 165.959 113.475 165.959 112.867V106.098C165.959 105.49 165.461 104.992 164.853 104.992H160.617C160.009 104.992 159.511 105.49 159.511 106.098V112.867C159.511 113.475 159.998 113.973 160.617 113.973ZM161.723 107.204H163.747V111.761H161.723V107.204Z" fill="#133DBD"/>
    <path d="M152.145 126.249H156.381C156.989 126.249 157.487 125.752 157.487 125.143V118.375C157.487 117.766 156.989 117.269 156.381 117.269H152.145C151.537 117.269 151.039 117.766 151.039 118.375V125.143C151.039 125.752 151.537 126.249 152.145 126.249ZM153.251 119.481H155.275V124.037H153.251V119.481Z" fill="#133DBD"/>
    <path d="M160.617 126.249H164.853C165.461 126.249 165.959 125.752 165.959 125.143V118.375C165.959 117.766 165.461 117.269 164.853 117.269H160.617C160.009 117.269 159.511 117.766 159.511 118.375V125.143C159.511 125.752 159.998 126.249 160.617 126.249ZM161.723 119.481H163.747V124.037H161.723V119.481Z" fill="#133DBD"/>
    <path d="M152.145 138.515H156.381C156.989 138.515 157.487 138.017 157.487 137.409V130.64C157.487 130.032 156.989 129.534 156.381 129.534H152.145C151.537 129.534 151.039 130.032 151.039 130.64V137.409C151.039 138.017 151.537 138.515 152.145 138.515ZM153.251 131.746H155.275V136.303H153.251V131.746Z" fill="#133DBD"/>
    <path d="M160.617 138.515H164.853C165.461 138.515 165.959 138.017 165.959 137.409V130.64C165.959 130.032 165.461 129.534 164.853 129.534H160.617C160.009 129.534 159.511 130.032 159.511 130.64V137.409C159.511 138.017 159.998 138.515 160.617 138.515ZM161.723 131.746H163.747V136.303H161.723V131.746Z" fill="#133DBD"/>
    <path d="M172.883 66.9121H165.528V63.7821C165.528 63.1738 165.03 62.6761 164.422 62.6761H153.417C152.809 62.6761 152.311 63.1738 152.311 63.7821V66.9121H144.956C144.348 66.9121 143.85 67.4098 143.85 68.0181V76.4791C143.85 77.0874 144.348 77.5851 144.956 77.5851H146.394V86.3779H129.56V82.8276C129.56 82.2193 129.063 81.7216 128.454 81.7216H125.07C124.462 81.7216 123.964 82.2193 123.964 82.8276V86.3779H122.106C121.497 86.3779 121 86.8756 121 87.4839V95.9449C121 96.5532 121.497 97.0509 122.106 97.0509H123.533V148.414C123.533 149.022 124.03 149.52 124.639 149.52H130.567H141.572H147.5H170.35C170.958 149.52 171.456 149.022 171.456 148.414V77.5851H172.894C173.502 77.5851 174 77.0874 174 76.4791V68.0181C173.989 67.3987 173.491 66.9121 172.883 66.9121ZM126.176 83.9336H127.348V85.9576H126.176V83.9336ZM140.466 147.308H131.673V126.67H140.466V147.308ZM146.394 147.308H142.678V125.564C142.678 124.956 142.18 124.458 141.572 124.458H130.567C129.958 124.458 129.461 124.956 129.461 125.564V147.308H125.745V97.0509H146.383V147.308H146.394ZM146.394 94.8389H124.639H123.212V88.5899H146.394V94.8389ZM154.523 64.8881H163.316V66.9121H154.523V64.8881ZM169.244 147.308H148.606V95.9449V87.4839V77.5851H169.244V147.308ZM171.777 75.3731H170.339H147.5H146.062V69.1241H153.417H164.422H171.777V75.3731Z" fill="#133DBD"/>
    <path d="M286.197 92.5468H219.659L217.028 115.116H288.828L286.197 92.5468Z" fill="#C4D3E4"/>
    <path d="M285.991 115.29H220.882V144.499H285.991V115.29Z" fill="white"/>
    <path d="M285.991 116.234H221.468V118.133H285.991V116.234Z" fill="#315ED1"/>
    <path d="M279.917 104.298H285.036L279.506 93.2447L277.266 88.7597L269.383 72.9853L261.5 88.7597L259.249 93.2447L253.719 104.298H258.838L258.468 114.336L256.566 119.077V144.489H282.189V119.077L280.287 114.336L279.917 104.298Z" fill="white"/>
    <path d="M249.927 127.606H240.44V143.709H249.927V127.606Z" fill="white"/>
    <path d="M274.604 127.606H264.161V139.922H274.604V127.606Z" fill="white"/>
    <path d="M274.604 127.606H264.161V132.347H274.604V127.606Z" fill="white"/>
    <path d="M235.702 127.606H227.161V136.134H235.702V127.606Z" fill="white"/>
    <path d="M253.719 104.298H258.838L259.249 93.2447L253.719 104.298Z" fill="white"/>
    <path d="M258.838 105.324H253.719C253.36 105.324 253.031 105.14 252.846 104.842C252.661 104.544 252.64 104.165 252.805 103.847L258.334 92.7931C258.55 92.3621 259.043 92.1363 259.506 92.2595C259.978 92.3826 260.297 92.8137 260.277 93.296L259.865 104.349C259.845 104.893 259.393 105.324 258.838 105.324ZM255.384 103.272H257.851L258.046 97.9453L255.384 103.272Z" fill="#133DBD"/>
    <path d="M285.036 104.298L279.506 93.2447L279.917 104.298H285.036Z" fill="white"/>
    <path d="M285.036 105.324H279.917C279.362 105.324 278.91 104.883 278.89 104.339L278.478 93.2858C278.458 92.8034 278.787 92.3724 279.249 92.2492C279.712 92.1261 280.205 92.3518 280.421 92.7829L285.95 103.836C286.115 104.154 286.094 104.534 285.909 104.832C285.724 105.14 285.395 105.324 285.036 105.324ZM280.914 103.272H283.381L280.719 97.9453L280.914 103.272Z" fill="#133DBD"/>
    <path d="M280.287 114.336L279.917 104.298L279.506 93.2447L277.266 88.7597L269.383 72.9853L261.5 88.7597L259.249 93.2447L258.838 104.298L258.468 114.336" fill="white"/>
    <path d="M254.675 85.9168H249.927V92.5468H254.675V85.9168Z" fill="white"/>
    <path d="M272.702 93.4911H266.063V109.594H272.702V93.4911Z" fill="white"/>
    <path d="M272.702 93.4911H266.063V99.69H272.702V93.4911Z" fill="white"/>
    <path d="M229.33 101.496H232.187L232.413 95.3282L229.33 101.496Z" fill="white"/>
    <path d="M246.802 101.496L243.719 95.3282L243.945 101.496H246.802Z" fill="white"/>
    <path d="M243.945 101.496L243.719 95.3282L242.465 92.8137L238.066 84.0182L233.667 92.8137L232.413 95.3282L232.187 101.496L231.982 107.09H244.161L243.945 101.496Z" fill="white"/>
    <path d="M240.44 97.2782H235.692V102.964H240.44V97.2782Z" fill="white"/>
    <path d="M287.883 144.489H218.98V148.44H287.883V144.489Z" fill="white"/>
    <path d="M235.692 126.579H227.151C226.586 126.579 226.123 127.041 226.123 127.606V136.134C226.123 136.699 226.586 137.161 227.151 137.161H235.692C236.257 137.161 236.72 136.699 236.72 136.134V127.606C236.72 127.031 236.268 126.579 235.692 126.579ZM234.664 135.108H228.179V128.632H234.664V135.108Z" fill="#133DBD"/>
    <path d="M240.44 96.2518H235.692C235.127 96.2518 234.664 96.7137 234.664 97.2782V102.964C234.664 103.528 235.127 103.99 235.692 103.99H240.44C241.006 103.99 241.468 103.528 241.468 102.964V97.2782C241.468 96.7137 241.006 96.2518 240.44 96.2518ZM239.413 101.938H236.72V98.3045H239.413V101.938Z" fill="#133DBD"/>
    <path d="M266.063 110.631H272.702C273.268 110.631 273.73 110.169 273.73 109.604V99.69V93.4911C273.73 92.9266 273.268 92.4647 272.702 92.4647H266.063C265.498 92.4647 265.035 92.9266 265.035 93.4911V99.69V109.604C265.035 110.169 265.487 110.631 266.063 110.631ZM267.091 94.5174H271.675V98.6637H267.091V94.5174ZM267.091 100.716H271.675V108.578H267.091V100.716Z" fill="#133DBD"/>
    <path d="M288.828 116.142C289.126 116.142 289.404 116.019 289.599 115.803C289.794 115.588 289.887 115.29 289.856 115.003L287.225 92.4237C287.163 91.9105 286.721 91.5205 286.207 91.5205H279.804L270.297 72.5234C269.948 71.8255 268.807 71.8255 268.457 72.5234L258.961 91.5205H255.692V85.9168C255.692 85.3524 255.23 84.8905 254.665 84.8905H249.916C249.351 84.8905 248.889 85.3524 248.889 85.9168V91.5205H242.958L238.981 83.5563C238.631 82.8584 237.491 82.8584 237.141 83.5563L233.164 91.5205H219.659C219.134 91.5205 218.703 91.9105 218.641 92.4237L216.01 115.003C215.979 115.29 216.072 115.588 216.267 115.803C216.462 116.019 216.74 116.142 217.038 116.142H219.864V143.462H218.98C218.415 143.462 217.952 143.924 217.952 144.489V148.44C217.952 149.004 218.415 149.466 218.98 149.466H238.549H251.828H287.882C288.448 149.466 288.91 149.004 288.91 148.44V144.489C288.91 143.924 288.448 143.462 287.882 143.462H287.009V116.142H288.828ZM246.802 102.523C247.162 102.523 247.491 102.338 247.676 102.04C247.84 101.773 247.861 101.455 247.758 101.158H254.141L253.267 102.892H245.014L245.004 102.523H246.802ZM245.887 97.3603H256.042L255.179 99.0947H246.761L245.887 97.3603ZM252.928 104.945C253.123 105.181 253.411 105.335 253.719 105.335H257.769L257.717 106.689H245.168L245.106 104.955H252.928V104.945ZM257.594 120.103H281.161V143.473H257.594V120.103ZM287.677 114.089H281.315L281.253 112.519H287.492L287.677 114.089ZM286.937 108.732C286.978 108.732 287.009 108.711 287.05 108.711L287.256 110.477H281.181L281.12 108.742H286.937V108.732ZM286.814 106.679H281.037L280.986 105.324H285.036C285.344 105.324 285.632 105.181 285.827 104.934H286.608L286.814 106.679ZM286.372 102.892H285.477L284.604 101.158H286.166L286.372 102.892ZM285.93 99.0947H283.586L282.723 97.3603H285.734L285.93 99.0947ZM285.282 93.5732L285.488 95.3076H281.685L280.822 93.5732H285.282ZM283.371 103.272H280.904L280.709 97.9453L283.371 103.272ZM259.403 114.777C259.403 114.777 259.403 114.767 259.413 114.767L259.434 114.715C259.475 114.602 259.506 114.489 259.506 114.377L260.276 93.5116L269.382 75.2842L278.489 93.5116L278.889 104.339L279.259 114.377C279.259 114.489 279.29 114.613 279.331 114.715L280.667 118.041H258.087L259.403 114.777ZM257.851 103.272H255.384L258.046 97.9453L257.851 103.272ZM250.954 86.9432H253.647V91.5205H250.954V86.9432ZM249.927 93.5732H254.675H257.943L257.08 95.3076H244.86L244.634 94.8663L243.986 93.5732H249.927ZM233.431 95.5847L238.066 86.3171L242.701 95.5847L243.092 106.063H233.051L233.431 95.5847ZM220.573 93.5732H232.146L231.499 94.8663L231.272 95.3076H220.368L220.573 93.5732ZM220.131 97.3603H230.245L229.381 99.0947H219.926L220.131 97.3603ZM219.689 101.147H228.374C228.271 101.435 228.292 101.763 228.456 102.03C228.641 102.328 228.97 102.512 229.33 102.512H231.118L231.108 102.892H219.484L219.689 101.147ZM219.247 104.945H231.036L230.974 106.679H219.042L219.247 104.945ZM218.806 108.711C218.847 108.711 218.877 108.732 218.919 108.732H257.645L257.584 110.466H218.6L218.806 108.711ZM218.364 112.519H257.501L257.44 114.089H218.179L218.364 112.519ZM221.909 116.316H256.576L255.631 118.677L255.621 118.697C255.579 118.81 255.559 118.923 255.559 119.036C255.559 119.046 255.549 119.057 255.549 119.077V143.473H250.965V127.606C250.965 127.041 250.502 126.579 249.937 126.579H240.451C239.885 126.579 239.423 127.041 239.423 127.606V143.473H221.909V116.316ZM241.468 142.682V128.632H248.899V142.682H241.468ZM220.008 145.515H220.882H238.816L237.902 147.414H220.008V145.515ZM240.173 147.424L241.088 145.525H249.279L250.194 147.424H240.173ZM286.855 147.424H252.476L251.561 145.525H256.566H282.189H285.981H286.855V147.424ZM283.216 143.462V119.077C283.216 119.067 283.206 119.057 283.206 119.036C283.206 118.923 283.186 118.8 283.144 118.697L283.134 118.677L282.189 116.316H284.953V143.473H283.216V143.462Z" fill="#133DBD"/>
    <path d="M274.593 126.579H264.162C263.596 126.579 263.134 127.041 263.134 127.606V132.347V139.932C263.134 140.496 263.596 140.958 264.162 140.958H274.604C275.169 140.958 275.632 140.496 275.632 139.932V132.347V127.606C275.621 127.031 275.169 126.579 274.593 126.579ZM273.566 138.895H265.179V133.363H273.566V138.895ZM273.566 131.311H265.179V128.622H273.566V131.311Z" fill="#133DBD"/>
    <path d="M106.005 116.842C108.78 116.842 111.03 114.624 111.03 111.891C111.03 109.157 108.78 106.939 106.005 106.939C103.229 106.939 100.979 109.157 100.979 111.891C100.979 114.624 103.229 116.842 106.005 116.842Z" fill="#65D78D"/>
    <path d="M106.004 117.255C100.454 117.255 95.9629 121.68 95.9629 127.148C95.9629 132.615 100.454 137.04 106.004 137.04C111.555 137.04 116.046 132.615 116.046 127.148C116.046 121.68 111.545 117.255 106.004 117.255Z" fill="#65D78D"/>
    <path d="M117 127.148C117 122.3 113.748 118.185 109.285 116.804C110.906 115.752 111.974 113.939 111.974 111.891C111.974 108.64 109.295 106 106.005 106C102.705 106 100.025 108.64 100.025 111.891C100.025 113.939 101.093 115.752 102.715 116.804C98.2516 118.185 94.9998 122.3 94.9998 127.138C94.9998 132.794 99.4245 137.444 105.041 137.924V148.991H106.949V137.933C112.575 137.454 117 132.803 117 127.148ZM106.005 107.888C108.246 107.888 110.067 109.683 110.067 111.9C110.067 114.108 108.246 115.902 106.005 115.902C103.764 115.902 101.933 114.108 101.933 111.9C101.933 109.692 103.754 107.888 106.005 107.888ZM106.005 136.101C100.998 136.101 96.9165 132.08 96.9165 127.148C96.9165 122.215 100.998 118.194 106.005 118.194C111.011 118.194 115.093 122.215 115.093 127.148C115.093 132.08 111.011 136.101 106.005 136.101Z" fill="#133DBD"/>
    <g clip-path="url(#clip0_1_5993)">
        <path d="M83.9998 85.6L70.0998 85.4L69.8998 80.6L60.9998 73.5L83.9998 73.6V85.6Z" fill="#C4D3E4"/>
        <path d="M83.9998 117.6H20.9998V148.6H83.9998V117.6Z" fill="white"/>
        <path d="M69.9998 85.6L45.4998 67L20.9998 85.6V117.6H83.9998V85.6H69.9998Z" fill="white"/>
        <path d="M63.9998 128.6H51.9998V148.6H63.9998V128.6Z" fill="#315ED1"/>
        <path d="M79.9998 141.6H69.9998C69.3998 141.6 68.9998 141.2 68.9998 140.6V128.6C68.9998 128 69.3998 127.6 69.9998 127.6H79.9998C80.5998 127.6 80.9998 128 80.9998 128.6V140.6C80.9998 141.1 80.5998 141.6 79.9998 141.6ZM70.9998 139.6H78.9998V129.6H70.9998V139.6Z" fill="#133DBD"/>
        <path d="M79.9998 107.6H69.9998C69.3998 107.6 68.9998 107.2 68.9998 106.6V94.6C68.9998 94 69.3998 93.6 69.9998 93.6H79.9998C80.5998 93.6 80.9998 94 80.9998 94.6V106.6C80.9998 107.1 80.5998 107.6 79.9998 107.6ZM70.9998 105.6H78.9998V95.6H70.9998V105.6Z" fill="#133DBD"/>
        <path d="M60.9998 112.6H54.9998C54.3998 112.6 53.9998 112.2 53.9998 111.6V89.6C53.9998 89 54.3998 88.6 54.9998 88.6H60.9998C61.5998 88.6 61.9998 89 61.9998 89.6V111.6C61.9998 112.1 61.5998 112.6 60.9998 112.6ZM55.9998 110.6H59.9998V90.6H55.9998V110.6Z" fill="#133DBD"/>
        <path d="M48.9998 101.6H26.9998V111.6H48.9998V101.6Z" fill="#C4D3E4"/>
        <path d="M69.9998 80.6L45.4998 62L20.9998 80.6V85.6L45.4998 67L69.9998 85.6V80.6Z" fill="#315ED1"/>
        <path d="M83.9998 72.6L60.9998 72.5L46.0998 61.2C45.6998 60.9 45.1998 60.9 44.8998 61.2L20.3998 79.8C20.0998 80 19.9998 80.3 19.9998 80.6V85.6V117.6V148.6C19.9998 149.2 20.3998 149.6 20.9998 149.6H83.9998C84.5998 149.6 84.9998 149.2 84.9998 148.6V117.6V85.6V73.6C84.9998 73 84.5998 72.6 83.9998 72.6ZM21.9998 86.1L45.4998 68.3L69.3998 86.4C69.4998 86.5 69.5998 86.5 69.6998 86.6C69.7998 86.6 69.8998 86.7 69.9998 86.7H82.9998V116.7H21.9998V86.1ZM68.6998 78.4H82.9998V80.4H70.8998C70.7998 80.2 70.6998 80 70.5998 79.8L69.5998 79L68.6998 78.4ZM82.9998 82.4V84.6L70.9998 84.4V83.2V82.4H82.9998ZM82.9998 74.6V76.4H66.1998L63.7998 74.5L82.9998 74.6ZM21.9998 81.1L45.4998 63.3L68.2998 80.6L68.8998 81.1L68.9998 83.2V83.6L46.0998 66.2C45.6998 65.9 45.1998 65.9 44.8998 66.2L21.9998 83.6V81.1ZM44.9998 147.6H26.9998V129.6H44.9998V147.6ZM62.9998 147.6H52.9998V129.6H62.9998V147.6ZM82.9998 147.6H64.9998V128.6C64.9998 128 64.5998 127.6 63.9998 127.6H51.9998C51.3998 127.6 50.9998 128 50.9998 128.6V147.6H46.9998V128.6C46.9998 128 46.5998 127.6 45.9998 127.6H25.9998C25.3998 127.6 24.9998 128 24.9998 128.6V147.6H21.9998V118.6H82.9998V147.6Z" fill="#133DBD"/>
        <path d="M27.9998 111.7C27.9998 112.2 28.4998 112.6 28.9998 112.6H46.9998C47.4998 112.6 47.8998 112.2 47.9998 111.7H27.9998Z" fill="#133DBD"/>
        <path d="M48.9998 100.6H47.9998V89.6C47.9998 89 47.5998 88.6 46.9998 88.6H28.9998C28.3998 88.6 27.9998 89 27.9998 89.6V100.6H26.9998C26.3998 100.6 25.9998 101 25.9998 101.6V111.6C25.9998 112.2 26.3998 112.6 26.9998 112.6H48.9998C49.5998 112.6 49.9998 112.2 49.9998 111.6V101.6C49.9998 101 49.5998 100.6 48.9998 100.6ZM29.9998 90.6H45.9998V100.6H29.9998V90.6ZM47.9998 110.6H27.9998V102.6H47.9998V110.6Z" fill="#133DBD"/>
    </g>
    <path d="M0.999756 149L315 149" stroke="#133DBD" stroke-width="2" stroke-linecap="round"/>
    <path d="M188.02 126.02C189.958 126.02 191.53 124.449 191.53 122.51C191.53 120.571 189.958 119 188.02 119C186.081 119 184.51 120.571 184.51 122.51C184.51 124.449 186.081 126.02 188.02 126.02Z" fill="white"/>
    <path d="M188.02 126.31C184.14 126.31 181 129.46 181 133.34C181 137.22 184.14 140.36 188.02 140.36C191.9 140.36 195.04 137.22 195.04 133.34C195.04 129.46 191.9 126.31 188.02 126.31Z" fill="white"/>
    <path d="M196.04 133.34C196.04 129.96 193.94 127.07 190.98 125.89C191.92 125.06 192.53 123.86 192.53 122.51C192.53 120.02 190.51 118 188.02 118C185.53 118 183.51 120.02 183.51 122.51C183.51 123.86 184.12 125.06 185.06 125.89C182.1 127.07 180 129.96 180 133.34C180 137.42 183.07 140.8 187.02 141.29V148.84H189.02V141.29C192.97 140.79 196.04 137.42 196.04 133.34ZM188.02 120C189.4 120 190.53 121.13 190.53 122.51C190.53 123.89 189.41 125.02 188.02 125.02C186.63 125.02 185.51 123.9 185.51 122.51C185.51 121.12 186.64 120 188.02 120ZM188.02 139.36C184.7 139.36 182 136.66 182 133.34C182 130.02 184.7 127.32 188.02 127.32C191.34 127.32 194.04 130.02 194.04 133.34C194.04 136.66 191.34 139.36 188.02 139.36Z" fill="#133DBD"/>
    <defs>
        <clipPath id="clip0_1_5993">
            <rect width="65" height="88.6" fill="white" transform="translate(19.9998 61)"/>
        </clipPath>
    </defs>
</svg>
