<svg width="241" height="157" viewBox="0 0 241 157" xmlns="http://www.w3.org/2000/svg">
    <g clip-path="url(#clip0_1_6054)">
    <path d="M160.7 54.5C158.5 50.6 154.4 48 149.6 48C145.1 48 141.1 50.3 138.9 53.9C138.7 53.9 138.4 53.9 138.2 53.9C135 53.9 132.4 56.3 131.9 59.3C128.5 59.9 126 62.8 126 66.4C126 70.3 129.1 73.4 132.9 73.6H149.9C152.6 73.5 155 72.7 157.1 71.2C157.8 71.4 158.5 71.5 159.2 71.5C163.9 71.5 167.7 67.7 167.7 63C167.6 58.7 164.6 55.2 160.7 54.5Z" fill="#EBF0F6"/>
    <path d="M232.3 106.3C235.7 106 238.4 103 238.4 99.5C238.4 95.9 235.5 92.9 232 92.7C232 92.3 232.1 91.9 232.1 91.5C232.1 85.7 227.4 81 221.6 81C217.4 81 213.8 83.4 212.1 87C211.6 87 211.1 87 210.7 87C207.2 87 204.3 89.7 204 93.1C201.2 93.9 199.2 96.5 199.2 99.6C199.2 103.3 202.2 106.3 205.8 106.4H232.3V106.3Z" fill="#EBF0F6"/>
    <path d="M105.649 100.273V46.9701H92.1094V38.9128H77.5283V46.9701H74.3235V123.301L63.3073 110.19V71.9531L50.4491 56.6493H11.5882L-7.35472 76.7204V6.2H-10.2752L-12.0191 1H-45.5412L-47.4788 6.2H-50.5168V88.8997H-57.5106L-57.4685 83.6997L-76.8755 88.8997L-80 91.8997V157L127 156.945V109.57L119.189 100.273H105.649Z" fill="#EBF0F6"/>
    <g clip-path="url(#clip1_1_6054)">
            <path d="M85.6 94.2H35V113H85.6V94.2Z" fill="white"/>
            <path d="M82.6 80H38L35 94H85.6L82.6 80Z" fill="white"/>
            <path d="M85.6 113.2H35L33 125H87.6L85.6 113.2Z" fill="#315ED1"/>
            <path d="M71 125H35V144H71V125Z" fill="#A8BEEA"/>
            <path d="M71.1 144H35V156H71.1V144Z" fill="white"/>
            <path d="M85.6 125.2H71.1V156H85.6V125.2Z" fill="white"/>
            <path d="M85.6 152H71.1V156H85.6V152Z" fill="white"/>
            <path d="M45.1 153H39.1C38.5 153 38.1 152.6 38.1 152V148C38.1 147.4 38.5 147 39.1 147H45.1C45.7 147 46.1 147.4 46.1 148V152C46.1 152.6 45.6 153 45.1 153ZM40.1 151H44.1V149H40.1V151Z" fill="#133DBD"/>
            <path d="M56.1 153H50.1C49.5 153 49.1 152.6 49.1 152V148C49.1 147.4 49.5 147 50.1 147H56.1C56.7 147 57.1 147.4 57.1 148V152C57.1 152.6 56.6 153 56.1 153ZM51.1 151H55.1V149H51.1V151Z" fill="#133DBD"/>
            <path d="M67.1 153H61.1C60.5 153 60.1 152.6 60.1 152V148C60.1 147.4 60.5 147 61.1 147H67.1C67.7 147 68.1 147.4 68.1 148V152C68.1 152.6 67.6 153 67.1 153ZM62.1 151H66.1V149H62.1V151Z" fill="#133DBD"/>
            <path d="M45.1 139C44.8 139 44.6 138.9 44.4 138.7L39.4 133.7C39 133.3 39 132.7 39.4 132.3C39.8 131.9 40.4 131.9 40.8 132.3L45.8 137.3C46.2 137.7 46.2 138.3 45.8 138.7C45.6 138.9 45.3 139 45.1 139Z" fill="white"/>
            <path d="M41.6 140.5C41.3 140.5 41.1 140.4 40.9 140.2L38.4 137.7C38 137.3 38 136.7 38.4 136.3C38.8 135.9 39.4 135.9 39.8 136.3L42.3 138.8C42.7 139.2 42.7 139.8 42.3 140.2C42.1 140.4 41.8 140.5 41.6 140.5Z" fill="white"/>
            <path d="M82 80H38L35 94H85.5L82 80Z" fill="#A8BEEA"/>
            <path d="M86.6 113V94.1V94C86.6 93.9 86.6 93.8 86.6 93.7L83.6 79.7C83.5 79.2 83.1 78.9 82.6 78.9H38C37.5 79 37.1 79.3 37 79.8L34 93.8C34 93.9 34 94 34 94.1V94.2V113L32 124.8C32 125.1 32 125.4 32.2 125.6C32.4 125.9 32.7 126 33 126H34V144V156C34 156.6 34.4 157 35 157H71.1H85.6C86.2 157 86.6 156.6 86.6 156V152V126H87.6C87.9 126 88.2 125.9 88.4 125.6C88.6 125.4 88.7 125.1 88.6 124.8L86.6 113ZM36.8 90.3C36.8 90.3 36.9 90.3 36.8 90.3H83.5C83.6 90.3 83.6 90.3 83.7 90.3L84.3 93.1H36.2L36.8 90.3ZM83.3 88.3H37.2L37.8 85.3H82.6L83.3 88.3ZM36 112V95.2H84.6V112H36ZM44.8 114.2V124H40.9V114.2H44.8ZM46.8 114.2H50.7V124H46.8V114.2ZM52.7 114.2H56.6V124H52.7V114.2ZM58.5 114.2H62.4V124H58.5V114.2ZM64.4 114.2H68.3V124H64.4V114.2ZM70.2 114.2H74.1V124H70.2V114.2ZM76.1 114.2H80V124H76.1V114.2ZM35.8 114.2H38.9V124H34.2L35.8 114.2ZM81.9 124V114.2H84.7L86.4 124H81.9ZM81.8 81L82.3 83.3H38.3L38.8 81H81.8ZM84.6 151H72.1V144V126.2H84.6V151ZM70.1 143H36V126.2H70.1V143ZM36 145H70.1V152V155H36V145ZM84.6 155H72.1V153H84.6V155Z" fill="#133DBD"/>
            <path d="M50.1 109H42.1V102C42.1 100.3 43.4 99 45.1 99H47.1C48.8 99 50.1 100.3 50.1 102V109Z" fill="#A8BEEA"/>
            <path d="M47.1 98H45.1C42.9 98 41.1 99.8 41.1 102V109C41.1 109.6 41.5 110 42.1 110H50.1C50.7 110 51.1 109.6 51.1 109V102C51.1 99.8 49.3 98 47.1 98ZM43.1 102C43.1 100.9 44 100 45.1 100V108H43.1V102ZM49.1 108H47.1V100C48.2 100 49.1 100.9 49.1 102V108Z" fill="#133DBD"/>
            <path d="M61.6 98H59.6C57.4 98 55.6 99.8 55.6 102V109C55.6 109.6 56 110 56.6 110H64.6C65.2 110 65.6 109.6 65.6 109V102C65.6 99.8 63.8 98 61.6 98ZM57.6 102C57.6 100.9 58.5 100 59.6 100V108H57.6V102ZM63.6 108H61.6V100C62.7 100 63.6 100.9 63.6 102V108Z" fill="#133DBD"/>
            <path d="M76.1 98H74.1C71.9 98 70.1 99.8 70.1 102V109C70.1 109.6 70.5 110 71.1 110H79.1C79.7 110 80.1 109.6 80.1 109V102C80.1 99.8 78.3 98 76.1 98ZM72.1 102C72.1 100.9 73 100 74.1 100V108H72.1V102ZM78.1 108H76.1V100C77.2 100 78.1 100.9 78.1 102V108Z" fill="#133DBD"/>
        </g>
        <g clip-path="url(#clip2_1_6054)">
            <path d="M150 95.009H124V156.009H150V95.009Z" fill="white"/>
            <path d="M150 157.009H124C123.4 157.009 123 156.609 123 156.009V95.009C123 94.409 123.4 94.009 124 94.009H150C150.6 94.009 151 94.409 151 95.009V156.009C151 156.609 150.6 157.009 150 157.009ZM125 155.009H149V96.009H125V155.009Z" fill="#133DBD"/>
            <path d="M180.2 156.009H154.2V64.009L180.2 84.009V156.009Z" fill="white"/>
            <path d="M180.2 157.009H154.2C153.6 157.009 153.2 156.609 153.2 156.009V64.009C153.2 63.609 153.4 63.309 153.8 63.109C154.1 62.909 154.5 63.009 154.9 63.209L180.9 83.209C181.1 83.409 181.3 83.709 181.3 84.009V156.009C181.2 156.609 180.8 157.009 180.2 157.009ZM155.2 155.009H179.2V84.509L155.2 66.009V155.009Z" fill="#133DBD"/>
            <path d="M210.2 156.009H184.2V113.009L210.2 82.009V156.009Z" fill="white"/>
            <path d="M210.2 157.009H184.2C183.6 157.009 183.2 156.609 183.2 156.009V113.009C183.2 112.809 183.3 112.509 183.4 112.409L209.4 81.409C209.7 81.109 210.1 81.009 210.5 81.109C210.9 81.209 211.2 81.609 211.2 82.009V156.009C211.2 156.609 210.8 157.009 210.2 157.009ZM185.2 155.009H209.2V84.809L185.2 113.409V155.009Z" fill="#133DBD"/>
            <path d="M130.2 101.009H128.2V107.009H130.2V101.009Z" fill="#133DBD"/>
            <path d="M135.2 101.009H133.2V107.009H135.2V101.009Z" fill="#133DBD"/>
            <path d="M140.2 101.009H138.2V107.009H140.2V101.009Z" fill="#133DBD"/>
            <path d="M145.2 101.009H143.2V107.009H145.2V101.009Z" fill="#133DBD"/>
            <path d="M130.2 110.009H128.2V116.009H130.2V110.009Z" fill="#133DBD"/>
            <path d="M135.2 110.009H133.2V116.009H135.2V110.009Z" fill="#133DBD"/>
            <path d="M140.2 110.009H138.2V116.009H140.2V110.009Z" fill="#133DBD"/>
            <path d="M145.2 110.009H143.2V116.009H145.2V110.009Z" fill="#133DBD"/>
            <path d="M130.2 119.009H128.2V125.009H130.2V119.009Z" fill="#133DBD"/>
            <path d="M135.2 119.009H133.2V125.009H135.2V119.009Z" fill="#133DBD"/>
            <path d="M140.2 119.009H138.2V125.009H140.2V119.009Z" fill="#133DBD"/>
            <path d="M145.2 119.009H143.2V125.009H145.2V119.009Z" fill="#133DBD"/>
            <path d="M130.2 128.009H128.2V134.009H130.2V128.009Z" fill="#133DBD"/>
            <path d="M135.2 128.009H133.2V134.009H135.2V128.009Z" fill="#133DBD"/>
            <path d="M140.2 128.009H138.2V134.009H140.2V128.009Z" fill="#133DBD"/>
            <path d="M145.2 128.009H143.2V134.009H145.2V128.009Z" fill="#133DBD"/>
            <path d="M130.2 137.009H128.2V143.009H130.2V137.009Z" fill="#133DBD"/>
            <path d="M135.2 137.009H133.2V143.009H135.2V137.009Z" fill="#133DBD"/>
            <path d="M140.2 137.009H138.2V143.009H140.2V137.009Z" fill="#133DBD"/>
            <path d="M145.2 137.009H143.2V143.009H145.2V137.009Z" fill="#133DBD"/>
            <path d="M130.2 146.009H128.2V152.009H130.2V146.009Z" fill="#133DBD"/>
            <path d="M135.2 146.009H133.2V152.009H135.2V146.009Z" fill="#133DBD"/>
            <path d="M140.2 146.009H138.2V152.009H140.2V146.009Z" fill="#133DBD"/>
            <path d="M145.2 146.009H143.2V152.009H145.2V146.009Z" fill="#133DBD"/>
            <path d="M160.2 103.009H158.2V108.809H160.2V103.009Z" fill="#133DBD"/>
            <path d="M165.2 103.009H163.2V108.809H165.2V103.009Z" fill="#133DBD"/>
            <path d="M170.2 103.009H168.2V108.809H170.2V103.009Z" fill="#133DBD"/>
            <path d="M175.2 103.009H173.2V108.809H175.2V103.009Z" fill="#133DBD"/>
            <path d="M160.2 94.309H158.2V100.109H160.2V94.309Z" fill="#133DBD"/>
            <path d="M165.2 94.309H163.2V100.109H165.2V94.309Z" fill="#133DBD"/>
            <path d="M170.2 94.309H168.2V100.109H170.2V94.309Z" fill="#133DBD"/>
            <path d="M175.2 94.309H173.2V100.109H175.2V94.309Z" fill="#133DBD"/>
            <path d="M160.2 85.709H158.2V91.509H160.2V85.709Z" fill="#133DBD"/>
            <path d="M165.2 85.709H163.2V91.509H165.2V85.709Z" fill="#133DBD"/>
            <path d="M170.2 85.709H168.2V91.509H170.2V85.709Z" fill="#133DBD"/>
            <path d="M175.2 85.709H173.2V91.509H175.2V85.709Z" fill="#133DBD"/>
            <path d="M160.2 77.009H158.2V82.809H160.2V77.009Z" fill="#133DBD"/>
            <path d="M165.2 77.009H163.2V82.809H165.2V77.009Z" fill="#133DBD"/>
            <path d="M160.2 111.609H158.2V117.409H160.2V111.609Z" fill="#133DBD"/>
            <path d="M165.2 111.609H163.2V117.409H165.2V111.609Z" fill="#133DBD"/>
            <path d="M170.2 111.609H168.2V117.409H170.2V111.609Z" fill="#133DBD"/>
            <path d="M175.2 111.609H173.2V117.409H175.2V111.609Z" fill="#133DBD"/>
            <path d="M160.2 120.309H158.2V126.109H160.2V120.309Z" fill="#133DBD"/>
            <path d="M165.2 120.309H163.2V126.109H165.2V120.309Z" fill="#133DBD"/>
            <path d="M170.2 120.309H168.2V126.109H170.2V120.309Z" fill="#133DBD"/>
            <path d="M175.2 120.309H173.2V126.109H175.2V120.309Z" fill="#133DBD"/>
            <path d="M160.2 129.009H158.2V134.809H160.2V129.009Z" fill="#133DBD"/>
            <path d="M165.2 129.009H163.2V134.809H165.2V129.009Z" fill="#133DBD"/>
            <path d="M170.2 129.009H168.2V134.809H170.2V129.009Z" fill="#133DBD"/>
            <path d="M175.2 129.009H173.2V134.809H175.2V129.009Z" fill="#133DBD"/>
            <path d="M160.2 137.609H158.2V143.409H160.2V137.609Z" fill="#133DBD"/>
            <path d="M165.2 137.609H163.2V143.409H165.2V137.609Z" fill="#133DBD"/>
            <path d="M170.2 137.609H168.2V143.409H170.2V137.609Z" fill="#133DBD"/>
            <path d="M175.2 137.609H173.2V143.409H175.2V137.609Z" fill="#133DBD"/>
            <path d="M160.2 146.309H158.2V152.109H160.2V146.309Z" fill="#133DBD"/>
            <path d="M165.2 146.309H163.2V152.109H165.2V146.309Z" fill="#133DBD"/>
            <path d="M170.2 146.309H168.2V152.109H170.2V146.309Z" fill="#133DBD"/>
            <path d="M175.2 146.309H173.2V152.109H175.2V146.309Z" fill="#133DBD"/>
            <path d="M200.2 103.009H198.2V108.809H200.2V103.009Z" fill="#133DBD"/>
            <path d="M205.2 103.009H203.2V108.809H205.2V103.009Z" fill="#133DBD"/>
            <path d="M205.2 94.309H203.2V100.109H205.2V94.309Z" fill="#133DBD"/>
            <path d="M190.2 111.609H188.2V117.409H190.2V111.609Z" fill="#133DBD"/>
            <path d="M195.2 111.609H193.2V117.409H195.2V111.609Z" fill="#133DBD"/>
            <path d="M200.2 111.609H198.2V117.409H200.2V111.609Z" fill="#133DBD"/>
            <path d="M205.2 111.609H203.2V117.409H205.2V111.609Z" fill="#133DBD"/>
            <path d="M190.2 120.309H188.2V126.109H190.2V120.309Z" fill="#133DBD"/>
            <path d="M195.2 120.309H193.2V126.109H195.2V120.309Z" fill="#133DBD"/>
            <path d="M200.2 120.309H198.2V126.109H200.2V120.309Z" fill="#133DBD"/>
            <path d="M205.2 120.309H203.2V126.109H205.2V120.309Z" fill="#133DBD"/>
            <path d="M190.2 129.009H188.2V134.809H190.2V129.009Z" fill="#133DBD"/>
            <path d="M195.2 129.009H193.2V134.809H195.2V129.009Z" fill="#133DBD"/>
            <path d="M200.2 129.009H198.2V134.809H200.2V129.009Z" fill="#133DBD"/>
            <path d="M205.2 129.009H203.2V134.809H205.2V129.009Z" fill="#133DBD"/>
            <path d="M190.2 137.609H188.2V143.409H190.2V137.609Z" fill="#133DBD"/>
            <path d="M195.2 137.609H193.2V143.409H195.2V137.609Z" fill="#133DBD"/>
            <path d="M200.2 137.609H198.2V143.409H200.2V137.609Z" fill="#133DBD"/>
            <path d="M205.2 137.609H203.2V143.409H205.2V137.609Z" fill="#133DBD"/>
            <path d="M190.2 146.309H188.2V152.109H190.2V146.309Z" fill="#133DBD"/>
            <path d="M195.2 146.309H193.2V152.109H195.2V146.309Z" fill="#133DBD"/>
            <path d="M200.2 146.309H198.2V152.109H200.2V146.309Z" fill="#133DBD"/>
            <path d="M205.2 146.309H203.2V152.109H205.2V146.309Z" fill="#133DBD"/>
        </g><path d="M0 156H241" stroke="#133DBD" stroke-width="2" stroke-linecap="round"/>
    </g>
    <defs>
        <clipPath id="clip0_1_6054">
            <rect width="241" height="157" fill="white"/>
        </clipPath>
        <clipPath id="clip1_1_6054">
            <rect width="56.6" height="78" fill="white" transform="translate(32 79)"/>
        </clipPath>
        <clipPath id="clip2_1_6054">
            <rect width="88" height="94" fill="white" transform="translate(123 63)"/>
        </clipPath>
    </defs>
</svg>
