<svg width="412" height="90" viewBox="0 0 412 90" fill="none" xmlns="http://www.w3.org/2000/svg">
    <g clip-path="url(#clip0_1_6328)">
        <path fill-rule="evenodd" clip-rule="evenodd" d="M139.098 58.5533C139.098 60.7773 137.295 62.5793 135.072 62.5793C132.849 62.5793 131.046 60.7773 131.046 58.5533C131.046 56.3293 132.849 54.5283 135.072 54.5283C137.295 54.5283 139.098 56.3293 139.098 58.5533Z" fill="#65D78D"/>
        <path fill-rule="evenodd" clip-rule="evenodd" d="M139.098 58.5533C139.098 60.7773 137.295 62.5793 135.072 62.5793C132.849 62.5793 131.046 60.7773 131.046 58.5533C131.046 56.3293 132.849 54.5283 135.072 54.5283C137.295 54.5283 139.098 56.3293 139.098 58.5533Z" stroke="#133DBD" stroke-width="2"/>
        <path fill-rule="evenodd" clip-rule="evenodd" d="M143.124 70.9673C143.124 75.4143 139.519 79.0203 135.071 79.0203C130.625 79.0203 127.02 75.4143 127.02 70.9673C127.02 66.5203 130.625 62.9153 135.071 62.9153C139.519 62.9153 143.124 66.5203 143.124 70.9673Z" fill="#65D78D"/>
        <path fill-rule="evenodd" clip-rule="evenodd" d="M143.124 70.9673C143.124 75.4143 139.519 79.0203 135.071 79.0203C130.625 79.0203 127.02 75.4143 127.02 70.9673C127.02 66.5203 130.625 62.9153 135.071 62.9153C139.519 62.9153 143.124 66.5203 143.124 70.9673Z" stroke="#133DBD" stroke-width="2"/>
        <path d="M135.072 78.6841V88.7491" stroke="#133DBD" stroke-width="2"/>
        <path fill-rule="evenodd" clip-rule="evenodd" d="M65.0784 58.5533C65.0784 60.7773 63.2754 62.5793 61.0524 62.5793C58.8284 62.5793 57.0264 60.7773 57.0264 58.5533C57.0264 56.3293 58.8284 54.5283 61.0524 54.5283C63.2754 54.5283 65.0784 56.3293 65.0784 58.5533Z" fill="#65D78D"/>
        <path fill-rule="evenodd" clip-rule="evenodd" d="M65.0784 58.5533C65.0784 60.7773 63.2754 62.5793 61.0524 62.5793C58.8284 62.5793 57.0264 60.7773 57.0264 58.5533C57.0264 56.3293 58.8284 54.5283 61.0524 54.5283C63.2754 54.5283 65.0784 56.3293 65.0784 58.5533Z" stroke="#133DBD" stroke-width="2"/>
        <path fill-rule="evenodd" clip-rule="evenodd" d="M69.1048 70.9673C69.1048 75.4143 65.4998 79.0203 61.0518 79.0203C56.6048 79.0203 52.9998 75.4143 52.9998 70.9673C52.9998 66.5203 56.6048 62.9153 61.0518 62.9153C65.4998 62.9153 69.1048 66.5203 69.1048 70.9673Z" fill="#65D78D"/>
        <path fill-rule="evenodd" clip-rule="evenodd" d="M69.1048 70.9673C69.1048 75.4143 65.4998 79.0203 61.0518 79.0203C56.6048 79.0203 52.9998 75.4143 52.9998 70.9673C52.9998 66.5203 56.6048 62.9153 61.0518 62.9153C65.4998 62.9153 69.1048 66.5203 69.1048 70.9673Z" stroke="#133DBD" stroke-width="2"/>
        <path d="M61.052 78.6841V88.7491" stroke="#133DBD" stroke-width="2"/>
        <mask id="mask0_1_6328" style="mask-type:luminance" maskUnits="userSpaceOnUse" x="52" y="0" width="93" height="90">
            <path fill-rule="evenodd" clip-rule="evenodd" d="M52 89.75H144.124V0H52V89.75Z" fill="white"/>
        </mask>
        <g mask="url(#mask0_1_6328)">
            <path fill-rule="evenodd" clip-rule="evenodd" d="M95.868 14.163H124.825V5.388H95.868V14.163Z" fill="white"/>
            <path fill-rule="evenodd" clip-rule="evenodd" d="M95.868 14.163H124.825V5.388H95.868V14.163Z" stroke="#133DBD" stroke-width="2"/>
            <path fill-rule="evenodd" clip-rule="evenodd" d="M98.502 88.75H122.194V14.163H98.502V88.75Z" fill="white"/>
            <path fill-rule="evenodd" clip-rule="evenodd" d="M98.502 88.75H122.194V14.163H98.502V88.75Z" stroke="#133DBD" stroke-width="2"/>
            <path fill-rule="evenodd" clip-rule="evenodd" d="M104.644 5.38699H116.051V0.998993H104.644V5.38699Z" fill="white"/>
            <path fill-rule="evenodd" clip-rule="evenodd" d="M104.644 5.38699H116.051V0.998993H104.644V5.38699Z" stroke="#133DBD" stroke-width="2"/>
            <path fill-rule="evenodd" clip-rule="evenodd" d="M103.327 26.448H107.715V19.427H103.327V26.448Z" stroke="#133DBD" stroke-width="2"/>
            <path fill-rule="evenodd" clip-rule="evenodd" d="M112.102 26.448H116.49V19.427H112.102V26.448Z" stroke="#133DBD" stroke-width="2"/>
            <path fill-rule="evenodd" clip-rule="evenodd" d="M103.327 39.171H107.715V32.15H103.327V39.171Z" fill="white"/>
            <path fill-rule="evenodd" clip-rule="evenodd" d="M103.327 39.171H107.715V32.15H103.327V39.171Z" stroke="#133DBD" stroke-width="2"/>
            <path fill-rule="evenodd" clip-rule="evenodd" d="M112.102 39.171H116.49V32.15H112.102V39.171Z" stroke="#133DBD" stroke-width="2"/>
            <path fill-rule="evenodd" clip-rule="evenodd" d="M103.327 51.895H107.715V44.874H103.327V51.895Z" stroke="#133DBD" stroke-width="2"/>
            <path fill-rule="evenodd" clip-rule="evenodd" d="M112.102 51.895H116.49V44.874H112.102V51.895Z" stroke="#133DBD" stroke-width="2"/>
            <path fill-rule="evenodd" clip-rule="evenodd" d="M103.327 64.619H107.715V57.599H103.327V64.619Z" stroke="#133DBD" stroke-width="2"/>
            <path fill-rule="evenodd" clip-rule="evenodd" d="M112.102 64.619H116.49V57.599H112.102V64.619Z" stroke="#133DBD" stroke-width="2"/>
            <path fill-rule="evenodd" clip-rule="evenodd" d="M103.327 77.342H107.715V70.322H103.327V77.342Z" stroke="#133DBD" stroke-width="2"/>
            <path fill-rule="evenodd" clip-rule="evenodd" d="M112.102 77.342H116.49V70.322H112.102V77.342Z" stroke="#133DBD" stroke-width="2"/>
            <path fill-rule="evenodd" clip-rule="evenodd" d="M72.176 34.345H98.501V25.57H72.176V34.345Z" fill="white"/>
            <path fill-rule="evenodd" clip-rule="evenodd" d="M72.176 34.345H98.501V25.57H72.176V34.345Z" stroke="#133DBD" stroke-width="2"/>
            <path fill-rule="evenodd" clip-rule="evenodd" d="M74.809 88.75H98.501V34.346H74.809V88.75Z" fill="white"/>
            <path fill-rule="evenodd" clip-rule="evenodd" d="M74.809 88.75H98.501V34.346H74.809V88.75Z" stroke="#133DBD" stroke-width="2"/>
            <path fill-rule="evenodd" clip-rule="evenodd" d="M80.951 88.75H92.359V65.058H80.951V88.75Z" fill="white"/>
            <path fill-rule="evenodd" clip-rule="evenodd" d="M80.951 88.75H92.359V65.058H80.951V88.75Z" stroke="#133DBD" stroke-width="2"/>
            <path fill-rule="evenodd" clip-rule="evenodd" d="M75.2469 25.131H78.7569V20.743H75.2469V25.131Z" fill="white"/>
            <path fill-rule="evenodd" clip-rule="evenodd" d="M75.2469 25.131H78.7569V20.743H75.2469V25.131Z" stroke="#133DBD" stroke-width="2"/>
        </g>
        <rect y="88" width="412" height="2" fill="#133DBD"/>
    </g>
    <defs>
        <clipPath id="clip0_1_6328">
            <rect width="412" height="90" fill="white"/>
        </clipPath>
    </defs>
</svg>
