<svg width="224" height="120" viewBox="0 0 224 120" xmlns="http://www.w3.org/2000/svg">
    <path d="M154.272 46.8153H71.5489L68.2778 75.1708H157.543L154.272 46.8153Z" fill="#A8BEEA"/>
    <path d="M154.017 75.39H73.0695V112.088H154.017V75.39Z" fill="white"/>
    <path d="M154.017 76.5763H73.7979V78.9618H154.017V76.5763Z" fill="#315ED1"/>
    <path d="M146.465 61.5797H152.828L145.954 47.6921L143.168 42.0571L133.368 22.2379L123.567 42.0571L120.769 47.6921L113.895 61.5797H120.258L119.798 74.1908L117.434 80.1482V112.076H149.289V80.1482L146.925 74.1908L146.465 61.5797Z" fill="white"/>
    <path d="M109.18 90.8637H97.3856V111.096H109.18V90.8637Z" fill="white"/>
    <path d="M139.859 90.8637H126.877V106.337H139.859V90.8637Z" fill="white"/>
    <path d="M139.859 90.8637H126.877V96.8211H139.859V90.8637Z" fill="white"/>
    <path d="M91.4951 90.8637H80.8768V101.579H91.4951V90.8637Z" fill="white"/>
    <path d="M113.895 61.5797H120.258L120.769 47.6921L113.895 61.5797Z" fill="white"/>
    <path d="M120.258 62.8692H113.895C113.447 62.8692 113.038 62.6371 112.808 62.2632C112.578 61.8892 112.553 61.4121 112.757 61.0124L119.632 47.1247C119.9 46.5832 120.513 46.2995 121.088 46.4542C121.676 46.6089 122.072 47.1505 122.047 47.7566L121.536 61.6442C121.51 62.3276 120.948 62.8692 120.258 62.8692ZM115.965 60.2903H119.031L119.274 53.5979L115.965 60.2903Z" fill="#133DBD"/>
    <path d="M152.828 61.5797L145.954 47.6921L146.465 61.5797H152.828Z" fill="white"/>
    <path d="M152.828 62.8692H146.465C145.775 62.8692 145.213 62.3147 145.187 61.6313L144.676 47.7437C144.651 47.1376 145.06 46.5961 145.635 46.4413C146.21 46.2866 146.823 46.5703 147.091 47.1118L153.966 60.9995C154.17 61.3992 154.145 61.8763 153.915 62.2503C153.685 62.6371 153.276 62.8692 152.828 62.8692ZM147.705 60.2903H150.771L147.462 53.5979L147.705 60.2903Z" fill="#133DBD"/>
    <path d="M146.925 74.1908L146.465 61.5797L145.954 47.6921L143.168 42.0571L133.368 22.2379L123.567 42.0571L120.769 47.6921L120.258 61.5797L119.798 74.1908" fill="white"/>
    <path d="M115.083 38.4853H109.18V46.8153H115.083V38.4853Z" fill="white"/>
    <path d="M137.495 48.0016H129.241V68.2334H137.495V48.0016Z" fill="white"/>
    <path d="M137.495 48.0016H129.241V55.79H137.495V48.0016Z" fill="white"/>
    <path d="M83.5729 58.0595H87.1251L87.4062 50.3097L83.5729 58.0595Z" fill="white"/>
    <path d="M105.295 58.0595L101.462 50.3097L101.743 58.0595H105.295Z" fill="white"/>
    <path d="M101.743 58.0595L101.462 50.3097L99.9029 47.1505L94.434 36.0997L88.9651 47.1505L87.4062 50.3097L87.1251 58.0595L86.8696 65.0871H102.011L101.743 58.0595Z" fill="white"/>
    <path d="M97.3856 52.7597H91.4823V59.9034H97.3856V52.7597Z" fill="white"/>
    <path d="M156.368 112.076H70.7056V117.04H156.368V112.076Z" fill="white"/>
    <path d="M91.4823 89.5742H80.864C80.1612 89.5742 79.5862 90.1545 79.5862 90.8637V101.579C79.5862 102.288 80.1612 102.869 80.864 102.869H91.4823C92.1851 102.869 92.7601 102.288 92.7601 101.579V90.8637C92.7601 90.1416 92.1978 89.5742 91.4823 89.5742ZM90.2045 100.29H82.1417V92.1532H90.2045V100.29Z" fill="#133DBD"/>
    <path d="M97.3856 51.4703H91.4823C90.7795 51.4703 90.2045 52.0505 90.2045 52.7597V59.9034C90.2045 60.6126 90.7795 61.1929 91.4823 61.1929H97.3856C98.0884 61.1929 98.6634 60.6126 98.6634 59.9034V52.7597C98.6634 52.0505 98.0884 51.4703 97.3856 51.4703ZM96.1079 58.6139H92.7601V54.0492H96.1079V58.6139Z" fill="#133DBD"/>
    <path d="M129.241 69.5358H137.495C138.198 69.5358 138.773 68.9555 138.773 68.2463V55.79V48.0016C138.773 47.2924 138.198 46.7121 137.495 46.7121H129.241C128.538 46.7121 127.963 47.2924 127.963 48.0016V55.79V68.2463C127.963 68.9555 128.525 69.5358 129.241 69.5358ZM130.518 49.2911H136.217V54.5005H130.518V49.2911ZM130.518 57.0795H136.217V66.9568H130.518V57.0795Z" fill="#133DBD"/>
    <path d="M157.543 76.4603C157.914 76.4603 158.259 76.3055 158.502 76.0347C158.745 75.7639 158.86 75.39 158.821 75.0289L155.55 46.6605C155.473 46.0158 154.924 45.5258 154.285 45.5258H146.325L134.505 21.6576C134.071 20.7808 132.652 20.7808 132.218 21.6576L120.411 45.5258H116.348V38.4853C116.348 37.7761 115.773 37.1958 115.07 37.1958H109.167C108.464 37.1958 107.889 37.7761 107.889 38.4853V45.5258H100.516L95.5712 35.5195C95.1367 34.6426 93.7184 34.6426 93.284 35.5195L88.339 45.5258H71.549C70.8973 45.5258 70.3606 46.0158 70.284 46.6605L67.0129 75.0289C66.9745 75.39 67.0895 75.7639 67.3323 76.0347C67.5751 76.3055 67.9201 76.4603 68.2906 76.4603H71.8045V110.786H70.7056C70.0029 110.786 69.4279 111.366 69.4279 112.076V117.04C69.4279 117.749 70.0029 118.329 70.7056 118.329H95.0345H111.543H156.368C157.071 118.329 157.646 117.749 157.646 117.04V112.076C157.646 111.366 157.071 110.786 156.368 110.786H155.282V76.4603H157.543ZM105.295 59.3489C105.742 59.3489 106.151 59.1168 106.381 58.7429C106.586 58.4076 106.611 58.0079 106.483 57.6339H114.418L113.332 59.8132H103.072L103.059 59.3489H105.295ZM104.158 52.8629H116.782L115.709 55.0421H105.244L104.158 52.8629ZM112.911 62.3921C113.153 62.6887 113.511 62.8821 113.895 62.8821H118.929L118.865 64.5842H103.263L103.187 62.405H112.911V62.3921ZM118.712 81.4376H148.011V110.799H118.712V81.4376ZM156.112 73.8813H148.203L148.126 71.9084H155.882L156.112 73.8813ZM155.192 67.1503C155.243 67.1503 155.282 67.1245 155.333 67.1245L155.588 69.3424H148.037L147.96 67.1632H155.192V67.1503ZM155.039 64.5713H147.858L147.794 62.8692H152.828C153.212 62.8692 153.57 62.6887 153.812 62.3792H154.783L155.039 64.5713ZM154.49 59.8132H153.378L152.292 57.6339H154.234L154.49 59.8132ZM153.94 55.0421H151.027L149.953 52.8629H153.697L153.94 55.0421ZM153.135 48.1047L153.391 50.2839H148.663L147.59 48.1047H153.135ZM150.758 60.2903H147.692L147.449 53.5979L150.758 60.2903ZM120.961 74.7453C120.961 74.7453 120.961 74.7324 120.973 74.7324L120.999 74.6679C121.05 74.5261 121.088 74.3842 121.088 74.2424L122.047 48.0274L133.368 25.1263L144.689 48.0274L145.187 61.6313L145.647 74.2424C145.647 74.3842 145.686 74.5389 145.737 74.6679L147.398 78.8458H119.325L120.961 74.7453ZM119.031 60.2903H115.965L119.274 53.5979L119.031 60.2903ZM110.457 39.7747H113.805V45.5258H110.457V39.7747ZM109.18 48.1047H115.083H119.146L118.073 50.2839H102.88L102.599 49.7295L101.794 48.1047H109.18ZM88.6712 50.6321L94.434 38.9882L100.197 50.6321L100.682 63.7976H88.1984L88.6712 50.6321ZM72.6862 48.1047H87.074L86.269 49.7295L85.9879 50.2839H72.4306L72.6862 48.1047ZM72.1367 52.8629H84.7101L83.6367 55.0421H71.8812L72.1367 52.8629ZM71.5873 57.6211H82.3845C82.2567 57.9821 82.2823 58.3947 82.4867 58.73C82.7167 59.1039 83.1256 59.3361 83.5729 59.3361H85.7962L85.7834 59.8132H71.3317L71.5873 57.6211ZM71.0379 62.3921H85.694L85.6173 64.5713H70.7823L71.0379 62.3921ZM70.4884 67.1245C70.5395 67.1245 70.5779 67.1503 70.629 67.1503H118.776L118.699 69.3295H70.2329L70.4884 67.1245ZM69.939 71.9084H118.597L118.52 73.8813H69.709L69.939 71.9084ZM74.3473 76.6795H117.447L116.271 79.6453L116.258 79.6711C116.207 79.8129 116.182 79.9547 116.182 80.0966C116.182 80.1095 116.169 80.1224 116.169 80.1482V110.799H110.47V90.8637C110.47 90.1545 109.895 89.5742 109.192 89.5742H97.3984C96.6956 89.5742 96.1206 90.1545 96.1206 90.8637V110.799H74.3473V76.6795ZM98.6634 109.806V92.1532H107.902V109.806H98.6634ZM71.9834 113.365H73.0695H95.3667L94.2295 115.751H71.9834V113.365ZM97.0534 115.763L98.1906 113.378H108.375L109.512 115.763H97.0534ZM155.09 115.763H112.348L111.211 113.378H117.434H149.289H154.004H155.09V115.763ZM150.567 110.786V80.1482C150.567 80.1353 150.554 80.1224 150.554 80.0966C150.554 79.9547 150.528 79.8 150.477 79.6711L150.465 79.6453L149.289 76.6795H152.726V110.799H150.567V110.786Z" fill="#133DBD"/>
    <path d="M139.846 89.5742H126.877C126.174 89.5742 125.599 90.1545 125.599 90.8637V96.8211V106.35C125.599 107.059 126.174 107.64 126.877 107.64H139.859C140.562 107.64 141.137 107.059 141.137 106.35V96.8211V90.8637C141.124 90.1416 140.562 89.5742 139.846 89.5742ZM138.568 105.048H128.142V98.0976H138.568V105.048ZM138.568 95.5187H128.142V92.1403H138.568V95.5187Z" fill="#133DBD"/>
    <path d="M60 72.543C60 63.9517 52.9901 56.976 44.3277 56.976C42.6365 56.976 41.0099 57.2453 39.4866 57.7454C37.1628 52.0392 31.5471 48 24.9632 48C16.3138 48 9.29096 54.9628 9.29096 63.567C9.29096 67.8498 11.0338 71.7223 13.8481 74.5305C10.285 77.3772 8 81.7498 8 86.6481C8 95.2394 15.0099 102.215 23.6723 102.215C26.5382 102.215 29.2234 101.433 31.5472 100.099C33.135 100.638 34.8262 100.933 36.5819 100.933C45.0248 100.933 51.8928 94.2905 52.2155 85.9813C56.863 83.2757 60 78.2748 60 72.543Z" fill="#A8BEEA"/>
    <path d="M37.4727 92.4953C36.8659 92.1235 36.0655 92.303 35.6911 92.9057L32.5799 97.8425V67.3241C32.5799 66.6188 31.999 66.0418 31.289 66.0418C30.5789 66.0418 29.998 66.6188 29.998 67.3241V85.8916L25.7249 81.878C25.2085 81.3907 24.3952 81.4164 23.9046 81.9293C23.4141 82.4422 23.4399 83.2501 23.9563 83.7373L29.998 89.4307V116.718C29.998 117.423 30.5789 118 31.289 118C31.999 118 32.5799 117.423 32.5799 116.718V102.472C32.7219 102.369 32.851 102.254 32.9414 102.1L37.8729 94.2649C38.2602 93.6622 38.0794 92.8672 37.4727 92.4953Z" fill="#133DBD"/>
    <path d="M199 119C202.314 119 205 116.314 205 113C205 109.686 202.314 107 199 107C195.686 107 193 109.686 193 113C193 116.314 195.686 119 199 119Z" fill="#315ED1"/>
    <path d="M208.5 102C204.979 102 201.943 104.215 200.729 107.292C200.243 108.277 200 109.385 200 110.615C200 113.323 201.214 115.785 203.157 117.262C203.521 117.508 203.764 117.754 204.129 118H212.871C215.3 116.523 217 113.815 217 110.615C217 105.815 213.236 102 208.5 102Z" fill="#A8BEEA"/>
    <path d="M0 118.5C0 117.672 0.671573 117 1.5 117H222.5C223.328 117 224 117.672 224 118.5C224 119.328 223.328 120 222.5 120H1.49999C0.671567 120 0 119.328 0 118.5Z" fill="#133DBD"/>
</svg>
