<svg width="500" height="200" viewBox="0 0 500 200" fill="none" xmlns="http://www.w3.org/2000/svg">
    <path d="M350.9 191.01H149.1V194.33H350.9V191.01Z" fill="#133DBD"/>
    <path d="M299.46 43.15H251.33V53.11H299.46V43.15Z" fill="#65D78D"/>
    <path d="M301.11 54.77H249.67V41.49H301.11V54.77ZM253 51.45H297.8V44.81H253V51.45Z" fill="#133DBD"/>
    <path d="M292.82 44.81H258V18.26H292.85L292.82 44.81ZM261.28 41.49H289.5V21.57H261.28V41.49Z" fill="#133DBD"/>
    <path d="M292.82 19.92H258V19.27C259.66 14.94 267.8 9.95996 272.94 9.95996H276.26C281.65 10.05 289.54 14.96 292.86 19.69L292.82 19.92Z" fill="#65D78D"/>
    <path d="M294.48 21.57H256.31V19L256.42 18.71C258.31 13.73 266.94 8.30005 272.9 8.30005H276.22C282.59 8.41005 290.79 13.89 294.22 18.74L294.52 19.16L294.48 21.57ZM260.48 18.26H289.42C285.74 14.66 280.04 11.68 276.2 11.62H272.9C269.06 11.62 263 15 260.47 18.26H260.48Z" fill="#133DBD"/>
    <path d="M316.05 194.17H233.05V192.17C233.058 186.988 235.121 182.021 238.785 178.358C242.45 174.695 247.418 172.635 252.6 172.63H296.5C301.682 172.635 306.65 174.695 310.315 178.358C313.98 182.021 316.042 186.988 316.05 192.17V194.17ZM236.44 190.85H312.68C312.351 186.784 310.504 182.991 307.506 180.225C304.508 177.459 300.579 175.922 296.5 175.92H252.62C248.542 175.924 244.614 177.462 241.616 180.227C238.619 182.993 236.771 186.785 236.44 190.85Z" fill="#133DBD"/>
    <path d="M276.22 0H272.9V9.96H276.22V0Z" fill="#133DBD"/>
    <path d="M269.58 19.91H266.26V43.14H269.58V19.91Z" fill="#133DBD"/>
    <path d="M284.52 19.91H281.2V43.14H284.52V19.91Z" fill="#133DBD"/>
    <path d="M292.82 53.11H256.31V68.05H292.82V53.11Z" fill="#65D78D"/>
    <path d="M296.14 137.75H252.99V160.98H296.14V137.75Z" fill="#65D78D"/>
    <path d="M253.85 112.85H295.27L294.32 89.62H254.81L253.85 112.85Z" fill="#65D78D"/>
    <path d="M299.52 175.92H249.6L254.71 51.45H294.41L299.52 175.92ZM253.06 172.6H296.06L291.22 54.77H257.9L253.06 172.6Z" fill="#133DBD"/>
    <path d="M253.97 199.44L241.9 165.88L229.71 161.6V153.03L220.22 144.47L210.74 133.05L202.61 158.74L197.19 165.88L182.29 184.44V194.46" fill="white"/>
    <path d="M252.41 200L240.6 167.18L228.05 162.78V153.77L218.95 145.53L211.41 136.45L204.11 159.52L198.52 166.88L183.95 185.02V194.46H180.63V183.85L195.9 164.84L201.12 157.97L210.08 129.66L221.42 143.32L231.37 152.3V160.42L243.19 164.57L255.53 198.88L252.41 200Z" fill="#133DBD"/>
    <path d="M223.57 195.26L219.12 189.48L222.44 181.18L210.82 169.56L203.44 152.49L175.97 152.97L164.35 167.91V184.5L159.41 195.43" fill="white"/>
    <path d="M222.26 196.27L217.22 189.74L220.49 181.58L209.42 170.51L202.36 154.17L176.79 154.61L166.01 168.47V184.86L160.93 196.12L157.9 194.75L162.69 184.15V167.34L175.15 151.32L204.53 150.81L212.22 168.62L224.38 180.78L221.01 189.22L224.89 194.25L222.26 196.27Z" fill="#133DBD"/>
</svg>
