<svg width="500" height="200" viewBox="0 0 500 200" fill="none" xmlns="http://www.w3.org/2000/svg">
    <path d="M293.122 76.6062L203.783 76.076L203.154 182.164L292.492 182.694L293.122 76.6062Z" fill="white"/>
    <path d="M240.422 137.778L254.662 137.921C256.476 137.939 258.208 138.677 259.478 139.973C260.748 141.268 261.451 143.015 261.433 144.829L261.055 182.659L233.125 182.38L233.503 144.54C233.514 143.642 233.701 142.754 234.054 141.928C234.407 141.103 234.92 140.354 235.562 139.726C236.205 139.099 236.964 138.603 237.798 138.269C238.632 137.935 239.523 137.768 240.422 137.778Z" fill="white"/>
    <path d="M261.8 183.62L233.89 183.46C233.622 183.46 233.357 183.407 233.111 183.302C232.864 183.198 232.641 183.045 232.454 182.853C232.268 182.661 232.122 182.433 232.025 182.184C231.928 181.934 231.882 181.668 231.89 181.4L232.07 150.69C232.094 146.462 233.79 142.416 236.788 139.434C239.786 136.453 243.842 134.78 248.07 134.78H248.16C252.393 134.822 256.437 136.54 259.406 139.558C262.375 142.576 264.027 146.647 264 150.88L263.82 181.59C263.815 182.132 263.596 182.649 263.21 183.03C262.837 183.406 262.33 183.618 261.8 183.62ZM235.93 179.39L259.77 179.53L259.93 150.86C259.941 149.295 259.643 147.743 259.053 146.292C258.464 144.842 257.595 143.522 256.495 142.408C255.396 141.293 254.088 140.407 252.646 139.798C251.203 139.189 249.655 138.871 248.09 138.86H248C244.852 138.865 241.834 140.113 239.602 142.332C237.369 144.552 236.104 147.562 236.08 150.71L235.93 179.39Z" fill="#0022CD"/>
    <path d="M299.61 83.33L197.24 82.73C196.703 82.7169 196.193 82.4938 195.819 82.1086C195.445 81.7234 195.237 81.2068 195.24 80.67L195.3 71.37C195.298 71.102 195.351 70.8364 195.454 70.589C195.557 70.3417 195.709 70.1175 195.9 69.93C196.08 69.7264 196.304 69.5672 196.556 69.4649C196.807 69.3625 197.079 69.3198 197.35 69.34L299.72 69.94C299.988 69.9398 300.253 69.9935 300.499 70.0977C300.746 70.202 300.969 70.3547 301.156 70.5468C301.342 70.7389 301.488 70.9665 301.585 71.2162C301.682 71.4658 301.728 71.7323 301.72 72V81.3C301.71 81.8406 301.491 82.3564 301.11 82.74C300.915 82.937 300.68 83.0912 300.422 83.1928C300.164 83.2943 299.887 83.3411 299.61 83.33ZM199.3 78.66L297.59 79.24V74.01L199.3 73.43V78.66Z" fill="#0022CD"/>
    <path d="M299.008 181.811L196.64 181.204L196.584 190.513L298.952 191.121L299.008 181.811Z" fill="white"/>
    <path d="M299 193.15L196.64 192.54C196.11 192.54 195.601 192.329 195.226 191.954C194.851 191.579 194.64 191.07 194.64 190.54L194.69 181.23C194.69 180.961 194.744 180.695 194.848 180.448C194.953 180.2 195.107 179.977 195.3 179.79C195.708 179.449 196.211 179.243 196.74 179.2L299.11 179.81C299.377 179.81 299.641 179.863 299.887 179.967C300.133 180.07 300.356 180.222 300.542 180.413C300.729 180.604 300.875 180.831 300.972 181.079C301.07 181.328 301.117 181.593 301.11 181.86L301.06 191.17C301.055 191.712 300.836 192.229 300.45 192.61C300.256 192.792 300.028 192.933 299.779 193.026C299.53 193.119 299.265 193.161 299 193.15ZM198.68 188.47L296.97 189.05V183.83L198.68 183.25V188.47Z" fill="#0022CD"/>
    <path d="M295.47 183.82L200.18 183.26L200.8 78.67L296.08 79.23L295.47 183.82ZM204.29 179.2L291.41 179.71L292 83.29L204.88 82.77L204.29 179.2Z" fill="#0022CD"/>
    <path d="M298.38 74L198.56 73.41L203.17 48.88L294.06 49.42L298.38 74ZM203.48 69.35L293.48 69.89L290.63 53.5L206.56 53L203.48 69.35Z" fill="#0022CD"/>
    <path d="M281.213 45.8175L270.044 45.7512L269.889 71.8108L281.059 71.877L281.213 45.8175Z" fill="white"/>
    <path d="M283.09 73.93L267.84 73.8399L268 43.7L283.25 43.79L283.09 73.93ZM271.94 69.7799H279.03L279.16 47.7799L272.07 47.7299L271.94 69.7799Z" fill="#0022CD"/>
    <path d="M203.774 55.4126L203.75 59.4926L269.029 59.8799L269.053 55.8L203.774 55.4126Z" fill="#0022CD"/>
    <path d="M203.132 62.865L203.108 66.9449L268.987 67.3359L269.011 63.256L203.132 62.865Z" fill="#0022CD"/>
    <path d="M281.366 55.8837L281.342 59.9636L293.242 60.0342L293.266 55.9543L281.366 55.8837Z" fill="#0022CD"/>
    <path d="M282.489 63.5582L282.448 67.6382L295.618 67.7699L295.659 63.6899L282.489 63.5582Z" fill="#0022CD"/>
    <path d="M240.422 137.778L254.662 137.921C256.476 137.939 258.208 138.677 259.478 139.973C260.748 141.268 261.451 143.015 261.433 144.829L261.055 182.659L233.125 182.38L233.503 144.54C233.514 143.642 233.701 142.754 234.054 141.928C234.407 141.103 234.92 140.354 235.562 139.726C236.205 139.099 236.964 138.603 237.798 138.269C238.632 137.935 239.523 137.768 240.422 137.778Z" fill="#132031"/>
    <path d="M261.8 183.62L233.89 183.46C233.622 183.46 233.357 183.407 233.111 183.302C232.864 183.198 232.641 183.045 232.454 182.853C232.268 182.661 232.122 182.433 232.025 182.184C231.928 181.934 231.882 181.668 231.89 181.4L232.07 150.69C232.094 146.462 233.79 142.416 236.788 139.434C239.786 136.453 243.842 134.78 248.07 134.78H248.16C252.393 134.822 256.437 136.54 259.406 139.558C262.375 142.576 264.027 146.647 264 150.88L263.82 181.59C263.815 182.132 263.596 182.649 263.21 183.03C262.837 183.406 262.33 183.618 261.8 183.62ZM235.93 179.39L259.77 179.53L259.93 150.86C259.941 149.295 259.643 147.743 259.053 146.292C258.464 144.842 257.595 143.522 256.495 142.408C255.396 141.293 254.088 140.407 252.646 139.798C251.203 139.189 249.655 138.871 248.09 138.86H248C244.852 138.865 241.834 140.113 239.602 142.332C237.369 144.552 236.104 147.562 236.08 150.71L235.93 179.39Z" fill="#0022CD"/>
    <path d="M223.894 101.346L234.204 101.408C235.53 101.415 236.799 101.95 237.731 102.893C238.663 103.836 239.182 105.111 239.175 106.437L239.069 124.267L218.809 124.147L218.915 106.267C218.936 104.958 219.469 103.71 220.4 102.79C221.331 101.87 222.586 101.352 223.894 101.346Z" fill="#132031"/>
    <path d="M239 126.31L218.79 126.19C218.522 126.19 218.257 126.136 218.01 126.032C217.764 125.928 217.541 125.775 217.354 125.583C217.168 125.391 217.022 125.163 216.925 124.914C216.828 124.664 216.782 124.398 216.79 124.13L216.86 111.4C216.884 108.194 218.173 105.127 220.446 102.867C222.72 100.606 225.794 99.3351 229 99.33H229.07C232.292 99.3511 235.373 100.65 237.638 102.941C239.903 105.232 241.166 108.328 241.15 111.55L241.07 124.28C241.074 124.551 241.023 124.82 240.92 125.071C240.817 125.322 240.664 125.549 240.471 125.739C240.277 125.929 240.047 126.078 239.794 126.176C239.541 126.274 239.271 126.319 239 126.31ZM220.84 122.11L236.97 122.21L237.04 111.52C237.048 109.386 236.211 107.335 234.712 105.815C233.213 104.296 231.174 103.431 229.04 103.41C226.913 103.412 224.872 104.254 223.361 105.752C221.85 107.249 220.991 109.283 220.97 111.41L220.84 122.11Z" fill="#0022CD"/>
    <path d="M265.52 101.62H275.83C277.156 101.62 278.428 102.147 279.366 103.084C280.303 104.022 280.83 105.294 280.83 106.62V124.5H260.57V106.57C260.583 105.261 261.109 104.01 262.034 103.084C262.96 102.159 264.211 101.633 265.52 101.62Z" fill="#132031"/>
    <path d="M280.78 126.49H260.57C260.303 126.497 260.038 126.45 259.789 126.352C259.541 126.255 259.314 126.109 259.123 125.922C258.932 125.736 258.781 125.513 258.677 125.267C258.573 125.021 258.52 124.757 258.52 124.49V111.72C258.52 108.498 259.8 105.407 262.079 103.129C264.357 100.85 267.448 99.5699 270.67 99.5699C273.892 99.5699 276.983 100.85 279.261 103.129C281.54 105.407 282.82 108.498 282.82 111.72V124.45C282.825 124.719 282.776 124.987 282.676 125.237C282.575 125.487 282.425 125.714 282.235 125.905C282.044 126.095 281.817 126.245 281.567 126.346C281.317 126.446 281.049 126.495 280.78 126.49ZM262.61 122.41H278.74V111.72C278.666 109.63 277.785 107.65 276.28 106.198C274.776 104.746 272.766 103.934 270.675 103.934C268.584 103.934 266.574 104.746 265.07 106.198C263.566 107.65 262.684 109.63 262.61 111.72V122.41Z" fill="#0022CD"/>
    <path d="M243.976 114.867L212.637 116.016L212.894 123.031L244.233 121.882L243.976 114.867Z" fill="#CCFF69"/>
    <path d="M243.248 102.309L212.483 108.39L213.625 114.168L244.39 108.088L243.248 102.309Z" fill="#CCFF69"/>
    <path d="M255.915 120.962L286.68 127.042L288.167 119.518L257.402 113.438L255.915 120.962Z" fill="#CCFF69"/>
    <path d="M254.458 115.435L285.664 112.331L284.814 103.783L253.608 106.887L254.458 115.435Z" fill="#CCFF69"/>
    <path d="M263.838 144.522L230.287 151.154L231.775 158.678L265.325 152.047L263.838 144.522Z" fill="#CCFF69"/>
    <path d="M264.524 142.345L230.651 138.976L229.97 145.822L263.843 149.191L264.524 142.345Z" fill="#CCFF69"/>
    <path d="M244.199 109.805L214.06 101.14L212.433 106.8L242.572 115.465L244.199 109.805Z" fill="#CCFF69"/>
    <path d="M266.24 179.76L231.25 177.06L231.73 170.06L266.73 172.76L266.24 179.76Z" fill="#CCFF69"/>
    <path d="M266.02 160.43L229.79 166.87L228.51 161.1L264.74 154.66L266.02 160.43Z" fill="#CCFF69"/>
    <path d="M267.09 171.14L230.24 161.57L232.08 155.92L268.93 165.48L267.09 171.14Z" fill="#CCFF69"/>
    <path d="M276.814 128.912L268.983 96.762L263.26 98.1559L271.091 130.306L276.814 128.912Z" fill="#CCFF69"/>
    <path d="M262.19 135.86L232.18 181.5L226.28 177.7L256.29 132.06L262.19 135.86Z" fill="#CCFF69"/>
    <path d="M229.17 65.45H217.84V71.51H229.17V65.45Z" fill="#0022CD"/>
    <path d="M229.17 73.55H217.84C217.31 73.55 216.801 73.3392 216.426 72.9642C216.051 72.5891 215.84 72.0804 215.84 71.55V65.4499C215.84 64.9195 216.051 64.4108 216.426 64.0357C216.801 63.6607 217.31 63.45 217.84 63.45H229.17C229.7 63.45 230.209 63.6607 230.584 64.0357C230.959 64.4108 231.17 64.9195 231.17 65.4499V71.51C231.175 71.7759 231.127 72.0403 231.029 72.2876C230.931 72.5349 230.785 72.7601 230.599 72.9501C230.412 73.1401 230.19 73.291 229.945 73.394C229.699 73.497 229.436 73.55 229.17 73.55ZM219.88 69.47H227.12V67.47H219.88V69.47Z" fill="#0022CD"/>
    <path d="M235.23 50.95H229.17V57.0099H235.23V50.95Z" fill="#0022CD"/>
    <path d="M235.23 60.05H229.17C228.64 60.05 228.131 59.8393 227.756 59.4642C227.381 59.0891 227.17 58.5804 227.17 58.05V52C227.17 51.4696 227.381 50.9609 227.756 50.5858C228.131 50.2107 228.64 50 229.17 50H235.23C235.76 50 236.269 50.2107 236.644 50.5858C237.019 50.9609 237.23 51.4696 237.23 52V58C237.237 58.2668 237.19 58.5323 237.092 58.7807C236.995 59.0292 236.849 59.2556 236.662 59.4466C236.476 59.6377 236.253 59.7895 236.007 59.8931C235.761 59.9967 235.497 60.0501 235.23 60.05ZM231.23 55.97H233.23V54H231.23V55.97Z" fill="#0022CD"/>
    <path d="M241.02 57.95H215.35V64.4899H241.02V57.95Z" fill="#0022CD"/>
    <path d="M241 66.53H215.35C214.82 66.53 214.311 66.3193 213.936 65.9442C213.561 65.5691 213.35 65.0604 213.35 64.53V58C213.35 57.4696 213.561 56.9609 213.936 56.5858C214.311 56.2107 214.82 56 215.35 56H241C241.53 56 242.039 56.2107 242.414 56.5858C242.789 56.9609 243 57.4696 243 58V64.54C242.997 65.0687 242.785 65.5748 242.411 65.9478C242.036 66.3207 241.529 66.53 241 66.53ZM217.37 62.45H239V60H217.39L217.37 62.45Z" fill="#0022CD"/>
    <path d="M414.07 188.83H85.9301V192.91H414.07V188.83Z" fill="#0022CD"/>
    <path d="M374.24 0H370.16V189.79H374.24V0Z" fill="#0022CD"/>
    <path d="M409.506 28.3826L372.134 74.6522L375.317 77.2226L412.688 30.953L409.506 28.3826Z" fill="#0022CD"/>
    <path d="M345.313 27.2857L343.044 30.6765L370.594 49.1129L372.863 45.7221L345.313 27.2857Z" fill="#0022CD"/>
    <path d="M126.802 81.9072L126.384 190.846L130.464 190.862L130.882 81.9229L126.802 81.9072Z" fill="#0022CD"/>
    <path d="M95.4278 104.175L93.1794 107.58L127.676 130.361L129.924 126.956L95.4278 104.175Z" fill="#0022CD"/>
    <path d="M162.797 102.972L127.655 126.945L129.954 130.315L165.096 106.343L162.797 102.972Z" fill="#0022CD"/>
    <path d="M152.113 92.3564L149.83 112.206L153.883 112.672L156.166 92.8225L152.113 92.3564Z" fill="#0022CD"/>
    <path d="M142.536 119.107L140.644 122.723L155.432 130.46L157.324 126.845L142.536 119.107Z" fill="#0022CD"/>
    <path d="M140.449 67.2129L126.989 81.979L130.004 84.7275L143.464 69.9614L140.449 67.2129Z" fill="#0022CD"/>
    <path d="M122.871 67.2641L119.325 69.2825L127.102 82.9442L130.648 80.9258L122.871 67.2641Z" fill="#0022CD"/>
    <path d="M109.773 102.108L105.775 102.923L108.659 117.072L112.657 116.257L109.773 102.108Z" fill="#0022CD"/>
    <path d="M283.33 151.21H279.25V200H283.33V151.21Z" fill="#0022CD"/>
    <path d="M350.93 151.21H346.85V200H350.93V151.21Z" fill="#0022CD"/>
    <path d="M348.89 134.31H281.29V181.94H348.89V134.31Z" fill="white"/>
    <path d="M350.94 184H279.25V132.27H350.94V184ZM283.34 179.92H346.85V136.35H283.34V179.92Z" fill="#0022CD"/>
    <path d="M315.09 173.38C323.573 173.38 330.45 166.503 330.45 158.02C330.45 149.537 323.573 142.66 315.09 142.66C306.607 142.66 299.73 149.537 299.73 158.02C299.73 166.503 306.607 173.38 315.09 173.38Z" fill="white"/>
    <path d="M315.09 176.44C310.827 176.445 306.695 174.971 303.397 172.269C300.1 169.568 297.841 165.807 297.007 161.626C296.172 157.446 296.813 153.106 298.821 149.345C300.828 145.585 304.078 142.637 308.015 141.005C311.953 139.372 316.335 139.156 320.414 140.392C324.494 141.629 328.018 144.242 330.386 147.787C332.754 151.331 333.82 155.587 333.401 159.829C332.982 164.071 331.105 168.037 328.09 171.05C324.643 174.499 319.967 176.438 315.09 176.44ZM315.09 145.72C312.247 145.722 309.493 146.71 307.296 148.515C305.1 150.32 303.597 152.83 303.044 155.619C302.491 158.408 302.922 161.302 304.263 163.808C305.604 166.315 307.773 168.279 310.4 169.366C313.027 170.453 315.95 170.596 318.67 169.77C321.39 168.944 323.74 167.2 325.319 164.836C326.898 162.472 327.609 159.634 327.33 156.805C327.051 153.975 325.8 151.33 323.79 149.32C322.65 148.174 321.294 147.266 319.801 146.648C318.307 146.03 316.706 145.715 315.09 145.72Z" fill="#CCFF69"/>
    <path d="M304.23 171.94C303.625 171.941 303.033 171.762 302.53 171.426C302.027 171.091 301.634 170.613 301.402 170.055C301.17 169.496 301.108 168.881 301.225 168.288C301.343 167.694 301.633 167.149 302.06 166.72L323.79 145C324.074 144.716 324.412 144.49 324.783 144.336C325.155 144.182 325.553 144.103 325.955 144.103C326.357 144.103 326.755 144.182 327.127 144.336C327.498 144.49 327.836 144.716 328.12 145C328.404 145.284 328.63 145.622 328.784 145.993C328.938 146.365 329.017 146.763 329.017 147.165C329.017 147.567 328.938 147.965 328.784 148.337C328.63 148.708 328.404 149.046 328.12 149.33L306.4 171.05C306.115 171.334 305.776 171.558 305.404 171.711C305.031 171.864 304.632 171.942 304.23 171.94Z" fill="#CCFF69"/>
</svg>
