<svg width="500" height="200" viewBox="0 0 500 200" fill="none" xmlns="http://www.w3.org/2000/svg">
    <mask id="mask0_1_4630" style="mask-type:alpha" maskUnits="userSpaceOnUse" x="129" y="0" width="228" height="195">
        <path fill-rule="evenodd" clip-rule="evenodd" d="M310.371 194.737C338.433 175.087 356.632 143.505 356.632 107.895C356.632 48.3061 305.675 0 242.816 0C179.957 0 129 48.3061 129 107.895C129 143.505 147.199 175.087 175.26 194.737H310.371Z" fill="#C4C4C4"/>
    </mask>
    <g mask="url(#mask0_1_4630)">
        <ellipse cx="242.816" cy="107.895" rx="113.816" ry="107.895" fill="#EBF0F6"/>
    </g>
    <path d="M314.479 192.607H148.777V195.337H314.479V192.607Z" fill="#0022CD"/>
    <path d="M272.24 71.0115H232.72V79.2023H272.24V71.0115Z" fill="#CCFF69"/>
    <path d="M273.595 80.5674H231.357V69.6464H273.595V80.5674ZM234.091 77.8372H270.877V72.3766H234.091V77.8372Z" fill="#0022CD"/>
    <path d="M266.788 72.3767H238.197V50.5428H266.813L266.788 72.3767ZM240.89 69.6464H264.062V53.2648H240.89V69.6464Z" fill="#0022CD"/>
    <path d="M266.788 51.9079H238.197V51.3734C239.56 47.8125 246.243 43.7171 250.464 43.7171H253.19C257.616 43.7911 264.095 47.8289 266.821 51.7187L266.788 51.9079Z" fill="#CCFF69"/>
    <path d="M268.151 53.2648H236.809V51.1513L236.899 50.9128C238.451 46.8174 245.537 42.3519 250.431 42.3519H253.157C258.388 42.4424 265.121 46.949 267.937 50.9375L268.184 51.2829L268.151 53.2648ZM240.233 50.5427H263.996C260.974 47.5822 256.294 45.1315 253.141 45.0822H250.431C247.278 45.0822 242.302 47.8618 240.225 50.5427H240.233Z" fill="#0022CD"/>
    <path d="M285.862 195.206H217.71V193.561C217.716 189.3 219.41 185.215 222.419 182.203C225.428 179.19 229.508 177.496 233.762 177.492H269.81C274.064 177.496 278.144 179.19 281.153 182.203C284.162 185.215 285.856 189.3 285.862 193.561V195.206ZM220.493 192.475H283.095C282.825 189.132 281.308 186.012 278.847 183.737C276.385 181.463 273.159 180.199 269.81 180.197H233.779C230.43 180.201 227.205 181.465 224.744 183.74C222.282 186.014 220.765 189.132 220.493 192.475Z" fill="#0022CD"/>
    <path d="M253.157 35.5263H250.431V43.7171H253.157V35.5263Z" fill="#0022CD"/>
    <path d="M247.705 51.8997H244.979V71.0033H247.705V51.8997Z" fill="#0022CD"/>
    <path d="M259.973 51.8997H257.247V71.0033H259.973V51.8997Z" fill="#0022CD"/>
    <path d="M266.788 79.2023H236.809V91.4885H266.788V79.2023Z" fill="#CCFF69"/>
    <path d="M269.514 148.808H234.083V167.911H269.514V148.808Z" fill="#CCFF69"/>
    <path d="M234.789 128.331H268.8L268.019 109.227H235.577L234.789 128.331Z" fill="#CCFF69"/>
    <path d="M272.289 180.197H231.299L235.495 77.8372H268.093L272.289 180.197ZM234.14 177.467H269.448L265.474 80.5674H238.114L234.14 177.467Z" fill="#0022CD"/>
    <path d="M233 195.444L224.977 171.941L214.967 168.421V161.373L207.175 154.334L199.391 144.942L192.715 166.069L188.264 171.941L176.03 187.204V195.444" fill="white"/>
    <path d="M233.607 200L223.909 173.01L213.604 169.391V161.982L206.132 155.206L199.941 147.738L193.947 166.711L189.357 172.763L177.393 187.681V195.444H174.667V186.719L187.205 171.086L191.491 165.436L198.849 142.155L208.16 153.388L216.33 160.773V167.451L226.036 170.863L236.169 199.079L233.607 200Z" fill="#0022CD"/>
    <path d="M209.925 196.102L206.271 191.349L208.997 184.523L199.456 174.967L193.396 160.929L170.84 161.324L161.299 173.61V187.253L157.242 196.242" fill="white"/>
    <path d="M208.85 196.933L204.711 191.562L207.396 184.852L198.307 175.748L192.51 162.311L171.514 162.673L162.662 174.071V187.549L158.491 196.809L156.003 195.683L159.936 186.965V173.141L170.167 159.967L194.291 159.548L200.606 174.194L210.591 184.194L207.823 191.135L211.009 195.271L208.85 196.933Z" fill="#0022CD"/>
</svg>
