<svg width="24" height="24" viewBox="0 0 24 24" fill="none" xmlns="http://www.w3.org/2000/svg">
    <circle cx="12" cy="12" r="9" fill="white"/>
    <path fill-rule="evenodd" clip-rule="evenodd" d="M2 12C2 6.48 6.48 2 12 2C17.52 2 22 6.48 22 12C22 17.52 17.52 22 12 22C6.48 22 2 17.52 2 12ZM16.2435 7.00758C16.4441 7.00758 16.6365 7.0874 16.7782 7.22942C17.0664 7.51762 17.0664 8.00302 16.7782 8.29123L13.0694 12L16.7782 15.7088C17.0739 16.0045 17.0739 16.4824 16.7782 16.7782C16.4824 17.0739 16.0045 17.0739 15.7088 16.7782L12 13.0694L8.29124 16.7782C7.99545 17.0739 7.51763 17.0739 7.22184 16.7782C6.92605 16.4824 6.92605 16.0045 7.22184 15.7088L10.9306 12L7.22184 8.29123C6.92605 7.99544 6.92605 7.51762 7.22184 7.22183C7.36354 7.07981 7.55592 7 7.75654 7C7.95716 7 8.14954 7.07981 8.29124 7.22183L12 10.9306L15.7088 7.22942C15.8505 7.0874 16.0428 7.00758 16.2435 7.00758Z" fill="#E55757"/>
</svg>
