<svg width="24" height="24" viewBox="0 0 24 24" fill="none" xmlns="http://www.w3.org/2000/svg">
    <path d="M21.1432 9.76005L12.4587 3.18275C12.1344 2.93748 11.6862 2.93924 11.3655 3.18714L2.8497 9.76444C2.45691 10.0686 2.38398 10.6339 2.68714 11.0277C2.9903 11.4206 3.55357 11.4927 3.94988 11.1903L11.9209 5.03322L20.0571 11.1947C20.2196 11.3178 20.4103 11.3776 20.5992 11.3776C20.8717 11.3776 21.1405 11.2545 21.3172 11.0206C21.6177 10.6242 21.5395 10.0598 21.1432 9.76005Z" fill="#0022CD"/>
    <path d="M19.0631 12.1959L12.542 7.18605C12.2186 6.93815 11.7687 6.93815 11.4453 7.18605L4.92425 12.1959C4.70281 12.3665 4.57275 12.6302 4.57275 12.9098V20.0998C4.57275 20.5973 4.97521 21 5.47258 21H10.448V15.0064H13.5517V21H18.5279C18.7669 21 18.9963 20.905 19.165 20.7354C19.3337 20.5666 19.4277 20.3371 19.4277 20.098L19.4146 12.908C19.4137 12.6293 19.2845 12.3656 19.0631 12.1959Z" fill="#0022CD"/>
</svg>
