<svg width="24" height="24" viewBox="0 0 24 24" fill="none" xmlns="http://www.w3.org/2000/svg">
    <path fill-rule="evenodd" clip-rule="evenodd" d="M12.1811 2C6.75918 2 2.36333 6.36186 2.36333 11.743C2.36333 13.5834 2.87805 15.3048 3.7718 16.7736L2 22L7.43538 20.2731C8.8416 21.0442 10.4598 21.4848 12.1811 21.4848C17.6041 21.4848 22 17.123 22 11.7418C22 6.36186 17.6041 2 12.1811 2ZM12.1811 19.8525C10.5214 19.8525 8.97505 19.3584 7.68433 18.5116L4.54331 19.5097L5.56378 16.4976C4.58481 15.1601 4.00729 13.5177 4.00729 11.7418C4.00729 7.26983 7.67424 3.63125 12.18 3.63125C16.6869 3.63125 20.3538 7.26983 20.3538 11.7418C20.3549 16.215 16.688 19.8525 12.1811 19.8525ZM16.7844 13.9562C16.5377 13.8226 15.3288 13.175 15.1023 13.0838C14.8758 12.9925 14.7098 12.9447 14.5338 13.1873C14.3577 13.4298 13.8553 13.9717 13.704 14.132C13.5514 14.2922 13.4045 14.3078 13.1578 14.1731C12.9123 14.0396 12.1149 13.747 11.1887 12.8646C10.4699 12.178 9.99776 11.3457 9.86095 11.0909C9.72414 10.8361 9.85983 10.707 9.98991 10.588C10.1065 10.48 10.2512 10.3064 10.3824 10.1662C10.5125 10.026 10.5585 9.92367 10.6482 9.76121C10.7379 9.59875 10.702 9.45188 10.6437 9.32503C10.5854 9.19818 10.1301 7.95638 9.94057 7.45009C9.75105 6.94492 9.53911 7.01947 9.39221 7.01391C9.24643 7.00946 9.07934 6.98164 8.91225 6.97608C8.74516 6.9694 8.47154 7.0217 8.23269 7.26205C7.99383 7.50239 7.32324 8.07989 7.27726 9.30388C7.23129 10.5268 8.08466 11.743 8.20353 11.9132C8.3224 12.0835 9.83291 14.7362 12.3426 15.8266C14.8534 16.9171 14.8657 16.5844 15.3266 16.5599C15.7875 16.5354 16.8315 16.0136 17.0625 15.4405C17.2935 14.8675 17.3115 14.3701 17.2532 14.2644C17.1948 14.1587 17.0311 14.0897 16.7844 13.9562Z" fill="#0022CD"/>
</svg>
