<svg width="24" height="24" viewBox="0 0 24 24" fill="none" xmlns="http://www.w3.org/2000/svg">
    <path fill-rule="evenodd" clip-rule="evenodd" d="M11.9999 3.51731C7.31502 3.51731 3.51719 7.31514 3.51719 12C3.51719 16.6849 7.31502 20.4827 11.9999 20.4827C16.6847 20.4827 20.4826 16.6849 20.4826 12C20.4826 7.31514 16.6847 3.51731 11.9999 3.51731ZM1.86719 12C1.86719 6.40387 6.40375 1.86731 11.9999 1.86731C17.596 1.86731 22.1326 6.40387 22.1326 12C22.1326 17.5961 17.596 22.1327 11.9999 22.1327C6.40375 22.1327 1.86719 17.5961 1.86719 12Z" fill="#0022CD"/>
    <circle cx="11.9999" cy="12" r="1.69231" fill="#0022CD"/>
    <rect x="19.6152" y="10.3077" width="3.38462" height="3.38462" fill="#0022CD"/>
    <rect x="1" y="10.3077" width="3.38462" height="3.38462" fill="#0022CD"/>
    <rect x="13.6924" y="19.6154" width="3.38462" height="3.38462" transform="rotate(90 13.6924 19.6154)" fill="#0022CD"/>
    <rect x="13.6924" y="1" width="3.38462" height="3.38462" transform="rotate(90 13.6924 1)" fill="#0022CD"/>
</svg>
