<svg width="12" height="12" viewBox="0 0 12 12" fill="none" xmlns="http://www.w3.org/2000/svg">
    <path fill-rule="evenodd" clip-rule="evenodd" d="M10.5 5.795V2.5C10.5 1.95 10.05 1.5 9.5 1.5H2.5C1.95 1.5 1.5 1.95 1.5 2.5V4.79L3 6.295L4.65 4.65C4.74342 4.55637 4.87024 4.50376 5.0025 4.50376C5.13476 4.50376 5.26158 4.55637 5.355 4.65L7 6.295L8.645 4.645C8.84 4.45 9.16 4.45 9.355 4.645L10.5 5.795ZM10.5 7.215L9 5.71L7.35 7.35C7.155 7.545 6.84 7.545 6.645 7.35L5 5.705L3.35 7.355C3.155 7.55 2.84 7.55 2.645 7.355L1.5 6.21V9.5C1.5 10.05 1.95 10.5 2.5 10.5H9.5C10.05 10.5 10.5 10.05 10.5 9.5V7.215Z" fill="#0022CD"/>
</svg>
