<svg width="48" height="48" viewBox="0 0 48 48" fill="none" xmlns="http://www.w3.org/2000/svg">
    <path d="M15.1963 28.4182H13.5752V30.8213H15.1963C15.8471 30.8213 16.362 30.2516 16.362 29.6529C16.3608 28.9782 15.8471 28.4182 15.1963 28.4182Z" fill="#C4262E"/>
    <path d="M21.7207 28.4662H20.1094V32.7897H21.7207C24.3424 32.7897 24.4577 28.4662 21.7207 28.4662Z" fill="#C4262E"/>
    <path d="M34.9287 23.1049H8.21429C7.54643 23.1049 7 23.648 7 24.3119V36.3819C7 37.0457 7.54643 37.5889 8.21429 37.5889H34.9287C35.5977 37.5889 36.1429 37.0457 36.1429 36.3819V24.3119C36.1429 23.648 35.5977 23.1049 34.9287 23.1049ZM15.1965 32.0282H13.5754V33.3028C13.5754 33.7277 13.3034 33.9679 12.9537 33.9679C12.6331 33.9679 12.2943 33.7277 12.2943 33.3016V27.8689C12.2943 27.5503 12.5469 27.2014 12.9537 27.2014H15.1965C16.4593 27.2014 17.5959 28.0415 17.5959 29.6529C17.5947 31.1785 16.4593 32.0282 15.1965 32.0282ZM21.8083 33.9679H19.4975C19.1769 33.9679 18.8272 33.7929 18.8272 33.3692V27.8882C18.8272 27.5406 19.1769 27.2895 19.4975 27.2895H21.7208C26.1578 27.2895 26.0607 33.9679 21.8083 33.9679ZM30.4601 28.5436H27.6332V30.0777H30.1091C30.4601 30.0777 30.8086 30.4253 30.8086 30.7633C30.8086 31.0819 30.4601 31.3414 30.1091 31.3414H27.6332V33.368C27.6332 33.706 27.3916 33.9667 27.0516 33.9667C26.6241 33.9667 26.3618 33.706 26.3618 33.368V27.887C26.3618 27.5394 26.6253 27.2883 27.0516 27.2883H30.4601C30.8875 27.2883 31.1389 27.5394 31.1389 27.887C31.1389 28.1972 30.8875 28.5436 30.4601 28.5436Z" fill="#C4262E"/>
    <path d="M39.7856 14.1563L31.7883 6.207C31.0864 5.50694 29.8527 5 28.857 5H15.4998C13.4914 5 11.8569 6.62463 11.8569 8.62101V20.691C11.8569 21.3585 12.3997 21.8981 13.0712 21.8981C13.7427 21.8981 14.2855 21.3585 14.2855 20.691V8.62101C14.2855 7.95595 14.8295 7.41401 15.4998 7.41401H26.4284C27.7702 7.41401 28.857 8.49548 28.857 9.82801V14.3543C28.857 15.8485 30.0883 17.07 31.5891 17.07H36.1427C37.4845 17.07 38.5713 18.1515 38.5713 19.484V40.0031C38.5713 40.6682 38.0285 41.2101 37.357 41.2101H15.4998C14.8295 41.2101 14.2855 40.6682 14.2855 40.0031C14.2855 39.3356 13.7427 38.7961 13.0712 38.7961C12.3997 38.7961 11.8569 39.3356 11.8569 40.0031C11.8569 41.9995 13.4914 43.6241 15.4998 43.6241H37.357C39.3654 43.6241 40.9999 41.9995 40.9999 40.0031V17.07C40.9999 16.0815 40.4899 14.8552 39.7856 14.1563Z" fill="#C4262E"/>
</svg>
