<svg xmlns="http://www.w3.org/2000/svg" width="1200" height="182" viewBox="0 0 158 24"><path d="M6.4.9V23H0V.9h6.4zm13 0l2.3 7.2c.3.8.5 1.7.8 2.5.2.7.4 1.5.7 2.2.2-.7.4-1.3.6-2 .3-.9.6-1.8.8-2.7L27 .8h6.8l3.5 22.1H31L30 15c-.2-1.7-.4-3.3-.6-4.9l-1.2 3.6-3.2 9.4h-3.8L18 13.9l-1.2-3.6c-.2 1.7-.4 3.4-.6 5.2l-1 7.6H8.9L12.5 1h6.9V.9zm29.9 0l2.3 7.2c.3.8.5 1.7.8 2.5.2.7.4 1.5.7 2.2.2-.7.4-1.3.6-2 .3-.9.6-1.8.8-2.7L57 .9h6.8L67.3 23h-6.4l-1-7.9c-.2-1.7-.4-3.3-.6-4.9l-1.2 3.6-3.2 9.2h-3.8L48 13.8l-1.2-3.6c-.2 1.7-.4 3.4-.6 5.2l-1 7.6h-6.4L42.4.9h6.9zm38.5 1.7c1.5 1.2 4.4 4 4.4 9.1 0 1.3-.3 4.9-2.9 7.9-1.5 1.7-4.4 3.9-9.6 3.9-4.7 0-7.5-1.9-8.8-3.4-1.1-1.2-3-4-3-8.2 0-1.4.3-5.3 3.3-8.3C74.5.3 78.9.3 80.3.3c2.8.1 5.2.6 7.5 2.3zM77.6 6.2c-1.4.7-3.3 2.2-3.3 5.9 0 .4 0 1.5.4 2.7.8 2.3 2.8 3.7 5.3 3.7 1.5 0 3.1-.5 4.2-1.7 1.2-1.3 1.6-3.2 1.6-4.9 0-3.7-2.1-5.4-3.5-5.9-.8-.3-2-.3-2-.3s-1.6-.1-2.7.5z" fill="#3d6ca9"/><path d="M116.4 23.1H111l-3.7-12.6-3.6 12.6h-5.4L91.3 1h5.8l4.1 13.5L105.1 1h4.5l3.9 13.5 4-13.5h5.8l-6.9 22.1zM137.9.9v5.2h-7v3.2h6.1v5.2h-6.1v3.4h7.3V23h-13.3V.9h13zm10.2 0c2.7 0 6.1.1 7.5 3 .3.5.6 1.4.6 2.7 0 .8-.1 2.6-1.8 4-.3.3-.8.6-.9.6.6.2 1.2.5 1.7.8 2.3 1.5 2.4 4.1 2.4 4.9 0 .5 0 1.8-.8 3.1-1.7 2.9-5.8 2.9-9.2 3h-7.1V.9h7.6zm-1.4 8.7h1.2c.3 0 1.6.1 2.3-.9.2-.3.3-.8.3-1.2 0-.1 0-.5-.1-.8-.5-1.3-2.2-1.3-2.4-1.3h-1.3v4.2zm0 9h1.9c.9 0 2-.1 2.6-.9.3-.5.4-1.1.4-1.3 0-.5-.1-.8-.2-1-.5-1.1-1.6-1.2-2.6-1.3h-2l-.1 4.5z" fill="#65d78d"/></svg>