<svg id="af639efd-79b5-43b1-a050-a8b33f03f41f" xmlns="http://www.w3.org/2000/svg" xmlns:xlink="http://www.w3.org/1999/xlink" viewBox="0 0 365 42"><defs><linearGradient id="a9afa63a-819d-413a-93aa-f4fe9a81a62c" x1="21.61" y1="31.22" x2="-0.01" y2="21.37" gradientUnits="userSpaceOnUse"><stop offset="0.25" stop-color="#3d6caa"/><stop offset="1" stop-color="#74c489"/></linearGradient><linearGradient id="b0fc7a84-a577-49d9-8c60-0a7ef44005a3" x1="21.9" y1="30.96" x2="8.11" y2="11.62" xlink:href="#a9afa63a-819d-413a-93aa-f4fe9a81a62c"/><linearGradient id="b36f83a0-a25e-4919-9d65-7ffdf584af9f" x1="21.53" y1="31.22" x2="43.15" y2="21.37" xlink:href="#a9afa63a-819d-413a-93aa-f4fe9a81a62c"/><linearGradient id="e41e21cd-95da-4c0d-a003-70c217e155a7" x1="21.57" y1="31.21" x2="34.69" y2="11.38" xlink:href="#a9afa63a-819d-413a-93aa-f4fe9a81a62c"/><linearGradient id="a7d318f6-c527-47f8-9348-b784320d4568" x1="21.57" y1="31.29" x2="21.57" y2="7.5" xlink:href="#a9afa63a-819d-413a-93aa-f4fe9a81a62c"/></defs><title>Logo-Immoweb-Serenity</title><path d="M8,32C2.6,29.5,0,21.4,0,21.4s7.9-3.4,13.2-1,8.4,10.8,8.4,10.8S13.4,34.5,8,32Z" style="opacity:0.75;fill:url(#a9afa63a-819d-413a-93aa-f4fe9a81a62c)"/><path d="M9.6,24.7c-3.2-5-1.1-13.3-1.1-13.3s8.4,1.3,11.7,6.2,1.3,13.6,1.3,13.6S12.9,29.6,9.6,24.7Z" style="opacity:0.75;fill:url(#b0fc7a84-a577-49d9-8c60-0a7ef44005a3)"/><path d="M21.5,31.2s2.9-8.2,8.4-10.8,13.2,1,13.2,1-2.6,8.1-8,10.6S21.5,31.2,21.5,31.2Z" style="opacity:0.75;fill:url(#b36f83a0-a25e-4919-9d65-7ffdf584af9f)"/><path d="M21.6,31.2s-2-8.5,1.4-13.6,11.7-6.2,11.7-6.2,2.1,8.3-1.2,13.3S21.6,31.2,21.6,31.2Z" style="opacity:0.75;fill:url(#e41e21cd-95da-4c0d-a003-70c217e155a7)"/><path d="M21.6,31.3s-6.4-6-6.4-12.1S21.6,7.5,21.6,7.5s6.3,5.8,6.3,11.7S21.6,31.3,21.6,31.3Z" style="opacity:0.75;fill:url(#a7d318f6-c527-47f8-9348-b784320d4568)"/><path d="M56.8,9.1V33h-7V9.1Zm14,0,2.5,7.8.9,2.7a20.2,20.2,0,0,0,.7,2.3c.2-.7.5-1.4.7-2.1s.6-2,.8-2.9l2.6-8h7.4l3.8,24H83.4l-1.1-8.6c-.2-1.8-.4-3.5-.7-5.3l-1.3,3.9L76.9,33.1H72.8l-3.5-10L68,19.2c-.2,1.9-.4,3.7-.6,5.7l-1.1,8.2H59.5L63.4,9.2h7.4Zm32.4,0,2.5,7.8c.3.8.5,1.8.8,2.7a10.5,10.5,0,0,0,.8,2.3l.6-2.1c.3-1,.7-2,.9-2.9l2.7-7.8h7.3L122.6,33h-6.9l-1.1-8.6-.6-5.3L112.7,23l-3.5,10h-4.1l-3.3-10-1.3-3.9c-.3,1.9-.5,3.7-.7,5.7L98.7,33H91.8L95.7,9.1Zm41.6,1.8a12.3,12.3,0,0,1,4.8,9.9,13.6,13.6,0,0,1-3.2,8.5c-1.6,1.8-4.7,4.2-10.4,4.2s-8.1-2-9.5-3.7a13,13,0,0,1-3.2-8.8,13,13,0,0,1,3.5-9c3.6-3.6,8.4-3.6,9.9-3.6A13.9,13.9,0,0,1,144.8,10.9Zm-11,3.9c-1.5.8-3.6,2.4-3.6,6.4a9.9,9.9,0,0,0,.4,2.9,5.9,5.9,0,0,0,5.8,4,6,6,0,0,0,4.5-1.8,7.8,7.8,0,0,0,1.7-5.3c0-4-2.2-5.9-3.7-6.4a8.5,8.5,0,0,0-2.2-.3A5.4,5.4,0,0,0,133.8,14.8Z" style="fill:#3e6caa"/><path d="M175.7,33.1h-5.8l-4-13.6L162,33.1h-5.8L148.6,9.2h6.3l4.4,14.6,4.2-14.6h4.9l4.2,14.6,4.3-14.6h6.3ZM199,9.1v5.6h-7.6v3.5H198v5.6h-6.6v3.7h7.9V33H184.9V9.1Zm11,0c2.9,0,6.6.1,8.1,3.2a4.9,4.9,0,0,1,.7,2.9,5.4,5.4,0,0,1-2,4.4l-.9.6a10.1,10.1,0,0,1,1.8.9,6.1,6.1,0,0,1,2.6,5.3,5.9,5.9,0,0,1-.9,3.3c-1.8,3.2-6.2,3.2-9.9,3.3h-7.7V9.1Zm-1.5,9.4h1.3a2.9,2.9,0,0,0,2.5-1,2.8,2.8,0,0,0,.3-1.3,3.9,3.9,0,0,0-.1-.9c-.5-1.4-2.4-1.4-2.6-1.4h-1.4Zm0,9.7h2.1a3.4,3.4,0,0,0,2.8-1,3,3,0,0,0,.4-1.4,2.2,2.2,0,0,0-.2-1c-.5-1.2-1.7-1.3-2.8-1.5h-2.2v4.9Z" style="fill:#65c08a"/><path d="M239.1,26.3a2.9,2.9,0,0,0-.8-2.1,7.7,7.7,0,0,0-2.1-1.4l-2.7-1a12.3,12.3,0,0,1-2.6-1.2,8,8,0,0,1-2.1-2,5.8,5.8,0,0,1-.8-3.2c0-2.2.6-3.8,1.9-4.8A7.5,7.5,0,0,1,235.1,9a16.1,16.1,0,0,1,4.2.5,11,11,0,0,1,2.9,1l-.9,3-2.5-.9a16.5,16.5,0,0,0-3.2-.4,5.8,5.8,0,0,0-3,.7,3,3,0,0,0-.9,2.4,2.6,2.6,0,0,0,.8,1.9,13,13,0,0,0,2.1,1.2l2.6,1a16.9,16.9,0,0,1,2.7,1.3,8,8,0,0,1,2,2.1,5.9,5.9,0,0,1,.9,3.4,7.6,7.6,0,0,1-.5,2.7,4.8,4.8,0,0,1-1.5,2.2,7,7,0,0,1-2.5,1.5,12.3,12.3,0,0,1-3.5.5,14.7,14.7,0,0,1-4.5-.5,12.5,12.5,0,0,1-3.1-1.2l1.1-3.1a12.6,12.6,0,0,0,2.8,1.1,13.3,13.3,0,0,0,3.4.5,6.4,6.4,0,0,0,3.3-.8A2.9,2.9,0,0,0,239.1,26.3Z" style="fill:#3d6ca9"/><path d="M262.8,30.7a10.5,10.5,0,0,1-3.5,1.8,16.1,16.1,0,0,1-4.4.6,12.6,12.6,0,0,1-4.6-.8,8.4,8.4,0,0,1-3.1-2.5,9.1,9.1,0,0,1-1.9-3.8,18.3,18.3,0,0,1-.6-4.9c0-4,.9-6.9,2.7-9S251.6,9,254.8,9a11.7,11.7,0,0,1,3.2.4,6.5,6.5,0,0,1,2.8,1.3,6.4,6.4,0,0,1,2,2.7,12.1,12.1,0,0,1,.8,4.7,20.2,20.2,0,0,1-.3,3.3H248.5A12.5,12.5,0,0,0,249,25a6.7,6.7,0,0,0,1.2,2.7,6.3,6.3,0,0,0,2.3,1.6,9.4,9.4,0,0,0,6.6,0,5.5,5.5,0,0,0,2.3-1.2Zm-7.9-18.5a6.3,6.3,0,0,0-4.4,1.5,7.2,7.2,0,0,0-1.9,4.8H260a7.8,7.8,0,0,0-1.3-4.9A5.2,5.2,0,0,0,254.9,12.2Z" style="fill:#3d6ca9"/><path d="M277.9,13.1a8.2,8.2,0,0,0-2.6-.4,4.3,4.3,0,0,0-3.1,1,5.1,5.1,0,0,0-1.5,2.8V32.6h-3.6V9.6h2.5l.7,2.8h.2a6.3,6.3,0,0,1,2.1-2.4,5,5,0,0,1,3.1-.9,11.7,11.7,0,0,1,3,.5Z" style="fill:#3d6ca9"/><path d="M297.1,30.7a9.9,9.9,0,0,1-3.4,1.8,16.3,16.3,0,0,1-4.5.6,12.5,12.5,0,0,1-4.5-.8,8.7,8.7,0,0,1-3.2-2.5,10.3,10.3,0,0,1-1.8-3.8,18.3,18.3,0,0,1-.6-4.9c0-4,.9-6.9,2.6-9A9.3,9.3,0,0,1,289.2,9a11,11,0,0,1,3.1.4,5.6,5.6,0,0,1,2.8,1.3,5.7,5.7,0,0,1,2,2.7,10.5,10.5,0,0,1,.8,4.7c0,1-.1,2.1-.2,3.3H282.9a12.8,12.8,0,0,0,.4,3.6,6.8,6.8,0,0,0,1.3,2.7,5.6,5.6,0,0,0,2.3,1.6,9.1,9.1,0,0,0,6.5,0,6,6,0,0,0,2.4-1.2Zm-7.9-18.5a6.1,6.1,0,0,0-4.3,1.5c-1.1.9-1.7,2.5-1.9,4.8h11.3c0-2.3-.4-3.9-1.3-4.9A5.1,5.1,0,0,0,289.2,12.2Z" style="fill:#3d6ca9"/><path d="M316.2,32.6V19.5a10.9,10.9,0,0,0-1.1-5.4c-.7-1.3-1.9-1.9-3.8-1.9a6.6,6.6,0,0,0-4,1.3,7.4,7.4,0,0,0-2.2,3.3V32.6h-3.7V9.6H304l.7,2.8h.2a7.6,7.6,0,0,1,2.9-2.4,9.1,9.1,0,0,1,4.5-1,11.4,11.4,0,0,1,3.3.5,4.4,4.4,0,0,1,2.3,1.5,7,7,0,0,1,1.5,3,20.5,20.5,0,0,1,.4,4.7V32.6Z" style="fill:#3d6ca9"/><path d="M324.3,2.6A2.4,2.4,0,0,1,325,.8a2.2,2.2,0,0,1,1.8-.8,2.9,2.9,0,0,1,1.9.8,2.4,2.4,0,0,1,.7,1.8,2.1,2.1,0,0,1-.7,1.7,2.8,2.8,0,0,1-1.9.7,2.1,2.1,0,0,1-1.8-.7A2.1,2.1,0,0,1,324.3,2.6Zm.7,7h3.7v23H325Z" style="fill:#3d6ca9"/><path d="M331.2,9.6h3.6V5l3.7-1V9.6h6.2v3.2h-6.2V25.5a6.8,6.8,0,0,0,.6,3.4,2.1,2.1,0,0,0,2,1,5.6,5.6,0,0,0,2-.3L345,29l.8,2.8a16.9,16.9,0,0,1-2.7,1,15.8,15.8,0,0,1-3.2.3c-1.9,0-3.2-.5-3.9-1.6s-1.2-2.8-1.2-5.3V12.8h-3.6Z" style="fill:#3d6ca9"/><path d="M354.3,24.5l1.3,4.4h.2l1.1-4.5,4.4-14.8H365l-6.8,20.6-1.5,4.4a27,27,0,0,1-1.7,3.8,8,8,0,0,1-2.1,2.6,3.5,3.5,0,0,1-2.6,1,7.4,7.4,0,0,1-2.8-.5l.7-3.1,1.1.2a3.4,3.4,0,0,0,2.5-1.4,10.5,10.5,0,0,0,2-4.6l-9.2-23h4.2Z" style="fill:#3d6ca9"/></svg>