<svg width="60" height="60" viewBox="0 0 60 60" fill="none" xmlns="http://www.w3.org/2000/svg">
    <rect x="7" y="9" width="40.1422" height="25.307" rx="2" fill="#C4D3E4"/>
    <path d="M13.1678 37.9473L11.5878 33.3659C11.3717 32.7393 11.8139 32.0797 12.4756 32.0415L19.1156 31.6588C20.0377 31.6057 20.5327 32.7241 19.8734 33.371L14.8135 38.3351C14.289 38.8496 13.4073 38.6418 13.1678 37.9473Z" fill="#C4D3E4"/>
    <rect x="21.835" y="27.3257" width="30.543" height="16.5805" rx="2" fill="#133DBD"/>
    <path d="M43.6825 47.4659L40.4171 43.5874C39.8568 42.9219 40.3547 41.9078 41.2238 41.9442L45.8651 42.1384C46.5445 42.1668 46.998 42.8504 46.7601 43.4874L45.3843 47.1716C45.1165 47.8886 44.1755 48.0513 43.6825 47.4659Z" fill="#133DBD"/>
</svg>
