<svg width="128" height="128" viewBox="0 0 128 128" fill="none" xmlns="http://www.w3.org/2000/svg">
    <g clip-path="url(#clip0_1_2531)">
        <path d="M86.615 23.2195H55.2434C54.5691 23.2195 54.0207 23.7679 54.0207 24.4422C54.0207 25.1164 54.5691 25.6634 55.2434 25.6634H86.615V30.263H62.2868C61.6125 30.263 61.0656 30.8113 61.0656 31.4842C61.0656 32.1571 61.6139 32.7068 62.2868 32.7068H86.615V37.3064H65.805C65.1308 37.3064 64.5838 37.8548 64.5838 38.5276C64.5838 39.2005 65.1322 39.7489 65.805 39.7489H86.6108V44.2365H76.0687C75.3945 44.2365 74.8475 44.7849 74.8475 45.4592V97.5806H66.9451V75.4753C66.9451 74.801 66.3968 74.254 65.7239 74.254H52.3225C51.6482 74.254 51.0998 74.8024 51.0998 75.4753V97.5806H43.1136V18.4409H86.615V23.2195Z" fill="#C4D3E4"/>
        <path d="M105.979 89.0473L105.743 88.983C104.406 88.6165 103.383 87.9814 102.618 87.0371C101.461 85.6075 101.223 83.9959 101.851 81.8095C102.642 79.0914 104.295 76.5846 107.056 73.9197L107.188 73.7924L107.318 73.9211C109.888 76.4769 111.511 78.89 112.424 81.5157C112.904 82.8824 113.01 83.9903 112.757 85.0004V85.0018C112.237 87.0595 110.936 88.3157 108.661 88.9564L108.423 89.0236V82.7216C108.423 82.0473 107.875 81.5003 107.202 81.5003C106.528 81.5003 105.981 82.0473 105.981 82.7216V89.0473H105.979Z" fill="#C4D3E4"/>
        <path d="M53.5471 76.7008H64.5004V97.5835H53.5471V76.7008Z" fill="#C4D3E4"/>
        <path d="M85.8128 65.8846H89.5954V69.6672H85.8128V65.8846Z" fill="#C4D3E4"/>
        <path d="M41.0207 16.3609C41.2529 16.1273 41.562 16 41.8908 16H87.8361C88.5103 16 89.0573 16.5484 89.0573 17.2212V44.2395H112.157C112.832 44.2395 113.378 44.7878 113.378 45.4621V65.4173C113.378 66.0916 112.83 66.64 112.157 66.64C111.484 66.64 110.936 66.0916 110.936 65.4173V46.6806H77.2982V97.5793H105.983V91.4536H105.665C105.564 91.4536 105.466 91.441 105.368 91.4158C103.431 90.9416 101.867 89.9861 100.72 88.576C99.0468 86.5127 98.6509 84.0758 99.5071 81.1283C100.443 77.8969 102.386 74.9662 105.62 71.9068L106.412 71.2074C106.889 70.7933 107.593 70.8031 108.049 71.2284C111.461 74.3996 113.586 77.4115 114.734 80.7101C115.371 82.5286 115.499 84.129 115.124 85.6006C114.359 88.625 112.202 90.5932 108.713 91.4494L108.429 91.4438V97.5793H112.156C112.83 97.5793 113.377 98.1277 113.377 98.802C113.377 99.4762 112.829 100.025 112.156 100.025H41.888C41.2137 100.025 40.6667 99.4762 40.6667 98.802V17.2184C40.6667 16.8953 40.7912 16.5903 41.0207 16.3609ZM107.201 81.5018C107.875 81.5018 108.422 82.0488 108.422 82.7231V89.0251L108.66 88.9579C110.935 88.3172 112.237 87.0611 112.756 85.0033L112.757 85.0018C113.01 83.9918 112.903 82.8839 112.423 81.5172C111.51 78.8915 109.887 76.4784 107.317 73.9226L107.187 73.7939L107.055 73.9212C104.294 76.5861 102.641 79.0929 101.85 81.811C101.222 83.9975 101.46 85.609 102.617 87.0387C103.382 87.9815 104.405 88.618 105.742 88.9845L105.978 89.0489V82.7245C105.98 82.0488 106.528 81.5018 107.201 81.5018ZM53.5471 97.5835H64.5004V76.7008H53.5471V97.5835ZM43.112 97.5835H51.0983V75.4782C51.0983 74.8039 51.6467 74.257 52.3209 74.257H65.7223C66.3966 74.257 66.9436 74.8053 66.9436 75.4782V97.5835H74.8459V45.4621C74.8459 44.7878 75.3943 44.2395 76.0672 44.2395H86.6092V39.7518H65.8035C65.1292 39.7518 64.5823 39.2035 64.5823 38.5306C64.5823 37.8577 65.1306 37.3094 65.8035 37.3094H86.6148V32.7098H62.2867C61.6124 32.7098 61.0654 32.1614 61.0654 31.4872C61.0654 30.8129 61.6138 30.2659 62.2867 30.2659H86.6148V25.6664H55.2432C54.569 25.6664 54.0206 25.118 54.0206 24.4451C54.0206 23.7723 54.569 23.2225 55.2432 23.2225H86.6148V18.4467H43.112V97.5835Z" fill="#C4D3E4"/>
        <path d="M103.448 59.9938H97.796C97.2798 59.9938 96.8615 59.5756 96.8615 59.0594V53.4078C96.8615 52.8917 97.2798 52.4734 97.796 52.4734H103.448C103.964 52.4734 104.382 52.8917 104.382 53.4078V59.0594C104.382 59.5756 103.964 59.9938 103.448 59.9938ZM102.512 54.3423H98.7291V58.1249H102.512V54.3423Z" fill="#C4D3E4"/>
        <path d="M103.448 71.5204H97.796C97.2798 71.5204 96.8615 71.1022 96.8615 70.586V64.9345C96.8615 64.4183 97.2798 64 97.796 64H103.448C103.964 64 104.382 64.4183 104.382 64.9345V70.586C104.382 71.1022 103.964 71.5204 103.448 71.5204ZM102.512 65.8689H98.7291V69.6515H102.512V65.8689Z" fill="#C4D3E4"/>
        <path d="M103.448 83.5204H97.796C97.2798 83.5204 96.8615 83.1022 96.8615 82.586V76.9345C96.8615 76.4183 97.2798 76 97.796 76H103.448C103.964 76 104.382 76.4183 104.382 76.9345V82.586C104.382 83.1022 103.964 83.5204 103.448 83.5204ZM102.512 77.8689H98.7291V81.6515H102.512V77.8689Z" fill="#C4D3E4"/>
        <path d="M103.448 95.5204H97.796C97.2798 95.5204 96.8615 95.1022 96.8615 94.586V88.9345C96.8615 88.4183 97.2798 88 97.796 88H103.448C103.964 88 104.382 88.4183 104.382 88.9345V94.586C104.382 95.1022 103.964 95.5204 103.448 95.5204ZM102.512 89.8689H98.7291V93.6515H102.512V89.8689Z" fill="#C4D3E4"/>
        <path d="M91.4655 70.6015C91.4655 71.1177 91.0473 71.536 90.5311 71.536H84.8795C84.3633 71.536 83.9451 71.1177 83.9451 70.6015V64.95C83.9451 64.4338 84.3633 64.0156 84.8795 64.0156H90.5311C91.0473 64.0156 91.4655 64.4338 91.4655 64.95V70.6015ZM89.5954 65.8846H85.8128V69.6672H89.5954V65.8846Z" fill="#C4D3E4"/>
        <path d="M90.5302 59.9938H84.8786C84.3624 59.9938 83.9442 59.5756 83.9442 59.0594V53.4078C83.9442 52.8917 84.3624 52.4734 84.8786 52.4734H90.5302C91.0464 52.4734 91.4646 52.8917 91.4646 53.4078V59.0594C91.466 59.5756 91.0478 59.9938 90.5302 59.9938ZM89.5957 54.3423H85.8131V58.1249H89.5957V54.3423Z" fill="#C4D3E4"/>
        <path d="M90.5302 71.5204H84.8786C84.3624 71.5204 83.9442 71.1022 83.9442 70.586V64.9345C83.9442 64.4183 84.3624 64 84.8786 64H90.5302C91.0464 64 91.4646 64.4183 91.4646 64.9345V70.586C91.466 71.1022 91.0478 71.5204 90.5302 71.5204ZM89.5957 65.8689H85.8131V69.6515H89.5957V65.8689Z" fill="#C4D3E4"/>
        <path d="M90.5302 83.5204H84.8786C84.3624 83.5204 83.9442 83.1022 83.9442 82.586V76.9345C83.9442 76.4183 84.3624 76 84.8786 76H90.5302C91.0464 76 91.4646 76.4183 91.4646 76.9345V82.586C91.466 83.1022 91.0478 83.5204 90.5302 83.5204ZM89.5957 77.8689H85.8131V81.6515H89.5957V77.8689Z" fill="#C4D3E4"/>
        <path d="M90.5302 95.5204H84.8786C84.3624 95.5204 83.9442 95.1022 83.9442 94.586V88.9345C83.9442 88.4183 84.3624 88 84.8786 88H90.5302C91.0464 88 91.4646 88.4183 91.4646 88.9345V94.586C91.466 95.1022 91.0478 95.5204 90.5302 95.5204ZM89.5957 89.8689H85.8131V93.6515H89.5957V89.8689Z" fill="#C4D3E4"/>
        <path d="M71.51 89.7C71.5167 89.6933 60.1433 85.1967 53.8767 84.4233C53.7867 84.5833 53.6433 84.74 53.46 84.8867L53.49 80.5333C60.1033 80.2667 66.4733 79.6067 72.4967 78.6067V47.3333L72.39 47.5233C72.4067 47.1533 72.4133 46.7833 72.4133 46.4167C72.4133 32.38 61.0333 21 46.9967 21C32.96 21 21.58 32.38 21.58 46.4167C21.58 46.7833 21.59 47.1533 21.6033 47.5233L21.4967 47.3333V78.6633C27.46 79.64 33.7633 80.28 40.3 80.5367L40.49 80.6667L40.46 84.7467C40.3533 84.6433 40.2633 84.5333 40.2033 84.4233C33.9367 85.1967 22.56 89.6933 22.57 89.7C19.27 91.3333 17 94.7333 17 98.6667V105.017C28.48 118.083 45.3167 126.333 64.08 126.333C68.5367 126.333 72.8867 125.863 77.08 124.98V98.6667C77.08 94.7333 74.81 91.3333 71.51 89.7Z" fill="white"/>
        <path d="M39.125 85C21.2143 88.0732 17 91.761 17 98.3171V106C17 107.5 29.75 117 39.125 121.5C48.5 126 62 127 62 127L76 126V99.3415C76 90.3268 68.625 89.0976 53.875 85C47.5536 89.0976 39.125 85 39.125 85Z" fill="#EBF0F6"/>
        <rect x="28" y="104" width="15" height="9" fill="white"/>
        <path d="M37.9999 101H32.6666V103.667H37.9999V101Z" fill="#133DBD"/>
        <path d="M42.9999 102.333H39.3332V101C39.3332 100.263 38.7365 99.6667 37.9999 99.6667H32.6665C31.9299 99.6667 31.3332 100.263 31.3332 101V102.333H27.3332C26.5965 102.333 25.9999 102.93 25.9999 103.667V113.667C25.9999 114.403 26.5965 115 27.3332 115H42.9999C43.7365 115 44.3332 114.403 44.3332 113.667V103.667C44.3332 102.93 43.7365 102.333 42.9999 102.333ZM41.6665 112.333H28.6665V105H41.6665V112.333Z" fill="#133DBD"/>
        <path d="M73.6666 46.75C73.6666 40.0333 71.1733 33.8933 67.0699 29.19C67.0233 29.1233 66.9699 29.0633 66.9099 29.0067C62.0099 23.4867 54.8633 20 46.9166 20C32.1666 20 20.1666 32 20.1666 46.75C20.1666 46.8933 20.1766 47.04 20.1766 47.1833C20.1166 47.3333 20.0833 47.4967 20.0833 47.6667V78.9967C20.0833 79.65 20.5566 80.2067 21.1999 80.3133C26.9733 81.2567 32.9833 81.8733 39.0833 82.1567V83.5667C36.4566 83.9867 32.9166 84.9467 28.5299 86.4233C26.6266 87.0633 24.9599 87.6733 23.8966 88.07C23.3066 88.29 22.8333 88.47 22.5066 88.5967C22.2699 88.6867 22.0699 88.7667 21.8999 88.8533L21.8966 88.8433C18.0033 90.7667 15.5833 94.66 15.5833 99V104.743C15.5833 105.48 16.1799 106.077 16.9166 106.077C17.6533 106.077 18.2499 105.48 18.2499 104.743V99C18.2499 95.6967 20.0833 92.73 23.0366 91.25C23.6499 91.0067 33.5766 87.12 39.5966 86.18C41.1199 87.5 44.2533 87.9967 46.9599 88C49.6633 87.9933 52.7933 87.5 54.3166 86.18C60.4999 87.1467 70.8066 91.22 70.9066 91.2633L71.4299 90.0367L72.7133 89.68C72.5333 89.03 72.1333 88.8767 71.4099 88.5967C71.0833 88.47 70.6099 88.29 70.0199 88.07C68.9566 87.6733 67.2866 87.0633 65.3866 86.4233C60.9533 84.93 57.3833 83.9667 54.7499 83.5533V82.1433C60.8566 81.85 66.8666 81.22 72.6366 80.2633C73.2799 80.1567 73.7499 79.6 73.7499 78.9467V47.6667C73.7499 47.4967 73.7133 47.3333 73.6566 47.1833C73.6566 47.04 73.6666 46.8933 73.6666 46.75ZM46.9166 77.3333C44.9499 77.3333 43.0266 76.9433 41.1766 76.24C41.0166 76.1267 40.8299 76.0533 40.6266 76.02C31.8599 72.3567 24.8833 61.6 23.2133 51.3133C35.5799 51.0467 47.2766 47.2333 56.5633 40.67C60.6299 44.0433 65.5732 46.5467 70.9733 47.97C70.3399 63.9133 57.4866 77.3333 46.9166 77.3333ZM70.9433 45.2C66.4133 43.91 62.2566 41.8033 58.7699 39.0267C61.4166 36.94 63.8399 34.6167 65.9899 32.07C68.8299 35.7533 70.6299 40.2767 70.9433 45.2ZM46.9166 22.6667C53.7033 22.6667 59.8399 25.4933 64.2199 30.0233C61.7899 32.9567 58.9799 35.5867 55.8666 37.89C55.8466 37.9033 55.8266 37.9167 55.8099 37.9333C46.7766 44.5833 35.1866 48.4367 22.9033 48.6533C22.8566 48.0133 22.8333 47.38 22.8333 46.75C22.8333 33.47 33.6366 22.6667 46.9166 22.6667ZM22.7499 77.8567V59.48C24.0366 62.75 25.7699 65.92 27.8733 68.7633C31.1733 73.2267 35.0066 76.4533 39.0833 78.2733V79.48C33.5233 79.2233 28.0366 78.68 22.7499 77.8567ZM41.7499 84.4333V79.2567C43.4499 79.7467 45.1766 80 46.9166 80C48.6566 80 50.3833 79.7467 52.0833 79.2567V80.85C52.0833 80.8733 52.0766 80.8967 52.0799 80.92C52.0799 80.93 52.0833 80.94 52.0833 80.95V84.47C51.2266 84.8733 49.4599 85.3267 46.9599 85.33C44.3666 85.3267 42.5666 84.84 41.7499 84.4333ZM71.0833 77.8067C65.7999 78.64 60.3166 79.1967 54.7499 79.4667V78.2733C58.8266 76.4533 62.6633 73.2267 65.9599 68.7633C68.0633 65.9167 69.7966 62.75 71.0833 59.48V77.8067Z" fill="#133DBD"/>
        <path d="M76.9998 97.6667C76.2632 97.6667 75.6665 98.2634 75.6665 99.0001V124.647C75.6665 125.383 76.2632 125.98 76.9998 125.98C77.7365 125.98 78.3332 125.383 78.3332 124.647V99.0001C78.3332 98.2634 77.7365 97.6667 76.9998 97.6667Z" fill="#133DBD"/>
        <path d="M105.393 65C94.1666 53.7734 75.8966 53.7734 64.6666 65C53.4366 76.2267 53.4399 94.4967 64.6666 105.727C74.0199 115.08 88.2566 116.633 99.2433 110.403L113.383 124.543C114.517 125.677 116.373 125.677 117.507 124.543L124.21 117.84C125.343 116.707 125.343 114.85 124.21 113.717L110.07 99.5767C116.3 88.59 114.747 74.3533 105.393 65ZM94.5666 94.9C89.3066 100.16 80.7499 100.16 75.4933 94.9C70.2333 89.64 70.2333 81.0833 75.4933 75.8267C80.7533 70.57 89.3099 70.5667 94.5666 75.8267C99.8266 81.0833 99.8266 89.64 94.5666 94.9Z" fill="#65D78D"/>
        <path d="M115.443 126.727C114.357 126.727 113.267 126.313 112.44 125.483L99.0067 112.05C87.4 118.123 73.0333 115.977 63.7233 106.667C58.04 100.983 54.9133 93.4167 54.9133 85.3601C54.9133 77.3034 58.0433 69.7367 63.7233 64.0534C69.4067 58.3701 76.9733 55.2434 85.03 55.2434C93.0867 55.2434 100.653 58.3734 106.337 64.0534C115.643 73.3601 117.79 87.7301 111.72 99.3367L125.153 112.77C126.81 114.427 126.81 117.123 125.153 118.78L118.45 125.48C117.623 126.313 116.533 126.727 115.443 126.727ZM99.47 108.743L114.327 123.6C114.943 124.217 115.95 124.217 116.567 123.6L123.267 116.9C123.883 116.283 123.883 115.277 123.267 114.66L108.41 99.8034L108.91 98.9201C114.987 88.2067 113.153 74.6467 104.45 65.9434C99.27 60.7634 92.3733 57.9134 85.03 57.9134C77.6867 57.9134 70.79 60.7667 65.61 65.9434C60.43 71.1234 57.58 78.0201 57.58 85.3634C57.58 92.7067 60.4333 99.6034 65.61 104.783C74.3133 113.487 87.8733 115.32 98.5867 109.243L99.47 108.743ZM85.03 100.177C81.2333 100.177 77.44 98.7334 74.55 95.8434C71.7533 93.0467 70.2167 89.3267 70.2167 85.3634C70.2167 81.4001 71.7567 77.6801 74.55 74.8834C77.3433 72.0867 81.0667 70.5501 85.03 70.5501C88.9933 70.5501 92.7133 72.0901 95.51 74.8834C101.29 80.6634 101.29 90.0634 95.51 95.8434C92.62 98.7334 88.8233 100.177 85.03 100.177ZM85.03 73.2167C81.78 73.2167 78.7267 74.4801 76.4367 76.7701C74.1467 79.0634 72.8833 82.1134 72.8833 85.3634C72.8833 88.6134 74.1467 91.6667 76.4367 93.9567C78.73 96.2467 81.78 97.5101 85.03 97.5101C88.28 97.5101 91.3333 96.2467 93.6233 93.9567C98.3633 89.2167 98.3633 81.5067 93.6233 76.7667C91.3333 74.4767 88.28 73.2167 85.03 73.2167Z" fill="#133DBD"/>
        <path d="M64 128C28.71 128 0 99.29 0 64C0 28.71 28.71 0 64 0C99.29 0 128 28.71 128 64C128 73.17 126.103 82.02 122.36 90.31C122.057 90.98 121.267 91.28 120.597 90.9767C119.927 90.6733 119.627 89.8833 119.93 89.2133C123.513 81.27 125.333 72.7867 125.333 64C125.333 30.18 97.82 2.66667 64 2.66667C30.18 2.66667 2.66667 30.18 2.66667 64C2.66667 97.82 30.18 125.333 64 125.333C72.0533 125.333 79.88 123.797 87.2667 120.767C87.95 120.487 88.7267 120.813 89.0067 121.493C89.2867 122.173 88.96 122.953 88.28 123.233C80.57 126.397 72.4033 128 64 128Z" fill="#C4D3E4"/>
    </g>
    <defs>
        <clipPath id="clip0_1_2531">
            <rect width="128" height="128" fill="white"/>
        </clipPath>
    </defs>
</svg>
