<svg width="60" height="60" viewBox="0 0 60 60" fill="none" xmlns="http://www.w3.org/2000/svg">
    <path fill-rule="evenodd" clip-rule="evenodd" d="M52.7641 23.6735L32.2286 7.21562C31.7804 6.81589 31.2204 6.63828 30.6728 6.67044H30.656H30.6392C30.0907 6.63828 29.5311 6.81589 29.0844 7.21562L8.54892 23.6735C7.64112 24.4898 7.5441 25.9096 8.33614 26.8481C9.1253 27.7817 10.5048 27.8841 11.415 27.0643L30.656 11.6444L49.9004 27.0643C50.8116 27.8841 52.1896 27.7817 52.9783 26.8481C53.7689 25.9096 53.6738 24.4898 52.7641 23.6735Z" fill="#C4D3E4"/>
    <path fill-rule="evenodd" clip-rule="evenodd" d="M30.6792 15L12.3809 29.1766V47.6038C12.3809 49.1892 13.6704 50.4761 15.2623 50.4761H25.3038H35.8748H46.1185C47.7095 50.4761 49 49.1892 49 47.6038V29.3263L30.6792 15Z" fill="#C4D3E4"/>
    <path d="M35.1337 36.4441L35.1641 36.4443L43.0432 36.5H43.0449H43.0505C43.1717 36.5 43.2806 36.4556 43.355 36.3877C43.4281 36.3212 43.4606 36.2402 43.4613 36.1654C43.4613 36.1653 43.4613 36.1653 43.4613 36.1653L43.4999 31.6042C43.4999 31.604 43.4999 31.6038 43.4999 31.6036M35.1337 36.4441L39.1849 27.1133C40.4715 27.1237 41.701 27.6027 42.6037 28.4454C43.5064 29.288 44.0085 30.4254 43.9999 31.6079L43.4999 31.6036M35.1337 36.4441C35.0849 36.4407 35.0376 36.4301 34.9939 36.413C34.9411 36.3925 34.8959 36.3635 34.8598 36.3298L34.7554 36.4414L34.8598 36.3298C34.8238 36.2961 34.7978 36.2586 34.7811 36.2205C34.7645 36.1826 34.7567 36.1437 34.7571 36.1055L34.7571 36.1047L34.7957 31.5436M35.1337 36.4441L34.7957 31.5436M43.4999 31.6036C43.5073 30.568 43.0679 29.5627 42.2625 28.8109C41.456 28.058 40.3492 27.6232 39.1828 27.6133M43.4999 31.6036L39.1828 27.6133M39.1828 27.6133H39.1477C37.9868 27.6149 36.881 28.0378 36.0687 28.7788C35.2578 29.5184 34.8061 30.5128 34.7958 31.543C34.7958 31.5432 34.7957 31.5434 34.7957 31.5436M39.1828 27.6133L34.2958 31.5387L34.7957 31.5436M26.7929 36.3858H26.7923H26.7878H26.7861L18.9072 36.3311C18.8476 36.3306 18.7896 36.3194 18.7368 36.2988C18.6841 36.2782 18.6388 36.2493 18.6027 36.2156C18.5667 36.1819 18.5407 36.1444 18.524 36.1063L18.0663 36.3074L18.524 36.1063C18.5074 36.0684 18.4996 36.0294 18.5 35.9913L18.5 35.9904L18.5376 31.4301C18.5376 31.43 18.5376 31.4299 18.5376 31.4298C18.5474 30.3994 18.9989 29.4047 19.8099 28.6649C20.6223 27.9239 21.7284 27.5012 22.8894 27.5H22.925C24.0915 27.5087 25.1989 27.943 26.0056 28.6959C26.8113 29.4478 27.2503 30.4537 27.2418 31.4895L27.2042 36.0503L27.2042 36.0507C27.2036 36.1256 27.1711 36.2068 27.098 36.2735C27.0234 36.3414 26.9143 36.3859 26.7929 36.3858ZM25.8852 35.7048L26.3847 35.7085L26.3889 35.2091L26.4202 31.4845C26.4202 31.4845 26.4202 31.4844 26.4202 31.4844C26.424 31.0468 26.3338 30.614 26.1562 30.211C25.9786 29.8081 25.7176 29.4442 25.3905 29.1389C25.0634 28.8337 24.6763 28.5927 24.2523 28.4279C23.8284 28.2632 23.3746 28.1772 22.9165 28.1742V28.1742H22.9132L22.8892 28.1742L22.8884 28.1742C21.9707 28.1756 21.0831 28.5093 20.42 29.1141C19.7556 29.7201 19.3692 30.5519 19.3603 31.4319L19.3602 31.4328L19.3289 35.1575L19.3247 35.6581L19.8253 35.6616L21.0421 35.6703L21.5415 35.6738L21.5457 35.1745L21.5582 33.6922C21.5698 33.3828 21.7119 33.0801 21.9701 32.8515C22.2311 32.6205 22.5882 32.4866 22.9663 32.4892C23.3443 32.4919 23.6988 32.6309 23.9555 32.8652C24.2093 33.097 24.3463 33.4013 24.3527 33.7106L24.3403 35.193L24.336 35.6935L24.8366 35.6972L25.8852 35.7048ZM42.1424 35.8191L42.6418 35.8226L42.646 35.3233L42.6773 31.5996C42.681 31.1621 42.5908 30.7293 42.4132 30.3263C42.2356 29.9235 41.9747 29.5597 41.6476 29.2543C41.3207 28.9491 40.9337 28.7081 40.5099 28.5432C40.086 28.3783 39.6324 28.2922 39.1744 28.2889C38.7164 28.2857 38.2614 28.3653 37.835 28.5241C37.4086 28.6828 37.0178 28.9182 36.6859 29.2186C36.3539 29.519 36.0871 29.8789 35.9028 30.2789C35.7185 30.6791 35.621 31.1104 35.6173 31.548L35.586 35.2717L35.5818 35.7722L36.0823 35.7759L36.8625 35.7816L37.3624 35.7853L37.3662 35.2854L37.3766 33.8993C37.3882 33.59 37.5304 33.2874 37.7885 33.0589C38.0495 32.8278 38.4066 32.6939 38.7847 32.6966C39.1627 32.6993 39.5172 32.8382 39.7739 33.0726C40.0278 33.3043 40.1648 33.6087 40.1711 33.9181L40.1597 35.3044L40.1556 35.805L40.6561 35.8085L42.1424 35.8191Z" fill="#133DBD" stroke="#133DBD"/>
    <path d="M24.2139 42.2451C24.0592 41.4717 24.6508 40.75 25.4396 40.75H35.5604C36.3492 40.75 36.9408 41.4717 36.7861 42.2451L35.5861 48.2451C35.4693 48.8294 34.9562 49.25 34.3604 49.25H26.6396C26.0438 49.25 25.5307 48.8294 25.4139 48.2451L24.2139 42.2451Z" fill="#133DBD" stroke="#133DBD" stroke-width="1.5"/>
</svg>
