<svg width="50" height="65" viewBox="0 0 50 65" fill="none" xmlns="http://www.w3.org/2000/svg">
    <rect x="17" y="6" width="33" height="59" rx="3" fill="#C4D3E4"/>
    <rect y="26" width="26" height="39" rx="3" fill="#133DBD"/>
    <rect x="34" y="48" width="10" height="17" rx="1" fill="#133DBD"/>
    <rect x="15" y="37" width="5" height="5" rx="1" fill="#C4D3E4"/>
    <rect x="15" y="30" width="5" height="5" rx="1" fill="#C4D3E4"/>
    <rect x="7" y="30" width="5" height="5" rx="1" fill="#C4D3E4"/>
    <rect x="41" y="17" width="5" height="5" rx="1" fill="#133DBD"/>
    <rect x="41" y="10" width="5" height="5" rx="1" fill="#133DBD"/>
    <rect x="33" y="10" width="5" height="5" rx="1" fill="#133DBD"/>
    <circle cx="18" cy="12" r="8" fill="#C4D3E4"/>
    <path fill-rule="evenodd" clip-rule="evenodd" d="M18 2C12.48 2 8 6.48 8 12C8 17.52 12.48 22 18 22C23.52 22 28 17.52 28 12C28 6.48 23.52 2 18 2ZM17 19V17H19V19H17ZM20.17 12.17L21.07 11.25C22.09 10.23 22.44 8.48 21.26 6.85C20.36 5.6 18.91 4.81 17.39 5.05C15.84 5.29 14.59 6.41 14.16 7.88C14 8.44 14.4 9 14.98 9H15.28C15.67 9 15.98 8.72 16.1 8.35C16.43 7.4 17.46 6.77 18.57 7.08C19.27 7.28 19.83 7.89 19.96 8.61C20.09 9.31 19.87 9.97 19.41 10.41L18.17 11.67C17.75 12.09 17.42 12.61 17.22 13.19C17.08 13.6 17 14.04 17 14.5V15H19C19 14.54 19.05 14.18 19.13 13.86C19.31 13.14 19.67 12.68 20.17 12.17Z" fill="#133DBD"/>
</svg>
