<svg width="50" height="59" viewBox="0 0 50 59" fill="none" xmlns="http://www.w3.org/2000/svg">
    <rect x="17" width="33" height="59" rx="3" fill="#A8BEEA"/>
    <rect y="20" width="26" height="39" rx="3" fill="#133DBD"/>
    <rect x="34" y="42" width="10" height="17" rx="1" fill="#133DBD"/>
    <rect x="41" y="11" width="5" height="5" rx="1" fill="#133DBD"/>
    <rect x="41" y="4" width="5" height="5" rx="1" fill="#133DBD"/>
    <rect x="33" y="4" width="5" height="5" rx="1" fill="#133DBD"/>
    <path fill-rule="evenodd" clip-rule="evenodd" d="M13 24C7.48 24 3 28.48 3 34C3 39.52 7.48 44 13 44C18.52 44 23 39.52 23 34C23 28.48 18.52 24 13 24ZM12 41V39H14V41H12ZM15.17 34.17L16.07 33.25C17.09 32.23 17.44 30.48 16.26 28.85C15.36 27.6 13.91 26.81 12.39 27.05C10.84 27.29 9.59 28.41 9.16 29.88C9 30.44 9.4 31 9.98 31H10.28C10.67 31 10.98 30.72 11.1 30.35C11.43 29.4 12.46 28.77 13.57 29.08C14.27 29.28 14.83 29.89 14.96 30.61C15.09 31.31 14.87 31.97 14.41 32.41L13.17 33.67C12.75 34.09 12.42 34.61 12.22 35.19C12.08 35.6 12 36.04 12 36.5V37H14C14 36.54 14.05 36.18 14.13 35.86C14.31 35.14 14.67 34.68 15.17 34.17Z" fill="#C4D3E4"/>
</svg>
