<svg width="60" height="60" viewBox="0 0 60 60" fill="none" xmlns="http://www.w3.org/2000/svg">
    <path fill-rule="evenodd" clip-rule="evenodd" d="M52.7641 23.6735L32.2286 7.21562C31.7804 6.81589 31.2204 6.63828 30.6728 6.67044H30.656H30.6392C30.0907 6.63828 29.5311 6.81589 29.0844 7.21562L8.54892 23.6735C7.64112 24.4898 7.5441 25.9096 8.33614 26.8481C9.1253 27.7817 10.5048 27.8841 11.415 27.0643L30.656 11.6444L49.9004 27.0643C50.8116 27.8841 52.1896 27.7817 52.9783 26.8481C53.7689 25.9096 53.6738 24.4898 52.7641 23.6735Z" fill="#C4D3E4"/>
    <path fill-rule="evenodd" clip-rule="evenodd" d="M30.6792 15L12.3809 29.1766V47.6038C12.3809 49.1892 13.6704 50.4761 15.2623 50.4761H25.3038H35.8748H46.1185C47.7095 50.4761 49 49.1892 49 47.6038V29.3263L30.6792 15Z" fill="#C4D3E4"/>
    <path fill-rule="evenodd" clip-rule="evenodd" d="M30 27C24.48 27 20 31.48 20 37C20 42.52 24.48 47 30 47C35.52 47 40 42.52 40 37C40 31.48 35.52 27 30 27ZM29 44V42H31V44H29ZM32.17 37.17L33.07 36.25C34.09 35.23 34.44 33.48 33.26 31.85C32.36 30.6 30.91 29.81 29.39 30.05C27.84 30.29 26.59 31.41 26.16 32.88C26 33.44 26.4 34 26.98 34H27.28C27.67 34 27.98 33.72 28.1 33.35C28.43 32.4 29.46 31.77 30.57 32.08C31.27 32.28 31.83 32.89 31.96 33.61C32.09 34.31 31.87 34.97 31.41 35.41L30.17 36.67C29.75 37.09 29.42 37.61 29.22 38.19C29.08 38.6 29 39.04 29 39.5V40H31C31 39.54 31.05 39.18 31.13 38.86C31.31 38.14 31.67 37.68 32.17 37.17Z" fill="#133DBD"/>
</svg>
