<svg width="48" height="24" viewBox="0 0 48 24" fill="none" xmlns="http://www.w3.org/2000/svg"><path fill-rule="evenodd" clip-rule="evenodd" d="M5 18c0 .55.45 1 1 1h12c.55 0 1-.45 1-1v-5c0-.55.45-1 1-1s1 .45 1 1v6c0 1.1-.9 2-2 2H5c-1.1 0-2-.9-2-2V5a2 2 0 012-2h6c.55 0 1 .45 1 1s-.45 1-1 1H6c-.55 0-1 .45-1 1v12zM15 5c-.55 0-1-.45-1-1s.45-1 1-1h5c.55 0 1 .45 1 1v5c0 .55-.45 1-1 1s-1-.45-1-1V6.41l-9.13 9.13a.996.996 0 11-1.41-1.41L17.59 5H15z" fill="#3F6DA7"/><path fill-rule="evenodd" clip-rule="evenodd" d="M29 18c0 .55.45 1 1 1h12c.55 0 1-.45 1-1v-5c0-.55.45-1 1-1s1 .45 1 1v6c0 1.1-.9 2-2 2H29c-1.1 0-2-.9-2-2V5a2 2 0 012-2h6c.55 0 1 .45 1 1s-.45 1-1 1h-5c-.55 0-1 .45-1 1v12zM39 5c-.55 0-1-.45-1-1s.45-1 1-1h5c.55 0 1 .45 1 1v5c0 .55-.45 1-1 1s-1-.45-1-1V6.41l-9.13 9.13a.996.996 0 11-1.41-1.41L41.59 5H39z" fill="#28476D"/></svg>